<?xml version="1.0" encoding="utf-8"?>
<!-- Generator: Adobe Illustrator 16.0.0, SVG Export Plug-In . SVG Version: 6.00 Build 0)  -->
<!DOCTYPE svg PUBLIC "-//W3C//DTD SVG 1.1//EN" "http://www.w3.org/Graphics/SVG/1.1/DTD/svg11.dtd">
<svg version="1.1" xmlns="http://www.w3.org/2000/svg" xmlns:xlink="http://www.w3.org/1999/xlink" x="0px" y="0px"
	 width="50.667px" height="136px" viewBox="0 0 50.667 136" enable-background="new 0 0 50.667 136" xml:space="preserve">
<g id="Capa_3">
</g>
<g id="Capa_2">
</g>
<g id="Capa_1">
	<g>
		<g>
			<path fill="#472728" d="M51.454,0H0c0.176,36,0.592,128.816,0.595,129.193c0,7.527,4.178,9.802,6.667,10.555
				c0.849,0.258,1.719,0.33,2.587,0.33c2.679,0,5.215-1.254,7.294-3.518c1.673,2.848,4.739,4.657,8.16,4.685
				c3.897-0.031,7.231-2.317,8.715-5.706c2.214,2.869,5.134,4.485,8.181,4.485c0.872,0,1.744-0.134,2.594-0.391
				c1.701-0.516,7.217-2.599,6.685-10.665C51.437,127.324,52.202,28,51.454,0z"/>
			<g>
				<path fill="#3D6D74" d="M46.774,128.658c0,0,0.545-120.705-0.038-124.955H26.075H4.879C4.298,7.953,5.38,128.658,5.38,128.658
					c0,2.855,0.684,5.357,3.289,6.146c2.604,0.792,4.768-1.102,6.141-3.283l2.963-4.904c0.335-0.499,0.904-0.827,1.553-0.827
					c1.029,0,1.863,0.834,1.863,1.861v3.621c0,2.708,2.187,4.903,4.887,4.926c2.705-0.022,4.892-2.218,4.892-4.926v-3.621
					c0-1.027,0.834-1.861,1.868-1.861c0.644,0,1.213,0.328,1.548,0.827l2.958,4.904c1.375,2.182,3.541,4.075,6.146,3.283
					C46.091,134.016,46.99,131.694,46.774,128.658"/>
			</g>
		</g>
	</g>
</g>
<g id="Capa_5">
</g>
<g id="Test">
</g>
</svg>
