<?xml version="1.0" encoding="utf-8"?>
<!-- Generator: Adobe Illustrator 16.0.0, SVG Export Plug-In . SVG Version: 6.00 Build 0)  -->
<!DOCTYPE svg PUBLIC "-//W3C//DTD SVG 1.1//EN" "http://www.w3.org/Graphics/SVG/1.1/DTD/svg11.dtd">
<svg version="1.1" xmlns="http://www.w3.org/2000/svg" xmlns:xlink="http://www.w3.org/1999/xlink" x="0px" y="0px" width="138px"
	 height="132px" viewBox="0 0 138 132" enable-background="new 0 0 138 132" xml:space="preserve">
<g id="Capa_3">
</g>
<g id="Capa_2">
</g>
<g id="Capa_1">
	<g>
		<g>
			<path fill="#472728" d="M134.483,98.112c-0.271-0.328-56.794-73.929-79.401-101.081l-40.607,31.56
				c16.702,20.938,77.881,98.343,79.934,100.902l0.217,0.271c4.652,5.914,9.412,5.209,11.835,4.263
				c0.825-0.322,1.59-0.757,2.272-1.294c2.195-1.727,3.418-4.406,3.581-7.628c3.138,1.358,6.769,0.938,9.563-1.259l0.01-0.007
				l0.006-0.005c2.985-2.351,4.225-6.038,3.421-9.551c3.411,0.793,6.514,0.257,8.857-1.587c0.684-0.538,1.294-1.172,1.802-1.9
				C136.988,109.34,139.885,104.127,134.483,98.112z"/>
			<g>
				<path fill="#3D6D74" d="M131.239,101.475c0,0-74.206-95.203-77.292-98.182L37.709,16.066l-16.66,13.107
					c2.172,3.699,77.655,97.896,77.655,97.896c1.766,2.244,3.848,3.789,6.383,2.798c2.538-0.987,3.07-3.815,2.801-6.379
					l-0.704-5.687c-0.047-0.6,0.197-1.207,0.707-1.609c0.809-0.636,1.98-0.498,2.616,0.31l2.239,2.847
					c1.675,2.127,4.746,2.504,6.887,0.849c2.112-1.689,2.473-4.767,0.799-6.895l-2.238-2.846c-0.637-0.809-0.496-1.979,0.313-2.616
					c0.51-0.4,1.16-0.494,1.731-0.31l5.356,2.025c2.432,0.864,5.304,1.013,6.861-1.22
					C134.015,106.107,133.282,103.729,131.239,101.475"/>
			</g>
		</g>
	</g>
</g>
<g id="Capa_5">
</g>
<g id="Test">
</g>
</svg>
