<svg xmlns="http://www.w3.org/2000/svg" width="50.667" height="136" viewBox="0 0 50.667 136"><path fill="#472728" d="M51.454 0H0c.176 36 .592 128.816.595 129.193 0 7.527 4.178 9.802 6.667 10.555.849.258 1.719.33 2.587.33 2.679 0 5.215-1.254 7.294-3.518 1.673 2.848 4.739 4.657 8.16 4.685 3.897-.031 7.231-2.317 8.715-5.706 2.214 2.869 5.134 4.485 8.181 4.485a8.96 8.96 0 0 0 2.594-.391c1.701-.516 7.217-2.599 6.685-10.665C51.437 127.324 52.202 28 51.454 0z"/><path fill="#3D6D74" d="M46.774 128.658s.545-120.705-.038-124.955H4.879c-.581 4.25.501 124.955.501 124.955 0 2.855.684 5.357 3.289 6.146 2.604.792 4.768-1.102 6.141-3.283l2.963-4.904a1.865 1.865 0 0 1 1.553-.827c1.029 0 1.863.834 1.863 1.861v3.621a4.929 4.929 0 0 0 4.887 4.926 4.93 4.93 0 0 0 4.892-4.926v-3.621c0-1.027.834-1.861 1.868-1.861.644 0 1.213.328 1.548.827l2.958 4.904c1.375 2.182 3.541 4.075 6.146 3.283 2.603-.788 3.502-3.11 3.286-6.146"/></svg>