<svg xmlns="http://www.w3.org/2000/svg" width="310" height="507.084" viewBox="0 0 310 507.084"><path fill="#472728" d="M283.881 125.922c-.494-33.283-13.81-64.643-37.536-88.37C222.129 13.336 190.062 0 156.049 0c-26.904 0-53.73 8.576-75.283 24.137C45.93 48.438 25 87.658 25 129.154v.911c-13 9.914-20.967 25.606-20.967 42.344 0 19.165 10.466 36.792 27.252 46.163l2.198 38.55 3.856 68.683 2.979 53.939c.024 39.496 14.138 75.456 38.737 98.758l50.03 26.342c8.104 1.758 16.59 2.648 25.253 2.648 7.094 0 14.104-.602 20.854-1.79l49.293-22.47c28.951-23.049 45.557-61.169 45.578-104.633l4.799-86.897 2.537-45.955 1.449-26.236a52.977 52.977 0 0 0 7.417-4.587c14.55-9.878 23.237-26.221 23.237-43.719.002-18.449-9.799-35.736-25.621-45.283z"/><path fill="#75B5C6" d="M303.623 170.712c0-18.42-10.412-34.435-25.65-42.523l.043-.829c0-67.701-55.392-123.092-123.089-123.092-67.698 0-123.09 55.391-123.09 123.092L45.66 377.945c0 67.699 41.568 123.092 109.267 123.092 67.697 0 109.266-55.393 109.266-123.092l8.965-162.515c17.815-7.056 30.465-24.418 30.465-44.718"/><path fill="#75B5C6" d="M57.783 122.586c-26.537 0-48.124 21.59-48.124 48.126 0 26.535 21.587 48.126 48.124 48.126 26.534 0 48.123-21.591 48.123-48.126 0-26.536-21.589-48.126-48.123-48.126"/><defs opacity=".75"><path id="a" d="M62.662 282.344H238.6v46.088H62.662z"/></defs><path fill="#66A5B6" d="M57.783 136.961c20.1 0 36.394 16.293 36.394 36.394 0 20.098-16.294 36.393-36.394 36.393-20.101 0-36.394-16.295-36.394-36.393.001-20.101 16.294-36.394 36.394-36.394M254.683 136.961c20.099 0 36.394 16.293 36.394 36.394 0 20.098-16.295 36.393-36.394 36.393-20.101 0-36.394-16.295-36.394-36.393 0-20.101 16.293-36.394 36.394-36.394"/><path fill="#472728" d="M272.242 234.71l4.755.227-3.17 66.23-4.755-.227zM38.851 250.561l3.176 66.23-4.753.228-3.176-66.23zM146.346 505.617c-40.311 0-74.579-36.11-76.047-37.678l3.475-3.253c.352.375 35.666 37.587 74.836 36.129l.174 4.757c-.813.03-1.629.045-2.438.045zM171.318 504.734l-.629-4.717c38.516-5.133 61.934-31.723 62.166-31.991l3.598 3.116c-.996 1.149-24.849 28.224-65.135 33.592z"/><path fill="#EFCE36" d="M57.783 138.313c17.895 0 32.401 14.505 32.401 32.399s-14.507 32.401-32.401 32.401-32.401-14.507-32.401-32.401 14.507-32.399 32.401-32.399"/><path fill="#472728" d="M57.783 204.898c-18.85 0-34.187-15.337-34.187-34.187s15.337-34.185 34.187-34.185 34.186 15.335 34.186 34.185-15.336 34.187-34.186 34.187zm0-64.802c-16.883 0-30.617 13.734-30.617 30.616 0 16.883 13.734 30.617 30.617 30.617s30.616-13.734 30.616-30.617c0-16.882-13.733-30.616-30.616-30.616z"/><path fill="#EFCE36" d="M255.5 138.313c17.895 0 32.396 14.505 32.396 32.399s-14.502 32.401-32.396 32.401c-17.899 0-32.401-14.507-32.401-32.401s14.502-32.399 32.401-32.399"/><path fill="#472728" d="M255.5 204.898c-18.85 0-34.186-15.337-34.186-34.187s15.336-34.185 34.186-34.185c18.848 0 34.181 15.335 34.181 34.185s-15.333 34.187-34.181 34.187zm0-64.802c-16.883 0-30.617 13.734-30.617 30.616 0 16.883 13.734 30.617 30.617 30.617 16.879 0 30.612-13.734 30.612-30.617 0-16.882-13.733-30.616-30.612-30.616z"/><path fill="#66A5B6" d="M36.578 127.128s23.178-37.669 49.505 2.786c0 0-21.262-20.221-49.505-2.786z"/><path fill="#472728" d="M84.748 130.514c-.422 0-.845-.148-1.185-.451-20.118-17.882-43.53-3.053-44.518-2.41a1.79 1.79 0 0 1-2.468-.524 1.784 1.784 0 0 1 .521-2.468c.266-.171 26.662-16.977 48.836 2.735a1.784 1.784 0 0 1-1.186 3.118z"/><g><path fill="#66A5B6" d="M155.537 4.105s105.291 27.266 72.772 119.27c0 0 26.571-8.922 50.563 4.957 0 0-.495-114.411-123.335-124.227z"/></g><g><path fill="#472728" d="M224.861 130.514a1.785 1.785 0 0 1-1.187-3.119c22.173-19.714 48.571-2.907 48.835-2.735a1.784 1.784 0 0 1-1.948 2.992c-.987-.642-24.398-15.474-44.518 2.41a1.765 1.765 0 0 1-1.182.452z"/></g><g><path fill="#472728" d="M57.783 191.369a5.612 5.612 0 0 1-5.616-5.612V155.67a5.612 5.612 0 0 1 5.616-5.615 5.612 5.612 0 0 1 5.614 5.615v30.087c0 3.1-2.512 5.612-5.614 5.612"/><circle fill="#FFF" cx="67.289" cy="156.445" r="7.127"/></g><g><path fill="#472728" d="M255.5 191.369a5.613 5.613 0 0 1-5.617-5.612V155.67a5.613 5.613 0 0 1 5.617-5.615c3.1 0 5.611 2.512 5.611 5.615v30.087a5.61 5.61 0 0 1-5.611 5.612"/><circle fill="#FFF" cx="264.783" cy="154.066" r="7.127"/></g><g><path fill="#66A5B6" d="M153.473 229.451c-19.129 0-37.219-7.105-51.189-20.163-7.187-6.715-7.565-17.981-.851-25.17 6.714-7.187 17.979-7.565 25.168-.851 15.908 14.862 40.944 14.02 55.806-1.885 6.711-7.186 17.98-7.566 25.163-.851 7.189 6.717 7.566 17.979.851 25.165-13.652 14.61-32.234 23.025-52.329 23.707-.873.035-1.746.048-2.619.048"/></g><g><path fill="#ACD2E2" d="M153.473 224.673c-19.129 0-37.219-7.106-51.189-20.163-7.187-6.715-7.565-17.982-.851-25.17 6.714-7.187 17.979-7.566 25.168-.851 15.908 14.862 40.944 14.019 55.806-1.886 6.711-7.186 17.98-7.566 25.163-.85 7.189 6.716 7.566 17.978.851 25.164-13.652 14.611-32.234 23.026-52.329 23.707-.873.035-1.746.049-2.619.049"/></g><g><path fill="#8CB2C1" d="M153.539 216.409c-15.478 0-30.979-5.631-43.148-17.002a5.93 5.93 0 0 1-.283-8.391 5.935 5.935 0 0 1 8.389-.284c20.681 19.333 53.242 18.233 72.58-2.454a5.939 5.939 0 0 1 8.391-.284c2.393 2.236 2.517 5.994.283 8.393-12.43 13.296-29.302 20.022-46.212 20.022"/></g><g><path fill="#472728" d="M153.539 213.237c-15.478 0-30.979-5.631-43.148-17.003a5.929 5.929 0 0 1-.283-8.39 5.934 5.934 0 0 1 8.389-.283c20.681 19.333 53.242 18.232 72.58-2.455a5.939 5.939 0 0 1 8.391-.284c2.393 2.236 2.517 5.994.283 8.393-12.43 13.296-29.302 20.022-46.212 20.022"/></g><g><path fill="#66A5B6" d="M153.473 229.451c-19.129 0-37.219-7.105-51.189-20.163-7.187-6.715-7.565-17.981-.851-25.17 6.714-7.187 17.979-7.565 25.168-.851 15.908 14.862 40.944 14.02 55.806-1.885 6.711-7.186 17.98-7.566 25.163-.851 7.189 6.717 7.566 17.979.851 25.165-13.652 14.61-32.234 23.025-52.329 23.707-.873.035-1.746.048-2.619.048"/><path fill="#ACD2E2" d="M153.473 224.673c-19.129 0-37.219-7.106-51.189-20.163-7.187-6.715-7.565-17.982-.851-25.17 6.714-7.187 17.979-7.566 25.168-.851 15.908 14.862 40.944 14.019 55.806-1.886 6.711-7.186 17.98-7.566 25.163-.85 7.189 6.716 7.566 17.978.851 25.164-13.652 14.611-32.234 23.026-52.329 23.707-.873.035-1.746.049-2.619.049"/><path fill="#8CB2C1" d="M153.539 216.409c-15.478 0-30.979-5.631-43.148-17.002a5.93 5.93 0 0 1-.283-8.391 5.935 5.935 0 0 1 8.389-.284c20.681 19.333 53.242 18.233 72.58-2.454a5.939 5.939 0 0 1 8.391-.284c2.393 2.236 2.517 5.994.283 8.393-12.43 13.296-29.302 20.022-46.212 20.022"/><path fill="#472728" d="M153.539 213.237c-15.478 0-30.979-5.631-43.148-17.003a5.929 5.929 0 0 1-.283-8.39 5.934 5.934 0 0 1 8.389-.283c20.681 19.333 53.242 18.232 72.58-2.455a5.939 5.939 0 0 1 8.391-.284c2.393 2.236 2.517 5.994.283 8.393-12.43 13.296-29.302 20.022-46.212 20.022"/></g><g><path fill="#66A5B6" d="M91.497 340.269c-.175 4.128-.1 8.304.019 12.382.089 2.094.326 4.103.63 6.072l.603 2.975.794 2.917c.616 1.92 1.394 3.767 2.266 5.555.922 1.764 1.978 3.44 3.186 4.964 1.206 1.516 2.532 2.946 4.124 3.935a13.658 13.658 0 0 0 4.888 2.012c1.513.451 3.349.425 4.425.479l1.547-.114c.583-.021.679-.171 1.046-.224.56-.06 1.359-.45 2.079-.702 1.418-.736 2.855-1.583 4.09-2.83 1.292-1.142 2.387-2.587 3.441-4.059.983-1.542 1.885-3.162 2.628-4.888a39.35 39.35 0 0 0 1.854-5.351c.5-1.835.859-3.716 1.122-5.616.259-1.904.358-3.828.421-5.753h7.001c.046 1.697.049 3.397.255 5.085.135 1.692.431 3.366.779 5.015.342 1.656.827 3.265 1.352 4.859l.904 2.337 1.069 2.244a34.192 34.192 0 0 0 2.614 4.135c1.008 1.248 2.08 2.417 3.271 3.393 1.208.934 2.465 1.813 3.834 2.299 1.341.611 2.761.779 4.176.889.342-.071 1.858-.059 2.305-.238.598-.168 1.189-.238 1.9-.566 1.386-.467 2.685-1.309 3.932-2.223 1.232-.952 2.351-2.11 3.402-3.354a33.957 33.957 0 0 0 2.757-4.121l1.14-2.247.975-2.351c.571-1.603 1.108-3.227 1.494-4.9.399-1.668.738-3.365.922-5.081.244-1.713.295-3.444.379-5.174h5.096c.037 1.729.033 3.468.23 5.194.127 1.725.416 3.44.767 5.128.335 1.702.822 3.358 1.354 4.993l.911 2.415 1.087 2.324a35.139 35.139 0 0 0 2.696 4.314l1.621 1.913c.606.553 1.167 1.188 1.804 1.699 1.275 1.018 2.621 1.98 4.117 2.54 1.399.686 3.186.897 4.48 1.051.864-.083 1.924-.036 2.626-.226.725-.168 1.452-.271 2.226-.615 1.548-.499 2.961-1.409 4.318-2.395 1.338-1.024 2.532-2.254 3.656-3.568a35.42 35.42 0 0 0 2.924-4.314l1.206-2.343 1.026-2.438c.602-1.665 1.179-3.345 1.6-5.073.43-1.725.804-3.475 1.01-5.249.272-1.771.352-3.562.453-5.354l.008-.058a.85.85 0 0 1 1.698.057c-.009 1.854.007 3.715-.179 5.569-.123 1.855-.414 3.703-.774 5.53-.343 1.842-.853 3.652-1.426 5.436l-.99 2.646-1.192 2.576a38.757 38.757 0 0 1-3.012 4.861c-1.188 1.513-2.483 2.961-3.994 4.224-1.535 1.224-3.184 2.382-5.084 3.1-.893.436-1.957.686-3.01.935-1.068.261-1.861.229-2.804.357-2.335-.048-4.218-.303-6.182-1.082-1.954-.653-3.674-1.764-5.284-2.956-1.594-1.223-2.963-2.665-4.227-4.172a38.918 38.918 0 0 1-3.246-4.869l-1.306-2.588-1.106-2.676c-.646-1.813-1.24-3.641-1.671-5.511-.441-1.864-.813-3.751-1.018-5.657-.268-1.896-.325-3.809-.411-5.722a2.552 2.552 0 0 1 2.436-2.662 2.543 2.543 0 0 1 2.66 2.435l.005.147-.005.08c-.029 1.913-.035 3.832-.251 5.741-.146 1.912-.469 3.819-.862 5.705-.376 1.896-.927 3.755-1.533 5.604l-1.041 2.737-1.26 2.67a39.33 39.33 0 0 1-3.179 5.061c-1.252 1.584-2.633 3.1-4.245 4.431-1.643 1.29-3.406 2.522-5.471 3.276-.949.444-2.153.729-3.338.979-1.32.271-1.659.2-3.121.342-2.217-.084-4.469-.39-6.49-1.24-2.082-.73-3.89-1.925-5.567-3.197-1.654-1.309-3.081-2.813-4.378-4.391a39.401 39.401 0 0 1-3.323-5.048l-1.329-2.672-1.113-2.75c-.654-1.858-1.249-3.734-1.675-5.647-.437-1.906-.804-3.831-1.001-5.77-.258-1.939-.31-3.886-.379-5.831a3.494 3.494 0 0 1 3.364-3.634 3.502 3.502 0 0 1 3.634 3.364l.003.119v.15c.005 8.81-1.894 17.815-6.824 25.664-1.309 1.918-2.707 3.806-4.476 5.454-1.678 1.716-3.78 3.113-6.019 4.269-1.213.479-2.281 1.03-3.776 1.317-.646.138-1.535.373-1.988.384l-1.55.127-.702.023-.488-.042-.98-.087c-.652-.055-1.306-.135-1.922-.351a13.214 13.214 0 0 1-3.553-1.443c-1.143-.557-2.049-1.422-3.021-2.131-.843-.855-1.746-1.636-2.463-2.539a38.542 38.542 0 0 1-3.988-5.414c-1.158-1.873-2.024-3.875-2.856-5.855l-1.062-3.039-.837-3.088-.648-3.116-.43-3.146c-.193-2.135-.302-4.25-.261-6.302.035-4.191.17-8.286-.022-12.439a.855.855 0 0 1 1.706-.077c-.003.029-.003.06-.003.081M64.537 285.66c.139 2.041.215 4.114.505 6.075.197 1.982.603 3.974.987 5.937.446 1.958.925 3.896 1.524 5.795.618 1.894 1.28 3.774 2.119 5.564.802 1.803 1.718 3.547 2.793 5.161a28.1 28.1 0 0 0 3.546 4.504c.628.708 1.395 1.229 2.075 1.856.776.462 1.491 1.07 2.31 1.401 1.571.863 3.291 1.12 4.971 1.214.554-.128 2.119-.119 2.621-.438.367-.133.718-.196 1.102-.351l1.171-.58c.792-.354 1.479-.976 2.231-1.442.659-.644 1.394-1.169 2-1.884a25.794 25.794 0 0 0 3.367-4.532c1.001-1.623 1.848-3.378 2.579-5.176.761-1.789 1.353-3.656 1.894-5.537a60.657 60.657 0 0 0 1.281-5.753c.289-1.947.599-3.899.704-5.87.197-1.967.179-3.946.229-5.917h5.153c.087 1.971.103 3.948.34 5.905.142 1.97.485 3.909.811 5.844a59.409 59.409 0 0 0 1.386 5.701c.571 1.855 1.189 3.702 1.979 5.455.755 1.767 1.624 3.483 2.64 5.057.976 1.613 2.133 3.064 3.376 4.363.6.683 1.32 1.169 1.964 1.777.723.424 1.392 1.011 2.149 1.313 1.454.818 3.012 1.038 4.536 1.14.357-.108 2.145-.114 2.449-.397.313-.123.606-.168.95-.304l1.092-.527c.743-.31 1.399-.902 2.107-1.335.628-.609 1.334-1.105 1.919-1.788a25.135 25.135 0 0 0 3.283-4.376c.986-1.58 1.822-3.29 2.548-5.055.757-1.749 1.345-3.593 1.894-5.444a58.94 58.94 0 0 0 1.287-5.67c.3-1.925.615-3.851.732-5.802.204-1.947.183-3.905.26-5.856h6.472c.061 1.951.058 3.909.27 5.854.118 1.949.441 3.876.741 5.798a59.613 59.613 0 0 0 1.311 5.67c.551 1.845 1.146 3.679 1.902 5.428.73 1.758 1.574 3.465 2.563 5.035a24.577 24.577 0 0 0 3.284 4.347c.583.683 1.287 1.166 1.914 1.774.707.428 1.359 1.014 2.094 1.323.718.366 1.445.688 2.191.84.371.125.743.223 1.122.223l.563.051.28.028.145.024.068.005h.034l.017.007c-.119.006.307-.012-.274.013l1.536-.128c.239-.026.539-.033.731-.075l.453-.164c.31-.105.603-.142.948-.267l1.09-.509c.744-.3 1.404-.878 2.122-1.304.634-.6 1.35-1.081 1.944-1.762a25.016 25.016 0 0 0 3.349-4.339c1.009-1.565 1.875-3.275 2.623-5.039.783-1.745 1.398-3.587 1.969-5.436a59.435 59.435 0 0 0 1.37-5.686c.323-1.925.668-3.862.807-5.823.229-1.952.246-3.925.33-5.89h5.559c.051 1.965.032 3.938.232 5.898.108 1.964.418 3.909.705 5.851.35 1.932.74 3.851 1.251 5.74.527 1.874 1.102 3.747 1.847 5.534.711 1.8 1.543 3.552 2.529 5.181.945 1.66 2.082 3.174 3.322 4.547.595.717 1.329 1.248 1.982 1.892.741.477 1.427 1.102 2.221 1.456 1.437.914 3.397 1.214 4.694 1.391.948-.115 2.226-.064 2.83-.354.374-.116.741-.174 1.136-.314l1.202-.542c.825-.331 1.541-.939 2.314-1.396.688-.625 1.452-1.15 2.093-1.848 1.325-1.34 2.555-2.838 3.591-4.485 1.078-1.62 1.998-3.371 2.8-5.175.839-1.789 1.504-3.67 2.126-5.566a60.535 60.535 0 0 0 1.501-5.811c.36-1.977.756-3.954.948-5.957.288-2.003.349-4.021.481-6.04l.002-.063a.924.924 0 0 1 .985-.863.928.928 0 0 1 .866.927c-.004 2.074.061 4.154-.104 6.227-.067 2.087-.347 4.157-.633 6.228a63.236 63.236 0 0 1-1.275 6.149c-.553 2.027-1.162 4.048-1.963 6.015-.768 1.97-1.671 3.907-2.777 5.756-1.053 1.87-2.348 3.638-3.824 5.279-.705.848-1.615 1.537-2.424 2.306-.951.628-1.817 1.377-2.879 1.874l-1.573.763c-.561.222-1.202.376-1.809.558-1.331.435-2.155.341-3.228.516-.989-.026-1.308-.081-1.996-.13-.605-.013-1.185-.148-1.766-.315-1.181-.244-2.272-.689-3.332-1.217-1.088-.471-1.982-1.194-2.968-1.809-.843-.751-1.789-1.434-2.537-2.264a30.515 30.515 0 0 1-4.092-5.217c-1.194-1.838-2.188-3.77-3.049-5.75-.895-1.967-1.595-3.999-2.237-6.042a57.671 57.671 0 0 1-1.533-6.228c-.354-2.099-.719-4.207-.872-6.33-.249-2.118-.268-4.242-.349-6.368a2.78 2.78 0 0 1 2.67-2.891 2.784 2.784 0 0 1 2.889 2.673v.218c-.049 2.126-.04 4.257-.256 6.375-.121 2.131-.453 4.243-.771 6.358a64.843 64.843 0 0 1-1.413 6.281c-.6 2.071-1.259 4.132-2.112 6.137-.824 2.02-1.784 3.999-2.961 5.899-1.119 1.912-2.49 3.728-4.061 5.421-.753.866-1.718 1.597-2.577 2.396-1.007.667-1.931 1.437-3.065 1.964l-1.689.799c-.608.24-1.326.418-1.996.599l-1.024.257c-.31.062-.525.062-.787.098l-1.529.154-.325.006h-.03l-.059-.006-.12-.007-.242-.019-.48-.04-.969-.089c-.651-.033-1.276-.178-1.883-.361-1.269-.283-2.421-.772-3.529-1.343-1.146-.516-2.078-1.284-3.098-1.948-.867-.788-1.838-1.52-2.598-2.381a31.097 31.097 0 0 1-4.132-5.412c-1.194-1.895-2.175-3.881-3.019-5.896-.881-2.009-1.559-4.077-2.18-6.149-.606-2.08-1.078-4.183-1.471-6.297-.347-2.123-.699-4.244-.842-6.383-.234-2.137-.24-4.275-.309-6.413a3.23 3.23 0 0 1 3.126-3.341 3.242 3.242 0 0 1 3.346 3.129v.212c-.063 2.138-.089 4.276-.323 6.41-.146 2.142-.504 4.263-.854 6.379a66.934 66.934 0 0 1-1.488 6.291c-.625 2.072-1.312 4.134-2.193 6.14-.852 2.012-1.832 3.989-3.031 5.875a30.958 30.958 0 0 1-4.133 5.389c-.76.861-1.729 1.585-2.599 2.367-1.013.656-1.94 1.42-3.081 1.93l-1.688.781c-.608.236-1.326.396-1.988.574-1.639.44-1.952.285-3.615.46-2.552-.136-5.11-.689-7.248-1.907-1.127-.514-2.043-1.287-3.042-1.95-.85-.792-1.808-1.513-2.554-2.38a31.021 31.021 0 0 1-4.04-5.398c-1.167-1.889-2.122-3.863-2.94-5.873-.85-2.002-1.503-4.057-2.098-6.123a66.792 66.792 0 0 1-1.401-6.266c-.316-2.105-.648-4.215-.77-6.336-.209-2.118-.192-4.243-.241-6.362v-.045a2.579 2.579 0 1 1 5.157-.119l-.003.163c-.085 2.119-.106 4.241-.353 6.35-.158 2.118-.522 4.218-.876 6.31a64.886 64.886 0 0 1-1.501 6.214c-.628 2.042-1.311 4.069-2.191 6.04-.841 1.977-1.819 3.916-3.002 5.758a30.348 30.348 0 0 1-4.043 5.228c-.742.831-1.681 1.52-2.52 2.272-.974.625-1.87 1.356-2.958 1.823l-1.61.728c-.569.219-1.227.36-1.838.521-1.438.413-1.973.277-3.441.432-2.392-.148-4.791-.666-6.813-1.829-1.063-.495-1.934-1.242-2.884-1.873-.816-.763-1.723-1.455-2.438-2.296-1.491-1.633-2.82-3.377-3.873-5.258-1.106-1.848-2.008-3.797-2.781-5.77-.805-1.964-1.413-3.992-1.969-6.02a55.532 55.532 0 0 1-1.255-6.166c-.26-2.077-.531-4.139-.594-6.25-.156-2.111-.082-4.134-.077-6.188a.93.93 0 0 1 .932-.928.934.934 0 0 1 .924.872"/><path fill="#ACD2E2" d="M63.927 282.605c.137 2.041.214 4.115.504 6.075.198 1.983.602 3.974.987 5.937.446 1.958.926 3.896 1.525 5.796.617 1.894 1.279 3.772 2.119 5.563.801 1.804 1.717 3.547 2.793 5.16a27.917 27.917 0 0 0 3.546 4.506c.627.707 1.394 1.229 2.075 1.855.775.462 1.491 1.07 2.31 1.402 1.57.863 3.29 1.119 4.97 1.213.553-.129 2.119-.119 2.621-.438.367-.132.719-.195 1.102-.351l1.172-.58c.792-.354 1.477-.976 2.229-1.443.66-.644 1.396-1.168 2.001-1.883a25.695 25.695 0 0 0 3.367-4.532c1.002-1.623 1.848-3.377 2.579-5.175.76-1.789 1.353-3.657 1.894-5.538a60.213 60.213 0 0 0 1.281-5.753c.29-1.947.6-3.898.703-5.87.197-1.967.18-3.945.23-5.917h5.154c.086 1.972.102 3.948.339 5.905.142 1.97.485 3.909.812 5.844a59.363 59.363 0 0 0 1.385 5.703c.571 1.854 1.189 3.701 1.979 5.452.755 1.768 1.624 3.483 2.64 5.059a25.151 25.151 0 0 0 3.376 4.362c.6.684 1.32 1.168 1.964 1.777.723.424 1.392 1.011 2.149 1.313 1.454.817 3.011 1.037 4.536 1.14.357-.109 2.145-.115 2.449-.398.313-.123.605-.167.95-.304l1.093-.527c.743-.31 1.397-.901 2.106-1.333.628-.612 1.334-1.108 1.92-1.789a25.3 25.3 0 0 0 3.283-4.376c.985-1.582 1.821-3.29 2.547-5.056.757-1.748 1.345-3.592 1.894-5.444a58.94 58.94 0 0 0 1.287-5.67c.3-1.925.616-3.851.732-5.801.204-1.948.184-3.906.26-5.857h6.472c.061 1.951.058 3.909.27 5.854.118 1.951.441 3.878.741 5.799a59.85 59.85 0 0 0 1.311 5.67c.551 1.845 1.146 3.68 1.903 5.428.729 1.759 1.573 3.465 2.563 5.036a24.597 24.597 0 0 0 3.283 4.347c.582.681 1.287 1.165 1.914 1.773.707.428 1.359 1.015 2.094 1.323.719.365 1.445.689 2.191.84.372.127.743.223 1.122.223l.563.051.281.029.144.023.067.005h.036l.016.007c-.119.007.307-.012-.274.014l1.536-.129c.239-.025.539-.032.732-.074l.453-.164c.309-.106.602-.142.947-.268l1.09-.51c.744-.299 1.403-.877 2.121-1.303.635-.6 1.351-1.082 1.945-1.762a24.979 24.979 0 0 0 3.349-4.339c1.009-1.565 1.875-3.275 2.623-5.039.783-1.745 1.399-3.587 1.968-5.435a59.236 59.236 0 0 0 1.372-5.687c.323-1.925.667-3.863.806-5.823.23-1.951.247-3.925.33-5.89h5.559c.051 1.965.032 3.938.232 5.899.109 1.963.418 3.908.706 5.85.349 1.932.739 3.85 1.25 5.74.528 1.874 1.102 3.747 1.848 5.534.711 1.8 1.543 3.552 2.528 5.181.945 1.662 2.082 3.174 3.322 4.546.596.719 1.329 1.249 1.982 1.894.741.477 1.427 1.101 2.222 1.455 1.436.914 3.397 1.215 4.694 1.391.947-.116 2.226-.064 2.829-.354.374-.117.742-.175 1.137-.316l1.202-.54c.824-.332 1.539-.939 2.313-1.398.688-.624 1.452-1.148 2.094-1.848a26.517 26.517 0 0 0 3.591-4.483c1.077-1.62 1.998-3.373 2.8-5.176.839-1.789 1.503-3.67 2.126-5.566a60.621 60.621 0 0 0 1.501-5.812c.36-1.976.755-3.953.948-5.955.287-2.003.348-4.021.48-6.041l.002-.063a.925.925 0 0 1 .986-.863.931.931 0 0 1 .866.927c-.005 2.074.061 4.153-.104 6.227-.067 2.087-.347 4.157-.633 6.228a64.22 64.22 0 0 1-1.274 6.15c-.554 2.027-1.162 4.046-1.964 6.013-.768 1.971-1.672 3.908-2.777 5.757-1.053 1.871-2.347 3.638-3.824 5.279-.704.848-1.615 1.536-2.424 2.306-.95.629-1.817 1.378-2.879 1.874l-1.574.764c-.559.222-1.2.377-1.807.556-1.332.437-2.157.342-3.229.517-.989-.025-1.308-.08-1.996-.129-.606-.013-1.185-.149-1.766-.316-1.18-.244-2.272-.689-3.332-1.217-1.087-.471-1.981-1.193-2.967-1.809-.844-.75-1.789-1.434-2.538-2.264a30.547 30.547 0 0 1-4.092-5.216c-1.194-1.839-2.188-3.771-3.048-5.75-.896-1.967-1.595-3.999-2.238-6.043a57.676 57.676 0 0 1-1.534-6.228c-.353-2.098-.718-4.207-.871-6.33-.248-2.117-.267-4.242-.349-6.368a2.778 2.778 0 0 1 2.67-2.89 2.783 2.783 0 0 1 2.889 2.672v.218c-.049 2.126-.039 4.258-.256 6.376-.121 2.131-.453 4.242-.771 6.358a65.203 65.203 0 0 1-1.412 6.281c-.601 2.069-1.26 4.131-2.112 6.137-.825 2.019-1.785 3.999-2.961 5.898-1.12 1.912-2.491 3.729-4.062 5.421-.754.867-1.717 1.598-2.577 2.396-1.007.667-1.932 1.437-3.065 1.964l-1.689.8c-.608.24-1.326.418-1.996.598l-1.023.259c-.31.06-.525.06-.789.096l-1.528.154-.325.006h-.03l-.058-.006-.121-.008-.242-.018-.48-.039-.97-.09c-.65-.032-1.274-.178-1.882-.361-1.269-.282-2.421-.772-3.529-1.342-1.146-.516-2.078-1.285-3.098-1.949-.867-.788-1.838-1.519-2.598-2.381a31.06 31.06 0 0 1-4.132-5.412c-1.194-1.894-2.175-3.881-3.019-5.895-.88-2.009-1.56-4.077-2.18-6.15-.606-2.08-1.078-4.182-1.471-6.297-.346-2.123-.699-4.244-.841-6.382-.235-2.138-.242-4.276-.31-6.414a3.23 3.23 0 0 1 3.125-3.341 3.243 3.243 0 0 1 3.347 3.129v.212c-.063 2.138-.088 4.276-.323 6.41-.146 2.142-.504 4.263-.853 6.379a66.939 66.939 0 0 1-1.489 6.291c-.625 2.073-1.311 4.134-2.193 6.139-.851 2.013-1.832 3.991-3.03 5.876a31.14 31.14 0 0 1-4.134 5.391c-.76.858-1.729 1.584-2.598 2.366-1.014.656-1.94 1.42-3.082 1.929l-1.687.781c-.608.236-1.327.396-1.989.574-1.639.439-1.951.285-3.615.46-2.552-.136-5.109-.688-7.248-1.906-1.127-.515-2.042-1.287-3.041-1.951-.852-.792-1.809-1.513-2.554-2.379a31.218 31.218 0 0 1-4.042-5.399c-1.166-1.89-2.121-3.863-2.938-5.871-.851-2.004-1.503-4.058-2.099-6.125a66.333 66.333 0 0 1-1.4-6.266c-.316-2.104-.648-4.214-.77-6.336-.209-2.117-.193-4.242-.242-6.362v-.045a2.58 2.58 0 0 1 5.157-.119l-.002.163c-.086 2.12-.107 4.241-.354 6.35-.158 2.118-.522 4.218-.876 6.311a65.334 65.334 0 0 1-1.501 6.214c-.627 2.041-1.311 4.069-2.191 6.04-.842 1.976-1.819 3.915-3.002 5.757-1.127 1.859-2.498 3.615-4.043 5.229-.741.83-1.681 1.52-2.52 2.272-.974.624-1.87 1.355-2.957 1.823l-1.611.727c-.568.22-1.227.359-1.838.521-1.438.412-1.973.277-3.441.432-2.391-.147-4.791-.666-6.813-1.829-1.063-.495-1.934-1.241-2.885-1.873-.814-.764-1.721-1.456-2.437-2.296-1.491-1.632-2.821-3.377-3.874-5.257-1.105-1.849-2.008-3.797-2.781-5.77-.804-1.966-1.412-3.992-1.968-6.021a54.703 54.703 0 0 1-1.255-6.165c-.26-2.076-.533-4.138-.596-6.25-.155-2.111-.081-4.134-.076-6.188a.93.93 0 0 1 1.857-.056M91.497 336.919c-.175 4.128-.1 8.304.019 12.383.089 2.093.326 4.101.63 6.072l.603 2.974.794 2.918c.616 1.918 1.394 3.766 2.266 5.554.922 1.765 1.978 3.441 3.186 4.964 1.206 1.516 2.532 2.946 4.124 3.936a13.692 13.692 0 0 0 4.888 2.011c1.513.451 3.349.425 4.425.479l1.547-.114c.583-.02.679-.171 1.046-.224.56-.061 1.359-.451 2.079-.701 1.418-.737 2.855-1.584 4.09-2.831 1.292-1.142 2.387-2.587 3.441-4.059.983-1.542 1.885-3.161 2.628-4.888a39.269 39.269 0 0 0 1.854-5.352c.5-1.834.859-3.715 1.122-5.614.259-1.905.358-3.828.421-5.753h7.001c.046 1.697.049 3.396.255 5.084.135 1.692.431 3.367.779 5.016.342 1.655.827 3.264 1.352 4.858l.904 2.338 1.069 2.243a34.102 34.102 0 0 0 2.614 4.134c1.008 1.249 2.08 2.417 3.271 3.394 1.208.934 2.465 1.813 3.834 2.299 1.341.611 2.761.779 4.176.889.342-.071 1.858-.059 2.305-.238.598-.168 1.189-.238 1.9-.565 1.386-.468 2.685-1.309 3.932-2.223 1.232-.954 2.351-2.111 3.402-3.354a33.88 33.88 0 0 0 2.757-4.121l1.14-2.248.975-2.35c.571-1.604 1.108-3.227 1.494-4.9.399-1.668.738-3.365.922-5.081.244-1.712.295-3.444.379-5.173h5.096c.037 1.729.033 3.468.23 5.193.127 1.725.416 3.44.767 5.127.335 1.704.822 3.36 1.354 4.995l.911 2.415 1.087 2.323a35.227 35.227 0 0 0 2.696 4.315l1.621 1.912c.606.553 1.167 1.188 1.804 1.699 1.275 1.019 2.621 1.98 4.117 2.541 1.399.685 3.186.897 4.48 1.05.864-.083 1.924-.036 2.626-.226.725-.167 1.452-.271 2.226-.615 1.548-.499 2.961-1.41 4.318-2.396 1.338-1.022 2.532-2.254 3.656-3.567a35.643 35.643 0 0 0 2.924-4.313l1.206-2.344 1.026-2.438c.602-1.665 1.179-3.344 1.6-5.073.43-1.724.804-3.474 1.01-5.248.272-1.771.352-3.561.453-5.354l.008-.058a.852.852 0 0 1 .896-.8.853.853 0 0 1 .802.857c-.009 1.854.007 3.714-.179 5.57-.123 1.854-.414 3.701-.774 5.53-.343 1.841-.853 3.652-1.426 5.436l-.99 2.646-1.192 2.575a38.602 38.602 0 0 1-3.012 4.86c-1.188 1.514-2.483 2.963-3.994 4.225-1.535 1.225-3.184 2.383-5.084 3.1-.893.436-1.957.686-3.01.936-1.068.26-1.861.229-2.804.355-2.335-.047-4.218-.301-6.182-1.081-1.954-.653-3.674-1.764-5.284-2.956-1.594-1.224-2.963-2.665-4.227-4.172a39.054 39.054 0 0 1-3.246-4.868l-1.306-2.589-1.106-2.676c-.646-1.813-1.24-3.641-1.671-5.512-.441-1.863-.813-3.75-1.018-5.657-.268-1.896-.325-3.809-.411-5.72a2.55 2.55 0 0 1 2.436-2.662 2.541 2.541 0 0 1 2.66 2.434l.005.148-.005.08c-.029 1.911-.035 3.831-.251 5.739-.146 1.913-.469 3.819-.862 5.706-.376 1.896-.927 3.754-1.533 5.605l-1.041 2.736-1.26 2.67a39.33 39.33 0 0 1-3.179 5.061c-1.252 1.584-2.633 3.1-4.245 4.43-1.643 1.291-3.406 2.523-5.471 3.278-.949.443-2.153.727-3.338.978-1.32.271-1.659.2-3.121.342-2.217-.084-4.469-.39-6.49-1.239-2.082-.73-3.89-1.926-5.567-3.198-1.654-1.309-3.081-2.813-4.378-4.391a39.46 39.46 0 0 1-3.323-5.047l-1.329-2.674-1.113-2.749c-.654-1.858-1.249-3.735-1.675-5.648-.437-1.904-.804-3.83-1.001-5.769-.258-1.938-.31-3.886-.379-5.83a3.502 3.502 0 0 1 6.998-.271l.003.119v.151c.005 8.809-1.894 17.814-6.824 25.664-1.309 1.918-2.707 3.804-4.476 5.452-1.678 1.717-3.78 3.114-6.019 4.269-1.213.48-2.281 1.031-3.776 1.318-.646.139-1.535.372-1.988.384l-1.55.128-.702.022-.488-.042-.98-.086c-.652-.056-1.306-.135-1.922-.353a13.244 13.244 0 0 1-3.553-1.442c-1.143-.557-2.049-1.422-3.021-2.131-.843-.856-1.746-1.637-2.463-2.539a38.592 38.592 0 0 1-3.988-5.413c-1.158-1.874-2.024-3.877-2.856-5.856l-1.062-3.039-.837-3.088-.648-3.116-.43-3.146c-.193-2.135-.302-4.249-.261-6.302.035-4.191.17-8.286-.022-12.439a.85.85 0 0 1 .813-.889.852.852 0 0 1 .893.811c-.003.028-.003.06-.003.08" opacity=".75"/></g></svg>