<?xml version="1.0" encoding="utf-8"?>
<!-- Generator: Adobe Illustrator 19.1.0, SVG Export Plug-In . SVG Version: 6.00 Build 0)  -->
<svg version="1.1" id="Capa_1" xmlns="http://www.w3.org/2000/svg" xmlns:xlink="http://www.w3.org/1999/xlink" x="0px" y="0px"
	 viewBox="0 0 1024 768" style="enable-background:new 0 0 1024 768;" xml:space="preserve">
<style type="text/css">
	.st0{clip-path:url(#SVGID_2_);}
	.st1{clip-path:url(#SVGID_4_);}
	.st2{clip-path:url(#SVGID_6_);}
	.st3{clip-path:url(#SVGID_8_);fill:url(#SVGID_9_);}
	.st4{opacity:0.2;clip-path:url(#SVGID_8_);fill:#F7F7F8;}
	.st5{opacity:0.5;clip-path:url(#SVGID_8_);}
	.st6{opacity:0.6;clip-path:url(#SVGID_11_);}
	.st7{clip-path:url(#SVGID_13_);}
	.st8{clip-path:url(#SVGID_11_);fill:#5D969A;}
	.st9{opacity:0.4;clip-path:url(#SVGID_11_);}
	.st10{clip-path:url(#SVGID_17_);}
	.st11{clip-path:url(#SVGID_11_);fill:#F7F7F8;}
	.st12{opacity:0.6;}
	.st13{clip-path:url(#SVGID_21_);}
	.st14{fill:#396767;}
	.st15{opacity:0.4;}
	.st16{clip-path:url(#SVGID_25_);}
	.st17{clip-path:url(#SVGID_27_);}
	.st18{fill:#F7F7F8;}
	.st19{clip-path:url(#SVGID_31_);}
	.st20{fill:#5D969A;}
	.st21{clip-path:url(#SVGID_35_);}
	.st22{clip-path:url(#SVGID_8_);fill:#144107;}
	.st23{clip-path:url(#SVGID_8_);}
	.st24{fill:#472728;}
	.st25{clip-path:url(#SVGID_39_);}
	.st26{clip-path:url(#SVGID_43_);}
	.st27{clip-path:url(#SVGID_45_);}
	.st28{clip-path:url(#SVGID_49_);}
	.st29{clip-path:url(#SVGID_53_);}
	.st30{clip-path:url(#SVGID_57_);}
	.st31{clip-path:url(#SVGID_61_);}
	.st32{clip-path:url(#SVGID_65_);}
	.st33{clip-path:url(#SVGID_69_);}
	.st34{clip-path:url(#SVGID_71_);}
	.st35{clip-path:url(#SVGID_75_);}
	.st36{clip-path:url(#SVGID_79_);}
	.st37{clip-path:url(#SVGID_8_);fill:#472728;}
	.st38{opacity:0.31;clip-path:url(#SVGID_8_);}
	.st39{clip-path:url(#SVGID_83_);fill:#F7F7F8;}
	.st40{fill:#75B5C6;}
	.st41{fill:#77AA52;}
	.st42{fill:#EFCE36;}
	.st43{fill:#CF7445;}
	.st44{fill:#C75D83;}
	.st45{fill:#BC6131;}
	.st46{clip-path:url(#SVGID_8_);fill:none;stroke:#75B5C6;stroke-width:1.6741;stroke-linecap:round;stroke-miterlimit:10;}
	.st47{clip-path:url(#SVGID_8_);fill:#61B5B2;}
	.st48{clip-path:url(#SVGID_8_);fill:none;stroke:#C75D83;stroke-width:1.0385;stroke-linecap:round;stroke-miterlimit:10;}
	.st49{opacity:0.3;clip-path:url(#SVGID_8_);}
	.st50{opacity:0.4;clip-path:url(#SVGID_8_);}
	.st51{opacity:0.75;clip-path:url(#SVGID_8_);}
	.st52{clip-path:url(#SVGID_8_);fill:#6A9841;}
	.st53{clip-path:url(#SVGID_8_);fill:#77AA52;}
	.st54{clip-path:url(#SVGID_93_);fill:#F7F7F8;}
	.st55{opacity:0.2;clip-path:url(#SVGID_8_);}
	.st56{clip-path:url(#SVGID_8_);fill:#608E4F;}
	.st57{fill:#527E2E;}
	.st58{fill:#6A9841;}
	.st59{opacity:0.5;}
	.st60{clip-path:url(#SVGID_95_);fill:#E8C997;}
	.st61{fill:#00302F;}
	.st62{fill:#3D6D74;}
	.st63{clip-path:url(#SVGID_97_);fill:#001D1C;}
	.st64{fill:none;stroke:#472728;stroke-width:1.7109;stroke-miterlimit:10;}
	.st65{clip-path:url(#SVGID_8_);fill:#DBBA20;}
	.st66{clip-path:url(#SVGID_8_);fill:#95BB80;}
	.st67{clip-path:url(#SVGID_8_);fill:#5D5D5D;}
	.st68{opacity:0.3;fill:#FFFFFF;}
	.st69{fill:#FFFFFF;}
</style>
<g>
	<defs>
		<rect id="SVGID_1_" y="-1" width="1024" height="769"/>
	</defs>
	<clipPath id="SVGID_2_">
		<use xlink:href="#SVGID_1_"  style="overflow:visible;"/>
	</clipPath>
	<g class="st0">
		<defs>
			<rect id="SVGID_3_" x="-42" y="-1" width="1231" height="772"/>
		</defs>
		<clipPath id="SVGID_4_">
			<use xlink:href="#SVGID_3_"  style="overflow:visible;"/>
		</clipPath>
		<g class="st1">
			<defs>
				<rect id="SVGID_5_" x="-42" y="-1.8" width="1233.5" height="925.1"/>
			</defs>
			<clipPath id="SVGID_6_">
				<use xlink:href="#SVGID_5_"  style="overflow:visible;"/>
			</clipPath>
			<g class="st2">
				<defs>
					<rect id="SVGID_7_" x="-42" y="-123.4" width="1233.5" height="1046.8"/>
				</defs>
				<clipPath id="SVGID_8_">
					<use xlink:href="#SVGID_7_"  style="overflow:visible;"/>
				</clipPath>
				<radialGradient id="SVGID_9_" cx="573.5292" cy="180.7292" r="488.1602" gradientUnits="userSpaceOnUse">
					<stop  offset="2.094240e-02" style="stop-color:#9AB9E2"/>
					<stop  offset="0.3327" style="stop-color:#8C9FD5"/>
					<stop  offset="0.9969" style="stop-color:#685CB5"/>
					<stop  offset="1" style="stop-color:#685CB5"/>
				</radialGradient>
				<rect x="-43.2" y="-129.5" class="st3" width="1233.5" height="620.4"/>
				<path class="st4" d="M807.3-85.3c14.2-23-18.5-44.5-52.2-48c-33.7-3.5-40.2,31.7-40.2,31.7s-10.9-5.9-16.1,2.9c-43-18-37,2-37,2
					s-35.8,6.5,28.1,6.9c64,0.4,141.4,25.5,141.4,25.5S825.2-88.6,807.3-85.3z"/>
				<g class="st5">
					<g>
						<defs>
							
								<rect id="SVGID_10_" x="728.1" y="219.6" transform="matrix(-0.9913 -0.1316 0.1316 -0.9913 1623.9895 749.1486)" width="217.3" height="202.7"/>
						</defs>
						<clipPath id="SVGID_11_">
							<use xlink:href="#SVGID_10_"  style="overflow:visible;"/>
						</clipPath>
						<g class="st6">
							<g>
								<defs>
									
										<rect id="SVGID_12_" x="728.1" y="219.6" transform="matrix(-0.9913 -0.1316 0.1316 -0.9913 1623.9895 749.1486)" width="217.3" height="202.7"/>
								</defs>
								<clipPath id="SVGID_13_">
									<use xlink:href="#SVGID_12_"  style="overflow:visible;"/>
								</clipPath>
								<g class="st7">
									<defs>
										
											<rect id="SVGID_14_" x="728.1" y="219.6" transform="matrix(-0.9913 -0.1316 0.1316 -0.9913 1623.9896 749.147)" width="217.3" height="202.7"/>
									</defs>
									<clipPath id="SVGID_15_">
										<use xlink:href="#SVGID_14_"  style="overflow:visible;"/>
									</clipPath>
									<g style="clip-path:url(#SVGID_15_);">
										
											<image style="overflow:visible;" width="490" height="457" xlink:href="5B70A146EBB79DBE.png"  transform="matrix(0.4396 5.835231e-02 -5.835231e-02 0.4396 742.3697 206.1665)">
										</image>
									</g>
								</g>
							</g>
						</g>
						<path class="st8" d="M768.7,405.7c-40.2-4.2-53.6-34.4-29.9-67.1l67.3-92.6c23.7-32.7,56.6-29.2,73,7.7l46.6,104.6
							c16.4,36.9-3,63.6-43.1,59.4L768.7,405.7z"/>
						<g class="st9">
							<g>
								<defs>
									
										<rect id="SVGID_16_" x="772.5" y="221.2" transform="matrix(-0.9913 -0.1316 0.1316 -0.9913 1637.5638 638.4428)" width="134.8" height="87.8"/>
								</defs>
								<clipPath id="SVGID_17_">
									<use xlink:href="#SVGID_16_"  style="overflow:visible;"/>
								</clipPath>
								<g class="st10">
									<defs>
										
											<rect id="SVGID_18_" x="772.5" y="221.2" transform="matrix(-0.9913 -0.1316 0.1316 -0.9913 1637.5643 638.4344)" width="134.8" height="87.8"/>
									</defs>
									<clipPath id="SVGID_19_">
										<use xlink:href="#SVGID_18_"  style="overflow:visible;"/>
									</clipPath>
									<g style="clip-path:url(#SVGID_19_);">
										
											<image style="overflow:visible;" width="304" height="198" xlink:href="5B70A146EBB79DBD.png"  transform="matrix(0.4396 5.835231e-02 -5.835231e-02 0.4396 778.8268 212.7244)">
										</image>
									</g>
								</g>
							</g>
						</g>
						<path class="st11" d="M882.5,253.2c-17-38.2-51.1-41.8-75.7-7.9l-36.2,49.9c0.2,0,0.5,0.1,0.7,0.1c19.2,2,21-15.6,40.2-13.5
							c19.2,2,17.3,19.6,36.5,21.6c19.2,2,21-15.6,40.2-13.5c5.9,0.6,9.9,2.7,13,5.4L882.5,253.2z"/>
					</g>
				</g>
				<g class="st5">
					<g>
						<g class="st12">
							<g>
								<defs>
									
										<rect id="SVGID_20_" x="1026.9" y="332.2" transform="matrix(-0.9927 -0.1203 0.1203 -0.9927 2146.9395 933.668)" width="149.5" height="139.7"/>
								</defs>
								<clipPath id="SVGID_21_">
									<use xlink:href="#SVGID_20_"  style="overflow:visible;"/>
								</clipPath>
								<g class="st13">
									<defs>
										
											<rect id="SVGID_22_" x="1026.9" y="332.2" transform="matrix(-0.9927 -0.1203 0.1203 -0.9927 2146.9395 933.6696)" width="149.5" height="139.7"/>
									</defs>
									<clipPath id="SVGID_23_">
										<use xlink:href="#SVGID_22_"  style="overflow:visible;"/>
									</clipPath>
									<g style="clip-path:url(#SVGID_23_);">
										
											<image style="overflow:visible;" width="337" height="315" xlink:href="5B70A146EBB79DBA.png"  transform="matrix(0.4403 5.337613e-02 -5.337613e-02 0.4403 1035.8861 323.668)">
										</image>
									</g>
								</g>
							</g>
						</g>
						<path class="st14" d="M1087.5,441.6c-26.9-2.5-36.1-22.6-20.5-44.6l44.3-62.5c15.6-22,37.6-20,48.9,4.6l32,69.6
							c11.3,24.6-1.5,42.6-28.4,40.1L1087.5,441.6z"/>
						<g class="st15">
							<g>
								<defs>
									<polygon id="SVGID_24_" points="1057.7,385.5 1150.1,396.7 1157.3,337.3 1064.9,326.1 									"/>
								</defs>
								<clipPath id="SVGID_25_">
									<use xlink:href="#SVGID_24_"  style="overflow:visible;"/>
								</clipPath>
								<g class="st16">
									<defs>
										<polygon id="SVGID_26_" points="1057.7,385.5 1150.1,396.7 1157.3,337.3 1064.9,326.1 										"/>
									</defs>
									<clipPath id="SVGID_27_">
										<use xlink:href="#SVGID_26_"  style="overflow:visible;"/>
									</clipPath>
									<g class="st17">
										<defs>
											<polygon id="SVGID_28_" points="1057.7,385.5 1150.1,396.7 1157.3,337.3 1064.9,326.1 											"/>
										</defs>
										<clipPath id="SVGID_29_">
											<use xlink:href="#SVGID_28_"  style="overflow:visible;"/>
										</clipPath>
										<g style="clip-path:url(#SVGID_29_);">
											
												<image style="overflow:visible;" width="210" height="135" xlink:href="5B70A146EBB79DB5.png"  transform="matrix(0.4403 5.337613e-02 -5.337613e-02 0.4403 1064.8746 326.0856)">
											</image>
										</g>
									</g>
								</g>
							</g>
						</g>
						<path class="st18" d="M1110.4,331.5c16.3-23,39.3-20.9,51.1,4.8l17.4,37.8c-0.2,0-0.3,0-0.5,0c-12.9-1.2-11.8-13.1-24.8-14.3
							c-12.9-1.2-14.1,10.7-27,9.4c-12.9-1.2-11.8-13.1-24.8-14.3c-4-0.4-6.9,0.5-9.3,1.9L1110.4,331.5z"/>
						<g class="st12">
							<g>
								<defs>
									
										<rect id="SVGID_30_" x="906.2" y="283.5" transform="matrix(-0.9927 -0.1203 0.1203 -0.9927 1953.4958 865.381)" width="193.4" height="180.5"/>
								</defs>
								<clipPath id="SVGID_31_">
									<use xlink:href="#SVGID_30_"  style="overflow:visible;"/>
								</clipPath>
								<g class="st19">
									<defs>
										
											<rect id="SVGID_32_" x="906.2" y="283.5" transform="matrix(-0.9927 -0.1203 0.1203 -0.9927 1953.4958 865.381)" width="193.4" height="180.5"/>
									</defs>
									<clipPath id="SVGID_33_">
										<use xlink:href="#SVGID_32_"  style="overflow:visible;"/>
									</clipPath>
									<g transform="matrix(1 0 0 1 -6.103516e-05 0)" style="clip-path:url(#SVGID_33_);">
										
											<image style="overflow:visible;" width="436" height="407" xlink:href="5B70A146EBB79DB4.png"  transform="matrix(0.4403 5.337613e-02 -5.337613e-02 0.4403 917.7648 272.4701)">
										</image>
									</g>
								</g>
							</g>
						</g>
						<path class="st20" d="M943.6,448.8c-35.5-3.3-47.6-29.8-27-58.9l58.4-82.4c20.6-29.1,49.6-26.3,64.5,6l42.1,91.8
							c14.9,32.4-2,56.2-37.5,52.8L943.6,448.8z"/>
						<g class="st15">
							<g>
								<defs>
									
										<rect id="SVGID_34_" x="945.2" y="285.3" transform="matrix(-0.9927 -0.1204 0.1204 -0.9927 1963.7283 767.6623)" width="119.7" height="78.5"/>
								</defs>
								<clipPath id="SVGID_35_">
									<use xlink:href="#SVGID_34_"  style="overflow:visible;"/>
								</clipPath>
								<g class="st21">
									<defs>
										
											<rect id="SVGID_36_" x="945.2" y="285.3" transform="matrix(-0.9927 -0.1203 0.1203 -0.9927 1963.7384 767.6551)" width="119.7" height="78.5"/>
									</defs>
									<clipPath id="SVGID_37_">
										<use xlink:href="#SVGID_36_"  style="overflow:visible;"/>
									</clipPath>
									<g transform="matrix(1 0 0 1 -6.103516e-05 0)" style="clip-path:url(#SVGID_37_);">
										
											<image style="overflow:visible;" width="270" height="177" xlink:href="5B70A146EBB79DB3.png"  transform="matrix(0.4403 5.337613e-02 -5.337613e-02 0.4403 950.3372 278.3589)">
										</image>
									</g>
								</g>
							</g>
						</g>
						<path class="st18" d="M1042.5,313.1c-15.4-33.6-45.5-36.4-66.8-6.3l-31.5,44.4c0.2,0,0.4,0.1,0.7,0.1
							c16.9,1.6,18.4-13.9,35.3-12.3c16.9,1.6,15.5,17.1,32.4,18.7c16.9,1.6,18.4-13.9,35.3-12.3c5.3,0.5,8.7,2.3,11.5,4.7
							L1042.5,313.1z"/>
					</g>
				</g>
				<path class="st22" d="M940,417.6c0,0-102.7-46.9-187.6-45.8c-84.8,1.1-93.8,1.4-93.8,1.4s48.6-53,105.6-19
					c6.8-17.3,21.3-6.1,21.3-6.1s8.6-69.1,53.3-63.2c44.8,5.9,88.1,47.2,69.3,92.6C931.9,370.5,940,417.6,940,417.6"/>
				<g class="st23">
					<path class="st24" d="M940.5,418.1l-1-0.5c-0.3-0.1-25.5-11.6-60.7-22.9c-33.2-10.7-82.4-23.4-126.6-22.9
						c-83.8,1.1-93.7,1.4-93.8,1.4l-1.4,0l1-1.1c0.3-0.3,28.5-30.6,66.6-30.6c13.4,0,26.6,3.7,39.1,11.1c2.6-6.2,6.6-9.4,11.7-9.4
						c4.1,0,7.8,2.1,9.4,3.1c0.6-3.7,2.9-17.4,8.9-30.9c9.2-21,22.9-32.1,39.6-32.1c1.8,0,3.6,0.1,5.4,0.4
						c27.5,3.6,53.5,20.2,66.2,42.1c9.2,16,10.6,33.3,4,50.2c1.3-0.3,2.5-0.4,3.7-0.4c20.4,0,27.5,39.6,27.8,41.3L940.5,418.1z
						 M755,370.6c43.6,0,91.6,12.5,124.1,22.9c31.2,10,54.6,20.2,59.7,22.5c-1.3-6.5-8.8-39.2-26.3-39.2c-1.5,0-3,0.2-4.6,0.7
						l-1.2,0.4l0.5-1.2c7-16.8,5.7-34.2-3.5-50.2c-12.5-21.6-38.1-37.9-65.3-41.5c-1.8-0.2-3.5-0.4-5.3-0.4
						c-20.4,0-32.2,17.1-38.5,31.4c-6.9,15.6-8.9,31.5-8.9,31.6l-0.1,1.1l-0.8-0.6c0,0-4.5-3.4-9.5-3.4c-4.8,0-8.5,3.1-10.9,9.3
						l-0.3,0.7l-0.6-0.4c-12.6-7.5-25.7-11.3-39.1-11.3c-33.5,0-59.3,23.8-64.7,29.1c4.9-0.1,24.1-0.5,92.3-1.3
						C753.1,370.6,754,370.6,755,370.6z"/>
				</g>
				<g class="st5">
					<g>
						<g class="st12">
							<g>
								<defs>
									
										<rect id="SVGID_38_" x="134.8" y="289.2" transform="matrix(-0.9941 0.1082 -0.1082 -0.9941 456.7536 693.2517)" width="149.5" height="139.7"/>
								</defs>
								<clipPath id="SVGID_39_">
									<use xlink:href="#SVGID_38_"  style="overflow:visible;"/>
								</clipPath>
								<g class="st25">
									<defs>
										
											<rect id="SVGID_40_" x="134.8" y="289.2" transform="matrix(-0.9941 0.1082 -0.1082 -0.9941 456.7519 693.253)" width="149.5" height="139.7"/>
									</defs>
									<clipPath id="SVGID_41_">
										<use xlink:href="#SVGID_40_"  style="overflow:visible;"/>
									</clipPath>
									<g style="clip-path:url(#SVGID_41_);">
										
											<image style="overflow:visible;" width="337" height="315" xlink:href="5B70A146EBB79DC8.png"  transform="matrix(0.4409 -4.796794e-02 4.796794e-02 0.4409 127.7293 297.6567)">
										</image>
									</g>
								</g>
							</g>
						</g>
						<path class="st14" d="M178.7,424.2c-26.8,3.7-40.3-13.8-30.1-38.8l29-70.9c10.2-25,32.1-28,48.7-6.6l46.9,60.5
							c16.6,21.4,8.2,41.8-18.6,45.5L178.7,424.2z"/>
						<g class="st15">
							<g>
								<defs>
									
										<rect id="SVGID_42_" x="159.5" y="288.2" transform="matrix(-0.9941 0.1082 -0.1082 -0.9941 445.294 612.1536)" width="93.1" height="59.9"/>
								</defs>
								<clipPath id="SVGID_43_">
									<use xlink:href="#SVGID_42_"  style="overflow:visible;"/>
								</clipPath>
								<g class="st26">
									<defs>
										
											<rect id="SVGID_44_" x="159.5" y="288.2" transform="matrix(-0.9941 0.1082 -0.1082 -0.9941 445.294 612.1536)" width="93.1" height="59.9"/>
									</defs>
									<clipPath id="SVGID_45_">
										<use xlink:href="#SVGID_44_"  style="overflow:visible;"/>
									</clipPath>
									<g class="st27">
										<defs>
											
												<rect id="SVGID_46_" x="159.5" y="288.2" transform="matrix(-0.9941 0.1082 -0.1082 -0.9941 445.291 612.1543)" width="93.1" height="59.9"/>
										</defs>
										<clipPath id="SVGID_47_">
											<use xlink:href="#SVGID_46_"  style="overflow:visible;"/>
										</clipPath>
										<g transform="matrix(1 0 0 1 0 3.051758e-05)" style="clip-path:url(#SVGID_47_);">
											
												<image style="overflow:visible;" width="210" height="135" xlink:href="5B70A146EBB79DCA.png"  transform="matrix(0.4409 -4.796794e-02 4.796794e-02 0.4409 156.5132 293.4305)">
											</image>
										</g>
									</g>
								</g>
							</g>
						</g>
						<path class="st18" d="M176,311.8c10.7-26.1,33.6-29.3,50.9-6.9l25.5,32.9c-0.2,0-0.3,0.1-0.5,0.1
							c-12.9,1.8-14.5-10.1-27.4-8.3c-12.9,1.8-11.3,13.6-24.2,15.3c-12.9,1.8-14.5-10-27.4-8.3c-4,0.5-6.6,2.1-8.7,3.9L176,311.8z"
							/>
						<g class="st12">
							<g>
								<defs>
									
										<rect id="SVGID_48_" x="10.3" y="263.6" transform="matrix(-0.9941 0.1082 -0.1082 -0.9941 251.5373 694.1068)" width="193.4" height="180.5"/>
								</defs>
								<clipPath id="SVGID_49_">
									<use xlink:href="#SVGID_48_"  style="overflow:visible;"/>
								</clipPath>
								<g class="st28">
									<defs>
										
											<rect id="SVGID_50_" x="10.3" y="263.6" transform="matrix(-0.9941 0.1082 -0.1082 -0.9941 251.5373 694.1068)" width="193.4" height="180.5"/>
									</defs>
									<clipPath id="SVGID_51_">
										<use xlink:href="#SVGID_50_"  style="overflow:visible;"/>
									</clipPath>
									<g transform="matrix(1 0 0 1 -2.384186e-07 0)" style="clip-path:url(#SVGID_51_);">
										
											<image style="overflow:visible;" width="436" height="407" xlink:href="5B70A146EBB79DCE.png"  transform="matrix(0.4409 -4.796794e-02 4.796794e-02 0.4409 1.0711 274.6121)">
										</image>
									</g>
								</g>
							</g>
						</g>
						<path class="st20" d="M66.3,440.5c-35.3,4.8-53.2-18.2-39.7-51.2l38.2-93.5c13.5-33,42.4-36.9,64.2-8.8l61.9,79.8
							c21.8,28.2,10.8,55.1-24.5,60L66.3,440.5z"/>
						<g class="st15">
							<g>
								<defs>
									
										<rect id="SVGID_52_" x="38" y="266.2" transform="matrix(-0.9941 0.1082 -0.1082 -0.9941 228.2605 598.6103)" width="119.7" height="78.5"/>
								</defs>
								<clipPath id="SVGID_53_">
									<use xlink:href="#SVGID_52_"  style="overflow:visible;"/>
								</clipPath>
								<g class="st29">
									<defs>
										
											<rect id="SVGID_54_" x="38" y="266.2" transform="matrix(-0.9941 0.1082 -0.1082 -0.9941 228.2581 598.6086)" width="119.7" height="78.5"/>
									</defs>
									<clipPath id="SVGID_55_">
										<use xlink:href="#SVGID_54_"  style="overflow:visible;"/>
									</clipPath>
									<g transform="matrix(1 0 0 1 0 3.051758e-05)" style="clip-path:url(#SVGID_55_);">
										
											<image style="overflow:visible;" width="270" height="177" xlink:href="37474F401189CC1E.png"  transform="matrix(0.4409 -4.796794e-02 4.796794e-02 0.4409 34.133 272.9521)">
										</image>
									</g>
								</g>
							</g>
						</g>
						<path class="st18" d="M131.8,285.8c-22.6-29.2-52.5-25.1-66.5,9.1l-20.6,50.4c0.2,0,0.4,0,0.7-0.1c16.8-2.3,14.7-17.7,31.6-20
							c16.8-2.3,19,13.1,35.8,10.8c16.9-2.3,14.7-17.7,31.6-20c5.2-0.7,9,0.3,12.3,1.9L131.8,285.8z"/>
						<g class="st12">
							<g>
								<defs>
									
										<rect id="SVGID_56_" x="-90.1" y="323.1" transform="matrix(-0.9941 0.1082 -0.1082 -0.9941 57.7881 823.4684)" width="193.4" height="180.5"/>
								</defs>
								<clipPath id="SVGID_57_">
									<use xlink:href="#SVGID_56_"  style="overflow:visible;"/>
								</clipPath>
								<g class="st30">
									<defs>
										
											<rect id="SVGID_58_" x="-90.1" y="323.1" transform="matrix(-0.9941 0.1082 -0.1082 -0.9941 57.7881 823.4684)" width="193.4" height="180.5"/>
									</defs>
									<clipPath id="SVGID_59_">
										<use xlink:href="#SVGID_58_"  style="overflow:visible;"/>
									</clipPath>
									<g style="clip-path:url(#SVGID_59_);">
										
											<image style="overflow:visible;" width="436" height="407" xlink:href="37474F401189CC1D.png"  transform="matrix(0.4409 -4.796794e-02 4.796794e-02 0.4409 -99.3129 334.0386)">
										</image>
									</g>
								</g>
							</g>
						</g>
						<path class="st20" d="M-34.1,499.9c-35.3,4.8-53.2-18.2-39.7-51.2l38.2-93.5c13.5-33,42.4-36.9,64.2-8.8l61.9,79.8
							c21.8,28.2,10.8,55.1-24.5,60L-34.1,499.9z"/>
						<g class="st15">
							<g>
								<defs>
									
										<rect id="SVGID_60_" x="-62.4" y="325.7" transform="matrix(-0.9941 0.1082 -0.1082 -0.9941 34.5072 727.9721)" width="119.7" height="78.5"/>
								</defs>
								<clipPath id="SVGID_61_">
									<use xlink:href="#SVGID_60_"  style="overflow:visible;"/>
								</clipPath>
								<g class="st31">
									<defs>
										
											<rect id="SVGID_62_" x="-62.4" y="325.7" transform="matrix(-0.9941 0.1082 -0.1082 -0.9941 34.5087 727.9705)" width="119.7" height="78.5"/>
									</defs>
									<clipPath id="SVGID_63_">
										<use xlink:href="#SVGID_62_"  style="overflow:visible;"/>
									</clipPath>
									<g transform="matrix(1 0 0 1 0 3.051758e-05)" style="clip-path:url(#SVGID_63_);">
										
											<image style="overflow:visible;" width="270" height="177" xlink:href="37474F401189CC1A.png"  transform="matrix(0.4409 -4.796794e-02 4.796794e-02 0.4409 -66.251 332.3787)">
										</image>
									</g>
								</g>
							</g>
						</g>
						<path class="st18" d="M31.4,345.3c-22.6-29.2-52.5-25.1-66.5,9.1l-20.6,50.4c0.2,0,0.4,0,0.7-0.1c16.8-2.3,14.7-17.7,31.6-20
							c16.8-2.3,19,13.1,35.8,10.8c16.9-2.3,14.7-17.7,31.6-20c5.2-0.7,9,0.3,12.3,1.9L31.4,345.3z"/>
					</g>
				</g>
				<g class="st5">
					<g>
						<g class="st12">
							<g>
								<defs>
									<rect id="SVGID_64_" x="402.5" y="265.7" width="149.4" height="139.7"/>
								</defs>
								<clipPath id="SVGID_65_">
									<use xlink:href="#SVGID_64_"  style="overflow:visible;"/>
								</clipPath>
								<g class="st32">
									<defs>
										<rect id="SVGID_66_" x="402.5" y="265.7" width="149.4" height="139.7"/>
									</defs>
									<clipPath id="SVGID_67_">
										<use xlink:href="#SVGID_66_"  style="overflow:visible;"/>
									</clipPath>
									<g style="clip-path:url(#SVGID_67_);">
										
											<image style="overflow:visible;" width="337" height="315" xlink:href="37474F401189CC05.png"  transform="matrix(0.4435 0 0 0.4435 402.0806 265.8194)">
										</image>
									</g>
								</g>
							</g>
						</g>
						<path class="st14" d="M439.1,397.1c-27,0.7-38.6-18.1-25.7-41.8l36.5-67.4c12.9-23.8,35-24.4,49.1-1.3l40.1,65.3
							c14.1,23,3.6,42.5-23.4,43.2L439.1,397.1z"/>
						<g class="st15">
							<g>
								<defs>
									<rect id="SVGID_68_" x="431.4" y="264.4" width="92.8" height="60.2"/>
								</defs>
								<clipPath id="SVGID_69_">
									<use xlink:href="#SVGID_68_"  style="overflow:visible;"/>
								</clipPath>
								<g class="st33">
									<defs>
										<rect id="SVGID_70_" x="431.4" y="264.4" width="92.8" height="60.2"/>
									</defs>
									<clipPath id="SVGID_71_">
										<use xlink:href="#SVGID_70_"  style="overflow:visible;"/>
									</clipPath>
									<g class="st34">
										<defs>
											<rect id="SVGID_72_" x="431.4" y="264.4" width="92.8" height="60.2"/>
										</defs>
										<clipPath id="SVGID_73_">
											<use xlink:href="#SVGID_72_"  style="overflow:visible;"/>
										</clipPath>
										<g style="clip-path:url(#SVGID_73_);">
											
												<image style="overflow:visible;" width="210" height="135" xlink:href="37474F401189CC04.png"  transform="matrix(0.4435 0 0 0.4435 431.1528 264.7317)">
											</image>
										</g>
									</g>
								</g>
							</g>
						</g>
						<path class="st18" d="M448.5,285.1c13.4-24.8,36.5-25.5,51.3-1.4l21.8,35.5c-0.2,0-0.3,0-0.5,0c-13,0.4-13.3-11.6-26.3-11.2
							c-13,0.4-12.7,12.3-25.7,12.6c-13,0.4-13.3-11.6-26.3-11.2c-4,0.1-6.8,1.3-9.1,3L448.5,285.1z"/>
						<g class="st12">
							<g>
								<defs>
									<rect id="SVGID_74_" x="278.4" y="229.5" width="193.9" height="180.7"/>
								</defs>
								<clipPath id="SVGID_75_">
									<use xlink:href="#SVGID_74_"  style="overflow:visible;"/>
								</clipPath>
								<g class="st35">
									<defs>
										<rect id="SVGID_76_" x="278.4" y="229.5" width="193.9" height="180.7"/>
									</defs>
									<clipPath id="SVGID_77_">
										<use xlink:href="#SVGID_76_"  style="overflow:visible;"/>
									</clipPath>
									<g style="clip-path:url(#SVGID_77_);">
										
											<image style="overflow:visible;" width="436" height="407" xlink:href="37474F401189CC03.png"  transform="matrix(0.4435 0 0 0.4435 278.6579 229.2103)">
										</image>
									</g>
								</g>
							</g>
						</g>
						<path class="st20" d="M325.5,401.1c-35.6,1-50.9-23.9-33.9-55.2l48.1-88.8c17-31.3,46.1-32.1,64.8-1.8l52.9,86.1
							c18.7,30.4,4.8,56-30.8,57L325.5,401.1z"/>
						<g class="st15">
							<g>
								<defs>
									<rect id="SVGID_78_" x="312.1" y="230.7" width="119.3" height="79.5"/>
								</defs>
								<clipPath id="SVGID_79_">
									<use xlink:href="#SVGID_78_"  style="overflow:visible;"/>
								</clipPath>
								<g class="st36">
									<defs>
										<rect id="SVGID_80_" x="312.1" y="230.7" width="119.3" height="79.5"/>
									</defs>
									<clipPath id="SVGID_81_">
										<use xlink:href="#SVGID_80_"  style="overflow:visible;"/>
									</clipPath>
									<g style="clip-path:url(#SVGID_81_);">
										
											<image style="overflow:visible;" width="270" height="177" xlink:href="37474F401189CC09.png"  transform="matrix(0.4435 0 0 0.4435 311.7049 231.1367)">
										</image>
									</g>
								</g>
							</g>
						</g>
						<path class="st18" d="M407.4,254.5c-19.3-31.5-49.5-30.6-67.1,1.8l-25.9,47.8c0.2,0,0.4,0,0.7,0c17-0.5,16.6-16,33.6-16.5
							c17-0.5,17.4,15.1,34.4,14.6c17-0.5,16.6-16,33.6-16.5c5.3-0.1,9,1.3,12,3.2L407.4,254.5z"/>
					</g>
				</g>
				<path class="st22" d="M205.3,399.9c0,0,154.5-33.8,279.7-27.2c125.3,6.7,138.5,7.6,138.5,7.6s-68.7-49.4-154.8-23.7
					c-9.1-15.5-31.1-6.7-31.1-6.7s-8.7-60.7-75.2-58.6c-66.4,2.1-132.8,35.1-107.7,75.9C220,359.4,205.3,399.9,205.3,399.9"/>
				<g class="st23">
					<path class="st24" d="M204.2,400.1l0.4-1c0-0.1,3.2-8.6,9.8-17c8.8-11.2,19.7-17.1,31.6-17.1c2.4,0,4.9,0.2,7.4,0.7
						c-6.1-10.6-6.4-21-1-31.1c13-24.2,59.2-42.9,109.9-44.5c1.1,0,2.3-0.1,3.4-0.1c33,0,50.9,16.1,60.2,29.6
						c8.7,12.8,11.5,25.7,12.1,28.9c1.8-0.6,7-2.3,12.9-2.3c8.1,0,14.3,3.1,18,9.1c16.4-4.8,33.3-7.3,50.4-7.3
						c60.4,0,104.1,30.9,104.5,31.3l1.7,1.2l-2.1-0.1c-0.1,0-14.7-1-138.5-7.6c-10.9-0.6-22.4-0.9-34.3-0.9
						c-116,0-243.9,27.7-245.2,28L204.2,400.1z M245.9,366.2c-25,0-37.4,26.6-39.8,32.3c12.9-2.7,134-27.8,244.4-27.8
						c11.9,0,23.5,0.3,34.4,0.9c100.6,5.4,129.1,7,136.3,7.4c-8.9-5.8-48.9-29.8-102-29.8c-17.1,0-34.1,2.5-50.5,7.4l-0.5,0.1
						l-0.2-0.4c-3.5-5.9-9.3-8.9-17.2-8.9c-7,0-13.1,2.4-13.2,2.4l-0.7,0.3l-0.1-0.8c0-0.1-2.2-14.7-12.1-29.1
						c-9.1-13.2-26.7-29-59.1-29c-1.1,0-2.2,0-3.3,0.1c-50.3,1.6-96,20.1-108.9,43.9c-5.4,10-4.8,20.5,1.7,31.1l0.8,1.2l-1.4-0.3
						C251.5,366.5,248.7,366.2,245.9,366.2z"/>
				</g>
				<path class="st22" d="M-61.3,424c0,0,154.5-33.8,279.7-27.2c125.3,6.7,138.5,7.6,138.5,7.6s-68.7-49.4-154.8-23.7
					c-9.1-15.5-31.1-6.7-31.1-6.7s-8.7-60.7-75.2-58.6C29.3,317.4-37,350.5-11.9,391.2C-46.6,383.5-61.3,424-61.3,424"/>
				<path class="st37" d="M95.6,315.7c1.1,0,2.2-0.1,3.3-0.1c32.4,0,50.1,15.8,59.1,29c9.8,14.4,12,29,12.1,29.1l0.1,0.8l0.7-0.3
					c0.1,0,6.2-2.4,13.2-2.4c8,0,13.7,3,17.2,8.9l0.2,0.4l0.5-0.1c6.1-1.8,12.6-3.3,18.9-4.5l2-1.6c-6.9,1.2-13.9,2.8-20.6,4.8
					c-3.7-6-10-9.1-18.1-9.1c-5.9,0-11.1,1.6-13,2.3c-0.6-3.2-3.4-16.1-12.1-28.9c-9.2-13.5-27.2-29.6-60.2-29.6
					c-1.1,0-2.3,0-3.4,0.1c-50.7,1.6-96.9,20.4-109.9,44.5c-5.4,10.1-5.1,20.5,1,31.1c-2.5-0.5-5-0.7-7.4-0.7
					c-11.9,0-22.8,5.9-31.6,17.1c-6.6,8.4-9.8,16.9-9.8,17l-0.4,1l1.1-0.2c1.3-0.3,129.2-28,245.2-28c11.9,0,23.5,0.3,34.3,0.9
					l0.1-1.2c-10.9-0.6-22.5-0.9-34.4-0.9c-110.4,0-231.5,25.1-244.4,27.8c2.4-5.6,14.8-32.3,39.8-32.3c2.8,0,5.6,0.3,8.5,1l1.4,0.3
					l-0.8-1.2c-6.5-10.6-7.1-21.1-1.7-31.1C-0.5,335.8,45.3,317.3,95.6,315.7z"/>
				<path class="st22" d="M1188,435.8c0,0-152.6-41.4-278.1-40.9c-125.4,0.5-138.7,0.7-138.7,0.7s71.1-46,155.8-16.1
					c9.9-15,31.4-5.2,31.4-5.2s11.7-60.2,78-54.9c66.3,5.4,130.9,41.6,103.8,81.1C1175.3,394.6,1188,435.8,1188,435.8"/>
				<path class="st37" d="M1036.6,319.9c-1.1-0.1-2.2-0.2-3.3-0.2c-32.4-1.6-50.8,13.3-60.5,26.1c-10.5,13.9-13.5,28.3-13.5,28.5
					l-0.1,0.8l-0.7-0.3c-0.1,0-6-2.7-13-3.1c-7.9-0.4-13.9,2.3-17.6,8l-0.3,0.4l-0.4-0.2c-6-2.1-12.4-3.9-18.6-5.4l-1.9-1.7
					c6.8,1.5,13.7,3.4,20.3,5.8c4-5.8,10.4-8.6,18.5-8.2c5.9,0.3,11,2.2,12.8,2.9c0.7-3.1,4.2-15.9,13.5-28.2
					c9.9-13,28.6-28.2,61.6-26.6c1.1,0.1,2.3,0.1,3.4,0.2c50.5,4.1,95.8,25.1,107.6,49.9c4.9,10.3,4.1,20.8-2.5,31
					c2.5-0.4,5-0.5,7.4-0.4c11.8,0.6,22.5,7,30.7,18.6c6.2,8.7,8.9,17.4,8.9,17.5l0.3,1.1l-1.1-0.3c-1.3-0.3-127.7-34.3-243.5-40
					c-11.9-0.6-23.5-0.9-34.3-0.8l0-1.2c10.9,0,22.5,0.2,34.4,0.8c110.2,5.4,230,36.4,242.7,39.8c-2.1-5.7-13.2-33-38.2-34.2
					c-2.8-0.1-5.6,0.1-8.6,0.6l-1.4,0.2l0.8-1.2c7-10.3,8.1-20.7,3.2-31C1131.5,344.7,1086.7,324,1036.6,319.9z"/>
				<g class="st38">
					<g>
						<defs>
							
								<rect id="SVGID_82_" x="645.3" y="90.1" transform="matrix(-0.9911 -0.1331 0.1331 -0.9911 1524.2635 363.2417)" width="257.9" height="81.1"/>
						</defs>
						<clipPath id="SVGID_83_">
							<use xlink:href="#SVGID_82_"  style="overflow:visible;"/>
						</clipPath>
						<path class="st39" d="M896.7,190.4c0,0-90.1-40.2-167.1-48.9c-77-8.7-85.2-9.5-85.2-9.5s47.6-27.2,97,0
							c7.3-9.9,19.7-1.4,19.7-1.4s12.3-41.6,52.6-33c40.2,8.6,76.8,38.8,56.7,64.6C892.4,160.5,896.7,190.4,896.7,190.4"/>
					</g>
				</g>
				<path class="st4" d="M1137.2,94c18-20.1-10.4-47.1-43-56.5c-32.6-9.4-45.2,24.1-45.2,24.1s-9.7-7.7-16.3,0
					c-39.1-25.2-36.8-4.6-36.8-4.6s-36.4,0.1,26.5,11.8c62.9,11.6,134.7,49.9,134.7,49.9S1155.4,93.9,1137.2,94z"/>
				<g class="st23">
					<g>
						<path class="st40" d="M613.9,505.6c-59.3-4.6-85.4,5-80.9-54.2l9.6-72.3c19.3,2.6,20.6,25.2,42.2,25.2c23,0,23-25.4,46-25.4
							c23,0,23,25.4,46,25.4c23,0,23-25.4,46-25.4c19,0,22.3,17.3,35.7,23.3c-2.9,2.9-6.3,5.4-10,7.4l-0.1,58.5
							c-4.6,59.3-60.1,35.2-119.4,30.6L613.9,505.6z"/>
						<path class="st41" d="M758.6,402.1c-13.5-6.1-16.8-23.3-35.7-23.3c-23,0-23,25.4-46,25.4c-23,0-23-25.4-46-25.4
							c-23,0-23,25.4-46,25.4c-21.7,0-22.9-22.6-42.2-25.2l6.8-51.2c11.9,4.3,14.6,17.7,31,17.7c19.6,0,19.6-19.1,39.1-19.1
							c19.6,0,19.6,19.1,39.1,19.1c19.6,0,19.6-19.1,39.1-19.1c19.6,0,19.6,19.1,39.1,19.1c8.2,0,12.9-3.3,17.1-7.2
							c11.2,8.4,18.1,22.1,16.9,37.1C770.1,385.9,765.5,395.2,758.6,402.1"/>
						<path class="st42" d="M754.2,236.7v0.2c-16.9-1.6-18-18.8-36.6-18.6c-19.6,0.2-19.5,19.2-39.1,19.4
							c-19.6,0.2-19.8-18.9-39.4-18.7c-19.6,0.2-19.4,19.2-39,19.4c-18.6,0.2-19.7-17-36.4-18.6c3.5-20.4,11.4-38.8,23-53.3
							c12.3,4.4,15.1,17.6,32.1,17.6c20.4,0,20.4-19.1,40.8-19.1C680,165,680,184,700.4,184c16.6,0,19.9-12.6,31.4-17.3
							C746.3,185.3,754.2,209.9,754.2,236.7"/>
						<path class="st40" d="M752.7,268.7c-3.6-2.5-7.9-4.2-13.5-4.2c-25.1,0-25.1,33.6-50.3,33.6c-25.1,0-25.1-33.6-50.3-33.6
							c-25.1,0-25.1,33.6-50.3,33.6c-16.7,0-22.3-14.9-31.6-24.9l5.4-40.4c0.3-4.5,0.9-8.8,1.6-13.1c16.8,1.6,17.9,18.8,36.4,18.6
							c19.6-0.2,19.4-19.2,39-19.4c19.6-0.2,19.7,18.9,39.3,18.7c19.6-0.2,19.4-19.2,39-19.4c18.6-0.1,19.7,17,36.4,18.6
							c0,3.5-0.2,7.1-0.4,10.7L752.7,268.7z"/>
						<path class="st43" d="M752.7,268.7l-2.4,67.1c1.3,0.8,2.6,1.6,3.8,2.5c-4.2,3.9-9,7.2-17.1,7.2c-19.6,0-19.6-19.1-39.1-19.1
							c-19.6,0-19.6,19.1-39.1,19.1c-19.6,0-19.6-19.1-39.1-19.1c-19.6,0-19.6,19.1-39.1,19.1c-16.4,0-19-13.4-31-17.7l7.2-54.5
							c9.3,10,14.9,24.9,31.6,24.9c25.1,0,25.1-33.6,50.3-33.6c25.2,0,25.2,33.6,50.3,33.6c25.2,0,25.2-33.6,50.3-33.6
							C744.7,264.5,749,266.2,752.7,268.7"/>
						<path class="st44" d="M731.6,166.7c-11.5,4.7-14.6,17.3-31.2,17.3C680,184,680,165,659.6,165c-20.4,0-20.4,19.1-40.8,19.1
							c-17,0-19.8-13.2-32.1-17.6c18.3-23,45.8-36.5,79.3-34C694.3,134.6,716.6,147.4,731.6,166.7"/>
					</g>
					<g>
						<path class="st45" d="M689.2,301.1c-13.3,0-19.9-8.9-26.3-17.4c-6.2-8.3-12.1-16.2-23.9-16.2c-11.8,0-17.7,7.9-23.9,16.2
							c-6.4,8.6-13,17.4-26.4,17.4c-13.3,0-19.9-8.9-26.3-17.4c-2-2.7-4.1-5.5-6.4-8l2.2-2.1c2.4,2.5,4.5,5.4,6.6,8.2
							c6.2,8.3,12.1,16.2,23.9,16.2c11.8,0,17.7-7.9,23.9-16.2c6.4-8.6,13-17.4,26.4-17.4c13.3,0,20,8.9,26.4,17.4
							c6.2,8.3,12.1,16.2,23.9,16.2c11.8,0,17.7-7.9,23.9-16.2c6.4-8.6,13-17.4,26.4-17.4c5.4,0,10.1,1.5,14.4,4.4l-1.7,2.5
							c-3.7-2.6-7.9-3.9-12.6-3.9c-11.8,0-17.7,7.9-23.9,16.2C709.1,292.2,702.5,301.1,689.2,301.1z"/>
					</g>
				</g>
				<path class="st46" d="M556.8,273.5c3.6,4,6.7,8.7,10.2,13c5.2,6.3,11.2,11.4,21,11.4c25.2,0,25.2-33.6,50.4-33.6
					c25.2,0,25.2,33.6,50.4,33.6c25.2,0,25.2-33.6,50.4-33.6"/>
				<path class="st47" d="M754.1,235.5h1c-8.2,0-11.8-3.6-15.9-7.7c-0.5-0.5-1-1.2-1.5-1.7c-5-4.8-10.1-9.9-20.2-9.9h-0.3
					c-10.3,1.2-15.4,5.1-20.3,10c-4.8,4.8-9.4,9.3-18.7,9.3H678c-9.2,0-13.7-4.1-18.6-8.7c-5-4.8-10.1-9.4-20.2-9.4H639
					c-10.3,0-15.4,5.1-20.3,10c-4.8,4.8-9.4,9.3-18.7,9.3l-0.2,0c-8.7,0-13.4-4.3-18.5-8.8c-4.7-4.2-9.5-8.5-17.4-9.3
					c-0.7-0.1-1.2,0.4-1.3,1c0,0.3,0.1,0.6,0.2,0.9c0.2,0.2,0.5,0.4,0.8,0.4c7.2,0.8,11.5,4.1,16.1,8.2c5.2,4.6,10.5,8.8,20.1,8.8
					h0.2c10.3,0,15.4-4.6,20.3-9.5c4.8-4.8,9.4-9,18.7-9.1l0.3,0.1c9.1,0,13.7,4.4,18.6,9.1c5,4.8,10.1,9.7,20.2,9.7l0.3,0
					c10.3-0.1,15.4-5.3,20.3-10.2c4.8-4.8,9.4-9.5,18.7-9.5h0.2c9.2,0,13.7,4.6,18.6,9.2c0.5,0.5,1,1,1.4,1.5
					c4.3,4.3,7.2,8.3,16.4,8.3l1.5,0c0.6,0-0.1-0.5-0.1-1.1C755.3,236,754.8,235.5,754.1,235.5z"/>
				<path class="st48" d="M683.3,177.2c4.2,3.5,9,6.4,16.9,6.4c16,0,19.5-11.8,30.1-16.8"/>
				<path class="st48" d="M594.4,170.5c6.8,5.6,11.6,13,24.3,13c20.4,0,20.4-19.1,40.8-19.1c7.6,0,12.4,2.7,16.5,6"/>
				<g class="st49">
					<g>
						<defs>
							<path id="SVGID_84_" d="M577.9,166.1"/>
						</defs>
						<clipPath id="SVGID_85_">
							<use xlink:href="#SVGID_84_"  style="overflow:visible;"/>
						</clipPath>
					</g>
				</g>
				<g class="st50">
					<g>
						<defs>
							<path id="SVGID_86_" d="M554.6,331.8"/>
						</defs>
						<clipPath id="SVGID_87_">
							<use xlink:href="#SVGID_86_"  style="overflow:visible;"/>
						</clipPath>
					</g>
				</g>
				<g class="st50">
					<g>
						<defs>
							<path id="SVGID_88_" d="M548.4,328.6"/>
						</defs>
						<clipPath id="SVGID_89_">
							<use xlink:href="#SVGID_88_"  style="overflow:visible;"/>
						</clipPath>
					</g>
				</g>
				<g class="st23">
					<path class="st24" d="M715.6,507.3c-11.8,0-26.2-3-41.4-6.3c-14.9-3.2-30.2-6.4-46.1-7.7l-24.4,10.5c-0.2,0.1-0.4,0.1-0.6,0.1
						c-12.8-1-23.8-1-32.6-1.1c-17.3-0.1-28.7-0.1-35-7c-5.8-6.3-7.3-17.9-5.5-41.6c0,0,0,0,0-0.1l29.4-220.9
						c2.2-28.6,12.8-54.6,29.7-73c17.9-19.5,41.6-29.9,68.6-29.9c2.7,0,5.5,0.1,8.3,0.3c29.1,2.2,53,15.4,69.3,38
						c15.4,21.3,22.5,49.6,20.2,79.8l-3.2,88.4c14.2,8.7,22.2,24.3,20.9,40.8c-1.1,14.8-9.6,27.8-22.6,35l-0.1,58.4c0,0,0,0.1,0,0.1
						C748.7,496.2,737.9,507.3,715.6,507.3z M628,490.9C628,490.9,628,490.9,628,490.9c16.2,1.2,31.8,4.6,46.8,7.7
						c15.1,3.2,29.3,6.2,40.9,6.2c21,0,30.8-10.1,32.6-33.8l0.1-59.1c0-0.4,0.2-0.9,0.6-1.1c12.6-6.7,20.8-19.2,21.9-33.4
						c1.2-15.8-6.6-30.8-20.3-38.9c-0.4-0.2-0.6-0.6-0.6-1.1l3.2-89.2c2.3-29.6-4.7-57.4-19.8-78.2c-15.9-22-39.3-34.8-67.6-37
						c-2.7-0.2-5.4-0.3-8.1-0.3c-51.9,0-91.3,41.4-95.9,100.7c0,0,0,0,0,0.1l-29.4,220.9c-1.8,22.9-0.4,34,4.9,39.8
						c5.6,6.1,16,6.1,33.2,6.2c8.8,0,19.8,0.1,32.5,1l24.4-10.5C627.6,490.9,627.8,490.9,628,490.9z"/>
				</g>
				<g class="st51">
					<g>
						<g>
							<defs>
								<rect id="SVGID_90_" x="433.8" y="25.9" width="165" height="163.8"/>
							</defs>
							<clipPath id="SVGID_91_">
								<use xlink:href="#SVGID_90_"  style="overflow:visible;"/>
							</clipPath>
						</g>
					</g>
				</g>
				<path class="st52" d="M448.6,417.4c3.3,0,6.8-2.5,7.8-5.7l1.5-4.7c1-3.1-0.5-4.4-3.4-2.8l-4.2,2.3c-2.9,1.6-7.1,1-9.4-1.4
					l-5.2-5.2c-2.3-2.3-4.3-1.5-4.3,1.7l-0.2,9.8c-0.1,3.3,2.5,6,5.8,6H448.6z"/>
				<path class="st52" d="M634.7,428.3c-2.9,0-6.3-1.8-7.6-4.4l-1.5-2.9c-1.3-2.6-0.1-3.8,2.6-2.8l7.5,2.7c2.7,1,6.9,0.5,9.3-1.1
					l7.4-4.8c2.4-1.6,4.5-0.5,4.6,2.4l0.2,6c0.1,2.9-2.2,4.9-5,4.9H634.7z"/>
				<path class="st53" d="M582.2,385.8c0,0-133.1-15.2-146.3,13.4c-13.3,28.6,10,52.8,101.8,61.9c91.9,9.2,200.6-60.9,136.3-66.3
					C609.7,389.5,582.2,385.8,582.2,385.8"/>
				<g class="st5">
					<g>
						<defs>
							
								<rect id="SVGID_92_" x="226.7" y="63.2" transform="matrix(-0.9988 4.799620e-02 -4.799620e-02 -0.9988 758.335 202.654)" width="300" height="94.4"/>
						</defs>
						<clipPath id="SVGID_93_">
							<use xlink:href="#SVGID_92_"  style="overflow:visible;"/>
						</clipPath>
						<path class="st54" d="M229.2,167.2c0,0,108.4-37.7,198.6-40.1c90.2-2.5,99.7-2.6,99.7-2.6S475,88.2,415,114.8
							c-7.5-12.2-22.7-3.6-22.7-3.6s-10.2-49.4-57.6-43.4c-47.5,6-92.8,37.3-72.2,69.3C237.1,132.9,229.2,167.2,229.2,167.2"/>
					</g>
				</g>
				<g class="st55">
					<g>
						<path class="st18" d="M-4.8,57.6c0,0,62.8-31.8,117.4-40.6c54.6-8.9,24.8-9,24.8-9s0.7-18.5-33.6,2.6
							c-5.6-6.8-14.1-0.3-14.1-0.3S79.5-18.9,51.2-11.4C22.8-3.9-3.4,15.2,11.8,33C-4,32.5-4.8,57.6-4.8,57.6"/>
					</g>
				</g>
				<path class="st56" d="M766,373.3c-66.4,17.8-195.4,0.5-214.7-2.3c-64.7,0.9-140.3,2.3-219.5,6.8
					C206.9,384.9,73.6,398.3-42,418.5v506.1h1233.5l0-505c-29.4-6.1-84.6-12.8-146.6-19.9c-101.8-11.7-222.1-24.1-278.8-26.6"/>
				<g class="st23">
					<path class="st57" d="M769.9,411.9c-85.6,25.7-253.8,4.6-279.2,5.1c-289,5.3-480,50.4-529.3,59.5c0,0,60.4,186.7,481,170.9
						C863,631.5,817.5,526.7,817.5,526.7s182.3,20.1,193.5-69.5C1014.8,426.5,911.6,414.1,769.9,411.9"/>
				</g>
				<g class="st23">
					<path class="st58" d="M321.1,440.2c0,0-37.8,8.7-13.3,21.7c24.5,13,49.5,3.8,45.7-4.4C349.7,449.4,348.7,438.1,321.1,440.2"/>
					<path class="st58" d="M601.9,463.3c0,0,19.1-2.7,7.5-10.2c-11.6-7.5-24.3-4-22.8,0.2C588.2,457.5,588.2,463.1,601.9,463.3"/>
					<path class="st41" d="M793.6,406.4c0,0-4-11.5-9.8-13.6c13,1.8,23.6,13.7,23.6,13.7l3.8-13l3.7,11.6c0,0,4.5-10.8,14.7-11.7
						c-5.6,9.3-3.5,14.3-3.5,14.3L793.6,406.4z"/>
					<g class="st59">
						<g>
							<defs>
								<rect id="SVGID_94_" x="473.5" y="377.7" width="291.5" height="69.9"/>
							</defs>
							<clipPath id="SVGID_95_">
								<use xlink:href="#SVGID_94_"  style="overflow:visible;"/>
							</clipPath>
							<path class="st60" d="M548.4,378.8c-9.5,0-27-5.6-54.6,8.2c-27.6,13.8-26.7,40.6-3.7,47.9c23,7.2,118.2,17.4,173.6,10
								c55.3-7.4,96.7-15.2,99.5-27.4c2.8-12.2,11.5-26-45.8-26c-57.2,0-112.1,1.5-135.2-5.7C559.1,378.6,548.4,378.8,548.4,378.8"
								/>
						</g>
					</g>
					<path class="st61" d="M683.2,301.5c0,31.3-25.4,56.7-56.7,56.7c-31.3,0-56.7-25.4-56.7-56.7c0-31.3,25.4-56.7,56.7-56.7
						C657.8,244.8,683.2,270.2,683.2,301.5"/>
					<path class="st62" d="M688.8,301.8c0,0-0.1,1.4-0.2,4c-0.1,0.7,0,1.3-0.2,2.2c-0.1,0.9-0.3,1.9-0.5,3c-0.2,1.1-0.3,2.3-0.6,3.4
						c-0.3,1.2-0.6,2.4-1,3.7c-1.5,5.1-3.8,11.3-8,17.4c-4.2,6.1-9.9,12.4-17.6,17.3c-7.7,4.9-17.1,8.4-27.4,9.4
						c-1.3,0.2-2.6,0.1-3.9,0.2l-2,0.1l-1,0l-0.3,0l-0.1,0l-0.2,0l-0.5,0c-2.5-0.2-4.8-0.2-7.7-0.8c-5.6-0.8-10.6-2.6-15.7-4.9
						c-5.1-2.3-9.7-5.5-14.1-9.2c-4.3-3.7-8-8.1-11.2-12.9c-3.1-4.9-5.5-10.2-7.3-15.8l-1.1-4.2c-0.4-1.4-0.5-2.9-0.7-4.3
						c-0.2-1.4-0.5-2.9-0.5-4.3l-0.2-4.5c0.1-5.4,0.8-11.6,2.5-17.1c1.8-5.5,4.2-10.9,7.3-15.8c3.2-4.8,7-9.2,11.2-12.9
						c4.3-3.7,9-6.9,14.1-9.2c5.1-2.3,10.3-4.1,15.6-4.9c2.6-0.6,5.3-0.6,7.9-0.8l0.5,0l0.2,0l0.1,0c0,0,0.5,0,0.3,0l0.9,0l1.8,0.1
						c1.2,0.1,2.4,0,3.7,0.2c2.6,0.4,5.3,0.5,7.7,1.2c1.2,0.3,2.4,0.6,3.6,0.9c1.2,0.4,2.3,0.8,3.5,1.2c4.6,1.5,8.8,3.8,12.7,6.1
						c7.7,4.9,13.5,11.2,17.6,17.3c4.3,6.1,6.6,12.3,8,17.4c0.3,1.3,0.7,2.5,1,3.7c0.3,1.2,0.4,2.3,0.6,3.3c0.2,1,0.3,2,0.4,2.8
						c0.1,0.9,0.1,1.7,0.2,2.4c0.2,2.9,0.2,4.4,0.2,4.4L688.8,301.8z M677.6,301.5c0,0-0.1-1.3-0.2-3.6c0-0.6,0-1.2-0.1-2
						c-0.1-0.7-0.2-1.5-0.3-2.3c-0.1-0.8-0.2-1.8-0.4-2.7c-0.2-1-0.5-2-0.8-3c-1.2-4.2-3-9.3-6.4-14.5c-3.3-5.2-8-10.5-14.2-14.9
						c-3.2-2.1-6.6-4.2-10.5-5.7c-1-0.4-1.9-0.8-2.9-1.1c-1-0.3-2-0.6-3.1-0.9c-2.1-0.7-4.1-0.9-6.2-1.3c-1-0.2-2.3-0.2-3.5-0.3
						l-1.8-0.1l-0.9-0.1c-0.2,0,0.2,0,0.1,0l-0.1,0l-0.2,0l-0.4,0c-2.3,0.1-4.6,0-6.9,0.4c-4.7,0.4-9.3,1.8-13.8,3.6
						c-4.5,1.8-8.8,4.5-12.8,7.6c-3.9,3.2-7.4,7-10.4,11.3c-2.9,4.3-5.2,9.1-6.8,14.1c-1.5,5.1-2.2,10-2.4,15.8l0.2,3.8
						c0,1.3,0.3,2.6,0.5,3.9c0.3,1.3,0.3,2.6,0.7,3.9l1,3.8c1.6,5,3.9,9.8,6.8,14.1c3,4.2,6.5,8.1,10.4,11.3c4,3.1,8.3,5.7,12.8,7.6
						c1.1,0.6,2.3,0.8,3.4,1.3c1.2,0.4,2.3,0.8,3.4,1c1.2,0.3,2.3,0.5,3.5,0.8c1.1,0.3,2.3,0.3,3.4,0.5c2.1,0.4,4.7,0.3,7.2,0.4
						l0.5,0l0.2,0l0.1,0c0.1,0-0.3,0-0.1,0l0.8-0.1l1.7-0.1c1.1-0.1,2.2-0.1,3.3-0.3c8.8-1.3,16.6-4.6,22.8-9
						c6.2-4.4,10.9-9.7,14.2-14.9c3.4-5.2,5.2-10.3,6.4-14.5c0.3-1.1,0.5-2.1,0.8-3c0.2-0.9,0.3-1.8,0.4-2.6
						c0.1-0.8,0.2-1.5,0.3-2.2c0.1-0.7,0.1-1.5,0.1-2.1c0.1-2.6,0.2-4,0.2-4L677.6,301.5z"/>
				</g>
				<g class="st23">
					<defs>
						<path id="SVGID_96_" d="M576.6,301.8c0,27.3,21.6,49.4,48.3,49.4c26.7,0,48.3-22.1,48.3-49.4c0-27.3-21.6-49.4-48.3-49.4
							C598.2,252.4,576.6,274.5,576.6,301.8"/>
					</defs>
					<clipPath id="SVGID_97_">
						<use xlink:href="#SVGID_96_"  style="overflow:visible;"/>
					</clipPath>
					<path class="st63" d="M687.8,302c0,28.6-22.7,51.8-50.6,51.8c-28,0-50.6-23.2-50.6-51.8c0-28.6,22.7-51.8,50.6-51.8
						C665.1,250.2,687.8,273.4,687.8,302"/>
				</g>
				<g class="st23">
					<path class="st64" d="M731.8,166.7"/>
				</g>
				<path class="st65" d="M730.3,166l0.1,0.1c-4.2,1.7-6.5,3.9-9.3,6.5c-0.3,0.3-0.7,0.6-1,1c-5.1,4.7-9.8,9.2-19.6,9.2
					c-9.7,0-14.5-4.5-19.6-9.2c-5.2-4.8-10.5-9.9-21.2-9.9c-10.7,0-16,5-21.2,9.9c-5.1,4.7-9.8,9.2-19.6,9.2
					c-9.7,0-14.5-4.5-19.6-9.2l-0.7-0.7c-3.1-2.9-6.1-5.7-10.9-7.4l0,0l-1.6,2l0.2,0.1c4.7,1.7,7.9,4.7,11.3,7.9
					c5.2,4.8,10.5,9.9,21.2,9.9c10.7,0,16-5,21.2-9.9c5.1-4.7,9.8-9.2,19.6-9.2c9.7,0,14.5,4.5,19.6,9.2c5.2,4.8,10.5,9.9,21.2,9.9
					c10.7,0,16-5,21.2-9.9c0.4-0.3,0.7-0.7,1.1-1c2.6-2.5,5.1-4.8,8.8-6.3l0.1-0.1L730.3,166z"/>
				<path class="st37" d="M771.7,373.5"/>
				<g class="st23">
					<path class="st24" d="M1191.1,419.1l0.4-1.2c-104.8-17.9-418.6-46.1-419.8-46.2l0,1.8C772.9,373.6,1086.3,401.2,1191.1,419.1z"
						/>
				</g>
				<path class="st66" d="M898.2,386.9c0,0,4.9-11.2,11.5-12.7c-14.7,0.7-26.8,10.8-26.8,10.8l-4-12.5l-4.5,11.3
					c0,0-4.7-11.3-16.2-13.1c6,9.8,3.5,14.6,3.5,14.6L898.2,386.9z"/>
				<g class="st23">
					<path class="st24" d="M882.7,385.5l-3.7-10.8l-4.4,10.9l-0.9-2c0-0.1-4.1-9.5-13.5-12.1c1.8,2.6,3.8,9.9,3.7,10.1l-2.2-0.2
						c0.2,0.1,0.6-0.8-4.2-10.8l-1-1.7l1.9,0.3c9,1.4,14,8.4,15.9,11.8l4.8-12l4.4,13.2c3.4-2.7,13.7-9,26.2-9.6l0.2,1.8
						c-6,1.4-11.2,10.8-11.2,10.9l-1.7-0.1c0.2-0.4,3.6-6.4,8.1-10.2c-12.1,2.3-21.5,9.4-21.6,9.5L882.7,385.5z"/>
				</g>
				<g class="st23">
					<path class="st24" d="M183.3,389.6l-0.2-1.8c215.1-20.8,359-17.6,360.4-17.6l0,1.8C542,372,398.3,368.9,183.3,389.6z"/>
				</g>
				<g class="st23">
					<path class="st24" d="M-41.8,418.3l-0.4-1.2c104.8-17.9,228.1-29.6,229.4-29.7l0,1.8C185.9,389.3,62.9,400.4-41.8,418.3z"/>
				</g>
				<path class="st66" d="M340.4,377.5c0,0-4-11.5-9.8-13.6c13,1.8,23.6,13.7,23.6,13.7l3.8-13l3.7,11.6c0,0,4.5-10.8,14.7-11.7
					c-5.6,9.3-3.5,14.3-3.5,14.3L340.4,377.5z"/>
				<g class="st23">
					<path class="st24" d="M355.1,379l-1.1-1.2c-0.1-0.1-8.2-9.1-18.7-12.4c3.9,4.1,6.5,11.7,6.6,12.1l-1.9-0.1c0-0.1-4-11.2-9.2-13
						l0.4-1.8c10.9,1.5,20,9.8,23.1,12.9l4.2-14.3l3.9,12.4c1.9-3.3,6.5-9.5,14.5-10.2l1.8-0.2l-0.9,1.5c-5,8.3-3.8,11.2-3.8,11.2
						c0,0,0,0,0,0l-1.7-0.1c-0.3-0.4-1.5-2.4,3-10.4c-8.3,1.9-12.1,10.8-12.2,10.9l-1,2.3l-3.5-11.1L355.1,379z"/>
				</g>
				<rect x="520.5" y="-204.1" class="st67" width="671" height="80.7"/>
				<g class="st23">
					<path class="st68" d="M534.8,88.9c-7,34.8-36.7,55.3-71.6,48.2c-34.8-7-57.4-36.7-50.4-71.6c7-34.8,40.9-55.3,75.8-48.2
						C523.5,24.4,541.8,54.1,534.8,88.9"/>
					<path class="st69" d="M527.3,87.5c-6.2,30.5-32.2,48.4-62.7,42.3c-30.5-6.2-50.3-32.2-44.1-62.7c6.2-30.5,35.9-48.4,66.4-42.3
						C517.4,30.9,533.5,57,527.3,87.5"/>
				</g>
			</g>
		</g>
	</g>
</g>
</svg>
