<svg id="Capa_1" xmlns="http://www.w3.org/2000/svg" xmlns:xlink="http://www.w3.org/1999/xlink" viewBox="0 0 1024 768"><style>.st0{clip-path:url(#SVGID_2_)}.st1{clip-path:url(#SVGID_4_)}.st2{clip-path:url(#SVGID_6_)}.st3{fill:url(#SVGID_9_)}.st3,.st4,.st5{clip-path:url(#SVGID_8_)}.st4{fill:#f7f7f8;opacity:.2}.st5{opacity:.5}.st6{opacity:.6;clip-path:url(#SVGID_11_)}.st7{clip-path:url(#SVGID_13_)}.st8,.st9{clip-path:url(#SVGID_11_)}.st8{fill:#5d969a}.st9{opacity:.4}.st10{clip-path:url(#SVGID_17_)}.st11{clip-path:url(#SVGID_11_);fill:#f7f7f8}.st12{opacity:.6}.st13{clip-path:url(#SVGID_21_)}.st14{fill:#396767}.st15{opacity:.4}.st16{clip-path:url(#SVGID_25_)}.st17{clip-path:url(#SVGID_27_)}.st18{fill:#f7f7f8}.st19{clip-path:url(#SVGID_31_)}.st20{fill:#5d969a}.st21{clip-path:url(#SVGID_35_)}.st22{fill:#144107}.st22,.st23{clip-path:url(#SVGID_8_)}.st24{fill:#472728}.st25{clip-path:url(#SVGID_39_)}.st26{clip-path:url(#SVGID_43_)}.st27{clip-path:url(#SVGID_45_)}.st28{clip-path:url(#SVGID_49_)}.st29{clip-path:url(#SVGID_53_)}.st30{clip-path:url(#SVGID_57_)}.st31{clip-path:url(#SVGID_61_)}.st32{clip-path:url(#SVGID_65_)}.st33{clip-path:url(#SVGID_69_)}.st34{clip-path:url(#SVGID_71_)}.st35{clip-path:url(#SVGID_75_)}.st36{clip-path:url(#SVGID_79_)}.st37,.st38{clip-path:url(#SVGID_8_)}.st37{fill:#472728}.st38{opacity:.31}.st39{clip-path:url(#SVGID_83_);fill:#f7f7f8}.st40{fill:#75b5c6}.st41{fill:#77aa52}.st42{fill:#efce36}.st43{fill:#cf7445}.st44{fill:#c75d83}.st45{fill:#bc6131}.st46{clip-path:url(#SVGID_8_);fill:none;stroke:#75b5c6;stroke-width:1.6741;stroke-linecap:round;stroke-miterlimit:10}.st47{fill:#61b5b2}.st47,.st48,.st49{clip-path:url(#SVGID_8_)}.st48{fill:none;stroke:#c75d83;stroke-width:1.0385;stroke-linecap:round;stroke-miterlimit:10}.st49{opacity:.3}.st50{opacity:.4}.st50,.st51,.st52,.st53{clip-path:url(#SVGID_8_)}.st51{opacity:.75}.st52,.st53{fill:#6a9841}.st53{fill:#77aa52}.st54{clip-path:url(#SVGID_93_);fill:#f7f7f8}.st55,.st56{clip-path:url(#SVGID_8_)}.st55{opacity:.2}.st56{fill:#608e4f}.st57{fill:#527e2e}.st58{fill:#6a9841}.st59{opacity:.5}.st60{clip-path:url(#SVGID_95_);fill:#e8c997}.st61{fill:#00302f}.st62{fill:#3d6d74}.st63{clip-path:url(#SVGID_97_);fill:#001d1c}.st64{fill:none;stroke:#472728;stroke-width:1.7109;stroke-miterlimit:10}.st65,.st66,.st67{clip-path:url(#SVGID_8_);fill:#dbba20}.st66,.st67{fill:#95bb80}.st67{fill:#5d5d5d}.st68{opacity:.3}.st68,.st69{fill:#fff}</style><defs><path id="SVGID_1_" d="M0-1h1024v769H0z"/></defs><clipPath id="SVGID_2_"><use xlink:href="#SVGID_1_" overflow="visible"/></clipPath><g class="st0"><defs><path id="SVGID_3_" d="M-42-1h1231v772H-42z"/></defs><clipPath id="SVGID_4_"><use xlink:href="#SVGID_3_" overflow="visible"/></clipPath><g class="st1"><defs><path id="SVGID_5_" d="M-42-1.8h1233.5v925.1H-42z"/></defs><clipPath id="SVGID_6_"><use xlink:href="#SVGID_5_" overflow="visible"/></clipPath><g class="st2"><defs><path id="SVGID_7_" d="M-42-123.4h1233.5V923.4H-42z"/></defs><clipPath id="SVGID_8_"><use xlink:href="#SVGID_7_" overflow="visible"/></clipPath><radialGradient id="SVGID_9_" cx="573.529" cy="180.729" r="488.16" gradientUnits="userSpaceOnUse"><stop offset=".021" stop-color="#9ab9e2"/><stop offset=".333" stop-color="#8c9fd5"/><stop offset=".997" stop-color="#685cb5"/><stop offset="1" stop-color="#685cb5"/></radialGradient><path class="st3" d="M-43.2-129.5h1233.5v620.4H-43.2z"/><path class="st4" d="M807.3-85.3c14.2-23-18.5-44.5-52.2-48s-40.2 31.7-40.2 31.7-10.9-5.9-16.1 2.9c-43-18-37 2-37 2s-35.8 6.5 28.1 6.9c64 .4 141.4 25.5 141.4 25.5s-6.1-24.3-24-21z"/><g class="st5"><defs><path id="SVGID_10_" transform="rotate(-172.437 836.75 320.912)" d="M728.1 219.6h217.3v202.7H728.1z"/></defs><clipPath id="SVGID_11_"><use xlink:href="#SVGID_10_" overflow="visible"/></clipPath><g class="st6"><defs><path id="SVGID_12_" transform="rotate(-172.437 836.75 320.912)" d="M728.1 219.6h217.3v202.7H728.1z"/></defs><clipPath id="SVGID_13_"><use xlink:href="#SVGID_12_" overflow="visible"/></clipPath><g class="st7"><defs><path id="SVGID_14_" transform="rotate(-172.437 836.75 320.911)" d="M728.1 219.6h217.3v202.7H728.1z"/></defs><clipPath id="SVGID_15_"><use xlink:href="#SVGID_14_" overflow="visible"/></clipPath><g clip-path="url(#SVGID_15_)"><image width="490" height="457" xlink:href="AC9ED3A36F28CBBB.png" transform="matrix(.4396 .05835 -.05835 .4396 742.37 206.167)" overflow="visible"/></g></g></g><path class="st8" d="M768.7 405.7c-40.2-4.2-53.6-34.4-29.9-67.1l67.3-92.6c23.7-32.7 56.6-29.2 73 7.7l46.6 104.6c16.4 36.9-3 63.6-43.1 59.4l-113.9-12z"/><g class="st9"><defs><path id="SVGID_16_" transform="rotate(-172.437 839.88 265.11)" d="M772.5 221.2h134.8V309H772.5z"/></defs><clipPath id="SVGID_17_"><use xlink:href="#SVGID_16_" overflow="visible"/></clipPath><g class="st10"><defs><path id="SVGID_18_" transform="rotate(-172.437 839.88 265.106)" d="M772.5 221.2h134.8V309H772.5z"/></defs><clipPath id="SVGID_19_"><use xlink:href="#SVGID_18_" overflow="visible"/></clipPath><g clip-path="url(#SVGID_19_)"><image width="304" height="198" xlink:href="AC9ED3A36F28CBB9.png" transform="matrix(.4396 .05835 -.05835 .4396 778.827 212.724)" overflow="visible"/></g></g></g><path class="st11" d="M882.5 253.2c-17-38.2-51.1-41.8-75.7-7.9l-36.2 49.9c.2 0 .5.1.7.1 19.2 2 21-15.6 40.2-13.5 19.2 2 17.3 19.6 36.5 21.6s21-15.6 40.2-13.5c5.9.6 9.9 2.7 13 5.4l-18.7-42.1z"/></g><g class="st5"><g class="st12"><defs><path id="SVGID_20_" transform="scale(-1) rotate(6.91 6659.47 -18248.588)" d="M1026.9 332.2h149.5v139.7h-149.5z"/></defs><clipPath id="SVGID_21_"><use xlink:href="#SVGID_20_" overflow="visible"/></clipPath><g class="st13"><defs><path id="SVGID_22_" transform="scale(-1) rotate(6.91 6659.483 -18248.589)" d="M1026.9 332.2h149.5v139.7h-149.5z"/></defs><clipPath id="SVGID_23_"><use xlink:href="#SVGID_22_" overflow="visible"/></clipPath><g clip-path="url(#SVGID_23_)"><image width="337" height="315" xlink:href="AC9ED3A36F28CBBF.png" transform="matrix(.4403 .05338 -.05338 .4403 1035.886 323.668)" overflow="visible"/></g></g></g><path class="st14" d="M1087.5 441.6c-26.9-2.5-36.1-22.6-20.5-44.6l44.3-62.5c15.6-22 37.6-20 48.9 4.6l32 69.6c11.3 24.6-1.5 42.6-28.4 40.1l-76.3-7.2z"/><g class="st15"><defs><path id="SVGID_24_" d="M1057.7 385.5l92.4 11.2 7.2-59.4-92.4-11.2z"/></defs><clipPath id="SVGID_25_"><use xlink:href="#SVGID_24_" overflow="visible"/></clipPath><g class="st16"><defs><path id="SVGID_26_" d="M1057.7 385.5l92.4 11.2 7.2-59.4-92.4-11.2z"/></defs><clipPath id="SVGID_27_"><use xlink:href="#SVGID_26_" overflow="visible"/></clipPath><g class="st17"><defs><path id="SVGID_28_" d="M1057.7 385.5l92.4 11.2 7.2-59.4-92.4-11.2z"/></defs><clipPath id="SVGID_29_"><use xlink:href="#SVGID_28_" overflow="visible"/></clipPath><g clip-path="url(#SVGID_29_)"><image width="210" height="135" xlink:href="AC9ED3A36F28CBB8.png" transform="matrix(.4403 .05338 -.05338 .4403 1064.875 326.086)" overflow="visible"/></g></g></g></g><path class="st18" d="M1110.4 331.5c16.3-23 39.3-20.9 51.1 4.8l17.4 37.8h-.5c-12.9-1.2-11.8-13.1-24.8-14.3-12.9-1.2-14.1 10.7-27 9.4-12.9-1.2-11.8-13.1-24.8-14.3-4-.4-6.9.5-9.3 1.9l17.9-25.3z"/><g class="st12"><defs><path id="SVGID_30_" transform="scale(-1) rotate(6.91 6190.617 -16612.272)" d="M906.2 283.5h193.4V464H906.2z"/></defs><clipPath id="SVGID_31_"><use xlink:href="#SVGID_30_" overflow="visible"/></clipPath><g class="st19"><defs><path id="SVGID_32_" transform="scale(-1) rotate(6.91 6190.617 -16612.272)" d="M906.2 283.5h193.4V464H906.2z"/></defs><clipPath id="SVGID_33_"><use xlink:href="#SVGID_32_" overflow="visible"/></clipPath><g clip-path="url(#SVGID_33_)"><image width="436" height="407" xlink:href="AC9ED3A36F28CBB6.png" transform="matrix(.4403 .05338 -.05338 .4403 917.765 272.47)" overflow="visible"/></g></g></g><path class="st20" d="M943.6 448.8c-35.5-3.3-47.6-29.8-27-58.9l58.4-82.4c20.6-29.1 49.6-26.3 64.5 6l42.1 91.8c14.9 32.4-2 56.2-37.5 52.8l-100.5-9.3z"/><g class="st15"><defs><path id="SVGID_34_" transform="scale(-1) rotate(6.915 5370.852 -16634.55)" d="M945.2 285.3h119.7v78.5H945.2z"/></defs><clipPath id="SVGID_35_"><use xlink:href="#SVGID_34_" overflow="visible"/></clipPath><g class="st21"><defs><path id="SVGID_36_" transform="scale(-1) rotate(6.91 5376.094 -16648.24)" d="M945.2 285.3h119.7v78.5H945.2z"/></defs><clipPath id="SVGID_37_"><use xlink:href="#SVGID_36_" overflow="visible"/></clipPath><g clip-path="url(#SVGID_37_)"><image width="270" height="177" xlink:href="AC9ED3A36F28CBB7.png" transform="matrix(.4403 .05338 -.05338 .4403 950.337 278.359)" overflow="visible"/></g></g></g><path class="st18" d="M1042.5 313.1c-15.4-33.6-45.5-36.4-66.8-6.3l-31.5 44.4c.2 0 .4.1.7.1 16.9 1.6 18.4-13.9 35.3-12.3 16.9 1.6 15.5 17.1 32.4 18.7 16.9 1.6 18.4-13.9 35.3-12.3 5.3.5 8.7 2.3 11.5 4.7l-16.9-37z"/></g><path class="st22" d="M940 417.6s-102.7-46.9-187.6-45.8c-84.8 1.1-93.8 1.4-93.8 1.4s48.6-53 105.6-19c6.8-17.3 21.3-6.1 21.3-6.1s8.6-69.1 53.3-63.2c44.8 5.9 88.1 47.2 69.3 92.6 23.8-7 31.9 40.1 31.9 40.1"/><path class="st23 st24" d="M940.5 418.1l-1-.5c-.3-.1-25.5-11.6-60.7-22.9-33.2-10.7-82.4-23.4-126.6-22.9-83.8 1.1-93.7 1.4-93.8 1.4H657l1-1.1c.3-.3 28.5-30.6 66.6-30.6 13.4 0 26.6 3.7 39.1 11.1 2.6-6.2 6.6-9.4 11.7-9.4 4.1 0 7.8 2.1 9.4 3.1.6-3.7 2.9-17.4 8.9-30.9 9.2-21 22.9-32.1 39.6-32.1 1.8 0 3.6.1 5.4.4 27.5 3.6 53.5 20.2 66.2 42.1 9.2 16 10.6 33.3 4 50.2 1.3-.3 2.5-.4 3.7-.4 20.4 0 27.5 39.6 27.8 41.3l.1 1.2zM755 370.6c43.6 0 91.6 12.5 124.1 22.9 31.2 10 54.6 20.2 59.7 22.5-1.3-6.5-8.8-39.2-26.3-39.2-1.5 0-3 .2-4.6.7l-1.2.4.5-1.2c7-16.8 5.7-34.2-3.5-50.2-12.5-21.6-38.1-37.9-65.3-41.5-1.8-.2-3.5-.4-5.3-.4-20.4 0-32.2 17.1-38.5 31.4-6.9 15.6-8.9 31.5-8.9 31.6l-.1 1.1-.8-.6s-4.5-3.4-9.5-3.4c-4.8 0-8.5 3.1-10.9 9.3l-.3.7-.6-.4c-12.6-7.5-25.7-11.3-39.1-11.3-33.5 0-59.3 23.8-64.7 29.1 4.9-.1 24.1-.5 92.3-1.3 1.1-.2 2-.2 3-.2z"/><g class="st5"><g class="st12"><defs><path id="SVGID_38_" transform="scale(-1) rotate(-6.212 -6616.707 3862.354)" d="M134.8 289.2h149.5v139.7H134.8z"/></defs><clipPath id="SVGID_39_"><use xlink:href="#SVGID_38_" overflow="visible"/></clipPath><g class="st25"><defs><path id="SVGID_40_" transform="scale(-1) rotate(-6.212 -6616.718 3862.338)" d="M134.8 289.2h149.5v139.7H134.8z"/></defs><clipPath id="SVGID_41_"><use xlink:href="#SVGID_40_" overflow="visible"/></clipPath><g clip-path="url(#SVGID_41_)"><image width="337" height="315" xlink:href="AC9ED3A36F28CBC7.png" transform="rotate(-6.207 2807.824 -1028.762) scale(.4435)" overflow="visible"/></g></g></g><path class="st14" d="M178.7 424.2c-26.8 3.7-40.3-13.8-30.1-38.8l29-70.9c10.2-25 32.1-28 48.7-6.6l46.9 60.5c16.6 21.4 8.2 41.8-18.6 45.5l-75.9 10.3z"/><g class="st15"><defs><path id="SVGID_42_" transform="scale(-1) rotate(-6.212 -5863.657 3797.304)" d="M159.5 288.2h93.1v59.9h-93.1z"/></defs><clipPath id="SVGID_43_"><use xlink:href="#SVGID_42_" overflow="visible"/></clipPath><g class="st26"><defs><path id="SVGID_44_" transform="scale(-1) rotate(-6.212 -5863.657 3797.304)" d="M159.5 288.2h93.1v59.9h-93.1z"/></defs><clipPath id="SVGID_45_"><use xlink:href="#SVGID_44_" overflow="visible"/></clipPath><g class="st27"><defs><path id="SVGID_46_" transform="scale(-1) rotate(-6.212 -5863.662 3797.276)" d="M159.5 288.2h93.1v59.9h-93.1z"/></defs><clipPath id="SVGID_47_"><use xlink:href="#SVGID_46_" overflow="visible"/></clipPath><g clip-path="url(#SVGID_47_)"><image width="210" height="135" xlink:href="AC9ED3A36F28CBC9.png" transform="rotate(-6.207 2783.247 -1296.223) scale(.4435)" overflow="visible"/></g></g></g></g><path class="st18" d="M176 311.8c10.7-26.1 33.6-29.3 50.9-6.9l25.5 32.9c-.2 0-.3.1-.5.1-12.9 1.8-14.5-10.1-27.4-8.3-12.9 1.8-11.3 13.6-24.2 15.3-12.9 1.8-14.5-10-27.4-8.3-4 .5-6.6 2.1-8.7 3.9l11.8-28.7z"/><g class="st12"><defs><path id="SVGID_48_" transform="scale(-1) rotate(-6.212 -6521.975 1970.856)" d="M10.3 263.6h193.4v180.5H10.3z"/></defs><clipPath id="SVGID_49_"><use xlink:href="#SVGID_48_" overflow="visible"/></clipPath><g class="st28"><defs><path id="SVGID_50_" transform="scale(-1) rotate(-6.212 -6521.975 1970.856)" d="M10.3 263.6h193.4v180.5H10.3z"/></defs><clipPath id="SVGID_51_"><use xlink:href="#SVGID_50_" overflow="visible"/></clipPath><g clip-path="url(#SVGID_51_)"><image width="436" height="407" xlink:href="AC9ED3A36F28CBCB.png" transform="rotate(-6.207 2532.095 127.344) scale(.4435)" overflow="visible"/></g></g></g><path class="st20" d="M66.3 440.5c-35.3 4.8-53.2-18.2-39.7-51.2l38.2-93.5c13.5-33 42.4-36.9 64.2-8.8l61.9 79.8c21.8 28.2 10.8 55.1-24.5 60L66.3 440.5z"/><g class="st15"><defs><path id="SVGID_52_" transform="scale(-1) rotate(-6.212 -5630.335 1804.11)" d="M38 266.2h119.7v78.5H38z"/></defs><clipPath id="SVGID_53_"><use xlink:href="#SVGID_52_" overflow="visible"/></clipPath><g class="st29"><defs><path id="SVGID_54_" transform="scale(-1) rotate(-6.212 -5630.318 1804.088)" d="M38 266.2h119.7v78.5H38z"/></defs><clipPath id="SVGID_55_"><use xlink:href="#SVGID_54_" overflow="visible"/></clipPath><g clip-path="url(#SVGID_55_)"><image width="270" height="177" xlink:href="F2F4969F10E57218.png" transform="rotate(-6.207 2533.312 -178.273) scale(.4435)" overflow="visible"/></g></g></g><path class="st18" d="M131.8 285.8c-22.6-29.2-52.5-25.1-66.5 9.1l-20.6 50.4c.2 0 .4 0 .7-.1 16.8-2.3 14.7-17.7 31.6-20 16.8-2.3 19 13.1 35.8 10.8 16.9-2.3 14.7-17.7 31.6-20 5.2-.7 9 .3 12.3 1.9l-24.9-32.1z"/><g class="st12"><defs><path id="SVGID_56_" transform="scale(-1) rotate(-6.212 -7617.167 120.772)" d="M-90.1 323.1h193.4v180.5H-90.1z"/></defs><clipPath id="SVGID_57_"><use xlink:href="#SVGID_56_" overflow="visible"/></clipPath><g class="st30"><defs><path id="SVGID_58_" transform="scale(-1) rotate(-6.212 -7617.167 120.772)" d="M-90.1 323.1h193.4v180.5H-90.1z"/></defs><clipPath id="SVGID_59_"><use xlink:href="#SVGID_58_" overflow="visible"/></clipPath><g clip-path="url(#SVGID_59_)"><image width="436" height="407" xlink:href="F2F4969F10E5721F.png" transform="rotate(-6.207 3029.769 1082.445) scale(.4435)" overflow="visible"/></g></g></g><path class="st20" d="M-34.1 499.9c-35.3 4.8-53.2-18.2-39.7-51.2l38.2-93.5c13.5-33 42.4-36.9 64.2-8.8l61.9 79.8c21.8 28.2 10.8 55.1-24.5 60l-100.1 13.7z"/><g class="st15"><defs><path id="SVGID_60_" transform="scale(-1) rotate(-6.212 -6725.526 -46.012)" d="M-62.4 325.7H57.3v78.5H-62.4z"/></defs><clipPath id="SVGID_61_"><use xlink:href="#SVGID_60_" overflow="visible"/></clipPath><g class="st31"><defs><path id="SVGID_62_" transform="scale(-1) rotate(-6.212 -6725.512 -45.998)" d="M-62.4 325.7H57.3v78.5H-62.4z"/></defs><clipPath id="SVGID_63_"><use xlink:href="#SVGID_62_" overflow="visible"/></clipPath><g clip-path="url(#SVGID_63_)"><image width="270" height="177" xlink:href="F2F4969F10E57219.png" transform="rotate(-6.207 3030.987 776.829) scale(.4435)" overflow="visible"/></g></g></g><path class="st18" d="M31.4 345.3c-22.6-29.2-52.5-25.1-66.5 9.1l-20.6 50.4c.2 0 .4 0 .7-.1 16.8-2.3 14.7-17.7 31.6-20 16.8-2.3 19 13.1 35.8 10.8 16.9-2.3 14.7-17.7 31.6-20 5.2-.7 9 .3 12.3 1.9l-24.9-32.1z"/></g><g class="st5"><g class="st12"><defs><path id="SVGID_64_" d="M402.5 265.7h149.4v139.7H402.5z"/></defs><clipPath id="SVGID_65_"><use xlink:href="#SVGID_64_" overflow="visible"/></clipPath><g class="st32"><defs><path id="SVGID_66_" d="M402.5 265.7h149.4v139.7H402.5z"/></defs><clipPath id="SVGID_67_"><use xlink:href="#SVGID_66_" overflow="visible"/></clipPath><g clip-path="url(#SVGID_67_)"><image width="337" height="315" xlink:href="F2F4969F10E5721B.png" transform="translate(402.08 265.82) scale(.4435)" overflow="visible"/></g></g></g><path class="st14" d="M439.1 397.1c-27 .7-38.6-18.1-25.7-41.8l36.5-67.4c12.9-23.8 35-24.4 49.1-1.3l40.1 65.3c14.1 23 3.6 42.5-23.4 43.2l-76.6 2z"/><g class="st15"><defs><path id="SVGID_68_" d="M431.4 264.4h92.8v60.2h-92.8z"/></defs><clipPath id="SVGID_69_"><use xlink:href="#SVGID_68_" overflow="visible"/></clipPath><g class="st33"><defs><path id="SVGID_70_" d="M431.4 264.4h92.8v60.2h-92.8z"/></defs><clipPath id="SVGID_71_"><use xlink:href="#SVGID_70_" overflow="visible"/></clipPath><g class="st34"><defs><path id="SVGID_72_" d="M431.4 264.4h92.8v60.2h-92.8z"/></defs><clipPath id="SVGID_73_"><use xlink:href="#SVGID_72_" overflow="visible"/></clipPath><g clip-path="url(#SVGID_73_)"><image width="210" height="135" xlink:href="F2F4969F10E57206.png" transform="translate(431.153 264.732) scale(.4435)" overflow="visible"/></g></g></g></g><path class="st18" d="M448.5 285.1c13.4-24.8 36.5-25.5 51.3-1.4l21.8 35.5h-.5c-13 .4-13.3-11.6-26.3-11.2-13 .4-12.7 12.3-25.7 12.6-13 .4-13.3-11.6-26.3-11.2-4 .1-6.8 1.3-9.1 3l14.8-27.3z"/><g class="st12"><defs><path id="SVGID_74_" d="M278.4 229.5h193.9v180.7H278.4z"/></defs><clipPath id="SVGID_75_"><use xlink:href="#SVGID_74_" overflow="visible"/></clipPath><g class="st35"><defs><path id="SVGID_76_" d="M278.4 229.5h193.9v180.7H278.4z"/></defs><clipPath id="SVGID_77_"><use xlink:href="#SVGID_76_" overflow="visible"/></clipPath><g clip-path="url(#SVGID_77_)"><image width="436" height="407" xlink:href="F2F4969F10E57207.png" transform="translate(278.658 229.21) scale(.4435)" overflow="visible"/></g></g></g><path class="st20" d="M325.5 401.1c-35.6 1-50.9-23.9-33.9-55.2l48.1-88.8c17-31.3 46.1-32.1 64.8-1.8l52.9 86.1c18.7 30.4 4.8 56-30.8 57l-101.1 2.7z"/><g class="st15"><defs><path id="SVGID_78_" d="M312.1 230.7h119.3v79.5H312.1z"/></defs><clipPath id="SVGID_79_"><use xlink:href="#SVGID_78_" overflow="visible"/></clipPath><g class="st36"><defs><path id="SVGID_80_" d="M312.1 230.7h119.3v79.5H312.1z"/></defs><clipPath id="SVGID_81_"><use xlink:href="#SVGID_80_" overflow="visible"/></clipPath><g clip-path="url(#SVGID_81_)"><image width="270" height="177" xlink:href="F2F4969F10E57208.png" transform="translate(311.705 231.137) scale(.4435)" overflow="visible"/></g></g></g><path class="st18" d="M407.4 254.5c-19.3-31.5-49.5-30.6-67.1 1.8l-25.9 47.8h.7c17-.5 16.6-16 33.6-16.5s17.4 15.1 34.4 14.6 16.6-16 33.6-16.5c5.3-.1 9 1.3 12 3.2l-21.3-34.4z"/></g><path class="st22" d="M205.3 399.9s154.5-33.8 279.7-27.2c125.3 6.7 138.5 7.6 138.5 7.6s-68.7-49.4-154.8-23.7c-9.1-15.5-31.1-6.7-31.1-6.7s-8.7-60.7-75.2-58.6c-66.4 2.1-132.8 35.1-107.7 75.9-34.7-7.8-49.4 32.7-49.4 32.7"/><path class="st23 st24" d="M204.2 400.1l.4-1c0-.1 3.2-8.6 9.8-17 8.8-11.2 19.7-17.1 31.6-17.1 2.4 0 4.9.2 7.4.7-6.1-10.6-6.4-21-1-31.1 13-24.2 59.2-42.9 109.9-44.5 1.1 0 2.3-.1 3.4-.1 33 0 50.9 16.1 60.2 29.6 8.7 12.8 11.5 25.7 12.1 28.9 1.8-.6 7-2.3 12.9-2.3 8.1 0 14.3 3.1 18 9.1 16.4-4.8 33.3-7.3 50.4-7.3 60.4 0 104.1 30.9 104.5 31.3l1.7 1.2-2.1-.1c-.1 0-14.7-1-138.5-7.6-10.9-.6-22.4-.9-34.3-.9-116 0-243.9 27.7-245.2 28l-1.2.2zm41.7-33.9c-25 0-37.4 26.6-39.8 32.3 12.9-2.7 134-27.8 244.4-27.8 11.9 0 23.5.3 34.4.9 100.6 5.4 129.1 7 136.3 7.4-8.9-5.8-48.9-29.8-102-29.8-17.1 0-34.1 2.5-50.5 7.4l-.5.1-.2-.4c-3.5-5.9-9.3-8.9-17.2-8.9-7 0-13.1 2.4-13.2 2.4l-.7.3-.1-.8c0-.1-2.2-14.7-12.1-29.1-9.1-13.2-26.7-29-59.1-29-1.1 0-2.2 0-3.3.1-50.3 1.6-96 20.1-108.9 43.9-5.4 10-4.8 20.5 1.7 31.1l.8 1.2-1.4-.3c-3-.7-5.8-1-8.6-1z"/><path class="st22" d="M-61.3 424s154.5-33.8 279.7-27.2c125.3 6.7 138.5 7.6 138.5 7.6s-68.7-49.4-154.8-23.7C193 365.2 171 374 171 374s-8.7-60.7-75.2-58.6c-66.5 2-132.8 35.1-107.7 75.8-34.7-7.7-49.4 32.8-49.4 32.8"/><path class="st37" d="M95.6 315.7c1.1 0 2.2-.1 3.3-.1 32.4 0 50.1 15.8 59.1 29 9.8 14.4 12 29 12.1 29.1l.1.8.7-.3c.1 0 6.2-2.4 13.2-2.4 8 0 13.7 3 17.2 8.9l.2.4.5-.1c6.1-1.8 12.6-3.3 18.9-4.5l2-1.6c-6.9 1.2-13.9 2.8-20.6 4.8-3.7-6-10-9.1-18.1-9.1-5.9 0-11.1 1.6-13 2.3-.6-3.2-3.4-16.1-12.1-28.9-9.2-13.5-27.2-29.6-60.2-29.6-1.1 0-2.3 0-3.4.1-50.7 1.6-96.9 20.4-109.9 44.5-5.4 10.1-5.1 20.5 1 31.1-2.5-.5-5-.7-7.4-.7-11.9 0-22.8 5.9-31.6 17.1-6.6 8.4-9.8 16.9-9.8 17l-.4 1 1.1-.2c1.3-.3 129.2-28 245.2-28 11.9 0 23.5.3 34.3.9l.1-1.2c-10.9-.6-22.5-.9-34.4-.9-110.4 0-231.5 25.1-244.4 27.8 2.4-5.6 14.8-32.3 39.8-32.3 2.8 0 5.6.3 8.5 1l1.4.3-.8-1.2c-6.5-10.6-7.1-21.1-1.7-31.1 13-23.8 58.8-42.3 109.1-43.9z"/><path class="st22" d="M1188 435.8s-152.6-41.4-278.1-40.9c-125.4.5-138.7.7-138.7.7s71.1-46 155.8-16.1c9.9-15 31.4-5.2 31.4-5.2s11.7-60.2 78-54.9c66.3 5.4 130.9 41.6 103.8 81.1 35.1-5.9 47.8 35.3 47.8 35.3"/><path class="st37" d="M1036.6 319.9c-1.1-.1-2.2-.2-3.3-.2-32.4-1.6-50.8 13.3-60.5 26.1-10.5 13.9-13.5 28.3-13.5 28.5l-.1.8-.7-.3c-.1 0-6-2.7-13-3.1-7.9-.4-13.9 2.3-17.6 8l-.3.4-.4-.2c-6-2.1-12.4-3.9-18.6-5.4l-1.9-1.7c6.8 1.5 13.7 3.4 20.3 5.8 4-5.8 10.4-8.6 18.5-8.2 5.9.3 11 2.2 12.8 2.9.7-3.1 4.2-15.9 13.5-28.2 9.9-13 28.6-28.2 61.6-26.6 1.1.1 2.3.1 3.4.2 50.5 4.1 95.8 25.1 107.6 49.9 4.9 10.3 4.1 20.8-2.5 31 2.5-.4 5-.5 7.4-.4 11.8.6 22.5 7 30.7 18.6 6.2 8.7 8.9 17.4 8.9 17.5l.3 1.1-1.1-.3c-1.3-.3-127.7-34.3-243.5-40-11.9-.6-23.5-.9-34.3-.8v-1.2c10.9 0 22.5.2 34.4.8 110.2 5.4 230 36.4 242.7 39.8-2.1-5.7-13.2-33-38.2-34.2-2.8-.1-5.6.1-8.6.6l-1.4.2.8-1.2c7-10.3 8.1-20.7 3.2-31-11.7-24.4-56.5-45.1-106.6-49.2z"/><g class="st38"><defs><path id="SVGID_82_" transform="rotate(-172.35 774.274 130.674)" d="M645.3 90.1h257.9v81.1H645.3z"/></defs><clipPath id="SVGID_83_"><use xlink:href="#SVGID_82_" overflow="visible"/></clipPath><path class="st39" d="M896.7 190.4s-90.1-40.2-167.1-48.9c-77-8.7-85.2-9.5-85.2-9.5s47.6-27.2 97 0c7.3-9.9 19.7-1.4 19.7-1.4s12.3-41.6 52.6-33c40.2 8.6 76.8 38.8 56.7 64.6 22-1.7 26.3 28.2 26.3 28.2"/></g><path class="st4" d="M1137.2 94c18-20.1-10.4-47.1-43-56.5-32.6-9.4-45.2 24.1-45.2 24.1s-9.7-7.7-16.3 0c-39.1-25.2-36.8-4.6-36.8-4.6s-36.4.1 26.5 11.8c62.9 11.6 134.7 49.9 134.7 49.9s-1.7-24.8-19.9-24.7z"/><g class="st23"><path class="st40" d="M613.9 505.6c-59.3-4.6-85.4 5-80.9-54.2l9.6-72.3c19.3 2.6 20.6 25.2 42.2 25.2 23 0 23-25.4 46-25.4s23 25.4 46 25.4 23-25.4 46-25.4c19 0 22.3 17.3 35.7 23.3-2.9 2.9-6.3 5.4-10 7.4l-.1 58.5c-4.6 59.3-60.1 35.2-119.4 30.6l-15.1 6.9z"/><path class="st41" d="M758.6 402.1c-13.5-6.1-16.8-23.3-35.7-23.3-23 0-23 25.4-46 25.4s-23-25.4-46-25.4-23 25.4-46 25.4c-21.7 0-22.9-22.6-42.2-25.2l6.8-51.2c11.9 4.3 14.6 17.7 31 17.7 19.6 0 19.6-19.1 39.1-19.1 19.6 0 19.6 19.1 39.1 19.1 19.6 0 19.6-19.1 39.1-19.1 19.6 0 19.6 19.1 39.1 19.1 8.2 0 12.9-3.3 17.1-7.2 11.2 8.4 18.1 22.1 16.9 37.1-.8 10.5-5.4 19.8-12.3 26.7"/><path class="st42" d="M754.2 236.7v.2c-16.9-1.6-18-18.8-36.6-18.6-19.6.2-19.5 19.2-39.1 19.4-19.6.2-19.8-18.9-39.4-18.7-19.6.2-19.4 19.2-39 19.4-18.6.2-19.7-17-36.4-18.6 3.5-20.4 11.4-38.8 23-53.3 12.3 4.4 15.1 17.6 32.1 17.6 20.4 0 20.4-19.1 40.8-19.1s20.4 19 40.8 19c16.6 0 19.9-12.6 31.4-17.3 14.5 18.6 22.4 43.2 22.4 70"/><path class="st40" d="M752.7 268.7c-3.6-2.5-7.9-4.2-13.5-4.2-25.1 0-25.1 33.6-50.3 33.6-25.1 0-25.1-33.6-50.3-33.6-25.1 0-25.1 33.6-50.3 33.6-16.7 0-22.3-14.9-31.6-24.9l5.4-40.4c.3-4.5.9-8.8 1.6-13.1 16.8 1.6 17.9 18.8 36.4 18.6 19.6-.2 19.4-19.2 39-19.4 19.6-.2 19.7 18.9 39.3 18.7 19.6-.2 19.4-19.2 39-19.4 18.6-.1 19.7 17 36.4 18.6 0 3.5-.2 7.1-.4 10.7l-.7 21.2z"/><path class="st43" d="M752.7 268.7l-2.4 67.1c1.3.8 2.6 1.6 3.8 2.5-4.2 3.9-9 7.2-17.1 7.2-19.6 0-19.6-19.1-39.1-19.1-19.6 0-19.6 19.1-39.1 19.1-19.6 0-19.6-19.1-39.1-19.1-19.6 0-19.6 19.1-39.1 19.1-16.4 0-19-13.4-31-17.7l7.2-54.5c9.3 10 14.9 24.9 31.6 24.9 25.1 0 25.1-33.6 50.3-33.6 25.2 0 25.2 33.6 50.3 33.6 25.2 0 25.2-33.6 50.3-33.6 5.4-.1 9.7 1.6 13.4 4.1"/><path class="st44" d="M731.6 166.7c-11.5 4.7-14.6 17.3-31.2 17.3-20.4 0-20.4-19-40.8-19s-20.4 19.1-40.8 19.1c-17 0-19.8-13.2-32.1-17.6 18.3-23 45.8-36.5 79.3-34 28.3 2.1 50.6 14.9 65.6 34.2"/><g><path class="st45" d="M689.2 301.1c-13.3 0-19.9-8.9-26.3-17.4-6.2-8.3-12.1-16.2-23.9-16.2-11.8 0-17.7 7.9-23.9 16.2-6.4 8.6-13 17.4-26.4 17.4-13.3 0-19.9-8.9-26.3-17.4-2-2.7-4.1-5.5-6.4-8l2.2-2.1c2.4 2.5 4.5 5.4 6.6 8.2 6.2 8.3 12.1 16.2 23.9 16.2 11.8 0 17.7-7.9 23.9-16.2 6.4-8.6 13-17.4 26.4-17.4 13.3 0 20 8.9 26.4 17.4 6.2 8.3 12.1 16.2 23.9 16.2 11.8 0 17.7-7.9 23.9-16.2 6.4-8.6 13-17.4 26.4-17.4 5.4 0 10.1 1.5 14.4 4.4l-1.7 2.5c-3.7-2.6-7.9-3.9-12.6-3.9-11.8 0-17.7 7.9-23.9 16.2-6.7 8.6-13.3 17.5-26.6 17.5z"/></g></g><path class="st46" d="M556.8 273.5c3.6 4 6.7 8.7 10.2 13 5.2 6.3 11.2 11.4 21 11.4 25.2 0 25.2-33.6 50.4-33.6s25.2 33.6 50.4 33.6 25.2-33.6 50.4-33.6"/><path class="st47" d="M754.1 235.5h1c-8.2 0-11.8-3.6-15.9-7.7-.5-.5-1-1.2-1.5-1.7-5-4.8-10.1-9.9-20.2-9.9h-.3c-10.3 1.2-15.4 5.1-20.3 10-4.8 4.8-9.4 9.3-18.7 9.3h-.2c-9.2 0-13.7-4.1-18.6-8.7-5-4.8-10.1-9.4-20.2-9.4h-.2c-10.3 0-15.4 5.1-20.3 10-4.8 4.8-9.4 9.3-18.7 9.3h-.2c-8.7 0-13.4-4.3-18.5-8.8-4.7-4.2-9.5-8.5-17.4-9.3-.7-.1-1.2.4-1.3 1 0 .3.1.6.2.9.2.2.5.4.8.4 7.2.8 11.5 4.1 16.1 8.2 5.2 4.6 10.5 8.8 20.1 8.8h.2c10.3 0 15.4-4.6 20.3-9.5 4.8-4.8 9.4-9 18.7-9.1l.3.1c9.1 0 13.7 4.4 18.6 9.1 5 4.8 10.1 9.7 20.2 9.7h.3c10.3-.1 15.4-5.3 20.3-10.2 4.8-4.8 9.4-9.5 18.7-9.5h.2c9.2 0 13.7 4.6 18.6 9.2.5.5 1 1 1.4 1.5 4.3 4.3 7.2 8.3 16.4 8.3h1.5c.6 0-.1-.5-.1-1.1-.1-.4-.6-.9-1.3-.9z"/><path class="st48" d="M683.3 177.2c4.2 3.5 9 6.4 16.9 6.4 16 0 19.5-11.8 30.1-16.8M594.4 170.5c6.8 5.6 11.6 13 24.3 13 20.4 0 20.4-19.1 40.8-19.1 7.6 0 12.4 2.7 16.5 6"/><g class="st49"><clipPath id="SVGID_85_"><use xlink:href="#SVGID_84_" overflow="visible"/></clipPath></g><g class="st50"><clipPath id="SVGID_87_"><use xlink:href="#SVGID_86_" overflow="visible"/></clipPath></g><g class="st50"><clipPath id="SVGID_89_"><use xlink:href="#SVGID_88_" overflow="visible"/></clipPath></g><path class="st23 st24" d="M715.6 507.3c-11.8 0-26.2-3-41.4-6.3-14.9-3.2-30.2-6.4-46.1-7.7l-24.4 10.5c-.2.1-.4.1-.6.1-12.8-1-23.8-1-32.6-1.1-17.3-.1-28.7-.1-35-7-5.8-6.3-7.3-17.9-5.5-41.6v-.1l29.4-220.9c2.2-28.6 12.8-54.6 29.7-73 17.9-19.5 41.6-29.9 68.6-29.9 2.7 0 5.5.1 8.3.3 29.1 2.2 53 15.4 69.3 38 15.4 21.3 22.5 49.6 20.2 79.8l-3.2 88.4c14.2 8.7 22.2 24.3 20.9 40.8-1.1 14.8-9.6 27.8-22.6 35l-.1 58.4v.1c-1.8 25.1-12.6 36.2-34.9 36.2zM628 490.9c16.2 1.2 31.8 4.6 46.8 7.7 15.1 3.2 29.3 6.2 40.9 6.2 21 0 30.8-10.1 32.6-33.8l.1-59.1c0-.4.2-.9.6-1.1 12.6-6.7 20.8-19.2 21.9-33.4 1.2-15.8-6.6-30.8-20.3-38.9-.4-.2-.6-.6-.6-1.1l3.2-89.2c2.3-29.6-4.7-57.4-19.8-78.2-15.9-22-39.3-34.8-67.6-37-2.7-.2-5.4-.3-8.1-.3-51.9 0-91.3 41.4-95.9 100.7v.1l-29.4 220.9c-1.8 22.9-.4 34 4.9 39.8 5.6 6.1 16 6.1 33.2 6.2 8.8 0 19.8.1 32.5 1l24.4-10.5h.6z"/><g class="st51"><defs><path id="SVGID_90_" d="M433.8 25.9h165v163.8h-165z"/></defs><clipPath id="SVGID_91_"><use xlink:href="#SVGID_90_" overflow="visible"/></clipPath></g><path class="st52" d="M448.6 417.4c3.3 0 6.8-2.5 7.8-5.7l1.5-4.7c1-3.1-.5-4.4-3.4-2.8l-4.2 2.3c-2.9 1.6-7.1 1-9.4-1.4l-5.2-5.2c-2.3-2.3-4.3-1.5-4.3 1.7l-.2 9.8c-.1 3.3 2.5 6 5.8 6h11.6zM634.7 428.3c-2.9 0-6.3-1.8-7.6-4.4l-1.5-2.9c-1.3-2.6-.1-3.8 2.6-2.8l7.5 2.7c2.7 1 6.9.5 9.3-1.1l7.4-4.8c2.4-1.6 4.5-.5 4.6 2.4l.2 6c.1 2.9-2.2 4.9-5 4.9h-17.5z"/><path class="st53" d="M582.2 385.8s-133.1-15.2-146.3 13.4c-13.3 28.6 10 52.8 101.8 61.9 91.9 9.2 200.6-60.9 136.3-66.3-64.3-5.3-91.8-9-91.8-9"/><g class="st5"><defs><path id="SVGID_92_" transform="matrix(-.9988 .048 -.048 -.9988 758.335 202.654)" d="M226.7 63.2h300v94.4h-300z"/></defs><clipPath id="SVGID_93_"><use xlink:href="#SVGID_92_" overflow="visible"/></clipPath><path class="st54" d="M229.2 167.2s108.4-37.7 198.6-40.1c90.2-2.5 99.7-2.6 99.7-2.6S475 88.2 415 114.8c-7.5-12.2-22.7-3.6-22.7-3.6s-10.2-49.4-57.6-43.4c-47.5 6-92.8 37.3-72.2 69.3-25.4-4.2-33.3 30.1-33.3 30.1"/></g><path class="st55 st18" d="M-4.8 57.6S58 25.8 112.6 17c54.6-8.9 24.8-9 24.8-9s.7-18.5-33.6 2.6c-5.6-6.8-14.1-.3-14.1-.3S79.5-18.9 51.2-11.4C22.8-3.9-3.4 15.2 11.8 33-4 32.5-4.8 57.6-4.8 57.6"/><path class="st56" d="M766 373.3c-66.4 17.8-195.4.5-214.7-2.3-64.7.9-140.3 2.3-219.5 6.8-124.9 7.1-258.2 20.5-373.8 40.7v506.1h1233.5v-505c-29.4-6.1-84.6-12.8-146.6-19.9-101.8-11.7-222.1-24.1-278.8-26.6"/><path class="st23 st57" d="M769.9 411.9c-85.6 25.7-253.8 4.6-279.2 5.1-289 5.3-480 50.4-529.3 59.5 0 0 60.4 186.7 481 170.9C863 631.5 817.5 526.7 817.5 526.7s182.3 20.1 193.5-69.5c3.8-30.7-99.4-43.1-241.1-45.3"/><g class="st23"><path class="st58" d="M321.1 440.2s-37.8 8.7-13.3 21.7c24.5 13 49.5 3.8 45.7-4.4-3.8-8.1-4.8-19.4-32.4-17.3M601.9 463.3s19.1-2.7 7.5-10.2c-11.6-7.5-24.3-4-22.8.2 1.6 4.2 1.6 9.8 15.3 10"/><path class="st41" d="M793.6 406.4s-4-11.5-9.8-13.6c13 1.8 23.6 13.7 23.6 13.7l3.8-13 3.7 11.6s4.5-10.8 14.7-11.7c-5.6 9.3-3.5 14.3-3.5 14.3l-32.5-1.3z"/><g class="st59"><defs><path id="SVGID_94_" d="M473.5 377.7H765v69.9H473.5z"/></defs><clipPath id="SVGID_95_"><use xlink:href="#SVGID_94_" overflow="visible"/></clipPath><path class="st60" d="M548.4 378.8c-9.5 0-27-5.6-54.6 8.2-27.6 13.8-26.7 40.6-3.7 47.9 23 7.2 118.2 17.4 173.6 10 55.3-7.4 96.7-15.2 99.5-27.4 2.8-12.2 11.5-26-45.8-26-57.2 0-112.1 1.5-135.2-5.7-23.1-7.2-33.8-7-33.8-7"/></g><path class="st61" d="M683.2 301.5c0 31.3-25.4 56.7-56.7 56.7-31.3 0-56.7-25.4-56.7-56.7 0-31.3 25.4-56.7 56.7-56.7 31.3 0 56.7 25.4 56.7 56.7"/><path class="st62" d="M688.8 301.8s-.1 1.4-.2 4c-.1.7 0 1.3-.2 2.2-.1.9-.3 1.9-.5 3s-.3 2.3-.6 3.4c-.3 1.2-.6 2.4-1 3.7-1.5 5.1-3.8 11.3-8 17.4-4.2 6.1-9.9 12.4-17.6 17.3-7.7 4.9-17.1 8.4-27.4 9.4-1.3.2-2.6.1-3.9.2l-2 .1h-2.1c-2.5-.2-4.8-.2-7.7-.8-5.6-.8-10.6-2.6-15.7-4.9-5.1-2.3-9.7-5.5-14.1-9.2-4.3-3.7-8-8.1-11.2-12.9-3.1-4.9-5.5-10.2-7.3-15.8l-1.1-4.2c-.4-1.4-.5-2.9-.7-4.3-.2-1.4-.5-2.9-.5-4.3l-.2-4.5c.1-5.4.8-11.6 2.5-17.1 1.8-5.5 4.2-10.9 7.3-15.8 3.2-4.8 7-9.2 11.2-12.9 4.3-3.7 9-6.9 14.1-9.2 5.1-2.3 10.3-4.1 15.6-4.9 2.6-.6 5.3-.6 7.9-.8h2l1.8.1c1.2.1 2.4 0 3.7.2 2.6.4 5.3.5 7.7 1.2l3.6.9c1.2.4 2.3.8 3.5 1.2 4.6 1.5 8.8 3.8 12.7 6.1 7.7 4.9 13.5 11.2 17.6 17.3 4.3 6.1 6.6 12.3 8 17.4.3 1.3.7 2.5 1 3.7.3 1.2.4 2.3.6 3.3.2 1 .3 2 .4 2.8.1.9.1 1.7.2 2.4.2 2.9.2 4.4.2 4.4l.4-.1zm-11.2-.3s-.1-1.3-.2-3.6c0-.6 0-1.2-.1-2-.1-.7-.2-1.5-.3-2.3-.1-.8-.2-1.8-.4-2.7-.2-1-.5-2-.8-3-1.2-4.2-3-9.3-6.4-14.5-3.3-5.2-8-10.5-14.2-14.9-3.2-2.1-6.6-4.2-10.5-5.7-1-.4-1.9-.8-2.9-1.1-1-.3-2-.6-3.1-.9-2.1-.7-4.1-.9-6.2-1.3-1-.2-2.3-.2-3.5-.3l-1.8-.1-.9-.1h.1H625.7c-2.3.1-4.6 0-6.9.4-4.7.4-9.3 1.8-13.8 3.6s-8.8 4.5-12.8 7.6c-3.9 3.2-7.4 7-10.4 11.3-2.9 4.3-5.2 9.1-6.8 14.1-1.5 5.1-2.2 10-2.4 15.8l.2 3.8c0 1.3.3 2.6.5 3.9.3 1.3.3 2.6.7 3.9l1 3.8c1.6 5 3.9 9.8 6.8 14.1 3 4.2 6.5 8.1 10.4 11.3 4 3.1 8.3 5.7 12.8 7.6 1.1.6 2.3.8 3.4 1.3 1.2.4 2.3.8 3.4 1 1.2.3 2.3.5 3.5.8 1.1.3 2.3.3 3.4.5 2.1.4 4.7.3 7.2.4h.7l.8-.1 1.7-.1c1.1-.1 2.2-.1 3.3-.3 8.8-1.3 16.6-4.6 22.8-9 6.2-4.4 10.9-9.7 14.2-14.9 3.4-5.2 5.2-10.3 6.4-14.5.3-1.1.5-2.1.8-3 .2-.9.3-1.8.4-2.6.1-.8.2-1.5.3-2.2.1-.7.1-1.5.1-2.1.1-2.6.2-4 .2-4v.1z"/></g><g class="st23"><defs><path id="SVGID_96_" d="M576.6 301.8c0 27.3 21.6 49.4 48.3 49.4 26.7 0 48.3-22.1 48.3-49.4 0-27.3-21.6-49.4-48.3-49.4-26.7 0-48.3 22.1-48.3 49.4"/></defs><clipPath id="SVGID_97_"><use xlink:href="#SVGID_96_" overflow="visible"/></clipPath><path class="st63" d="M687.8 302c0 28.6-22.7 51.8-50.6 51.8-28 0-50.6-23.2-50.6-51.8 0-28.6 22.7-51.8 50.6-51.8 27.9 0 50.6 23.2 50.6 51.8"/></g><path class="st65" d="M730.3 166l.1.1c-4.2 1.7-6.5 3.9-9.3 6.5-.3.3-.7.6-1 1-5.1 4.7-9.8 9.2-19.6 9.2-9.7 0-14.5-4.5-19.6-9.2-5.2-4.8-10.5-9.9-21.2-9.9s-16 5-21.2 9.9c-5.1 4.7-9.8 9.2-19.6 9.2-9.7 0-14.5-4.5-19.6-9.2l-.7-.7c-3.1-2.9-6.1-5.7-10.9-7.4l-1.6 2 .2.1c4.7 1.7 7.9 4.7 11.3 7.9 5.2 4.8 10.5 9.9 21.2 9.9s16-5 21.2-9.9c5.1-4.7 9.8-9.2 19.6-9.2 9.7 0 14.5 4.5 19.6 9.2 5.2 4.8 10.5 9.9 21.2 9.9s16-5 21.2-9.9c.4-.3.7-.7 1.1-1 2.6-2.5 5.1-4.8 8.8-6.3l.1-.1-1.3-2.1z"/><path class="st23 st24" d="M1191.1 419.1l.4-1.2c-104.8-17.9-418.6-46.1-419.8-46.2v1.8c1.2.1 314.6 27.7 419.4 45.6z"/><path class="st66" d="M898.2 386.9s4.9-11.2 11.5-12.7c-14.7.7-26.8 10.8-26.8 10.8l-4-12.5-4.5 11.3s-4.7-11.3-16.2-13.1c6 9.8 3.5 14.6 3.5 14.6l36.5 1.6z"/><path class="st23 st24" d="M882.7 385.5l-3.7-10.8-4.4 10.9-.9-2c0-.1-4.1-9.5-13.5-12.1 1.8 2.6 3.8 9.9 3.7 10.1l-2.2-.2c.2.1.6-.8-4.2-10.8l-1-1.7 1.9.3c9 1.4 14 8.4 15.9 11.8l4.8-12 4.4 13.2c3.4-2.7 13.7-9 26.2-9.6l.2 1.8c-6 1.4-11.2 10.8-11.2 10.9l-1.7-.1c.2-.4 3.6-6.4 8.1-10.2-12.1 2.3-21.5 9.4-21.6 9.5l-.8 1zM183.3 389.6l-.2-1.8c215.1-20.8 359-17.6 360.4-17.6v1.8c-1.5 0-145.2-3.1-360.2 17.6z"/><path class="st23 st24" d="M-41.8 418.3l-.4-1.2c104.8-17.9 228.1-29.6 229.4-29.7v1.8c-1.3.1-124.3 11.2-229 29.1z"/><path class="st66" d="M340.4 377.5s-4-11.5-9.8-13.6c13 1.8 23.6 13.7 23.6 13.7l3.8-13 3.7 11.6s4.5-10.8 14.7-11.7c-5.6 9.3-3.5 14.3-3.5 14.3l-32.5-1.3z"/><path class="st23 st24" d="M355.1 379l-1.1-1.2c-.1-.1-8.2-9.1-18.7-12.4 3.9 4.1 6.5 11.7 6.6 12.1l-1.9-.1c0-.1-4-11.2-9.2-13l.4-1.8c10.9 1.5 20 9.8 23.1 12.9l4.2-14.3 3.9 12.4c1.9-3.3 6.5-9.5 14.5-10.2l1.8-.2-.9 1.5c-5 8.3-3.8 11.2-3.8 11.2l-1.7-.1c-.3-.4-1.5-2.4 3-10.4-8.3 1.9-12.1 10.8-12.2 10.9l-1 2.3-3.5-11.1-3.5 11.5z"/><path class="st67" d="M520.5-204.1h671v80.7h-671z"/><g class="st23"><path class="st68" d="M534.8 88.9c-7 34.8-36.7 55.3-71.6 48.2-34.8-7-57.4-36.7-50.4-71.6 7-34.8 40.9-55.3 75.8-48.2 34.9 7.1 53.2 36.8 46.2 71.6"/><path class="st69" d="M527.3 87.5c-6.2 30.5-32.2 48.4-62.7 42.3-30.5-6.2-50.3-32.2-44.1-62.7 6.2-30.5 35.9-48.4 66.4-42.3 30.5 6.1 46.6 32.2 40.4 62.7"/></g></g></g></g></svg>