<svg id="Capa_1" xmlns="http://www.w3.org/2000/svg" xmlns:xlink="http://www.w3.org/1999/xlink" viewBox="0 0 1280 443" enable-background="new 0 0 1280 443"><style>.st0{fill:#33be33}.st1{filter:url(#Adobe_OpacityMaskFilter)}.st2{opacity:.3;mask:url(#SVGID_1_)}.st3{fill:#3c3}.st4{fill:none}.st5{filter:url(#Adobe_OpacityMaskFilter_1_)}.st6{opacity:.3;mask:url(#SVGID_2_)}.st7{fill:#222220}.st8{filter:url(#Adobe_OpacityMaskFilter_2_)}.st9{opacity:.3;mask:url(#SVGID_3_)}.st10{filter:url(#Adobe_OpacityMaskFilter_3_)}.st11{opacity:.3;mask:url(#SVGID_4_)}.st12{filter:url(#Adobe_OpacityMaskFilter_4_)}.st13{opacity:.3;mask:url(#SVGID_5_)}.st14{filter:url(#Adobe_OpacityMaskFilter_5_)}.st15{opacity:.3;mask:url(#SVGID_6_)}.st16{fill:#b23333}.st17{fill:#be3333}.st18{fill:#c33}.st19{fill:#9f161d}.st20{fill:#9c3333}.st21{opacity:.5}.st22{fill:#fff}.st23,.st24{opacity:.5;fill:#fff}.st24{fill:#ffb400}.st25{filter:url(#Adobe_OpacityMaskFilter_6_)}.st26{opacity:.3;mask:url(#SVGID_7_)}.st27{fill:#f2f2f2}.st28{filter:url(#Adobe_OpacityMaskFilter_7_)}.st29{opacity:.3;mask:url(#SVGID_8_)}.st30{filter:url(#Adobe_OpacityMaskFilter_8_)}.st31{opacity:.3;mask:url(#SVGID_9_)}.st32{filter:url(#Adobe_OpacityMaskFilter_9_)}.st33{opacity:.3;mask:url(#SVGID_10_)}.st34{fill:#ffb400}.st35{filter:url(#Adobe_OpacityMaskFilter_10_)}.st36{opacity:.3;mask:url(#SVGID_11_)}.st37{filter:url(#Adobe_OpacityMaskFilter_11_)}.st38{opacity:.3;mask:url(#SVGID_12_)}.st39{filter:url(#Adobe_OpacityMaskFilter_12_)}.st40{opacity:.3;mask:url(#SVGID_13_)}.st41{filter:url(#Adobe_OpacityMaskFilter_13_)}.st42{opacity:.3;mask:url(#SVGID_14_)}</style><path class="st0" d="M727.8 649.7c8.3 0 16.6 1.8 22.9 5.5l16.3 9.5c2.2 1.3 3.4 2.5 3.5 4.6h-.3v20h.3c0 1-.6 2.6-2 3.8-.7.7-1.4 1.4-2 2.1 1.9 2.4 4.6 4.6 8 6.6 7.8 4.5 18 6.8 28.2 6.8 7.1 0 14.3-1.1 20.6-3.3.1 0 .1-.1.2-.1 2-.7 4.2-1.1 6.4-1.1 3 0 6 .6 8.3 1.9.1 0 .1.1.2.1l16.2 9.5c7.2 4.2 10 9.9 9 15.4v15c1.1 5.6-1.8 11.3-9 15.5l-85.2 49.4c-.5.3-1 .6-1.6.9-20.3 10.9-46.2 16.4-72.1 16.4-27.1 0-54.3-6-75-18-20.6-12-31-27.5-31-43.2h-.2v-20h.2c.3-14.7 9.7-29.7 28.2-41.3.5-.3 1-.7 1.5-1.1l85.3-49.5c6.6-3.5 14.9-5.4 23.1-5.4m0-4.2c-9.4 0-18.3 2.1-25 6L617.5 701c-.5.3-1.1.7-1.7 1-18.9 11.8-29.7 27.4-30.2 43.9 0 .2-.1.4-.1.6v20.3c0 .2.1.3.1.5.3 17.7 12.1 34.2 33.2 46.4 20.7 12 48.1 18.6 77.1 18.6 27.5 0 53.8-6 74-16.8.7-.3 1.3-.7 1.8-1l85.1-49.4c8.3-4.8 12.1-12.1 11.1-19.5v-14.3c.5-8.4-2.8-14.5-11.1-19.4l-16.3-9.5-.1-.1s-.1 0-.1-.1c-2.9-1.6-6.5-2.4-10.3-2.4-2.8 0-5.5.5-7.9 1.3h-.1c-.1 0-.1 0-.2.1-5.7 2-12.3 3-19.1 3-9.9 0-19.2-2.2-26.1-6.2-1.6-1-3.1-2-4.3-3.1 1.5-1.7 2.2-3.8 2.3-5.9 0-.1-.1-.1-.1-.2v-19.7c0-.4.1-.7 0-1-.5-2.9-2.3-5.4-5.5-7.2l-16.3-9.5c-6.6-3.8-15.5-5.9-24.9-5.9z"/><defs><filter id="Adobe_OpacityMaskFilter" filterUnits="userSpaceOnUse" x="585.5" y="645.5" width="282.7" height="186.9"><feColorMatrix values="-1 0 0 0 1 0 -1 0 0 1 0 0 -1 0 1 0 0 0 1 0" color-interpolation-filters="sRGB" result="source"/></filter></defs><mask maskUnits="userSpaceOnUse" x="585.5" y="645.5" width="282.7" height="186.9" id="SVGID_1_"><image width="274" height="183" xlink:href="2E4E7C49F860A563.jpg" transform="translate(583.397 643.06) scale(1.0502)" overflow="visible" class="st1"/></mask><path d="M727.8 649.7c8.3 0 16.6 1.8 22.9 5.5l16.3 9.5c2.2 1.3 3.4 2.5 3.5 4.6h-.3v20h.3c0 1-.6 2.6-2 3.8-.7.7-3.5 1.4-4.1 2.1 1.9 2.4 6.7 4.6 10.1 6.6 7.8 4.5 18 6.8 28.2 6.8 7.1 0 14.3-1.1 20.6-3.3.1 0 .1-.1.2-.1 2-.7 4.2-1.1 6.4-1.1 3 0 6 .6 8.3 1.9.1 0 .1.1.2.1l16.2 9.5c7.2 4.2 10 10 9.3 15.4l.3 14.4c1 5.6-2.4 11.9-9.6 16.1l-85.2 49.4c-.5.3-1 .6-1.6.9-20.3 10.9-46.2 16.4-72.1 16.4-27.1 0-54.3-6-75-18-20.6-12-31-27.5-31-43.2h-.2v-20h.2c.3-14.7 9.7-29.7 28.2-41.3.5-.3 1-.7 1.5-1.1l85.3-49.5c6.6-3.5 14.9-5.4 23.1-5.4m0-4.2c-9.4 0-18.3 2.1-25 6L617.5 701c-.5.3-1.1.7-1.7 1-18.9 11.8-29.7 27.4-30.2 43.9 0 .2-.1.4-.1.6v20.3c0 .2.1.3.1.5.3 17.7 12.1 34.2 33.2 46.4 20.7 12 48.1 18.6 77.1 18.6 27.5 0 53.8-6 74-16.8.7-.3 1.3-.7 1.8-1l85.1-49.4c8.3-4.8 12.1-11.6 11.1-19.5v-14.3c.5-9.2-2.8-14.5-11.1-19.4l-16.3-9.5-.1-.1s-.1 0-.1-.1c-2.9-1.6-6.5-2.4-10.3-2.4-2.8 0-5.5.5-7.9 1.3h-.1c-.1 0-.1 0-.2.1-5.7 2-12.3 3-19.1 3-9.9 0-19.2-2.2-26.1-6.2-1.6-1-3.1-2-4.3-3.1 1.5-1.7 2.2-3.8 2.3-5.9 0-.1-.1-.1-.1-.2v-19.7c0-.4.1-.7 0-1-.5-2.9-2.3-5.4-5.5-7.2l-16.3-9.5c-6.6-3.8-15.5-5.9-24.9-5.9z" class="st2"/><g><path class="st0" d="M768.3 692.9c3.1-2.7 2.6-6.4-1.6-8.8l-16.3-9.5c-12.6-7.3-33.2-7.3-45.7 0L619.3 724l-1.5.9c-38.6 24.1-37.6 61.8 2.8 85.2 40.5 23.4 105.5 24 147.1 1.6.6-.3 1.1-.6 1.6-.9l85.3-49.4c12.6-7.3 12.6-19.5 0-26.8l-16.4-9.8c-.1 0-.1.2-.2.2-4.1-2.2-10.2-2.4-14.8-.7-.1 0-.1.1-.2.1-15.3 5.4-35.6 4.2-48.8-3.4-13.2-7.6-15.2-19.2-5.9-28.1z"/><path class="st0" d="M852.2 728h11.7v20.8h-11.7zM758.6 669.2h11.7v19.7h-11.7zM589.5 746.6h11.7v20.3h-11.7z"/><path class="st3" d="M768.3 673.5c3.1-2.7 2.6-6.4-1.6-8.8l-16.3-9.5c-12.6-7.3-33.2-7.3-45.7 0l-85.3 49.4-1.5.9c-38.6 24.1-37.6 61.8 2.8 85.2 40.5 23.4 105.5 24 147.1 1.6.6-.3 1.1-.6 1.6-.9l85.3-49.4c12.6-7.3 12.6-19.2 0-26.5l-16.4-9.5c-.1 0-.1-.1-.2-.1-4.1-2.2-10.2-2.5-14.8-.8-.1 0-.1.1-.2.1-15.3 5.4-35.6 4.2-48.8-3.5-13.3-7.6-15.3-19.3-6-28.2z"/><path class="st4" d="M704.6 785.3c3.2 4.1 7.7 7.3 11.3 9.6 3.3-.6 6.5-1.3 9.6-2.1-5.4-1.1-10.8-2.8-15.9-5.2l-5-2.3zM740.1 745.4l16.9 9.1c5.5 2.7 9.9 5.8 12.8 9.2 2.7-5 3.9-10.2 3.6-15.3-8.7-2.9-20.1-4.7-33.3-3z"/><path class="st4" d="M688.6 778.4l-21.9-9.4c-5.8 1.4-12.3.8-17.1-1.5-4.3-2.1-6.5-5.2-6-8.4l-.3-.1c-8.6-4.1-13.8-9.9-14.9-16.3-1-6.4 2.3-12.7 9.3-17.6 14.6-10.2 40.9-11.7 58.5-3.2l35 18.8c14.4-3.4 28.3-3.1 40.2-1.4-3.3-8.5-10.6-16.6-22-23.2-31.9-18.5-83.7-18.5-115.6 0s-31.9 48.5 0 67c17.5 10.2 41.1 14.7 64 13.7-4.2-4.8-8.5-11.2-9.2-18.4z"/><path class="st0" d="M731.3 740.6l-35-18.8c-17.6-8.5-43.9-7-58.5 3.2-7.1 4.9-10.4 11.2-9.3 17.6 1 6.4 6.3 12.2 14.9 16.3l.3.1c-.5 3.2 1.7 6.3 6 8.4 4.8 2.3 11.3 2.9 17.1 1.5l21.9 9.4c.7 7.2 5 13.6 9.3 18.4 6.1-.3 12.2-.9 18.1-2-3.7-2.3-8.1-5.5-11.3-9.6l5.1 2.2c5.1 2.4 10.5 4.2 15.9 5.2 8.7-2.3 16.8-5.5 23.9-9.6 9.7-5.6 16.5-12.3 20.3-19.4-2.9-3.4-7.2-6.5-12.8-9.2l-16.9-9.1c13.2-1.7 24.6.2 33.3 2.9-.1-3-.8-6.1-1.9-9-12.1-1.6-26.1-1.9-40.4 1.5zm-61.7 24.1c-2 1.1-4.6 1.9-7.4 2-3.2.2-6.3-.4-8.8-1.6-5.1-2.5-5.8-6.9-1.6-9.8 2.1-1.4 4.9-2.3 8.2-2.5 3.2-.2 6.3.4 8.8 1.6 2.5 1.2 4 2.9 4.3 4.7.3 1.9-.7 3.7-2.7 5.1-.2.2-.5.3-.8.5zm7.3.2c-.3-1.9 2.1-3.7 5.4-4.1 7.3-.7 12.8-4.7 12.1-9-.3-1.9 2.1-3.7 5.4-4.1 3.3-.3 6.3 1 6.6 2.9.6 3.9-1.4 7.9-5.8 11.1-.2.1-.4.3-.6.4-4.3 3-10.2 5-16.6 5.6-3.3.4-6.2-.9-6.5-2.8zm59.1 1.7c.6.5 1.2 1.1 1.5 1.7.2.3.3.7.2 1 0 .2 0 .3-.2.5-.1.2-.3.3-.4.5-.5.3-1 .5-1.7.6-.6.1-1.2.1-1.8.1-1.2 0-2.3-.2-3.3-.5-.3-.1-.6-.2-.9-.2.2.2.4.3.6.5.6.5 1.2 1.1 1.5 1.8.2.3.3.7.2 1.1 0 .4-.3.9-.7 1.2-.5.3-1.2.5-1.8.6-.6.1-1.3.1-1.9.1-1.2-.1-2.3-.2-3.4-.5h-.1l.6.6c.3.3.6.7.8 1.1.2.4.4.8.4 1.3v.3c0 .1-.1.2-.2.4l-.1.2-.1.1-.1.1-.1.1-.1.1-.1.1h-.1c-.6.4-1.5.6-2.3.6-.8 0-1.5-.1-2.1-.2-.6-.1-1.3-.2-1.9-.4-1.2-.3-2.3-.6-3.4-1l-1.5-.6c-.5-.2-1-.5-1.5-.7-.9-.5-1.9-.9-2.9-1.4-.1 0-.1-.1 0-.2s.2-.1.3 0c.9.5 1.9.9 2.9 1.4l1.5.6c.5.2 1 .4 1.6.6 1.1.3 2.2.6 3.3.8.6.1 1.2.2 1.7.2.6 0 1.1 0 1.6-.1s.8-.2 1-.3l.1-.1.1-.1s0-.1.1-.1v-.2c0-.3-.1-.6-.3-.9-.2-.3-.4-.6-.7-.9-.5-.6-1.2-1.1-2-1.7-.4-.3-.8-.5-1.2-.8-.4-.2-.9-.5-1.3-.7-.4-.2-.5-.5-.1-.8.3-.2.9-.3 1.3-.1 1.6.8 3.3 1.4 5.2 1.9.9.2 1.9.4 2.9.4h1.3c.4-.1.7-.2.9-.3.3-.2.3-.3.4-.6 0-.2 0-.5-.1-.8-.2-.5-.7-1.1-1.2-1.6-1.1-1-2.5-1.9-4.1-2.7-.3-.1-.3-.4-.1-.6.2-.2.7-.2 1-.1 1.6.8 3.4 1.5 5.3 1.9 1 .2 1.9.4 2.9.5h1.4c.4-.1.9-.2 1.1-.3.2-.1.3-.3.4-.4.1-.1.1-.2.1-.4 0-.3 0-.6-.2-.8-.2-.6-.7-1.1-1.3-1.6-1.1-1-2.6-2-4.2-2.8-.1 0-.1-.1 0-.2s.2-.1.3 0c2.2.7 3.8 1.6 5 2.7zm-10.5-12.1l1.2.9c.7.6 1.4 1.3 1.7 2.1.2.4.3.8.3 1.2-.1.2-.1.4-.2.7-.1.3-.3.4-.5.5-.6.4-1.2.6-2 .7-.7.1-1.4.1-2.1.1-1.4 0-2.7-.3-3.9-.5l-1.2-.3c.3.2.5.4.7.6.7.7 1.4 1.4 1.7 2.2.2.4.3.8.3 1.3 0 .1-.1.2-.1.3 0 .1-.1.2-.2.4-.2.3-.4.4-.5.6l-.1.1h-.1l-.1.1-.2.1c-.1.1-.3.1-.5.2-.4.1-.7.2-1.1.3-.8.1-1.5.1-2.2.1-1.4-.1-2.8-.3-4-.6-.3-.1-.5-.1-.7-.2.2.1.3.3.5.4.7.7 1.3 1.4 1.7 2.2.2.4.3.8.2 1.3 0 .4-.4 1-.9 1.3-.6.4-1.3.6-2.1.7-.8.1-1.5.1-2.2.1-1.4-.1-2.7-.3-4-.6-.5-.1-.9-.2-1.3-.4.3.2.6.5.8.7.7.7 1.3 1.4 1.6 2.1.2.4.3.8.2 1.2-.1.4-.4.9-.8 1.2-.5.3-1.2.6-1.9.7-.7.1-1.4.1-2.1.1-1.4-.1-2.7-.3-3.9-.6-.6-.1-1.2-.3-1.8-.5-.6-.2-1.1-.4-1.7-.6-.5-.2-1.1-.4-1.6-.7-.5-.2-1-.5-1.5-.7-.1-.1-.1-.2 0-.2.1-.1.3-.1.4 0 .5.2 1 .5 1.6.6.5.2 1.1.4 1.6.6.6.2 1.1.4 1.7.5.6.2 1.1.3 1.7.4 1.2.2 2.4.4 3.6.5.6 0 1.2 0 1.7-.1s1-.2 1.3-.5c.4-.3.4-.5.5-.8 0-.3 0-.6-.2-1-.3-.7-.9-1.3-1.5-1.9-1.3-1.2-3.1-2.3-5-3.2-.3-.2-.4-.4-.1-.6.3-.2.8-.2 1.1-.1 1.9.9 4.1 1.7 6.4 2.2 1.1.3 2.3.4 3.5.5.6 0 1.1 0 1.6-.1s.9-.2 1.2-.4c.3-.3.4-.4.4-.7 0-.3 0-.6-.2-.9-.3-.6-.8-1.3-1.5-1.9-.3-.3-.7-.6-1.1-.9-.4-.3-.8-.5-1.2-.8-.4-.3-.9-.5-1.3-.8-.4-.3-.9-.5-1.4-.7-.4-.2-.5-.5-.1-.8.3-.2.9-.3 1.4-.1 1.9.9 4 1.7 6.3 2.2 1.1.3 2.3.5 3.4.5.6 0 1.1 0 1.6-.1.2-.1.5-.1.6-.2.1 0 .2-.1.3-.1l.1-.1h.1l.2-.2c.1-.1.1-.1.1-.2.1-.1.1-.2.1-.4 0-.3 0-.6-.2-.9-.3-.6-.8-1.3-1.5-1.9-1.3-1.2-3-2.3-4.9-3.2-.4-.2-.4-.5-.1-.7.3-.2.8-.2 1.2-.1 1 .5 2 .9 3 1.3.5.2 1.1.4 1.6.5.5.2 1.1.3 1.7.5 1.1.3 2.3.5 3.5.5.6 0 1.2 0 1.7-.1.2-.1.5-.1.7-.2.1 0 .2-.1.3-.1l.1-.1h.1c.2-.1.4-.3.4-.4.1-.1.1-.3.2-.4 0-.3 0-.7-.2-1-.3-.7-.8-1.3-1.4-2-.3-.3-.7-.6-1-.9l-1.2-.9c-.8-.5-1.7-1.1-2.7-1.6-.1-.1-.1-.2 0-.2.1-.1.3-.1.4 0 1 .5 2 1 2.9 1.5.3.8.7 1.1 1.1 1.4zm-23.1-15c.3 2.1-.7 4.1-3 5.7-.3.2-.6.4-.9.5-4.9 2.9-12.7 3.1-18 .5-2.8-1.3-4.5-3.2-4.8-5.3-.3-2.1.7-4.1 3-5.7.3-.2.6-.4.9-.5 4.9-2.9 12.7-3.1 18-.5 2.8 1.4 4.5 3.2 4.8 5.3zm8.3.2c0 .1-.1.2-.3.3-.2.1-.6.2-1 .2-.6-.1-.9-.4-.8-.7 1.3-3.2-.6-6.5-4.9-8.6-3.9-1.9-9.1-2.5-14-1.5-.5.1-1.1-.1-1.3-.4-.2-.3.1-.7.7-.8 5.5-1 11.5-.4 16 1.8 4.9 2.3 7.1 6.1 5.6 9.7z"/><defs><filter id="Adobe_OpacityMaskFilter_1_" filterUnits="userSpaceOnUse" x="628.3" y="716.3" width="145.1" height="80.5"><feColorMatrix values="-1 0 0 0 1 0 -1 0 0 1 0 0 -1 0 1 0 0 0 1 0" color-interpolation-filters="sRGB" result="source"/></filter></defs><mask maskUnits="userSpaceOnUse" x="628.3" y="716.3" width="145.1" height="80.5" id="SVGID_2_"><image width="150" height="85" xlink:href="2E4E7C49F860A561.jpg" transform="translate(626 714)" overflow="visible" class="st5"/></mask><path d="M731.3 740.6l-35-18.8c-17.6-8.5-43.9-7-58.5 3.2-7.1 4.9-10.4 11.2-9.3 17.6 1 6.4 6.3 12.2 14.9 16.3l.3.1c-.5 3.2 1.7 6.3 6 8.4 4.8 2.3 11.3 2.9 17.1 1.5l21.9 9.4c.7 7.2 5 13.6 9.3 18.4 6.1-.3 12.2-.9 18.1-2-3.7-2.3-8.1-5.5-11.3-9.6l5.1 2.2c5.1 2.4 10.5 4.2 15.9 5.2 8.7-2.3 16.8-5.5 23.9-9.6 9.7-5.6 16.5-12.3 20.3-19.4-2.9-3.4-7.2-6.5-12.8-9.2l-16.9-9.1c13.2-1.7 24.6.2 33.3 2.9-.1-3-.8-6.1-1.9-9-12.1-1.6-26.1-1.9-40.4 1.5zm-61.7 24.1c-2 1.1-4.6 1.9-7.4 2-3.2.2-6.3-.4-8.8-1.6-5.1-2.5-5.8-6.9-1.6-9.8 2.1-1.4 4.9-2.3 8.2-2.5 3.2-.2 6.3.4 8.8 1.6 2.5 1.2 4 2.9 4.3 4.7.3 1.9-.7 3.7-2.7 5.1-.2.2-.5.3-.8.5zm7.3.2c-.3-1.9 2.1-3.7 5.4-4.1 7.3-.7 12.8-4.7 12.1-9-.3-1.9 2.1-3.7 5.4-4.1 3.3-.3 6.3 1 6.6 2.9.6 3.9-1.4 7.9-5.8 11.1-.2.1-.4.3-.6.4-4.3 3-10.2 5-16.6 5.6-3.3.4-6.2-.9-6.5-2.8zm59.1 1.7c.6.5 1.2 1.1 1.5 1.7.2.3.3.7.2 1 0 .2 0 .3-.2.5-.1.2-.3.3-.4.5-.5.3-1 .5-1.7.6-.6.1-1.2.1-1.8.1-1.2 0-2.3-.2-3.3-.5-.3-.1-.6-.2-.9-.2.2.2.4.3.6.5.6.5 1.2 1.1 1.5 1.8.2.3.3.7.2 1.1 0 .4-.3.9-.7 1.2-.5.3-1.2.5-1.8.6-.6.1-1.3.1-1.9.1-1.2-.1-2.3-.2-3.4-.5h-.1l.6.6c.3.3.6.7.8 1.1.2.4.4.8.4 1.3v.3c0 .1-.1.2-.2.4l-.1.2-.1.1-.1.1-.1.1-.1.1-.1.1h-.1c-.6.4-1.5.6-2.3.6-.8 0-1.5-.1-2.1-.2-.6-.1-1.3-.2-1.9-.4-1.2-.3-2.3-.6-3.4-1l-1.5-.6c-.5-.2-1-.5-1.5-.7-.9-.5-1.9-.9-2.9-1.4-.1 0-.1-.1 0-.2s.2-.1.3 0c.9.5 1.9.9 2.9 1.4l1.5.6c.5.2 1 .4 1.6.6 1.1.3 2.2.6 3.3.8.6.1 1.2.2 1.7.2.6 0 1.1 0 1.6-.1s.8-.2 1-.3l.1-.1.1-.1s0-.1.1-.1v-.2c0-.3-.1-.6-.3-.9-.2-.3-.4-.6-.7-.9-.5-.6-1.2-1.1-2-1.7-.4-.3-.8-.5-1.2-.8-.4-.2-.9-.5-1.3-.7-.4-.2-.5-.5-.1-.8.3-.2.9-.3 1.3-.1 1.6.8 3.3 1.4 5.2 1.9.9.2 1.9.4 2.9.4h1.3c.4-.1.7-.2.9-.3.3-.2.3-.3.4-.6 0-.2 0-.5-.1-.8-.2-.5-.7-1.1-1.2-1.6-1.1-1-2.5-1.9-4.1-2.7-.3-.1-.3-.4-.1-.6.2-.2.7-.2 1-.1 1.6.8 3.4 1.5 5.3 1.9 1 .2 1.9.4 2.9.5h1.4c.4-.1.9-.2 1.1-.3.2-.1.3-.3.4-.4.1-.1.1-.2.1-.4 0-.3 0-.6-.2-.8-.2-.6-.7-1.1-1.3-1.6-1.1-1-2.6-2-4.2-2.8-.1 0-.1-.1 0-.2s.2-.1.3 0c2.2.7 3.8 1.6 5 2.7zm-10.5-12.1l1.2.9c.7.6 1.4 1.3 1.7 2.1.2.4.3.8.3 1.2-.1.2-.1.4-.2.7-.1.3-.3.4-.5.5-.6.4-1.2.6-2 .7-.7.1-1.4.1-2.1.1-1.4 0-2.7-.3-3.9-.5l-1.2-.3c.3.2.5.4.7.6.7.7 1.4 1.4 1.7 2.2.2.4.3.8.3 1.3 0 .1-.1.2-.1.3 0 .1-.1.2-.2.4-.2.3-.4.4-.5.6l-.1.1h-.1l-.1.1-.2.1c-.1.1-.3.1-.5.2-.4.1-.7.2-1.1.3-.8.1-1.5.1-2.2.1-1.4-.1-2.8-.3-4-.6-.3-.1-.5-.1-.7-.2.2.1.3.3.5.4.7.7 1.3 1.4 1.7 2.2.2.4.3.8.2 1.3 0 .4-.4 1-.9 1.3-.6.4-1.3.6-2.1.7-.8.1-1.5.1-2.2.1-1.4-.1-2.7-.3-4-.6-.5-.1-.9-.2-1.3-.4.3.2.6.5.8.7.7.7 1.3 1.4 1.6 2.1.2.4.3.8.2 1.2-.1.4-.4.9-.8 1.2-.5.3-1.2.6-1.9.7-.7.1-1.4.1-2.1.1-1.4-.1-2.7-.3-3.9-.6-.6-.1-1.2-.3-1.8-.5-.6-.2-1.1-.4-1.7-.6-.5-.2-1.1-.4-1.6-.7-.5-.2-1-.5-1.5-.7-.1-.1-.1-.2 0-.2.1-.1.3-.1.4 0 .5.2 1 .5 1.6.6.5.2 1.1.4 1.6.6.6.2 1.1.4 1.7.5.6.2 1.1.3 1.7.4 1.2.2 2.4.4 3.6.5.6 0 1.2 0 1.7-.1s1-.2 1.3-.5c.4-.3.4-.5.5-.8 0-.3 0-.6-.2-1-.3-.7-.9-1.3-1.5-1.9-1.3-1.2-3.1-2.3-5-3.2-.3-.2-.4-.4-.1-.6.3-.2.8-.2 1.1-.1 1.9.9 4.1 1.7 6.4 2.2 1.1.3 2.3.4 3.5.5.6 0 1.1 0 1.6-.1s.9-.2 1.2-.4c.3-.3.4-.4.4-.7 0-.3 0-.6-.2-.9-.3-.6-.8-1.3-1.5-1.9-.3-.3-.7-.6-1.1-.9-.4-.3-.8-.5-1.2-.8-.4-.3-.9-.5-1.3-.8-.4-.3-.9-.5-1.4-.7-.4-.2-.5-.5-.1-.8.3-.2.9-.3 1.4-.1 1.9.9 4 1.7 6.3 2.2 1.1.3 2.3.5 3.4.5.6 0 1.1 0 1.6-.1.2-.1.5-.1.6-.2.1 0 .2-.1.3-.1l.1-.1h.1l.2-.2c.1-.1.1-.1.1-.2.1-.1.1-.2.1-.4 0-.3 0-.6-.2-.9-.3-.6-.8-1.3-1.5-1.9-1.3-1.2-3-2.3-4.9-3.2-.4-.2-.4-.5-.1-.7.3-.2.8-.2 1.2-.1 1 .5 2 .9 3 1.3.5.2 1.1.4 1.6.5.5.2 1.1.3 1.7.5 1.1.3 2.3.5 3.5.5.6 0 1.2 0 1.7-.1.2-.1.5-.1.7-.2.1 0 .2-.1.3-.1l.1-.1h.1c.2-.1.4-.3.4-.4.1-.1.1-.3.2-.4 0-.3 0-.7-.2-1-.3-.7-.8-1.3-1.4-2-.3-.3-.7-.6-1-.9l-1.2-.9c-.8-.5-1.7-1.1-2.7-1.6-.1-.1-.1-.2 0-.2.1-.1.3-.1.4 0 1 .5 2 1 2.9 1.5.3.8.7 1.1 1.1 1.4zm-23.1-15c.3 2.1-.7 4.1-3 5.7-.3.2-.6.4-.9.5-4.9 2.9-12.7 3.1-18 .5-2.8-1.3-4.5-3.2-4.8-5.3-.3-2.1.7-4.1 3-5.7.3-.2.6-.4.9-.5 4.9-2.9 12.7-3.1 18-.5 2.8 1.4 4.5 3.2 4.8 5.3zm8.3.2c0 .1-.1.2-.3.3-.2.1-.6.2-1 .2-.6-.1-.9-.4-.8-.7 1.3-3.2-.6-6.5-4.9-8.6-3.9-1.9-9.1-2.5-14-1.5-.5.1-1.1-.1-1.3-.4-.2-.3.1-.7.7-.8 5.5-1 11.5-.4 16 1.8 4.9 2.3 7.1 6.1 5.6 9.7z" class="st6"/><path class="st7" d="M723.4 778.5c.1 0 .1 0 0 0z"/><g><path class="st0" d="M683.8 737.7c-.7.5-.5 1.1.2 1.5l7.6 3.7c.8.4 2 .3 2.6-.1.7-.5.5-1.1-.2-1.5l-7.6-3.7c-.8-.4-1.9-.3-2.6.1z"/><defs><filter id="Adobe_OpacityMaskFilter_2_" filterUnits="userSpaceOnUse" x="683.4" y="737.3" width="11.3" height="5.8"><feColorMatrix values="-1 0 0 0 1 0 -1 0 0 1 0 0 -1 0 1 0 0 0 1 0" color-interpolation-filters="sRGB" result="source"/></filter></defs><mask maskUnits="userSpaceOnUse" x="683.4" y="737.3" width="11.3" height="5.8" id="SVGID_3_"><image width="16" height="11" xlink:href="2E4E7C49F860A567.jpg" transform="translate(681 735)" overflow="visible" class="st8"/></mask><path d="M683.8 737.7c-.7.5-.5 1.1.2 1.5l7.6 3.7c.8.4 2 .3 2.6-.1.7-.5.5-1.1-.2-1.5l-7.6-3.7c-.8-.4-1.9-.3-2.6.1z" class="st9"/></g><g><path class="st0" d="M655.4 757.7c-.7.5-.5 1.1.2 1.5l7.6 3.7c.8.4 2 .3 2.6-.1.7-.5.5-1.1-.2-1.5l-7.6-3.7c-.8-.5-2-.4-2.6.1z"/><defs><filter id="Adobe_OpacityMaskFilter_3_" filterUnits="userSpaceOnUse" x="655" y="757.3" width="11.3" height="5.8"><feColorMatrix values="-1 0 0 0 1 0 -1 0 0 1 0 0 -1 0 1 0 0 0 1 0" color-interpolation-filters="sRGB" result="source"/></filter></defs><mask maskUnits="userSpaceOnUse" x="655" y="757.3" width="11.3" height="5.8" id="SVGID_4_"><image width="17" height="11" xlink:href="2E4E7C49F860A560.jpg" transform="translate(652 755)" overflow="visible" class="st10"/></mask><path d="M655.4 757.7c-.7.5-.5 1.1.2 1.5l7.6 3.7c.8.4 2 .3 2.6-.1.7-.5.5-1.1-.2-1.5l-7.6-3.7c-.8-.5-2-.4-2.6.1z" class="st11"/></g><g><path class="st0" d="M683.1 765.5c5.6-.5 10.5-2.3 14-4.7 3.8-2.7 5.9-6.1 5.3-9.7-.1-.6-1.1-1.1-2.2-1-1.1.1-1.9.7-1.8 1.4.9 5.6-6.1 10.8-15.7 11.7-1.1.1-1.9.7-1.8 1.4.1.6 1.1 1 2.2.9z"/><defs><filter id="Adobe_OpacityMaskFilter_4_" filterUnits="userSpaceOnUse" x="680.9" y="750.1" width="21.6" height="15.4"><feColorMatrix values="-1 0 0 0 1 0 -1 0 0 1 0 0 -1 0 1 0 0 0 1 0" color-interpolation-filters="sRGB" result="source"/></filter></defs><mask maskUnits="userSpaceOnUse" x="680.9" y="750.1" width="21.6" height="15.4" id="SVGID_5_"><image width="27" height="20" xlink:href="2E4E7C49F860A56E.jpg" transform="translate(678 748)" overflow="visible" class="st12"/></mask><path d="M683.1 765.5c5.6-.5 10.5-2.3 14-4.7 3.8-2.7 5.9-6.1 5.3-9.7-.1-.6-1.1-1.1-2.2-1-1.1.1-1.9.7-1.8 1.4.9 5.6-6.1 10.8-15.7 11.7-1.1.1-1.9.7-1.8 1.4.1.6 1.1 1 2.2.9z" class="st13"/></g><g><path class="st0" d="M754.7 784.5c-33.1 19.2-86.9 19.2-119.9 0-33.1-19.2-33.1-50.3 0-69.5 33.1-19.2 86.9-19.2 119.9 0 33.1 19.2 33.1 50.3 0 69.5m-115.6-67c-30.7 17.8-30.7 46.7 0 64.5 30.7 17.8 80.6 17.8 111.3 0 30.7-17.8 30.7-46.7 0-64.5-30.7-17.8-80.6-17.8-111.3 0"/><defs><filter id="Adobe_OpacityMaskFilter_5_" filterUnits="userSpaceOnUse" x="610" y="700.6" width="169.5" height="98.2"><feColorMatrix values="-1 0 0 0 1 0 -1 0 0 1 0 0 -1 0 1 0 0 0 1 0" color-interpolation-filters="sRGB" result="source"/></filter></defs><mask maskUnits="userSpaceOnUse" x="610" y="700.6" width="169.5" height="98.2" id="SVGID_6_"><image width="175" height="103" xlink:href="2E4E7C49F860A56F.jpg" transform="translate(607 698)" overflow="visible" class="st14"/></mask><path d="M754.7 784.5c-33.1 19.2-86.9 19.2-119.9 0-33.1-19.2-33.1-50.3 0-69.5 33.1-19.2 86.9-19.2 119.9 0 33.1 19.2 33.1 50.3 0 69.5m-115.6-67c-30.7 17.8-30.7 46.7 0 64.5 30.7 17.8 80.6 17.8 111.3 0 30.7-17.8 30.7-46.7 0-64.5-30.7-17.8-80.6-17.8-111.3 0" class="st15"/></g></g><g><path class="st16" d="M1177.2 675.8c-38.1-22.1-99.2-22.8-138.8-2.2-.9.4-1.7.8-2.5 1.3l-.3.2-64 37.1-16.9 9.8-32.3 18.7c-12 6.9-12 18.3 0 25.2l15.6 9c3.9 2.3 4.4 5.8 1.5 8.4-8.8 8.5-6.9 19.6 5.7 26.9 12.6 7.3 31.9 8.4 46.5 3.3.1 0 .1-.1.2-.1 4.4-1.6 10.2-1.2 14.1 1 .1 0 .1.2.2.2l.1-.1v-.1l15.6 9c8.9 5.2 22 6.5 33.1 3.9 3.8-.9 7.4-2.2 10.5-4l32.3-18.7 16.9-9.8 64.3-37.3c.8-.5 1.5-.9 2.2-1.4 35.4-22.8 34.2-58.2-4-80.3z"/><path class="st17" d="M918.2 752.6l-4.8 1.9-.2-17.8h5zM1203.7 701.1h3v18h-3zM933.8 777.4h3V796l-2.7.5z"/><path class="st18" d="M1177.1 659.2c-38.1-22.1-99.2-22.8-138.8-2.2-.9.4-1.7.8-2.5 1.3l-.3.2-64 37.1-16.9 9.8-32.4 18.6c-12 6.9-12 18.3 0 25.2l15.6 9c3.9 2.3 4.4 5.8 1.5 8.4-8.8 8.5-6.9 19.6 5.7 26.9 12.6 7.3 31.9 8.4 46.5 3.3.1 0 .1-.1.2-.1 4.4-1.6 10.2-1.3 14.1.8.1 0 .1.1.2.1l.1.1 15.6 9c8.9 5.2 22 6.5 33.1 4 3.8-.9 7.4-2.2 10.5-4l32.3-18.7 16.9-9.8 64.3-37.3c.8-.5 1.5-.9 2.2-1.4 35.5-22.9 34.2-58.3-3.9-80.3z"/><path class="st19" d="M1026 704.1l2.2-1.3 6.7 3.9-2.2 1.3z"/><path class="st19" d="M1032.7 708l2.2-1.3 8.9 5.2-2.2 1.2zM1043.8 714.4l2.2-1.3 2.3 1.3-2.3 1.3zM1050.5 718.3l2.2-1.3 4.5 2.6-2.3 1.3zM1059.4 723.5l2.2-1.3 2.3 1.3-2.3 1.3zM1070.5 729.9l2.3-1.3 4.4 2.6-2.2 1.3z"/><path class="st19" d="M1075 732.5l2.2-1.3 6.7 3.9-2.2 1.3zM1083.9 737.7l2.2-1.3 11.2 6.4-2.2 1.3z"/><path class="st19" d="M1095.1 744.1l2.2-1.3 4.4 2.6-2.2 1.3zM1028.2 702.8l2.2-1.3 2.3 1.3-2.3 1.3zM1041.6 710.6l2.2-1.3 2.2 1.3-2.2 1.3zM1048.3 714.4l2.2-1.3 4.5 2.6-2.3 1.3zM1059.4 720.9l2.2-1.3 2.3 1.3-2.3 1.3zM1066.1 724.8l2.2-1.3 2.2 1.3-2.2 1.3zM1075 729.9l2.2-1.3 2.3 1.3-2.3 1.3zM1086.1 736.4l2.3-1.3 2.2 1.3-2.2 1.3zM1099.5 744.1l2.2-1.3 2.3 1.3-2.3 1.3z"/><path class="st19" d="M1030.4 701.5l2.3-1.3 2.2 1.3-2.2 1.3zM1034.9 704.1l2.2-1.3 2.3 1.3-2.3 1.3z"/><path class="st19" d="M1037.1 705.4l2.3-1.3 4.4 2.6-2.2 1.3zM1043.8 709.3l2.2-1.3 2.3 1.3-2.3 1.3zM1048.3 711.9l2.2-1.3 2.2 1.3-2.2 1.2zM1057.2 717l2.2-1.3 4.5 2.6-2.3 1.3zM1070.5 724.8l2.3-1.3 6.7 3.8-2.3 1.3zM1083.9 732.5l2.2-1.3 2.3 1.3-2.3 1.3zM1088.4 735.1l2.2-1.3 2.2 1.3-2.2 1.3zM1092.8 737.7l2.3-1.3 6.6 3.9-2.2 1.2zM1101.7 742.8l2.3-1.3 2.2 1.3-2.2 1.3zM1032.7 700.2l2.2-1.3 2.2 1.3-2.2 1.3zM1037.1 702.8l2.3-1.3 2.2 1.3-2.2 1.3zM1039.4 704.1l2.2-1.3 4.4 2.6-2.2 1.3z"/><path class="st19" d="M1046 708l2.3-1.3 2.2 1.3-2.2 1.3zM1050.5 710.6l2.2-1.3 2.3 1.3-2.3 1.3zM1055 713.1l2.2-1.2 11.1 6.4-2.2 1.3zM1068.3 720.9l2.3-1.3 2.2 1.3-2.3 1.3zM1072.8 723.5l2.2-1.3 4.5 2.6-2.3 1.3zM1081.7 728.6l2.2-1.3 4.5 2.6-2.3 1.3zM1090.6 733.8l2.2-1.3 2.3 1.3-2.3 1.3zM1095.1 736.4l2.2-1.3 6.7 3.9-2.3 1.3zM1104 741.5l2.2-1.2 2.2 1.2-2.2 1.3zM1034.9 698.9l2.2-1.2 2.3 1.2-2.3 1.3zM1039.4 701.5l2.2-1.3 2.2 1.3-2.2 1.3z"/><path class="st19" d="M1041.6 702.8l2.2-1.3 4.5 2.6-2.3 1.3zM1048.3 706.7l2.2-1.3 2.2 1.3-2.2 1.3zM1052.7 709.3l2.3-1.3 17.8 10.3-2.3 1.3zM1072.8 720.9l2.2-1.3 4.5 2.6-2.3 1.3zM1079.5 724.8l2.2-1.3 2.2 1.3-2.2 1.3zM1086.1 728.6l2.3-1.3 2.2 1.3-2.2 1.3zM1092.8 732.5l2.3-1.3 2.2 1.3-2.2 1.3zM1097.3 735.1l2.2-1.3 6.7 3.9-2.2 1.3zM1106.2 740.3l2.2-1.3 2.3 1.3-2.3 1.2zM1037.1 697.7l2.3-1.3 2.2 1.3-2.2 1.2zM1050.5 705.4l2.2-1.3 2.3 1.3-2.3 1.3zM1055 708l2.2-1.3 8.9 5.2-2.2 1.2z"/><path class="st19" d="M1070.5 717l2.3-1.3 8.9 5.2-2.2 1.3zM1083.9 724.8l2.2-1.3 2.3 1.3-2.3 1.3zM1090.6 728.6l2.2-1.3 2.3 1.3-2.3 1.3zM1095.1 731.2l2.2-1.3 2.2 1.3-2.2 1.3zM1108.4 739l2.3-1.3 2.2 1.3-2.2 1.3zM1039.4 696.4l2.2-1.3 6.7 3.8-2.3 1.3z"/><path class="st19" d="M1046 700.2l2.3-1.3 8.9 5.2-2.2 1.3zM1057.2 706.7l2.2-1.3 2.2 1.3-2.2 1.3zM1061.6 709.3l2.3-1.3 2.2 1.3-2.2 1.3zM1066.1 711.9l2.2-1.3 2.2 1.3-2.2 1.2zM1070.5 714.4l2.3-1.3 2.2 1.3-2.2 1.3zM1075 717l2.2-1.3 2.3 1.3-2.3 1.3zM1079.5 719.6l2.2-1.3 2.2 1.3-2.2 1.3zM1083.9 722.2l2.2-1.3 2.3 1.3-2.3 1.3zM1088.4 724.8l2.2-1.3 2.2 1.3-2.2 1.3zM1092.8 727.3l2.3-1.2 2.2 1.2-2.2 1.3zM1097.3 729.9l2.2-1.3 11.2 6.5-2.3 1.3z"/><path class="st19" d="M1108.4 736.4l2.3-1.3 4.4 2.6-2.2 1.3zM1063.9 708l2.2-1.3 15.6 9-2.2 1.3zM1092.8 724.8l2.3-1.3 2.2 1.3-2.2 1.3zM1048.3 696.4l2.2-1.3 2.2 1.3-2.2 1.3zM1050.5 697.7l2.2-1.3 11.2 6.4-2.3 1.3z"/><path class="st19" d="M1063.9 705.4l2.2-1.3 8.9 5.2-2.2 1.3zM1077.2 713.1l2.3-1.2 6.6 3.8-2.2 1.3zM1086.1 718.3l2.3-1.3 2.2 1.3-2.2 1.3zM1090.6 720.9l2.2-1.3 2.3 1.3-2.3 1.3zM1092.8 722.2l2.3-1.3 4.4 2.6-2.2 1.3zM1099.5 726.1l2.2-1.3 2.3 1.3-2.3 1.2zM1104 728.6l2.2-1.3 8.9 5.2-2.2 1.3zM1115.1 735.1l2.2-1.3 2.3 1.3-2.3 1.3zM1046 692.5l2.3-1.3 2.2 1.3-2.2 1.3zM1050.5 695.1l2.2-1.3 2.3 1.3-2.3 1.3z"/><path class="st19" d="M1052.7 696.4l2.3-1.3 6.6 3.8-2.2 1.3zM1061.6 701.5l2.3-1.3 2.2 1.3-2.2 1.3zM1075 709.3l2.2-1.3 4.5 2.6-2.2 1.3zM1088.4 717l2.2-1.3 2.2 1.3-2.2 1.3zM1092.8 719.6l2.3-1.3 2.2 1.3-2.2 1.3z"/><path class="st19" d="M1095.1 720.9l2.2-1.3 4.4 2.6-2.2 1.3zM1101.7 724.8l2.3-1.3 2.2 1.3-2.2 1.3zM1104 726.1l2.2-1.3 2.2 1.3-2.2 1.2zM1108.4 728.6l2.3-1.3 6.6 3.9-2.2 1.3z"/><path class="st19" d="M1115.1 732.5l2.2-1.3 4.5 2.6-2.2 1.3zM1050.5 692.5l2.2-1.3 2.3 1.3-2.3 1.3zM1055 695.1l2.2-1.3 4.4 2.6-2.2 1.3zM1061.6 698.9l2.3-1.2 2.2 1.2-2.2 1.3zM1066.1 701.5l2.2-1.3 4.5 2.6-2.3 1.3zM1072.8 705.4l2.2-1.3 4.5 2.6-2.3 1.3zM1081.7 710.6l2.2-1.3 11.2 6.4-2.3 1.3zM1097.3 719.6l2.2-1.3 2.2 1.3-2.2 1.3zM1101.7 722.2l2.3-1.3 2.2 1.3-2.2 1.3zM1106.2 724.8l2.2-1.3 2.3 1.3-2.3 1.3zM1110.7 727.3l2.2-1.2 2.2 1.2-2.2 1.3zM1050.5 689.9l2.2-1.3 2.3 1.3-2.3 1.3zM1055 692.5l2.2-1.3 2.2 1.3-2.2 1.3zM1059.4 695.1l2.2-1.3 2.3 1.3-2.3 1.3z"/><path class="st19" d="M1077.2 705.4l2.3-1.3 11.1 6.5-2.2 1.3zM1095.1 715.7l2.2-1.3 2.2 1.3-2.2 1.3zM1106.2 722.2l2.2-1.3 2.3 1.3-2.3 1.3zM1112.9 726.1l2.2-1.3 2.2 1.3-2.2 1.2zM1117.3 728.6l2.3-1.3 2.2 1.3-2.2 1.3z"/><path class="st19" d="M1119.6 729.9l2.2-1.3 2.2 1.3-2.2 1.3zM1061.6 693.8l2.3-1.3 8.9 5.2-2.2 1.2zM1072.8 700.2l2.2-1.3 4.5 2.6-2.3 1.3zM1081.7 705.4l2.2-1.3 2.2 1.3-2.2 1.3zM1088.4 709.3l2.2-1.3 4.5 2.6-2.3 1.3zM1095.1 713.1l2.2-1.2 2.2 1.2-2.2 1.3zM1099.5 715.7l2.2-1.3 2.3 1.3-2.3 1.3zM1104 718.3l2.2-1.3 2.2 1.3-2.2 1.3zM1110.7 722.2l2.2-1.3 4.4 2.6-2.2 1.3zM1117.3 726.1l2.3-1.3 4.4 2.5-2.2 1.3z"/><path class="st19" d="M1121.8 728.6l2.2-1.3 4.5 2.6-2.2 1.3zM1063.9 692.5l2.2-1.3 4.4 2.6-2.2 1.3zM1072.8 697.7l2.2-1.3 8.9 5.1-2.2 1.3zM1088.4 706.7l2.2-1.3 2.2 1.3-2.2 1.3zM1095.1 710.6l2.2-1.3 8.9 5.1-2.2 1.3zM1106.2 717l2.2-1.3 6.7 3.9-2.2 1.3z"/><path class="st19" d="M1112.9 720.9l2.2-1.3 2.2 1.3-2.2 1.3zM1117.3 723.5l2.3-1.3 2.2 1.3-2.2 1.3zM1121.8 726.1l2.2-1.3 2.3 1.3-2.3 1.2z"/><path class="st19" d="M1124 727.3l2.3-1.2 4.4 2.5-2.2 1.3zM1061.6 688.6l2.3-1.3 2.2 1.3-2.2 1.3zM1066.1 691.2l2.2-1.3 11.2 6.5-2.3 1.3zM1079.5 698.9l2.2-1.2 2.2 1.2-2.2 1.3zM1083.9 701.5l2.2-1.3 2.3 1.3-2.3 1.3zM1088.4 704.1l2.2-1.3 2.2 1.3-2.2 1.3zM1092.8 706.7l2.3-1.3 2.2 1.3-2.2 1.3zM1099.5 710.6l2.2-1.3 4.5 2.6-2.2 1.2zM1106.2 714.4l2.2-1.3 6.7 3.9-2.2 1.3zM1117.3 720.9l2.3-1.3 2.2 1.3-2.2 1.3z"/><path class="st19" d="M1126.3 726.1l2.2-1.3 2.2 1.3-2.2 1.2zM1061.6 686l2.3-1.3 4.4 2.6-2.2 1.3z"/><path class="st19" d="M1066.1 688.6l2.2-1.3 4.5 2.6-2.3 1.3zM1081.7 697.7l2.2-1.3 15.6 9-2.2 1.3zM1099.5 708l2.2-1.3 2.3 1.3-2.3 1.3zM1106.2 711.9l2.2-1.3 2.3 1.3-2.3 1.2zM1117.3 718.3l2.3-1.3 2.2 1.3-2.2 1.3zM1121.8 720.9l2.2-1.3 6.7 3.9-2.2 1.3z"/><path class="st19" d="M1128.5 724.8l2.2-1.3 4.5 2.6-2.3 1.2zM1063.9 684.7l2.2-1.2 4.4 2.5-2.2 1.3zM1070.5 688.6l2.3-1.3 2.2 1.3-2.2 1.3zM1075 691.2l2.2-1.3 4.5 2.6-2.2 1.3zM1081.7 695.1l2.2-1.3 2.2 1.3-2.2 1.3zM1086.1 697.7l2.3-1.3 4.4 2.5-2.2 1.3zM1092.8 701.5l2.3-1.3 2.2 1.3-2.2 1.3zM1099.5 705.4l2.2-1.3 6.7 3.9-2.2 1.3zM1108.4 710.6l2.3-1.3 2.2 1.3-2.2 1.3zM1112.9 713.1l2.2-1.2 2.2 1.2-2.2 1.3zM1117.3 715.7l2.3-1.3 2.2 1.3-2.2 1.3z"/><path class="st19" d="M1119.6 717l2.2-1.3 2.2 1.3-2.2 1.3zM1124 719.6l2.2-1.3 2.3 1.3-2.3 1.3zM1128.5 722.2l2.2-1.3 2.2 1.3-2.2 1.3zM1072.8 687.3l2.2-1.3 4.5 2.6-2.3 1.3zM1081.7 692.5l2.2-1.3 8.9 5.2-2.2 1.3zM1092.8 698.9l2.3-1.2 2.2 1.2-2.2 1.3zM1099.5 702.8l2.2-1.3 2.3 1.3-2.3 1.3zM1117.3 713.1l2.3-1.2 4.4 2.5-2.2 1.3zM1121.8 715.7l2.2-1.3 4.5 2.6-2.2 1.3zM1130.7 720.9l2.2-1.3 2.3 1.3-2.3 1.3zM1135.2 723.5l2.2-1.3 2.2 1.3-2.2 1.3zM1066.1 680.9l2.2-1.3 4.5 2.6-2.3 1.3zM1072.8 684.7l2.2-1.2 2.2 1.2-2.2 1.3z"/><path class="st19" d="M1077.2 687.3l2.3-1.3 4.4 2.6-2.2 1.3zM1086.1 692.5l2.3-1.3 2.2 1.3-2.2 1.3zM1090.6 695.1l2.2-1.3 2.3 1.3-2.3 1.3zM1095.1 697.7l2.2-1.3 4.4 2.5-2.2 1.3zM1104 702.8l2.2-1.3 4.5 2.6-2.3 1.3zM1110.7 706.7l2.2-1.3 2.2 1.3-2.2 1.3zM1117.3 710.6l2.3-1.3 2.2 1.3-2.2 1.3zM1126.3 715.7l2.2-1.3 2.2 1.3-2.2 1.3zM1130.7 718.3l2.2-1.3 4.5 2.6-2.2 1.3zM1068.3 679.6l2.2-1.3 2.3 1.3-2.3 1.3zM1072.8 682.2l2.2-1.3 2.2 1.3-2.2 1.3z"/><path class="st19" d="M1075 683.5l2.2-1.3 2.3 1.3-2.3 1.2zM1079.5 686l2.2-1.3 2.2 1.3-2.2 1.3zM1083.9 688.6l2.2-1.3 6.7 3.9-2.2 1.3zM1106.2 701.5l2.2-1.3 2.3 1.3-2.3 1.3zM1117.3 708l2.3-1.3 8.9 5.2-2.2 1.2zM1128.5 714.4l2.2-1.3 4.5 2.6-2.3 1.3zM1070.5 678.3l2.3-1.3 6.7 3.9-2.3 1.3zM1079.5 683.5l2.2-1.3 2.2 1.3-2.2 1.2zM1083.9 686l2.2-1.3 4.5 2.6-2.2 1.3z"/><path class="st19" d="M1092.8 691.2l2.3-1.3 6.6 3.9-2.2 1.3zM1101.7 696.4l2.3-1.3 2.2 1.3-2.2 1.3zM1106.2 698.9l2.2-1.2 8.9 5.1-2.2 1.3zM1117.3 705.4l2.3-1.3 2.2 1.3-2.2 1.3zM1121.8 708l2.2-1.3 2.3 1.3-2.3 1.3zM1126.3 710.6l2.2-1.3 2.2 1.3-2.2 1.3zM1130.7 713.1l2.2-1.2 4.5 2.5-2.2 1.3zM1137.4 717l2.2-1.3 2.2 1.3-2.2 1.3zM1072.8 677l2.2-1.3 6.7 3.9-2.2 1.3z"/><path class="st19" d="M1079.5 680.9l2.2-1.3 4.4 2.6-2.2 1.3zM1088.4 686l2.2-1.3 2.2 1.3-2.2 1.3zM1099.5 692.5l2.2-1.3 4.5 2.6-2.2 1.3zM1106.2 696.4l2.2-1.3 2.3 1.3-2.3 1.3zM1110.7 698.9l2.2-1.2 8.9 5.1-2.2 1.3zM1121.8 705.4l2.2-1.3 4.5 2.6-2.2 1.3zM1135.2 713.1l2.2-1.2 6.7 3.8-2.3 1.3z"/><path class="st19" d="M1141.8 717l2.3-1.3 2.2 1.3-2.2 1.3zM1075 675.7l2.2-1.3 2.3 1.3-2.3 1.3zM1079.5 678.3l2.2-1.3 2.2 1.3-2.2 1.3zM1083.9 680.9l2.2-1.3 2.3 1.3-2.3 1.3zM1088.4 683.5l2.2-1.3 2.2 1.3-2.2 1.2zM1092.8 686l2.3-1.3 2.2 1.3-2.2 1.3zM1097.3 688.6l2.2-1.3 2.2 1.3-2.2 1.3zM1101.7 691.2l2.3-1.3 2.2 1.3-2.2 1.3zM1108.4 695.1l2.3-1.3 4.4 2.6-2.2 1.3zM1117.3 700.2l2.3-1.3 2.2 1.3-2.2 1.3zM1121.8 702.8l2.2-1.3 2.3 1.3-2.3 1.3zM1126.3 705.4l2.2-1.3 4.4 2.6-2.2 1.3zM1132.9 709.3l2.3-1.3 2.2 1.3-2.2 1.3zM1137.4 711.9l2.2-1.3 2.2 1.3-2.2 1.2z"/><path class="st19" d="M1144.1 715.7l2.2-1.3 2.2 1.3-2.2 1.3zM1077.2 674.4l2.3-1.3 2.2 1.3-2.2 1.3zM1088.4 680.9l2.2-1.3 2.2 1.3-2.2 1.3zM1092.8 683.5l2.3-1.3 6.6 3.8-2.2 1.3zM1101.7 688.6l2.3-1.3 2.2 1.3-2.2 1.3zM1112.9 695.1l2.2-1.3 4.5 2.6-2.3 1.3zM1119.6 698.9l2.2-1.2 6.7 3.8-2.2 1.3zM1130.7 705.4l2.2-1.3 2.3 1.3-2.3 1.3zM1135.2 708l2.2-1.3 4.4 2.6-2.2 1.3zM1141.8 711.9l2.3-1.3 2.2 1.3-2.2 1.2zM1148.5 715.7l2.3-1.3 2.2 1.3-2.2 1.3zM1083.9 675.7l2.2-1.3 2.3 1.3-2.3 1.3z"/><path class="st19" d="M1086.1 677l2.3-1.3 2.2 1.3-2.2 1.3zM1090.6 679.6l2.2-1.3 4.5 2.6-2.2 1.3zM1097.3 683.5l2.2-1.3 2.2 1.3-2.2 1.2zM1106.2 688.6l2.2-1.3 6.7 3.9-2.2 1.3zM1115.1 693.8l2.2-1.3 2.3 1.3-2.3 1.3zM1124 698.9l2.2-1.2 2.3 1.2-2.3 1.3zM1132.9 704.1l2.3-1.3 4.4 2.6-2.2 1.3z"/><path class="st19" d="M1137.4 706.7l2.2-1.3 6.7 3.9-2.2 1.3zM1146.3 711.9l2.2-1.3 2.3 1.3-2.3 1.2zM1150.8 714.4l2.2-1.3 2.2 1.3-2.2 1.3zM1101.7 683.5l2.3-1.3 4.4 2.5-2.2 1.3zM1108.4 687.3l2.3-1.3 2.2 1.3-2.2 1.3zM1117.3 692.5l2.3-1.3 2.2 1.3-2.2 1.3zM1126.3 697.7l2.2-1.3 4.4 2.5-2.2 1.3zM1132.9 701.5l2.3-1.3 4.4 2.6-2.2 1.3z"/><path class="st19" d="M1144.1 708l2.2-1.3 4.5 2.6-2.3 1.3zM1150.8 711.9l2.2-1.3 2.2 1.3-2.2 1.2zM1083.9 670.5l2.2-1.2 6.7 3.8-2.2 1.3z"/><path class="st19" d="M1090.6 674.4l2.2-1.3 8.9 5.2-2.2 1.3zM1101.7 680.9l2.3-1.3 8.9 5.1-2.2 1.3zM1112.9 687.3l2.2-1.3 2.2 1.3-2.2 1.3zM1121.8 692.5l2.2-1.3 4.5 2.6-2.2 1.3zM1130.7 697.7l2.2-1.3 2.3 1.3-2.3 1.2zM1137.4 701.5l2.2-1.3 2.2 1.3-2.2 1.3zM1141.8 704.1l2.3-1.3 2.2 1.3-2.2 1.3zM1146.3 706.7l2.2-1.3 2.3 1.3-2.3 1.3zM1150.8 709.3l2.2-1.3 2.2 1.3-2.2 1.3zM1086.1 669.3l2.3-1.3 2.2 1.3-2.2 1.2zM1099.5 677l2.2-1.3 2.3 1.3-2.3 1.3z"/><path class="st19" d="M1104 679.6l2.2-1.3 2.2 1.3-2.2 1.3zM1112.9 684.7l2.2-1.2 4.5 2.5-2.3 1.3zM1119.6 688.6l2.2-1.3 6.7 3.9-2.2 1.3zM1132.9 696.4l2.3-1.3 2.2 1.3-2.2 1.3zM1139.6 700.2l2.2-1.3 2.3 1.3-2.3 1.3zM1148.5 705.4l2.3-1.3 6.6 3.9-2.2 1.3zM1155.2 709.3l2.2-1.3 4.5 2.6-2.2 1.3zM1088.4 668l2.2-1.3 2.2 1.3-2.2 1.3zM1092.8 670.5l2.3-1.2 2.2 1.2-2.2 1.3z"/><path class="st19" d="M1095.1 671.8l2.2-1.3 4.4 2.6-2.2 1.3zM1101.7 675.7l2.3-1.3 2.2 1.3-2.2 1.3zM1106.2 678.3l2.2-1.3 2.3 1.3-2.3 1.3zM1110.7 680.9l2.2-1.3 6.7 3.9-2.3 1.2zM1124 688.6l2.3-1.3 2.2 1.3-2.2 1.3zM1128.5 691.2l2.2-1.3 6.7 3.9-2.2 1.3zM1141.8 698.9l2.3-1.2 4.4 2.5-2.2 1.3zM1146.3 701.5l2.2-1.3 8.9 5.2-2.2 1.3zM1157.4 708l2.3-1.3 4.4 2.6-2.2 1.3zM1090.6 666.7l2.2-1.3 2.3 1.3-2.3 1.3zM1095.1 669.3l2.2-1.3 2.2 1.3-2.2 1.2z"/><path class="st19" d="M1097.3 670.5l2.2-1.2 4.5 2.5-2.3 1.3zM1104 674.4l2.2-1.3 2.2 1.3-2.2 1.3zM1108.4 677l2.3-1.3 4.4 2.6-2.2 1.3zM1115.1 680.9l2.2-1.3 11.2 6.4-2.2 1.3zM1128.5 688.6l2.2-1.3 2.2 1.3-2.2 1.3zM1132.9 691.2l2.3-1.3 4.4 2.6-2.2 1.3zM1139.6 695.1l2.2-1.3 4.5 2.6-2.2 1.3zM1153 702.8l2.2-1.3 6.7 3.9-2.2 1.3zM1159.7 706.7l2.2-1.3 2.2 1.3-2.2 1.3zM1092.8 665.4l2.3-1.3 2.2 1.3-2.2 1.3zM1097.3 668l2.2-1.3 2.2 1.3-2.2 1.3z"/><path class="st19" d="M1099.5 669.3l2.2-1.3 4.5 2.5-2.2 1.3zM1106.2 673.1l2.2-1.3 2.3 1.3-2.3 1.3zM1110.7 675.7l2.2-1.3 8.9 5.2-2.2 1.3zM1121.8 682.2l2.2-1.3 2.2 1.3-2.2 1.3zM1126.2 684.7l2.3-1.2 2.2 1.2-2.2 1.3zM1130.7 687.3l2.2-1.3 6.7 3.9-2.2 1.3zM1139.6 692.5l2.2-1.3 2.3 1.3-2.3 1.3z"/><path class="st19" d="M1141.8 693.8l2.3-1.3 4.4 2.6-2.2 1.3zM1148.5 697.7l2.3-1.3 2.2 1.3-2.2 1.2z"/><path class="st19" d="M1150.8 698.9l2.2-1.2 4.4 2.5-2.2 1.3zM1159.7 704.1l2.2-1.3 2.2 1.3-2.2 1.3z"/><path class="st19" d="M1161.9 705.4l2.2-1.3 2.3 1.3-2.3 1.3zM1095.1 664.1l2.2-1.3 2.2 1.3-2.2 1.3zM1108.4 671.8l2.3-1.3 2.2 1.3-2.2 1.3zM1117.3 677l2.3-1.3 2.2 1.3-2.2 1.3zM1121.8 679.6l2.2-1.3 6.7 3.9-2.2 1.3zM1135.2 687.3l2.2-1.3 2.2 1.3-2.2 1.3zM1139.6 689.9l2.2-1.3 2.3 1.3-2.3 1.3zM1144.1 692.5l2.2-1.3 4.5 2.6-2.3 1.3zM1153 697.7l2.2-1.3 6.7 3.8-2.2 1.3zM1166.4 705.4l2.2-1.3 2.2 1.3-2.2 1.3zM1097.3 662.8l2.2-1.3 6.7 3.9-2.2 1.3z"/><path class="st19" d="M1104 666.7l2.2-1.3 8.9 5.1-2.2 1.3zM1117.3 674.4l2.3-1.3 2.2 1.3-2.2 1.3zM1126.3 679.6l2.2-1.3 2.2 1.3-2.2 1.3zM1132.9 683.5l2.3-1.3 4.4 2.5-2.2 1.3zM1139.6 687.3l2.2-1.3 6.7 3.9-2.2 1.3zM1148.5 692.5l2.3-1.3 6.6 3.9-2.2 1.3zM1161.9 700.2l2.2-1.3 2.3 1.3-2.3 1.3z"/><g><path class="st20" d="M1105.6 642.1c25.9 0 51.8 5.7 71.5 17.2 20 11.6 29.8 27.1 29.6 42.1v13.4c1 14.8-7.5 29.7-25.7 41.4-.7.5-1.4 1-2.2 1.4l-64.3 37.3-16.9 9.8-32.3 18.7c-3.1 1.8-6.6 3.1-10.5 4-3.6.8-7.5 1.2-11.3 1.2-7.9 0-15.8-1.7-21.8-5.2l-15.6-9-.1-.1c-.1 0-.1 0-.2-.1-2.2-1.2-5.1-1.8-7.9-1.8-2.1 0-4.3.3-6.2 1-.1 0-.1 0-.2.1-6 2.1-12.8 3.1-19.6 3.1-9.7 0-19.5-2.2-26.9-6.5-6.7-3.9-10.3-8.9-11-13.9 0-1-.2-2-.1-3l-.2-16h.1c.1-1 .4-2.8.9-4.2l-12.4-7.2c-5.5-3.2-8.4-7.3-8.8-11.4h.1v-.1c0-.7-.2-1.5-.2-2.2l-.3-15.9c0-4 3-9 9-12.5l32.3-18.6 16.9-9.8 64-37.1.3-.2c.8-.5 1.6-.9 2.5-1.3 19.3-9.7 43.4-14.6 67.5-14.6m0-4c-25.5 0-50 5.4-69.1 15.3-.9.4-1.8.8-2.7 1.3l-.2.1c-.1 0-.1.1-.2.1l-64 37.1-16.9 9.8-32.3 18.5c-6.5 3.8-10.7 9.6-11 15.3 0 .3-.1.5-.1.8l.3 15.7c0 .6 0 1.2.1 1.7-.1.4-.1.7 0 1.1.6 5.6 4.5 10.8 10.8 14.4l9.8 5.7c-.1.4-.1.8-.2 1.1-.1.4-.2.8-.2 1.2l.2 15.8c-.1.9 0 1.6 0 2.2v1.4c.9 6.5 5.5 12.5 13 16.8 7.8 4.5 18.1 7 28.9 7 7.4 0 14.6-1.2 20.9-3.4h.2c1.4-.5 3.1-.8 4.8-.8 2.2 0 4.4.5 5.9 1.3.1.1.2.1.2.1l15.6 9c6.4 3.7 14.8 5.7 23.8 5.7 4.2 0 8.3-.4 12.2-1.3 4.3-1 8.2-2.5 11.6-4.4l32.3-18.7 16.9-9.8 64.3-37.3c.8-.5 1.7-1 2.5-1.6 18.8-12.1 28.5-28.1 27.4-44.9v-13.3-.2c.2-17.1-11.3-33.6-31.5-45.3-19.5-11.2-45.6-17.5-73.3-17.5z"/></g></g><g><path class="st21 st22" d="M930.5 11c8.2 0 16.3 1.8 22.5 5.4l9.9 5.8 6.3 3.8c2.1 1.2 3.2 2.6 3.4 4.7h.2v19.6h-.3c-.2 1-.8 1.8-1.8 2.7-.9.8-1.6 1.5-2.3 2.3 1.9 2.5 4.6 4.9 8.2 6.9 7.7 4.4 17.7 6.7 27.8 6.7 7 0 14-1.1 20.2-3.2h.2c1.9-.7 4-1 6.1-1 3 0 6 .7 8.4 1.9.1 0 .1.3.2.3 0 0 0-.1.1-.1l8.9 5 7.1 4.1c6.8 3.9 10.1 9.2 9.1 14.3v15.7c1 5.1-2.4 10.4-9.1 14.3l-33.3 19.3-17.5 10.1-33.3 19.3c-6.2 3.6-14.3 5.4-22.5 5.4-8.1 0-16.3-1.8-22.4-5.4l-9.9-5.7-6.3-3.6c-.1 0-.1-.1-.2-.1-2.3-1.3-5.3-1.9-8.2-1.9-2.2 0-4.4.3-6.3 1-.1 0-.1.1-.2.1-6.3 2.2-13.4 3.3-20.4 3.3-10 0-19.9-2.2-27.5-6.6-7-4.1-10.8-9.3-11.4-14.5h-.5v-20.6h.5c.1-1 .3-2.2.6-3.3l-5.5-3.4-7.1-4c-5.8-3.4-8.9-7.9-9.2-12h.2V76.9h-.2c.3-4.1 3.3-8.7 9.2-12.1l33.3-19.1L875 35.6l33-19.3c6.2-3.6 14.3-5.3 22.5-5.3m0-4v4-4c-9.2 0-17.8 2.1-24.4 5.9l-33.3 19.3-17.5 10.1L822 61.4c-6.8 3.9-10.8 9.5-11.2 15.3 0 .5 0 1 .2 1.5v18.2c-.1.5-.2 1-.2 1.5.4 5.8 4.5 11.3 11.2 15.2l7.1 4 2.8 1.7c-.2.5-.3 1-.3 1.5v20.6c0 1 .3 1.8.9 2.5 1.4 5.9 5.9 11.3 13 15.4 7.9 4.6 18.4 7.1 29.5 7.1 7.7 0 15.2-1.2 21.7-3.5h.1l.6-.3c1.4-.4 2.9-.7 4.5-.7 2.3 0 4.5.5 6.1 1.3.2.1.3.2.5.3l6.1 3.5 9.8 5.7c6.6 3.8 15.2 5.9 24.4 5.9s17.9-2.1 24.5-5.9l33.3-19.3 17.5-10.1 33.3-19.3c8.1-4.7 12.2-11.4 11.1-18.1V90.3c1.1-6.7-3-13.4-11.1-18.1l-7.1-4.1h-.1l-8.9-5c-.1-.1-.2-.1-.4-.2-2.9-1.6-6.5-2.4-10.2-2.4-2.5 0-5 .4-7.1 1.1-.1 0-.3.1-.5.1-5.7 2-12.2 3-18.9 3-9.8 0-19-2.2-25.8-6.1-1.8-1-3.4-2.2-4.7-3.4.7-.7 1.4-1.5 1.9-2.6.6-.7.9-1.6.9-2.6V30.5c0-.6-.2-1.2-.4-1.8-.9-3.8-4-5.6-5.1-6.3l-6.3-3.8-9.9-5.8C948.4 9.1 939.7 7 930.5 7z"/><path class="st23" d="M1039.2 66.2h-.2c-4-2.2-10-2.4-14.5-.8-.1 0-.1.1-.2.1-15.1 5.3-34.9 4.1-47.9-3.4s-15-19-5.9-27.8c3-2.7 2.5-6.2-1.5-8.6l-6.3-3.6-9.9-5.7c-12.4-7.2-32.6-7.2-44.9 0l-33.3 19.3-17.5 10.1-33.3 19.3c-12.4 7.2-12.4 18.9 0 26l7.1 4.1 9 5.2c4.1 2.4 4.6 6 1.6 8.7-9.1 8.7-7.1 20.2 5.9 27.8 13 7.5 32.9 8.7 48 3.4.1 0 .1-.1.2-.1 4.5-1.6 10.5-1.1 14.5 1 .1 0 .1.3.2.3l6.3 3.4 9.9 5.6c12.4 7.2 32.6 7.1 44.9-.1l33.3-19.3 17.5-10.1 33.3-19.3c12.4-7.2 12.4-18.9 0-26l-7.1-4.1-9-5.2c-.1-.1-.1-.2-.2-.2z"/><g class="st21"><path class="st22" d="M942.4 61.9l-25.3-.8c-2.3-.1-4.3 1.2-4.3 2.9-.1 1.7 1.8 3.1 4.1 3.2l14.8.5L910.3 82c-10.6 7.1-11 19.3-1 27.1 10 7.9 26.8 8.4 37.3 1.3 1.8-1.2 1.8-3.2.2-4.5-1.7-1.3-4.5-1.4-6.2-.2-7 4.8-18.2 4.4-24.9-.9-6.7-5.2-6.4-13.3.6-18.1l21.3-14.4-.4 10.8c-.1 1.7 1.8 3.1 4.1 3.2 2.3.1 4.3-1.2 4.3-2.9l.7-18.4c.2-1.6-1.6-3-3.9-3.1"/><defs><filter id="Adobe_OpacityMaskFilter_6_" filterUnits="userSpaceOnUse" x="902.1" y="61.1" width="45.9" height="54.4"><feColorMatrix values="-1 0 0 0 1 0 -1 0 0 1 0 0 -1 0 1 0 0 0 1 0" color-interpolation-filters="sRGB" result="source"/></filter></defs><mask maskUnits="userSpaceOnUse" x="902.1" y="61.1" width="45.9" height="54.4" id="SVGID_7_"><image width="51" height="59" xlink:href="2E4E7C49F860A562.jpg" transform="translate(900 59)" overflow="visible" class="st25"/></mask><path d="M942.4 61.9l-25.3-.8c-2.3-.1-4.3 1.2-4.3 2.9-.1 1.7 1.8 3.1 4.1 3.2l14.8.5L910.3 82c-10.6 7.1-11 19.3-1 27.1 10 7.9 26.8 8.4 37.3 1.3 1.8-1.2 1.8-3.2.2-4.5-1.7-1.3-4.5-1.4-6.2-.2-7 4.8-18.2 4.4-24.9-.9-6.7-5.2-6.4-13.3.6-18.1l21.3-14.4-.4 10.8c-.1 1.7 1.8 3.1 4.1 3.2 2.3.1 4.3-1.2 4.3-2.9l.7-18.4c.2-1.6-1.6-3-3.9-3.1" class="st26"/></g><path class="st21 st27" d="M731.9 212.3c8.2 0 16.3 1.8 22.5 5.4l9.9 5.8 6.3 3.8c2.1 1.2 3.2 2.6 3.4 4.7h.2v19.6h-.3c-.2 1-.8 1.8-1.8 2.7-.9.8-1.6 1.5-2.3 2.3 1.9 2.5 4.6 4.9 8.2 6.9 7.7 4.4 17.7 6.7 27.8 6.7 7 0 14-1.1 20.2-3.2h.2c1.9-.7 4-1 6.1-1 3 0 6 .7 8.4 1.9.1 0 .1.3.2.3 0 0 0-.1.1-.1l8.9 5 7.1 4.1c6.8 3.9 10.1 9.2 9.1 14.3v15.7c1 5.1-2.4 10.4-9.1 14.3l-33.3 19.3-17.5 10.1-33.5 19.1c-6.2 3.6-14.3 5.4-22.5 5.4-8.1 0-16.3-1.8-22.4-5.4l-9.9-5.7-6.3-3.6c-.1 0-.1-.1-.2-.1-2.3-1.3-5.3-1.9-8.2-1.9-2.2 0-4.4.3-6.3 1-.1 0-.1.1-.2.1-6.3 2.2-13.4 3.3-20.4 3.3-10 0-19.9-2.2-27.5-6.6-7-4.1-10.8-9.3-11.4-14.5h-.4v-20.6h.5c.1-1 .3-2.2.6-3.3l-5.5-3.4-7.1-4c-5.8-3.4-8.9-7.9-9.2-12h.2v-20.6h-.2c.3-4.1 3.3-8.7 9.2-12.1l33.3-19.1 17.5-10.1 33.3-19.3c6.1-3.5 14.2-5.2 22.3-5.2m0-4v4-4c-9.2 0-17.8 2.1-24.4 5.9l-33.3 19.3-17.5 10.1-33.3 19.1c-6.8 3.9-10.8 9.5-11.2 15.3 0 .5 0 1 .2 1.5v18.2c-.1.5-.2 1-.2 1.5.4 5.8 4.5 11.3 11.2 15.2l7.1 4 2.8 1.7c-.2.5-.3 1-.3 1.5v20.6c0 1 .3 1.8.9 2.5 1.4 5.9 5.9 11.3 13 15.4 7.9 4.6 18.4 7.1 29.5 7.1 7.7 0 15.2-1.2 21.7-3.5h.1l.6-.3c1.4-.4 2.9-.7 4.5-.7 2.3 0 4.5.5 6.1 1.3.2.1.3.2.5.3l6.1 3.5 9.8 5.7c6.6 3.8 15.2 5.9 24.4 5.9s17.9-2.1 24.5-5.9l33.3-19.3 17.5-10.1 33.3-19.3c8.1-4.7 12.2-11.4 11.1-18.1v-14.9c1.1-6.7-3-13.4-11.1-18.1l-7.1-4.1h-.1l-8.9-5c-.1-.1-.2-.1-.4-.2-2.9-1.6-6.5-2.4-10.2-2.4-2.5 0-5 .4-7.1 1.1-.1 0-.3.1-.5.1-5.7 2-12.2 3-18.9 3-9.8 0-19-2.2-25.8-6.1-1.8-1-3.4-2.2-4.7-3.4.7-.7 1.4-1.5 1.9-2.6.6-.7.9-1.6.9-2.6v-19.6c0-.6-.2-1.2-.4-1.8-.9-3.8-4-5.6-5.1-6.3l-6.3-3.8-9.9-5.8c-6.4-3.8-15.1-5.9-24.3-5.9z"/><path class="st23" d="M840.7 267.5h-.2c-4-2.2-10-2.4-14.5-.8-.1 0-.1.1-.2.1-15.1 5.3-34.9 4.1-47.9-3.4s-15-19-5.9-27.8c3-2.7 2.5-6.2-1.5-8.6l-6.3-3.6-9.9-5.7c-12.4-7.2-32.6-7.2-44.9 0L676.2 237l-17.5 10.1-33.3 19.3c-12.4 7.2-12.4 18.9 0 26l7.1 4.1 9 5.2c4.1 2.4 4.6 6 1.6 8.7-9.1 8.7-7.1 20.2 5.9 27.8 13 7.5 32.9 8.7 48 3.4.1 0 .1-.1.2-.1 4.5-1.6 10.5-1.1 14.5 1 .1 0 .1.3.2.3l6.3 3.4 9.9 5.6c12.4 7.2 32.6 7.1 44.9-.1l33.3-19.3 17.5-10.1 33.3-19.3c12.4-7.2 12.4-18.9 0-26l-7.1-4.1-9-5.2c-.2-.1-.3-.2-.3-.2z"/><g class="st21"><path class="st22" d="M723.6 317.3c.2 1-.5 2.1-1.5 2.7-1.9 1.2-5 1.2-6.9-.1-.9-.7-1.2-1.2-1.4-1.9l-1.8-11.6-16.7-1.4c-1.2-.1-2-.5-2.8-1-1.9-1.3-1.9-3.3.1-4.6 1.1-.7 2.6-1 4.1-.9l14.2 1.7-2.1-9.5c-.2-1 .4-2 1.5-2.7 1.9-1.2 5-1.2 6.9.1.8.5 1.2 1.1 1.4 1.9l1.5 11.1 17.4 1.6c1 .1 1.8.3 2.8 1 1.9 1.3 1.9 3.3-.1 4.6-1 .6-2.6 1.1-4.1.9-4.7-.6-15.1-2-15.1-2s1.9 6.9 2.6 10.1"/><defs><filter id="Adobe_OpacityMaskFilter_7_" filterUnits="userSpaceOnUse" x="691.2" y="287.2" width="50.7" height="33.7"><feColorMatrix values="-1 0 0 0 1 0 -1 0 0 1 0 0 -1 0 1 0 0 0 1 0" color-interpolation-filters="sRGB" result="source"/></filter></defs><mask maskUnits="userSpaceOnUse" x="691.2" y="287.2" width="50.7" height="33.7" id="SVGID_8_"><image width="55" height="38" xlink:href="2E4E7C49F860A565.jpg" transform="translate(689 285)" overflow="visible" class="st28"/></mask><path d="M723.6 317.3c.2 1-.5 2.1-1.5 2.7-1.9 1.2-5 1.2-6.9-.1-.9-.7-1.2-1.2-1.4-1.9l-1.8-11.6-16.7-1.4c-1.2-.1-2-.5-2.8-1-1.9-1.3-1.9-3.3.1-4.6 1.1-.7 2.6-1 4.1-.9l14.2 1.7-2.1-9.5c-.2-1 .4-2 1.5-2.7 1.9-1.2 5-1.2 6.9.1.8.5 1.2 1.1 1.4 1.9l1.5 11.1 17.4 1.6c1 .1 1.8.3 2.8 1 1.9 1.3 1.9 3.3-.1 4.6-1 .6-2.6 1.1-4.1.9-4.7-.6-15.1-2-15.1-2s1.9 6.9 2.6 10.1" class="st29"/></g><g class="st21"><path class="st22" d="M720.2 263.8c9.4-6 20.1-6 27.9-.6 13.3 9.2-4 27 1.6 30.8l19.9-12.7c1.8-1.2 4.8-1.1 6.5.1 1.8 1.2 1.7 3.2-.1 4.3l-24.7 15.8c-1.8 1.2-4.8 1.1-6.5-.1-14-9.6 7.8-25.4-4-33.6-3.5-2.4-9.3-2.9-14.2.3-4 2.6-4.1 5.4-2.8 7.8.6 1.4.1 2.6-1.2 3.5-1.9 1.2-5 1.2-6.9-.1-.5-.3-.8-.6-1.1-1.2-2.7-4.5-1.5-9.8 5.6-14.3"/><defs><filter id="Adobe_OpacityMaskFilter_8_" filterUnits="userSpaceOnUse" x="713.2" y="259.2" width="64.2" height="43.2"><feColorMatrix values="-1 0 0 0 1 0 -1 0 0 1 0 0 -1 0 1 0 0 0 1 0" color-interpolation-filters="sRGB" result="source"/></filter></defs><mask maskUnits="userSpaceOnUse" x="713.2" y="259.2" width="64.2" height="43.2" id="SVGID_9_"><image width="69" height="48" xlink:href="2E4E7C49F860A566.jpg" transform="translate(711 257)" overflow="visible" class="st30"/></mask><path d="M720.2 263.8c9.4-6 20.1-6 27.9-.6 13.3 9.2-4 27 1.6 30.8l19.9-12.7c1.8-1.2 4.8-1.1 6.5.1 1.8 1.2 1.7 3.2-.1 4.3l-24.7 15.8c-1.8 1.2-4.8 1.1-6.5-.1-14-9.6 7.8-25.4-4-33.6-3.5-2.4-9.3-2.9-14.2.3-4 2.6-4.1 5.4-2.8 7.8.6 1.4.1 2.6-1.2 3.5-1.9 1.2-5 1.2-6.9-.1-.5-.3-.8-.6-1.1-1.2-2.7-4.5-1.5-9.8 5.6-14.3" class="st31"/></g><path class="st21 st22" d="M527.9 11c8.2 0 16.3 1.8 22.5 5.4l9.9 5.8 6.3 3.8c2.1 1.2 3.2 2.6 3.4 4.7h.2v19.6h-.3c-.2 1-.8 1.8-1.8 2.7-.9.8-1.6 1.5-2.3 2.3 1.9 2.5 4.6 4.9 8.2 6.9 7.7 4.4 17.7 6.7 27.8 6.7 7 0 14-1.1 20.2-3.2h.2c1.9-.7 4-1 6.1-1 3 0 6 .7 8.4 1.9.1 0 .1.3.2.3 0 0 0-.1.1-.1l8.9 5 7.1 4.1c6.8 3.9 10.1 9.2 9.1 14.3v15.7c1 5.1-2.4 10.4-9.1 14.3l-33.3 19.3-17.7 9.9-33.3 19.3c-6.2 3.6-14.3 5.4-22.5 5.4-8.1 0-16.3-1.8-22.4-5.4l-9.9-5.7-6.3-3.6c-.1 0-.1-.1-.2-.1-2.3-1.3-5.3-1.9-8.2-1.9-2.2 0-4.4.3-6.3 1-.1 0-.1.1-.2.1-6.3 2.2-13.4 3.3-20.4 3.3-10 0-19.9-2.2-27.5-6.6-7-4.1-10.8-9.3-11.4-14.5h-.5v-20.6h.5c.1-1 .3-2.2.6-3.3l-5.5-3.4-7.1-4c-5.8-3.4-8.9-7.9-9.2-12h.2V76.9h-.2c.3-4.1 3.3-8.7 9.2-12.1l33.3-19.1 17.5-10.1 33.3-19.3c6.1-3.6 14.3-5.3 22.4-5.3m0-4v4-4c-9.2 0-17.8 2.1-24.4 5.9l-33.3 19.3-17.5 10.1-33.3 19.1c-6.8 3.9-10.8 9.5-11.2 15.3 0 .5 0 1 .2 1.5v18.2c-.1.5-.2 1-.2 1.5.4 5.8 4.5 11.3 11.2 15.2l7.1 4 2.8 1.7c-.2.5-.3 1-.3 1.5v20.6c0 1 .3 1.8.9 2.5 1.4 5.9 5.9 11.3 13 15.4 7.9 4.6 18.4 7.1 29.5 7.1 7.7 0 15.2-1.2 21.7-3.5h.1l.6-.3c1.4-.4 2.9-.7 4.5-.7 2.3 0 4.5.5 6.1 1.3.2.1.3.2.5.3l6.1 3.5 9.8 5.7c6.6 3.8 15.2 5.9 24.4 5.9s17.9-2.1 24.5-5.9l33.3-19.3 17.5-10.1 33.3-19.3c8.1-4.7 12.2-11.4 11.1-18.1V90.3c1.1-6.7-3-13.4-11.1-18.1l-7.1-4.1h-.1l-8.9-5c-.1-.1-.2-.1-.3-.2-2.9-1.6-6.5-2.4-10.2-2.4-2.5 0-5 .4-7.1 1.1-.1 0-.3.1-.5.1-5.7 2-12.2 3-18.9 3-9.8 0-19-2.2-25.8-6.1-1.8-1-3.4-2.2-4.7-3.4.7-.7 1.4-1.5 1.9-2.6.6-.7.9-1.6.9-2.6V30.5c0-.6-.2-1.2-.4-1.8-.9-3.8-4-5.6-5.1-6.3l-6.3-3.8-9.9-5.8C545.8 9.1 537.1 7 527.9 7z"/><path class="st23" d="M636.7 66.2h-.2c-4-2.2-10-2.4-14.5-.8-.1 0-.1.1-.2.1-15.1 5.3-34.9 4.1-47.9-3.4s-15-19-5.9-27.8c3-2.7 2.5-6.2-1.5-8.6l-6.3-3.6-9.9-5.7c-12.4-7.2-32.6-7.2-44.9 0l-33.3 19.3-17.5 10.1-33.3 19.3c-12.4 7.2-12.4 18.9 0 26l7.1 4.1 9 5.2c4.1 2.4 4.6 6 1.6 8.7-9.1 8.7-7.1 20.2 5.9 27.8 13 7.5 32.9 8.7 48 3.4.1 0 .1-.1.2-.1 4.5-1.6 10.5-1.1 14.5 1 .1 0 .1.3.2.3l6.3 3.4 9.9 5.6c12.4 7.2 32.6 7.1 44.9-.1l33.3-19.3 17.5-10.1 33.3-19.3c12.4-7.2 12.4-18.9 0-26l-7.1-4.1-9-5.2c-.2-.1-.2-.2-.2-.2z"/><g class="st21"><path class="st22" d="M507 115.4l26.5 1.4c2.4.1 4.5-1.2 4.6-3 .1-1.8-1.8-3.3-4.2-3.4l-15.5-.8L541.1 95c11.3-7.3 12-20 1.6-28.5s-27.9-9.5-39.2-2.2c-1.9 1.2-2 3.3-.3 4.8 1.7 1.4 4.7 1.6 6.5.4 7.5-4.8 19.2-4.2 26.1 1.5 6.9 5.6 6.4 14.2-1.1 19L512 104.7l.7-11.4c.1-1.8-1.8-3.3-4.2-3.5-2.5-.1-4.5 1.2-4.6 3l-1.2 19.3c0 1.6 1.9 3.2 4.3 3.3"/><defs><filter id="Adobe_OpacityMaskFilter_9_" filterUnits="userSpaceOnUse" x="502" y="59.4" width="48" height="57.4"><feColorMatrix values="-1 0 0 0 1 0 -1 0 0 1 0 0 -1 0 1 0 0 0 1 0" color-interpolation-filters="sRGB" result="source"/></filter></defs><mask maskUnits="userSpaceOnUse" x="502" y="59.4" width="48" height="57.4" id="SVGID_10_"><image width="53" height="62" xlink:href="B157F6B0E5F7E750.jpg" transform="translate(500 57)" overflow="visible" class="st32"/></mask><path d="M507 115.4l26.5 1.4c2.4.1 4.5-1.2 4.6-3 .1-1.8-1.8-3.3-4.2-3.4l-15.5-.8L541.1 95c11.3-7.3 12-20 1.6-28.5s-27.9-9.5-39.2-2.2c-1.9 1.2-2 3.3-.3 4.8 1.7 1.4 4.7 1.6 6.5.4 7.5-4.8 19.2-4.2 26.1 1.5 6.9 5.6 6.4 14.2-1.1 19L512 104.7l.7-11.4c.1-1.8-1.8-3.3-4.2-3.5-2.5-.1-4.5 1.2-4.6 3l-1.2 19.3c0 1.6 1.9 3.2 4.3 3.3" class="st33"/></g><path class="st21 st22" d="M131.2 11c8.2 0 16.3 1.8 22.5 5.4l9.9 5.8 6.3 3.8c2.1 1.2 3.2 2.6 3.4 4.7h.2v19.6h-.3c-.2 1-.8 1.8-1.8 2.7-.9.8-1.6 1.5-2.3 2.3 1.9 2.5 4.6 4.9 8.2 6.9 7.7 4.4 17.7 6.7 27.8 6.7 7 0 14-1.1 20.2-3.2h.2c1.9-.7 4-1 6.1-1 3 0 6 .7 8.4 1.9.1 0 .1.3.2.3 0 0 0-.1.1-.1l8.9 5 7.1 4.1c6.8 3.9 10.1 9.2 9.1 14.3v15.7c1 5.1-2.4 10.4-9.1 14.3L223 139.5l-17.5 10.1-33.3 19.3c-6.2 3.6-14.3 5.4-22.5 5.4-8.1 0-16.3-1.8-22.4-5.4l-9.9-5.7-6.3-3.6c-.1 0-.1-.1-.2-.1-2.3-1.3-5.3-1.9-8.2-1.9-2.2 0-4.4.3-6.3 1-.1 0-.1.1-.2.1-6.3 2.2-13.4 3.3-20.4 3.3-10 0-19.9-2.2-27.5-6.6-7-4.1-10.8-9.3-11.4-14.5h-.5v-20.6h.5c.1-1 .3-2.2.6-3.3l-5.5-3.4-7.1-4c-5.8-3.4-8.9-7.9-9.2-12h.2V76.9h-.2c.3-4.1 3.3-8.7 9.2-12.1L58 45.7l17.5-10.1 33.3-19.3c6.2-3.6 14.3-5.3 22.4-5.3m0-4v4-4c-9.2 0-17.8 2.1-24.4 5.9L73.5 32.2 56.1 42.3 22.7 61.4c-6.8 3.9-10.8 9.5-11.2 15.3 0 .5 0 1 .2 1.5v18.2c-.1.5-.2 1-.2 1.5.4 5.8 4.5 11.3 11.2 15.2l7.1 4 2.8 1.7c-.2.5-.3 1-.3 1.5v20.6c0 1 .3 1.8.9 2.5 1.4 5.9 5.9 11.3 13 15.4 7.9 4.6 18.4 7.1 29.5 7.1 7.7 0 15.2-1.2 21.7-3.5h.1l.6-.3c1.4-.4 2.9-.7 4.5-.7 2.3 0 4.5.5 6.1 1.3.2.1.3.2.5.3l6.1 3.5 9.8 5.7c6.6 3.8 15.2 5.9 24.4 5.9s17.9-2.1 24.5-5.9l33.3-19.3 17.5-10.1 33.3-19.3c8.1-4.7 12.2-11.4 11.1-18.1V90.3c1.1-6.7-3-13.4-11.1-18.1l-7.1-4.1h-.1l-8.9-5c-.1-.1-.2-.1-.4-.2-2.9-1.6-6.5-2.4-10.2-2.4-2.5 0-5 .4-7.1 1.1-.1 0-.3.1-.5.1-5.7 2-12.2 3-18.9 3-9.8 0-19-2.2-25.8-6.1-1.8-1-3.4-2.2-4.7-3.4.7-.7 1.4-1.5 1.9-2.6.6-.7.9-1.6.9-2.6V30.5c0-.6-.2-1.2-.4-1.8-.9-3.8-4-5.6-5.1-6.3l-6.3-3.8-9.9-5.8C149.1 9.1 140.4 7 131.2 7z"/><path class="st23" d="M240 66.2h-.2c-4-2.2-10-2.4-14.5-.8-.1 0-.1.1-.2.1-15.1 5.3-34.9 4.1-47.9-3.4s-15-19-5.9-27.8c3-2.7 2.5-6.2-1.5-8.6l-6.3-3.6-9.9-5.7c-12.4-7.2-32.6-7.2-44.9 0L75.5 35.7 58 45.8 24.7 65.1c-12.4 7.2-12.4 18.9 0 26l7.1 4.1 9 5.2c4.1 2.4 4.6 6 1.6 8.7-9.1 8.7-7.1 20.2 5.9 27.8 13 7.5 32.9 8.7 48 3.4.1 0 .1-.1.2-.1 4.5-1.6 10.5-1.1 14.5 1 .1 0 .1.3.2.3l6.3 3.4 9.9 5.6c12.4 7.2 32.6 7.1 44.9-.1l33.3-19.3 17.5-10.1 33.3-19.3c12.4-7.2 12.4-18.9 0-26l-7.1-4.1-9-5.2c-.2-.1-.2-.2-.3-.2z"/><g class="st21"><path class="st22" d="M150.1 69l-38.3-1.9c-3.3-.2-6.1 1.7-6.2 4-.1 2.4 2.5 4.5 5.8 4.6l23.9 1.2-41.9 27.5c-2.4 1.6-2.5 4.3-.3 6.1 2.2 1.8 6 2 8.4.4l41.9-27.5-.8 17.4c-.1 2.4 2.5 4.5 5.7 4.6 1.6.1 3.2-.3 4.3-1.1 1.1-.7 1.8-1.8 1.9-3l1.4-27.8c.1-2.3-2.5-4.3-5.8-4.5"/><defs><filter id="Adobe_OpacityMaskFilter_10_" filterUnits="userSpaceOnUse" x="91.4" y="67.1" width="64.4" height="45"><feColorMatrix values="-1 0 0 0 1 0 -1 0 0 1 0 0 -1 0 1 0 0 0 1 0" color-interpolation-filters="sRGB" result="source"/></filter></defs><mask maskUnits="userSpaceOnUse" x="91.4" y="67.1" width="64.4" height="45" id="SVGID_11_"><image width="71" height="51" xlink:href="B157F6B0E5F7E757.jpg" transform="translate(88.565 64.316) scale(.9882)" overflow="visible" class="st35"/></mask><path class="st36 st22" d="M150.1 69l-38.3-1.9c-3.3-.2-6.1 1.7-6.2 4-.1 2.4 2.5 4.5 5.8 4.6l23.9 1.2-41.9 27.5c-2.4 1.6-2.5 4.3-.3 6.1 2.2 1.8 6 2 8.4.4l41.9-27.5-.8 17.4c-.1 2.4 2.5 4.5 5.7 4.6 1.6.1 3.2-.3 4.3-1.1 1.1-.7 1.8-1.8 1.9-3l1.4-27.8c.1-2.3-2.5-4.3-5.8-4.5"/></g><path class="st21 st22" d="M329.6 212.3c8.2 0 16.3 1.8 22.5 5.4l9.9 5.8 6.3 3.8c2.1 1.2 3.2 2.6 3.4 4.7h.2v19.6h-.3c-.2 1-.8 1.8-1.8 2.7-.9.8-1.6 1.5-2.3 2.3 1.9 2.5 4.6 4.9 8.2 6.9 7.7 4.4 17.7 6.7 27.8 6.7 7 0 14-1.1 20.2-3.2h.2c1.9-.7 4-1 6.1-1 3 0 6 .7 8.4 1.9.1 0 .1.3.2.3 0 0 0-.1.1-.1l8.9 5 7.1 4.1c6.8 3.9 10.1 9.2 9.1 14.3v15.7c1 5.1-2.4 10.4-9.1 14.3l-33.3 19.3-17.5 10.1-33.5 19.1c-6.2 3.6-14.3 5.4-22.5 5.4-8.1 0-16.3-1.8-22.4-5.4l-9.9-5.7-6.3-3.6c-.1 0-.1-.1-.2-.1-2.3-1.3-5.3-1.9-8.2-1.9-2.2 0-4.4.3-6.3 1-.1 0-.1.1-.2.1-6.3 2.2-13.4 3.3-20.4 3.3-10 0-19.9-2.2-27.5-6.6-7-4.1-10.8-9.3-11.4-14.5h-.5v-20.6h.5c.1-1 .3-2.2.6-3.3l-5.5-3.4-7.1-4c-5.8-3.4-8.9-7.9-9.2-12h.2v-20.6h-.2c.3-4.1 3.3-8.7 9.2-12.1l33.3-19.1 17.5-10.1 33.3-19.3c6.1-3.5 14.2-5.2 22.4-5.2m0-4c-9.2 0-17.8 2.1-24.4 5.9l-33.3 19.3-17.5 10.1-33.3 19.1c-6.8 3.9-10.8 9.5-11.2 15.3 0 .5 0 1 .2 1.5v18.2c-.1.5-.2 1-.2 1.5.4 5.8 4.5 11.3 11.2 15.2l7.1 4 2.8 1.7c-.2.5-.3 1-.3 1.5v20.6c0 1 .3 1.8.9 2.5 1.4 5.9 5.9 11.3 13 15.4 7.9 4.6 18.4 7.1 29.5 7.1 7.7 0 15.2-1.2 21.7-3.5l.6-.3c1.4-.4 2.9-.7 4.5-.7 2.3 0 4.5.5 6.1 1.3.2.1.3.2.5.3l6.1 3.5 9.8 5.7c6.6 3.8 15.2 5.9 24.4 5.9s17.9-2.1 24.5-5.9l33.3-19.3 17.5-10.1 33.3-19.3c8.1-4.7 12.2-11.4 11.1-18.1v-14.9c1.1-6.7-3-13.4-11.1-18.1l-7.1-4.1h-.1l-8.9-5c-.1-.1-.2-.1-.3-.2-2.9-1.6-6.5-2.4-10.2-2.4-2.5 0-5 .4-7.1 1.1-.1 0-.3.1-.5.1-5.7 2-12.2 3-18.9 3-9.8 0-19-2.2-25.8-6.1-1.8-1-3.4-2.2-4.7-3.4.7-.7 1.4-1.5 1.9-2.6.6-.7.9-1.6.9-2.6v-19.6c0-.6-.2-1.2-.4-1.8-.9-3.8-4-5.6-5.1-6.3l-6.3-3.8-9.9-5.8c-6.4-3.8-15.1-5.9-24.3-5.9z"/><path class="st23" d="M438.3 267.5h-.2c-4-2.2-10-2.4-14.5-.8-.1 0-.1.1-.2.1-15.1 5.3-34.9 4.1-47.9-3.4s-15-19-5.9-27.8c3-2.7 2.5-6.2-1.5-8.6l-6.3-3.6-9.9-5.7c-12.4-7.2-32.6-7.2-44.9 0L273.8 237l-17.5 10.1-33.3 19.3c-12.4 7.2-12.4 18.9 0 26l7.1 4.1 9 5.2c4.1 2.4 4.6 6 1.6 8.7-9.1 8.7-7.1 20.2 5.9 27.8 13 7.5 32.9 8.7 48 3.4.1 0 .1-.1.2-.1 4.5-1.6 10.5-1.1 14.5 1 .1 0 .1.3.2.3l6.3 3.4 9.9 5.6c12.4 7.2 32.6 7.1 44.9-.1l33.3-19.3 17.5-10.1 33.3-19.3c12.4-7.2 12.4-18.9 0-26l-7.1-4.1-9-5.2c-.2-.1-.2-.2-.3-.2z"/><g class="st21"><path class="st22" d="M294.2 311.4l40.2 2.1c3.5.2 6.4-1.5 6.5-3.8.1-2.3-2.6-4.3-6-4.5l-25.1-1.3 44-25.9c2.5-1.5 2.7-4.1.3-5.9-2.4-1.7-6.3-2-8.9-.5l-44 25.9.9-16.6c.1-2.3-2.6-4.3-6-4.5-1.7-.1-3.3.3-4.5 1-1.2.7-1.9 1.7-2 2.8l-1.4 26.6c-.1 2.4 2.6 4.4 6 4.6"/><defs><filter id="Adobe_OpacityMaskFilter_11_" filterUnits="userSpaceOnUse" x="288.2" y="270.6" width="67.6" height="42.9"><feColorMatrix values="-1 0 0 0 1 0 -1 0 0 1 0 0 -1 0 1 0 0 0 1 0" color-interpolation-filters="sRGB" result="source"/></filter></defs><mask maskUnits="userSpaceOnUse" x="288.2" y="270.6" width="67.6" height="42.9" id="SVGID_12_"><image width="72" height="48" xlink:href="B157F6B0E5F7E751.jpg" transform="translate(286 268)" overflow="visible" class="st37"/></mask><path d="M294.2 311.4l40.2 2.1c3.5.2 6.4-1.5 6.5-3.8.1-2.3-2.6-4.3-6-4.5l-25.1-1.3 44-25.9c2.5-1.5 2.7-4.1.3-5.9-2.4-1.7-6.3-2-8.9-.5l-44 25.9.9-16.6c.1-2.3-2.6-4.3-6-4.5-1.7-.1-3.3.3-4.5 1-1.2.7-1.9 1.7-2 2.8l-1.4 26.6c-.1 2.4 2.6 4.4 6 4.6" class="st38"/></g><path class="st21 st22" d="M1134.3 212.3c8.2 0 16.3 1.8 22.5 5.4l9.9 5.8 6.3 3.8c2.1 1.2 3.2 2.6 3.4 4.7h.2v19.6h-.3c-.2 1-.8 1.8-1.8 2.7-.9.8-1.6 1.5-2.3 2.3 1.9 2.5 4.6 4.9 8.2 6.9 7.7 4.4 17.7 6.7 27.8 6.7 7 0 14-1.1 20.2-3.2h.2c1.9-.7 4-1 6.1-1 3 0 6 .7 8.4 1.9.1 0 .1.3.2.3 0 0 0-.1.1-.1l8.9 5 7.1 4.1c6.8 3.9 10.1 9.2 9.1 14.3v15.7c1 5.1-2.4 10.4-9.1 14.3l-33.3 19.3-17.5 10.1-33.3 19.3c-6.2 3.6-14.3 5.4-22.5 5.4-8.1 0-16.3-1.8-22.4-5.4l-9.9-5.7-6.3-3.6c-.1 0-.1-.1-.2-.1-2.3-1.3-5.3-1.9-8.2-1.9-2.2 0-4.4.3-6.3 1-.1 0-.1.1-.2.1-6.3 2.2-13.4 3.3-20.4 3.3-10 0-19.9-2.2-27.5-6.6-7-4.1-10.8-9.3-11.4-14.5h-.5v-20.6h.5c.1-1 .3-2.2.6-3.3l-5.5-3.4-7.1-4c-5.8-3.4-8.9-7.9-9.2-12h.2v-20.6h-.2c.3-4.1 3.3-8.7 9.2-12.1l33.3-19.1 17.5-10.1 33.3-19.3c5.9-3.7 14.1-5.4 22.2-5.4m0-4c-9.2 0-17.8 2.1-24.4 5.9l-33.3 19.3-17.5 10.1-33.3 19.1c-6.8 3.9-10.8 9.5-11.2 15.3 0 .5 0 1 .2 1.5v18.2c-.1.5-.2 1-.2 1.5.4 5.8 4.5 11.3 11.2 15.2l7.1 4 2.8 1.7c-.2.5-.3 1-.3 1.5v20.6c0 1 .3 1.8.9 2.5 1.4 5.9 5.9 11.3 13 15.4 7.9 4.6 18.4 7.1 29.5 7.1 7.7 0 15.2-1.2 21.7-3.5h.1l.6-.3c1.4-.4 2.9-.7 4.5-.7 2.3 0 4.5.5 6.1 1.3.2.1.3.2.5.3l6.1 3.5 9.8 5.7c6.6 3.8 15.2 5.9 24.4 5.9s17.9-2.1 24.5-5.9l33.3-19.3 17.5-10.1 33.3-19.3c8.1-4.7 12.2-11.4 11.1-18.1v-14.9c1.1-6.7-3-13.4-11.1-18.1l-7.1-4.1h-.1l-8.9-5c-.1-.1-.2-.1-.4-.2-2.9-1.6-6.5-2.4-10.2-2.4-2.5 0-5 .4-7.1 1.1-.1 0-.3.1-.5.1-5.7 2-12.2 3-18.9 3-9.8 0-19-2.2-25.8-6.1-1.8-1-3.4-2.2-4.7-3.4.7-.7 1.4-1.5 1.9-2.6.6-.7.9-1.6.9-2.6v-19.6c0-.6-.2-1.2-.4-1.8-.9-3.8-4-5.6-5.1-6.3l-6.3-3.8-9.9-5.8c-6.4-3.8-15.1-5.9-24.3-5.9z"/><path class="st23" d="M1243.1 267.5h-.2c-4-2.2-10-2.4-14.5-.8-.1 0-.1.1-.2.1-15.1 5.3-34.9 4.1-47.9-3.4s-15-19-5.9-27.8c3-2.7 2.5-6.2-1.5-8.6l-6.3-3.6-9.9-5.7c-12.4-7.2-32.6-7.2-44.9 0l-33.3 19.3-17.5 10.1-33.3 19.3c-12.4 7.2-12.4 18.9 0 26l7.1 4.1 9 5.2c4.1 2.4 4.6 6 1.6 8.7-9.1 8.7-7.1 20.2 5.9 27.8 13 7.5 32.9 8.7 48 3.4.1 0 .1-.1.2-.1 4.5-1.6 10.5-1.1 14.5 1 .1 0 .1.3.2.3l6.3 3.4 9.9 5.6c12.4 7.2 32.6 7.1 44.9-.1l33.3-19.3 17.5-10.1 33.3-19.3c12.4-7.2 12.4-18.9 0-26l-7.1-4.1-9-5.2c-.2-.1-.2-.2-.2-.2z"/><g class="st21"><path class="st22" d="M1124.4 318.8c.2 1-.5 2.1-1.5 2.7-2 1.2-5.1 1.2-7-.1-1-.7-1.2-1.3-1.4-1.9l-1.8-11.7-16.8-1.4c-1.2-.1-2.1-.5-2.8-1-1.9-1.3-1.9-3.4.1-4.6 1.1-.7 2.7-1 4.1-.9l14.4 1.7-2.1-9.6c-.2-1 .4-2 1.5-2.7 2-1.2 5.1-1.2 7 .1.8.5 1.2 1.1 1.4 1.9l1.5 11.2 17.6 1.6c1 .1 1.9.3 2.8 1 1.9 1.3 1.9 3.4-.1 4.6-1 .6-2.6 1.1-4.1.9-4.8-.6-15.2-2-15.2-2s1.7 7 2.4 10.2"/><defs><filter id="Adobe_OpacityMaskFilter_12_" filterUnits="userSpaceOnUse" x="1091.8" y="288.5" width="51.1" height="34"><feColorMatrix values="-1 0 0 0 1 0 -1 0 0 1 0 0 -1 0 1 0 0 0 1 0" color-interpolation-filters="sRGB" result="source"/></filter></defs><mask maskUnits="userSpaceOnUse" x="1091.8" y="288.5" width="51.1" height="34" id="SVGID_13_"><image width="56" height="39" xlink:href="B157F6B0E5F7E753.jpg" transform="translate(1089 286)" overflow="visible" class="st39"/></mask><path d="M1124.4 318.8c.2 1-.5 2.1-1.5 2.7-2 1.2-5.1 1.2-7-.1-1-.7-1.2-1.3-1.4-1.9l-1.8-11.7-16.8-1.4c-1.2-.1-2.1-.5-2.8-1-1.9-1.3-1.9-3.4.1-4.6 1.1-.7 2.7-1 4.1-.9l14.4 1.7-2.1-9.6c-.2-1 .4-2 1.5-2.7 2-1.2 5.1-1.2 7 .1.8.5 1.2 1.1 1.4 1.9l1.5 11.2 17.6 1.6c1 .1 1.9.3 2.8 1 1.9 1.3 1.9 3.4-.1 4.6-1 .6-2.6 1.1-4.1.9-4.8-.6-15.2-2-15.2-2s1.7 7 2.4 10.2" class="st40"/></g><g class="st21"><path class="st22" d="M1122.7 279.9c-1.8 1.2-4.8 1.1-6.6-.1-1.8-1.2-1.8-3.2.1-4.4l20.9-13.3c1.8-1.2 4.8-1.1 6.6.1.7.5 1.3 1.1 1.3 2l1 13.3c10.2-5.2 19.3-2.7 26 2 8.7 6 8.4 12.9-2.3 19.7-6.8 4.3-15.3 5.5-22 4.7-1-.1-1.8-.5-2.5-.9-1.8-1.3-1.8-3.3.1-4.5 1.2-.7 2.5-1 4.8-.9 4.7.3 9 0 13.3-2.7 5.9-3.7 5.7-7.5 1.2-10.6-4.5-3.1-9.5-4.1-15.4-.3l-4 2.6c-2 1.3-5 1.2-6.8 0-1-.7-1.3-1.3-1.4-2.1l-1.1-12.9-13.2 8.3z"/><defs><filter id="Adobe_OpacityMaskFilter_13_" filterUnits="userSpaceOnUse" x="1114.8" y="261.3" width="63.3" height="42.9"><feColorMatrix values="-1 0 0 0 1 0 -1 0 0 1 0 0 -1 0 1 0 0 0 1 0" color-interpolation-filters="sRGB" result="source"/></filter></defs><mask maskUnits="userSpaceOnUse" x="1114.8" y="261.3" width="63.3" height="42.9" id="SVGID_14_"><image width="69" height="48" xlink:href="B157F6B0E5F7E74E.jpg" transform="translate(1112 259)" overflow="visible" class="st41"/></mask><path d="M1122.7 279.9c-1.8 1.2-4.8 1.1-6.6-.1-1.8-1.2-1.8-3.2.1-4.4l20.9-13.3c1.8-1.2 4.8-1.1 6.6.1.7.5 1.3 1.1 1.3 2l1 13.3c10.2-5.2 19.3-2.7 26 2 8.7 6 8.4 12.9-2.3 19.7-6.8 4.3-15.3 5.5-22 4.7-1-.1-1.8-.5-2.5-.9-1.8-1.3-1.8-3.3.1-4.5 1.2-.7 2.5-1 4.8-.9 4.7.3 9 0 13.3-2.7 5.9-3.7 5.7-7.5 1.2-10.6-4.5-3.1-9.5-4.1-15.4-.3l-4 2.6c-2 1.3-5 1.2-6.8 0-1-.7-1.3-1.3-1.4-2.1l-1.1-12.9-13.2 8.3z" class="st42"/></g></g></svg>