<svg width="51" height="41" viewBox="0 0 51 41" xmlns="http://www.w3.org/2000/svg"><title>Group</title><g transform="translate(-2 -2)" fill="none" fill-rule="evenodd"><path d="M39.487 30.618c3.931-8.83-.04-19.174-8.87-23.105-8.829-3.931-19.173.04-23.104 8.87-3.931 8.829.04 19.173 8.87 23.104" stroke="#FFF" stroke-width="7"/><path d="M37.084 37.524c1 .277 2.107.169 3.077-.391l10.626-6.135a4.008 4.008 0 0 0 1.471-5.468 4.007 4.007 0 0 0-5.47-1.46l-7.467 4.31-4.498-7.198a4 4 0 1 0-6.785 4.24l6.433 10.294c.61.977 1.57 1.6 2.613 1.808z" fill="#FFF"/><circle fill="#FFF" cx="16.5" cy="39.5" r="3.5"/></g></svg>