<svg id="Capa_1" xmlns="http://www.w3.org/2000/svg" viewBox="0 0 55 55"><style>.st0{fill:#fff}</style><path class="st0" d="M27.3 10.1c1.8 0 3.6 0 5.5.1 1.3 0 2.9.5 3.2 1.8.8 3.1 2.7 3.7 5.3 3.7h1.2c3.3 0 5.1 2.1 5.1 5.3.2 6.1.2 12.3 0 18.4-.1 3.8-2.6 5.5-6.3 5.5h-27c-5-.1-6.7-1.8-6.8-6.7-.1-5.3-.1-10.6 0-15.8 0-5.1 1.5-6.7 6.6-6.7 2.2 0 3.8-.3 4.5-2.8.4-1.7 1.8-2.6 3.5-2.6 1.7-.2 3.4-.2 5.2-.2m0-5.9c-1.9 0-3.7 0-5.4.1-3.8.1-7 2.2-8.5 5.4C5.5 9.9 1.6 14 1.5 22.3c-.1 5.9 0 11.1 0 16 .1 8 4.4 12.4 12.6 12.5h27.1c7.2 0 11.9-4.4 12.1-11.2.2-6 .2-12.3 0-18.7-.2-6.5-4.7-11.1-11-11.1h-1c-1.2-3.3-4.5-5.4-8.5-5.4-1.9-.2-3.7-.2-5.5-.2z"/><path class="st0" d="M27.4 41.4c-7 0-12.5-5.7-12.5-12.5 0-6.9 5.5-12.3 12.5-12.3 3.4 0 6.6 1.3 8.9 3.6 2.3 2.3 3.6 5.5 3.6 8.8 0 6.8-5.6 12.4-12.5 12.4zm.1-18.9c-3.7 0-6.6 2.8-6.7 6.5 0 3.6 2.9 6.6 6.6 6.6v2.9-2.9c3.7 0 6.6-2.9 6.6-6.5 0-1.8-.6-3.4-1.9-4.6-1.2-1.4-2.8-2-4.6-2z"/></svg>