<svg width="348" height="135" viewBox="0 0 348 135" xmlns="http://www.w3.org/2000/svg" xmlns:xlink="http://www.w3.org/1999/xlink"><title>Group</title><defs><filter x="-50%" y="-50%" width="200%" height="200%" filterUnits="objectBoundingBox" id="a"><feOffset dy="3" in="SourceAlpha" result="shadowOffsetOuter1"/><feGaussianBlur stdDeviation="2" in="shadowOffsetOuter1" result="shadowBlurOuter1"/><feColorMatrix values="0 0 0 0 0 0 0 0 0 0 0 0 0 0 0 0 0 0 0.35 0" in="shadowBlurOuter1" result="shadowMatrixOuter1"/><feMerge><feMergeNode in="shadowMatrixOuter1"/><feMergeNode in="SourceGraphic"/></feMerge></filter><path id="b" d="M127.152.847H0V128h127.152V.847z"/></defs><g fill="none" fill-rule="evenodd"><g filter="url(#a)" transform="translate(4 .153)"><path d="M329.66 18.26H106.512C95.27 8.26 80.168 1.417 63.576 1.417 28.932 1.417.746 29.69.746 64.334c0 34.644 28.186 62.889 62.83 62.889 16.593 0 31.695-5.963 42.938-16.963H329.66c5.384 0 9.926-4.746 9.926-10.128V28.04c0-5.383-4.542-9.781-9.926-9.781" fill="#FFF"/><path d="M336.586 97.26c0 5.523-4.477 10-10 10h-256c-5.523 0-10-4.477-10-10v-67c0-5.523 4.477-10 10-10h256c5.523 0 10 4.477 10 10v67z" fill="#0098EC"/><path d="M63.576 126.5C29.347 126.5 1.5 98.652 1.5 64.423S29.347 2.347 63.576 2.347c34.23 0 62.076 27.847 62.076 62.076S97.805 126.5 63.576 126.5" fill="#0098EC"/><mask id="c" fill="#fff"><use xlink:href="#b"/></mask><path d="M63.576.847C28.52.847 0 29.367 0 64.423 0 99.48 28.52 128 63.576 128s63.576-28.52 63.576-63.577c0-35.056-28.52-63.576-63.576-63.576m0 3c33.455 0 60.576 27.12 60.576 60.576S97.032 125 63.576 125 3 97.879 3 64.423 30.12 3.847 63.576 3.847" fill="#FFF" mask="url(#c)"/><path d="M92.033 71.11l-.027.003c.01 0 .016-.003.027-.003m.1-.017v.002l-.08.011a.758.758 0 0 0 .08-.013m7.076 2.88c-.71-1.89-2.416-2.714-4.799-2.714h-.01c2.38 0 4.09.835 4.8 2.726.302.81.43 1.591.393 2.522.032-.914-.096-1.865-.394-2.663-.71-1.887-2.789-2.956-5.17-2.958-.758.002-1.443.076-2.443.205v-.002c1-.139 2.053.17 2.814.17h-.005c-.753 0-1.268-.06-2.227.078.634-7.434-4.967-11.544-5.22-11.722.253.178 5.823 4.102 5.185 11.536-.028.005-.053-.02-.08-.02.643-7.442-4.936-11.45-5.19-11.629-.434-.307-9.277-7.882-23.277-7.882v.64h-1.198c-12.042 0-22.232 1.521-22.336 1.538l-.464-.046-.252.331c-.243.385-5.606 8.942-4.89 16.825-.625-.104-1.38-.205-2.17-.205-3.54 0-4.912 1.666-5.438 3.07-.802 2.135-.369 4.967 1.075 7.054 1.151 1.66 2.75 2.614 4.526 2.714.315.916 1.61 3.75 5.314 6.87 3.88 3.265 11.302 6.848 24.635 6.848h1.27c13.331 0 20.754-3.584 24.634-6.853 3.562-3.002 4.895-5.872 5.275-6.915 1.78-.096 3.386-.978 4.544-2.65.74-1.066 1.213-2.175 1.398-3.426.192-1.25.102-2.367-.3-3.443" fill="#FFE1CF"/><path d="M84.033 72.287a6.707 6.707 0 0 0-6.708-6.708 6.708 6.708 0 1 0 0 13.416 6.708 6.708 0 0 0 6.708-6.708M56.203 72.43a6.708 6.708 0 1 0-13.416-.002 6.708 6.708 0 0 0 13.416.002" fill="#FFADA1"/><path d="M39.392 66.91s6.335-7.518 6.024-10.127c0 0 11.122 6.027 21.643 5.84 0 0 .412-.765-1.225-2.235-1.843-1.659-3.46-5.592-3.17-6.877 0 0 2.686 1.97 8.45 5.716 1.232.802 10.642 6.222 13.626 5.176 0 0 0-.62-1.203-2.69-1.201-2.07-.785-1.943-.785-1.943s4.28 1.67 6.79 6.124l2.735-.745-8.325-7.66s-13.13-11.707-41.27-5.555l-3.29 14.976z" fill="#FFADA1"/><path d="M84.166 71.72a6.765 6.765 0 1 1-13.53 0 6.765 6.765 0 1 1 13.53 0M56.336 72.162a6.767 6.767 0 1 1-13.533.003 6.767 6.767 0 0 1 13.533-.003M56.212 83.537s7.903 3.107 15.604 0l.25-1.863s-9.884 2.07-15.73 0l-.124 1.863z" fill="#FFF"/><path d="M56.586 82.316s6 2.463 16 .02v-.704s-8 1.822-16 .041v.642z" fill="#E7E7E7"/><path d="M56.41 83.83l.581 4.221 1.283 2.195 2.693 1.16 3.601.495 4.807-1.076 1.572-1.987.953-4.432.165-.99s-6.17 2.736-15.655.413" fill="#F00"/><path d="M57.213 88.433s6.559-3.99 13.873-.24c0 0-.128 2.278-2.764 2.869-2.635.59-5.574 1.712-10.047-.816l-1.062-1.813z" fill="#B40000"/><path d="M57.213 88.433s6.559-3.99 13.873-.24c0 0-.128 2.278-2.764 2.869-2.635.59-5.574 1.712-10.047-.816l-1.062-1.813z" stroke="#780000" stroke-width="2"/><path d="M34.887 81.942l-.715 3.322-1.521-2.36 2.236-.962zM91.043 81.974l.714 3.323 1.522-2.36-2.236-.963zM91.789 74.549s5.71-.868 4.783 4.32c0 0 2.112-4.474-1.554-4.785-3.165-.268-3.229.465-3.229.465M34.56 74.549s-5.71-.868-4.784 4.32c0 0-2.11-4.474 1.555-4.785 3.168-.268 3.23.465 3.23.465" fill="#FFADA1"/><path d="M93.278 82.622c-.67 0-1.39-.152-2.145-.492l1.527.6s-3.817 13.53-29.002 13.53h-1.27c-25.185 0-29.002-13.523-29.002-13.523l1.527-.862c-.765.344-1.488.57-2.164.57-3.879 0-6.138-5.03-4.91-8.304.715-1.905 2.658-2.366 4.436-2.366 1.812 0 3.451.508 3.451.508-1.633-7.943 4.514-17.45 4.514-17.45s10.061-1.573 22.148-1.573h1.346c12.088 0 22.634 7.356 22.634 7.356s6.153 4.178 4.522 12.124c0 0 1.717-.719 3.53-.719 1.537.002 3.13.453 3.79 2.216 1.23 3.276-1.038 8.385-4.932 8.385m5.931-8.802c-.71-1.89-2.416-2.926-4.799-2.928-.805 0-1.59.121-2.244.26.65-7.452-5.009-11.448-5.266-11.626-.43-.307-9.314-7.759-23.314-7.759v.493h-1.198c-12.042 0-22.232 1.543-22.336 1.558l-.464-.038-.252.338c-.243.385-5.606 8.942-4.89 16.827-.625-.103-1.38-.205-2.17-.205-3.54 0-4.912 1.666-5.438 3.072-.802 2.133-.369 4.967 1.075 7.053 1.151 1.66 2.75 2.615 4.526 2.717.315.916 1.61 3.73 5.314 6.847 3.88 3.266 11.302 6.831 24.635 6.831h1.27c13.331 0 20.754-3.565 24.634-6.834 3.562-3.004 4.895-5.865 5.275-6.908 1.78-.093 3.386-.969 4.544-2.643 1.462-2.109 1.901-4.902 1.098-7.055" fill="#4E2223"/><path d="M104.162 55.545c-.03-.143-3.162-14.139-20.207-20.512a.031.031 0 0 1-.01-.002c-7.619-3.388-16.904-4.913-21.068-4.913a.275.275 0 0 0-.153.048c-4.006.167-11.937 1.229-19.427 4.428-9.559 4.085-15.149 10.287-16.168 17.941-1.775 13.303.983 20.377 1.01 20.447a.268.268 0 0 0 .416.11c.008-.007.883-.68 3.043-.68 1.045 0 2.227.157 3.508.466a.271.271 0 0 0 .276-.098c.393-.508 9.361-12.158 9.472-17.643 1.736 1.117 8.566 5.006 21.601 6.52a.233.233 0 0 0 .036.004c.151-.007.273-.113.273-.262a.25.25 0 0 0-.123-.215c-.429-.464-4.387-4.779-3.374-7.138.05-.115.14-.2.434-.2 1.046 0 3.357 1.385 6.034 3.068 4.493 2.829 10.09 6.346 14.57 6.346h.01a.266.266 0 0 0 .268-.266c0-.087-.042-.23-.106-.281-.272-.348-2.034-2.673-1.316-4.185 1.38.927 8.52 6.144 7.446 14.052a.282.282 0 0 0 .085.244.273.273 0 0 0 .243.065c.018-.004 1.83-.455 3.655-.455 1.21 0 2.787.208 3.414 1.193a.268.268 0 0 0 .258.122.266.266 0 0 0 .22-.177l.21-.623c.014-.058 1.42-5.695 1.33-14.097.521.845.995 1.707 1.416 2.566a.268.268 0 1 0 .509-.105c.008-.183.168-4.482-2.218-8.196a.485.485 0 0 0-.008-.055c1.064.356 2.908 1.161 3.96 2.688a.261.261 0 0 0 .323.094.267.267 0 0 0 .158-.299" fill="#4E2223"/><path d="M77.4 66.143a5.98 5.98 0 0 0-5.973 5.974A5.978 5.978 0 0 0 77.4 78.09a5.98 5.98 0 0 0 5.974-5.973 5.98 5.98 0 0 0-5.974-5.974m0 12.738a6.771 6.771 0 0 1-6.764-6.764c0-3.731 3.034-6.767 6.764-6.767a6.776 6.776 0 0 1 6.767 6.767c0 3.73-3.037 6.764-6.767 6.764" fill="#4E2223"/><path d="M73.827 72.116A3.574 3.574 0 1 1 77.4 75.69a3.572 3.572 0 0 1-3.572-3.573" fill="#4E2223"/><path d="M76.39 69.534a1.34 1.34 0 1 0 2.682 0 1.34 1.34 0 0 0-2.681 0" fill="#FFF"/><path d="M49.448 66.142a5.982 5.982 0 0 0-5.975 5.975 5.98 5.98 0 0 0 5.975 5.973 5.979 5.979 0 0 0 5.971-5.973 5.98 5.98 0 0 0-5.97-5.975m0 12.739c-3.732 0-6.767-3.035-6.767-6.764a6.774 6.774 0 0 1 6.766-6.767c3.73 0 6.764 3.035 6.764 6.767a6.773 6.773 0 0 1-6.764 6.764" fill="#4E2223"/><path d="M53.021 72.116a3.573 3.573 0 1 0-7.146 0 3.573 3.573 0 1 0 7.146 0" fill="#4E2223"/><path d="M50.459 69.534a1.342 1.342 0 1 1-2.684-.002 1.342 1.342 0 0 1 2.684.002" fill="#FFF"/><path d="M58.525 89.838c.217.16 2.245 1.59 5.353 1.59l.661.023c3.101 0 5.127-1.406 5.35-1.567 1.616-1.701 1.8-6.093 1.818-7.595-2.45.492-4.99.97-7.564.97h-.002c-3.656 0-6.366-.724-7.434-.956.016 1.506.208 5.844 1.818 7.535m6.008 2.422H63.587v-.278c-3 0-5.618-1.584-5.71-1.656-.01-.011.044.037.031.026-2.184-2.247-2.033-8.547-2.029-8.816.003-.122.08-.22.175-.292.098-.074.383.533.5.565.032.009 2.942 1.45 7.894 1.45h-.003c2.122 0 5.186-.9 7.725-1.448.115-.024.16-.307.251-.235.092.074.11.028.113.147.007.27.101 6.566-2.082 8.812-.012.014-.036-.006-.05.006-.092.072-2.307 1.719-5.869 1.719" fill="#4E2223"/><path d="M56.586 83.314c0 .313 3.7 1.946 7.498 1.946h-.053c2.576 0 5.134-.856 7.66-1.717l.016-1.269c-1.19.233-4.442.681-8.136.681-2.542 0-3.985-.257-6.985-.763v1.123zm7.393 1.946h-.002c-4.7 0-7.71-1.409-7.836-1.469a.416.416 0 0 1-.23-.37l.003-1.84c0-.124.059-.243.155-.318a.406.406 0 0 1 .345-.069c2.104.573 4.527.864 7.21.864 4.579 0 8.35-.86 8.387-.869a.408.408 0 0 1 .34.079.39.39 0 0 1 .145.314l-.045 1.838c-.005.165-.11.334-.265.388-2.694.947-5.455 1.451-8.207 1.451zM96.488 79.097a.267.267 0 0 1-.24-.383c.816-1.683.94-2.893.363-3.598-1.145-1.403-4.699-.513-4.733-.503a.27.27 0 0 1-.327-.193.273.273 0 0 1 .193-.327c.16-.038 3.918-.981 5.28.685.721.879.62 2.28-.295 4.169a.266.266 0 0 1-.24.15M30.01 79.097a.266.266 0 0 1-.24-.15c-.912-1.888-1.012-3.29-.295-4.17 1.362-1.664 5.12-.722 5.28-.684a.268.268 0 1 1-.133.52c-.036-.01-3.587-.9-4.732.503-.576.705-.453 1.915.362 3.598a.27.27 0 0 1-.123.357.285.285 0 0 1-.118.026M66.968 78.613l.005-.006c-1.717-2.14-4.783-1.659-6.23.045a.34.34 0 0 0-.103.243c0 .187.153.398.343.398.089 0 .168-.034.229-.034h.002c1.73-2 3.459-1.848 5.209-.102l.016-.015c.01.011.018.004.028.013 0-.002.002-.009.005-.01a.365.365 0 0 0 .218.073.37.37 0 0 0 .369-.37.353.353 0 0 0-.091-.235" fill="#4E2223"/></g><text font-family="Montserrat-Bold, Montserrat" font-size="31.599" font-weight="bold" fill="#FFF" transform="translate(4)"><tspan x="147.617" y="76.191">KID </tspan> <tspan x="213.059" y="76.191" letter-spacing="-.253">S</tspan> <tspan x="232.714" y="76.191">AM</tspan></text></g></svg>