<svg width="186" height="196" viewBox="0 0 186 196" xmlns="http://www.w3.org/2000/svg" xmlns:xlink="http://www.w3.org/1999/xlink"><title>Group 3</title><defs><filter x="-50%" y="-50%" width="200%" height="200%" filterUnits="objectBoundingBox" id="a"><feOffset dy="2" in="SourceAlpha" result="shadowOffsetOuter1"/><feGaussianBlur stdDeviation="2" in="shadowOffsetOuter1" result="shadowBlurOuter1"/><feColorMatrix values="0 0 0 0 0 0 0 0 0 0 0 0 0 0 0 0 0 0 0.35 0" in="shadowBlurOuter1" result="shadowMatrixOuter1"/><feMerge><feMergeNode in="shadowMatrixOuter1"/><feMergeNode in="SourceGraphic"/></feMerge></filter><path id="b" d="M178 .077H0v188.036h178V.077v188.036H0V.077h178z"/></defs><g fill="none" fill-rule="evenodd"><path d="M14.17 187.148c-5.91 0-12.399-6.501-12.399-12.422V133.02c0-5.825 6.237-8.873 12.398-8.873h20.677C23.832 110.484 17.808 93.744 17.808 76.6c0-40.769 32.805-73.937 73.128-73.937 40.322 0 73.127 33.068 73.127 73.715 0 17.28-6.025 34.098-17.04 47.771h20.35c5.877 0 8.856 2.985 8.856 8.873v41.705c0 6.173-3.042 12.422-8.856 12.422H14.17z" stroke="#FFF" stroke-width="5" fill="#0098EC" filter="url(#a)" transform="translate(4 1)"/><g transform="translate(4 1.81)"><mask id="c" fill="#fff"><use xlink:href="#b"/></mask><path d="M90.935.077c-19.975 0-38.789 7.93-52.977 22.33-14.136 14.345-21.92 33.304-21.92 53.382 0 16.36 5.353 32.357 15.205 45.774H14.17c-3.269 0-6.428.772-8.895 2.173C1.873 125.67 0 128.68 0 132.211v41.704c0 6.9 7.283 14.198 14.169 14.198h153.204c3.526 0 6.53-1.877 8.458-5.285 1.399-2.472 2.169-5.637 2.169-8.913v-41.704c0-6.866-3.774-10.648-10.627-10.648h-16.75c9.855-13.435 15.21-29.51 15.21-45.996 0-41.625-33.599-75.49-74.898-75.49m0 3.55c39.408 0 71.356 32.452 71.356 71.94 0 18.8-7.252 36.236-19.093 49.546h24.175c4.892 0 7.084 2.197 7.084 7.098v41.704c0 4.902-2.192 10.648-7.084 10.648H14.169c-4.891 0-10.627-5.746-10.627-10.648v-41.704c0-4.9 5.736-7.098 10.627-7.098H38.67C26.83 111.803 19.58 94.59 19.58 75.789c0-39.488 31.946-72.163 71.355-72.163" fill="#FFF" mask="url(#c)"/></g><text font-family="Montserrat-Bold, Montserrat" font-size="27.983" font-weight="bold" fill="#FFF" transform="translate(4 1)"><tspan x="28.387" y="163.374">KID </tspan> <tspan x="86.34" y="163.374" letter-spacing="-.253">S</tspan> <tspan x="103.717" y="163.374">AM</tspan></text><path d="M125.535 84.383c-.013.001-.02.004-.032.004.012 0 .019-.004.032-.004m.118-.02v.004l-.095.01c.031-.003.063-.007.095-.013m8.334 3.283c-.837-2.23-2.845-3.316-5.652-3.316h-.011c2.803 0 4.817 1.1 5.653 3.33.356.956.506 1.935.464 3.036.038-1.08-.113-2.173-.464-3.115-.836-2.228-3.571-3.475-6.376-3.477-.892.002-1.392.103-3.163.256v-.002c1.771-.165 2.99-.028 3.886-.028h-.01c-.883 0-1.49.042-2.62.205.747-8.773-5.85-13.568-6.15-13.778.3.21 6.86 4.87 6.11 13.646-.033.004-.065-.012-.096-.01.758-8.784-5.99-13.507-6.29-13.719-.51-.362-10.77-9.297-27.596-9.297v.77h-1.057c-14.185 0-26.189 1.789-26.31 1.81l-.548-.06-.297.39c-.285.454-6.603 10.554-5.76 19.857-.735-.121-1.625-.242-2.556-.242-4.17 0-5.787 1.966-6.406 3.623-.944 2.52-.433 5.862 1.267 8.326 1.356 1.96 3.238 3.085 5.332 3.203.37 1.08 1.896 4.497 6.26 8.179 4.57 3.854 13.313 8.153 29.018 8.153h1.496c15.703 0 24.446-4.3 29.017-8.16 4.197-3.542 5.768-6.965 6.215-8.196 2.097-.112 3.987-1.171 5.352-3.144.87-1.26 1.429-2.634 1.647-4.11.227-1.476.12-2.861-.355-4.13" fill="#FFE1CF"/><path d="M116.013 85.771c0-4.374-3.539-7.916-7.903-7.916-4.366 0-7.903 3.542-7.903 7.916 0 4.373 3.537 7.919 7.903 7.919 4.364 0 7.903-3.546 7.903-7.919M83.23 85.94c0-4.374-3.538-7.919-7.904-7.919-4.362 0-7.9 3.545-7.9 7.92 0 4.371 3.538 7.917 7.9 7.917 4.366 0 7.903-3.546 7.903-7.918" fill="#FFADA1"/><path d="M63.525 79.426s7.464-8.872 7.097-11.953c0 0 13.1 7.114 25.495 6.892 0 0 .484-.902-1.443-2.638-2.172-1.957-4.075-6.6-3.733-8.116 0 0 3.162 2.324 9.951 6.746 1.452.947 12.537 7.345 16.051 6.11 0 0 0-.732-1.416-3.175-1.415-2.444-.925-2.293-.925-2.293s5.041 1.97 8 7.228l3.22-.88-9.808-9.04s-15.466-13.818-48.61-6.557l-3.879 17.676z" fill="#FFADA1"/><path d="M116.269 85.103c0 4.409-3.57 7.984-7.972 7.984-4.4 0-7.967-3.575-7.967-7.984 0-4.411 3.567-7.986 7.967-7.986 4.402 0 7.972 3.575 7.972 7.986M83.485 85.624c0 4.413-3.568 7.988-7.968 7.988-4.402 0-7.97-3.575-7.97-7.988 0-4.407 3.568-7.982 7.97-7.982 4.4 0 7.968 3.575 7.968 7.982M83.34 99.05s9.31 3.667 18.38 0l.295-2.2s-11.644 2.444-18.53 0l-.145 2.2z" fill="#FFF"/><path d="M83.701 97.608s7.085 2.908 18.598.024v-.83s-9.742 2.15-18.598.048v.758z" fill="#E7E7E7"/><path d="M83.574 99.395l.683 4.982 1.513 2.591 3.171 1.369 4.243.585 5.66-1.27 1.853-2.346 1.123-5.23.195-1.169s-7.268 3.23-18.441.488" fill="#F00"/><path d="M84.519 104.828s7.726-4.71 16.341-.282c0 0-.15 2.688-3.256 3.385-3.104.697-6.566 2.02-11.835-.963l-1.25-2.14z" fill="#B40000"/><path d="M84.519 104.828s7.726-4.71 16.341-.282c0 0-.15 2.688-3.256 3.385-3.104.697-6.566 2.02-11.835-.963l-1.25-2.14z" stroke="#780000" stroke-width="2"/><path d="M58.22 97.168l-.842 3.921-1.794-2.786 2.636-1.135zM124.268 97.204l.84 3.923 1.795-2.784-2.635-1.139zM125.247 88.442s6.727-1.025 5.635 5.099c0 0 2.489-5.282-1.831-5.648-3.728-.318-3.804.549-3.804.549M57.835 88.442s-6.726-1.025-5.635 5.099c0 0-2.486-5.282 1.831-5.648 3.731-.318 3.804.549 3.804.549" fill="#FFADA1"/><path d="M127.002 97.97c-.79 0-1.637-.18-2.527-.58l1.799.926S121.779 114.5 92.111 114.5h-1.496c-29.667 0-34.162-16.178-34.162-16.178l1.797-1.125c-.9.405-1.751.617-2.55.617-4.568 0-7.23-5.963-5.784-9.827.844-2.247 3.133-2.805 5.228-2.805 2.134 0 4.064.593 4.064.593-1.924-9.376 5.317-20.74 5.317-20.74s11.853-2 26.09-2H92.2c14.238 0 26.662 8.822 26.662 8.822s7.247 5.001 5.326 14.38c0 0 2.022-.813 4.158-.813 1.811.002 3.688.55 4.464 2.632 1.448 3.866-1.223 9.914-5.809 9.914m6.985-10.388c-.837-2.232-2.845-3.454-5.652-3.456-.948 0-1.873.142-2.643.306.767-8.796-6.077-13.51-6.38-13.721-.508-.364-10.814-9.157-27.64-9.157v.594h-1.057c-14.184 0-26.188 1.815-26.31 1.832l-.548-.047-.297.396c-.285.455-6.602 10.554-5.76 19.86-.735-.122-1.624-.243-2.556-.243-4.17 0-5.786 1.967-6.405 3.626-.944 2.518-.434 5.863 1.266 8.325 1.356 1.958 3.238 3.087 5.332 3.207.37 1.08 1.896 4.47 6.26 8.15 4.57 3.856 13.313 8.134 29.018 8.134h1.496c15.703 0 24.447-4.278 29.017-8.137 4.198-3.545 5.768-6.957 6.215-8.187 2.097-.111 3.988-1.163 5.352-3.139 1.722-2.489 2.24-5.804 1.292-8.343" fill="#4E2223"/><path d="M139.823 66.011c-.037-.168-3.726-16.688-23.803-24.209l-.013-.005C107.034 37.8 96.096 36 91.191 36a.32.32 0 0 0-.18.056c-4.72.198-14.062 1.452-22.885 5.226-11.26 4.821-17.844 12.141-19.045 21.176-2.09 15.7 1.16 24.051 1.19 24.134a.318.318 0 0 0 .492.128c.008-.007 1.038-.802 3.582-.802 1.232 0 2.625.186 4.134.551.12.03.248-.018.324-.116.463-.6 11.027-14.35 11.158-20.825 2.045 1.319 10.09 5.909 25.445 7.697.013.002.03.004.042.004.178-.008.321-.134.321-.31 0-.11-.057-.199-.145-.253-.505-.548-5.167-5.64-3.973-8.425.057-.135.163-.236.51-.236 1.232 0 3.955 1.806 7.109 3.793 5.293 3.338 11.884 7.659 17.161 7.659h.01c.177 0 .319-.308.319-.483 0-.104-.05-.358-.125-.418-.321-.41-2.397-3.198-1.551-4.981 1.625 1.093 10.035 7.229 8.772 16.563a.307.307 0 0 0 .1.277.318.318 0 0 0 .286.071c.021-.005 2.156-.54 4.306-.54 1.425 0 3.283.245 4.021 1.409.057.09.157.146.264.146.012 0 .026-.003.039-.004a.315.315 0 0 0 .26-.21l.248-.735c.015-.07 1.67-6.722 1.565-16.64a36.127 36.127 0 0 1 1.67 3.03c.061.13.207.201.348.171a.317.317 0 0 0 .251-.294c.009-.216.197-5.29-2.612-9.674a.38.38 0 0 0-.011-.065c1.254.42 3.426 1.37 4.664 3.172a.315.315 0 0 0 .568-.242" fill="#4E2223"/><path d="M108.297 78.52c-3.88 0-7.034 3.163-7.034 7.05 0 3.888 3.154 7.05 7.034 7.05 3.881 0 7.037-3.162 7.037-7.05 0-3.887-3.156-7.05-7.037-7.05m0 15.034c-4.393 0-7.967-3.581-7.967-7.984 0-4.404 3.574-7.987 7.967-7.987 4.395 0 7.972 3.583 7.972 7.987 0 4.403-3.577 7.984-7.972 7.984" fill="#4E2223"/><path d="M104.09 85.57a4.213 4.213 0 0 1 4.207-4.22c2.328 0 4.21 1.889 4.21 4.22a4.213 4.213 0 0 1-4.21 4.218 4.212 4.212 0 0 1-4.207-4.218" fill="#4E2223"/><path d="M107.109 82.523a1.58 1.58 0 1 0 0 0" fill="#FFF"/><path d="M75.372 78.519c-3.881 0-7.037 3.164-7.037 7.051s3.156 7.05 7.037 7.05c3.88 0 7.034-3.163 7.034-7.05s-3.155-7.051-7.034-7.051m0 15.035c-4.396 0-7.969-3.582-7.969-7.984 0-4.404 3.573-7.987 7.97-7.987 4.392 0 7.967 3.583 7.967 7.987 0 4.402-3.575 7.984-7.968 7.984" fill="#4E2223"/><path d="M79.582 85.57a4.215 4.215 0 0 0-4.21-4.22 4.213 4.213 0 0 0-4.209 4.22 4.212 4.212 0 0 0 4.21 4.218 4.213 4.213 0 0 0 4.209-4.218" fill="#4E2223"/><path d="M76.563 82.523a1.581 1.581 0 0 1-3.161 0 1.581 1.581 0 1 1 3.161 0" fill="#FFF"/><path d="M86.064 106.487c.256.19 2.645 1.877 6.305 1.877l.78.027c3.653 0 6.038-1.66 6.3-1.85 1.905-2.007 2.122-7.288 2.142-9.06-2.884.58-5.878 1.047-8.908 1.047h-.003c-4.307 0-7.499-.757-8.757-1.032.02 1.778.244 6.994 2.141 8.99m7.078 2.69h-1.47v-.159c-3.543 0-6.438-1.87-6.55-1.954-.01-.013.143.044.127.03-2.571-2.652-2.35-10.088-2.346-10.405.003-.144.116-.26.23-.344.113-.087.46.532.599.57.037.01 3.476 1.614 9.31 1.614h-.004c2.5 0 6.109-.965 9.1-1.613.135-.027.186-.314.295-.228.109.087.129.057.134.197.008.32.12 7.762-2.453 10.414-.013.016-.044-.086-.059-.071-.108.085-2.717 1.95-6.913 1.95" fill="#4E2223"/><path d="M83.701 98.788c0 .368 4.439 2.402 8.912 2.402h-.063c3.034 0 6.047-1.062 9.024-2.08l.017-1.524c-1.401.276-5.271.792-9.62.792-2.997 0-4.727-.319-8.27-.916v1.326zm8.787 2.402h-.002c-5.536 0-9.08-1.716-9.23-1.787-.162-.076-.27-.283-.27-.462l.003-2.185a.473.473 0 0 1 .589-.467c2.477.676 5.333 1.018 8.493 1.018 5.393 0 9.837-1.016 9.879-1.027a.48.48 0 0 1 .4.092c.113.089.176.23.172.371l-.054 2.169c-.005.195-.128.449-.312.513-3.173 1.118-6.427 1.765-9.668 1.765zM130.784 93.81a.317.317 0 0 1-.283-.453c.961-1.986 1.106-3.415.427-4.247-1.35-1.656-5.536-.606-5.575-.594a.314.314 0 0 1-.384-.227.32.32 0 0 1 .226-.386c.187-.045 4.615-1.158 6.22.808.849 1.038.728 2.693-.348 4.92a.313.313 0 0 1-.283.178M52.476 93.81a.314.314 0 0 1-.283-.178c-1.076-2.228-1.194-3.883-.349-4.921 1.605-1.966 6.033-.853 6.221-.808a.32.32 0 0 1 .228.386.314.314 0 0 1-.384.227c-.044-.01-4.227-1.06-5.576.594-.678.832-.534 2.26.427 4.247a.32.32 0 0 1-.145.421.33.33 0 0 1-.139.031M96.01 93.24a.03.03 0 0 1 .01-.011c-2.027-2.523-5.638-1.955-7.342.055a.401.401 0 0 0-.123.288c0 .22.181.515.404.515.104 0 .198.005.27.005h.002c2.039-2.662 4.075-2.227 6.136-.167.006.007.012-.043.02-.039.012.012.02-.006.033.004l.005-.018a.436.436 0 0 0 .257.084c.24 0 .435-.199.435-.438a.424.424 0 0 0-.107-.279" fill="#4E2223"/></g></svg>