<svg xmlns="http://www.w3.org/2000/svg" xmlns:xlink="http://www.w3.org/1999/xlink" width="1440" height="900" viewBox="0 0 1440 900"><defs><path id="a" d="M-74-497h1570V915H-74z"/></defs><clipPath id="b"><use xlink:href="#a" overflow="visible"/></clipPath><g clip-path="url(#b)"><path fill="#916633" stroke="#472728" stroke-width="2" stroke-miterlimit="10" d="M-87-8h1591v959H-87z"/><path opacity=".6" fill="#A67339" d="M91.546 30.965c0 9.407-7.625 17.039-17.039 17.039-9.408 0-17.039-7.632-17.039-17.039 0-9.415 7.63-17.041 17.039-17.041 9.414 0 17.039 7.626 17.039 17.041z"/><path opacity=".3" fill="#734A1E" d="M373.822 56.23c0 20.506-16.623 38.217-37.124 38.217s-37.124-17.711-37.124-38.217c0-20.504 16.622-37.121 37.124-37.121 20.501 0 37.124 16.618 37.124 37.121z"/><circle opacity=".3" fill="#734A1E" cx="231.845" cy="33.291" r="12.335"/><path opacity=".3" fill="#734A1E" d="M1235.782 76.66c0 5.114-4.146 9.254-9.255 9.254-5.107 0-9.248-4.14-9.248-9.254a9.247 9.247 0 0 1 9.248-9.248c5.109 0 9.255 4.139 9.255 9.248zM175.127 75.52c0 12.971-10.515 23.479-23.479 23.479-12.969 0-23.479-10.508-23.479-23.479 0-12.965 10.511-23.479 23.479-23.479 12.964 0 23.479 10.514 23.479 23.479z"/><path opacity=".6" fill="#A67339" d="M517.457 59.942c0 21.296-17.266 38.557-38.556 38.557-21.293 0-38.558-17.261-38.558-38.557 0-21.298 17.264-38.557 38.558-38.557 21.29.001 38.556 17.26 38.556 38.557zM1458.834 36.963c0 13.701-11.115 24.815-24.814 24.815-13.704 0-24.817-11.114-24.817-24.815 0-13.703 11.114-24.815 24.817-24.815 13.699-.001 24.814 11.112 24.814 24.815z"/><path opacity=".6" fill="#A67339" d="M516.914 71.33c0 11.914-9.661 21.57-21.577 21.57-11.913 0-21.571-9.656-21.571-21.57 0-11.916 9.659-21.577 21.571-21.577 11.916 0 21.577 9.661 21.577 21.577z"/><circle opacity=".6" fill="#A67339" cx="1334.311" cy="58.835" r="13.152"/><circle opacity=".6" fill="#A67339" cx="26.463" cy="37.047" r="13.154"/><path opacity=".6" fill="#A67339" d="M230.365 32.354a7.395 7.395 0 0 1-7.396 7.396 7.395 7.395 0 0 1-7.399-7.396 7.4 7.4 0 0 1 7.399-7.4c4.084 0 7.396 3.317 7.396 7.4zM322.397 65.336c0 10.124-8.21 18.333-18.339 18.333-10.121 0-18.332-8.209-18.332-18.333 0-10.129 8.211-18.338 18.332-18.338 10.129 0 18.339 8.209 18.339 18.338z"/><path opacity=".3" fill="#734A1E" d="M505.807 24.827a4.954 4.954 0 1 1-9.909 0 4.954 4.954 0 0 1 4.954-4.953 4.951 4.951 0 0 1 4.955 4.953zM327.084 18.658a4.954 4.954 0 1 1-9.906 0 4.95 4.95 0 0 1 4.954-4.947 4.95 4.95 0 0 1 4.952 4.947zM1214.095 72.987a4.95 4.95 0 0 1-4.954 4.949 4.951 4.951 0 1 1 4.954-4.949z"/><circle opacity=".3" fill="#734A1E" cx="22.455" cy="32.224" r="4.952"/><path opacity=".6" fill="#A67339" d="M1280.942 63.102a4.957 4.957 0 0 1-4.955 4.955 4.955 4.955 0 0 1-4.949-4.955 4.951 4.951 0 1 1 9.904 0z"/><circle opacity=".6" fill="#A67339" cx="426.885" cy="29.777" r="4.953"/><path opacity=".6" fill="#A67339" d="M114.916 42.111a4.956 4.956 0 0 1-4.951 4.953 4.954 4.954 0 0 1 0-9.91 4.957 4.957 0 0 1 4.951 4.957zM163.074 24.827a4.951 4.951 0 0 1-9.902 0 4.948 4.948 0 0 1 4.949-4.953 4.95 4.95 0 0 1 4.953 4.953zM681.993 73.49c0 9.407-7.626 17.04-17.04 17.04-9.409 0-17.039-7.633-17.039-17.04 0-9.414 7.63-17.041 17.039-17.041 9.414 0 17.04 7.627 17.04 17.041z"/><path opacity=".3" fill="#734A1E" d="M964.27 98.756c0 20.504-16.624 38.217-37.125 38.217-20.502 0-37.125-17.713-37.125-38.217s16.623-37.121 37.125-37.121c20.501 0 37.125 16.617 37.125 37.121zM834.628 75.814c0 6.813-5.523 12.34-12.336 12.34-6.813 0-12.336-5.526-12.336-12.34 0-6.813 5.522-12.332 12.336-12.332 6.813 0 12.336 5.52 12.336 12.332zM765.574 118.044c0 12.973-10.515 23.481-23.481 23.481-12.969 0-23.479-10.509-23.479-23.481 0-12.965 10.51-23.479 23.479-23.479 12.966 0 23.481 10.514 23.481 23.479z"/><circle opacity=".6" fill="#A67339" cx="758.606" cy="41.938" r="28.699"/><path opacity=".6" fill="#A67339" d="M1107.904 102.467c0 21.297-17.267 38.557-38.556 38.557-21.294 0-38.557-17.26-38.557-38.557s17.263-38.556 38.557-38.556c21.29 0 38.556 17.259 38.556 38.556z"/><path opacity=".6" fill="#A67339" d="M1107.36 113.855c0 11.915-9.661 21.57-21.577 21.57-11.913 0-21.572-9.655-21.572-21.57 0-11.917 9.659-21.577 21.572-21.577 11.916 0 21.577 9.66 21.577 21.577z"/><circle opacity=".6" fill="#A67339" cx="616.909" cy="79.571" r="13.153"/><circle opacity=".6" fill="#A67339" cx="813.414" cy="74.88" r="7.398"/><path opacity=".6" fill="#A67339" d="M912.843 107.861c0 10.123-8.21 18.333-18.338 18.333-10.123 0-18.332-8.21-18.332-18.333 0-10.129 8.209-18.337 18.332-18.337 10.128 0 18.338 8.208 18.338 18.337z"/><path opacity=".3" fill="#734A1E" d="M1096.254 67.354a4.955 4.955 0 0 1-9.91 0 4.954 4.954 0 0 1 4.955-4.953 4.95 4.95 0 0 1 4.955 4.953zM917.531 61.184a4.953 4.953 0 1 1-9.905 0 4.952 4.952 0 0 1 4.953-4.949 4.951 4.951 0 0 1 4.952 4.949zM617.853 74.748a4.953 4.953 0 1 1-9.903 0 4.954 4.954 0 0 1 4.951-4.953 4.955 4.955 0 0 1 4.952 4.953z"/><circle opacity=".6" fill="#A67339" cx="1017.332" cy="72.303" r="4.954"/><path opacity=".6" fill="#A67339" d="M705.362 84.636a4.955 4.955 0 0 1-4.951 4.953 4.954 4.954 0 0 1 0-9.907 4.953 4.953 0 0 1 4.951 4.954zM753.519 67.354a4.95 4.95 0 0 1-9.901 0c0-2.738 2.214-4.953 4.95-4.953s4.951 2.214 4.951 4.953zM1352.245 196.713c0 9.407 7.626 17.04 17.04 17.04 9.408 0 17.04-7.633 17.04-17.04 0-9.415-7.632-17.041-17.04-17.041-9.414 0-17.04 7.626-17.04 17.041z"/><path opacity=".3" fill="#734A1E" d="M1069.97 221.979c0 20.505 16.623 38.217 37.124 38.217s37.125-17.712 37.125-38.217-16.624-37.122-37.125-37.122c-20.502-.001-37.124 16.617-37.124 37.122z"/><circle opacity=".3" fill="#734A1E" cx="1211.947" cy="199.037" r="12.336"/><path opacity=".3" fill="#734A1E" d="M211.283 204.79a9.254 9.254 0 0 0 9.254 9.254c5.107 0 9.247-4.141 9.247-9.254a9.247 9.247 0 0 0-9.247-9.248c-5.109 0-9.254 4.14-9.254 9.248zM1268.665 241.268c0 12.971 10.515 23.479 23.479 23.479 12.97 0 23.48-10.509 23.48-23.479 0-12.965-10.51-23.48-23.48-23.48-12.964-.001-23.479 10.515-23.479 23.48z"/><circle opacity=".6" fill="#A67339" cx="1275.633" cy="165.16" r="28.7"/><path opacity=".6" fill="#A67339" d="M926.334 225.689c0 21.297 17.266 38.557 38.557 38.557 21.294 0 38.556-17.26 38.556-38.557s-17.262-38.556-38.556-38.556c-21.291.001-38.557 17.26-38.557 38.556zM-15.043 202.711c0 13.701 11.114 24.814 24.816 24.814 13.703 0 24.816-11.113 24.816-24.814 0-13.703-11.113-24.815-24.816-24.815-13.702 0-24.816 11.112-24.816 24.815z"/><path opacity=".6" fill="#A67339" d="M926.878 237.077c0 11.915 9.661 21.57 21.577 21.57 11.914 0 21.571-9.655 21.571-21.57 0-11.917-9.657-21.577-21.571-21.577-11.916 0-21.577 9.66-21.577 21.577z"/><circle opacity=".6" fill="#A67339" cx="112.752" cy="186.965" r="13.153"/><circle opacity=".6" fill="#A67339" cx="1417.329" cy="202.795" r="13.153"/><path opacity=".6" fill="#A67339" d="M1213.426 198.104a7.396 7.396 0 0 0 7.399 7.394 7.396 7.396 0 0 0 7.399-7.394 7.401 7.401 0 0 0-7.399-7.401 7.4 7.4 0 0 0-7.399 7.401zM1121.396 231.084c0 10.123 8.21 18.332 18.339 18.332 10.122 0 18.331-8.209 18.331-18.332 0-10.129-8.209-18.338-18.331-18.338-10.129 0-18.339 8.209-18.339 18.338z"/><path opacity=".3" fill="#734A1E" d="M937.985 190.574a4.953 4.953 0 0 0 4.955 4.952 4.956 4.956 0 0 0 4.955-4.952 4.955 4.955 0 0 0-9.91 0zM1116.707 184.406a4.954 4.954 0 0 0 9.906 0 4.953 4.953 0 0 0-9.906 0zM232.968 201.117a4.952 4.952 0 1 0 9.903-.005 4.952 4.952 0 0 0-9.903.005zM1416.387 197.971a4.951 4.951 0 1 0 9.903 0 4.956 4.956 0 0 0-4.952-4.954 4.954 4.954 0 0 0-4.951 4.954z"/><path opacity=".6" fill="#A67339" d="M166.122 191.23a4.955 4.955 0 0 0 4.955 4.954 4.953 4.953 0 0 0 4.947-4.954 4.95 4.95 0 0 0-4.947-4.955 4.953 4.953 0 0 0-4.955 4.955z"/><path opacity=".3" fill="#734A1E" d="M829.561 261.848a9.255 9.255 0 0 0 9.254 9.255c5.107 0 9.25-4.14 9.25-9.255 0-5.107-4.143-9.248-9.25-9.248s-9.254 4.14-9.254 9.248z"/><path opacity=".6" fill="#A67339" d="M603.237 259.77c0 13.702 11.112 24.814 24.814 24.814 13.703 0 24.816-11.112 24.816-24.814 0-13.703-11.113-24.816-24.816-24.816-13.701-.001-24.814 11.112-24.814 24.816z"/><circle opacity=".6" fill="#A67339" cx="731.031" cy="244.023" r="13.152"/><path opacity=".3" fill="#734A1E" d="M851.246 258.176a4.951 4.951 0 0 0 4.955 4.949 4.95 4.95 0 0 0 4.95-4.949 4.95 4.95 0 0 0-4.95-4.953 4.951 4.951 0 0 0-4.955 4.953z"/><path opacity=".6" fill="#A67339" d="M784.398 248.29a4.958 4.958 0 0 0 4.956 4.954 4.953 4.953 0 0 0 4.948-4.954 4.949 4.949 0 0 0-4.948-4.956 4.954 4.954 0 0 0-4.956 4.956z"/><circle opacity=".6" fill="#A67339" cx="1016.907" cy="195.526" r="4.954"/><path opacity=".6" fill="#A67339" d="M1328.876 207.857a4.956 4.956 0 0 0 4.952 4.955 4.956 4.956 0 0 0 4.954-4.955 4.956 4.956 0 0 0-4.954-4.954 4.956 4.956 0 0 0-4.952 4.954z"/><circle opacity=".6" fill="#A67339" cx="1285.669" cy="190.574" r="4.952"/><path opacity=".6" fill="#A67339" d="M1259.064 372.074c0 9.408 7.627 17.041 17.041 17.041 9.408 0 17.04-7.633 17.04-17.041 0-9.413-7.631-17.04-17.04-17.04-9.414 0-17.041 7.627-17.041 17.04z"/><path opacity=".3" fill="#734A1E" d="M474.616 190.902c0 20.506 16.623 38.218 37.125 38.218 20.5 0 37.124-17.712 37.124-38.218 0-20.504-16.624-37.122-37.124-37.122-20.502 0-37.125 16.618-37.125 37.122z"/><circle opacity=".3" fill="#734A1E" cx="1118.767" cy="374.401" r="12.335"/><path opacity=".3" fill="#734A1E" d="M1175.485 416.629c0 12.972 10.514 23.48 23.479 23.48 12.969 0 23.48-10.509 23.48-23.48 0-12.965-10.511-23.478-23.48-23.478-12.964 0-23.479 10.513-23.479 23.478z"/><circle opacity=".6" fill="#A67339" cx="1182.453" cy="340.523" r="28.7"/><path opacity=".6" fill="#A67339" d="M309.72 206.063c0 21.297 17.266 38.557 38.557 38.557 21.293 0 38.556-17.26 38.556-38.557s-17.263-38.557-38.556-38.557c-21.292 0-38.557 17.26-38.557 38.557z"/><path opacity=".6" fill="#A67339" d="M310.264 217.45c0 11.915 9.66 21.571 21.577 21.571 11.911 0 21.57-9.656 21.57-21.571s-9.659-21.575-21.57-21.575c-11.917 0-21.577 9.66-21.577 21.575z"/><circle opacity=".6" fill="#A67339" cx="1324.149" cy="378.156" r="13.153"/><circle opacity=".6" fill="#A67339" cx="1127.645" cy="373.465" r="7.398"/><path opacity=".6" fill="#A67339" d="M526.042 200.008c0 10.123 8.21 18.334 18.339 18.334 10.123 0 18.332-8.211 18.332-18.334 0-10.128-8.209-18.337-18.332-18.337-10.129 0-18.339 8.209-18.339 18.337z"/><circle opacity=".3" fill="#734A1E" cx="326.325" cy="170.947" r="4.955"/><path opacity=".3" fill="#734A1E" d="M521.354 153.331a4.954 4.954 0 0 0 4.951 4.954 4.951 4.951 0 0 0 0-9.902 4.952 4.952 0 0 0-4.951 4.948zM1323.207 373.334a4.953 4.953 0 1 0 9.904 0 4.956 4.956 0 0 0-4.952-4.955 4.954 4.954 0 0 0-4.952 4.955z"/><circle opacity=".6" fill="#A67339" cx="400.292" cy="175.898" r="4.953"/><path opacity=".3" fill="#734A1E" d="M122.961 347.086c0 5.113 4.146 9.254 9.255 9.254 5.107 0 9.247-4.141 9.247-9.254 0-5.107-4.14-9.248-9.247-9.248-5.11 0-9.255 4.141-9.255 9.248zM144.647 343.413a4.95 4.95 0 0 0 4.953 4.948 4.95 4.95 0 1 0 0-9.901 4.95 4.95 0 0 0-4.953 4.953zM397.041 333.357c0 14.568 11.81 27.154 26.378 27.154 14.565 0 26.377-12.586 26.377-27.154s-11.812-26.376-26.377-26.376c-14.568 0-26.378 11.808-26.378 26.376z"/><path opacity=".6" fill="#A67339" d="M221.397 348.357c0 21.298 17.267 38.557 38.557 38.557 21.294 0 38.557-17.259 38.557-38.557 0-21.297-17.263-38.556-38.557-38.556-21.29.001-38.557 17.26-38.557 38.556z"/><path opacity=".6" fill="#A67339" d="M221.942 359.746c0 11.916 9.661 21.57 21.577 21.57 11.913 0 21.571-9.654 21.571-21.57s-9.658-21.576-21.571-21.576c-11.916 0-21.577 9.66-21.577 21.576zM307.017 318.193a4.954 4.954 0 1 0 9.906 0 4.953 4.953 0 1 0-9.906 0zM1235.696 383.22a4.955 4.955 0 0 0 4.952 4.955 4.955 4.955 0 0 0 0-9.909 4.954 4.954 0 0 0-4.952 4.954zM1187.539 365.938a4.95 4.95 0 0 0 9.902 0 4.952 4.952 0 1 0-9.902 0zM976.06 342.28c0 9.407 7.627 17.039 17.04 17.039 9.407 0 17.04-7.632 17.04-17.039 0-9.415-7.633-17.042-17.04-17.042-9.413 0-17.04 7.627-17.04 17.042z"/><path opacity=".3" fill="#734A1E" d="M693.784 367.545c0 20.505 16.622 38.217 37.124 38.217 20.502 0 37.125-17.712 37.125-38.217 0-20.504-16.623-37.122-37.125-37.122s-37.124 16.618-37.124 37.122zM892.479 386.834c0 12.971 10.517 23.479 23.481 23.479 12.969 0 23.479-10.509 23.479-23.479 0-12.965-10.51-23.479-23.479-23.479-12.965-.001-23.481 10.514-23.481 23.479z"/><path opacity=".6" fill="#A67339" d="M550.148 371.258c0 21.295 17.267 38.556 38.557 38.556 21.294 0 38.557-17.261 38.557-38.556 0-21.297-17.263-38.558-38.557-38.558-21.29 0-38.557 17.261-38.557 38.558z"/><path opacity=".6" fill="#A67339" d="M550.693 382.646c0 11.913 9.66 21.569 21.576 21.569 11.914 0 21.572-9.656 21.572-21.569 0-11.916-9.658-21.577-21.572-21.577-11.915-.001-21.576 9.66-21.576 21.577z"/><circle opacity=".6" fill="#A67339" cx="1041.143" cy="348.359" r="13.154"/><path opacity=".6" fill="#A67339" d="M745.21 376.65c0 10.123 8.21 18.333 18.338 18.333 10.124 0 18.333-8.21 18.333-18.333 0-10.128-8.209-18.337-18.333-18.337-10.128 0-18.338 8.209-18.338 18.337z"/><circle opacity=".6" fill="#A67339" cx="806.267" cy="486.09" r="28.7"/><circle opacity=".6" fill="#A67339" cx="27.688" cy="416.302" r="28.7"/><path opacity=".6" fill="#A67339" d="M811.354 511.505a4.95 4.95 0 0 0 9.902 0 4.95 4.95 0 1 0-9.902 0z"/><path opacity=".3" fill="#734A1E" d="M890.582 893.415c0-20.504 16.624-38.217 37.125-38.217s37.124 17.713 37.124 38.217c0 20.505-16.623 37.122-37.124 37.122s-37.125-16.617-37.125-37.122zM28.623 872.985c0-5.114 4.146-9.253 9.255-9.253 5.106 0 9.247 4.139 9.247 9.253a9.248 9.248 0 0 1-9.247 9.248c-5.109 0-9.255-4.139-9.255-9.248zM1089.277 874.126c0-12.971 10.515-23.479 23.48-23.479 12.969 0 23.479 10.509 23.479 23.479 0 12.965-10.51 23.479-23.479 23.479-12.965 0-23.48-10.514-23.48-23.479z"/><path opacity=".6" fill="#A67339" d="M746.947 889.703c0-21.296 17.266-38.557 38.555-38.557 21.293 0 38.558 17.261 38.558 38.557 0 21.298-17.265 38.557-38.558 38.557-21.289 0-38.555-17.259-38.555-38.557z"/><path opacity=".6" fill="#A67339" d="M747.49 878.315c0-11.915 9.66-21.57 21.577-21.57 11.913 0 21.572 9.655 21.572 21.57 0 11.917-9.659 21.577-21.572 21.577-11.917.001-21.577-9.66-21.577-21.577zM1224.788 912.598c0-7.262 5.889-13.15 13.153-13.15 7.262 0 13.154 5.889 13.154 13.15 0 7.267-5.892 13.154-13.154 13.154-7.264 0-13.153-5.888-13.153-13.154zM942.007 884.31c0-10.124 8.21-18.333 18.339-18.333 10.121 0 18.331 8.209 18.331 18.333 0 10.129-8.21 18.338-18.331 18.338-10.129-.001-18.339-8.21-18.339-18.338z"/><path opacity=".3" fill="#734A1E" d="M50.31 876.658a4.95 4.95 0 0 1 4.953-4.948 4.95 4.95 0 1 1 0 9.902 4.95 4.95 0 0 1-4.953-4.954z"/><circle opacity=".6" fill="#A67339" cx="599.45" cy="876.156" r="17.04"/><path opacity=".3" fill="#734A1E" d="M300.134 850.89c0-20.504 16.624-38.217 37.125-38.217 20.502 0 37.125 17.713 37.125 38.217 0 20.505-16.623 37.122-37.125 37.122-20.501 0-37.125-16.617-37.125-37.122z"/><circle opacity=".3" fill="#734A1E" cx="442.112" cy="873.831" r="12.336"/><path opacity=".3" fill="#734A1E" d="M498.831 831.602c0-12.973 10.515-23.48 23.481-23.48 12.968 0 23.478 10.508 23.478 23.48 0 12.965-10.51 23.479-23.478 23.479-12.966-.001-23.481-10.515-23.481-23.479z"/><circle opacity=".6" fill="#A67339" cx="505.798" cy="907.708" r="28.7"/><path opacity=".6" fill="#A67339" d="M156.5 847.18c0-21.299 17.266-38.558 38.556-38.558 21.293 0 38.556 17.259 38.556 38.558 0 21.296-17.263 38.556-38.556 38.556-21.29-.001-38.556-17.26-38.556-38.556z"/><path opacity=".6" fill="#A67339" d="M157.044 835.79c0-11.915 9.66-21.57 21.577-21.57 11.913 0 21.572 9.655 21.572 21.57 0 11.917-9.66 21.578-21.572 21.578-11.917 0-21.577-9.661-21.577-21.578z"/><circle opacity=".6" fill="#A67339" cx="647.495" cy="870.074" r="13.153"/><circle opacity=".6" fill="#A67339" cx="450.99" cy="874.766" r="7.398"/><path opacity=".6" fill="#A67339" d="M351.561 841.785c0-10.124 8.21-18.334 18.338-18.334 10.123 0 18.333 8.21 18.333 18.334 0 10.128-8.21 18.336-18.333 18.336-10.128 0-18.338-8.208-18.338-18.336z"/><path opacity=".3" fill="#734A1E" d="M168.15 882.293a4.956 4.956 0 0 1 9.91 0 4.955 4.955 0 0 1-4.955 4.953 4.952 4.952 0 0 1-4.955-4.953zM346.873 888.462a4.954 4.954 0 0 1 4.951-4.955 4.952 4.952 0 1 1 0 9.904 4.952 4.952 0 0 1-4.951-4.949zM646.552 874.898a4.952 4.952 0 1 1 9.903 0 4.954 4.954 0 0 1-4.951 4.952 4.953 4.953 0 0 1-4.952-4.952z"/><circle opacity=".6" fill="#A67339" cx="247.072" cy="877.343" r="4.953"/><path opacity=".6" fill="#A67339" d="M559.041 865.01a4.956 4.956 0 0 1 4.952-4.953 4.956 4.956 0 0 1 4.954 4.953 4.956 4.956 0 0 1-4.954 4.955 4.956 4.956 0 0 1-4.952-4.955zM510.885 882.293a4.95 4.95 0 0 1 9.901 0 4.95 4.95 0 0 1-4.95 4.953 4.95 4.95 0 0 1-4.951-4.953z"/><path opacity=".3" fill="#734A1E" d="M194.434 727.667c0-20.505-16.623-38.217-37.124-38.217-20.502 0-37.125 17.712-37.125 38.217 0 20.504 16.623 37.122 37.125 37.122s37.124-16.618 37.124-37.122zM64.792 750.608c0-6.813-5.522-12.339-12.335-12.339s-12.336 5.525-12.336 12.339c0 6.812 5.523 12.333 12.336 12.333s12.335-5.521 12.335-12.333zM1053.121 744.855a9.254 9.254 0 0 0-9.254-9.254c-5.107 0-9.248 4.141-9.248 9.254a9.247 9.247 0 0 0 9.248 9.248c5.109.001 9.254-4.138 9.254-9.248z"/><circle opacity=".6" fill="#A67339" cx="-11.229" cy="784.485" r="28.7"/><path opacity=".6" fill="#A67339" d="M338.069 723.956c0-21.297-17.266-38.557-38.556-38.557-21.293 0-38.556 17.26-38.556 38.557s17.263 38.556 38.556 38.556c21.291 0 38.556-17.259 38.556-38.556zM1279.447 746.936c0-13.701-11.115-24.814-24.817-24.814s-24.815 11.113-24.815 24.814c0 13.702 11.113 24.814 24.815 24.814s24.817-11.112 24.817-24.814z"/><path opacity=".6" fill="#A67339" d="M337.525 712.568c0-11.915-9.66-21.57-21.577-21.57-11.914 0-21.572 9.655-21.572 21.57 0 11.917 9.658 21.577 21.572 21.577 11.917.001 21.577-9.66 21.577-21.577z"/><circle opacity=".6" fill="#A67339" cx="1151.652" cy="762.682" r="13.153"/><circle opacity=".6" fill="#A67339" cx="43.579" cy="751.543" r="7.398"/><path opacity=".6" fill="#A67339" d="M143.008 718.563c0-10.124-8.21-18.333-18.339-18.333-10.122 0-18.331 8.209-18.331 18.333 0 10.128 8.209 18.337 18.331 18.337 10.129-.001 18.339-8.21 18.339-18.337z"/><path opacity=".3" fill="#734A1E" d="M326.419 759.07a4.956 4.956 0 0 0-9.911 0 4.956 4.956 0 0 0 9.911 0zM147.696 765.24a4.954 4.954 0 1 0-9.906 0 4.95 4.95 0 0 0 4.955 4.947 4.95 4.95 0 0 0 4.951-4.947zM1031.436 748.529a4.95 4.95 0 0 0-4.953-4.949 4.95 4.95 0 1 0 0 9.902 4.95 4.95 0 0 0 4.953-4.953z"/><path opacity=".6" fill="#A67339" d="M1098.282 758.415a4.956 4.956 0 0 0-4.955-4.954 4.952 4.952 0 0 0-4.947 4.954 4.948 4.948 0 0 0 4.947 4.955 4.953 4.953 0 0 0 4.955-4.955z"/><path opacity=".3" fill="#734A1E" d="M434.843 687.798a9.255 9.255 0 0 0-9.254-9.255c-5.106 0-9.25 4.141-9.25 9.255 0 5.107 4.143 9.248 9.25 9.248s9.254-4.141 9.254-9.248z"/><path opacity=".6" fill="#A67339" d="M661.167 689.876c0-13.702-11.113-24.814-24.814-24.814-13.704 0-24.817 11.112-24.817 24.814 0 13.704 11.114 24.817 24.817 24.817 13.701 0 24.814-11.113 24.814-24.817z"/><circle opacity=".6" fill="#A67339" cx="533.374" cy="705.622" r="13.152"/><path opacity=".3" fill="#734A1E" d="M413.158 691.47a4.95 4.95 0 0 0-4.955-4.949 4.95 4.95 0 0 0-4.951 4.949 4.95 4.95 0 0 0 4.951 4.954 4.952 4.952 0 0 0 4.955-4.954z"/><path opacity=".6" fill="#A67339" d="M480.005 701.355a4.953 4.953 0 0 0-9.905 0 4.95 4.95 0 0 0 4.949 4.955 4.952 4.952 0 0 0 4.956-4.955zM252.451 754.12a4.954 4.954 0 0 0-9.907 0 4.95 4.95 0 0 0 4.951 4.95 4.953 4.953 0 0 0 4.956-4.95zM5.339 577.571c0-9.407-7.627-17.04-17.04-17.04-9.408 0-17.04 7.633-17.04 17.04 0 9.413 7.632 17.04 17.04 17.04 9.413 0 17.04-7.627 17.04-17.04z"/><path opacity=".3" fill="#734A1E" d="M789.788 758.743c0-20.505-16.623-38.218-37.125-38.218-20.501 0-37.124 17.713-37.124 38.218 0 20.504 16.623 37.121 37.124 37.121 20.502 0 37.125-16.617 37.125-37.121zM157.972 575.244c0-6.811-5.522-12.337-12.335-12.337s-12.336 5.526-12.336 12.337c0 6.813 5.523 12.335 12.336 12.335s12.335-5.521 12.335-12.335zM88.919 533.017c0-12.972-10.515-23.48-23.48-23.48-12.969 0-23.48 10.509-23.48 23.48 0 12.965 10.511 23.478 23.48 23.478 12.965-.001 23.48-10.514 23.48-23.478z"/><circle opacity=".6" fill="#A67339" cx="81.951" cy="609.123" r="28.7"/><path opacity=".6" fill="#A67339" d="M954.684 743.584c0-21.298-17.265-38.557-38.556-38.557-21.293 0-38.556 17.259-38.556 38.557 0 21.296 17.263 38.556 38.556 38.556 21.29 0 38.556-17.26 38.556-38.556z"/><path opacity=".6" fill="#A67339" d="M954.14 732.196c0-11.916-9.661-21.571-21.577-21.571-11.911 0-21.571 9.655-21.571 21.571 0 11.915 9.661 21.575 21.571 21.575 11.916 0 21.577-9.66 21.577-21.575z"/><circle opacity=".6" fill="#A67339" cx="136.759" cy="576.181" r="7.398"/><path opacity=".6" fill="#A67339" d="M738.361 749.639c0-10.124-8.21-18.334-18.338-18.334-10.123 0-18.332 8.21-18.332 18.334 0 10.127 8.209 18.336 18.332 18.336 10.128 0 18.338-8.209 18.338-18.336z"/><path opacity=".3" fill="#734A1E" d="M943.033 778.698a4.951 4.951 0 0 0-4.954-4.951 4.954 4.954 0 0 0-4.956 4.951 4.955 4.955 0 0 0 4.956 4.953 4.951 4.951 0 0 0 4.954-4.953zM743.05 796.315a4.953 4.953 0 1 0-9.906 0 4.952 4.952 0 0 0 4.955 4.948 4.95 4.95 0 0 0 4.951-4.948z"/><circle opacity=".6" fill="#A67339" cx="864.112" cy="773.747" r="4.954"/><path opacity=".3" fill="#734A1E" d="M1141.443 602.561a9.253 9.253 0 0 0-9.255-9.254c-5.107 0-9.247 4.139-9.247 9.254 0 5.107 4.14 9.248 9.247 9.248 5.11 0 9.255-4.141 9.255-9.248zM1119.756 606.233a4.95 4.95 0 0 0-4.954-4.949 4.95 4.95 0 0 0-4.949 4.949 4.95 4.95 0 0 0 4.949 4.952 4.948 4.948 0 0 0 4.954-4.952zM867.362 616.289c0-14.569-11.81-27.153-26.377-27.153-14.566 0-26.377 12.584-26.377 27.153 0 14.568 11.811 26.375 26.377 26.375 14.568 0 26.377-11.807 26.377-26.375z"/><path opacity=".6" fill="#A67339" d="M1043.006 601.288c0-21.298-17.266-38.557-38.556-38.557-21.294 0-38.557 17.259-38.557 38.557 0 21.296 17.263 38.555 38.557 38.555 21.29 0 38.556-17.259 38.556-38.555z"/><path opacity=".6" fill="#A67339" d="M1042.462 589.899c0-11.915-9.662-21.57-21.577-21.57-11.913 0-21.572 9.655-21.572 21.57 0 11.917 9.659 21.577 21.572 21.577 11.916.001 21.577-9.66 21.577-21.577zM957.387 631.453a4.954 4.954 0 1 0-9.907 0 4.951 4.951 0 0 0 4.951 4.949 4.952 4.952 0 0 0 4.956-4.949zM28.708 566.426a4.956 4.956 0 0 0-4.952-4.955 4.955 4.955 0 0 0 0 9.909 4.955 4.955 0 0 0 4.952-4.954zM76.865 583.708a4.951 4.951 0 0 0-9.903 0 4.95 4.95 0 1 0 9.903 0zM288.344 607.365c0-9.406-7.626-17.039-17.04-17.039-9.407 0-17.04 7.633-17.04 17.039 0 9.416 7.632 17.042 17.04 17.042 9.414 0 17.04-7.626 17.04-17.042z"/><path opacity=".3" fill="#734A1E" d="M570.62 582.101c0-20.505-16.623-38.217-37.125-38.217-20.501 0-37.124 17.712-37.124 38.217 0 20.504 16.623 37.122 37.124 37.122 20.502 0 37.125-16.619 37.125-37.122zM371.926 562.812c0-12.971-10.518-23.479-23.481-23.479-12.969 0-23.479 10.509-23.479 23.479 0 12.965 10.511 23.479 23.479 23.479 12.963 0 23.481-10.515 23.481-23.479z"/><path opacity=".6" fill="#A67339" d="M714.255 578.389c0-21.296-17.266-38.557-38.557-38.557-21.293 0-38.556 17.261-38.556 38.557 0 21.297 17.263 38.557 38.556 38.557 21.291-.001 38.557-17.26 38.557-38.557z"/><path opacity=".6" fill="#A67339" d="M713.711 567.001c0-11.914-9.661-21.569-21.577-21.569-11.913 0-21.571 9.655-21.571 21.569 0 11.915 9.659 21.577 21.571 21.577 11.916 0 21.577-9.662 21.577-21.577z"/><circle opacity=".6" fill="#A67339" cx="223.261" cy="601.286" r="13.153"/><path opacity=".6" fill="#A67339" d="M519.194 572.996c0-10.124-8.211-18.334-18.339-18.334-10.123 0-18.332 8.21-18.332 18.334 0 10.127 8.209 18.336 18.332 18.336 10.128 0 18.339-8.209 18.339-18.336z"/><circle opacity=".6" fill="#A67339" cx="458.137" cy="463.556" r="28.7"/><circle opacity=".6" fill="#A67339" cx="1236.715" cy="533.344" r="28.7"/><path opacity=".6" fill="#A67339" d="M453.05 438.141a4.95 4.95 0 0 0-4.951-4.949 4.952 4.952 0 1 0 4.951 4.949zM1236.709 842.556c0-13.702 11.114-24.815 24.815-24.815 13.703 0 24.816 11.113 24.816 24.815 0 13.703-11.114 24.814-24.816 24.814-13.701 0-24.815-11.111-24.815-24.814z"/><circle opacity=".6" fill="#A67339" cx="1361.231" cy="820.685" r="13.152"/><path opacity=".6" fill="#A67339" d="M1414.601 816.416a4.954 4.954 0 0 1 9.905 0 4.952 4.952 0 1 1-9.905 0zM1343.298 682.806c0-9.407-7.627-17.039-17.041-17.039-9.408 0-17.04 7.632-17.04 17.039 0 9.415 7.631 17.042 17.04 17.042 9.414 0 17.041-7.627 17.041-17.042z"/><path opacity=".3" fill="#734A1E" d="M1426.878 638.252c0-12.972-10.515-23.48-23.48-23.48-12.969 0-23.48 10.509-23.48 23.48 0 12.965 10.511 23.479 23.48 23.479 12.965-.001 23.48-10.514 23.48-23.479z"/><circle opacity=".6" fill="#A67339" cx="1419.91" cy="714.358" r="28.7"/><circle opacity=".6" fill="#A67339" cx="1278.214" cy="676.725" r="13.154"/><path opacity=".3" fill="#734A1E" d="M1279.156 681.549a4.95 4.95 0 1 0-9.903 0c0 2.732 2.217 4.953 4.952 4.953s4.951-2.221 4.951-4.953z"/><circle opacity=".6" fill="#A67339" cx="1361.714" cy="671.661" r="4.953"/><path opacity=".6" fill="#A67339" d="M1414.825 688.943a4.951 4.951 0 1 0-9.904 0 4.952 4.952 0 1 0 9.904 0z"/><circle opacity=".6" fill="#A67339" cx="1419.438" cy="507.444" r="17.04"/><circle opacity=".6" fill="#A67339" cx="1371.393" cy="501.361" r="13.153"/><path opacity=".3" fill="#734A1E" d="M1372.336 506.186a4.951 4.951 0 1 0-9.903 0 4.955 4.955 0 0 0 4.952 4.953 4.954 4.954 0 0 0 4.951-4.953z"/></g></svg>