<svg id="Capa_1" xmlns="http://www.w3.org/2000/svg" xmlns:xlink="http://www.w3.org/1999/xlink" viewBox="0 0 667 375"><style>.st0{clip-path:url(#SVGID_2_)}.st1{clip-path:url(#SVGID_4_)}.st2{clip-path:url(#SVGID_6_)}.st3{fill:url(#SVGID_9_)}.st3,.st4,.st5{clip-path:url(#SVGID_8_)}.st4{fill:#f7f7f8;opacity:.2}.st5{opacity:.5}.st6{opacity:.6;clip-path:url(#SVGID_11_)}.st7{clip-path:url(#SVGID_13_)}.st8,.st9{clip-path:url(#SVGID_11_)}.st8{fill:#5d969a}.st9{opacity:.4}.st10{clip-path:url(#SVGID_17_)}.st11{clip-path:url(#SVGID_11_);fill:#f7f7f8}.st12{opacity:.6}.st13{clip-path:url(#SVGID_21_)}.st14{fill:#396767}.st15{opacity:.4}.st16{clip-path:url(#SVGID_25_)}.st17{clip-path:url(#SVGID_27_)}.st18{fill:#f7f7f8}.st19{clip-path:url(#SVGID_31_)}.st20{fill:#5d969a}.st21{clip-path:url(#SVGID_35_)}.st22{fill:#144107}.st22,.st23{clip-path:url(#SVGID_8_)}.st24{fill:#472728}.st25{clip-path:url(#SVGID_39_)}.st26{clip-path:url(#SVGID_43_)}.st27{clip-path:url(#SVGID_45_)}.st28{clip-path:url(#SVGID_49_)}.st29{clip-path:url(#SVGID_53_)}.st30{clip-path:url(#SVGID_57_)}.st31{clip-path:url(#SVGID_61_)}.st32{clip-path:url(#SVGID_65_)}.st33{clip-path:url(#SVGID_69_)}.st34{clip-path:url(#SVGID_71_)}.st35{clip-path:url(#SVGID_75_)}.st36{clip-path:url(#SVGID_79_)}.st37,.st38{clip-path:url(#SVGID_8_)}.st37{fill:#472728}.st38{opacity:.31}.st39{clip-path:url(#SVGID_83_);fill:#f7f7f8}.st40{fill:#75b5c6}.st41{fill:#77aa52}.st42{fill:#efce36}.st43{fill:#cf7445}.st44{fill:#c75d83}.st45{fill:#bc6131}.st46{clip-path:url(#SVGID_8_);fill:none;stroke:#75b5c6;stroke-width:1.0897;stroke-linecap:round;stroke-miterlimit:10}.st47{fill:#61b5b2}.st47,.st48,.st49{clip-path:url(#SVGID_8_)}.st48{fill:none;stroke:#c75d83;stroke-width:.676;stroke-linecap:round;stroke-miterlimit:10}.st49{opacity:.3}.st50{opacity:.4}.st50,.st51,.st52,.st53{clip-path:url(#SVGID_8_)}.st51{opacity:.75}.st52,.st53{fill:#6a9841}.st53{fill:#77aa52}.st54{clip-path:url(#SVGID_93_);fill:#f7f7f8}.st55,.st56{clip-path:url(#SVGID_8_)}.st55{opacity:.2}.st56{fill:#608e4f}.st57{fill:#527e2e}.st58{fill:#6a9841}.st59{opacity:.5}.st60{clip-path:url(#SVGID_95_);fill:#e8c997}.st61{fill:#00302f}.st62{fill:#3d6d74}.st63{clip-path:url(#SVGID_97_);fill:#001d1c}.st64{fill:none;stroke:#472728;stroke-width:1.1136;stroke-miterlimit:10}.st65,.st66,.st67{clip-path:url(#SVGID_8_);fill:#dbba20}.st66,.st67{fill:#95bb80}.st67{fill:#5d5d5d}.st68{opacity:.3}.st68,.st69{fill:#fff}.st70{clip-path:url(#SVGID_2_);fill:none}</style><defs><path id="SVGID_1_" d="M.5 0H667v375H.5z"/></defs><clipPath id="SVGID_2_"><use xlink:href="#SVGID_1_" overflow="visible"/></clipPath><g class="st0"><defs><path id="SVGID_3_" d="M-26.5-53.5h802v502h-802z"/></defs><clipPath id="SVGID_4_"><use xlink:href="#SVGID_3_" overflow="visible"/></clipPath><g class="st1"><defs><path id="SVGID_5_" d="M-26.9-53.6H776v602.2H-26.9z"/></defs><clipPath id="SVGID_6_"><use xlink:href="#SVGID_5_" overflow="visible"/></clipPath><g class="st2"><defs><path id="SVGID_7_" d="M-26.9-132.8H776v681.3H-26.9z"/></defs><clipPath id="SVGID_8_"><use xlink:href="#SVGID_7_" overflow="visible"/></clipPath><radialGradient id="SVGID_9_" cx="373.795" cy="65.205" r="317.736" gradientUnits="userSpaceOnUse"><stop offset=".021" stop-color="#9ab9e2"/><stop offset=".333" stop-color="#8c9fd5"/><stop offset=".997" stop-color="#685cb5"/><stop offset="1" stop-color="#685cb5"/></radialGradient><path class="st3" d="M-27.6-136.7h802.9v403.8H-27.6z"/><path class="st4" d="M525.9-108c9.2-14.9-12-29-34-31.3-22-2.3-26.2 20.6-26.2 20.6s-7.1-3.8-10.5 1.9c-28-11.7-24.1 1.3-24.1 1.3s-23.3 4.2 18.3 4.5c41.6.3 92 16.6 92 16.6s-3.8-15.7-15.5-13.6z"/><g class="st5"><defs><path id="SVGID_10_" transform="rotate(-172.437 545.122 156.448)" d="M474.4 90.5h141.4v131.9H474.4z"/></defs><clipPath id="SVGID_11_"><use xlink:href="#SVGID_10_" overflow="visible"/></clipPath><g class="st6"><defs><path id="SVGID_12_" transform="rotate(-172.437 545.122 156.448)" d="M474.4 90.5h141.4v131.9H474.4z"/></defs><clipPath id="SVGID_13_"><use xlink:href="#SVGID_12_" overflow="visible"/></clipPath><g class="st7"><defs><path id="SVGID_14_" transform="rotate(-172.437 545.122 156.447)" d="M474.4 90.5h141.4v131.9H474.4z"/></defs><clipPath id="SVGID_15_"><use xlink:href="#SVGID_14_" overflow="visible"/></clipPath><g clip-path="url(#SVGID_15_)"><image width="490" height="457" xlink:href="C24EE53B7E5ADC9C.png" transform="rotate(7.561 -376.879 3701.681) scale(.28871)" overflow="visible"/></g></g></g><path class="st8" d="M500.8 211.6c-26.1-2.7-34.9-22.4-19.4-43.6l43.8-60.3c15.4-21.3 36.8-19 47.5 5l30.3 68.1c10.7 24-1.9 41.4-28.1 38.7l-74.1-7.9z"/><g class="st9"><defs><path id="SVGID_16_" transform="rotate(-172.437 547.158 120.127)" d="M503.3 91.6h87.8v57.2h-87.8z"/></defs><clipPath id="SVGID_17_"><use xlink:href="#SVGID_16_" overflow="visible"/></clipPath><g class="st10"><defs><path id="SVGID_18_" transform="rotate(-172.437 547.158 120.124)" d="M503.3 91.6h87.8v57.2h-87.8z"/></defs><clipPath id="SVGID_19_"><use xlink:href="#SVGID_18_" overflow="visible"/></clipPath><g clip-path="url(#SVGID_19_)"><image width="304" height="198" xlink:href="C24EE53B7E5ADC9D.png" transform="rotate(7.561 -397.315 3883.41) scale(.28871)" overflow="visible"/></g></g></g><path class="st11" d="M574.9 112.4c-11.1-24.9-33.2-27.2-49.2-5.2l-23.6 32.5c.2 0 .3 0 .5.1 12.5 1.3 13.7-10.1 26.1-8.8 12.5 1.3 11.3 12.7 23.8 14.1 12.5 1.3 13.7-10.1 26.2-8.8 3.9.4 6.4 1.8 8.5 3.5l-12.3-27.4z"/></g><g class="st5"><g class="st12"><defs><path id="SVGID_20_" transform="scale(-1) rotate(6.91 3466.075 -11885.931)" d="M668.9 163.8h97.3v90.9h-97.3z"/></defs><clipPath id="SVGID_21_"><use xlink:href="#SVGID_20_" overflow="visible"/></clipPath><g class="st13"><defs><path id="SVGID_22_" transform="scale(-1) rotate(6.91 3466.083 -11885.932)" d="M668.9 163.8h97.3v90.9h-97.3z"/></defs><clipPath id="SVGID_23_"><use xlink:href="#SVGID_22_" overflow="visible"/></clipPath><g clip-path="url(#SVGID_23_)"><image width="337" height="315" xlink:href="C24EE53B7E5ADC92.png" transform="rotate(6.915 -972.495 5665.767) scale(.2887)" overflow="visible"/></g></g></g><path class="st14" d="M708.3 235c-17.5-1.6-23.5-14.7-13.3-29.1l28.8-40.7c10.2-14.3 24.5-13 31.8 3l20.8 45.3c7.3 16-1 27.7-18.5 26.1l-49.6-4.6z"/><g class="st15"><defs><path id="SVGID_24_" transform="scale(-1) rotate(6.915 3025.337 -11939.008)" d="M691 163.3h60.6v39H691z"/></defs><clipPath id="SVGID_25_"><use xlink:href="#SVGID_24_" overflow="visible"/></clipPath><g class="st16"><defs><path id="SVGID_26_" transform="scale(-1) rotate(6.915 3025.337 -11939.008)" d="M691 163.3h60.6v39H691z"/></defs><clipPath id="SVGID_27_"><use xlink:href="#SVGID_26_" overflow="visible"/></clipPath><g class="st17"><defs><path id="SVGID_28_" transform="scale(-1) rotate(6.91 3028.353 -11948.851)" d="M691 163.3h60.6v39H691z"/></defs><clipPath id="SVGID_29_"><use xlink:href="#SVGID_28_" overflow="visible"/></clipPath><g clip-path="url(#SVGID_29_)"><image width="210" height="135" xlink:href="C24EE53B7E5ADC93.png" transform="rotate(6.915 -976.08 5822.777) scale(.2887)" overflow="visible"/></g></g></g></g><path class="st18" d="M723.2 163.4c10.6-15 25.6-13.6 33.3 3.1l11.3 24.6h-.3c-8.4-.8-7.7-8.5-16.1-9.3-8.4-.8-9.2 6.9-17.6 6.1-8.4-.8-7.7-8.5-16.1-9.3-2.6-.2-4.5.3-6.1 1.2l11.6-16.4z"/><g class="st12"><defs><path id="SVGID_30_" transform="scale(-1) rotate(6.91 3160.905 -10820.878)" d="M590.3 132.1h125.9v117.5H590.3z"/></defs><clipPath id="SVGID_31_"><use xlink:href="#SVGID_30_" overflow="visible"/></clipPath><g class="st19"><defs><path id="SVGID_32_" transform="scale(-1) rotate(6.91 3160.905 -10820.878)" d="M590.3 132.1h125.9v117.5H590.3z"/></defs><clipPath id="SVGID_33_"><use xlink:href="#SVGID_32_" overflow="visible"/></clipPath><g clip-path="url(#SVGID_33_)"><image width="436" height="407" xlink:href="C24EE53B7E5ADC94.png" transform="rotate(6.915 -735.062 5012.522) scale(.2887)" overflow="visible"/></g></g></g><path class="st20" d="M614.7 239.7c-23.1-2.2-31-19.4-17.6-38.3l38-53.6c13.4-18.9 32.3-17.1 42 3.9l27.4 59.8c9.7 21.1-1.3 36.6-24.4 34.4l-65.4-6.2z"/><g class="st15"><defs><path id="SVGID_34_" transform="scale(-1) rotate(6.915 2628.055 -10835.33)" d="M615.7 133.3h77.9v51.1h-77.9z"/></defs><clipPath id="SVGID_35_"><use xlink:href="#SVGID_34_" overflow="visible"/></clipPath><g class="st21"><defs><path id="SVGID_36_" transform="scale(-1) rotate(6.91 2630.744 -10844.287)" d="M615.7 133.3h77.9v51.1h-77.9z"/></defs><clipPath id="SVGID_37_"><use xlink:href="#SVGID_36_" overflow="visible"/></clipPath><g clip-path="url(#SVGID_37_)"><image width="270" height="177" xlink:href="C24EE53B7E5ADC91.png" transform="rotate(6.915 -756.187 5189.977) scale(.2887)" overflow="visible"/></g></g></g><path class="st18" d="M679 151.3c-10-21.8-29.6-23.7-43.5-4.1L615 176.1c.1 0 .3 0 .4.1 11 1 12-9.1 23-8 11 1 10.1 11.1 21.1 12.2 11 1 12-9.1 23-8 3.4.3 5.7 1.5 7.5 3l-11-24.1z"/></g><path class="st22" d="M612.3 219.4s-66.9-30.5-122.1-29.8c-55.2.7-61.1.9-61.1.9s31.6-34.5 68.7-12.4c4.5-11.2 13.9-3.9 13.9-3.9s5.6-45 34.7-41.1c29.1 3.9 57.3 30.7 45.1 60.3 15.5-4.7 20.8 26 20.8 26"/><path class="st23 st24" d="M612.7 219.7l-.7-.3c-.2-.1-16.6-7.5-39.5-14.9-21.6-6.9-53.6-15.2-82.4-14.9-54.6.7-61 .9-61.1.9h-.9l.6-.7c.2-.2 18.5-19.9 43.3-19.9 8.7 0 17.3 2.4 25.5 7.2 1.7-4 4.3-6.1 7.6-6.1 2.7 0 5.1 1.3 6.1 2 .4-2.4 1.9-11.3 5.8-20.1 6-13.7 14.9-20.9 25.8-20.9 1.1 0 2.3.1 3.5.2 17.9 2.4 34.8 13.1 43.1 27.4 6 10.4 6.9 21.7 2.6 32.7.8-.2 1.6-.3 2.4-.3 13.3 0 17.9 25.8 18.1 26.9l.2.8zm-120.8-30.9c28.4 0 59.6 8.1 80.8 14.9 20.3 6.5 35.5 13.1 38.9 14.6-.9-4.3-5.7-25.5-17.1-25.5-1 0-2 .2-3 .5l-.8.2.3-.8c4.5-10.9 3.7-22.3-2.3-32.7-8.1-14.1-24.8-24.7-42.5-27-1.2-.2-2.3-.2-3.4-.2-13.3 0-20.9 11.1-25 20.4-4.5 10.2-5.8 20.5-5.8 20.6l-.1.7-.5-.4s-2.9-2.2-6.2-2.2c-3.1 0-5.5 2-7.1 6l-.2.4-.4-.2c-8.2-4.9-16.7-7.3-25.5-7.3-21.8 0-38.6 15.5-42.1 19 3.2-.1 15.7-.3 60.1-.9.7-.1 1.3-.1 1.9-.1z"/><g class="st5"><g class="st12"><defs><path id="SVGID_38_" transform="scale(-1) rotate(-6.212 -3340.443 2523.056)" d="M88.3 135.8h97.3v90.9H88.3z"/></defs><clipPath id="SVGID_39_"><use xlink:href="#SVGID_38_" overflow="visible"/></clipPath><g class="st25"><defs><path id="SVGID_40_" transform="scale(-1) rotate(-6.212 -3340.449 2523.048)" d="M88.3 135.8h97.3v90.9H88.3z"/></defs><clipPath id="SVGID_41_"><use xlink:href="#SVGID_40_" overflow="visible"/></clipPath><g clip-path="url(#SVGID_41_)"><image width="337" height="315" xlink:href="C24EE53B7E5ADC90.png" transform="matrix(.287 -.03122 .03122 .287 83.63 141.311)" overflow="visible"/></g></g></g><path class="st14" d="M116.8 223.7c-17.4 2.4-26.2-9-19.6-25.3l18.9-46.2c6.6-16.3 20.9-18.2 31.7-4.3l30.5 39.4c10.8 13.9 5.3 27.2-12.1 29.6l-49.4 6.8z"/><g class="st15"><defs><path id="SVGID_42_" transform="scale(-1) rotate(-6.212 -2850.293 2480.711)" d="M104.3 135.2h60.6v39h-60.6z"/></defs><clipPath id="SVGID_43_"><use xlink:href="#SVGID_42_" overflow="visible"/></clipPath><g class="st26"><defs><path id="SVGID_44_" transform="scale(-1) rotate(-6.212 -2850.293 2480.711)" d="M104.3 135.2h60.6v39h-60.6z"/></defs><clipPath id="SVGID_45_"><use xlink:href="#SVGID_44_" overflow="visible"/></clipPath><g class="st27"><defs><path id="SVGID_46_" transform="scale(-1) rotate(-6.212 -2850.296 2480.698)" d="M104.3 135.2h60.6v39h-60.6z"/></defs><clipPath id="SVGID_47_"><use xlink:href="#SVGID_46_" overflow="visible"/></clipPath><g clip-path="url(#SVGID_47_)"><image width="210" height="135" xlink:href="C24EE53B7E5ADC8F.png" transform="matrix(.287 -.03122 .03122 .287 102.365 138.56)" overflow="visible"/></g></g></g></g><path class="st18" d="M115.1 150.5c7-17 21.9-19.1 33.1-4.5l16.6 21.4c-.1 0-.2 0-.3.1-8.4 1.1-9.4-6.5-17.8-5.4-8.4 1.1-7.3 8.8-15.7 10-8.4 1.1-9.4-6.5-17.8-5.4-2.6.4-4.3 1.3-5.6 2.6l7.5-18.8z"/><g class="st12"><defs><path id="SVGID_48_" transform="scale(-1) rotate(-6.212 -3278.783 1291.912)" d="M7.2 119.2h125.9v117.5H7.2z"/></defs><clipPath id="SVGID_49_"><use xlink:href="#SVGID_48_" overflow="visible"/></clipPath><g class="st28"><defs><path id="SVGID_50_" transform="scale(-1) rotate(-6.212 -3278.783 1291.912)" d="M7.2 119.2h125.9v117.5H7.2z"/></defs><clipPath id="SVGID_51_"><use xlink:href="#SVGID_50_" overflow="visible"/></clipPath><g clip-path="url(#SVGID_51_)"><image width="436" height="407" xlink:href="C24EE53B7E5ADCAA.png" transform="matrix(.287 -.03122 .03122 .287 1.19 126.312)" overflow="visible"/></g></g></g><path class="st20" d="M43.6 234.3c-23 3.1-34.6-11.9-25.8-33.3l24.9-60.9c8.8-21.5 27.6-24 41.8-5.7l40.3 52c14.2 18.3 7 35.9-15.9 39l-65.3 8.9z"/><g class="st15"><defs><path id="SVGID_52_" transform="scale(-1) rotate(-6.212 -2698.427 1183.376)" d="M25.2 120.9h77.9V172H25.2z"/></defs><clipPath id="SVGID_53_"><use xlink:href="#SVGID_52_" overflow="visible"/></clipPath><g class="st29"><defs><path id="SVGID_54_" transform="scale(-1) rotate(-6.212 -2698.416 1183.368)" d="M25.2 120.9h77.9V172H25.2z"/></defs><clipPath id="SVGID_55_"><use xlink:href="#SVGID_54_" overflow="visible"/></clipPath><g clip-path="url(#SVGID_55_)"><image width="270" height="177" xlink:href="156721994321E227.png" transform="matrix(.287 -.03122 .03122 .287 22.71 125.231)" overflow="visible"/></g></g></g><path class="st18" d="M86.3 133.6c-14.7-19-34.2-16.3-43.3 5.9l-13.4 32.8h.4c11-1.5 9.6-11.5 20.6-13 11-1.5 12.3 8.6 23.3 7.1s9.6-11.5 20.6-13c3.4-.5 5.9.2 8 1.3l-16.2-21.1z"/><g class="st12"><defs><path id="SVGID_56_" transform="scale(-1) rotate(-6.212 -3991.627 87.716)" d="M-58.2 157.8H67.7v117.5H-58.2z"/></defs><clipPath id="SVGID_57_"><use xlink:href="#SVGID_56_" overflow="visible"/></clipPath><g class="st30"><defs><path id="SVGID_58_" transform="scale(-1) rotate(-6.212 -3991.627 87.716)" d="M-58.2 157.8H67.7v117.5H-58.2z"/></defs><clipPath id="SVGID_59_"><use xlink:href="#SVGID_58_" overflow="visible"/></clipPath><g clip-path="url(#SVGID_59_)"><image width="436" height="407" xlink:href="156721994321E239.png" transform="matrix(.287 -.03122 .03122 .287 -64.148 164.992)" overflow="visible"/></g></g></g><path class="st20" d="M-21.7 272.9c-23 3.1-34.6-11.9-25.8-33.3l24.9-60.9c8.8-21.5 27.6-24 41.8-5.7l40.3 52c14.2 18.3 7 35.9-15.9 39l-65.3 8.9z"/><g class="st15"><defs><path id="SVGID_60_" transform="scale(-1) rotate(-6.212 -3411.271 -20.84)" d="M-40.1 159.5h77.9v51.1h-77.9z"/></defs><clipPath id="SVGID_61_"><use xlink:href="#SVGID_60_" overflow="visible"/></clipPath><g class="st31"><defs><path id="SVGID_62_" transform="scale(-1) rotate(-6.212 -3411.263 -20.83)" d="M-40.1 159.5h77.9v51.1h-77.9z"/></defs><clipPath id="SVGID_63_"><use xlink:href="#SVGID_62_" overflow="visible"/></clipPath><g clip-path="url(#SVGID_63_)"><image width="270" height="177" xlink:href="156721994321E23A.png" transform="matrix(.287 -.03122 .03122 .287 -42.629 163.911)" overflow="visible"/></g></g></g><path class="st18" d="M20.9 172.3c-14.7-19-34.2-16.3-43.3 5.9L-35.8 211h.4c11-1.5 9.6-11.5 20.6-13 11-1.5 12.3 8.6 23.3 7.1s9.6-11.5 20.6-13c3.4-.5 5.9.2 8 1.3l-16.2-21.1z"/></g><g class="st5"><g class="st12"><defs><path id="SVGID_64_" d="M262.5 120.5h97.2v91h-97.2z"/></defs><clipPath id="SVGID_65_"><use xlink:href="#SVGID_64_" overflow="visible"/></clipPath><g class="st32"><defs><path id="SVGID_66_" d="M262.5 120.5h97.2v91h-97.2z"/></defs><clipPath id="SVGID_67_"><use xlink:href="#SVGID_66_" overflow="visible"/></clipPath><g clip-path="url(#SVGID_67_)"><image width="337" height="315" xlink:href="156721994321E23B.png" transform="translate(262.202 120.589) scale(.2887)" overflow="visible"/></g></g></g><path class="st14" d="M286.3 206.1c-17.6.5-25.1-11.8-16.7-27.2l23.7-43.8c8.4-15.5 22.8-15.9 32-.9l26.1 42.5c9.2 15 2.4 27.6-15.2 28.1l-49.9 1.3z"/><g class="st15"><defs><path id="SVGID_68_" d="M281.3 119.7h60.4v39.2h-60.4z"/></defs><clipPath id="SVGID_69_"><use xlink:href="#SVGID_68_" overflow="visible"/></clipPath><g class="st33"><defs><path id="SVGID_70_" d="M281.3 119.7h60.4v39.2h-60.4z"/></defs><clipPath id="SVGID_71_"><use xlink:href="#SVGID_70_" overflow="visible"/></clipPath><g class="st34"><defs><path id="SVGID_72_" d="M281.3 119.7h60.4v39.2h-60.4z"/></defs><clipPath id="SVGID_73_"><use xlink:href="#SVGID_72_" overflow="visible"/></clipPath><g clip-path="url(#SVGID_73_)"><image width="210" height="135" xlink:href="156721994321E23C.png" transform="translate(281.124 119.88) scale(.2887)" overflow="visible"/></g></g></g></g><path class="st18" d="M292.4 133.1c8.8-16.2 23.8-16.6 33.4-.9l14.2 23.1h-.3c-8.5.2-8.7-7.5-17.1-7.3-8.5.2-8.3 8-16.7 8.2-8.5.2-8.7-7.5-17.1-7.3-2.6.1-4.4.9-5.9 1.9l9.5-17.7z"/><g class="st12"><defs><path id="SVGID_74_" d="M181.7 97h126.2v117.6H181.7z"/></defs><clipPath id="SVGID_75_"><use xlink:href="#SVGID_74_" overflow="visible"/></clipPath><g class="st35"><defs><path id="SVGID_76_" d="M181.7 97h126.2v117.6H181.7z"/></defs><clipPath id="SVGID_77_"><use xlink:href="#SVGID_76_" overflow="visible"/></clipPath><g clip-path="url(#SVGID_77_)"><image width="436" height="407" xlink:href="156721994321E23F.png" transform="translate(181.868 96.76) scale(.2887)" overflow="visible"/></g></g></g><path class="st20" d="M212.4 208.7c-23.2.6-33.1-15.5-22.1-35.9l31.3-57.8c11-20.4 30-20.9 42.1-1.2l34.4 56c12.1 19.8 3.1 36.4-20.1 37.1l-65.6 1.8z"/><g class="st15"><defs><path id="SVGID_78_" d="M203.7 97.7h77.6v51.7h-77.6z"/></defs><clipPath id="SVGID_79_"><use xlink:href="#SVGID_78_" overflow="visible"/></clipPath><g class="st36"><defs><path id="SVGID_80_" d="M203.7 97.7h77.6v51.7h-77.6z"/></defs><clipPath id="SVGID_81_"><use xlink:href="#SVGID_80_" overflow="visible"/></clipPath><g clip-path="url(#SVGID_81_)"><image width="270" height="177" xlink:href="156721994321E238.png" transform="translate(203.377 98.014) scale(.2887)" overflow="visible"/></g></g></g><path class="st18" d="M265.7 113.2c-12.6-20.5-32.2-19.9-43.7 1.2l-16.9 31.1h.4c11.1-.3 10.8-10.4 21.8-10.7 11.1-.3 11.3 9.8 22.4 9.5 11.1-.3 10.8-10.4 21.9-10.7 3.4-.1 5.8.8 7.8 2.1l-13.7-22.5z"/></g><path class="st22" d="M134.1 207.9s100.5-22 182.1-17.7c81.5 4.4 90.2 4.9 90.2 4.9s-44.7-32.2-100.8-15.4c-5.9-10.1-20.3-4.4-20.3-4.4s-5.7-39.5-48.9-38.2c-43.3 1.4-86.4 22.9-70.1 49.4-22.6-5-32.2 21.4-32.2 21.4"/><path class="st23 st24" d="M133.4 208l.2-.7c0-.1 2.1-5.6 6.4-11.1 5.7-7.3 12.8-11.1 20.5-11.1 1.6 0 3.2.2 4.8.5-4-6.9-4.2-13.7-.7-20.3 8.5-15.7 38.6-27.9 71.5-29h2.2c21.5 0 33.2 10.5 39.2 19.3 5.7 8.3 7.5 16.7 7.9 18.8 1.2-.4 4.6-1.5 8.4-1.5 5.3 0 9.3 2 11.7 5.9 10.7-3.2 21.7-4.8 32.8-4.8 39.3 0 67.8 20.1 68 20.3l1.1.8-1.4-.1c-.1 0-9.6-.6-90.2-4.9-7.1-.4-14.6-.6-22.4-.6-75.5 0-158.8 18.1-159.6 18.2l-.4.3zm27.1-22.1c-16.2 0-24.4 17.3-25.9 21 8.4-1.8 87.2-18.1 159.1-18.1 7.8 0 15.3.2 22.4.6 65.5 3.5 84 4.6 88.7 4.8-5.8-3.8-31.9-19.4-66.4-19.4-11.1 0-22.2 1.6-32.9 4.8l-.3.1-.2-.3c-2.3-3.8-6-5.8-11.2-5.8-4.5 0-8.5 1.6-8.6 1.6l-.5.2-.1-.5c0-.1-1.4-9.6-7.9-19-5.9-8.6-17.4-18.9-38.5-18.9H236c-32.7 1-62.5 13.1-70.9 28.6-3.5 6.5-3.1 13.3 1.1 20.2l.5.8-.9-.2c-1.6-.3-3.5-.5-5.3-.5z"/><path class="st22" d="M-39.4 223.5s100.5-22 182.1-17.7c81.5 4.4 90.2 4.9 90.2 4.9s-44.7-32.2-100.8-15.4c-5.9-10.1-20.3-4.4-20.3-4.4s-5.7-39.5-48.9-38.2c-43.2 1.4-86.4 22.9-70.1 49.4-22.7-4.9-32.2 21.4-32.2 21.4"/><path class="st37" d="M62.7 153.1h2.2c21.1 0 32.6 10.3 38.5 18.9 6.4 9.4 7.8 18.9 7.9 19l.1.5.5-.2s4-1.6 8.6-1.6c5.2 0 8.9 1.9 11.2 5.8l.2.3.3-.1c4-1.2 8.2-2.2 12.3-2.9l1.3-1c-4.5.8-9 1.8-13.4 3.1-2.4-3.9-6.5-5.9-11.8-5.9-3.8 0-7.2 1-8.4 1.5-.4-2.1-2.2-10.5-7.9-18.8-6-8.8-17.7-19.3-39.2-19.3h-2.2c-33 1.1-63.1 13.2-71.5 29-3.5 6.6-3.3 13.4.7 20.3-1.6-.3-3.3-.5-4.8-.5-7.7 0-14.8 3.8-20.5 11.1-4.3 5.5-6.3 11-6.4 11.1l-.2.7.7-.2c.8-.2 84.1-18.2 159.6-18.2 7.8 0 15.3.2 22.4.6v-.8c-7.1-.4-14.6-.6-22.4-.6-71.8 0-150.7 16.3-159.1 18.1 1.5-3.7 9.7-21 25.9-21 1.8 0 3.7.2 5.5.6l.9.2-.5-.8c-4.2-6.9-4.6-13.7-1.1-20.2 8.1-15.7 37.9-27.7 70.6-28.7z"/><path class="st22" d="M773.7 231.2s-99.3-26.9-181-26.6c-81.7.3-90.3.5-90.3.5s46.3-29.9 101.4-10.5c6.4-9.8 20.5-3.4 20.5-3.4s7.6-39.2 50.7-35.7 85.2 27.1 67.6 52.8c22.9-3.9 31.1 22.9 31.1 22.9"/><path class="st37" d="M675.2 155.8c-.7-.1-1.5-.1-2.2-.1-21.1-1-33.1 8.7-39.4 17-6.9 9-8.8 18.4-8.8 18.5l-.1.5-.5-.2s-3.9-1.8-8.5-2c-5.2-.3-9 1.5-11.5 5.2l-.2.3-.3-.1c-3.9-1.4-8.1-2.6-12.1-3.5l-1.2-1.1c4.4 1 8.9 2.2 13.2 3.8 2.6-3.8 6.8-5.6 12.1-5.3 3.8.2 7.2 1.4 8.4 1.9.5-2 2.7-10.4 8.8-18.4 6.4-8.5 18.6-18.4 40.1-17.3.7 0 1.5.1 2.2.1 32.9 2.7 62.3 16.3 70 32.5 3.2 6.7 2.6 13.5-1.7 20.2 1.7-.2 3.3-.3 4.8-.2 7.7.4 14.6 4.6 20 12.1 4 5.7 5.8 11.3 5.8 11.4l.2.7-.7-.2c-.8-.2-83.1-22.3-158.5-26.1-7.7-.4-15.3-.6-22.4-.5v-.8c7.1 0 14.6.1 22.4.5 71.8 3.5 149.7 23.7 158 25.9-1.4-3.7-8.6-21.5-24.8-22.3-1.8-.1-3.7 0-5.6.4l-.9.2.5-.8c4.6-6.7 5.3-13.5 2.1-20.2-7.4-16-36.6-29.4-69.2-32.1z"/><g class="st38"><defs><path id="SVGID_82_" transform="rotate(-172.35 504.457 32.625)" d="M420.5 6.2h167.8V59H420.5z"/></defs><clipPath id="SVGID_83_"><use xlink:href="#SVGID_82_" overflow="visible"/></clipPath><path class="st39" d="M584.1 71.5s-58.6-26.2-108.8-31.8c-50.1-5.7-55.5-6.2-55.5-6.2s31-17.7 63.1 0c4.8-6.4 12.8-.9 12.8-.9s8-27.1 34.2-21.5c26.2 5.6 50 25.3 36.9 42.1 14.5-1.1 17.3 18.3 17.3 18.3"/></g><path class="st4" d="M740.7 8.7c11.7-13.1-6.8-30.6-28-36.8-21.2-6.1-29.4 15.7-29.4 15.7s-6.3-5-10.6 0c-25.5-16.4-23.9-3-23.9-3s-23.7.1 17.2 7.6c40.9 7.6 87.7 32.5 87.7 32.5s-1.2-16-13-16z"/><g class="st23"><path class="st40" d="M400.1 276.7c-38.6-3-55.6 3.3-52.6-35.3l6.3-47.1c12.6 1.7 13.4 16.4 27.5 16.4 15 0 15-16.6 29.9-16.6 15 0 15 16.6 29.9 16.6 15 0 15-16.6 30-16.6 12.3 0 14.5 11.2 23.3 15.2-1.9 1.9-4.1 3.5-6.5 4.8v38.1c-3 38.6-39.1 22.9-77.7 19.9l-10.1 4.6z"/><path class="st41" d="M494.3 209.3c-8.8-4-10.9-15.2-23.3-15.2-15 0-15 16.6-30 16.6s-15-16.6-29.9-16.6c-15 0-15 16.6-29.9 16.6-14.1 0-14.9-14.7-27.5-16.4l4.4-33.3c7.8 2.8 9.5 11.5 20.2 11.5 12.7 0 12.7-12.4 25.5-12.4 12.7 0 12.7 12.4 25.5 12.4 12.7 0 12.7-12.4 25.5-12.4 12.7 0 12.7 12.4 25.5 12.4 5.3 0 8.4-2.2 11.1-4.7 7.3 5.4 11.8 14.4 11 24.1-.6 6.9-3.6 12.9-8.1 17.4"/><path class="st42" d="M491.4 101.7v.1c-11-1.1-11.7-12.2-23.8-12.1-12.7.1-12.7 12.5-25.4 12.6-12.7.1-12.9-12.3-25.6-12.2-12.7.1-12.7 12.5-25.4 12.6-12.1.1-12.8-11.1-23.7-12.1 2.3-13.3 7.4-25.3 15-34.7 8 2.9 9.8 11.5 20.9 11.5 13.3 0 13.3-12.4 26.5-12.4 13.3 0 13.3 12.4 26.6 12.4 10.8 0 12.9-8.2 20.4-11.3 9.3 12.1 14.5 28.1 14.5 45.6"/><path class="st40" d="M490.4 122.5c-2.4-1.7-5.2-2.7-8.8-2.7-16.4 0-16.4 21.9-32.7 21.9-16.4 0-16.4-21.9-32.7-21.9-16.4 0-16.4 21.9-32.7 21.9-10.9 0-14.5-9.7-20.6-16.2l3.5-26.3c.2-2.9.6-5.7 1.1-8.5 10.9 1.1 11.6 12.2 23.7 12.1 12.7-.1 12.6-12.5 25.4-12.6 12.7-.1 12.8 12.3 25.6 12.2 12.7-.1 12.6-12.5 25.4-12.6 12.1-.1 12.8 11.1 23.7 12.1 0 2.3-.1 4.6-.3 7l-.6 13.6z"/><path class="st43" d="M490.4 122.5l-1.6 43.7c.8.5 1.7 1 2.4 1.6-2.7 2.5-5.8 4.7-11.1 4.7-12.7 0-12.7-12.4-25.5-12.4-12.7 0-12.7 12.4-25.5 12.4-12.7 0-12.7-12.4-25.5-12.4-12.7 0-12.7 12.4-25.5 12.4-10.7 0-12.4-8.7-20.2-11.5l4.7-35.5c6.1 6.5 9.7 16.2 20.6 16.2 16.4 0 16.4-21.9 32.7-21.9 16.4 0 16.4 21.9 32.7 21.9 16.4 0 16.4-21.9 32.7-21.9 3.9 0 6.7 1 9.1 2.7"/><path class="st44" d="M476.7 56.1c-7.5 3.1-9.5 11.3-20.3 11.3-13.3 0-13.3-12.4-26.6-12.4s-13.3 12.4-26.5 12.4c-11 0-12.9-8.6-20.9-11.5 11.9-15 29.8-23.8 51.6-22.1 18.4 1.4 32.9 9.7 42.7 22.3"/><g><path class="st45" d="M449.1 143.5c-8.7 0-13-5.8-17.1-11.3-4.1-5.4-7.9-10.6-15.6-10.6-7.7 0-11.5 5.1-15.6 10.5-4.2 5.6-8.5 11.3-17.2 11.3s-13-5.8-17.1-11.3c-1.3-1.8-2.7-3.6-4.2-5.2l1.4-1.3c1.6 1.7 3 3.5 4.3 5.3 4.1 5.4 7.9 10.5 15.6 10.5 7.7 0 11.5-5.1 15.6-10.5 4.2-5.6 8.5-11.3 17.2-11.3s13 5.8 17.2 11.3c4.1 5.4 7.9 10.5 15.6 10.5 7.7 0 11.5-5.1 15.6-10.6 4.2-5.6 8.5-11.3 17.2-11.3 3.5 0 6.6.9 9.3 2.9l-1.1 1.6c-2.4-1.7-5.1-2.5-8.2-2.5-7.7 0-11.5 5.1-15.6 10.5-4.3 5.8-8.7 11.5-17.3 11.5z"/></g></g><path class="st46" d="M362.9 125.6c2.4 2.6 4.4 5.7 6.6 8.4 3.4 4.1 7.3 7.4 13.7 7.4 16.4 0 16.4-21.9 32.8-21.9s16.4 21.9 32.8 21.9 16.4-21.9 32.8-21.9"/><path class="st47" d="M491.4 100.9h.6c-5.3 0-7.7-2.3-10.4-5-.3-.3-.6-.8-1-1.1-3.2-3.1-6.6-6.5-13.2-6.5h-.2c-6.7.8-10 3.3-13.2 6.5-3.1 3.1-6.1 6.1-12.2 6.1h-.1c-6 0-8.9-2.6-12.1-5.7-3.2-3.1-6.6-6.1-13.2-6.1h-.2c-6.7 0-10 3.3-13.2 6.5-3.1 3.1-6.1 6-12.2 6.1h-.1c-5.6 0-8.8-2.8-12.1-5.7-3-2.7-6.2-5.5-11.3-6.1-.4 0-.8.3-.8.7 0 .2 0 .4.2.6.1.2.3.3.5.3 4.7.5 7.5 2.7 10.5 5.3 3.4 3 6.8 5.8 13.1 5.8h.2c6.7 0 10-3 13.2-6.2 3.1-3.1 6.1-5.9 12.2-5.9l.2.1c5.9 0 8.9 2.9 12.1 5.9 3.2 3.1 6.6 6.3 13.2 6.3h.2c6.7-.1 10-3.4 13.2-6.6 3.1-3.1 6.1-6.2 12.2-6.2h.2c6 0 8.9 3 12.1 6 .3.3.6.7.9 1 2.8 2.8 4.7 5.4 10.6 5.4h1c.4 0 0-.3 0-.7-.2-.5-.5-.8-.9-.8z"/><path class="st48" d="M445.3 62.9c2.7 2.3 5.9 4.1 11 4.1 10.4 0 12.7-7.7 19.6-11M387.3 58.6c4.4 3.6 7.5 8.5 15.8 8.5 13.3 0 13.3-12.4 26.5-12.4 5 0 8.1 1.7 10.7 3.9"/><g class="st49"><clipPath id="SVGID_85_"><use xlink:href="#SVGID_84_" overflow="visible"/></clipPath></g><g class="st50"><clipPath id="SVGID_87_"><use xlink:href="#SVGID_86_" overflow="visible"/></clipPath></g><g class="st50"><clipPath id="SVGID_89_"><use xlink:href="#SVGID_88_" overflow="visible"/></clipPath></g><path class="st23 st24" d="M466.3 277.7c-7.7 0-17-2-26.9-4.1-9.7-2.1-19.7-4.2-30-5l-15.9 6.8c-.1 0-.2.1-.4.1-8.3-.6-15.5-.7-21.2-.7-11.2 0-18.7-.1-22.8-4.5-3.8-4.1-4.8-11.7-3.6-27.1l19.1-143.8c1.4-18.6 8.3-35.5 19.3-47.5 11.7-12.7 27.1-19.4 44.6-19.4 1.8 0 3.6.1 5.4.2 18.9 1.5 34.5 10 45.1 24.7 10 13.9 14.7 32.3 13.2 51.9l-2.1 57.6c9.2 5.7 14.4 15.8 13.6 26.6-.7 9.6-6.2 18.1-14.7 22.8v38.1c-1.2 16.1-8.2 23.3-22.7 23.3zm-57.1-10.6c.1 0 .1 0 0 0 10.6.8 20.7 3 30.5 5 9.8 2.1 19.1 4.1 26.6 4.1 13.7 0 20-6.6 21.2-22v-38.5c0-.3.2-.6.4-.7 8.2-4.4 13.6-12.5 14.3-21.7.8-10.3-4.3-20-13.2-25.3-.2-.1-.4-.4-.4-.7l2.1-58.1c1.5-19.3-3.1-37.4-12.9-50.9-10.3-14.3-25.5-22.6-44-24.1-1.8-.1-3.5-.2-5.3-.2-33.8 0-59.4 27-62.4 65.5L347 243.3c-1.2 14.9-.3 22.2 3.2 25.9 3.7 4 10.4 4 21.6 4 5.7 0 12.9 0 21.1.7l15.9-6.8h.4z"/><g class="st51"><defs><path id="SVGID_90_" d="M282.8-35.5h107.4V71.1H282.8z"/></defs><clipPath id="SVGID_91_"><use xlink:href="#SVGID_90_" overflow="visible"/></clipPath></g><path class="st52" d="M292.5 219.3c2.1 0 4.4-1.7 5.1-3.7l1-3.1c.7-2-.3-2.8-2.2-1.8l-2.7 1.5c-1.9 1-4.6.6-6.1-.9l-3.4-3.4c-1.5-1.5-2.8-1-2.8 1.1l-.2 6.3c-.1 2.1 1.7 3.9 3.8 3.9h7.5zM413.6 226.3c-1.9 0-4.1-1.2-4.9-2.9l-1-1.9c-.8-1.7-.1-2.5 1.7-1.9l4.9 1.8c1.8.6 4.5.3 6.1-.7l4.8-3.1c1.6-1 2.9-.3 3 1.5l.2 3.9c.1 1.9-1.4 3.2-3.3 3.2h-11.5z"/><path class="st53" d="M379.5 198.7s-86.6-9.9-95.2 8.7c-8.6 18.6 6.5 34.3 66.3 40.3s130.5-39.7 88.7-43.1c-42-3.5-59.8-5.9-59.8-5.9"/><g class="st5"><defs><path id="SVGID_92_" transform="matrix(-.9988 .048 -.048 -.9988 492.059 27.082)" d="M148.1-11.3h195.3v61.4H148.1z"/></defs><clipPath id="SVGID_93_"><use xlink:href="#SVGID_92_" overflow="visible"/></clipPath><path class="st54" d="M149.7 56.4S220.3 31.9 279 30.3c58.7-1.6 64.9-1.7 64.9-1.7S309.7 5 270.6 22.3c-4.9-7.9-14.8-2.3-14.8-2.3s-6.6-32.2-37.5-28.3c-30.9 3.9-60.4 24.3-47 45.1-16.5-2.7-21.6 19.6-21.6 19.6"/></g><path class="st55 st18" d="M-2.6-15s40.9-20.7 76.4-26.4c35.5-5.8 16.2-5.9 16.2-5.9s.5-12-21.9 1.7c-3.6-4.4-9.2-.2-9.2-.2s-6.7-19-25.1-14.1C15.4-55-1.7-42.5 8.2-31-2.1-31.3-2.6-15-2.6-15"/><path class="st56" d="M499 190.5c-43.2 11.6-127.2.3-139.8-1.5-42.1.6-91.3 1.5-142.9 4.4-81.2 4.6-168 13.4-243.3 26.4v329.4h803V220.5c-19.2-4-55-8.3-95.4-13-66.2-7.6-144.5-15.7-181.4-17.3"/><path class="st23 st57" d="M501.6 215.7c-55.7 16.7-165.2 3-181.7 3.3-188.1 3.5-312.5 32.8-344.5 38.7 0 0 39.3 121.5 313 111.2 273.8-10.3 244.1-78.5 244.1-78.5s118.7 13.1 125.9-45.2c2.6-20-64.6-28.1-156.8-29.5"/><g class="st23"><path class="st58" d="M209.5 234.1s-24.6 5.7-8.6 14.1c16 8.5 32.2 2.5 29.7-2.8-2.5-5.3-3.1-12.7-21.1-11.3M392.3 249.1s12.4-1.7 4.9-6.6c-7.5-4.9-15.8-2.6-14.8.1.9 2.8.9 6.4 9.9 6.5"/><path class="st41" d="M517 212.1s-2.6-7.5-6.4-8.8c8.5 1.2 15.4 8.9 15.4 8.9l2.5-8.4 2.4 7.6s3-7 9.6-7.6c-3.6 6-2.3 9.3-2.3 9.3l-21.2-1z"/><g class="st59"><defs><path id="SVGID_94_" d="M308.7 193.4h189.7v45.5H308.7z"/></defs><clipPath id="SVGID_95_"><use xlink:href="#SVGID_94_" overflow="visible"/></clipPath><path class="st60" d="M357.4 194.1c-6.2 0-17.6-3.6-35.5 5.3-18 9-17.4 26.5-2.4 31.2 15 4.7 77 11.3 113 6.5 36-4.8 63-9.9 64.8-17.8 1.8-7.9 7.5-16.9-29.8-16.9-37.2 0-73 1-88-3.7-15.1-4.7-22.1-4.6-22.1-4.6"/></g><path class="st61" d="M445.2 143.8c0 20.4-16.5 36.9-36.9 36.9s-36.9-16.5-36.9-36.9 16.5-36.9 36.9-36.9 36.9 16.5 36.9 36.9"/><path class="st62" d="M448.8 144s-.1.9-.1 2.6c0 .4 0 .9-.1 1.5s-.2 1.2-.3 1.9c-.1.7-.2 1.5-.4 2.2-.2.8-.4 1.5-.6 2.4-1 3.3-2.5 7.4-5.2 11.3-2.7 4-6.5 8.1-11.5 11.2-5 3.2-11.1 5.4-17.8 6.1-.8.1-1.7.1-2.5.1h-2.7c-1.6-.1-3.1-.2-5-.5-3.6-.5-6.9-1.7-10.2-3.2-3.3-1.5-6.3-3.6-9.2-6-2.8-2.4-5.2-5.3-7.3-8.4-2-3.2-3.6-6.6-4.7-10.3l-.7-2.8c-.3-.9-.3-1.9-.5-2.8-.1-.9-.3-1.9-.3-2.8l-.1-2.9c.1-3.5.5-7.6 1.6-11.2 1.2-3.6 2.7-7.1 4.7-10.3 2.1-3.1 4.5-6 7.3-8.4 2.8-2.4 5.9-4.5 9.2-6 3.3-1.5 6.7-2.7 10.2-3.2 1.7-.4 3.5-.4 5.2-.5H410.4c.8 0 1.5 0 2.4.1 1.7.2 3.5.4 5 .8l2.4.6c.8.2 1.5.5 2.3.8 3 1 5.7 2.5 8.3 4 5 3.2 8.8 7.3 11.5 11.3 2.8 4 4.3 8 5.2 11.3l.6 2.4c.2.8.3 1.5.4 2.1.1.7.2 1.3.3 1.9.1.6.1 1.1.1 1.6.1 1.9.2 2.9.2 2.9l-.3.2zm-7.2-.2s0-.8-.1-2.4c0-.4 0-.8-.1-1.3s-.1-1-.2-1.5-.1-1.1-.3-1.8c-.2-.6-.3-1.3-.5-2-.8-2.7-2-6.1-4.1-9.4-2.1-3.4-5.2-6.8-9.2-9.7-2.1-1.4-4.3-2.7-6.8-3.7-.6-.2-1.3-.5-1.9-.7-.7-.2-1.3-.4-2-.6-1.4-.5-2.7-.6-4-.9-.7-.1-1.5-.1-2.3-.2l-1.2-.1h-1c-1.5.1-3 0-4.5.3-3 .3-6 1.2-9 2.3-3 1.2-5.7 2.9-8.3 4.9-2.6 2.1-4.8 4.6-6.8 7.3-1.9 2.8-3.4 5.9-4.4 9.2-1 3.3-1.4 6.5-1.6 10.3l.1 2.5c0 .9.2 1.7.3 2.6.2.8.2 1.7.5 2.5l.7 2.5c1.1 3.3 2.5 6.4 4.4 9.2 2 2.7 4.2 5.3 6.8 7.3 2.6 2 5.4 3.7 8.3 4.9.7.4 1.5.5 2.2.8.8.2 1.5.5 2.2.7.8.2 1.5.3 2.3.5.7.2 1.5.2 2.2.3 1.4.3 3.1.2 4.7.3h1l1.1-.1c.7-.1 1.5-.1 2.2-.2 5.7-.8 10.8-3 14.9-5.9 4-2.9 7.1-6.3 9.2-9.7 2.2-3.4 3.4-6.7 4.1-9.4.2-.7.3-1.4.5-2 .1-.6.2-1.2.3-1.7.1-.5.2-1 .2-1.4.1-.4.1-1 .1-1.4.1-1.7.1-2.6.1-2.6l-.1.3z"/></g><g class="st23"><defs><path id="SVGID_96_" d="M375.8 144c0 17.7 14.1 32.1 31.4 32.1 17.4 0 31.4-14.4 31.4-32.1 0-17.7-14.1-32.1-31.4-32.1-17.3 0-31.4 14.3-31.4 32.1"/></defs><clipPath id="SVGID_97_"><use xlink:href="#SVGID_96_" overflow="visible"/></clipPath><path class="st63" d="M448.2 144.1c0 18.6-14.8 33.7-32.9 33.7-18.2 0-32.9-15.1-32.9-33.7s14.8-33.7 32.9-33.7c18.1 0 32.9 15.1 32.9 33.7"/></g><path class="st65" d="M475.8 55.6c-2.6 1.2-4.2 2.6-6 4.3-.2.2-.4.4-.7.6-3.3 3.1-6.4 6-12.7 6-6.3 0-9.4-2.9-12.7-6-3.4-3.2-6.9-6.4-13.8-6.4s-10.4 3.3-13.8 6.4c-3.3 3.1-6.4 6-12.7 6-6.3 0-9.4-2.9-12.7-6l-.5-.4c-2-1.9-4-3.7-7.1-4.8l-1 1.3h.1c3 1.1 5.1 3 7.3 5.1 3.4 3.2 6.9 6.4 13.8 6.4s10.4-3.3 13.8-6.4c3.3-3.1 6.4-6 12.7-6 6.3 0 9.4 2.9 12.7 6 3.4 3.2 6.9 6.4 13.8 6.4s10.4-3.3 13.8-6.4c.2-.2.5-.4.7-.7 1.7-1.6 3.3-3.1 5.7-4.1l.1-.1-.8-1.2z"/><path class="st23 st24" d="M775.7 220.4l.3-.8c-68.2-11.6-272.4-30-273.2-30.1v1.2c.8 0 204.8 18 272.9 29.7z"/><path class="st66" d="M585.1 199.4s3.2-7.3 7.5-8.3c-9.6.4-17.5 7-17.5 7l-2.6-8.1-2.9 7.4s-3.1-7.3-10.5-8.5c3.9 6.4 2.3 9.5 2.3 9.5l23.7 1z"/><path class="st23 st24" d="M575 198.5l-2.4-7-2.8 7.1-.6-1.3c0-.1-2.7-6.2-8.8-7.9 1.2 1.7 2.5 6.5 2.4 6.6l-1.4-.1c.1.1.4-.5-2.7-7l-.7-1.1 1.3.2c5.9.9 9.1 5.5 10.4 7.7l3.1-7.8 2.9 8.6c2.2-1.8 8.9-5.8 17.1-6.2l.2 1.2c-3.9.9-7.3 7-7.3 7.1l-1.1-.1c.1-.2 2.3-4.1 5.3-6.6-7.9 1.5-14 6.1-14 6.2l-.9.4zM119.8 201.2l-.1-1.2c140-13.5 233.6-11.5 234.6-11.5v1.2c-1 0-94.6-2-234.5 11.5z"/><path class="st23 st24" d="M-26.7 219.8l-.3-.8c68.2-11.6 148.5-19.3 149.3-19.3v1.2c-.8.1-80.9 7.3-149 18.9z"/><path class="st66" d="M222.1 193.3s-2.6-7.5-6.4-8.8c8.5 1.2 15.4 8.9 15.4 8.9l2.5-8.4 2.4 7.6s3-7 9.6-7.6c-3.6 6-2.3 9.3-2.3 9.3l-21.2-1z"/><path class="st23 st24" d="M231.6 194.3l-.7-.8c-.1-.1-5.4-5.9-12.2-8.1 2.5 2.7 4.2 7.6 4.3 7.9l-1.2-.1c0-.1-2.6-7.3-6-8.5l.3-1.1c7.1 1 13 6.4 15 8.4l2.7-9.3 2.5 8.1c1.2-2.2 4.3-6.2 9.4-6.7l1.2-.1-.6 1c-3.3 5.4-2.5 7.3-2.5 7.3l-1.1-.1c-.2-.3-1-1.6 2-6.7-5.4 1.2-7.9 7-7.9 7.1l-.6 1.5-2.3-7.2-2.3 7.4z"/><path class="st67" d="M339.3-185.3H776v52.5H339.3z"/><g class="st23"><path class="st68" d="M348.6 5.4c-4.6 22.7-23.9 36-46.6 31.4-22.7-4.6-37.3-23.9-32.8-46.6 4.6-22.7 26.6-36 49.3-31.4 22.7 4.6 34.7 24 30.1 46.6"/><path class="st69" d="M343.7 4.5c-4 19.9-21 31.5-40.8 27.5-19.9-4-32.7-21-28.7-40.8 4-19.9 23.4-31.5 43.2-27.5 19.9 4 30.3 20.9 26.3 40.8"/></g></g></g></g><path class="st70" d="M.5-53.1H667v500.5H.5z"/></svg>