<svg id="Capa_1" xmlns="http://www.w3.org/2000/svg" xmlns:xlink="http://www.w3.org/1999/xlink" viewBox="0 0 148.7 79.1"><style>.st0{clip-path:url(#SVGID_2_)}.st1{clip-path:url(#SVGID_4_);fill:#79ca45}.st2{clip-path:url(#SVGID_6_)}.st3{clip-path:url(#SVGID_8_);fill:#72bc43}.st4{clip-path:url(#SVGID_10_)}.st5{clip-path:url(#SVGID_12_)}.st6{clip-path:url(#SVGID_14_)}.st7{clip-path:url(#SVGID_16_);fill:#79ca45}.st8{clip-path:url(#SVGID_18_)}.st9{clip-path:url(#SVGID_20_);fill:#79ca45}.st10{clip-path:url(#SVGID_22_)}.st11{clip-path:url(#SVGID_24_);fill:#72bc43}.st12{clip-path:url(#SVGID_26_)}.st13{clip-path:url(#SVGID_28_)}.st14{clip-path:url(#SVGID_30_)}.st15{clip-path:url(#SVGID_32_);fill:#72bc43}.st16{clip-path:url(#SVGID_34_)}.st17{clip-path:url(#SVGID_36_)}.st18{clip-path:url(#SVGID_38_)}.st19{clip-path:url(#SVGID_40_);fill:#79ca45}.st20{clip-path:url(#SVGID_42_)}.st21{clip-path:url(#SVGID_44_);fill:#72bc43}.st22{clip-path:url(#SVGID_46_)}.st23{clip-path:url(#SVGID_48_)}.st24{clip-path:url(#SVGID_50_)}.st25{clip-path:url(#SVGID_52_);fill:#79ca45}.st26{clip-path:url(#SVGID_54_)}.st27{clip-path:url(#SVGID_56_);fill:#79ca45}.st28{clip-path:url(#SVGID_58_)}.st29{clip-path:url(#SVGID_60_);fill:#79ca45}.st30{clip-path:url(#SVGID_62_)}.st31{clip-path:url(#SVGID_64_);fill:#f5decd}.st32{clip-path:url(#SVGID_66_)}.st33{clip-path:url(#SVGID_68_);fill:#e9a89e}.st34{clip-path:url(#SVGID_70_)}.st35{clip-path:url(#SVGID_72_);fill:#e9a89e}.st36{clip-path:url(#SVGID_74_)}.st37{clip-path:url(#SVGID_76_);fill:#e9a89e}.st38{clip-path:url(#SVGID_78_)}.st39{clip-path:url(#SVGID_80_);fill:#e9a89e}.st40{clip-path:url(#SVGID_82_)}.st41{clip-path:url(#SVGID_84_);fill:#e9a89e}.st42{clip-path:url(#SVGID_86_)}.st43{clip-path:url(#SVGID_88_);fill:#faf1e4}.st44{clip-path:url(#SVGID_90_)}.st45{clip-path:url(#SVGID_92_);fill:#fff}.st46{clip-path:url(#SVGID_94_)}.st47{clip-path:url(#SVGID_96_);fill:#faf1e4}.st48{clip-path:url(#SVGID_98_)}.st49{clip-path:url(#SVGID_100_);fill:#fff}.st50{clip-path:url(#SVGID_102_)}.st51{clip-path:url(#SVGID_104_);fill:#faf1e4}.st52{clip-path:url(#SVGID_106_)}.st53{clip-path:url(#SVGID_108_);fill:#fff}.st54{clip-path:url(#SVGID_110_)}.st55{clip-path:url(#SVGID_112_);fill:#e9a89e}.st56{clip-path:url(#SVGID_114_)}.st57{clip-path:url(#SVGID_116_);fill:#e9a89e}.st58{clip-path:url(#SVGID_118_)}.st59{clip-path:url(#SVGID_120_);fill:#422b2c}.st60{clip-path:url(#SVGID_122_)}.st61{clip-path:url(#SVGID_124_);fill:#422b2c}.st62{clip-path:url(#SVGID_126_)}.st63{clip-path:url(#SVGID_128_);enable-background:new}.st64{clip-path:url(#SVGID_130_)}.st65{clip-path:url(#SVGID_132_)}.st66{clip-path:url(#SVGID_134_);fill:#422b2c}.st67{clip-path:url(#SVGID_136_)}.st68{clip-path:url(#SVGID_138_);fill:#422b2c}.st69{clip-path:url(#SVGID_140_)}.st70{clip-path:url(#SVGID_142_);fill:#422b2c}.st71{clip-path:url(#SVGID_144_)}.st72{clip-path:url(#SVGID_146_);fill:#422b2c}.st73{clip-path:url(#SVGID_148_)}.st74{clip-path:url(#SVGID_150_);fill:#422b2c}.st75{clip-path:url(#SVGID_152_)}.st76{clip-path:url(#SVGID_154_);fill:#422b2c}.st77{clip-path:url(#SVGID_156_)}.st78{clip-path:url(#SVGID_158_);fill:#422b2c}.st79{clip-path:url(#SVGID_160_)}.st80{clip-path:url(#SVGID_162_);fill:#422b2c}.st81{clip-path:url(#SVGID_164_)}.st82{clip-path:url(#SVGID_166_);fill:#422b2c}.st83{clip-path:url(#SVGID_168_)}.st84{clip-path:url(#SVGID_170_);fill:#79ca45}.st85{clip-path:url(#SVGID_172_)}.st86{clip-path:url(#SVGID_174_);fill:#639e3f}</style><defs><path id="SVGID_1_" d="M10 29.4c0 15 11.7 27.2 26.5 28 .3 0 .6.1.9.1H64h-5.3H71c4.7 0 8.6-3.9 8.6-8.6v-6.1c0-1.5 1.1-2.8 2.6-3.1 4.6-1.1 8-5.3 8-10.3 0-5-3.4-9.1-8-10.3h-.1c-1.4-.3-2.4-1.6-2.5-3V9.9c0-3.5-2.1-6.5-5.2-7.8-1-.5-2.2-.7-3.4-.7H58.8h5.3-26.6c-.3 0-.6 0-.9.1C21.8 2.2 10 14.4 10 29.4"/></defs><clipPath id="SVGID_2_"><use xlink:href="#SVGID_1_" overflow="visible"/></clipPath><g class="st0"><defs><path id="SVGID_3_" d="M-172.3-243.2h487.9v365.9h-487.9z"/></defs><clipPath id="SVGID_4_"><use xlink:href="#SVGID_3_" overflow="visible"/></clipPath><path class="st1" d="M7.7-1.1h85v60.9h-85z"/></g><defs><path id="SVGID_5_" d="M45.9 7.3c-12.4 0-22.5 10.1-22.5 22.4 0 6.9 3.2 13.1 8.1 17.2 1.3 1.1 2.7 2 4.3 2.8 1.1.6 2.3 1.1 3.6 1.4 2.1.6 4.3 1 6.5 1 3.3 0 6.4-.7 9.2-2 2.5-1.1 4.8-2.7 6.7-4.7 1-1 2-2.2 2.8-3.4 2.4-3.6 3.7-7.8 3.7-12.4.1-12.2-10-22.3-22.4-22.3M35.9 48c.1-1.4.4-3.1 1.1-4.8l.3 2.1c.1 1.4.4 2.6.9 3.8-.8-.3-1.6-.7-2.3-1.1M56 48c.4-1.4.5-2.9.3-4.4l-.2-6.3c2.8 1.7 4.4 4.1 5.3 6.5-1.6 1.6-3.4 3.1-5.4 4.2m7.7-7.4c-1.7-2.6-4.2-5-7.8-6.4l-.5-12.5c-.6-5.9-5.8-10.2-11.7-9.7-5.9.6-10.2 5.8-9.7 11.7v.2c-1.1.9-1.7 2.2-1.6 3.7.2 1.6 1.2 3 2.7 3.5l1.1 7c-2.1 2.2-3.4 4.8-4.2 7.1-4.3-3.8-7-9.4-7-15.6 0-11.5 9.3-20.8 20.8-20.8s20.8 9.3 20.8 20.8c.1 4.1-1 7.8-2.9 11"/></defs><clipPath id="SVGID_6_"><use xlink:href="#SVGID_5_" overflow="visible"/></clipPath><g class="st2"><defs><path id="SVGID_7_" d="M-172.3-243.2h487.9v365.9h-487.9z"/></defs><clipPath id="SVGID_8_"><use xlink:href="#SVGID_7_" overflow="visible"/></clipPath><path class="st3" d="M21.1 4.9h49.7v49.6H21.1z"/></g><defs><path id="SVGID_9_" d="M45.9 7.3c-12.4 0-22.5 10.1-22.5 22.4 0 6.9 3.2 13.1 8.1 17.2 1.3 1.1 2.7 2 4.3 2.8 1.1.6 2.3 1.1 3.6 1.4 2.1.6 4.3 1 6.5 1 3.3 0 6.4-.7 9.2-2 2.5-1.1 4.8-2.7 6.7-4.7 1-1 2-2.2 2.8-3.4 2.4-3.6 3.7-7.8 3.7-12.4.1-12.2-10-22.3-22.4-22.3M35.9 48c.1-1.4.4-3.1 1.1-4.8l.3 2.1c.1 1.4.4 2.6.9 3.8-.8-.3-1.6-.7-2.3-1.1M56 48c.4-1.4.5-2.9.3-4.4l-.2-6.3c2.8 1.7 4.4 4.1 5.3 6.5-1.6 1.6-3.4 3.1-5.4 4.2m7.7-7.4c-1.7-2.6-4.2-5-7.8-6.4l-.5-12.5c-.6-5.9-5.8-10.2-11.7-9.7-5.9.6-10.2 5.8-9.7 11.7v.2c-1.1.9-1.7 2.2-1.6 3.7.2 1.6 1.2 3 2.7 3.5l1.1 7c-2.1 2.2-3.4 4.8-4.2 7.1-4.3-3.8-7-9.4-7-15.6 0-11.5 9.3-20.8 20.8-20.8s20.8 9.3 20.8 20.8c.1 4.1-1 7.8-2.9 11"/></defs><clipPath id="SVGID_10_"><use xlink:href="#SVGID_9_" overflow="visible"/></clipPath><g class="st4"><defs><path id="SVGID_11_" d="M-172.3-243.2h487.9v365.9h-487.9z"/></defs><clipPath id="SVGID_12_"><use xlink:href="#SVGID_11_" overflow="visible"/></clipPath><path class="st5" d="M21.1 4.9h49.7v49.6H21.1z"/></g><defs><path id="SVGID_13_" d="M52 25.9c-.2-1.8-1.7-3.2-3.5-3.2h-.3c-.9.1-1.8.5-2.4 1.3-.6.7-.9 1.7-.8 2.6.2 1.8 1.7 3.2 3.5 3.2h.3c.9-.1 1.8-.5 2.4-1.3.6-.7.9-1.6.8-2.6"/></defs><clipPath id="SVGID_14_"><use xlink:href="#SVGID_13_" overflow="visible"/></clipPath><g class="st6"><defs><path id="SVGID_15_" d="M-172.3-243.2h487.9v365.9h-487.9z"/></defs><clipPath id="SVGID_16_"><use xlink:href="#SVGID_15_" overflow="visible"/></clipPath><path class="st7" d="M42.5 20.3h11.9v11.9H42.5z"/></g><defs><path id="SVGID_17_" d="M38.9 24.9c-.7-.5-1.5-.8-2.3-.7-1.8.2-3 1.7-2.9 3.5.1.8.5 1.6 1.1 2.2.6.5 1.3.7 2 .7h.3c.8-.1 1.6-.5 2.2-1.1.5-.7.8-1.5.7-2.3 0-1-.4-1.8-1.1-2.3"/></defs><clipPath id="SVGID_18_"><use xlink:href="#SVGID_17_" overflow="visible"/></clipPath><g class="st8"><defs><path id="SVGID_19_" d="M-172.3-243.2h487.9v365.9h-487.9z"/></defs><clipPath id="SVGID_20_"><use xlink:href="#SVGID_19_" overflow="visible"/></clipPath><path class="st9" d="M31.3 21.8h11.1v11.1H31.3z"/></g><defs><path id="SVGID_21_" d="M48.6 28c.3 0 .5-.3.4-.5l-.2-2.6c0-.3-.3-.5-.5-.4-.3 0-.5.3-.4.5l.2 2.6c0 .3.2.5.5.4"/></defs><clipPath id="SVGID_22_"><use xlink:href="#SVGID_21_" overflow="visible"/></clipPath><g class="st10"><defs><path id="SVGID_23_" d="M-172.3-243.2h487.9v365.9h-487.9z"/></defs><clipPath id="SVGID_24_"><use xlink:href="#SVGID_23_" overflow="visible"/></clipPath><path class="st11" d="M45.4 22.1h6v8.4h-6z"/></g><defs><path id="SVGID_25_" d="M48.6 28c.3 0 .5-.3.4-.5l-.2-2.6c0-.3-.3-.5-.5-.4-.3 0-.5.3-.4.5l.2 2.6c0 .3.2.5.5.4"/></defs><clipPath id="SVGID_26_"><use xlink:href="#SVGID_25_" overflow="visible"/></clipPath><g class="st12"><defs><path id="SVGID_27_" d="M-172.3-243.2h487.9v365.9h-487.9z"/></defs><clipPath id="SVGID_28_"><use xlink:href="#SVGID_27_" overflow="visible"/></clipPath><path class="st13" d="M45.4 22.1h6v8.4h-6z"/></g><defs><path id="SVGID_29_" d="M36.8 29.2c.3 0 .5-.3.4-.5L37 26c0-.3-.3-.5-.5-.4-.3 0-.5.3-.4.5l.2 2.6c0 .3.3.5.5.5"/></defs><clipPath id="SVGID_30_"><use xlink:href="#SVGID_29_" overflow="visible"/></clipPath><g class="st14"><defs><path id="SVGID_31_" d="M-172.3-243.2h487.9v365.9h-487.9z"/></defs><clipPath id="SVGID_32_"><use xlink:href="#SVGID_31_" overflow="visible"/></clipPath><path class="st15" d="M33.7 23.2h6v8.4h-6z"/></g><defs><path id="SVGID_33_" d="M36.8 29.2c.3 0 .5-.3.4-.5L37 26c0-.3-.3-.5-.5-.4-.3 0-.5.3-.4.5l.2 2.6c0 .3.3.5.5.5"/></defs><clipPath id="SVGID_34_"><use xlink:href="#SVGID_33_" overflow="visible"/></clipPath><g class="st16"><defs><path id="SVGID_35_" d="M-172.3-243.2h487.9v365.9h-487.9z"/></defs><clipPath id="SVGID_36_"><use xlink:href="#SVGID_35_" overflow="visible"/></clipPath><path class="st17" d="M33.7 23.2h6v8.4h-6z"/></g><defs><path id="SVGID_37_" d="M43.4 35.4c-1.8.2-3.5-.3-4.9-1.3-.7-.5-.8-1.5-.3-2.2.6-.7 1.6-.8 2.3-.3 1.6 1.2 3.9.9 5.2-.6.6-.7 1.6-.8 2.3-.3.7.5.8 1.5.3 2.2-1.1 1.4-2.8 2.3-4.7 2.5h-.2"/></defs><clipPath id="SVGID_38_"><use xlink:href="#SVGID_37_" overflow="visible"/></clipPath><g class="st18"><defs><path id="SVGID_39_" d="M-172.3-243.2h487.9v365.9h-487.9z"/></defs><clipPath id="SVGID_40_"><use xlink:href="#SVGID_39_" overflow="visible"/></clipPath><path class="st19" d="M35.5 28h15.6v9.8H35.5z"/></g><defs><path id="SVGID_41_" d="M43.3 34.4c-1.4.1-2.9-.2-4.1-1.1-.2-.2-.3-.5-.1-.7.2-.2.5-.3.8-.1 2.1 1.5 5.1 1.1 6.7-.8.2-.2.5-.3.8-.1.2.2.3.5.1.7-1.1 1.2-2.6 1.9-4.2 2.1"/></defs><clipPath id="SVGID_42_"><use xlink:href="#SVGID_41_" overflow="visible"/></clipPath><g class="st20"><defs><path id="SVGID_43_" d="M-172.3-243.2h487.9v365.9h-487.9z"/></defs><clipPath id="SVGID_44_"><use xlink:href="#SVGID_43_" overflow="visible"/></clipPath><path class="st21" d="M36.6 29H50v7.8H36.6z"/></g><defs><path id="SVGID_45_" d="M43.3 34.4c-1.4.1-2.9-.2-4.1-1.1-.2-.2-.3-.5-.1-.7.2-.2.5-.3.8-.1 2.1 1.5 5.1 1.1 6.7-.8.2-.2.5-.3.8-.1.2.2.3.5.1.7-1.1 1.2-2.6 1.9-4.2 2.1"/></defs><clipPath id="SVGID_46_"><use xlink:href="#SVGID_45_" overflow="visible"/></clipPath><g class="st22"><defs><path id="SVGID_47_" d="M-172.3-243.2h487.9v365.9h-487.9z"/></defs><clipPath id="SVGID_48_"><use xlink:href="#SVGID_47_" overflow="visible"/></clipPath><path class="st23" d="M36.6 29H50v7.8H36.6z"/></g><defs><path id="SVGID_49_" d="M38.2 37.3c0 .2 0 .3.1.5 0 .2.1.3.1.5s.1.3.1.5c.1.2.1.3.2.5.1.3.3.6.5.8l.3.3c.1.1.3.1.4.1.2 0 .2-.1.4-.2.1-.1.2-.2.3-.4.2-.3.3-.6.3-.9.1-.6.2-1.3.1-2h.4c.1.7.2 1.3.5 1.9.1.3.3.6.5.8l.3.3c.1.1.2.1.3.1.2 0 .2-.1.3-.2l.3-.3c.2-.3.3-.6.3-.9 0-.2.1-.3.1-.5v-.5-.5-.5h.5c.1.7.2 1.3.5 1.9.1.3.3.6.5.8l.3.3c.1 0 .1.1.2.1H46.3l.1-.1.3-.3c.2-.3.3-.6.3-.9.1-.6.2-1.3.1-2h.4c0 .3.1.7.2 1 0 .2.1.3.1.5s.1.3.2.5c.1.3.3.6.5.8l.3.3c.1 0 .1.1.2.1h.1c.1 0 .2 0 .2-.1.1 0 .1-.1.2-.1.1-.1.2-.2.3-.4.2-.3.3-.6.4-.9 0-.2.1-.3.1-.5s0-.3.1-.5v-1s0-.1.1-.1c0 0 .1 0 .1.1 0 .3.1.7.1 1v.5c0 .2 0 .3-.1.5-.1.3-.2.7-.3 1-.1.2-.2.3-.3.4-.1.1-.1.1-.3.2-.1.1-.2.1-.3.1-.2 0-.4 0-.6-.1-.2-.1-.3-.2-.4-.4l-.6-.9c-.3-.6-.4-1.3-.5-2 0-.1.1-.2.2-.2s.2.1.2.2c.1.7.1 1.4-.1 2.1-.1.3-.2.7-.4 1-.1.2-.2.3-.4.5l-.1.1s-.1.1-.2.1c-.1.1-.2.1-.3.1-.1 0 0 0 0 0H45.9c-.1 0-.2-.1-.3-.1-.2-.1-.3-.2-.4-.4l-.6-.9c-.3-.7-.4-1.4-.5-2 0-.1.1-.3.2-.3s.3.1.3.2c.1.7 0 1.4-.1 2.1-.1.3-.2.7-.4 1-.1.2-.2.3-.4.5-.1.1-.4.2-.6.3-.2 0-.4-.1-.6-.2-.2-.1-.3-.2-.4-.4l-.6-.9c-.3-.7-.4-1.3-.5-2 0-.1.1-.2.2-.2s.2.1.2.2c.1.7 0 1.4-.1 2.1-.1.3-.2.7-.4 1-.1.2-.2.3-.4.4-.1.1-.4.2-.6.2-.2 0-.4-.1-.6-.1-.2-.1-.3-.2-.4-.4-.2-.3-.4-.6-.5-.9-.1-.2-.1-.3-.2-.5s-.1-.3-.1-.5-.1-.3-.1-.5v-.5c0-.3.1-.4.2-.3-.1-.1 0-.1 0 0"/></defs><clipPath id="SVGID_50_"><use xlink:href="#SVGID_49_" overflow="visible"/></clipPath><g class="st24"><defs><path id="SVGID_51_" d="M-172.3-243.2h487.9v365.9h-487.9z"/></defs><clipPath id="SVGID_52_"><use xlink:href="#SVGID_51_" overflow="visible"/></clipPath><path class="st25" d="M35.7 33.7h17.4v9.5H35.7z"/></g><defs><path id="SVGID_53_" d="M40.9 41.5c0 .3.1.7.1 1 0 .2 0 .3.1.5 0 .2.1.3.1.5.1.3.2.6.4.9.1.1.2.3.3.4l.3.3c.1.1.2.1.3.1h.2l.1-.1c.1-.1.2-.2.2-.3.1-.1.1-.3.2-.4.1-.3.1-.6.2-.9V43v-.5h.5c0 .5.2 1.1.4 1.6.1.2.2.5.4.7.1.1.2.2.3.2.1.1.2.1.3.1.1 0 .2-.1.3-.1.1-.1.2-.2.2-.3.1-.2.2-.5.3-.7.1-.5.1-1.1.1-1.6h.4c0 .6.2 1.1.4 1.6.1.3.2.5.4.7l.3.3c.1.1.2.1.3.1h.2l.1-.1c.1-.1.2-.2.2-.3.1-.2.2-.5.3-.8.1-.5.2-1.1.1-1.7 0 0 0-.1.1-.1 0 0 .1 0 .1.1.1.6.1 1.2-.1 1.7-.1.3-.1.6-.3.8-.1.1-.2.3-.3.4-.1.1-.1.1-.2.1s-.2.1-.2.1c-.2 0-.4 0-.5-.1-.1-.1-.3-.2-.4-.3-.2-.2-.3-.5-.5-.8-.2-.5-.4-1.1-.4-1.7 0-.1.1-.2.2-.2s.2.1.2.2c.1.6.1 1.2-.1 1.8-.1.3-.1.6-.3.9-.1.1-.2.3-.3.4-.1.1-.3.2-.5.2s-.4 0-.5-.1c-.2-.1-.3-.2-.4-.3-.2-.2-.4-.5-.5-.8-.2-.6-.4-1.1-.4-1.7 0-.1.1-.3.2-.3s.3.1.3.2v1c0 .3-.1.7-.2 1 0 .2-.1.3-.2.5s-.2.3-.3.5l-.1.1s-.1.1-.2.1h-.2c-.2 0-.5-.1-.6-.2-.2-.1-.3-.3-.3-.4-.1-.2-.2-.3-.2-.5-.1-.3-.2-.6-.3-1 0-.2-.1-.3-.1-.5v-.5c0-.3 0-.7-.1-1-.5-.3-.5-.3-.4-.3 0-.1 0 0 0 0"/></defs><clipPath id="SVGID_54_"><use xlink:href="#SVGID_53_" overflow="visible"/></clipPath><g class="st26"><defs><path id="SVGID_55_" d="M-172.3-243.2h487.9v365.9h-487.9z"/></defs><clipPath id="SVGID_56_"><use xlink:href="#SVGID_55_" overflow="visible"/></clipPath><path class="st27" d="M38.4 39.1h12.8V48H38.4z"/></g><g><defs><path id="SVGID_57_" d="M52.5 30.2c-.1 0-.2 0-.2-.1-.1-.1 0-.3.1-.4 1.3-.8 2-2.2 1.9-3.7-.1-1.3-.9-2.5-2.1-3.1-.1-.1-.2-.2-.1-.4.1-.1.2-.2.4-.1 1.4.7 2.3 2 2.4 3.6.2 1.7-.7 3.3-2.1 4.2-.2-.1-.3 0-.3 0"/></defs><clipPath id="SVGID_58_"><use xlink:href="#SVGID_57_" overflow="visible"/></clipPath><g class="st28"><defs><path id="SVGID_59_" d="M-172.3-243.2h487.9v365.9h-487.9z"/></defs><clipPath id="SVGID_60_"><use xlink:href="#SVGID_59_" overflow="visible"/></clipPath><path class="st29" d="M49.6 19.9h7.6v12.6h-7.6z"/></g></g><g><defs><path id="SVGID_61_" d="M73 16.7s2.3-3.4 6.1-.8c2.3 1.5 7.1 3.3 11.4 4.7 2-1.4 4.6-2 7.3-2.2v-.1s3.1-5.1 8.8-4.5c5.7.6 22.9 2.9 29.8 18.7.3 1.1 2.4 11.9-2.5 16.9-5.1 5.2-4.8 12.7-26.6 13.5-21.8.8-14.5-10-22.8-11.3l-5.9-2.8s-1.9-4.8 3.1-7.3c5-2.4 10.9 2.2 10.9 2.2s6.1 8.1 8.4 8.1c2.3.1 2.7-2.6-4.1-6.6-.9-.5-1.5-1-1.8-1.5-2.2-1.2-4.2-2.1-4.9-2.5-.8-.5-7.2-3.7-11.4-7.9-.7-.7-1.3-1.4-1.8-2.1h-.2c0 .2-10.7-5.1-3.8-14.5"/></defs><clipPath id="SVGID_62_"><use xlink:href="#SVGID_61_" overflow="visible"/></clipPath><g class="st30"><defs><path id="SVGID_63_" d="M-172.3-243.2h487.9v365.9h-487.9z"/></defs><clipPath id="SVGID_64_"><use xlink:href="#SVGID_63_" overflow="visible"/></clipPath><path class="st31" d="M68.3 11.4h71.1v53.9H68.3z"/></g></g><g><defs><path id="SVGID_65_" d="M103.6 51.7l-1.1-2.3-2.9-2.7-6.2-3.9-8.5-4.9-4.5-3.5-3.2-3.1-1.8-4.1.6-2.5 1.5-1.8s-1.6 2.8 2.3 7.4c3.9 4.6 24 13 25.3 18.5v.1s.8 2.7-1.5 2.8"/></defs><clipPath id="SVGID_66_"><use xlink:href="#SVGID_65_" overflow="visible"/></clipPath><g class="st32"><defs><path id="SVGID_67_" d="M-172.3-243.2h487.9v365.9h-487.9z"/></defs><clipPath id="SVGID_68_"><use xlink:href="#SVGID_67_" overflow="visible"/></clipPath><path class="st33" d="M73 20.5h34.6v33.6H73z"/></g></g><g><defs><path id="SVGID_69_" d="M71.1 18.5l-1 2.6v2.8l.5 2.1 1.5 2.2 1.3 1.6 2.9 1.8 1-.7-1.2-1.9c0-.1-4.9-3.4-5-10.5"/></defs><clipPath id="SVGID_70_"><use xlink:href="#SVGID_69_" overflow="visible"/></clipPath><g class="st34"><defs><path id="SVGID_71_" d="M-172.3-243.2h487.9v365.9h-487.9z"/></defs><clipPath id="SVGID_72_"><use xlink:href="#SVGID_71_" overflow="visible"/></clipPath><path class="st35" d="M67.7 16.1h12v17.8h-12z"/></g></g><g><defs><path id="SVGID_73_" d="M102 31.8l-14.6-7.9s2.1 4.4 14.6 8.1"/></defs><clipPath id="SVGID_74_"><use xlink:href="#SVGID_73_" overflow="visible"/></clipPath><g class="st36"><defs><path id="SVGID_75_" d="M-172.3-243.2h487.9v365.9h-487.9z"/></defs><clipPath id="SVGID_76_"><use xlink:href="#SVGID_75_" overflow="visible"/></clipPath><path class="st37" d="M85 21.5h19.3v12.8H85z"/></g></g><g><defs><path id="SVGID_77_" d="M91.7 20.4l14.2 4.5L89.7 21z"/></defs><clipPath id="SVGID_78_"><use xlink:href="#SVGID_77_" overflow="visible"/></clipPath><g class="st38"><defs><path id="SVGID_79_" d="M-172.3-243.2h487.9v365.9h-487.9z"/></defs><clipPath id="SVGID_80_"><use xlink:href="#SVGID_79_" overflow="visible"/></clipPath><path class="st39" d="M87.3 18h21v9.3h-21z"/></g></g><g><defs><path id="SVGID_81_" d="M99.2 17.4s11.1 1.2 12.7 3.1l-3.7-.9-2.7-.5H104l-5.9-.3 1.1-1.4z"/></defs><clipPath id="SVGID_82_"><use xlink:href="#SVGID_81_" overflow="visible"/></clipPath><g class="st40"><defs><path id="SVGID_83_" d="M-172.3-243.2h487.9v365.9h-487.9z"/></defs><clipPath id="SVGID_84_"><use xlink:href="#SVGID_83_" overflow="visible"/></clipPath><path class="st41" d="M95.7 15h18.6v7.8H95.7z"/></g></g><g><defs><path id="SVGID_85_" d="M79.3 22s.8-.4 1.8-.4 1.9.3 2.6 1c2.2 2.1 3.3 3.1 3.5 3.4.2.3.5.7-4.1 4.2-.1 0-.1.1-.2.1h-.2c-.2-.1-5.6-2.9-5.6-5.7.2-1.1.9-1.9 2.2-2.6m4 7.6c.1.1.2.1.3.1.1 0 .2 0 .2-.1l2.9-2.4c.1-.1.1-.1.1-.2s0-.2-.1-.2l-.2-.2c-.4-.4-.8-.6-1.2-.6-.6 0-1.2.4-1.5.7-.5.4-.8.8-.9 1.2-.1.5 0 1 .3 1.5 0 0 .1.1.1.2"/></defs><clipPath id="SVGID_86_"><use xlink:href="#SVGID_85_" overflow="visible"/></clipPath><g class="st42"><defs><path id="SVGID_87_" d="M-172.3-243.2h487.9v365.9h-487.9z"/></defs><clipPath id="SVGID_88_"><use xlink:href="#SVGID_87_" overflow="visible"/></clipPath><path class="st43" d="M74.9 19.2h14.9v13.4H74.9z"/></g></g><g><defs><path id="SVGID_89_" d="M82.9 27.9c.1-.4.4-.8.9-1.2.4-.3.9-.7 1.5-.7.4 0 .8.2 1.2.6l.2.2c.1.1.1.2.1.2 0 .1-.1.2-.1.2l-2.9 2.4c-.1.1-.1.1-.2.1s-.2 0-.3-.1c-.1-.1-.1-.1-.1-.2-.4-.5-.5-1-.3-1.5"/></defs><clipPath id="SVGID_90_"><use xlink:href="#SVGID_89_" overflow="visible"/></clipPath><g class="st44"><defs><path id="SVGID_91_" d="M-172.3-243.2h487.9v365.9h-487.9z"/></defs><clipPath id="SVGID_92_"><use xlink:href="#SVGID_91_" overflow="visible"/></clipPath><path class="st45" d="M80.4 23.6h8.8v8.5h-8.8z"/></g></g><g><defs><path id="SVGID_93_" d="M72.7 17.5c1.2-1.9 3.2-2.3 5-.8 1.3 1.1 4.4 2.1 4.4 2.1.1 0 .2.1.2.2s0 .2-.1.3l-1 .8c.1-.1.1-.2.1-.2 0-.1 0-.2-.1-.2l-.2-.2c-.4-.3-.8-.5-1.1-.5-.7 0-1.3.5-1.6.9-.4.5-.7.9-.8 1.3v.3c0 .1.1.4.2.5-1.2.7-2 1.6-2 1.6-.1.1-.2.1-.3.1h-.1c-1-.3-1.8-.7-3-1.8-.1-.1-1.7-1.3.4-4.4"/></defs><clipPath id="SVGID_94_"><use xlink:href="#SVGID_93_" overflow="visible"/></clipPath><g class="st46"><defs><path id="SVGID_95_" d="M-172.3-243.2h487.9v365.9h-487.9z"/></defs><clipPath id="SVGID_96_"><use xlink:href="#SVGID_95_" overflow="visible"/></clipPath><path class="st47" d="M69.3 13.4h15.5V26H69.3z"/></g></g><g><defs><path id="SVGID_97_" d="M80.9 19.7l-.6-.3h-.5l-1 .3-.6.6-.3.7 1.2-.3 1-.3z"/></defs><clipPath id="SVGID_98_"><use xlink:href="#SVGID_97_" overflow="visible"/></clipPath><g class="st48"><defs><path id="SVGID_99_" d="M-172.3-243.2h487.9v365.9h-487.9z"/></defs><clipPath id="SVGID_100_"><use xlink:href="#SVGID_99_" overflow="visible"/></clipPath><path class="st49" d="M75.5 17h7.8v6.4h-7.8z"/></g></g><g><defs><path id="SVGID_101_" d="M88 44.6l-1.6-.6-2.1-.5h-1.6l-.8.4-.8 1-.6 1.3v1.1l.5.9 1.4.6 1.6.6 1.3.6 3-4.9z"/></defs><clipPath id="SVGID_102_"><use xlink:href="#SVGID_101_" overflow="visible"/></clipPath><g class="st50"><defs><path id="SVGID_103_" d="M-172.3-243.2h487.9v365.9h-487.9z"/></defs><clipPath id="SVGID_104_"><use xlink:href="#SVGID_103_" overflow="visible"/></clipPath><path class="st51" d="M78.2 41.1h12.5v11.2H78.2z"/></g></g><g><defs><path id="SVGID_105_" d="M87.4 45.8l-.6-.2-.8.2-.4.4-.4.7-.3.6v.5l.4.9.5.4 1.9-3.2z"/></defs><clipPath id="SVGID_106_"><use xlink:href="#SVGID_105_" overflow="visible"/></clipPath><g class="st52"><defs><path id="SVGID_107_" d="M-172.3-243.2h487.9v365.9h-487.9z"/></defs><clipPath id="SVGID_108_"><use xlink:href="#SVGID_107_" overflow="visible"/></clipPath><path class="st53" d="M82.5 43.3H90v8.4h-7.5z"/></g></g><g><defs><path id="SVGID_109_" d="M103.2 52.1s-3.5-.5-7.5-6.2-12.8-5.6-14.7-3.2c0 0 7.4-3.7 13.6 4.7 6.2 8.4 8.6 4.7 8.6 4.7"/></defs><clipPath id="SVGID_110_"><use xlink:href="#SVGID_109_" overflow="visible"/></clipPath><g class="st54"><defs><path id="SVGID_111_" d="M-172.3-243.2h487.9v365.9h-487.9z"/></defs><clipPath id="SVGID_112_"><use xlink:href="#SVGID_111_" overflow="visible"/></clipPath><path class="st55" d="M78.6 38.8h26.9v16.5H78.6z"/></g></g><g><defs><path id="SVGID_113_" d="M138.1 37l-33.6 26.2 4.9 1.3 31.9-22.8z"/></defs><clipPath id="SVGID_114_"><use xlink:href="#SVGID_113_" overflow="visible"/></clipPath><g class="st56"><defs><path id="SVGID_115_" d="M-172.3-243.2h487.9v365.9h-487.9z"/></defs><clipPath id="SVGID_116_"><use xlink:href="#SVGID_115_" overflow="visible"/></clipPath><path class="st57" d="M102.2 34.6h41.5v32.3h-41.5z"/></g></g><g><defs><path id="SVGID_117_" d="M104 52.4c-.3 0-1.1-.2-1.3 0l-.2-.6c.2-.2.4-.3.6-.5.3-.2.1-.5-.6-1.5-1.8-2.7-7.9-5.8-10.9-7.2-.7-.4-1-.5-1.3-.7-.1-.1-.2-.1-.5-.3-1.8-1-6.9-4.1-10.7-7.8-2.8-2.7-4.1-5.2-3.8-7.5.2-1.9 1.4-3.6 3.6-5.1 0 0 4.7-2.8 9.3 2 4.2 4.3 7 5.4 13.9 7.9l1.1.4c.2.1.3.3.2.4-.1.2-.3.3-.4.2l-1.1-.4c-7-2.6-10.2-3.2-14.3-7.8-3.8-4.4-7.8-2-8-1.9-2.1 1.2-3.1 2.8-3.3 4.5-.2 2.1 1.1 4.1 3.7 6.7 3.7 3.6 9 6.6 10.8 7.5.2.1.4.2.5.3.3.2.8.4 1.5.8 3.2 1.6 8.9 4.8 10.8 7.6.3.5.5.9.6 1.4.1-.1.4 1-.2 1.6"/></defs><clipPath id="SVGID_118_"><use xlink:href="#SVGID_117_" overflow="visible"/></clipPath><g class="st58"><defs><path id="SVGID_119_" d="M-172.3-243.2h487.9v365.9h-487.9z"/></defs><clipPath id="SVGID_120_"><use xlink:href="#SVGID_119_" overflow="visible"/></clipPath><path class="st59" d="M72.9 18h33.8v36.7H72.9z"/></g></g><g><defs><path id="SVGID_121_" d="M98.2 18.3c0-.1 3.3-5.3 9.1-4.7 15.2 1.7 25.3 8 30 18.9 0 .1 3 6.8-.3 13.8-3.1 6.5-5.7 13.3-18 15.7l-.7-.5c12.1-2.4 14.8-9.2 17.7-15.5 3.2-6.6.2-13 .2-13.1-4.6-10.6-14.3-17-29.3-18.3-4.9-.5-7.7 3.9-7.7 4-.1.2-.7.3-.8.2-.2-.1-.2-.3-.2-.5"/></defs><clipPath id="SVGID_122_"><use xlink:href="#SVGID_121_" overflow="visible"/></clipPath><g class="st60"><defs><path id="SVGID_123_" d="M-172.3-243.2h487.9v365.9h-487.9z"/></defs><clipPath id="SVGID_124_"><use xlink:href="#SVGID_123_" overflow="visible"/></clipPath><path class="st61" d="M95.8 11.2h45.1v53.1H95.8z"/></g></g><g><defs><path id="SVGID_125_" d="M146.3 13.6H69.8v62.3h76.5"/></defs><clipPath id="SVGID_126_"><use xlink:href="#SVGID_125_" overflow="visible"/></clipPath><g class="st62"><defs><path id="SVGID_127_" d="M-172.3-243.2h487.9v365.9h-487.9z"/></defs><clipPath id="SVGID_128_"><use xlink:href="#SVGID_127_" overflow="visible"/></clipPath><g class="st63"><defs><path id="SVGID_129_" d="M69.8 14.1H107v19.1H69.8z"/></defs><clipPath id="SVGID_130_"><use xlink:href="#SVGID_129_" overflow="visible"/></clipPath><g class="st64"><defs><path id="SVGID_131_" d="M78.2 32.7c.1 0 .2-.1.3-.2.1-.2.3-.5.1-.5 0 0-6.5-3.1-7.5-7.6-.5-2.4-.1-4.7 1.8-7.4.1-.1 2-2.8 5.3-.8 4.2 2.6 15.5 6 19.2 6.9 4.1.9 8.6 2.2 8.7 2.2.2.1.4-.1.4-.2.1-.2-.1-.4-.2-.4 0 0-4.6-1.3-8.7-2.2-4.4-1-15-4.3-18.7-6.8-1.3-.9-2.6-1.2-3.8-.9-1.8.4-2.8 1.8-2.8 1.9-2.1 2.8-2.7 5.5-2.2 8.2 1.1 4.8 7.8 7.8 8 7.9 0-.1 0-.1.1-.1"/></defs><clipPath id="SVGID_132_"><use xlink:href="#SVGID_131_" overflow="visible"/></clipPath><g class="st65"><defs><path id="SVGID_133_" d="M69.8 13.2h76.7v62.9H69.8z"/></defs><clipPath id="SVGID_134_"><use xlink:href="#SVGID_133_" overflow="visible"/></clipPath><path class="st66" d="M67.5 12.3h41.4v22.8H67.5z"/></g></g></g></g></g><g><defs><path id="SVGID_135_" d="M90.5 21.1c.1 0 .4.1.4.1 6.1-4.7 20.4-.6 20.6-.6.2.1.4 0 .4-.2.1-.2 0-.4-.2-.4-.6-.2-14.7-4.4-21.8.5-.2.1-.2.3-.1.5.1 0 .6.1.7.1"/></defs><clipPath id="SVGID_136_"><use xlink:href="#SVGID_135_" overflow="visible"/></clipPath><g class="st67"><defs><path id="SVGID_137_" d="M-172.3-243.2h487.9v365.9h-487.9z"/></defs><clipPath id="SVGID_138_"><use xlink:href="#SVGID_137_" overflow="visible"/></clipPath><path class="st68" d="M87.4 15.7h26.9v7.8H87.4z"/></g></g><g><defs><path id="SVGID_139_" d="M83.3 30.3c.1 0 .1 0 .2-.1 4.6-3.5 4.3-3.9 4.1-4.2-.2-.3-1.3-1.4-3.5-3.4-.7-.7-1.6-1-2.6-1s-1.8.4-1.8.4c-1.4.7-2.1 1.5-2.1 2.5 0 2.8 5.3 5.6 5.6 5.7 0 .1.1.1.1.1m3.7-4c-.3.5-2.1 1.9-3.7 3.2-1.6-.9-4.8-3-4.8-4.9 0-.7.6-1.4 1.7-1.9 0 0 .7-.3 1.5-.3s1.6.3 2.2.9c.8.6 2.6 2.4 3.1 3"/></defs><clipPath id="SVGID_140_"><use xlink:href="#SVGID_139_" overflow="visible"/></clipPath><g class="st69"><defs><path id="SVGID_141_" d="M-172.3-243.2h487.9v365.9h-487.9z"/></defs><clipPath id="SVGID_142_"><use xlink:href="#SVGID_141_" overflow="visible"/></clipPath><path class="st70" d="M75.2 19.2h14.9v13.4H75.2z"/></g></g><g><defs><path id="SVGID_143_" d="M83.9 29.7c.1 0 .2 0 .2-.1l2.9-2.4c.1-.1.1-.1.1-.2s0-.2-.1-.2c-.4-.5-.9-.8-1.4-.8-.6 0-1.2.4-1.5.7-.5.4-.8.8-.9 1.2-.2.5 0 1.1.5 1.7 0 0 .1.1.2.1m2.4-2.8L84 28.8c-.2-.3-.2-.5-.2-.8.1-.3.3-.6.7-.9.8-.6 1.3-.7 1.8-.2"/></defs><clipPath id="SVGID_144_"><use xlink:href="#SVGID_143_" overflow="visible"/></clipPath><g class="st71"><defs><path id="SVGID_145_" d="M-172.3-243.2h487.9v365.9h-487.9z"/></defs><clipPath id="SVGID_146_"><use xlink:href="#SVGID_145_" overflow="visible"/></clipPath><path class="st72" d="M80.7 23.6h8.8v8.5h-8.8z"/></g></g><g><defs><path id="SVGID_147_" d="M78.1 21.7h.1s1.3-.5 2.5-.8c.1 0 .1-.1.2-.1l.6-.6c.1-.1.1-.2.1-.2 0-.1 0-.2-.1-.2-.4-.4-.9-.6-1.3-.6-.7 0-1.3.5-1.6.9-.4.5-.7.9-.8 1.3v.2c0-.1.1.1.3.1zm2.4-1.5c-.6.2-1.3.4-1.8.5.1-.1.2-.2.3-.4.7-.7 1.2-.9 1.7-.5l-.2.4z"/></defs><clipPath id="SVGID_148_"><use xlink:href="#SVGID_147_" overflow="visible"/></clipPath><g class="st73"><defs><path id="SVGID_149_" d="M-172.3-243.2h487.9v365.9h-487.9z"/></defs><clipPath id="SVGID_150_"><use xlink:href="#SVGID_149_" overflow="visible"/></clipPath><path class="st74" d="M75.4 16.7H84v7.4h-8.6z"/></g></g><g><defs><path id="SVGID_151_" d="M75.7 23.6c.1 0 .2 0 .3-.1 0 0 2.1-2.3 4.8-2.6.1 0 .2 0 .2-.1l1.6-1.5c.1-.1.1-.2.1-.3 0-.1-.1-.2-.2-.2 0 0-3.1-1-4.4-2.1-1.8-1.5-3.8-1.1-5 .8-2 3.1-.4 4.4-.4 4.4 1.1 1 1.9 1.4 3 1.7-.1 0 0 0 0 0zm4.8-3.3c-2.5.3-4.4 2.1-4.9 2.6-.8-.3-1.4-.6-2.5-1.6-.1 0-1.1-1.5.5-3.5.7-.9 1.3-1.5 2.4-1.4.4 0 1.1.3 2 .9h.1c1.1.7 2.8 1.3 3.7 1.6l-1.3 1.4z"/></defs><clipPath id="SVGID_152_"><use xlink:href="#SVGID_151_" overflow="visible"/></clipPath><g class="st75"><defs><path id="SVGID_153_" d="M-172.3-243.2h487.9v365.9h-487.9z"/></defs><clipPath id="SVGID_154_"><use xlink:href="#SVGID_153_" overflow="visible"/></clipPath><path class="st76" d="M69.5 13.4H85V26H69.5z"/></g></g><g><defs><path id="SVGID_155_" d="M85.3 50.4c.1 0 .2-.1.3-.2l3-5.1c0-.1.1-.2 0-.3 0-.1-.1-.2-.2-.2-4.5-2.2-6.1-1.5-6.2-1.4-1.5.6-2.2 2.4-2.2 3.8 0 .8.3 1.4.7 1.6 1 .4 1.6.6 2.1.8.7.2 1.1.4 2.4 1h.1m2.5-5.3l-2.6 4.6c-1.1-.5-1.5-.6-2.2-.9l-2-.8c-.2-.1-.3-.4-.3-1 0-1.2.6-2.7 1.8-3.2.1 0 1.6-.5 5.3 1.3"/></defs><clipPath id="SVGID_156_"><use xlink:href="#SVGID_155_" overflow="visible"/></clipPath><g class="st77"><defs><path id="SVGID_157_" d="M-172.3-243.2h487.9v365.9h-487.9z"/></defs><clipPath id="SVGID_158_"><use xlink:href="#SVGID_157_" overflow="visible"/></clipPath><path class="st78" d="M77.6 40.6H91v12.1H77.6z"/></g></g><g><defs><path id="SVGID_159_" d="M85.8 49.5c.1 0 .1-.1.2-.1l1.8-3.3c0-.1.1-.2 0-.3 0-.1-.1-.2-.2-.2-.6-.3-1.1-.4-1.6-.2-.6.2-1 .8-1.2 1.2-.3.6-.5 1.1-.4 1.5.1.6.4 1 1 1.4h.4m1.3-3.4l-1.5 2.6c-.3-.2-.4-.4-.4-.7 0-.3.1-.6.3-1.1.5-.8.9-1.1 1.6-.8"/></defs><clipPath id="SVGID_160_"><use xlink:href="#SVGID_159_" overflow="visible"/></clipPath><g class="st79"><defs><path id="SVGID_161_" d="M-172.3-243.2h487.9v365.9h-487.9z"/></defs><clipPath id="SVGID_162_"><use xlink:href="#SVGID_161_" overflow="visible"/></clipPath><path class="st80" d="M82.1 42.9h8.2v9h-8.2z"/></g></g><g><defs><path id="SVGID_163_" d="M106.8 63.5c3.6 0 12.7-1.2 14.5-2.1l.2-.7c-9.9 2.6-17.7 2-17.8 2-.5-.1-10.2-.8-12.8-7.1-1.7-3.9-5.6-4.5-8-5.6-2.3-1.1-3.9-1.6-3.4-3.6.8-3.3 2.9-4.4 4.7-4.7 4-.7 9.2 1.4 11.5 4.8 2.1 3.1 6.1 7.1 8.3 5.9l-.7-1.2c-1.8 1.2-5.1-2.4-6.9-5.1-2.4-3.6-8.2-6-12.4-5.3-2 .4-4.5 1.6-5.4 5.2-.6 2.6 1.3 3.5 3.4 4.5 2.3 1 6.5 1.7 8.1 5.4 2.9 6.7 12.5 7.4 13.7 7.5 0 .1 1.6.1 3 .1"/></defs><clipPath id="SVGID_164_"><use xlink:href="#SVGID_163_" overflow="visible"/></clipPath><g class="st81"><defs><path id="SVGID_165_" d="M-172.3-243.2h487.9v365.9h-487.9z"/></defs><clipPath id="SVGID_166_"><use xlink:href="#SVGID_165_" overflow="visible"/></clipPath><path class="st82" d="M76 38.4h47.9v27.5H76z"/></g></g><g><defs><path id="SVGID_167_" d="M124.8 75.3c4.7 0 9.7-1.8 13.9-5.1 3.7-2.9 6.2-7.3 6.8-12.5.8-6.6-1.2-13.6-5.6-19.2-.1-.2-.3-.3-.5-.3-.1 0-.3 0-.4.1l-31.2 24.1c-.3.2-.3.5-.2.8 5 10 12.1 12.1 17.2 12.1"/></defs><clipPath id="SVGID_168_"><use xlink:href="#SVGID_167_" overflow="visible"/></clipPath><g class="st83"><defs><path id="SVGID_169_" d="M-172.3-243.2h487.9v365.9h-487.9z"/></defs><clipPath id="SVGID_170_"><use xlink:href="#SVGID_169_" overflow="visible"/></clipPath><path class="st84" d="M105.1 35.9H148v41.8h-42.9z"/></g></g><g><defs><path id="SVGID_171_" d="M139.4 38.9L108.2 63c4.3 8.4 10.5 11.6 16.6 11.6 4.9 0 9.7-2 13.5-4.9 8.6-6.7 8.9-20.7 1.1-30.8m0-1.3c.4 0 .8.2 1 .5 4.5 5.8 6.6 13 5.7 19.7-.7 5.3-3.2 9.9-7.1 12.9-4.3 3.4-9.4 5.2-14.3 5.2-7.5 0-13.8-4.4-17.8-12.3-.3-.6-.1-1.3.4-1.6l31.2-24.1c.3-.2.6-.3.9-.3"/></defs><clipPath id="SVGID_172_"><use xlink:href="#SVGID_171_" overflow="visible"/></clipPath><g class="st85"><defs><path id="SVGID_173_" d="M-172.3-243.2h487.9v365.9h-487.9z"/></defs><clipPath id="SVGID_174_"><use xlink:href="#SVGID_173_" overflow="visible"/></clipPath><path class="st86" d="M104.5 35.2h44.2v43.1h-44.2z"/></g></g></svg>