<svg id="Capa_1" xmlns="http://www.w3.org/2000/svg" xmlns:xlink="http://www.w3.org/1999/xlink" viewBox="0 0 416.2 189.2"><style>.st0{clip-path:url(#SVGID_2_)}.st1{clip-path:url(#SVGID_4_);fill:#3c3}.st2{clip-path:url(#SVGID_6_)}.st3{clip-path:url(#SVGID_8_);fill:#33be33}.st4{clip-path:url(#SVGID_10_)}.st5{clip-path:url(#SVGID_12_)}.st6{clip-path:url(#SVGID_14_)}.st7{clip-path:url(#SVGID_16_);fill:#3c3}.st8{clip-path:url(#SVGID_18_)}.st9{clip-path:url(#SVGID_20_);fill:#3c3}.st10{clip-path:url(#SVGID_22_)}.st11{clip-path:url(#SVGID_24_);fill:#33be33}.st12{clip-path:url(#SVGID_26_)}.st13{clip-path:url(#SVGID_28_)}.st14{clip-path:url(#SVGID_30_)}.st15{clip-path:url(#SVGID_32_);fill:#33be33}.st16{clip-path:url(#SVGID_34_)}.st17{clip-path:url(#SVGID_36_)}.st18{clip-path:url(#SVGID_38_)}.st19{clip-path:url(#SVGID_40_);fill:#3c3}.st20{clip-path:url(#SVGID_42_)}.st21{clip-path:url(#SVGID_44_);fill:#33be33}.st22{clip-path:url(#SVGID_46_)}.st23{clip-path:url(#SVGID_48_)}.st24{clip-path:url(#SVGID_50_)}.st25{clip-path:url(#SVGID_52_);fill:#3c3}.st26{clip-path:url(#SVGID_54_)}.st27{clip-path:url(#SVGID_56_);fill:#3c3}.st28{clip-path:url(#SVGID_58_)}.st29{clip-path:url(#SVGID_60_);fill:#3c3}.st30{clip-path:url(#SVGID_62_)}.st31{clip-path:url(#SVGID_64_);fill:#fc0}.st32{clip-path:url(#SVGID_66_)}.st33{clip-path:url(#SVGID_68_);fill:#ffb400}.st34{clip-path:url(#SVGID_70_)}.st35{clip-path:url(#SVGID_72_);fill:#ffb400}.st36{clip-path:url(#SVGID_74_)}.st37{clip-path:url(#SVGID_76_)}.st38{clip-path:url(#SVGID_78_)}.st39{clip-path:url(#SVGID_80_);fill:#ffe0ce}.st40{clip-path:url(#SVGID_82_)}.st41{clip-path:url(#SVGID_84_);fill:#ffaba0}.st42{clip-path:url(#SVGID_86_)}.st43{clip-path:url(#SVGID_88_);fill:#ffaba0}.st44{clip-path:url(#SVGID_90_)}.st45{clip-path:url(#SVGID_92_);fill:#ffaba0}.st46{clip-path:url(#SVGID_94_)}.st47{clip-path:url(#SVGID_96_);fill:#ffaba0}.st48{clip-path:url(#SVGID_98_)}.st49{clip-path:url(#SVGID_100_);fill:#ffaba0}.st50{clip-path:url(#SVGID_102_)}.st51{clip-path:url(#SVGID_104_);fill:#fff2e5}.st52{clip-path:url(#SVGID_106_)}.st53{clip-path:url(#SVGID_108_);fill:#fff}.st54{clip-path:url(#SVGID_110_)}.st55{clip-path:url(#SVGID_112_);fill:#fff2e5}.st56{clip-path:url(#SVGID_114_)}.st57{clip-path:url(#SVGID_116_);fill:#fff}.st58{clip-path:url(#SVGID_118_)}.st59{clip-path:url(#SVGID_120_);fill:#fff2e5}.st60{clip-path:url(#SVGID_122_)}.st61{clip-path:url(#SVGID_124_);fill:#fff}.st62{clip-path:url(#SVGID_126_)}.st63{clip-path:url(#SVGID_128_);fill:#ffaba0}.st64{clip-path:url(#SVGID_130_)}.st65{clip-path:url(#SVGID_132_);fill:#ffaba0}.st66{clip-path:url(#SVGID_134_)}.st67{clip-path:url(#SVGID_136_);fill:#472728}.st68{clip-path:url(#SVGID_138_)}.st69{clip-path:url(#SVGID_140_);fill:#472728}.st70{clip-path:url(#SVGID_142_)}.st71{clip-path:url(#SVGID_144_);enable-background:new}.st72{clip-path:url(#SVGID_146_)}.st73{clip-path:url(#SVGID_148_)}.st74{clip-path:url(#SVGID_150_);fill:#472728}.st75{clip-path:url(#SVGID_152_)}.st76{clip-path:url(#SVGID_154_);fill:#472728}.st77{clip-path:url(#SVGID_156_)}.st78{clip-path:url(#SVGID_158_);fill:#472728}.st79{clip-path:url(#SVGID_160_)}.st80{clip-path:url(#SVGID_162_);fill:#472728}.st81{clip-path:url(#SVGID_164_)}.st82{clip-path:url(#SVGID_166_);fill:#472728}.st83{clip-path:url(#SVGID_168_)}.st84{clip-path:url(#SVGID_170_);fill:#472728}.st85{clip-path:url(#SVGID_172_)}.st86{clip-path:url(#SVGID_174_);fill:#472728}.st87{clip-path:url(#SVGID_176_)}.st88{clip-path:url(#SVGID_178_);fill:#472728}.st89{clip-path:url(#SVGID_180_)}.st90{clip-path:url(#SVGID_182_);fill:#472728}.st91{clip-path:url(#SVGID_184_)}.st92{clip-path:url(#SVGID_186_);fill:#3c3}.st93{clip-path:url(#SVGID_188_)}.st94{clip-path:url(#SVGID_190_);fill:#33a033}</style><defs><path id="SVGID_1_" d="M9.4 84.2c0 31.4 24.7 57.1 55.7 58.8.6.1 1.3.1 2 .1H123h-11.1 25.7c9.9 0 18-8.1 18-18v-12.8c0-3.3 2.3-6 5.4-6.6a22.1 22.1 0 0 0 16.8-21.5c0-10.4-7.2-19.1-16.8-21.5h-.1c-2.9-.7-5.1-3.3-5.2-6.4v-13c0-7.3-4.5-13.7-10.8-16.5-2.2-1-4.6-1.5-7.1-1.5h-25.7 11.1-56.1c-.7 0-1.3 0-2 .1-31 1.7-55.7 27.4-55.7 58.8"/></defs><clipPath id="SVGID_2_"><use xlink:href="#SVGID_1_" overflow="visible"/></clipPath><g class="st0"><defs><path id="SVGID_3_" d="M-319.2-513.8h1024v768h-1024z"/></defs><clipPath id="SVGID_4_"><use xlink:href="#SVGID_3_" overflow="visible"/></clipPath><path class="st1" d="M4.4 20.3h178.3v127.8H4.4z"/></g><defs><path id="SVGID_5_" d="M84.7 37.9c-26 0-47.1 21.1-47.1 47.1 0 14.5 6.6 27.5 17 36.2 2.7 2.3 5.8 4.3 9 5.9 2.4 1.2 4.9 2.2 7.5 3 4.3 1.3 8.9 2 13.7 2 6.9 0 13.5-1.5 19.4-4.2 5.3-2.4 10.1-5.7 14.1-9.8 2.2-2.2 4.1-4.6 5.8-7.1 4.9-7.5 7.8-16.4 7.8-26-.1-26-21.2-47.1-47.2-47.1m-21 85.4c.2-3 .9-6.5 2.3-10.1l.7 4.5c.3 2.8.9 5.5 1.9 7.9-1.7-.6-3.4-1.4-4.9-2.3m42.1 0c.7-2.9 1-6 .7-9.3l-.5-13.2c6 3.6 9.3 8.7 11.1 13.6a48.8 48.8 0 0 1-11.3 8.9m16.2-15.6c-3.5-5.4-8.7-10.5-16.3-13.5l-1-26.1c-1.2-12.3-12.2-21.5-24.5-20.3C67.9 48.9 58.7 60 59.9 72.3l.1.5c-2.3 1.8-3.7 4.7-3.4 7.8.3 3.4 2.6 6.2 5.6 7.4l2.2 14.8c-4.3 4.7-7.1 10.2-8.8 14.9C46.7 109.7 41 98 41 85c0-24.1 19.6-43.7 43.7-43.7s43.7 19.6 43.7 43.7c0 8.3-2.3 16.1-6.4 22.7"/></defs><clipPath id="SVGID_6_"><use xlink:href="#SVGID_5_" overflow="visible"/></clipPath><g class="st2"><defs><path id="SVGID_7_" d="M-319.2-513.8h1024v768h-1024z"/></defs><clipPath id="SVGID_8_"><use xlink:href="#SVGID_7_" overflow="visible"/></clipPath><path class="st3" d="M32.6 32.9h104.2v104.2H32.6z"/></g><defs><path id="SVGID_9_" d="M84.7 37.9c-26 0-47.1 21.1-47.1 47.1 0 14.5 6.6 27.5 17 36.2 2.7 2.3 5.8 4.3 9 5.9 2.4 1.2 4.9 2.2 7.5 3 4.3 1.3 8.9 2 13.7 2 6.9 0 13.5-1.5 19.4-4.2 5.3-2.4 10.1-5.7 14.1-9.8 2.2-2.2 4.1-4.6 5.8-7.1 4.9-7.5 7.8-16.4 7.8-26-.1-26-21.2-47.1-47.2-47.1m-21 85.4c.2-3 .9-6.5 2.3-10.1l.7 4.5c.3 2.8.9 5.5 1.9 7.9-1.7-.6-3.4-1.4-4.9-2.3m42.1 0c.7-2.9 1-6 .7-9.3l-.5-13.2c6 3.6 9.3 8.7 11.1 13.6a48.8 48.8 0 0 1-11.3 8.9m16.2-15.6c-3.5-5.4-8.7-10.5-16.3-13.5l-1-26.1c-1.2-12.3-12.2-21.5-24.5-20.3C67.9 48.9 58.7 60 59.9 72.3l.1.5c-2.3 1.8-3.7 4.7-3.4 7.8.3 3.4 2.6 6.2 5.6 7.4l2.2 14.8c-4.3 4.7-7.1 10.2-8.8 14.9C46.7 109.7 41 98 41 85c0-24.1 19.6-43.7 43.7-43.7s43.7 19.6 43.7 43.7c0 8.3-2.3 16.1-6.4 22.7"/></defs><clipPath id="SVGID_10_"><use xlink:href="#SVGID_9_" overflow="visible"/></clipPath><g class="st4"><defs><path id="SVGID_11_" d="M-319.2-513.8h1024v768h-1024z"/></defs><clipPath id="SVGID_12_"><use xlink:href="#SVGID_11_" overflow="visible"/></clipPath><path class="st5" d="M32.6 32.9h104.2v104.2H32.6z"/></g><defs><path id="SVGID_13_" d="M97.4 76.9c-.4-3.9-3.6-6.8-7.4-6.8h-.7c-2 .2-3.8 1.1-5 2.7-1.3 1.5-1.9 3.5-1.7 5.5.4 3.9 3.6 6.8 7.4 6.8h.7c2-.2 3.8-1.1 5-2.7 1.3-1.5 1.9-3.5 1.7-5.5"/></defs><clipPath id="SVGID_14_"><use xlink:href="#SVGID_13_" overflow="visible"/></clipPath><g class="st6"><defs><path id="SVGID_15_" d="M-319.2-513.8h1024v768h-1024z"/></defs><clipPath id="SVGID_16_"><use xlink:href="#SVGID_15_" overflow="visible"/></clipPath><path class="st7" d="M77.5 65.2h24.9v24.9H77.5z"/></g><defs><path id="SVGID_17_" d="M70.1 74.8c-1.4-1.1-3.1-1.7-4.9-1.5-3.7.3-6.4 3.6-6 7.3.2 1.8 1 3.4 2.4 4.5 1.2 1 2.7 1.5 4.3 1.5h.6c1.8-.2 3.4-1 4.5-2.4s1.7-3.1 1.5-4.9c-.2-1.8-1.1-3.4-2.4-4.5"/></defs><clipPath id="SVGID_18_"><use xlink:href="#SVGID_17_" overflow="visible"/></clipPath><g class="st8"><defs><path id="SVGID_19_" d="M-319.2-513.8h1024v768h-1024z"/></defs><clipPath id="SVGID_20_"><use xlink:href="#SVGID_19_" overflow="visible"/></clipPath><path class="st9" d="M54.1 68.2h23.4v23.4H54.1z"/></g><defs><path id="SVGID_21_" d="M90.3 81.4c.6-.1 1-.6.9-1.1l-.5-5.5c-.1-.6-.6-1-1.1-.9-.6.1-1 .6-.9 1.1l.5 5.5c.1.5.6 1 1.1.9"/></defs><clipPath id="SVGID_22_"><use xlink:href="#SVGID_21_" overflow="visible"/></clipPath><g class="st10"><defs><path id="SVGID_23_" d="M-319.2-513.8h1024v768h-1024z"/></defs><clipPath id="SVGID_24_"><use xlink:href="#SVGID_23_" overflow="visible"/></clipPath><path class="st11" d="M83.7 68.9h12.6v17.5H83.7z"/></g><defs><path id="SVGID_25_" d="M90.3 81.4c.6-.1 1-.6.9-1.1l-.5-5.5c-.1-.6-.6-1-1.1-.9-.6.1-1 .6-.9 1.1l.5 5.5c.1.5.6 1 1.1.9"/></defs><clipPath id="SVGID_26_"><use xlink:href="#SVGID_25_" overflow="visible"/></clipPath><g class="st12"><defs><path id="SVGID_27_" d="M-319.2-513.8h1024v768h-1024z"/></defs><clipPath id="SVGID_28_"><use xlink:href="#SVGID_27_" overflow="visible"/></clipPath><path class="st13" d="M83.7 68.9h12.6v17.5H83.7z"/></g><defs><path id="SVGID_29_" d="M65.7 83.8c.6-.1 1-.6.9-1.1l-.5-5.5c-.1-.6-.6-1-1.1-.9-.6.1-1 .6-.9 1.1l.5 5.5c0 .5.5.9 1.1.9"/></defs><clipPath id="SVGID_30_"><use xlink:href="#SVGID_29_" overflow="visible"/></clipPath><g class="st14"><defs><path id="SVGID_31_" d="M-319.2-513.8h1024v768h-1024z"/></defs><clipPath id="SVGID_32_"><use xlink:href="#SVGID_31_" overflow="visible"/></clipPath><path class="st15" d="M59 71.2h12.6v17.5H59z"/></g><defs><path id="SVGID_33_" d="M65.7 83.8c.6-.1 1-.6.9-1.1l-.5-5.5c-.1-.6-.6-1-1.1-.9-.6.1-1 .6-.9 1.1l.5 5.5c0 .5.5.9 1.1.9"/></defs><clipPath id="SVGID_34_"><use xlink:href="#SVGID_33_" overflow="visible"/></clipPath><g class="st16"><defs><path id="SVGID_35_" d="M-319.2-513.8h1024v768h-1024z"/></defs><clipPath id="SVGID_36_"><use xlink:href="#SVGID_35_" overflow="visible"/></clipPath><path class="st17" d="M59 71.2h12.6v17.5H59z"/></g><defs><path id="SVGID_37_" d="M79.4 96.9c-3.7.3-7.4-.6-10.3-2.7-1.5-1.1-1.8-3.1-.6-4.6 1.2-1.4 3.4-1.7 4.9-.6 3.4 2.4 8.2 1.8 10.8-1.4 1.2-1.4 3.4-1.7 4.9-.6 1.5 1.1 1.8 3.1.6 4.6-2.4 2.9-5.9 4.8-9.8 5.3-.2-.1-.3 0-.5 0"/></defs><clipPath id="SVGID_38_"><use xlink:href="#SVGID_37_" overflow="visible"/></clipPath><g class="st18"><defs><path id="SVGID_39_" d="M-319.2-513.8h1024v768h-1024z"/></defs><clipPath id="SVGID_40_"><use xlink:href="#SVGID_39_" overflow="visible"/></clipPath><path class="st19" d="M62.7 81.3h32.7v20.6H62.7z"/></g><defs><path id="SVGID_41_" d="M79.2 94.7c-3 .3-6.1-.5-8.7-2.3-.5-.4-.6-1-.2-1.5.4-.5 1.1-.6 1.6-.2 4.4 3.1 10.7 2.3 14.1-1.8.4-.5 1.1-.6 1.6-.2.5.4.6 1 .2 1.5-2.1 2.7-5.3 4.2-8.6 4.5"/></defs><clipPath id="SVGID_42_"><use xlink:href="#SVGID_41_" overflow="visible"/></clipPath><g class="st20"><defs><path id="SVGID_43_" d="M-319.2-513.8h1024v768h-1024z"/></defs><clipPath id="SVGID_44_"><use xlink:href="#SVGID_43_" overflow="visible"/></clipPath><path class="st21" d="M65.1 83.5h28.1v16.3H65.1z"/></g><defs><path id="SVGID_45_" d="M79.2 94.7c-3 .3-6.1-.5-8.7-2.3-.5-.4-.6-1-.2-1.5.4-.5 1.1-.6 1.6-.2 4.4 3.1 10.7 2.3 14.1-1.8.4-.5 1.1-.6 1.6-.2.5.4.6 1 .2 1.5-2.1 2.7-5.3 4.2-8.6 4.5"/></defs><clipPath id="SVGID_46_"><use xlink:href="#SVGID_45_" overflow="visible"/></clipPath><g class="st22"><defs><path id="SVGID_47_" d="M-319.2-513.8h1024v768h-1024z"/></defs><clipPath id="SVGID_48_"><use xlink:href="#SVGID_47_" overflow="visible"/></clipPath><path class="st23" d="M65.1 83.5h28.1v16.3H65.1z"/></g><defs><path id="SVGID_49_" d="M68.5 100.8c.1.4.1.7.2 1 .1.3.2.7.2 1 .1.3.2.7.3 1 .1.3.2.7.4 1 .3.6.6 1.2 1.1 1.7.2.3.5.5.7.6.3.1.6.2.8.2.3-.1.5-.2.8-.4.2-.2.4-.5.6-.7.3-.6.5-1.2.7-1.9.3-1.3.3-2.7.2-4.1l.9-.1c.1 1.4.5 2.7 1 4 .3.6.6 1.2 1 1.7.2.2.4.4.7.6.2.1.5.2.7.2.3-.1.4-.1.7-.3.2-.2.4-.4.6-.7.3-.5.5-1.2.7-1.8.1-.3.1-.7.2-1 0-.3.1-.7.1-1v-1c0-.3 0-.7-.1-1l1.1-.1c.1 1.4.4 2.7 1 4 .3.6.6 1.2 1 1.7.2.2.4.4.7.6.1.1.2.1.4.1H85.4l.3-.1c.1 0 .1-.1.2-.1s.2-.1.3-.2c.2-.2.4-.4.6-.7.3-.5.5-1.2.7-1.8.3-1.3.4-2.7.2-4.1l.9-.1c.1.7.2 1.4.3 2 .1.3.2.7.3 1 .1.3.2.7.3 1 .3.6.6 1.2 1 1.7.2.3.5.5.7.6.1.1.3.1.4.2.1 0 .1.1.2 0h.2c.2 0 .4-.1.5-.1.1 0 .2-.1.4-.2.2-.2.4-.4.6-.7.4-.6.6-1.2.8-1.9.1-.3.2-.7.2-1 .1-.3.1-.7.1-1v-2.1c0-.1.1-.2.1-.2.1 0 .2.1.2.1.1.7.1 1.4.1 2.2 0 .4 0 .7-.1 1.1 0 .4-.1.7-.2 1.1-.1.7-.4 1.4-.7 2.1-.2.3-.4.6-.7.9-.2.1-.3.3-.5.3-.2.1-.4.1-.6.2-.5.1-.9-.1-1.3-.3-.3-.2-.7-.5-.9-.8-.5-.6-.9-1.2-1.2-1.9-.6-1.4-.9-2.8-1.1-4.3 0-.3.2-.5.4-.5.3 0 .5.2.5.4.1 1.5.1 2.9-.2 4.4-.2.7-.4 1.5-.8 2.1-.2.3-.5.7-.8 1-.1.1-.2.1-.3.2-.1.1-.2.1-.3.2-.3.1-.4.1-.6.2h-.4c-.1 0-.2 0-.3-.1-.2 0-.4-.2-.6-.3-.4-.2-.7-.5-.9-.8-.5-.6-.9-1.3-1.2-2-.6-1.4-.9-2.8-1.1-4.3 0-.3.2-.6.5-.6s.6.2.6.5c.1 1.5.1 3-.3 4.4-.2.7-.4 1.5-.8 2.1-.2.3-.5.7-.8 1-.3.3-.8.5-1.2.5-.5 0-.9-.1-1.3-.3-.4-.2-.7-.5-.9-.8-.5-.6-.9-1.3-1.2-2-.6-1.4-.9-2.8-1-4.3 0-.2.2-.4.4-.5.2 0 .4.2.5.4.1 1.5.1 2.9-.3 4.4-.2.7-.4 1.4-.8 2.1-.2.3-.4.6-.8.9-.3.3-.8.5-1.2.5-.4 0-.9-.1-1.2-.3-.3-.2-.6-.5-.9-.8-.5-.6-.8-1.2-1.1-1.9-.1-.3-.3-.7-.4-1-.1-.3-.2-.7-.3-1.1-.1-.4-.1-.7-.2-1.1-.1-.4-.1-.7-.1-1.1 0-.1.1-.2.1-.2 0 .4.1.4.1.5"/></defs><clipPath id="SVGID_50_"><use xlink:href="#SVGID_49_" overflow="visible"/></clipPath><g class="st24"><defs><path id="SVGID_51_" d="M-319.2-513.8h1024v768h-1024z"/></defs><clipPath id="SVGID_52_"><use xlink:href="#SVGID_51_" overflow="visible"/></clipPath><path class="st25" d="M63.2 93.2h36.6v19.9H63.2z"/></g><defs><path id="SVGID_53_" d="M74.3 109.7c0 .7.1 1.4.2 2.1 0 .3.1.7.2 1 .1.3.1.7.2 1 .2.7.4 1.3.8 1.9.2.3.3.6.6.8.2.2.5.4.7.5.2.1.4.2.6.2h-.1H77.8s.1 0 .1-.1l.1-.1c.2-.2.3-.4.5-.7l.3-.9c.2-.6.3-1.3.3-1.9v-1-1l1.1-.1c.1 1.1.3 2.3.8 3.3.2.5.5 1 .8 1.4l.5.5c.2.1.4.2.6.2.3 0 .3-.1.5-.3.2-.2.3-.3.5-.6.3-.5.5-1 .6-1.5.3-1.1.3-2.3.2-3.4l.8-.1c.1 1.2.3 2.3.8 3.4.2.5.5 1 .8 1.5.2.2.4.4.6.5.2.1.5.2.6.2.2 0 .3-.1.4-.1.1 0 .2-.1.3-.2.2-.2.4-.4.5-.6.3-.5.5-1 .6-1.6.3-1.1.3-2.3.2-3.5 0-.1 0-.1.1-.1s.1 0 .1.1c.1 1.2.1 2.4-.1 3.6-.1.6-.3 1.2-.6 1.8-.1.3-.3.5-.6.8-.1.1-.2.2-.4.3-.2.1-.3.1-.5.2-.4 0-.7-.1-1.1-.2-.3-.2-.5-.4-.8-.6-.4-.5-.7-1-1-1.6-.5-1.1-.8-2.4-.9-3.6 0-.2.1-.4.3-.4.2 0 .4.1.4.3.1 1.2.1 2.5-.1 3.7-.1.6-.3 1.2-.6 1.8-.2.3-.4.6-.6.8-.3.2-.7.5-1.1.5-.4 0-.8-.1-1.1-.3-.3-.2-.6-.4-.8-.7-.4-.5-.7-1.1-1-1.7-.5-1.2-.8-2.4-.9-3.6 0-.3.2-.6.5-.6s.6.2.6.5c0 .4.1.7.1 1.1v1.1c0 .7-.1 1.4-.3 2.2-.1.4-.2.7-.4 1.1-.2.3-.4.7-.7 1-.1.1-.2.2-.3.2-.1.1-.2.1-.3.2l-.2.1h-.5c-.5 0-1-.2-1.3-.5-.3-.3-.5-.6-.7-.9-.2-.3-.3-.7-.5-1-.3-.7-.5-1.3-.6-2-.1-.3-.1-.7-.2-1-.1-.4-.1-.7-.1-1-.1-.7-.1-1.4-.2-2.1 0-.1 0-.1.1-.1.2-.4.3-.3.3-.2"/></defs><clipPath id="SVGID_54_"><use xlink:href="#SVGID_53_" overflow="visible"/></clipPath><g class="st26"><defs><path id="SVGID_55_" d="M-319.2-513.8h1024v768h-1024z"/></defs><clipPath id="SVGID_56_"><use xlink:href="#SVGID_55_" overflow="visible"/></clipPath><path class="st27" d="M69 104.6h26.8v18.7H69z"/></g><defs><path id="SVGID_57_" d="M98.5 85.9c-.2 0-.4-.1-.5-.3-.2-.3-.1-.6.2-.8 2.7-1.7 4.2-4.6 3.9-7.8-.3-2.8-1.9-5.3-4.5-6.5-.3-.1-.4-.5-.2-.8.1-.3.5-.4.8-.2 2.9 1.5 4.8 4.3 5.1 7.5.3 3.6-1.4 7-4.4 8.9-.2-.1-.3 0-.4 0"/></defs><clipPath id="SVGID_58_"><use xlink:href="#SVGID_57_" overflow="visible"/></clipPath><g class="st28"><defs><path id="SVGID_59_" d="M-319.2-513.8h1024v768h-1024z"/></defs><clipPath id="SVGID_60_"><use xlink:href="#SVGID_59_" overflow="visible"/></clipPath><path class="st29" d="M92.4 64.4h15.9v26.5H92.4z"/></g><defs><path id="SVGID_61_" d="M182.4 144.1c-10.7 0-19.4-8.7-19.4-19.4v-12.9c0-3.8 2.8-7.1 6.5-7.9 9.2-2.3 15.7-10.6 15.7-20.2s-6.5-17.9-15.8-20.2h-.1c-3.5-.8-6.1-3.8-6.3-7.4V42.7c0-10.7 8.7-19.3 19.4-19.3h67.3c5.2 0 10 2 13.7 5.7 3.7 3.7 5.7 8.5 5.7 13.7v12.9c.1 2.5 1.8 4.6 4.1 5.1h.1c10.5 2.6 17.9 12 17.9 22.9 0 10.8-7.3 20.3-17.9 22.9-2.5.5-4.3 2.7-4.3 5.3v12.8c0 10.7-8.7 19.4-19.4 19.4h-67.2z"/></defs><clipPath id="SVGID_62_"><use xlink:href="#SVGID_61_" overflow="visible"/></clipPath><g class="st30"><defs><path id="SVGID_63_" d="M-319.2-513.8h1024v768h-1024z"/></defs><clipPath id="SVGID_64_"><use xlink:href="#SVGID_63_" overflow="visible"/></clipPath><path class="st31" d="M158 18.5h138.2v130.6H158z"/></g><g><defs><path id="SVGID_65_" d="M249.7 24.9c9.9 0 18 8.1 18 18v13c.1 3.1 2.3 5.7 5.2 6.4h.1a22.1 22.1 0 0 1 16.8 21.5c0 10.4-7.2 19.1-16.8 21.5-3.1.6-5.4 3.4-5.4 6.6v12.9c0 9.9-8.1 18-18 18h-67.4c-9.9 0-18-8.1-18-18v-12.9c0-3.2 2.3-5.9 5.4-6.5a22.1 22.1 0 0 0 16.8-21.5c0-10.4-7.2-19.1-16.8-21.5h-.1c-2.9-.7-5.1-3.3-5.2-6.4v-.1-13c0-9.9 8.1-18 18-18h67.4m0-2.8h-67.4c-11.4 0-20.8 9.3-20.8 20.7v12.8l-.1.9.1.2c.4 4 3.3 7.4 7.3 8.3h.2c8.6 2.2 14.6 9.9 14.6 18.8s-6 16.6-14.7 18.8c-4.3.9-7.5 4.8-7.5 9.2v13c0 11.4 9.3 20.7 20.8 20.7h67.4c11.4 0 20.8-9.3 20.8-20.7V112c0-1.9 1.3-3.5 3.2-3.9h.1c11.1-2.8 18.9-12.7 18.9-24.2s-7.8-21.5-18.9-24.2c-.1 0-.2 0-.2-.1-1.7-.4-2.9-1.9-3-3.7v-13c0-5.5-2.2-10.7-6.1-14.7-3.9-3.9-9.1-6.1-14.7-6.1"/></defs><clipPath id="SVGID_66_"><use xlink:href="#SVGID_65_" overflow="visible"/></clipPath><g class="st32"><defs><path id="SVGID_67_" d="M-319.2-513.8h1024v768h-1024z"/></defs><clipPath id="SVGID_68_"><use xlink:href="#SVGID_67_" overflow="visible"/></clipPath><path class="st33" d="M156.6 17.1h141.1v133.4H156.6z"/></g></g><g><defs><path id="SVGID_69_" d="M245.8 80.1l-15.3-15.3c-1.3-1.3-3.4-1.3-4.8 0-1.3 1.3-1.3 3.4 0 4.8l9.5 9.5H203c-1.9 0-3.4 1.5-3.4 3.4s1.5 3.4 3.4 3.4h32.3l-9.5 9.5c-1.3 1.3-1.3 3.4 0 4.8.7.7 1.5 1 2.4 1 .9 0 1.7-.3 2.4-1l15.3-15.3c1.2-1.4 1.2-3.5-.1-4.8"/></defs><clipPath id="SVGID_70_"><use xlink:href="#SVGID_69_" overflow="visible"/></clipPath><g class="st34"><defs><path id="SVGID_71_" d="M-319.2-513.8h1024v768h-1024z"/></defs><clipPath id="SVGID_72_"><use xlink:href="#SVGID_71_" overflow="visible"/></clipPath><path class="st35" d="M194.6 58.8h57.2V106h-57.2z"/></g></g><g><defs><path id="SVGID_73_" d="M245.8 80.1l-15.3-15.3c-1.3-1.3-3.4-1.3-4.8 0-1.3 1.3-1.3 3.4 0 4.8l9.5 9.5H203c-1.9 0-3.4 1.5-3.4 3.4s1.5 3.4 3.4 3.4h32.3l-9.5 9.5c-1.3 1.3-1.3 3.4 0 4.8.7.7 1.5 1 2.4 1 .9 0 1.7-.3 2.4-1l15.3-15.3c1.2-1.4 1.2-3.5-.1-4.8"/></defs><clipPath id="SVGID_74_"><use xlink:href="#SVGID_73_" overflow="visible"/></clipPath><g class="st36"><defs><path id="SVGID_75_" d="M-319.2-513.8h1024v768h-1024z"/></defs><clipPath id="SVGID_76_"><use xlink:href="#SVGID_75_" overflow="visible"/></clipPath><path class="st37" d="M194.6 58.8h57.2V106h-57.2z"/></g></g><g><defs><path id="SVGID_77_" d="M252.6 59.7s4.8-7.2 12.9-1.7c4.9 3.2 14.9 7 24 10 4.2-2.9 9.7-4.2 15.4-4.6v-.1s6.5-10.8 18.4-9.5c11.9 1.3 48.1 6 62.4 39.2h-.1c.6 2.2 5 25-5.2 35.4-10.8 10.9-10 26.7-55.9 28.3-45.8 1.6-30.4-21.1-47.9-23.6l-12.4-5.8s-3.9-10.2 6.5-15.3c10.4-5.1 23 4.6 23 4.6s12.9 16.9 17.6 17c4.7.1 5.7-5.4-8.7-13.9-1.8-1.1-3-2.1-3.8-3.1-4.7-2.5-8.8-4.5-10.3-5.3-1.8-1-15.1-7.8-24-16.5-1.4-1.4-2.7-2.8-3.9-4.3l-.3.1c.1-.1-22.2-11.2-7.7-30.9"/></defs><clipPath id="SVGID_78_"><use xlink:href="#SVGID_77_" overflow="visible"/></clipPath><g class="st38"><defs><path id="SVGID_79_" d="M-319.2-513.8h1024v768h-1024z"/></defs><clipPath id="SVGID_80_"><use xlink:href="#SVGID_79_" overflow="visible"/></clipPath><path class="st39" d="M242.7 48.6H392v113.2H242.7z"/></g></g><g><defs><path id="SVGID_81_" d="M316.7 133l-2.3-4.9-6.1-5.6-13.1-8.2-17.8-10.2-9.5-7.4-6.6-6.4-3.8-8.7 1.3-5.3 3.1-3.8s-3.3 5.9 4.8 15.6c8.1 9.6 50.3 27.4 53.1 38.9v.2c.2 0 1.7 5.6-3.1 5.8"/></defs><clipPath id="SVGID_82_"><use xlink:href="#SVGID_81_" overflow="visible"/></clipPath><g class="st40"><defs><path id="SVGID_83_" d="M-319.2-513.8h1024v768h-1024z"/></defs><clipPath id="SVGID_84_"><use xlink:href="#SVGID_83_" overflow="visible"/></clipPath><path class="st41" d="M252.5 67.5h72.7V138h-72.7z"/></g></g><g><defs><path id="SVGID_85_" d="M248.6 63.4l-2.2 5.4v5.9l1 4.3 3.1 4.5 2.7 3.3 6.1 3.9 2.2-1.4-2.5-4s-10.2-7-10.4-21.9"/></defs><clipPath id="SVGID_86_"><use xlink:href="#SVGID_85_" overflow="visible"/></clipPath><g class="st42"><defs><path id="SVGID_87_" d="M-319.2-513.8h1024v768h-1024z"/></defs><clipPath id="SVGID_88_"><use xlink:href="#SVGID_87_" overflow="visible"/></clipPath><path class="st43" d="M241.4 58.4h25.1v37.3h-25.1z"/></g></g><g><defs><path id="SVGID_89_" d="M313.3 91.4l-30.6-16.7s4.4 9.2 30.5 17"/></defs><clipPath id="SVGID_90_"><use xlink:href="#SVGID_89_" overflow="visible"/></clipPath><g class="st44"><defs><path id="SVGID_91_" d="M-319.2-513.8h1024v768h-1024z"/></defs><clipPath id="SVGID_92_"><use xlink:href="#SVGID_91_" overflow="visible"/></clipPath><path class="st45" d="M277.7 69.7h40.6v27h-40.6z"/></g></g><g><defs><path id="SVGID_93_" d="M291.8 67.4l29.7 9.5-34-8.3z"/></defs><clipPath id="SVGID_94_"><use xlink:href="#SVGID_93_" overflow="visible"/></clipPath><g class="st46"><defs><path id="SVGID_95_" d="M-319.2-513.8h1024v768h-1024z"/></defs><clipPath id="SVGID_96_"><use xlink:href="#SVGID_95_" overflow="visible"/></clipPath><path class="st47" d="M282.5 62.4h44v19.5h-44z"/></g></g><g><defs><path id="SVGID_97_" d="M307.5 61s23.3 2.5 26.7 6.5l-7.8-1.9-5.6-1h-3.2l-12.5-.6 2.4-3z"/></defs><clipPath id="SVGID_98_"><use xlink:href="#SVGID_97_" overflow="visible"/></clipPath><g class="st48"><defs><path id="SVGID_99_" d="M-319.2-513.8h1024v768h-1024z"/></defs><clipPath id="SVGID_100_"><use xlink:href="#SVGID_99_" overflow="visible"/></clipPath><path class="st49" d="M300.1 56h39.1v16.5h-39.1z"/></g></g><g><defs><path id="SVGID_101_" d="M265.9 70.7c.1 0 1.7-.8 3.8-.8 2.1 0 4 .7 5.5 2.2 4.7 4.3 6.9 6.5 7.4 7.2.4.6 1 1.4-8.7 8.7-.1.1-.3.1-.4.1-.1 0-.2 0-.3-.1-.5-.2-11.8-6.2-11.7-12 0-2.1 1.5-3.9 4.4-5.3m8.3 15.9c.1.2.3.3.5.3s.3-.1.4-.2l6.1-5c.1-.1.2-.3.3-.5 0-.2 0-.4-.2-.5-.1-.2-.3-.3-.4-.5-.8-.8-1.6-1.2-2.5-1.2-1.3 0-2.5.8-3.2 1.5-1.1.9-1.7 1.7-2 2.6-.3 1 0 2 .7 3.1.2.1.2.2.3.4"/></defs><clipPath id="SVGID_102_"><use xlink:href="#SVGID_101_" overflow="visible"/></clipPath><g class="st50"><defs><path id="SVGID_103_" d="M-319.2-513.8h1024v768h-1024z"/></defs><clipPath id="SVGID_104_"><use xlink:href="#SVGID_103_" overflow="visible"/></clipPath><path class="st51" d="M256.5 64.9h31.3v28.2h-31.3z"/></g></g><g><defs><path id="SVGID_105_" d="M273.2 83.1c.2-.9.9-1.7 2-2.6.8-.6 1.9-1.5 3.2-1.5.9 0 1.8.4 2.5 1.2.1.1.3.3.4.5.1.1.2.3.2.5s-.1.4-.3.5l-6.1 5c-.1.1-.3.2-.4.2-.2 0-.4-.1-.5-.3-.1-.1-.2-.3-.3-.4-.7-1.1-.9-2.1-.7-3.1"/></defs><clipPath id="SVGID_106_"><use xlink:href="#SVGID_105_" overflow="visible"/></clipPath><g class="st52"><defs><path id="SVGID_107_" d="M-319.2-513.8h1024v768h-1024z"/></defs><clipPath id="SVGID_108_"><use xlink:href="#SVGID_107_" overflow="visible"/></clipPath><path class="st53" d="M268.1 74h18.4v17.8h-18.4z"/></g></g><g><defs><path id="SVGID_109_" d="M251.9 61.2c2.6-4 6.8-4.7 10.5-1.6 2.7 2.2 9.2 4.3 9.3 4.3.2.1.4.3.4.5.1.2 0 .5-.2.6l-2 1.7c.1-.1.2-.3.2-.5s-.1-.4-.2-.5c-.1-.1-.3-.2-.4-.3-.8-.6-1.6-1-2.4-1-1.5 0-2.6 1.1-3.4 1.9-.9 1-1.4 1.8-1.6 2.6v.7c0 .3.2.7.4 1-2.6 1.5-4.2 3.3-4.3 3.3-.1.2-.3.2-.5.2h-.2c-2.1-.6-3.8-1.4-6.4-3.7-.1 0-3.5-2.6.8-9.2"/></defs><clipPath id="SVGID_110_"><use xlink:href="#SVGID_109_" overflow="visible"/></clipPath><g class="st54"><defs><path id="SVGID_111_" d="M-319.2-513.8h1024v768h-1024z"/></defs><clipPath id="SVGID_112_"><use xlink:href="#SVGID_111_" overflow="visible"/></clipPath><path class="st55" d="M244.7 52.7h32.4v26.5h-32.4z"/></g></g><g><defs><path id="SVGID_113_" d="M269.1 66l-.1-.2-1.1-.6h-1l-2.1.8-1.4 1.1-.6 1.6 2.5-.6 2.1-.7z"/></defs><clipPath id="SVGID_114_"><use xlink:href="#SVGID_113_" overflow="visible"/></clipPath><g class="st56"><defs><path id="SVGID_115_" d="M-319.2-513.8h1024v768h-1024z"/></defs><clipPath id="SVGID_116_"><use xlink:href="#SVGID_115_" overflow="visible"/></clipPath><path class="st57" d="M257.8 60.2h16.4v13.5h-16.4z"/></g></g><g><defs><path id="SVGID_117_" d="M284.1 118.2l-3.3-1.4-4.5-.9h-3.5l-1.5.8-1.8 2.1-1.1 2.8v2.3l1 1.9 2.8 1.1 3.4 1.3 2.8 1.2 6.2-10.2z"/></defs><clipPath id="SVGID_118_"><use xlink:href="#SVGID_117_" overflow="visible"/></clipPath><g class="st58"><defs><path id="SVGID_119_" d="M-319.2-513.8h1024v768h-1024z"/></defs><clipPath id="SVGID_120_"><use xlink:href="#SVGID_119_" overflow="visible"/></clipPath><path class="st59" d="M263.4 110.9h26.2v23.6h-26.2z"/></g></g><g><defs><path id="SVGID_121_" d="M282.7 120.6l-1.2-.3-1.7.4-.8.9-.8 1.4-.7 1.3v1l.8 1.8 1.1 1 3.9-6.7z"/></defs><clipPath id="SVGID_122_"><use xlink:href="#SVGID_121_" overflow="visible"/></clipPath><g class="st60"><defs><path id="SVGID_123_" d="M-319.2-513.8h1024v768h-1024z"/></defs><clipPath id="SVGID_124_"><use xlink:href="#SVGID_123_" overflow="visible"/></clipPath><path class="st61" d="M272.5 115.3h15.8V133h-15.8z"/></g></g><g><defs><path id="SVGID_125_" d="M315.9 133.9s-7.2-1-15.6-13c-8.4-12-27-11.8-30.8-6.7 0 0 15.6-7.7 28.5 9.9s17.9 9.8 17.9 9.8"/></defs><clipPath id="SVGID_126_"><use xlink:href="#SVGID_125_" overflow="visible"/></clipPath><g class="st62"><defs><path id="SVGID_127_" d="M-319.2-513.8h1024v768h-1024z"/></defs><clipPath id="SVGID_128_"><use xlink:href="#SVGID_127_" overflow="visible"/></clipPath><path class="st63" d="M264.4 105.9h56.5v34.7h-56.5z"/></g></g><g><defs><path id="SVGID_129_" d="M389.2 102.2l-70.4 55.1 10.1 2.6 67-47.8z"/></defs><clipPath id="SVGID_130_"><use xlink:href="#SVGID_129_" overflow="visible"/></clipPath><g class="st64"><defs><path id="SVGID_131_" d="M-319.2-513.8h1024v768h-1024z"/></defs><clipPath id="SVGID_132_"><use xlink:href="#SVGID_131_" overflow="visible"/></clipPath><path class="st65" d="M313.8 97.2h87.1V165h-87.1z"/></g></g><g><defs><path id="SVGID_133_" d="M317.5 134.5c-.7 0-2.4-.4-2.8 0l-.4-1.2c.5-.5.8-.6 1.3-1.1.6-.4.1-1.1-1.2-3.1-3.8-5.6-16.6-12.1-22.8-15.2-1.5-.7-2.1-1.1-2.7-1.5-.2-.1-.5-.3-1-.5-3.8-2.1-14.5-8.7-22.5-16.4-5.8-5.7-8.5-10.9-8.1-15.7.4-4 2.9-7.5 7.6-10.6.1-.1 9.8-5.8 19.4 4.2 8.8 9.1 14.7 11.3 29.1 16.6l2.4.9c.4.1.6.5.4.9-.1.4-.5.6-.9.4l-2.4-.9c-14.6-5.4-21.4-6.7-29.9-16.5-8.1-9.2-16.4-4.2-16.7-4-4.4 2.4-6.6 5.9-6.9 9.4-.4 4.3 2.2 8.7 7.7 14 7.8 7.6 18.9 13.8 22.7 15.8.5.2.8.4 1 .5.6.4 1.8.9 3.2 1.7 6.8 3.4 18.7 10.1 22.7 16 .7 1.1 1.1 2 1.3 2.8.2 0 .9 2.3-.5 3.5"/></defs><clipPath id="SVGID_134_"><use xlink:href="#SVGID_133_" overflow="visible"/></clipPath><g class="st66"><defs><path id="SVGID_135_" d="M-319.2-513.8h1024v768h-1024z"/></defs><clipPath id="SVGID_136_"><use xlink:href="#SVGID_135_" overflow="visible"/></clipPath><path class="st67" d="M252.3 62.4h71v77.1h-71z"/></g></g><g><defs><path id="SVGID_137_" d="M305.5 63c.1-.1 6.9-11.1 19.1-9.8 31.9 3.5 53.1 16.8 63 39.6.1.1 6.2 14.3-.7 28.9-6.5 13.6-12 27.9-37.8 32.9l-1.4-1c25.3-5 31-19.4 37.2-32.5 6.6-13.9.4-27.3.3-27.5-9.7-22.3-30.1-35.6-61.5-38.5-10.3-.9-16.1 8.3-16.2 8.4-.2.3-1.4.7-1.7.5-.3-.3-.5-.7-.3-1"/></defs><clipPath id="SVGID_138_"><use xlink:href="#SVGID_137_" overflow="visible"/></clipPath><g class="st68"><defs><path id="SVGID_139_" d="M-319.2-513.8h1024v768h-1024z"/></defs><clipPath id="SVGID_140_"><use xlink:href="#SVGID_139_" overflow="visible"/></clipPath><path class="st69" d="M300.4 48h94.7v111.5h-94.7z"/></g></g><g><defs><path id="SVGID_141_" d="M406.5 53H245.9v130.9h160.6"/></defs><clipPath id="SVGID_142_"><use xlink:href="#SVGID_141_" overflow="visible"/></clipPath><g class="st70"><defs><path id="SVGID_143_" d="M-319.2-513.8h1024v768h-1024z"/></defs><clipPath id="SVGID_144_"><use xlink:href="#SVGID_143_" overflow="visible"/></clipPath><g class="st71"><defs><path id="SVGID_145_" d="M245.8 54.2h78v40h-78z"/></defs><clipPath id="SVGID_146_"><use xlink:href="#SVGID_145_" overflow="visible"/></clipPath><g class="st72"><defs><path id="SVGID_147_" d="M263.4 93.2c.3 0 .5-.1.6-.4.2-.3.5-1 .2-1.2-.1 0-13.7-6.6-15.8-15.9-1.1-5.1-.2-9.9 3.8-15.5.2-.3 4.2-5.8 11.1-1.6 8.8 5.4 32.5 12.7 40.3 14.5 8.6 2 18.1 4.7 18.2 4.7.4.1.8-.1.9-.5.1-.4-.1-.8-.5-.9-.1 0-9.7-2.7-18.3-4.7-9.2-2.1-31.4-9.1-39.2-14.3-2.7-1.8-5.4-2.5-8-2-3.8.8-5.8 3.8-5.9 3.9-4.3 5.9-5.8 11.6-4.5 17.1 2.3 10.1 16.3 16.4 16.7 16.6.2.2.3.2.4.2"/></defs><clipPath id="SVGID_148_"><use xlink:href="#SVGID_147_" overflow="visible"/></clipPath><g class="st73"><defs><path id="SVGID_149_" d="M245.8 52.2h161v132h-161z"/></defs><clipPath id="SVGID_150_"><use xlink:href="#SVGID_149_" overflow="visible"/></clipPath><path class="st74" d="M240.9 50.4h86.9v47.8h-86.9z"/></g></g></g></g></g><g><defs><path id="SVGID_151_" d="M289.3 68.8c.1 0 .8.3.9.2 12.9-9.8 42.9-1.3 43.2-1.2.4.1.8-.1.9-.5.1-.4-.1-.8-.5-.9-1.3-.4-30.9-9.1-45.7 1-.3.2-.4.7-.2 1 0 .3 1.2.4 1.4.4"/></defs><clipPath id="SVGID_152_"><use xlink:href="#SVGID_151_" overflow="visible"/></clipPath><g class="st75"><defs><path id="SVGID_153_" d="M-319.2-513.8h1024v768h-1024z"/></defs><clipPath id="SVGID_154_"><use xlink:href="#SVGID_153_" overflow="visible"/></clipPath><path class="st76" d="M282.7 57.6h56.5V74h-56.5z"/></g></g><g><defs><path id="SVGID_155_" d="M274.2 88.1c.2 0 .3 0 .4-.1 9.7-7.4 9.1-8.2 8.7-8.7-.5-.7-2.7-2.9-7.4-7.2-1.6-1.4-3.4-2.2-5.5-2.2s-3.8.8-3.8.8c-2.9 1.4-4.3 3.2-4.4 5.3-.1 5.8 11.2 11.8 11.7 12 .1.1.2.1.3.1m7.8-8.3c-.7 1-4.4 4.1-7.8 6.7-3.3-1.8-10-6.3-10-10.3 0-1.6 1.2-2.9 3.5-4 0 0 1.4-.7 3.2-.7 1.8 0 3.3.6 4.6 1.8 1.5 1.5 5.3 5.2 6.5 6.5"/></defs><clipPath id="SVGID_156_"><use xlink:href="#SVGID_155_" overflow="visible"/></clipPath><g class="st77"><defs><path id="SVGID_157_" d="M-319.2-513.8h1024v768h-1024z"/></defs><clipPath id="SVGID_158_"><use xlink:href="#SVGID_157_" overflow="visible"/></clipPath><path class="st78" d="M257.2 64.9h31.3v28.2h-31.3z"/></g></g><g><defs><path id="SVGID_159_" d="M275.5 86.8c.2 0 .3-.1.4-.2l6.1-5c.1-.1.2-.3.3-.5 0-.2 0-.4-.2-.5-.9-1.1-1.9-1.7-3-1.7-1.3 0-2.5.8-3.2 1.5-1.1.9-1.7 1.7-2 2.6-.3 1.1 0 2.3 1 3.5.2.3.4.3.6.3m5-5.7l-4.9 4.1c-.4-.6-.5-1.1-.3-1.6.2-.6.6-1.2 1.5-1.9 1.6-1.5 2.6-1.6 3.7-.6"/></defs><clipPath id="SVGID_160_"><use xlink:href="#SVGID_159_" overflow="visible"/></clipPath><g class="st79"><defs><path id="SVGID_161_" d="M-319.2-513.8h1024v768h-1024z"/></defs><clipPath id="SVGID_162_"><use xlink:href="#SVGID_161_" overflow="visible"/></clipPath><path class="st80" d="M268.8 74h18.4v17.8h-18.4z"/></g></g><g><defs><path id="SVGID_163_" d="M263.3 70.1c.1 0 .2-.1.3-.1 0 0 2.8-1.1 5.3-1.7.1 0 .3-.1.4-.2l1.2-1.3c.1-.1.2-.3.2-.5s-.1-.4-.2-.5c-.9-.9-1.9-1.3-2.8-1.3-1.5 0-2.6 1.1-3.4 1.9-.9 1-1.4 1.8-1.6 2.6 0 .1-.1.2-.1.4 0 .4.3.7.7.7zm5.1-3.1c-1.3.3-2.7.8-3.7 1.1.2-.2.4-.5.6-.7 1.4-1.5 2.4-1.8 3.6-1l-.5.6z"/></defs><clipPath id="SVGID_164_"><use xlink:href="#SVGID_163_" overflow="visible"/></clipPath><g class="st81"><defs><path id="SVGID_165_" d="M-319.2-513.8h1024v768h-1024z"/></defs><clipPath id="SVGID_166_"><use xlink:href="#SVGID_165_" overflow="visible"/></clipPath><path class="st82" d="M257.6 59.5h18.1v15.6h-18.1z"/></g></g><g><defs><path id="SVGID_167_" d="M258.2 74.2c.2 0 .4-.1.5-.2 0 0 4.4-4.9 10-5.4.2 0 .3-.1.4-.2l3.3-3.2c.2-.2.2-.4.2-.6-.1-.2-.2-.4-.4-.5-.1 0-6.6-2.1-9.3-4.3-3.8-3.1-7.9-2.4-10.5 1.6-4.3 6.5-.9 9.1-.7 9.2 2.6 2.2 4.3 3 6.4 3.7 0-.1.1-.1.1-.1zm10.2-7.1c-5.2.6-9.2 4.4-10.4 5.5-1.8-.6-3-1.3-5.3-3.3-.1-.1-2.3-3.1 1-7.3 1.4-1.8 2.8-3.1 5-2.8.9.1 2.4.7 4.2 2l.1.1c2.3 1.5 5.9 2.6 7.8 3.4l-2.4 2.4z"/></defs><clipPath id="SVGID_168_"><use xlink:href="#SVGID_167_" overflow="visible"/></clipPath><g class="st83"><defs><path id="SVGID_169_" d="M-319.2-513.8h1024v768h-1024z"/></defs><clipPath id="SVGID_170_"><use xlink:href="#SVGID_169_" overflow="visible"/></clipPath><path class="st84" d="M245.2 52.7h32.4v26.5h-32.4z"/></g></g><g><defs><path id="SVGID_171_" d="M278.5 130.3c.2 0 .5-.1.6-.4l6.2-10.8c.1-.2.1-.4.1-.6-.1-.2-.2-.3-.4-.4-9.4-4.6-12.7-3.1-13-3-3.2 1.3-4.7 5.1-4.7 7.9 0 1.8.6 3 1.6 3.4 2.1.8 3.3 1.3 4.3 1.6 1.4.5 2.4.9 5 2 .1.3.2.3.3.3m5.2-11.2l-5.5 9.6c-2.3-1-3.2-1.3-4.5-1.8-1-.4-2.2-.8-4.3-1.6-.3-.1-.7-.9-.7-2.1 0-2.5 1.3-5.6 3.8-6.6.1-.1 3.3-1.2 11.2 2.5"/></defs><clipPath id="SVGID_172_"><use xlink:href="#SVGID_171_" overflow="visible"/></clipPath><g class="st85"><defs><path id="SVGID_173_" d="M-319.2-513.8h1024v768h-1024z"/></defs><clipPath id="SVGID_174_"><use xlink:href="#SVGID_173_" overflow="visible"/></clipPath><path class="st86" d="M262.3 109.9h28.1v25.4h-28.1z"/></g></g><g><defs><path id="SVGID_175_" d="M279.5 128.5c.1-.1.3-.2.4-.3l3.9-6.8c.1-.2.1-.4.1-.5-.1-.2-.2-.3-.3-.4-1.2-.7-2.4-.9-3.4-.5-1.2.5-2 1.6-2.5 2.5-.7 1.2-1 2.2-.9 3.1.1 1.2.8 2.2 2.2 2.9h.5m2.6-7.2l-3.1 5.5c-.5-.4-.8-.9-.9-1.4-.1-.6.2-1.3.7-2.3 1-1.9 1.9-2.4 3.3-1.8"/></defs><clipPath id="SVGID_176_"><use xlink:href="#SVGID_175_" overflow="visible"/></clipPath><g class="st87"><defs><path id="SVGID_177_" d="M-319.2-513.8h1024v768h-1024z"/></defs><clipPath id="SVGID_178_"><use xlink:href="#SVGID_177_" overflow="visible"/></clipPath><path class="st88" d="M271.7 114.7h17.1v18.8h-17.1z"/></g></g><g><defs><path id="SVGID_179_" d="M323.5 157.7c7.5 0 26.6-2.6 30.5-4.4l.4-1.4c-20.9 5.4-37.2 4.1-37.4 4.1-1-.1-21.3-1.6-27-14.8-3.5-8.3-11.7-9.5-16.7-11.8-4.9-2.2-8.1-3.4-7.1-7.6 1.7-7 6.1-9.2 9.8-9.9 8.4-1.5 19.3 3 24.1 10.1 4.5 6.6 12.9 14.8 17.5 12.4L316 132c-3.7 2.4-10.6-4.9-14.5-10.6-5.1-7.5-17.3-12.6-26.1-11-4.2.7-9.5 3.3-11.4 11-1.3 5.5 2.6 7.3 7.2 9.4 4.8 2.2 13.6 3.5 17 11.3 6 14.1 26.2 15.5 28.7 15.7.3 0 3.6.1 6.6-.1"/></defs><clipPath id="SVGID_180_"><use xlink:href="#SVGID_179_" overflow="visible"/></clipPath><g class="st89"><defs><path id="SVGID_181_" d="M-319.2-513.8h1024v768h-1024z"/></defs><clipPath id="SVGID_182_"><use xlink:href="#SVGID_181_" overflow="visible"/></clipPath><path class="st90" d="M258.7 105.1h100.6v57.8H258.7z"/></g></g><g><defs><path id="SVGID_183_" d="M361.2 182.5c10 0 20.3-3.8 29.2-10.6 7.8-6.1 12.9-15.4 14.3-26.2 1.7-13.8-2.5-28.5-11.8-40.4-.3-.4-.7-.5-1.1-.5-.3 0-.6.1-.9.3l-65.4 50.7c-.5.4-.7 1.1-.4 1.7 10.5 20.7 25.5 25 36.1 25"/></defs><clipPath id="SVGID_184_"><use xlink:href="#SVGID_183_" overflow="visible"/></clipPath><g class="st91"><defs><path id="SVGID_185_" d="M-319.2-513.8h1024v768h-1024z"/></defs><clipPath id="SVGID_186_"><use xlink:href="#SVGID_185_" overflow="visible"/></clipPath><path class="st92" d="M320 99.8h90v87.7h-90z"/></g></g><g><defs><path id="SVGID_187_" d="M391.8 106.2l-65.4 50.7c8.9 17.6 21.9 24.2 34.8 24.2 10.2 0 20.3-4.2 28.3-10.3 18.1-14 18.8-43.4 2.3-64.6m0-2.8c.8 0 1.7.4 2.2 1.1 9.4 12.1 13.8 27.2 12 41.4-1.4 11.2-6.7 20.8-14.8 27.1-9.1 7-19.7 10.9-30 10.9-15.6 0-28.9-9.2-37.3-25.8-.6-1.2-.3-2.6.8-3.5l65.4-50.7c.5-.3 1.1-.5 1.7-.5"/></defs><clipPath id="SVGID_188_"><use xlink:href="#SVGID_187_" overflow="visible"/></clipPath><g class="st93"><defs><path id="SVGID_189_" d="M-319.2-513.8h1024v768h-1024z"/></defs><clipPath id="SVGID_190_"><use xlink:href="#SVGID_189_" overflow="visible"/></clipPath><path class="st94" d="M318.6 98.4h92.8v90.5h-92.8z"/></g></g></svg>