<?xml version="1.0" encoding="utf-8"?>
<!-- Generator: Adobe Illustrator 19.1.0, SVG Export Plug-In . SVG Version: 6.00 Build 0)  -->
<svg version="1.1" id="Capa_1" xmlns="http://www.w3.org/2000/svg" xmlns:xlink="http://www.w3.org/1999/xlink" x="0px" y="0px"
	 viewBox="0 0 148.7 79.1" style="enable-background:new 0 0 148.7 79.1;" xml:space="preserve">
<style type="text/css">
	.st0{clip-path:url(#SVGID_2_);}
	.st1{clip-path:url(#SVGID_4_);fill:#79CA45;}
	.st2{clip-path:url(#SVGID_6_);}
	.st3{clip-path:url(#SVGID_8_);fill:#72BC43;}
	.st4{clip-path:url(#SVGID_10_);}
	.st5{clip-path:url(#SVGID_12_);}
	.st6{clip-path:url(#SVGID_14_);}
	.st7{clip-path:url(#SVGID_16_);fill:#79CA45;}
	.st8{clip-path:url(#SVGID_18_);}
	.st9{clip-path:url(#SVGID_20_);fill:#79CA45;}
	.st10{clip-path:url(#SVGID_22_);}
	.st11{clip-path:url(#SVGID_24_);fill:#72BC43;}
	.st12{clip-path:url(#SVGID_26_);}
	.st13{clip-path:url(#SVGID_28_);}
	.st14{clip-path:url(#SVGID_30_);}
	.st15{clip-path:url(#SVGID_32_);fill:#72BC43;}
	.st16{clip-path:url(#SVGID_34_);}
	.st17{clip-path:url(#SVGID_36_);}
	.st18{clip-path:url(#SVGID_38_);}
	.st19{clip-path:url(#SVGID_40_);fill:#79CA45;}
	.st20{clip-path:url(#SVGID_42_);}
	.st21{clip-path:url(#SVGID_44_);fill:#72BC43;}
	.st22{clip-path:url(#SVGID_46_);}
	.st23{clip-path:url(#SVGID_48_);}
	.st24{clip-path:url(#SVGID_50_);}
	.st25{clip-path:url(#SVGID_52_);fill:#79CA45;}
	.st26{clip-path:url(#SVGID_54_);}
	.st27{clip-path:url(#SVGID_56_);fill:#79CA45;}
	.st28{clip-path:url(#SVGID_58_);}
	.st29{clip-path:url(#SVGID_60_);fill:#79CA45;}
	.st30{clip-path:url(#SVGID_62_);}
	.st31{clip-path:url(#SVGID_64_);fill:#F5DECD;}
	.st32{clip-path:url(#SVGID_66_);}
	.st33{clip-path:url(#SVGID_68_);fill:#E9A89E;}
	.st34{clip-path:url(#SVGID_70_);}
	.st35{clip-path:url(#SVGID_72_);fill:#E9A89E;}
	.st36{clip-path:url(#SVGID_74_);}
	.st37{clip-path:url(#SVGID_76_);fill:#E9A89E;}
	.st38{clip-path:url(#SVGID_78_);}
	.st39{clip-path:url(#SVGID_80_);fill:#E9A89E;}
	.st40{clip-path:url(#SVGID_82_);}
	.st41{clip-path:url(#SVGID_84_);fill:#E9A89E;}
	.st42{clip-path:url(#SVGID_86_);}
	.st43{clip-path:url(#SVGID_88_);fill:#FAF1E4;}
	.st44{clip-path:url(#SVGID_90_);}
	.st45{clip-path:url(#SVGID_92_);fill:#FFFFFF;}
	.st46{clip-path:url(#SVGID_94_);}
	.st47{clip-path:url(#SVGID_96_);fill:#FAF1E4;}
	.st48{clip-path:url(#SVGID_98_);}
	.st49{clip-path:url(#SVGID_100_);fill:#FFFFFF;}
	.st50{clip-path:url(#SVGID_102_);}
	.st51{clip-path:url(#SVGID_104_);fill:#FAF1E4;}
	.st52{clip-path:url(#SVGID_106_);}
	.st53{clip-path:url(#SVGID_108_);fill:#FFFFFF;}
	.st54{clip-path:url(#SVGID_110_);}
	.st55{clip-path:url(#SVGID_112_);fill:#E9A89E;}
	.st56{clip-path:url(#SVGID_114_);}
	.st57{clip-path:url(#SVGID_116_);fill:#E9A89E;}
	.st58{clip-path:url(#SVGID_118_);}
	.st59{clip-path:url(#SVGID_120_);fill:#422B2C;}
	.st60{clip-path:url(#SVGID_122_);}
	.st61{clip-path:url(#SVGID_124_);fill:#422B2C;}
	.st62{clip-path:url(#SVGID_126_);}
	.st63{clip-path:url(#SVGID_128_);enable-background:new    ;}
	.st64{clip-path:url(#SVGID_130_);}
	.st65{clip-path:url(#SVGID_132_);}
	.st66{clip-path:url(#SVGID_134_);fill:#422B2C;}
	.st67{clip-path:url(#SVGID_136_);}
	.st68{clip-path:url(#SVGID_138_);fill:#422B2C;}
	.st69{clip-path:url(#SVGID_140_);}
	.st70{clip-path:url(#SVGID_142_);fill:#422B2C;}
	.st71{clip-path:url(#SVGID_144_);}
	.st72{clip-path:url(#SVGID_146_);fill:#422B2C;}
	.st73{clip-path:url(#SVGID_148_);}
	.st74{clip-path:url(#SVGID_150_);fill:#422B2C;}
	.st75{clip-path:url(#SVGID_152_);}
	.st76{clip-path:url(#SVGID_154_);fill:#422B2C;}
	.st77{clip-path:url(#SVGID_156_);}
	.st78{clip-path:url(#SVGID_158_);fill:#422B2C;}
	.st79{clip-path:url(#SVGID_160_);}
	.st80{clip-path:url(#SVGID_162_);fill:#422B2C;}
	.st81{clip-path:url(#SVGID_164_);}
	.st82{clip-path:url(#SVGID_166_);fill:#422B2C;}
	.st83{clip-path:url(#SVGID_168_);}
	.st84{clip-path:url(#SVGID_170_);fill:#79CA45;}
	.st85{clip-path:url(#SVGID_172_);}
	.st86{clip-path:url(#SVGID_174_);fill:#639E3F;}
</style>
<g>
	<g>
		<defs>
			<path id="SVGID_1_" d="M10,29.4c0,15,11.7,27.2,26.5,28c0.3,0,0.6,0.1,0.9,0.1h1.9h24.7h-5.3h12.3c4.7,0,8.6-3.9,8.6-8.6v-6.1
				c0-1.5,1.1-2.8,2.6-3.1c4.6-1.1,8-5.3,8-10.3c0-5-3.4-9.1-8-10.3c0,0,0,0-0.1,0c-1.4-0.3-2.4-1.6-2.5-3c0,0,0,0,0-0.1l0,0l0,0
				c0,0,0,0,0,0l0-6.1c0-3.5-2.1-6.5-5.2-7.8c-1-0.5-2.2-0.7-3.4-0.7H58.8h5.3H37.5c-0.3,0-0.6,0-0.9,0.1C21.8,2.2,10,14.4,10,29.4"
				/>
		</defs>
		<clipPath id="SVGID_2_">
			<use xlink:href="#SVGID_1_"  style="overflow:visible;"/>
		</clipPath>
		<g class="st0">
			<defs>
				<rect id="SVGID_3_" x="-172.3" y="-243.2" width="487.9" height="365.9"/>
			</defs>
			<clipPath id="SVGID_4_">
				<use xlink:href="#SVGID_3_"  style="overflow:visible;"/>
			</clipPath>
			<rect x="7.7" y="-1.1" class="st1" width="85" height="60.9"/>
		</g>
	</g>
	<g>
		<defs>
			<path id="SVGID_5_" d="M45.9,7.3c-12.4,0-22.5,10.1-22.5,22.4c0,6.9,3.2,13.1,8.1,17.2c1.3,1.1,2.7,2,4.3,2.8
				c1.1,0.6,2.3,1.1,3.6,1.4c2.1,0.6,4.3,1,6.5,1c3.3,0,6.4-0.7,9.2-2c2.5-1.1,4.8-2.7,6.7-4.7c1-1,2-2.2,2.8-3.4
				c2.4-3.6,3.7-7.8,3.7-12.4C68.4,17.4,58.3,7.3,45.9,7.3 M35.9,48c0.1-1.4,0.4-3.1,1.1-4.8l0.3,2.1c0.1,1.4,0.4,2.6,0.9,3.8
				C37.4,48.8,36.6,48.4,35.9,48 M56,48c0.4-1.4,0.5-2.9,0.3-4.4l-0.2-6.3c2.8,1.7,4.4,4.1,5.3,6.5C59.8,45.4,58,46.9,56,48
				 M63.7,40.6c-1.7-2.6-4.2-5-7.8-6.4l-0.5-12.5c-0.6-5.9-5.8-10.2-11.7-9.7c-5.9,0.6-10.2,5.8-9.7,11.7l0,0.2
				c-1.1,0.9-1.7,2.2-1.6,3.7c0.2,1.6,1.2,3,2.7,3.5l1.1,7c-2.1,2.2-3.4,4.8-4.2,7.1c-4.3-3.8-7-9.4-7-15.6
				c0-11.5,9.3-20.8,20.8-20.8c11.5,0,20.8,9.3,20.8,20.8C66.7,33.7,65.6,37.4,63.7,40.6"/>
		</defs>
		<clipPath id="SVGID_6_">
			<use xlink:href="#SVGID_5_"  style="overflow:visible;"/>
		</clipPath>
		<g class="st2">
			<defs>
				<rect id="SVGID_7_" x="-172.3" y="-243.2" width="487.9" height="365.9"/>
			</defs>
			<clipPath id="SVGID_8_">
				<use xlink:href="#SVGID_7_"  style="overflow:visible;"/>
			</clipPath>
			<rect x="21.1" y="4.9" class="st3" width="49.7" height="49.6"/>
		</g>
	</g>
	<g>
		<defs>
			<path id="SVGID_9_" d="M45.9,7.3c-12.4,0-22.5,10.1-22.5,22.4c0,6.9,3.2,13.1,8.1,17.2c1.3,1.1,2.7,2,4.3,2.8
				c1.1,0.6,2.3,1.1,3.6,1.4c2.1,0.6,4.3,1,6.5,1c3.3,0,6.4-0.7,9.2-2c2.5-1.1,4.8-2.7,6.7-4.7c1-1,2-2.2,2.8-3.4
				c2.4-3.6,3.7-7.8,3.7-12.4C68.4,17.4,58.3,7.3,45.9,7.3 M35.9,48c0.1-1.4,0.4-3.1,1.1-4.8l0.3,2.1c0.1,1.4,0.4,2.6,0.9,3.8
				C37.4,48.8,36.6,48.4,35.9,48 M56,48c0.4-1.4,0.5-2.9,0.3-4.4l-0.2-6.3c2.8,1.7,4.4,4.1,5.3,6.5C59.8,45.4,58,46.9,56,48
				 M63.7,40.6c-1.7-2.6-4.2-5-7.8-6.4l-0.5-12.5c-0.6-5.9-5.8-10.2-11.7-9.7c-5.9,0.6-10.2,5.8-9.7,11.7l0,0.2
				c-1.1,0.9-1.7,2.2-1.6,3.7c0.2,1.6,1.2,3,2.7,3.5l1.1,7c-2.1,2.2-3.4,4.8-4.2,7.1c-4.3-3.8-7-9.4-7-15.6
				c0-11.5,9.3-20.8,20.8-20.8c11.5,0,20.8,9.3,20.8,20.8C66.7,33.7,65.6,37.4,63.7,40.6"/>
		</defs>
		<clipPath id="SVGID_10_">
			<use xlink:href="#SVGID_9_"  style="overflow:visible;"/>
		</clipPath>
		<g class="st4">
			<defs>
				<rect id="SVGID_11_" x="-172.3" y="-243.2" width="487.9" height="365.9"/>
			</defs>
			<clipPath id="SVGID_12_">
				<use xlink:href="#SVGID_11_"  style="overflow:visible;"/>
			</clipPath>
			<rect x="21.1" y="4.9" class="st5" width="49.7" height="49.6"/>
		</g>
	</g>
	<g>
		<defs>
			<path id="SVGID_13_" d="M52,25.9c-0.2-1.8-1.7-3.2-3.5-3.2c-0.1,0-0.2,0-0.3,0c-0.9,0.1-1.8,0.5-2.4,1.3
				c-0.6,0.7-0.9,1.7-0.8,2.6c0.2,1.8,1.7,3.2,3.5,3.2c0.1,0,0.2,0,0.3,0c0.9-0.1,1.8-0.5,2.4-1.3C51.8,27.8,52.1,26.9,52,25.9"/>
		</defs>
		<clipPath id="SVGID_14_">
			<use xlink:href="#SVGID_13_"  style="overflow:visible;"/>
		</clipPath>
		<g class="st6">
			<defs>
				<rect id="SVGID_15_" x="-172.3" y="-243.2" width="487.9" height="365.9"/>
			</defs>
			<clipPath id="SVGID_16_">
				<use xlink:href="#SVGID_15_"  style="overflow:visible;"/>
			</clipPath>
			<rect x="42.5" y="20.3" class="st7" width="11.9" height="11.9"/>
		</g>
	</g>
	<g>
		<defs>
			<path id="SVGID_17_" d="M38.9,24.9c-0.7-0.5-1.5-0.8-2.3-0.7c-1.8,0.2-3,1.7-2.9,3.5c0.1,0.8,0.5,1.6,1.1,2.2
				c0.6,0.5,1.3,0.7,2,0.7c0.1,0,0.2,0,0.3,0c0.8-0.1,1.6-0.5,2.2-1.1c0.5-0.7,0.8-1.5,0.7-2.3C40,26.2,39.6,25.4,38.9,24.9"/>
		</defs>
		<clipPath id="SVGID_18_">
			<use xlink:href="#SVGID_17_"  style="overflow:visible;"/>
		</clipPath>
		<g class="st8">
			<defs>
				<rect id="SVGID_19_" x="-172.3" y="-243.2" width="487.9" height="365.9"/>
			</defs>
			<clipPath id="SVGID_20_">
				<use xlink:href="#SVGID_19_"  style="overflow:visible;"/>
			</clipPath>
			<rect x="31.3" y="21.8" class="st9" width="11.1" height="11.1"/>
		</g>
	</g>
	<g>
		<defs>
			<path id="SVGID_21_" d="M48.6,28c0.3,0,0.5-0.3,0.4-0.5l-0.2-2.6c0-0.3-0.3-0.5-0.5-0.4c-0.3,0-0.5,0.3-0.4,0.5l0.2,2.6
				C48.1,27.9,48.3,28.1,48.6,28"/>
		</defs>
		<clipPath id="SVGID_22_">
			<use xlink:href="#SVGID_21_"  style="overflow:visible;"/>
		</clipPath>
		<g class="st10">
			<defs>
				<rect id="SVGID_23_" x="-172.3" y="-243.2" width="487.9" height="365.9"/>
			</defs>
			<clipPath id="SVGID_24_">
				<use xlink:href="#SVGID_23_"  style="overflow:visible;"/>
			</clipPath>
			<rect x="45.4" y="22.1" class="st11" width="6" height="8.4"/>
		</g>
	</g>
	<g>
		<defs>
			<path id="SVGID_25_" d="M48.6,28c0.3,0,0.5-0.3,0.4-0.5l-0.2-2.6c0-0.3-0.3-0.5-0.5-0.4c-0.3,0-0.5,0.3-0.4,0.5l0.2,2.6
				C48.1,27.9,48.3,28.1,48.6,28"/>
		</defs>
		<clipPath id="SVGID_26_">
			<use xlink:href="#SVGID_25_"  style="overflow:visible;"/>
		</clipPath>
		<g class="st12">
			<defs>
				<rect id="SVGID_27_" x="-172.3" y="-243.2" width="487.9" height="365.9"/>
			</defs>
			<clipPath id="SVGID_28_">
				<use xlink:href="#SVGID_27_"  style="overflow:visible;"/>
			</clipPath>
			<rect x="45.4" y="22.1" class="st13" width="6" height="8.4"/>
		</g>
	</g>
	<g>
		<defs>
			<path id="SVGID_29_" d="M36.8,29.2c0.3,0,0.5-0.3,0.4-0.5L37,26c0-0.3-0.3-0.5-0.5-0.4c-0.3,0-0.5,0.3-0.4,0.5l0.2,2.6
				C36.3,29,36.6,29.2,36.8,29.2"/>
		</defs>
		<clipPath id="SVGID_30_">
			<use xlink:href="#SVGID_29_"  style="overflow:visible;"/>
		</clipPath>
		<g class="st14">
			<defs>
				<rect id="SVGID_31_" x="-172.3" y="-243.2" width="487.9" height="365.9"/>
			</defs>
			<clipPath id="SVGID_32_">
				<use xlink:href="#SVGID_31_"  style="overflow:visible;"/>
			</clipPath>
			<rect x="33.7" y="23.2" class="st15" width="6" height="8.4"/>
		</g>
	</g>
	<g>
		<defs>
			<path id="SVGID_33_" d="M36.8,29.2c0.3,0,0.5-0.3,0.4-0.5L37,26c0-0.3-0.3-0.5-0.5-0.4c-0.3,0-0.5,0.3-0.4,0.5l0.2,2.6
				C36.3,29,36.6,29.2,36.8,29.2"/>
		</defs>
		<clipPath id="SVGID_34_">
			<use xlink:href="#SVGID_33_"  style="overflow:visible;"/>
		</clipPath>
		<g class="st16">
			<defs>
				<rect id="SVGID_35_" x="-172.3" y="-243.2" width="487.9" height="365.9"/>
			</defs>
			<clipPath id="SVGID_36_">
				<use xlink:href="#SVGID_35_"  style="overflow:visible;"/>
			</clipPath>
			<rect x="33.7" y="23.2" class="st17" width="6" height="8.4"/>
		</g>
	</g>
	<g>
		<defs>
			<path id="SVGID_37_" d="M43.4,35.4c-1.8,0.2-3.5-0.3-4.9-1.3c-0.7-0.5-0.8-1.5-0.3-2.2c0.6-0.7,1.6-0.8,2.3-0.3
				c1.6,1.2,3.9,0.9,5.2-0.6c0.6-0.7,1.6-0.8,2.3-0.3c0.7,0.5,0.8,1.5,0.3,2.2c-1.1,1.4-2.8,2.3-4.7,2.5
				C43.5,35.4,43.5,35.4,43.4,35.4"/>
		</defs>
		<clipPath id="SVGID_38_">
			<use xlink:href="#SVGID_37_"  style="overflow:visible;"/>
		</clipPath>
		<g class="st18">
			<defs>
				<rect id="SVGID_39_" x="-172.3" y="-243.2" width="487.9" height="365.9"/>
			</defs>
			<clipPath id="SVGID_40_">
				<use xlink:href="#SVGID_39_"  style="overflow:visible;"/>
			</clipPath>
			<rect x="35.5" y="28" class="st19" width="15.6" height="9.8"/>
		</g>
	</g>
	<g>
		<defs>
			<path id="SVGID_41_" d="M43.3,34.4c-1.4,0.1-2.9-0.2-4.1-1.1c-0.2-0.2-0.3-0.5-0.1-0.7c0.2-0.2,0.5-0.3,0.8-0.1
				c2.1,1.5,5.1,1.1,6.7-0.8c0.2-0.2,0.5-0.3,0.8-0.1c0.2,0.2,0.3,0.5,0.1,0.7C46.4,33.5,44.9,34.2,43.3,34.4"/>
		</defs>
		<clipPath id="SVGID_42_">
			<use xlink:href="#SVGID_41_"  style="overflow:visible;"/>
		</clipPath>
		<g class="st20">
			<defs>
				<rect id="SVGID_43_" x="-172.3" y="-243.2" width="487.9" height="365.9"/>
			</defs>
			<clipPath id="SVGID_44_">
				<use xlink:href="#SVGID_43_"  style="overflow:visible;"/>
			</clipPath>
			<rect x="36.6" y="29" class="st21" width="13.4" height="7.8"/>
		</g>
	</g>
	<g>
		<defs>
			<path id="SVGID_45_" d="M43.3,34.4c-1.4,0.1-2.9-0.2-4.1-1.1c-0.2-0.2-0.3-0.5-0.1-0.7c0.2-0.2,0.5-0.3,0.8-0.1
				c2.1,1.5,5.1,1.1,6.7-0.8c0.2-0.2,0.5-0.3,0.8-0.1c0.2,0.2,0.3,0.5,0.1,0.7C46.4,33.5,44.9,34.2,43.3,34.4"/>
		</defs>
		<clipPath id="SVGID_46_">
			<use xlink:href="#SVGID_45_"  style="overflow:visible;"/>
		</clipPath>
		<g class="st22">
			<defs>
				<rect id="SVGID_47_" x="-172.3" y="-243.2" width="487.9" height="365.9"/>
			</defs>
			<clipPath id="SVGID_48_">
				<use xlink:href="#SVGID_47_"  style="overflow:visible;"/>
			</clipPath>
			<rect x="36.6" y="29" class="st23" width="13.4" height="7.8"/>
		</g>
	</g>
	<g>
		<defs>
			<path id="SVGID_49_" d="M38.2,37.3c0,0.2,0,0.3,0.1,0.5c0,0.2,0.1,0.3,0.1,0.5c0,0.2,0.1,0.3,0.1,0.5c0.1,0.2,0.1,0.3,0.2,0.5
				c0.1,0.3,0.3,0.6,0.5,0.8c0.1,0.1,0.2,0.2,0.3,0.3c0.1,0.1,0.3,0.1,0.4,0.1c0.2,0,0.2-0.1,0.4-0.2c0.1-0.1,0.2-0.2,0.3-0.4
				c0.2-0.3,0.3-0.6,0.3-0.9c0.1-0.6,0.2-1.3,0.1-2l0.4,0c0.1,0.7,0.2,1.3,0.5,1.9c0.1,0.3,0.3,0.6,0.5,0.8c0.1,0.1,0.2,0.2,0.3,0.3
				c0.1,0.1,0.2,0.1,0.3,0.1c0.2,0,0.2-0.1,0.3-0.2c0.1-0.1,0.2-0.2,0.3-0.3c0.2-0.3,0.3-0.6,0.3-0.9c0-0.2,0.1-0.3,0.1-0.5
				c0-0.2,0-0.3,0-0.5c0-0.2,0-0.3,0-0.5c0-0.2,0-0.3,0-0.5l0.5,0c0.1,0.7,0.2,1.3,0.5,1.9c0.1,0.3,0.3,0.6,0.5,0.8
				c0.1,0.1,0.2,0.2,0.3,0.3c0.1,0,0.1,0.1,0.2,0.1c0,0,0.1,0,0.1,0l0,0l0,0l0,0h0l0,0h0c0,0,0,0,0,0l0.1,0c0.1,0,0,0,0.1,0
				c0,0,0.1-0.1,0.1-0.1c0.1-0.1,0.2-0.2,0.3-0.3c0.2-0.3,0.3-0.6,0.3-0.9c0.1-0.6,0.2-1.3,0.1-2l0.4,0c0,0.3,0.1,0.7,0.2,1
				c0,0.2,0.1,0.3,0.1,0.5c0,0.2,0.1,0.3,0.2,0.5c0.1,0.3,0.3,0.6,0.5,0.8c0.1,0.1,0.2,0.2,0.3,0.3c0.1,0,0.1,0.1,0.2,0.1
				c0,0,0.1,0,0.1,0l0,0l0,0l0,0l0,0l0,0h0c0,0,0,0,0,0c0.1,0,0.2,0,0.2-0.1c0.1,0,0.1-0.1,0.2-0.1c0.1-0.1,0.2-0.2,0.3-0.4
				c0.2-0.3,0.3-0.6,0.4-0.9c0-0.2,0.1-0.3,0.1-0.5c0-0.2,0-0.3,0.1-0.5c0-0.3,0-0.7,0-1v0c0,0,0-0.1,0.1-0.1c0,0,0.1,0,0.1,0.1
				c0,0.3,0.1,0.7,0.1,1c0,0.2,0,0.3,0,0.5c0,0.2,0,0.3-0.1,0.5c-0.1,0.3-0.2,0.7-0.3,1c-0.1,0.2-0.2,0.3-0.3,0.4
				c-0.1,0.1-0.1,0.1-0.3,0.2c-0.1,0.1-0.2,0.1-0.3,0.1c-0.2,0-0.4,0-0.6-0.1c-0.2-0.1-0.3-0.2-0.4-0.4c-0.2-0.3-0.4-0.6-0.6-0.9
				c-0.3-0.6-0.4-1.3-0.5-2c0-0.1,0.1-0.2,0.2-0.2c0.1,0,0.2,0.1,0.2,0.2l0,0v0c0.1,0.7,0.1,1.4-0.1,2.1c-0.1,0.3-0.2,0.7-0.4,1
				c-0.1,0.2-0.2,0.3-0.4,0.5c0,0-0.1,0.1-0.1,0.1c0,0-0.1,0.1-0.2,0.1c-0.1,0.1-0.2,0.1-0.3,0.1c-0.1,0,0,0,0,0h0h0h0h0h0l-0.1,0
				c-0.1,0-0.1,0-0.2,0c-0.1,0-0.2-0.1-0.3-0.1c-0.2-0.1-0.3-0.2-0.4-0.4c-0.2-0.3-0.4-0.6-0.6-0.9c-0.3-0.7-0.4-1.4-0.5-2
				c0-0.1,0.1-0.3,0.2-0.3c0.1,0,0.3,0.1,0.3,0.2l0,0c0.1,0.7,0,1.4-0.1,2.1c-0.1,0.3-0.2,0.7-0.4,1c-0.1,0.2-0.2,0.3-0.4,0.5
				c-0.1,0.1-0.4,0.2-0.6,0.3c-0.2,0-0.4-0.1-0.6-0.2c-0.2-0.1-0.3-0.2-0.4-0.4c-0.2-0.3-0.4-0.6-0.6-0.9c-0.3-0.7-0.4-1.3-0.5-2v0
				c0-0.1,0.1-0.2,0.2-0.2c0.1,0,0.2,0.1,0.2,0.2l0,0c0.1,0.7,0,1.4-0.1,2.1c-0.1,0.3-0.2,0.7-0.4,1c-0.1,0.2-0.2,0.3-0.4,0.4
				c-0.1,0.1-0.4,0.2-0.6,0.2c-0.2,0-0.4-0.1-0.6-0.1c-0.2-0.1-0.3-0.2-0.4-0.4c-0.2-0.3-0.4-0.6-0.5-0.9c-0.1-0.2-0.1-0.3-0.2-0.5
				c-0.1-0.2-0.1-0.3-0.1-0.5c0-0.2-0.1-0.3-0.1-0.5c0-0.2,0-0.3,0-0.5C38,37.3,38.1,37.2,38.2,37.3C38.1,37.2,38.2,37.2,38.2,37.3"
				/>
		</defs>
		<clipPath id="SVGID_50_">
			<use xlink:href="#SVGID_49_"  style="overflow:visible;"/>
		</clipPath>
		<g class="st24">
			<defs>
				<rect id="SVGID_51_" x="-172.3" y="-243.2" width="487.9" height="365.9"/>
			</defs>
			<clipPath id="SVGID_52_">
				<use xlink:href="#SVGID_51_"  style="overflow:visible;"/>
			</clipPath>
			<rect x="35.7" y="33.7" class="st25" width="17.4" height="9.5"/>
		</g>
	</g>
	<g>
		<defs>
			<path id="SVGID_53_" d="M40.9,41.5c0,0.3,0.1,0.7,0.1,1c0,0.2,0,0.3,0.1,0.5c0,0.2,0.1,0.3,0.1,0.5c0.1,0.3,0.2,0.6,0.4,0.9
				c0.1,0.1,0.2,0.3,0.3,0.4c0.1,0.1,0.2,0.2,0.3,0.3c0.1,0.1,0.2,0.1,0.3,0.1l0,0h0c0,0,0,0,0,0l0,0l0,0l0,0l0.1,0l0,0l0,0
				c0,0,0,0,0,0c0,0,0,0,0.1,0c0,0,0,0,0.1-0.1c0.1-0.1,0.2-0.2,0.2-0.3c0.1-0.1,0.1-0.3,0.2-0.4c0.1-0.3,0.1-0.6,0.2-0.9
				c0-0.2,0-0.3,0-0.5c0-0.2,0-0.3,0-0.5l0.5,0c0,0.5,0.2,1.1,0.4,1.6c0.1,0.2,0.2,0.5,0.4,0.7c0.1,0.1,0.2,0.2,0.3,0.2
				c0.1,0.1,0.2,0.1,0.3,0.1c0.1,0,0.2-0.1,0.3-0.1c0.1-0.1,0.2-0.2,0.2-0.3c0.1-0.2,0.2-0.5,0.3-0.7c0.1-0.5,0.1-1.1,0.1-1.6l0.4,0
				c0,0.6,0.2,1.1,0.4,1.6c0.1,0.3,0.2,0.5,0.4,0.7c0.1,0.1,0.2,0.2,0.3,0.3c0.1,0.1,0.2,0.1,0.3,0.1c0.1,0,0.1,0,0.2,0
				c0,0,0.1-0.1,0.1-0.1c0.1-0.1,0.2-0.2,0.2-0.3c0.1-0.2,0.2-0.5,0.3-0.8c0.1-0.5,0.2-1.1,0.1-1.7c0,0,0-0.1,0.1-0.1
				c0,0,0.1,0,0.1,0.1c0.1,0.6,0.1,1.2-0.1,1.7c-0.1,0.3-0.1,0.6-0.3,0.8c-0.1,0.1-0.2,0.3-0.3,0.4c-0.1,0.1-0.1,0.1-0.2,0.1
				c-0.1,0-0.2,0.1-0.2,0.1c-0.2,0-0.4,0-0.5-0.1c-0.1-0.1-0.3-0.2-0.4-0.3c-0.2-0.2-0.3-0.5-0.5-0.8c-0.2-0.5-0.4-1.1-0.4-1.7
				c0-0.1,0.1-0.2,0.2-0.2c0.1,0,0.2,0.1,0.2,0.2v0l0,0c0.1,0.6,0.1,1.2-0.1,1.8c-0.1,0.3-0.1,0.6-0.3,0.9c-0.1,0.1-0.2,0.3-0.3,0.4
				c-0.1,0.1-0.3,0.2-0.5,0.2c-0.2,0-0.4,0-0.5-0.1c-0.2-0.1-0.3-0.2-0.4-0.3c-0.2-0.2-0.4-0.5-0.5-0.8c-0.2-0.6-0.4-1.1-0.4-1.7
				c0-0.1,0.1-0.3,0.2-0.3c0.1,0,0.3,0.1,0.3,0.2c0,0,0,0,0,0c0,0.2,0,0.3,0,0.5c0,0.2,0,0.3,0,0.5c0,0.3-0.1,0.7-0.2,1
				c0,0.2-0.1,0.3-0.2,0.5c-0.1,0.2-0.2,0.3-0.3,0.5c0,0-0.1,0.1-0.1,0.1c0,0-0.1,0.1-0.2,0.1l-0.1,0l0,0l0,0l-0.1,0l0,0l0,0l0,0h0
				h0c-0.2,0-0.5-0.1-0.6-0.2c-0.2-0.1-0.3-0.3-0.3-0.4c-0.1-0.2-0.2-0.3-0.2-0.5c-0.1-0.3-0.2-0.6-0.3-1c0-0.2-0.1-0.3-0.1-0.5
				c0-0.2,0-0.3,0-0.5c0-0.3,0-0.7-0.1-1C40.8,41.5,40.8,41.5,40.9,41.5C40.9,41.4,40.9,41.5,40.9,41.5
				C40.9,41.5,40.9,41.5,40.9,41.5"/>
		</defs>
		<clipPath id="SVGID_54_">
			<use xlink:href="#SVGID_53_"  style="overflow:visible;"/>
		</clipPath>
		<g class="st26">
			<defs>
				<rect id="SVGID_55_" x="-172.3" y="-243.2" width="487.9" height="365.9"/>
			</defs>
			<clipPath id="SVGID_56_">
				<use xlink:href="#SVGID_55_"  style="overflow:visible;"/>
			</clipPath>
			<rect x="38.4" y="39.1" class="st27" width="12.8" height="8.9"/>
		</g>
	</g>
	<g>
		<defs>
			<path id="SVGID_57_" d="M52.5,30.2c-0.1,0-0.2,0-0.2-0.1c-0.1-0.1,0-0.3,0.1-0.4c1.3-0.8,2-2.2,1.9-3.7c-0.1-1.3-0.9-2.5-2.1-3.1
				c-0.1-0.1-0.2-0.2-0.1-0.4c0.1-0.1,0.2-0.2,0.4-0.1c1.4,0.7,2.3,2,2.4,3.6c0.2,1.7-0.7,3.3-2.1,4.2
				C52.6,30.1,52.5,30.2,52.5,30.2"/>
		</defs>
		<clipPath id="SVGID_58_">
			<use xlink:href="#SVGID_57_"  style="overflow:visible;"/>
		</clipPath>
		<g class="st28">
			<defs>
				<rect id="SVGID_59_" x="-172.3" y="-243.2" width="487.9" height="365.9"/>
			</defs>
			<clipPath id="SVGID_60_">
				<use xlink:href="#SVGID_59_"  style="overflow:visible;"/>
			</clipPath>
			<rect x="49.6" y="19.9" class="st29" width="7.6" height="12.6"/>
		</g>
	</g>
	<g>
		<defs>
			<path id="SVGID_61_" d="M73,16.7c0,0,2.3-3.4,6.1-0.8c2.3,1.5,7.1,3.3,11.4,4.7c2-1.4,4.6-2,7.3-2.2l0-0.1c0,0,3.1-5.1,8.8-4.5
				c5.7,0.6,22.9,2.9,29.8,18.7l0,0c0.3,1.1,2.4,11.9-2.5,16.9c-5.1,5.2-4.8,12.7-26.6,13.5c-21.8,0.8-14.5-10-22.8-11.3l-5.9-2.8
				c0,0-1.9-4.8,3.1-7.3c5-2.4,10.9,2.2,10.9,2.2s6.1,8.1,8.4,8.1c2.3,0.1,2.7-2.6-4.1-6.6c-0.9-0.5-1.5-1-1.8-1.5
				c-2.2-1.2-4.2-2.1-4.9-2.5c-0.8-0.5-7.2-3.7-11.4-7.9c-0.7-0.7-1.3-1.4-1.8-2.1l-0.2,0C76.8,31.4,66.1,26.1,73,16.7"/>
		</defs>
		<clipPath id="SVGID_62_">
			<use xlink:href="#SVGID_61_"  style="overflow:visible;"/>
		</clipPath>
		<g class="st30">
			<defs>
				<rect id="SVGID_63_" x="-172.3" y="-243.2" width="487.9" height="365.9"/>
			</defs>
			<clipPath id="SVGID_64_">
				<use xlink:href="#SVGID_63_"  style="overflow:visible;"/>
			</clipPath>
			<rect x="68.3" y="11.4" class="st31" width="71.1" height="53.9"/>
		</g>
	</g>
	<g>
		<defs>
			<path id="SVGID_65_" d="M103.6,51.7l-1.1-2.3l-2.9-2.7l-6.2-3.9l-8.5-4.9l-4.5-3.5l-3.2-3.1l-1.8-4.1l0.6-2.5l1.5-1.8
				c0,0-1.6,2.8,2.3,7.4c3.9,4.6,24,13,25.3,18.5c0,0,0,0.1,0,0.1C105.1,48.9,105.9,51.6,103.6,51.7"/>
		</defs>
		<clipPath id="SVGID_66_">
			<use xlink:href="#SVGID_65_"  style="overflow:visible;"/>
		</clipPath>
		<g class="st32">
			<defs>
				<rect id="SVGID_67_" x="-172.3" y="-243.2" width="487.9" height="365.9"/>
			</defs>
			<clipPath id="SVGID_68_">
				<use xlink:href="#SVGID_67_"  style="overflow:visible;"/>
			</clipPath>
			<rect x="73" y="20.5" class="st33" width="34.6" height="33.6"/>
		</g>
	</g>
	<g>
		<defs>
			<path id="SVGID_69_" d="M71.1,18.5l-1,2.6v2.8l0.5,2.1l1.5,2.2l1.3,1.6l2.9,1.8l1-0.7l-1.2-1.9C76.1,28.9,71.2,25.6,71.1,18.5"/>
		</defs>
		<clipPath id="SVGID_70_">
			<use xlink:href="#SVGID_69_"  style="overflow:visible;"/>
		</clipPath>
		<g class="st34">
			<defs>
				<rect id="SVGID_71_" x="-172.3" y="-243.2" width="487.9" height="365.9"/>
			</defs>
			<clipPath id="SVGID_72_">
				<use xlink:href="#SVGID_71_"  style="overflow:visible;"/>
			</clipPath>
			<rect x="67.7" y="16.1" class="st35" width="12" height="17.8"/>
		</g>
	</g>
	<g>
		<defs>
			<path id="SVGID_73_" d="M102,31.8l-14.6-7.9c0,0,2.1,4.4,14.6,8.1"/>
		</defs>
		<clipPath id="SVGID_74_">
			<use xlink:href="#SVGID_73_"  style="overflow:visible;"/>
		</clipPath>
		<g class="st36">
			<defs>
				<rect id="SVGID_75_" x="-172.3" y="-243.2" width="487.9" height="365.9"/>
			</defs>
			<clipPath id="SVGID_76_">
				<use xlink:href="#SVGID_75_"  style="overflow:visible;"/>
			</clipPath>
			<rect x="85" y="21.5" class="st37" width="19.3" height="12.8"/>
		</g>
	</g>
	<g>
		<defs>
			<polygon id="SVGID_77_" points="91.7,20.4 105.9,24.9 89.7,21 			"/>
		</defs>
		<clipPath id="SVGID_78_">
			<use xlink:href="#SVGID_77_"  style="overflow:visible;"/>
		</clipPath>
		<g class="st38">
			<defs>
				<rect id="SVGID_79_" x="-172.3" y="-243.2" width="487.9" height="365.9"/>
			</defs>
			<clipPath id="SVGID_80_">
				<use xlink:href="#SVGID_79_"  style="overflow:visible;"/>
			</clipPath>
			<rect x="87.3" y="18" class="st39" width="21" height="9.3"/>
		</g>
	</g>
	<g>
		<defs>
			<path id="SVGID_81_" d="M99.2,17.4c0,0,11.1,1.2,12.7,3.1l-3.7-0.9l-2.7-0.5H104l-5.9-0.3L99.2,17.4z"/>
		</defs>
		<clipPath id="SVGID_82_">
			<use xlink:href="#SVGID_81_"  style="overflow:visible;"/>
		</clipPath>
		<g class="st40">
			<defs>
				<rect id="SVGID_83_" x="-172.3" y="-243.2" width="487.9" height="365.9"/>
			</defs>
			<clipPath id="SVGID_84_">
				<use xlink:href="#SVGID_83_"  style="overflow:visible;"/>
			</clipPath>
			<rect x="95.7" y="15" class="st41" width="18.6" height="7.8"/>
		</g>
	</g>
	<g>
		<defs>
			<path id="SVGID_85_" d="M79.3,22c0,0,0.8-0.4,1.8-0.4c1,0,1.9,0.3,2.6,1c2.2,2.1,3.3,3.1,3.5,3.4c0.2,0.3,0.5,0.7-4.1,4.2
				c-0.1,0-0.1,0.1-0.2,0.1c-0.1,0-0.1,0-0.2,0c-0.2-0.1-5.6-2.9-5.6-5.7C77.3,23.5,78,22.7,79.3,22 M83.3,29.6
				c0.1,0.1,0.2,0.1,0.3,0.1c0.1,0,0.2,0,0.2-0.1l2.9-2.4c0.1-0.1,0.1-0.1,0.1-0.2c0-0.1,0-0.2-0.1-0.2c-0.1-0.1-0.1-0.1-0.2-0.2
				c-0.4-0.4-0.8-0.6-1.2-0.6c-0.6,0-1.2,0.4-1.5,0.7c-0.5,0.4-0.8,0.8-0.9,1.2c-0.1,0.5,0,1,0.3,1.5C83.2,29.4,83.3,29.5,83.3,29.6
				"/>
		</defs>
		<clipPath id="SVGID_86_">
			<use xlink:href="#SVGID_85_"  style="overflow:visible;"/>
		</clipPath>
		<g class="st42">
			<defs>
				<rect id="SVGID_87_" x="-172.3" y="-243.2" width="487.9" height="365.9"/>
			</defs>
			<clipPath id="SVGID_88_">
				<use xlink:href="#SVGID_87_"  style="overflow:visible;"/>
			</clipPath>
			<rect x="74.9" y="19.2" class="st43" width="14.9" height="13.4"/>
		</g>
	</g>
	<g>
		<defs>
			<path id="SVGID_89_" d="M82.9,27.9c0.1-0.4,0.4-0.8,0.9-1.2c0.4-0.3,0.9-0.7,1.5-0.7c0.4,0,0.8,0.2,1.2,0.6
				c0.1,0.1,0.1,0.1,0.2,0.2c0.1,0.1,0.1,0.2,0.1,0.2c0,0.1-0.1,0.2-0.1,0.2l-2.9,2.4c-0.1,0.1-0.1,0.1-0.2,0.1
				c-0.1,0-0.2,0-0.3-0.1c-0.1-0.1-0.1-0.1-0.1-0.2C82.8,28.9,82.7,28.4,82.9,27.9"/>
		</defs>
		<clipPath id="SVGID_90_">
			<use xlink:href="#SVGID_89_"  style="overflow:visible;"/>
		</clipPath>
		<g class="st44">
			<defs>
				<rect id="SVGID_91_" x="-172.3" y="-243.2" width="487.9" height="365.9"/>
			</defs>
			<clipPath id="SVGID_92_">
				<use xlink:href="#SVGID_91_"  style="overflow:visible;"/>
			</clipPath>
			<rect x="80.4" y="23.6" class="st45" width="8.8" height="8.5"/>
		</g>
	</g>
	<g>
		<defs>
			<path id="SVGID_93_" d="M72.7,17.5c1.2-1.9,3.2-2.3,5-0.8c1.3,1.1,4.4,2.1,4.4,2.1c0.1,0,0.2,0.1,0.2,0.2c0,0.1,0,0.2-0.1,0.3
				l-1,0.8c0.1-0.1,0.1-0.2,0.1-0.2c0-0.1,0-0.2-0.1-0.2c-0.1-0.1-0.1-0.1-0.2-0.2c-0.4-0.3-0.8-0.5-1.1-0.5c-0.7,0-1.3,0.5-1.6,0.9
				c-0.4,0.5-0.7,0.9-0.8,1.3c0,0,0,0,0,0c0,0,0,0.3,0,0.3c0,0.1,0.1,0.4,0.2,0.5c-1.2,0.7-2,1.6-2,1.6c-0.1,0.1-0.2,0.1-0.3,0.1
				c0,0-0.1,0-0.1,0c-1-0.3-1.8-0.7-3-1.8C72.2,21.8,70.6,20.6,72.7,17.5"/>
		</defs>
		<clipPath id="SVGID_94_">
			<use xlink:href="#SVGID_93_"  style="overflow:visible;"/>
		</clipPath>
		<g class="st46">
			<defs>
				<rect id="SVGID_95_" x="-172.3" y="-243.2" width="487.9" height="365.9"/>
			</defs>
			<clipPath id="SVGID_96_">
				<use xlink:href="#SVGID_95_"  style="overflow:visible;"/>
			</clipPath>
			<rect x="69.3" y="13.4" class="st47" width="15.5" height="12.6"/>
		</g>
	</g>
	<g>
		<defs>
			<polygon id="SVGID_97_" points="80.9,19.7 80.9,19.7 80.3,19.4 79.8,19.4 78.8,19.7 78.2,20.3 77.9,21 79.1,20.7 80.1,20.4 			
				"/>
		</defs>
		<clipPath id="SVGID_98_">
			<use xlink:href="#SVGID_97_"  style="overflow:visible;"/>
		</clipPath>
		<g class="st48">
			<defs>
				<rect id="SVGID_99_" x="-172.3" y="-243.2" width="487.9" height="365.9"/>
			</defs>
			<clipPath id="SVGID_100_">
				<use xlink:href="#SVGID_99_"  style="overflow:visible;"/>
			</clipPath>
			<rect x="75.5" y="17" class="st49" width="7.8" height="6.4"/>
		</g>
	</g>
	<g>
		<defs>
			<polygon id="SVGID_101_" points="88,44.6 86.4,44 84.3,43.5 82.7,43.5 81.9,43.9 81.1,44.9 80.5,46.2 80.5,47.3 81,48.2 
				82.4,48.8 84,49.4 85.3,50 88.3,45.1 			"/>
		</defs>
		<clipPath id="SVGID_102_">
			<use xlink:href="#SVGID_101_"  style="overflow:visible;"/>
		</clipPath>
		<g class="st50">
			<defs>
				<rect id="SVGID_103_" x="-172.3" y="-243.2" width="487.9" height="365.9"/>
			</defs>
			<clipPath id="SVGID_104_">
				<use xlink:href="#SVGID_103_"  style="overflow:visible;"/>
			</clipPath>
			<rect x="78.2" y="41.1" class="st51" width="12.5" height="11.2"/>
		</g>
	</g>
	<g>
		<defs>
			<polygon id="SVGID_105_" points="87.4,45.8 86.8,45.6 86,45.8 85.6,46.2 85.2,46.9 84.9,47.5 84.9,48 85.3,48.9 85.8,49.3 
				87.7,46.1 			"/>
		</defs>
		<clipPath id="SVGID_106_">
			<use xlink:href="#SVGID_105_"  style="overflow:visible;"/>
		</clipPath>
		<g class="st52">
			<defs>
				<rect id="SVGID_107_" x="-172.3" y="-243.2" width="487.9" height="365.9"/>
			</defs>
			<clipPath id="SVGID_108_">
				<use xlink:href="#SVGID_107_"  style="overflow:visible;"/>
			</clipPath>
			<rect x="82.5" y="43.3" class="st53" width="7.5" height="8.4"/>
		</g>
	</g>
	<g>
		<defs>
			<path id="SVGID_109_" d="M103.2,52.1c0,0-3.5-0.5-7.5-6.2c-4-5.7-12.8-5.6-14.7-3.2c0,0,7.4-3.7,13.6,4.7
				C100.8,55.8,103.2,52.1,103.2,52.1"/>
		</defs>
		<clipPath id="SVGID_110_">
			<use xlink:href="#SVGID_109_"  style="overflow:visible;"/>
		</clipPath>
		<g class="st54">
			<defs>
				<rect id="SVGID_111_" x="-172.3" y="-243.2" width="487.9" height="365.9"/>
			</defs>
			<clipPath id="SVGID_112_">
				<use xlink:href="#SVGID_111_"  style="overflow:visible;"/>
			</clipPath>
			<rect x="78.6" y="38.8" class="st55" width="26.9" height="16.5"/>
		</g>
	</g>
	<g>
		<defs>
			<polygon id="SVGID_113_" points="138.1,37 104.5,63.2 109.4,64.5 141.3,41.7 			"/>
		</defs>
		<clipPath id="SVGID_114_">
			<use xlink:href="#SVGID_113_"  style="overflow:visible;"/>
		</clipPath>
		<g class="st56">
			<defs>
				<rect id="SVGID_115_" x="-172.3" y="-243.2" width="487.9" height="365.9"/>
			</defs>
			<clipPath id="SVGID_116_">
				<use xlink:href="#SVGID_115_"  style="overflow:visible;"/>
			</clipPath>
			<rect x="102.2" y="34.6" class="st57" width="41.5" height="32.3"/>
		</g>
	</g>
	<g>
		<defs>
			<path id="SVGID_117_" d="M104,52.4c-0.3,0-1.1-0.2-1.3,0l-0.2-0.6c0.2-0.2,0.4-0.3,0.6-0.5c0.3-0.2,0.1-0.5-0.6-1.5
				c-1.8-2.7-7.9-5.8-10.9-7.2c-0.7-0.4-1-0.5-1.3-0.7c-0.1-0.1-0.2-0.1-0.5-0.3c-1.8-1-6.9-4.1-10.7-7.8c-2.8-2.7-4.1-5.2-3.8-7.5
				c0.2-1.9,1.4-3.6,3.6-5.1c0,0,4.7-2.8,9.3,2c4.2,4.3,7,5.4,13.9,7.9l1.1,0.4c0.2,0.1,0.3,0.3,0.2,0.4c-0.1,0.2-0.3,0.3-0.4,0.2
				l-1.1-0.4c-7-2.6-10.2-3.2-14.3-7.8c-3.8-4.4-7.8-2-8-1.9c-2.1,1.2-3.1,2.8-3.3,4.5c-0.2,2.1,1.1,4.1,3.7,6.7
				c3.7,3.6,9,6.6,10.8,7.5c0.2,0.1,0.4,0.2,0.5,0.3c0.3,0.2,0.8,0.4,1.5,0.8c3.2,1.6,8.9,4.8,10.8,7.6c0.3,0.5,0.5,0.9,0.6,1.4
				C104.3,50.7,104.6,51.8,104,52.4"/>
		</defs>
		<clipPath id="SVGID_118_">
			<use xlink:href="#SVGID_117_"  style="overflow:visible;"/>
		</clipPath>
		<g class="st58">
			<defs>
				<rect id="SVGID_119_" x="-172.3" y="-243.2" width="487.9" height="365.9"/>
			</defs>
			<clipPath id="SVGID_120_">
				<use xlink:href="#SVGID_119_"  style="overflow:visible;"/>
			</clipPath>
			<rect x="72.9" y="18" class="st59" width="33.8" height="36.7"/>
		</g>
	</g>
	<g>
		<defs>
			<path id="SVGID_121_" d="M98.2,18.3c0-0.1,3.3-5.3,9.1-4.7c15.2,1.7,25.3,8,30,18.9c0,0.1,3,6.8-0.3,13.8
				c-3.1,6.5-5.7,13.3-18,15.7l-0.7-0.5c12.1-2.4,14.8-9.2,17.7-15.5c3.2-6.6,0.2-13,0.2-13.1c-4.6-10.6-14.3-17-29.3-18.3
				c-4.9-0.5-7.7,3.9-7.7,4c-0.1,0.2-0.7,0.3-0.8,0.2C98.2,18.7,98.2,18.5,98.2,18.3"/>
		</defs>
		<clipPath id="SVGID_122_">
			<use xlink:href="#SVGID_121_"  style="overflow:visible;"/>
		</clipPath>
		<g class="st60">
			<defs>
				<rect id="SVGID_123_" x="-172.3" y="-243.2" width="487.9" height="365.9"/>
			</defs>
			<clipPath id="SVGID_124_">
				<use xlink:href="#SVGID_123_"  style="overflow:visible;"/>
			</clipPath>
			<rect x="95.8" y="11.2" class="st61" width="45.1" height="53.1"/>
		</g>
	</g>
	<g>
		<defs>
			<polyline id="SVGID_125_" points="146.3,13.6 69.8,13.6 69.8,75.9 146.3,75.9 			"/>
		</defs>
		<clipPath id="SVGID_126_">
			<use xlink:href="#SVGID_125_"  style="overflow:visible;"/>
		</clipPath>
		<g class="st62">
			<defs>
				<rect id="SVGID_127_" x="-172.3" y="-243.2" width="487.9" height="365.9"/>
			</defs>
			<clipPath id="SVGID_128_">
				<use xlink:href="#SVGID_127_"  style="overflow:visible;"/>
			</clipPath>
			<g class="st63">
				<g>
					<defs>
						<rect id="SVGID_129_" x="69.8" y="14.1" width="37.2" height="19.1"/>
					</defs>
					<clipPath id="SVGID_130_">
						<use xlink:href="#SVGID_129_"  style="overflow:visible;"/>
					</clipPath>
					<g class="st64">
						<defs>
							<path id="SVGID_131_" d="M78.2,32.7c0.1,0,0.2-0.1,0.3-0.2c0.1-0.2,0.3-0.5,0.1-0.5c0,0-6.5-3.1-7.5-7.6
								c-0.5-2.4-0.1-4.7,1.8-7.4c0.1-0.1,2-2.8,5.3-0.8c4.2,2.6,15.5,6,19.2,6.9c4.1,0.9,8.6,2.2,8.7,2.2c0.2,0.1,0.4-0.1,0.4-0.2
								c0.1-0.2-0.1-0.4-0.2-0.4c0,0-4.6-1.3-8.7-2.2c-4.4-1-15-4.3-18.7-6.8c-1.3-0.9-2.6-1.2-3.8-0.9c-1.8,0.4-2.8,1.8-2.8,1.9
								c-2.1,2.8-2.7,5.5-2.2,8.2c1.1,4.8,7.8,7.8,8,7.9C78.1,32.7,78.1,32.7,78.2,32.7"/>
						</defs>
						<clipPath id="SVGID_132_">
							<use xlink:href="#SVGID_131_"  style="overflow:visible;"/>
						</clipPath>
						<g class="st65">
							<defs>
								<rect id="SVGID_133_" x="69.8" y="13.2" width="76.7" height="62.9"/>
							</defs>
							<clipPath id="SVGID_134_">
								<use xlink:href="#SVGID_133_"  style="overflow:visible;"/>
							</clipPath>
							<rect x="67.5" y="12.3" class="st66" width="41.4" height="22.8"/>
						</g>
					</g>
				</g>
			</g>
		</g>
	</g>
	<g>
		<defs>
			<path id="SVGID_135_" d="M90.5,21.1c0.1,0,0.4,0.1,0.4,0.1c6.1-4.7,20.4-0.6,20.6-0.6c0.2,0.1,0.4,0,0.4-0.2
				c0.1-0.2,0-0.4-0.2-0.4c-0.6-0.2-14.7-4.4-21.8,0.5c-0.2,0.1-0.2,0.3-0.1,0.5C89.9,21,90.4,21.1,90.5,21.1"/>
		</defs>
		<clipPath id="SVGID_136_">
			<use xlink:href="#SVGID_135_"  style="overflow:visible;"/>
		</clipPath>
		<g class="st67">
			<defs>
				<rect id="SVGID_137_" x="-172.3" y="-243.2" width="487.9" height="365.9"/>
			</defs>
			<clipPath id="SVGID_138_">
				<use xlink:href="#SVGID_137_"  style="overflow:visible;"/>
			</clipPath>
			<rect x="87.4" y="15.7" class="st68" width="26.9" height="7.8"/>
		</g>
	</g>
	<g>
		<defs>
			<path id="SVGID_139_" d="M83.3,30.3c0.1,0,0.1,0,0.2-0.1c4.6-3.5,4.3-3.9,4.1-4.2c-0.2-0.3-1.3-1.4-3.5-3.4c-0.7-0.7-1.6-1-2.6-1
				c-1,0-1.8,0.4-1.8,0.4c-1.4,0.7-2.1,1.5-2.1,2.5c0,2.8,5.3,5.6,5.6,5.7C83.2,30.3,83.3,30.3,83.3,30.3 M87,26.3
				c-0.3,0.5-2.1,1.9-3.7,3.2c-1.6-0.9-4.8-3-4.8-4.9c0-0.7,0.6-1.4,1.7-1.9c0,0,0.7-0.3,1.5-0.3c0.8,0,1.6,0.3,2.2,0.9
				C84.7,23.9,86.5,25.7,87,26.3"/>
		</defs>
		<clipPath id="SVGID_140_">
			<use xlink:href="#SVGID_139_"  style="overflow:visible;"/>
		</clipPath>
		<g class="st69">
			<defs>
				<rect id="SVGID_141_" x="-172.3" y="-243.2" width="487.9" height="365.9"/>
			</defs>
			<clipPath id="SVGID_142_">
				<use xlink:href="#SVGID_141_"  style="overflow:visible;"/>
			</clipPath>
			<rect x="75.2" y="19.2" class="st70" width="14.9" height="13.4"/>
		</g>
	</g>
	<g>
		<defs>
			<path id="SVGID_143_" d="M83.9,29.7c0.1,0,0.2,0,0.2-0.1l2.9-2.4c0.1-0.1,0.1-0.1,0.1-0.2c0-0.1,0-0.2-0.1-0.2
				c-0.4-0.5-0.9-0.8-1.4-0.8c-0.6,0-1.2,0.4-1.5,0.7c-0.5,0.4-0.8,0.8-0.9,1.2c-0.2,0.5,0,1.1,0.5,1.7
				C83.7,29.6,83.8,29.7,83.9,29.7 M86.3,26.9L84,28.8c-0.2-0.3-0.2-0.5-0.2-0.8c0.1-0.3,0.3-0.6,0.7-0.9
				C85.3,26.5,85.8,26.4,86.3,26.9"/>
		</defs>
		<clipPath id="SVGID_144_">
			<use xlink:href="#SVGID_143_"  style="overflow:visible;"/>
		</clipPath>
		<g class="st71">
			<defs>
				<rect id="SVGID_145_" x="-172.3" y="-243.2" width="487.9" height="365.9"/>
			</defs>
			<clipPath id="SVGID_146_">
				<use xlink:href="#SVGID_145_"  style="overflow:visible;"/>
			</clipPath>
			<rect x="80.7" y="23.6" class="st72" width="8.8" height="8.5"/>
		</g>
	</g>
	<g>
		<defs>
			<path id="SVGID_147_" d="M78.1,21.7L78.1,21.7c0.1,0,0.1,0,0.1,0c0,0,1.3-0.5,2.5-0.8c0.1,0,0.1-0.1,0.2-0.1l0.6-0.6
				c0.1-0.1,0.1-0.2,0.1-0.2c0-0.1,0-0.2-0.1-0.2c-0.4-0.4-0.9-0.6-1.3-0.6c-0.7,0-1.3,0.5-1.6,0.9c-0.4,0.5-0.7,0.9-0.8,1.3
				c0,0,0,0.1,0,0.2C77.8,21.5,77.9,21.7,78.1,21.7z M80.5,20.2c-0.6,0.2-1.3,0.4-1.8,0.5c0.1-0.1,0.2-0.2,0.3-0.4
				c0.7-0.7,1.2-0.9,1.7-0.5L80.5,20.2z"/>
		</defs>
		<clipPath id="SVGID_148_">
			<use xlink:href="#SVGID_147_"  style="overflow:visible;"/>
		</clipPath>
		<g class="st73">
			<defs>
				<rect id="SVGID_149_" x="-172.3" y="-243.2" width="487.9" height="365.9"/>
			</defs>
			<clipPath id="SVGID_150_">
				<use xlink:href="#SVGID_149_"  style="overflow:visible;"/>
			</clipPath>
			<rect x="75.4" y="16.7" class="st74" width="8.6" height="7.4"/>
		</g>
	</g>
	<g>
		<defs>
			<path id="SVGID_151_" d="M75.7,23.6c0.1,0,0.2,0,0.3-0.1c0,0,2.1-2.3,4.8-2.6c0.1,0,0.2,0,0.2-0.1l1.6-1.5
				c0.1-0.1,0.1-0.2,0.1-0.3c0-0.1-0.1-0.2-0.2-0.2c0,0-3.1-1-4.4-2.1c-1.8-1.5-3.8-1.1-5,0.8c-2,3.1-0.4,4.4-0.4,4.4
				C73.8,22.9,74.6,23.3,75.7,23.6C75.6,23.6,75.7,23.6,75.7,23.6z M80.5,20.3c-2.5,0.3-4.4,2.1-4.9,2.6c-0.8-0.3-1.4-0.6-2.5-1.6
				c-0.1,0-1.1-1.5,0.5-3.5c0.7-0.9,1.3-1.5,2.4-1.4c0.4,0,1.1,0.3,2,0.9c0,0,0.1,0,0.1,0c1.1,0.7,2.8,1.3,3.7,1.6L80.5,20.3z"/>
		</defs>
		<clipPath id="SVGID_152_">
			<use xlink:href="#SVGID_151_"  style="overflow:visible;"/>
		</clipPath>
		<g class="st75">
			<defs>
				<rect id="SVGID_153_" x="-172.3" y="-243.2" width="487.9" height="365.9"/>
			</defs>
			<clipPath id="SVGID_154_">
				<use xlink:href="#SVGID_153_"  style="overflow:visible;"/>
			</clipPath>
			<rect x="69.5" y="13.4" class="st76" width="15.5" height="12.6"/>
		</g>
	</g>
	<g>
		<defs>
			<path id="SVGID_155_" d="M85.3,50.4c0.1,0,0.2-0.1,0.3-0.2l3-5.1c0-0.1,0.1-0.2,0-0.3c0-0.1-0.1-0.2-0.2-0.2
				c-4.5-2.2-6.1-1.5-6.2-1.4C80.7,43.8,80,45.6,80,47c0,0.8,0.3,1.4,0.7,1.6c1,0.4,1.6,0.6,2.1,0.8c0.7,0.2,1.1,0.4,2.4,1
				C85.3,50.4,85.3,50.4,85.3,50.4 M87.8,45.1l-2.6,4.6c-1.1-0.5-1.5-0.6-2.2-0.9c-0.5-0.2-1-0.4-2-0.8c-0.2-0.1-0.3-0.4-0.3-1
				c0-1.2,0.6-2.7,1.8-3.2C82.6,43.8,84.1,43.3,87.8,45.1"/>
		</defs>
		<clipPath id="SVGID_156_">
			<use xlink:href="#SVGID_155_"  style="overflow:visible;"/>
		</clipPath>
		<g class="st77">
			<defs>
				<rect id="SVGID_157_" x="-172.3" y="-243.2" width="487.9" height="365.9"/>
			</defs>
			<clipPath id="SVGID_158_">
				<use xlink:href="#SVGID_157_"  style="overflow:visible;"/>
			</clipPath>
			<rect x="77.6" y="40.6" class="st78" width="13.4" height="12.1"/>
		</g>
	</g>
	<g>
		<defs>
			<path id="SVGID_159_" d="M85.8,49.5c0.1,0,0.1-0.1,0.2-0.1l1.8-3.3c0-0.1,0.1-0.2,0-0.3c0-0.1-0.1-0.2-0.2-0.2
				c-0.6-0.3-1.1-0.4-1.6-0.2c-0.6,0.2-1,0.8-1.2,1.2c-0.3,0.6-0.5,1.1-0.4,1.5c0.1,0.6,0.4,1,1,1.4C85.6,49.5,85.7,49.5,85.8,49.5
				 M87.1,46.1l-1.5,2.6c-0.3-0.2-0.4-0.4-0.4-0.7c0-0.3,0.1-0.6,0.3-1.1C86,46.1,86.4,45.8,87.1,46.1"/>
		</defs>
		<clipPath id="SVGID_160_">
			<use xlink:href="#SVGID_159_"  style="overflow:visible;"/>
		</clipPath>
		<g class="st79">
			<defs>
				<rect id="SVGID_161_" x="-172.3" y="-243.2" width="487.9" height="365.9"/>
			</defs>
			<clipPath id="SVGID_162_">
				<use xlink:href="#SVGID_161_"  style="overflow:visible;"/>
			</clipPath>
			<rect x="82.1" y="42.9" class="st80" width="8.2" height="9"/>
		</g>
	</g>
	<g>
		<defs>
			<path id="SVGID_163_" d="M106.8,63.5c3.6,0,12.7-1.2,14.5-2.1l0.2-0.7c-9.9,2.6-17.7,2-17.8,2c-0.5-0.1-10.2-0.8-12.8-7.1
				c-1.7-3.9-5.6-4.5-8-5.6c-2.3-1.1-3.9-1.6-3.4-3.6c0.8-3.3,2.9-4.4,4.7-4.7c4-0.7,9.2,1.4,11.5,4.8c2.1,3.1,6.1,7.1,8.3,5.9
				l-0.7-1.2c-1.8,1.2-5.1-2.4-6.9-5.1c-2.4-3.6-8.2-6-12.4-5.3c-2,0.4-4.5,1.6-5.4,5.2c-0.6,2.6,1.3,3.5,3.4,4.5
				c2.3,1,6.5,1.7,8.1,5.4c2.9,6.7,12.5,7.4,13.7,7.5C103.8,63.5,105.4,63.5,106.8,63.5"/>
		</defs>
		<clipPath id="SVGID_164_">
			<use xlink:href="#SVGID_163_"  style="overflow:visible;"/>
		</clipPath>
		<g class="st81">
			<defs>
				<rect id="SVGID_165_" x="-172.3" y="-243.2" width="487.9" height="365.9"/>
			</defs>
			<clipPath id="SVGID_166_">
				<use xlink:href="#SVGID_165_"  style="overflow:visible;"/>
			</clipPath>
			<rect x="76" y="38.4" class="st82" width="47.9" height="27.5"/>
		</g>
	</g>
	<g>
		<defs>
			<path id="SVGID_167_" d="M124.8,75.3c4.7,0,9.7-1.8,13.9-5.1c3.7-2.9,6.2-7.3,6.8-12.5c0.8-6.6-1.2-13.6-5.6-19.2
				c-0.1-0.2-0.3-0.3-0.5-0.3c-0.1,0-0.3,0-0.4,0.1l-31.2,24.1c-0.3,0.2-0.3,0.5-0.2,0.8C112.6,73.2,119.7,75.3,124.8,75.3"/>
		</defs>
		<clipPath id="SVGID_168_">
			<use xlink:href="#SVGID_167_"  style="overflow:visible;"/>
		</clipPath>
		<g class="st83">
			<defs>
				<rect id="SVGID_169_" x="-172.3" y="-243.2" width="487.9" height="365.9"/>
			</defs>
			<clipPath id="SVGID_170_">
				<use xlink:href="#SVGID_169_"  style="overflow:visible;"/>
			</clipPath>
			<rect x="105.1" y="35.9" class="st84" width="42.9" height="41.8"/>
		</g>
	</g>
	<g>
		<defs>
			<path id="SVGID_171_" d="M139.4,38.9l-31.2,24.1c4.3,8.4,10.5,11.6,16.6,11.6c4.9,0,9.7-2,13.5-4.9C146.9,63,147.2,49,139.4,38.9
				 M139.4,37.6c0.4,0,0.8,0.2,1,0.5c4.5,5.8,6.6,13,5.7,19.7c-0.7,5.3-3.2,9.9-7.1,12.9c-4.3,3.4-9.4,5.2-14.3,5.2
				c-7.5,0-13.8-4.4-17.8-12.3c-0.3-0.6-0.1-1.3,0.4-1.6l31.2-24.1C138.8,37.7,139.1,37.6,139.4,37.6"/>
		</defs>
		<clipPath id="SVGID_172_">
			<use xlink:href="#SVGID_171_"  style="overflow:visible;"/>
		</clipPath>
		<g class="st85">
			<defs>
				<rect id="SVGID_173_" x="-172.3" y="-243.2" width="487.9" height="365.9"/>
			</defs>
			<clipPath id="SVGID_174_">
				<use xlink:href="#SVGID_173_"  style="overflow:visible;"/>
			</clipPath>
			<rect x="104.5" y="35.2" class="st86" width="44.2" height="43.1"/>
		</g>
	</g>
</g>
</svg>
