<?xml version="1.0" encoding="utf-8"?>
<!-- Generator: Adobe Illustrator 16.0.0, SVG Export Plug-In . SVG Version: 6.00 Build 0)  -->
<!DOCTYPE svg PUBLIC "-//W3C//DTD SVG 1.1//EN" "http://www.w3.org/Graphics/SVG/1.1/DTD/svg11.dtd">
<svg version="1.1" xmlns="http://www.w3.org/2000/svg" xmlns:xlink="http://www.w3.org/1999/xlink" x="0px" y="0px" width="310px"
	 height="507.084px" viewBox="0 0 310 507.084" enable-background="new 0 0 310 507.084" xml:space="preserve">
<g id="Capa_3">
</g>
<g id="Capa_2">
</g>
<g id="Capa_1">
	<g>
		<path fill="#472728" d="M283.881,125.922c-0.494-33.283-13.81-64.643-37.536-88.37C222.129,13.336,190.062,0,156.049,0
			c-26.904,0-53.73,8.576-75.283,24.137C45.93,48.438,25,87.658,25,129.154v0.911c-13,9.914-20.967,25.606-20.967,42.344
			c0,19.165,10.466,36.792,27.252,46.163l2.198,38.55l3.856,68.683l2.979,53.939c0.024,39.496,14.138,75.456,38.737,98.758
			l50.03,26.342c8.104,1.758,16.59,2.648,25.253,2.648c7.094,0,14.104-0.602,20.854-1.79l49.293-22.47
			c28.951-23.049,45.557-61.169,45.578-104.633l4.799-86.897l2.537-45.955l1.449-26.236c2.604-1.328,5.105-2.876,7.417-4.587
			c14.55-9.878,23.237-26.221,23.237-43.719C309.504,152.756,299.703,135.469,283.881,125.922z"/>
		<g>
			<g>
				<path fill="#75B5C6" d="M303.623,170.712c0-18.42-10.412-34.435-25.65-42.523l0.043-0.829
					c0-67.701-55.392-123.092-123.089-123.092c-67.698,0-123.09,55.391-123.09,123.092L45.66,377.945
					c0,67.699,41.568,123.092,109.267,123.092c67.697,0,109.266-55.393,109.266-123.092l8.965-162.515
					C290.973,208.374,303.623,191.012,303.623,170.712"/>
			</g>
			<g>
				<path fill="#75B5C6" d="M57.783,122.586c-26.537,0-48.124,21.59-48.124,48.126c0,26.535,21.587,48.126,48.124,48.126
					c26.534,0,48.123-21.591,48.123-48.126C105.906,144.176,84.317,122.586,57.783,122.586"/>
			</g>
			<g opacity="0.75">
				<g>
					<defs>
						<rect id="SVGID_1608_" x="62.662" y="282.344" width="175.938" height="46.088"/>
					</defs>
					<clipPath id="SVGID_2_">
						<use xlink:href="#SVGID_1608_"  overflow="visible"/>
					</clipPath>
				</g>
			</g>
			<g>
				<path fill="#66A5B6" d="M57.783,136.961c20.1,0,36.394,16.293,36.394,36.394c0,20.098-16.294,36.393-36.394,36.393
					c-20.101,0-36.394-16.295-36.394-36.393C21.39,153.254,37.683,136.961,57.783,136.961"/>
			</g>
			<g>
				<path fill="#66A5B6" d="M254.683,136.961c20.099,0,36.394,16.293,36.394,36.394c0,20.098-16.295,36.393-36.394,36.393
					c-20.101,0-36.394-16.295-36.394-36.393C218.289,153.254,234.582,136.961,254.683,136.961"/>
			</g>
			<g>
				
					<rect x="270.643" y="234.775" transform="matrix(0.9989 0.0478 -0.0478 0.9989 13.1187 -12.744)" fill="#472728" width="4.76" height="66.303"/>
			</g>
			<g>
				
					<rect x="4.922" y="281.396" transform="matrix(0.0479 0.9989 -0.9989 0.0479 319.7021 232.1656)" fill="#472728" width="66.303" height="4.759"/>
			</g>
			<g>
				<path fill="#472728" d="M146.346,505.617c-40.311,0-74.579-36.11-76.047-37.678l3.475-3.253
					c0.352,0.375,35.666,37.587,74.836,36.129l0.174,4.757C147.971,505.602,147.155,505.617,146.346,505.617z"/>
			</g>
			<g>
				<path fill="#472728" d="M171.318,504.734l-0.629-4.717c38.516-5.133,61.934-31.723,62.166-31.991l3.598,3.116
					C235.457,472.291,211.604,499.366,171.318,504.734z"/>
			</g>
			<g>
				<g>
					<path fill="#EFCE36" d="M57.783,138.313c17.895,0,32.401,14.505,32.401,32.399s-14.507,32.401-32.401,32.401
						s-32.401-14.507-32.401-32.401S39.889,138.313,57.783,138.313"/>
				</g>
				<g>
					<path fill="#472728" d="M57.783,204.898c-18.85,0-34.187-15.337-34.187-34.187s15.337-34.185,34.187-34.185
						s34.186,15.335,34.186,34.185S76.633,204.898,57.783,204.898z M57.783,140.096c-16.883,0-30.617,13.734-30.617,30.616
						c0,16.883,13.734,30.617,30.617,30.617s30.616-13.734,30.616-30.617C88.399,153.83,74.666,140.096,57.783,140.096z"/>
				</g>
			</g>
			<g>
				<g>
					<path fill="#EFCE36" d="M255.5,138.313c17.895,0,32.396,14.505,32.396,32.399s-14.502,32.401-32.396,32.401
						c-17.899,0-32.401-14.507-32.401-32.401S237.601,138.313,255.5,138.313"/>
				</g>
				<g>
					<path fill="#472728" d="M255.5,204.898c-18.85,0-34.186-15.337-34.186-34.187s15.336-34.185,34.186-34.185
						c18.848,0,34.181,15.335,34.181,34.185S274.348,204.898,255.5,204.898z M255.5,140.096c-16.883,0-30.617,13.734-30.617,30.616
						c0,16.883,13.734,30.617,30.617,30.617c16.879,0,30.612-13.734,30.612-30.617C286.112,153.83,272.379,140.096,255.5,140.096z"
						/>
				</g>
			</g>
			<g>
				<path fill="#66A5B6" d="M36.578,127.128c0,0,23.178-37.669,49.505,2.786C86.083,129.914,64.821,109.693,36.578,127.128z"/>
			</g>
			<g>
				<g>
					<path fill="#472728" d="M84.748,130.514c-0.422,0-0.845-0.148-1.185-0.451c-20.118-17.882-43.53-3.053-44.518-2.41
						c-0.823,0.533-1.931,0.301-2.468-0.524c-0.537-0.826-0.305-1.93,0.521-2.468c0.266-0.171,26.662-16.977,48.836,2.735
						c0.736,0.655,0.804,1.782,0.148,2.519C85.73,130.312,85.24,130.514,84.748,130.514z"/>
				</g>
			</g>
			<g>
				<path fill="#66A5B6" d="M155.537,4.105c0,0,105.291,27.266,72.772,119.27c0,0,26.571-8.922,50.563,4.957
					C278.872,128.332,278.377,13.921,155.537,4.105z"/>
			</g>
			<g>
				<g>
					<path fill="#472728" d="M224.861,130.514c-0.492,0-0.983-0.202-1.335-0.6c-0.655-0.736-0.588-1.863,0.148-2.519
						c22.173-19.714,48.571-2.907,48.835-2.735c0.825,0.538,1.058,1.642,0.521,2.468c-0.537,0.825-1.645,1.058-2.469,0.524
						c-0.987-0.642-24.398-15.474-44.518,2.41C225.706,130.365,225.281,130.514,224.861,130.514z"/>
				</g>
			</g>
		</g>
		<g>
			<g>
				<path fill="#472728" d="M57.783,191.369c-3.104,0-5.616-2.512-5.616-5.612V155.67c0-3.104,2.512-5.615,5.616-5.615
					c3.102,0,5.614,2.512,5.614,5.615v30.087C63.397,188.857,60.885,191.369,57.783,191.369"/>
			</g>
			<g>
				<circle fill="#FFFFFF" cx="67.289" cy="156.445" r="7.127"/>
			</g>
		</g>
		<g>
			<g>
				<path fill="#472728" d="M255.5,191.369c-3.104,0-5.617-2.512-5.617-5.612V155.67c0-3.104,2.513-5.615,5.617-5.615
					c3.1,0,5.611,2.512,5.611,5.615v30.087C261.111,188.857,258.6,191.369,255.5,191.369"/>
			</g>
			<g>
				<circle fill="#FFFFFF" cx="264.783" cy="154.066" r="7.127"/>
			</g>
		</g>
		<g>
			<path fill="#66A5B6" d="M153.473,229.451c-19.129,0-37.219-7.105-51.189-20.163c-7.187-6.715-7.565-17.981-0.851-25.17
				c6.714-7.187,17.979-7.565,25.168-0.851c15.908,14.862,40.944,14.02,55.806-1.885c6.711-7.186,17.98-7.566,25.163-0.851
				c7.189,6.717,7.566,17.979,0.851,25.165c-13.652,14.61-32.234,23.025-52.329,23.707
				C155.219,229.438,154.346,229.451,153.473,229.451"/>
		</g>
		<g>
			<path fill="#ACD2E2" d="M153.473,224.673c-19.129,0-37.219-7.106-51.189-20.163c-7.187-6.715-7.565-17.982-0.851-25.17
				c6.714-7.187,17.979-7.566,25.168-0.851c15.908,14.862,40.944,14.019,55.806-1.886c6.711-7.186,17.98-7.566,25.163-0.85
				c7.189,6.716,7.566,17.978,0.851,25.164c-13.652,14.611-32.234,23.026-52.329,23.707
				C155.219,224.659,154.346,224.673,153.473,224.673"/>
		</g>
		<g>
			<path fill="#8CB2C1" d="M153.539,216.409c-15.478,0-30.979-5.631-43.148-17.002c-2.4-2.242-2.525-5.995-0.283-8.391
				c2.237-2.396,5.988-2.521,8.389-0.284c20.681,19.333,53.242,18.233,72.58-2.454c2.237-2.394,5.99-2.522,8.391-0.284
				c2.393,2.236,2.517,5.994,0.283,8.393C187.321,209.683,170.449,216.409,153.539,216.409"/>
		</g>
		<g>
			<path fill="#472728" d="M153.539,213.237c-15.478,0-30.979-5.631-43.148-17.003c-2.4-2.241-2.525-5.994-0.283-8.39
				c2.237-2.396,5.988-2.521,8.389-0.283c20.681,19.333,53.242,18.232,72.58-2.455c2.237-2.394,5.99-2.522,8.391-0.284
				c2.393,2.236,2.517,5.994,0.283,8.393C187.321,206.511,170.449,213.237,153.539,213.237"/>
		</g>
		<g>
			<g>
				<path fill="#66A5B6" d="M153.473,229.451c-19.129,0-37.219-7.105-51.189-20.163c-7.187-6.715-7.565-17.981-0.851-25.17
					c6.714-7.187,17.979-7.565,25.168-0.851c15.908,14.862,40.944,14.02,55.806-1.885c6.711-7.186,17.98-7.566,25.163-0.851
					c7.189,6.717,7.566,17.979,0.851,25.165c-13.652,14.61-32.234,23.025-52.329,23.707
					C155.219,229.438,154.346,229.451,153.473,229.451"/>
			</g>
			<g>
				<path fill="#ACD2E2" d="M153.473,224.673c-19.129,0-37.219-7.106-51.189-20.163c-7.187-6.715-7.565-17.982-0.851-25.17
					c6.714-7.187,17.979-7.566,25.168-0.851c15.908,14.862,40.944,14.019,55.806-1.886c6.711-7.186,17.98-7.566,25.163-0.85
					c7.189,6.716,7.566,17.978,0.851,25.164c-13.652,14.611-32.234,23.026-52.329,23.707
					C155.219,224.659,154.346,224.673,153.473,224.673"/>
			</g>
			<g>
				<path fill="#8CB2C1" d="M153.539,216.409c-15.478,0-30.979-5.631-43.148-17.002c-2.4-2.242-2.525-5.995-0.283-8.391
					c2.237-2.396,5.988-2.521,8.389-0.284c20.681,19.333,53.242,18.233,72.58-2.454c2.237-2.394,5.99-2.522,8.391-0.284
					c2.393,2.236,2.517,5.994,0.283,8.393C187.321,209.683,170.449,216.409,153.539,216.409"/>
			</g>
			<g>
				<path fill="#472728" d="M153.539,213.237c-15.478,0-30.979-5.631-43.148-17.003c-2.4-2.241-2.525-5.994-0.283-8.39
					c2.237-2.396,5.988-2.521,8.389-0.283c20.681,19.333,53.242,18.232,72.58-2.455c2.237-2.394,5.99-2.522,8.391-0.284
					c2.393,2.236,2.517,5.994,0.283,8.393C187.321,206.511,170.449,213.237,153.539,213.237"/>
			</g>
		</g>
		<g>
			<g>
				<g>
					<g>
						<path fill="#66A5B6" d="M91.497,340.269c-0.175,4.128-0.1,8.304,0.019,12.382c0.089,2.094,0.326,4.103,0.63,6.072l0.603,2.975
							l0.794,2.917c0.616,1.92,1.394,3.767,2.266,5.555c0.922,1.764,1.978,3.44,3.186,4.964c1.206,1.516,2.532,2.946,4.124,3.935
							c1.557,1.034,3.261,1.693,4.888,2.012c1.513,0.451,3.349,0.425,4.425,0.479l1.547-0.114c0.583-0.021,0.679-0.171,1.046-0.224
							c0.56-0.06,1.359-0.45,2.079-0.702c1.418-0.736,2.855-1.583,4.09-2.83c1.292-1.142,2.387-2.587,3.441-4.059
							c0.983-1.542,1.885-3.162,2.628-4.888c0.737-1.723,1.364-3.51,1.854-5.351c0.5-1.835,0.859-3.716,1.122-5.616
							c0.259-1.904,0.358-3.828,0.421-5.753h7.001c0.046,1.697,0.049,3.397,0.255,5.085c0.135,1.692,0.431,3.366,0.779,5.015
							c0.342,1.656,0.827,3.265,1.352,4.859l0.904,2.337l1.069,2.244c0.783,1.456,1.652,2.833,2.614,4.135
							c1.008,1.248,2.08,2.417,3.271,3.393c1.208,0.934,2.465,1.813,3.834,2.299c1.341,0.611,2.761,0.779,4.176,0.889
							c0.342-0.071,1.858-0.059,2.305-0.238c0.598-0.168,1.189-0.238,1.9-0.566c1.386-0.467,2.685-1.309,3.932-2.223
							c1.232-0.952,2.351-2.11,3.402-3.354c1.009-1.288,1.927-2.666,2.757-4.121l1.14-2.247l0.975-2.351
							c0.571-1.603,1.108-3.227,1.494-4.9c0.399-1.668,0.738-3.365,0.922-5.081c0.244-1.713,0.295-3.444,0.379-5.174h5.096
							c0.037,1.729,0.033,3.468,0.23,5.194c0.127,1.725,0.416,3.44,0.767,5.128c0.335,1.702,0.822,3.358,1.354,4.993l0.911,2.415
							l1.087,2.324c0.803,1.511,1.695,2.95,2.696,4.314l1.621,1.913c0.606,0.553,1.167,1.188,1.804,1.699
							c1.275,1.018,2.621,1.98,4.117,2.54c1.399,0.686,3.186,0.897,4.48,1.051c0.864-0.083,1.924-0.036,2.626-0.226
							c0.725-0.168,1.452-0.271,2.226-0.615c1.548-0.499,2.961-1.409,4.318-2.395c1.338-1.024,2.532-2.254,3.656-3.568
							c1.072-1.353,2.048-2.794,2.924-4.314l1.206-2.343l1.026-2.438c0.602-1.665,1.179-3.345,1.6-5.073
							c0.43-1.725,0.804-3.475,1.01-5.249c0.272-1.771,0.352-3.562,0.453-5.354l0.008-0.058c0.027-0.467,0.43-0.826,0.896-0.799
							c0.455,0.027,0.807,0.405,0.802,0.856c-0.009,1.854,0.007,3.715-0.179,5.569c-0.123,1.855-0.414,3.703-0.774,5.53
							c-0.343,1.842-0.853,3.652-1.426,5.436l-0.99,2.646l-1.192,2.576c-0.883,1.68-1.877,3.309-3.012,4.861
							c-1.188,1.513-2.483,2.961-3.994,4.224c-1.535,1.224-3.184,2.382-5.084,3.1c-0.893,0.436-1.957,0.686-3.01,0.935
							c-1.068,0.261-1.861,0.229-2.804,0.357c-2.335-0.048-4.218-0.303-6.182-1.082c-1.954-0.653-3.674-1.764-5.284-2.956
							c-1.594-1.223-2.963-2.665-4.227-4.172c-1.21-1.545-2.289-3.174-3.246-4.869l-1.306-2.588l-1.106-2.676
							c-0.646-1.813-1.24-3.641-1.671-5.511c-0.441-1.864-0.813-3.751-1.018-5.657c-0.268-1.896-0.325-3.809-0.411-5.722
							c-0.061-1.406,1.027-2.601,2.436-2.662c1.406-0.067,2.6,1.024,2.66,2.435l0.005,0.147l-0.005,0.08
							c-0.029,1.913-0.035,3.832-0.251,5.741c-0.146,1.912-0.469,3.819-0.862,5.705c-0.376,1.896-0.927,3.755-1.533,5.604
							l-1.041,2.737l-1.26,2.67c-0.92,1.744-1.977,3.438-3.179,5.061c-1.252,1.584-2.633,3.1-4.245,4.431
							c-1.643,1.29-3.406,2.522-5.471,3.276c-0.949,0.444-2.153,0.729-3.338,0.979c-1.32,0.271-1.659,0.2-3.121,0.342
							c-2.217-0.084-4.469-0.39-6.49-1.24c-2.082-0.73-3.89-1.925-5.567-3.197c-1.654-1.309-3.081-2.813-4.378-4.391
							c-1.25-1.609-2.35-3.297-3.323-5.048l-1.329-2.672l-1.113-2.75c-0.654-1.858-1.249-3.734-1.675-5.647
							c-0.437-1.906-0.804-3.831-1.001-5.77c-0.258-1.939-0.31-3.886-0.379-5.831c-0.079-1.935,1.429-3.562,3.364-3.634
							c1.932-0.074,3.56,1.432,3.634,3.364l0.003,0.119v0.15c0.005,8.81-1.894,17.815-6.824,25.664
							c-1.309,1.918-2.707,3.806-4.476,5.454c-1.678,1.716-3.78,3.113-6.019,4.269c-1.213,0.479-2.281,1.03-3.776,1.317
							c-0.646,0.138-1.535,0.373-1.988,0.384l-1.55,0.127l-0.702,0.023l-0.488-0.042l-0.98-0.087
							c-0.652-0.055-1.306-0.135-1.922-0.351c-1.271-0.309-2.463-0.805-3.553-1.443c-1.143-0.557-2.049-1.422-3.021-2.131
							c-0.843-0.855-1.746-1.636-2.463-2.539c-1.525-1.736-2.842-3.532-3.988-5.414c-1.158-1.873-2.024-3.875-2.856-5.855
							l-1.062-3.039l-0.837-3.088l-0.648-3.116l-0.43-3.146c-0.193-2.135-0.302-4.25-0.261-6.302
							c0.035-4.191,0.17-8.286-0.022-12.439c-0.024-0.471,0.344-0.869,0.813-0.89c0.472-0.024,0.867,0.342,0.893,0.813
							C91.497,340.217,91.497,340.248,91.497,340.269"/>
					</g>
				</g>
			</g>
			<g>
				<path fill="#66A5B6" d="M64.537,285.66c0.139,2.041,0.215,4.114,0.505,6.075c0.197,1.982,0.603,3.974,0.987,5.937
					c0.446,1.958,0.925,3.896,1.524,5.795c0.618,1.894,1.28,3.774,2.119,5.564c0.802,1.803,1.718,3.547,2.793,5.161
					c1.042,1.638,2.231,3.151,3.546,4.504c0.628,0.708,1.395,1.229,2.075,1.856c0.776,0.462,1.491,1.07,2.31,1.401
					c1.571,0.863,3.291,1.12,4.971,1.214c0.554-0.128,2.119-0.119,2.621-0.438c0.367-0.133,0.718-0.196,1.102-0.351l1.171-0.58
					c0.792-0.354,1.479-0.976,2.231-1.442c0.659-0.644,1.394-1.169,2-1.884c1.257-1.365,2.407-2.874,3.367-4.532
					c1.001-1.623,1.848-3.378,2.579-5.176c0.761-1.789,1.353-3.656,1.894-5.537c0.527-1.893,0.939-3.812,1.281-5.753
					c0.289-1.947,0.599-3.899,0.704-5.87c0.197-1.967,0.179-3.946,0.229-5.917h5.153c0.087,1.971,0.103,3.948,0.34,5.905
					c0.142,1.97,0.485,3.909,0.811,5.844c0.377,1.926,0.823,3.828,1.386,5.701c0.571,1.855,1.189,3.702,1.979,5.455
					c0.755,1.767,1.624,3.483,2.64,5.057c0.976,1.613,2.133,3.064,3.376,4.363c0.6,0.683,1.32,1.169,1.964,1.777
					c0.723,0.424,1.392,1.011,2.149,1.313c1.454,0.818,3.012,1.038,4.536,1.14c0.357-0.108,2.145-0.114,2.449-0.397
					c0.313-0.123,0.606-0.168,0.95-0.304l1.092-0.527c0.743-0.31,1.399-0.902,2.107-1.335c0.628-0.609,1.334-1.105,1.919-1.788
					c1.213-1.307,2.338-2.763,3.283-4.376c0.986-1.58,1.822-3.29,2.548-5.055c0.757-1.749,1.345-3.593,1.894-5.444
					c0.527-1.858,0.943-3.754,1.287-5.67c0.3-1.925,0.615-3.851,0.732-5.802c0.204-1.947,0.183-3.905,0.26-5.856h6.472
					c0.061,1.951,0.058,3.909,0.27,5.854c0.118,1.949,0.441,3.876,0.741,5.798c0.354,1.916,0.775,3.808,1.311,5.67
					c0.551,1.845,1.146,3.679,1.902,5.428c0.73,1.758,1.574,3.465,2.563,5.035c0.946,1.61,2.073,3.056,3.284,4.347
					c0.583,0.683,1.287,1.166,1.914,1.774c0.707,0.428,1.359,1.014,2.094,1.323c0.718,0.366,1.445,0.688,2.191,0.84
					c0.371,0.125,0.743,0.223,1.122,0.223l0.563,0.051l0.28,0.028l0.145,0.024l0.068,0.005h0.034l0.017,0.007
					c-0.119,0.006,0.307-0.012-0.274,0.013l1.536-0.128c0.239-0.026,0.539-0.033,0.731-0.075l0.453-0.164
					c0.31-0.105,0.603-0.142,0.948-0.267l1.09-0.509c0.744-0.3,1.404-0.878,2.122-1.304c0.634-0.6,1.35-1.081,1.944-1.762
					c1.233-1.291,2.38-2.733,3.349-4.339c1.009-1.565,1.875-3.275,2.623-5.039c0.783-1.745,1.398-3.587,1.969-5.436
					c0.552-1.867,1.001-3.759,1.37-5.686c0.323-1.925,0.668-3.862,0.807-5.823c0.229-1.952,0.246-3.925,0.33-5.89h5.559
					c0.051,1.965,0.032,3.938,0.232,5.898c0.108,1.964,0.418,3.909,0.705,5.851c0.35,1.932,0.74,3.851,1.251,5.74
					c0.527,1.874,1.102,3.747,1.847,5.534c0.711,1.8,1.543,3.552,2.529,5.181c0.945,1.66,2.082,3.174,3.322,4.547
					c0.595,0.717,1.329,1.248,1.982,1.892c0.741,0.477,1.427,1.102,2.221,1.456c1.437,0.914,3.397,1.214,4.694,1.391
					c0.948-0.115,2.226-0.064,2.83-0.354c0.374-0.116,0.741-0.174,1.136-0.314l1.202-0.542c0.825-0.331,1.541-0.939,2.314-1.396
					c0.688-0.625,1.452-1.15,2.093-1.848c1.325-1.34,2.555-2.838,3.591-4.485c1.078-1.62,1.998-3.371,2.8-5.175
					c0.839-1.789,1.504-3.67,2.126-5.566c0.603-1.905,1.088-3.848,1.501-5.811c0.36-1.977,0.756-3.954,0.948-5.957
					c0.288-2.003,0.349-4.021,0.481-6.04l0.002-0.063c0.032-0.513,0.475-0.896,0.985-0.863c0.491,0.032,0.862,0.438,0.866,0.927
					c-0.004,2.074,0.061,4.154-0.104,6.227c-0.067,2.087-0.347,4.157-0.633,6.228c-0.329,2.063-0.74,4.117-1.275,6.149
					c-0.553,2.027-1.162,4.048-1.963,6.015c-0.768,1.97-1.671,3.907-2.777,5.756c-1.053,1.87-2.348,3.638-3.824,5.279
					c-0.705,0.848-1.615,1.537-2.424,2.306c-0.951,0.628-1.817,1.377-2.879,1.874l-1.573,0.763
					c-0.561,0.222-1.202,0.376-1.809,0.558c-1.331,0.435-2.155,0.341-3.228,0.516c-0.989-0.026-1.308-0.081-1.996-0.13
					c-0.605-0.013-1.185-0.148-1.766-0.315c-1.181-0.244-2.272-0.689-3.332-1.217c-1.088-0.471-1.982-1.194-2.968-1.809
					c-0.843-0.751-1.789-1.434-2.537-2.264c-1.562-1.609-2.946-3.358-4.092-5.217c-1.194-1.838-2.188-3.77-3.049-5.75
					c-0.895-1.967-1.595-3.999-2.237-6.042c-0.625-2.051-1.141-4.128-1.533-6.228c-0.354-2.099-0.719-4.207-0.872-6.33
					c-0.249-2.118-0.268-4.242-0.349-6.368c-0.061-1.538,1.134-2.832,2.67-2.891c1.531-0.058,2.83,1.133,2.889,2.673v0.167v0.051
					c-0.049,2.126-0.04,4.257-0.256,6.375c-0.121,2.131-0.453,4.243-0.771,6.358c-0.374,2.109-0.827,4.201-1.413,6.281
					c-0.6,2.071-1.259,4.132-2.112,6.137c-0.824,2.02-1.784,3.999-2.961,5.899c-1.119,1.912-2.49,3.728-4.061,5.421
					c-0.753,0.866-1.718,1.597-2.577,2.396c-1.007,0.667-1.931,1.437-3.065,1.964l-1.689,0.799c-0.608,0.24-1.326,0.418-1.996,0.599
					l-1.024,0.257c-0.31,0.062-0.525,0.062-0.787,0.098l-1.529,0.154l-0.325,0.006h-0.03l-0.059-0.006l-0.12-0.007l-0.242-0.019
					l-0.48-0.04l-0.969-0.089c-0.651-0.033-1.276-0.178-1.883-0.361c-1.269-0.283-2.421-0.772-3.529-1.343
					c-1.146-0.516-2.078-1.284-3.098-1.948c-0.867-0.788-1.838-1.52-2.598-2.381c-1.597-1.686-2.988-3.498-4.132-5.412
					c-1.194-1.895-2.175-3.881-3.019-5.896c-0.881-2.009-1.559-4.077-2.18-6.149c-0.606-2.08-1.078-4.183-1.471-6.297
					c-0.347-2.123-0.699-4.244-0.842-6.383c-0.234-2.137-0.24-4.275-0.309-6.413c-0.061-1.79,1.338-3.283,3.126-3.341
					c1.786-0.059,3.283,1.34,3.346,3.129v0.184v0.028c-0.063,2.138-0.089,4.276-0.323,6.41c-0.146,2.142-0.504,4.263-0.854,6.379
					c-0.401,2.115-0.882,4.214-1.488,6.291c-0.625,2.072-1.312,4.134-2.193,6.14c-0.852,2.012-1.832,3.989-3.031,5.875
					c-1.145,1.906-2.539,3.716-4.133,5.389c-0.76,0.861-1.729,1.585-2.599,2.367c-1.013,0.656-1.94,1.42-3.081,1.93l-1.688,0.781
					c-0.608,0.236-1.326,0.396-1.988,0.574c-1.639,0.44-1.952,0.285-3.615,0.46c-2.552-0.136-5.11-0.689-7.248-1.907
					c-1.127-0.514-2.043-1.287-3.042-1.95c-0.85-0.792-1.808-1.513-2.554-2.38c-1.562-1.683-2.923-3.492-4.04-5.398
					c-1.167-1.889-2.122-3.863-2.94-5.873c-0.85-2.002-1.503-4.057-2.098-6.123c-0.576-2.066-1.027-4.16-1.401-6.266
					c-0.316-2.105-0.648-4.215-0.77-6.336c-0.209-2.118-0.192-4.243-0.241-6.362v-0.045c-0.035-1.429,1.094-2.607,2.517-2.64
					c1.425-0.033,2.609,1.094,2.64,2.521l-0.003,0.163c-0.085,2.119-0.106,4.241-0.353,6.35c-0.158,2.118-0.522,4.218-0.876,6.31
					c-0.406,2.093-0.89,4.167-1.501,6.214c-0.628,2.042-1.311,4.069-2.191,6.04c-0.841,1.977-1.819,3.916-3.002,5.758
					c-1.127,1.859-2.498,3.615-4.043,5.228c-0.742,0.831-1.681,1.52-2.52,2.272c-0.974,0.625-1.87,1.356-2.958,1.823l-1.61,0.728
					c-0.569,0.219-1.227,0.36-1.838,0.521c-1.438,0.413-1.973,0.277-3.441,0.432c-2.392-0.148-4.791-0.666-6.813-1.829
					c-1.063-0.495-1.934-1.242-2.884-1.873c-0.816-0.763-1.723-1.455-2.438-2.296c-1.491-1.633-2.82-3.377-3.873-5.258
					c-1.106-1.848-2.008-3.797-2.781-5.77c-0.805-1.964-1.413-3.992-1.969-6.02c-0.536-2.035-0.954-4.093-1.255-6.166
					c-0.26-2.077-0.531-4.139-0.594-6.25c-0.156-2.111-0.082-4.134-0.077-6.188c0.002-0.515,0.418-0.928,0.932-0.928
					C64.104,284.787,64.505,285.18,64.537,285.66"/>
			</g>
			<g opacity="0.75">
				<g>
					<g>
						<path fill="#ACD2E2" d="M63.927,282.605c0.137,2.041,0.214,4.115,0.504,6.075c0.198,1.983,0.602,3.974,0.987,5.937
							c0.446,1.958,0.926,3.896,1.525,5.796c0.617,1.894,1.279,3.772,2.119,5.563c0.801,1.804,1.717,3.547,2.793,5.16
							c1.041,1.64,2.23,3.153,3.546,4.506c0.627,0.707,1.394,1.229,2.075,1.855c0.775,0.462,1.491,1.07,2.31,1.402
							c1.57,0.863,3.29,1.119,4.97,1.213c0.553-0.129,2.119-0.119,2.621-0.438c0.367-0.132,0.719-0.195,1.102-0.351l1.172-0.58
							c0.792-0.354,1.477-0.976,2.229-1.443c0.66-0.644,1.396-1.168,2.001-1.883c1.258-1.365,2.408-2.874,3.367-4.532
							c1.002-1.623,1.848-3.377,2.579-5.175c0.76-1.789,1.353-3.657,1.894-5.538c0.528-1.892,0.939-3.811,1.281-5.753
							c0.29-1.947,0.6-3.898,0.703-5.87c0.197-1.967,0.18-3.945,0.23-5.917h5.154c0.086,1.972,0.102,3.948,0.339,5.905
							c0.142,1.97,0.485,3.909,0.812,5.844c0.376,1.925,0.822,3.828,1.385,5.703c0.571,1.854,1.189,3.701,1.979,5.452
							c0.755,1.768,1.624,3.483,2.64,5.059c0.977,1.614,2.133,3.065,3.376,4.362c0.6,0.684,1.32,1.168,1.964,1.777
							c0.723,0.424,1.392,1.011,2.149,1.313c1.454,0.817,3.011,1.037,4.536,1.14c0.357-0.109,2.145-0.115,2.449-0.398
							c0.313-0.123,0.605-0.167,0.95-0.304l1.093-0.527c0.743-0.31,1.397-0.901,2.106-1.333c0.628-0.612,1.334-1.108,1.92-1.789
							c1.213-1.309,2.337-2.764,3.283-4.376c0.985-1.582,1.821-3.29,2.547-5.056c0.757-1.748,1.345-3.592,1.894-5.444
							c0.527-1.858,0.943-3.754,1.287-5.67c0.3-1.925,0.616-3.851,0.732-5.801c0.204-1.948,0.184-3.906,0.26-5.857h6.472
							c0.061,1.951,0.058,3.909,0.27,5.854c0.118,1.951,0.441,3.878,0.741,5.799c0.354,1.916,0.776,3.809,1.311,5.67
							c0.551,1.845,1.146,3.68,1.903,5.428c0.729,1.759,1.573,3.465,2.563,5.036c0.945,1.608,2.072,3.056,3.283,4.347
							c0.582,0.681,1.287,1.165,1.914,1.773c0.707,0.428,1.359,1.015,2.094,1.323c0.719,0.365,1.445,0.689,2.191,0.84
							c0.372,0.127,0.743,0.223,1.122,0.223l0.563,0.051l0.281,0.029l0.144,0.023l0.067,0.005h0.036l0.016,0.007
							c-0.119,0.007,0.307-0.012-0.274,0.014l1.536-0.129c0.239-0.025,0.539-0.032,0.732-0.074l0.453-0.164
							c0.309-0.106,0.602-0.142,0.947-0.268l1.09-0.51c0.744-0.299,1.403-0.877,2.121-1.303c0.635-0.6,1.351-1.082,1.945-1.762
							c1.234-1.29,2.379-2.733,3.349-4.339c1.009-1.565,1.875-3.275,2.623-5.039c0.783-1.745,1.399-3.587,1.968-5.435
							c0.554-1.867,1.002-3.761,1.372-5.687c0.323-1.925,0.667-3.863,0.806-5.823c0.23-1.951,0.247-3.925,0.33-5.89h5.559
							c0.051,1.965,0.032,3.938,0.232,5.899c0.109,1.963,0.418,3.908,0.706,5.85c0.349,1.932,0.739,3.85,1.25,5.74
							c0.528,1.874,1.102,3.747,1.848,5.534c0.711,1.8,1.543,3.552,2.528,5.181c0.945,1.662,2.082,3.174,3.322,4.546
							c0.596,0.719,1.329,1.249,1.982,1.894c0.741,0.477,1.427,1.101,2.222,1.455c1.436,0.914,3.397,1.215,4.694,1.391
							c0.947-0.116,2.226-0.064,2.829-0.354c0.374-0.117,0.742-0.175,1.137-0.316l1.202-0.54c0.824-0.332,1.539-0.939,2.313-1.398
							c0.688-0.624,1.452-1.148,2.094-1.848c1.324-1.339,2.554-2.837,3.591-4.483c1.077-1.62,1.998-3.373,2.8-5.176
							c0.839-1.789,1.503-3.67,2.126-5.566c0.602-1.905,1.088-3.846,1.501-5.812c0.36-1.976,0.755-3.953,0.948-5.955
							c0.287-2.003,0.348-4.021,0.48-6.041l0.002-0.063c0.033-0.513,0.475-0.896,0.986-0.863c0.489,0.033,0.861,0.438,0.866,0.927
							c-0.005,2.074,0.061,4.153-0.104,6.227c-0.067,2.087-0.347,4.157-0.633,6.228c-0.33,2.063-0.741,4.117-1.274,6.15
							c-0.554,2.027-1.162,4.046-1.964,6.013c-0.768,1.971-1.672,3.908-2.777,5.757c-1.053,1.871-2.347,3.638-3.824,5.279
							c-0.704,0.848-1.615,1.536-2.424,2.306c-0.95,0.629-1.817,1.378-2.879,1.874l-1.574,0.764c-0.559,0.222-1.2,0.377-1.807,0.556
							c-1.332,0.437-2.157,0.342-3.229,0.517c-0.989-0.025-1.308-0.08-1.996-0.129c-0.606-0.013-1.185-0.149-1.766-0.316
							c-1.18-0.244-2.272-0.689-3.332-1.217c-1.087-0.471-1.981-1.193-2.967-1.809c-0.844-0.75-1.789-1.434-2.538-2.264
							c-1.562-1.609-2.946-3.358-4.092-5.216c-1.194-1.839-2.188-3.771-3.048-5.75c-0.896-1.967-1.595-3.999-2.238-6.043
							c-0.625-2.051-1.142-4.128-1.534-6.228c-0.353-2.098-0.718-4.207-0.871-6.33c-0.248-2.117-0.267-4.242-0.349-6.368
							c-0.061-1.538,1.134-2.833,2.67-2.89c1.531-0.059,2.83,1.133,2.889,2.672v0.167v0.051c-0.049,2.126-0.039,4.258-0.256,6.376
							c-0.121,2.131-0.453,4.242-0.771,6.358c-0.374,2.108-0.827,4.201-1.412,6.281c-0.601,2.069-1.26,4.131-2.112,6.137
							c-0.825,2.019-1.785,3.999-2.961,5.898c-1.12,1.912-2.491,3.729-4.062,5.421c-0.754,0.867-1.717,1.598-2.577,2.396
							c-1.007,0.667-1.932,1.437-3.065,1.964l-1.689,0.8c-0.608,0.24-1.326,0.418-1.996,0.598l-1.023,0.259
							c-0.31,0.06-0.525,0.06-0.789,0.096l-1.528,0.154l-0.325,0.006h-0.03l-0.058-0.006l-0.121-0.008l-0.242-0.018l-0.48-0.039
							l-0.97-0.09c-0.65-0.032-1.274-0.178-1.882-0.361c-1.269-0.282-2.421-0.772-3.529-1.342c-1.146-0.516-2.078-1.285-3.098-1.949
							c-0.867-0.788-1.838-1.519-2.598-2.381c-1.597-1.686-2.988-3.497-4.132-5.412c-1.194-1.894-2.175-3.881-3.019-5.895
							c-0.88-2.009-1.56-4.077-2.18-6.15c-0.606-2.08-1.078-4.182-1.471-6.297c-0.346-2.123-0.699-4.244-0.841-6.382
							c-0.235-2.138-0.242-4.276-0.31-6.414c-0.061-1.79,1.339-3.282,3.125-3.341c1.787-0.059,3.284,1.34,3.347,3.129v0.184v0.028
							c-0.063,2.138-0.088,4.276-0.323,6.41c-0.146,2.142-0.504,4.263-0.853,6.379c-0.401,2.115-0.883,4.214-1.489,6.291
							c-0.625,2.073-1.311,4.134-2.193,6.139c-0.851,2.013-1.832,3.991-3.03,5.876c-1.146,1.906-2.54,3.715-4.134,5.391
							c-0.76,0.858-1.729,1.584-2.598,2.366c-1.014,0.656-1.94,1.42-3.082,1.929l-1.687,0.781c-0.608,0.236-1.327,0.396-1.989,0.574
							c-1.639,0.439-1.951,0.285-3.615,0.46c-2.552-0.136-5.109-0.688-7.248-1.906c-1.127-0.515-2.042-1.287-3.041-1.951
							c-0.852-0.792-1.809-1.513-2.554-2.379c-1.562-1.685-2.923-3.493-4.042-5.399c-1.166-1.89-2.121-3.863-2.938-5.871
							c-0.851-2.004-1.503-4.058-2.099-6.125c-0.576-2.066-1.027-4.158-1.4-6.266c-0.316-2.104-0.648-4.214-0.77-6.336
							c-0.209-2.117-0.193-4.242-0.242-6.362v-0.045c-0.035-1.429,1.095-2.606,2.517-2.64c1.425-0.032,2.609,1.095,2.64,2.521
							l-0.002,0.163c-0.086,2.12-0.107,4.241-0.354,6.35c-0.158,2.118-0.522,4.218-0.876,6.311c-0.407,2.092-0.89,4.166-1.501,6.214
							c-0.627,2.041-1.311,4.069-2.191,6.04c-0.842,1.976-1.819,3.915-3.002,5.757c-1.127,1.859-2.498,3.615-4.043,5.229
							c-0.741,0.83-1.681,1.52-2.52,2.272c-0.974,0.624-1.87,1.355-2.957,1.823l-1.611,0.727c-0.568,0.22-1.227,0.359-1.838,0.521
							c-1.438,0.412-1.973,0.277-3.441,0.432c-2.391-0.147-4.791-0.666-6.813-1.829c-1.063-0.495-1.934-1.241-2.885-1.873
							c-0.814-0.764-1.721-1.456-2.437-2.296c-1.491-1.632-2.821-3.377-3.874-5.257c-1.105-1.849-2.008-3.797-2.781-5.77
							c-0.804-1.966-1.412-3.992-1.968-6.021c-0.537-2.033-0.956-4.091-1.255-6.165c-0.26-2.076-0.533-4.138-0.596-6.25
							c-0.155-2.111-0.081-4.134-0.076-6.188c0.002-0.516,0.418-0.928,0.932-0.928C63.492,281.732,63.895,282.125,63.927,282.605"/>
					</g>
				</g>
			</g>
			<g opacity="0.75">
				<g>
					<g>
						<path fill="#ACD2E2" d="M91.497,336.919c-0.175,4.128-0.1,8.304,0.019,12.383c0.089,2.093,0.326,4.101,0.63,6.072l0.603,2.974
							l0.794,2.918c0.616,1.918,1.394,3.766,2.266,5.554c0.922,1.765,1.978,3.441,3.186,4.964c1.206,1.516,2.532,2.946,4.124,3.936
							c1.557,1.032,3.261,1.692,4.888,2.011c1.513,0.451,3.349,0.425,4.425,0.479l1.547-0.114c0.583-0.02,0.679-0.171,1.046-0.224
							c0.56-0.061,1.359-0.451,2.079-0.701c1.418-0.737,2.855-1.584,4.09-2.831c1.292-1.142,2.387-2.587,3.441-4.059
							c0.983-1.542,1.885-3.161,2.628-4.888c0.737-1.722,1.364-3.51,1.854-5.352c0.5-1.834,0.859-3.715,1.122-5.614
							c0.259-1.905,0.358-3.828,0.421-5.753h7.001c0.046,1.697,0.049,3.396,0.255,5.084c0.135,1.692,0.431,3.367,0.779,5.016
							c0.342,1.655,0.827,3.264,1.352,4.858l0.904,2.338l1.069,2.243c0.783,1.455,1.652,2.834,2.614,4.134
							c1.008,1.249,2.08,2.417,3.271,3.394c1.208,0.934,2.465,1.813,3.834,2.299c1.341,0.611,2.761,0.779,4.176,0.889
							c0.342-0.071,1.858-0.059,2.305-0.238c0.598-0.168,1.189-0.238,1.9-0.565c1.386-0.468,2.685-1.309,3.932-2.223
							c1.232-0.954,2.351-2.111,3.402-3.354c1.009-1.287,1.927-2.666,2.757-4.121l1.14-2.248l0.975-2.35
							c0.571-1.604,1.108-3.227,1.494-4.9c0.399-1.668,0.738-3.365,0.922-5.081c0.244-1.712,0.295-3.444,0.379-5.173h5.096
							c0.037,1.729,0.033,3.468,0.23,5.193c0.127,1.725,0.416,3.44,0.767,5.127c0.335,1.704,0.822,3.36,1.354,4.995l0.911,2.415
							l1.087,2.323c0.803,1.511,1.695,2.95,2.696,4.315l1.621,1.912c0.606,0.553,1.167,1.188,1.804,1.699
							c1.275,1.019,2.621,1.98,4.117,2.541c1.399,0.685,3.186,0.897,4.48,1.05c0.864-0.083,1.924-0.036,2.626-0.226
							c0.725-0.167,1.452-0.271,2.226-0.615c1.548-0.499,2.961-1.41,4.318-2.396c1.338-1.022,2.532-2.254,3.656-3.567
							c1.072-1.354,2.048-2.795,2.924-4.313l1.206-2.344l1.026-2.438c0.602-1.665,1.179-3.344,1.6-5.073
							c0.43-1.724,0.804-3.474,1.01-5.248c0.272-1.771,0.352-3.561,0.453-5.354l0.008-0.058c0.027-0.468,0.43-0.825,0.896-0.8
							c0.455,0.029,0.807,0.407,0.802,0.857c-0.009,1.854,0.007,3.714-0.179,5.57c-0.123,1.854-0.414,3.701-0.774,5.53
							c-0.343,1.841-0.853,3.652-1.426,5.436l-0.99,2.646l-1.192,2.575c-0.883,1.68-1.877,3.31-3.012,4.86
							c-1.188,1.514-2.483,2.963-3.994,4.225c-1.535,1.225-3.184,2.383-5.084,3.1c-0.893,0.436-1.957,0.686-3.01,0.936
							c-1.068,0.26-1.861,0.229-2.804,0.355c-2.335-0.047-4.218-0.301-6.182-1.081c-1.954-0.653-3.674-1.764-5.284-2.956
							c-1.594-1.224-2.963-2.665-4.227-4.172c-1.21-1.545-2.289-3.175-3.246-4.868l-1.306-2.589l-1.106-2.676
							c-0.646-1.813-1.24-3.641-1.671-5.512c-0.441-1.863-0.813-3.75-1.018-5.657c-0.268-1.896-0.325-3.809-0.411-5.72
							c-0.061-1.408,1.027-2.602,2.436-2.662c1.406-0.069,2.6,1.023,2.66,2.434l0.005,0.148l-0.005,0.08
							c-0.029,1.911-0.035,3.831-0.251,5.739c-0.146,1.913-0.469,3.819-0.862,5.706c-0.376,1.896-0.927,3.754-1.533,5.605
							l-1.041,2.736l-1.26,2.67c-0.92,1.744-1.977,3.438-3.179,5.061c-1.252,1.584-2.633,3.1-4.245,4.43
							c-1.643,1.291-3.406,2.523-5.471,3.278c-0.949,0.443-2.153,0.727-3.338,0.978c-1.32,0.271-1.659,0.2-3.121,0.342
							c-2.217-0.084-4.469-0.39-6.49-1.239c-2.082-0.73-3.89-1.926-5.567-3.198c-1.654-1.309-3.081-2.813-4.378-4.391
							c-1.25-1.609-2.35-3.297-3.323-5.047l-1.329-2.674l-1.113-2.749c-0.654-1.858-1.249-3.735-1.675-5.648
							c-0.437-1.904-0.804-3.83-1.001-5.769c-0.258-1.938-0.31-3.886-0.379-5.83c-0.079-1.935,1.429-3.562,3.364-3.635
							c1.932-0.075,3.56,1.433,3.634,3.364l0.003,0.119v0.151c0.005,8.809-1.894,17.814-6.824,25.664
							c-1.309,1.918-2.707,3.804-4.476,5.452c-1.678,1.717-3.78,3.114-6.019,4.269c-1.213,0.48-2.281,1.031-3.776,1.318
							c-0.646,0.139-1.535,0.372-1.988,0.384l-1.55,0.128l-0.702,0.022l-0.488-0.042l-0.98-0.086
							c-0.652-0.056-1.306-0.135-1.922-0.353c-1.271-0.309-2.463-0.805-3.553-1.442c-1.143-0.557-2.049-1.422-3.021-2.131
							c-0.843-0.856-1.746-1.637-2.463-2.539c-1.525-1.736-2.842-3.532-3.988-5.413c-1.158-1.874-2.024-3.877-2.856-5.856
							l-1.062-3.039l-0.837-3.088l-0.648-3.116l-0.43-3.146c-0.193-2.135-0.302-4.249-0.261-6.302
							c0.035-4.191,0.17-8.286-0.022-12.439c-0.024-0.471,0.344-0.869,0.813-0.889c0.472-0.026,0.867,0.341,0.893,0.811
							C91.497,336.867,91.497,336.899,91.497,336.919"/>
					</g>
				</g>
			</g>
		</g>
	</g>
</g>
<g id="Capa_5">
</g>
<g id="Test">
</g>
</svg>
