<?xml version="1.0" encoding="utf-8"?>
<!-- Generator: Adobe Illustrator 16.0.0, SVG Export Plug-In . SVG Version: 6.00 Build 0)  -->
<!DOCTYPE svg PUBLIC "-//W3C//DTD SVG 1.1//EN" "http://www.w3.org/Graphics/SVG/1.1/DTD/svg11.dtd">
<svg version="1.1" xmlns="http://www.w3.org/2000/svg" xmlns:xlink="http://www.w3.org/1999/xlink" x="0px" y="0px" width="1441px"
	 height="901px" viewBox="0 0 1441 901" enable-background="new 0 0 1441 901" xml:space="preserve">
<g id="Capa_1">
	<radialGradient id="SVGID_1_" cx="720" cy="21.5" r="510.0506" gradientUnits="userSpaceOnUse">
		<stop  offset="0.0209" style="stop-color:#ACD2E2"/>
		<stop  offset="1" style="stop-color:#9CC4E9"/>
	</radialGradient>
	<rect x="-1" fill="url(#SVGID_1_)" width="1442" height="43"/>
	<g>
		<defs>
			<rect id="SVGID_1213_" x="-1" width="1442" height="43"/>
		</defs>
		<clipPath id="SVGID_3_">
			<use xlink:href="#SVGID_1213_"  overflow="visible"/>
		</clipPath>
		<path clip-path="url(#SVGID_3_)" fill="#326535" d="M468.997,73.474c0,0-181.785-37.748-328.772-28.283
			C-6.766,54.655-22.311,55.856-22.311,55.856s80.038-58.936,181.493-29.85c10.496-18.312,36.473-8.301,36.473-8.301
			s9.452-71.422,87.499-69.789c78.042,1.635,156.347,39.561,127.387,87.76C451.212,26.13,468.997,73.474,468.997,73.474"/>
		<path clip-path="url(#SVGID_3_)" fill="#326535" d="M712.33,80.807c0,0-181.785-37.748-328.772-28.283
			c-146.989,9.465-162.535,10.666-162.535,10.666s80.039-58.936,181.494-29.85c10.496-18.312,36.473-8.301,36.473-8.301
			s9.452-71.422,87.499-69.789c78.042,1.635,156.347,39.561,127.387,87.76C694.546,33.463,712.33,80.807,712.33,80.807"/>
		<path clip-path="url(#SVGID_3_)" fill="#326535" d="M843.381,94.31c0,0-136.165-17.604-250.324,6.357
			c-114.161,23.962-126.255,26.688-126.255,26.688s67.622-64.419,142.802-46.936c9.942-18.556,28.931-11.631,28.931-11.631
			s14.529-69.18,74.47-75.543c59.937-6.36,116.391,21.917,89.195,70.896C834.491,50.894,843.381,94.31,843.381,94.31"/>
		<path clip-path="url(#SVGID_3_)" fill="#326535" d="M1194.997,85.474c0,0-181.785-37.748-328.772-28.283
			c-146.99,9.465-162.535,10.666-162.535,10.666s80.038-58.936,181.493-29.85c10.496-18.312,36.473-8.301,36.473-8.301
			s9.452-71.422,87.499-69.789c78.042,1.635,156.347,39.561,127.387,87.76C1177.212,38.13,1194.997,85.474,1194.997,85.474"/>
		<path clip-path="url(#SVGID_3_)" fill="#326535" d="M1438.33,92.807c0,0-181.785-37.748-328.772-28.283
			c-146.989,9.465-162.535,10.666-162.535,10.666s80.039-58.936,181.494-29.85c10.496-18.312,36.473-8.301,36.473-8.301
			s9.452-71.422,87.499-69.789c78.042,1.635,156.347,39.561,127.387,87.76C1420.546,45.463,1438.33,92.807,1438.33,92.807"/>
		<path clip-path="url(#SVGID_3_)" fill="#326535" d="M1569.381,106.31c0,0-136.165-17.604-250.324,6.357
			c-114.161,23.962-126.255,26.688-126.255,26.688s67.622-64.419,142.802-46.936c9.942-18.556,28.931-11.631,28.931-11.631
			s14.529-69.18,74.47-75.543c59.937-6.36,116.391,21.917,89.195,70.896C1560.491,62.894,1569.381,106.31,1569.381,106.31"/>
		<path clip-path="url(#SVGID_3_)" fill="none" stroke="#472728" stroke-width="2" stroke-miterlimit="10" d="M1528.2,77.141
			c27.195-48.979-29.259-77.256-89.195-70.896c-24.609,2.612-41.559,15.813-52.996,30.468
			c1.211-38.677-66.248-67.054-133.521-68.463c-78.046-1.633-87.499,69.789-87.499,69.789s-12.197-4.697-23.253-1.765
			c10.041-42.157-61.371-73.866-132.582-75.357c-78.047-1.633-87.499,69.789-87.499,69.789s-25.977-10.011-36.473,8.301
			c-27.732-7.95-53.857-9.315-77.191-7.114C800.313,3.979,757.63-10.49,713.005-5.755c-24.609,2.612-41.559,15.813-52.996,30.468
			c1.211-38.677-66.248-67.054-133.521-68.463c-78.046-1.633-87.499,69.789-87.499,69.789s-12.197-4.697-23.253-1.765
			c10.041-42.157-61.371-73.866-132.582-75.357c-78.047-1.633-87.499,69.789-87.499,69.789s-25.977-10.011-36.473,8.301
			C57.728-2.079-22.311,56.856-22.311,56.856s15.545-1.201,162.535-10.666c36.493-2.35,75.13-1.789,112.599,0.382
			c-20.103,9.012-31.8,17.617-31.8,17.617s13.166-1.018,129.699-8.548c68.509,8.498,118.275,18.832,118.275,18.832
			s-4.38-11.651-13.757-22.229c67.245,1.485,134.574,9.524,183.455,16.845c-0.107,0.451-0.159,0.698-0.159,0.698
			s-18.989-6.925-28.931,11.631c-75.18-17.483-142.802,46.936-142.802,46.936s12.094-2.726,126.255-26.688
			c114.159-23.961,250.324-6.357,250.324-6.357s-8.89-43.416-41.181-30.169c0.544-0.979,1.042-1.947,1.52-2.911
			c17.612-1.144,38.26-2.478,62.504-4.039c36.493-2.35,75.13-1.789,112.599,0.382c-20.103,9.012-31.8,17.617-31.8,17.617
			s13.166-1.018,129.699-8.548c68.509,8.498,118.275,18.832,118.275,18.832s-4.38-11.651-13.757-22.229
			c67.245,1.485,134.574,9.524,183.455,16.845c-0.107,0.451-0.159,0.698-0.159,0.698s-18.989-6.925-28.931,11.631
			c-75.18-17.483-142.802,46.936-142.802,46.936s12.094-2.726,126.255-26.688c114.159-23.961,250.324-6.357,250.324-6.357
			S1560.491,63.894,1528.2,77.141z"/>
	</g>
	<rect x="-0.5" y="42.5" fill="#7EAC63" stroke="#472728" stroke-miterlimit="10" width="1441" height="14"/>
	<g>
		<g>
			<defs>
				<rect id="SVGID_1215_" x="1" y="-394" width="1440" height="1295"/>
			</defs>
			<clipPath id="SVGID_5_">
				<use xlink:href="#SVGID_1215_"  overflow="visible"/>
			</clipPath>
			<g clip-path="url(#SVGID_5_)">
				<rect x="-11" y="55" fill="#916633" stroke="#472728" stroke-width="2" stroke-miterlimit="10" width="1460" height="878"/>
				<path opacity="0.6" fill="#A67339" d="M152.816,90.289c0,8.628-6.993,15.627-15.626,15.627c-8.628,0-15.626-6.999-15.626-15.627
					c0-8.633,6.998-15.627,15.626-15.627C145.823,74.662,152.816,81.656,152.816,90.289z"/>
				<path opacity="0.3" fill="#734A1E" d="M411.679,113.46c0,18.804-15.244,35.047-34.045,35.047s-34.045-16.243-34.045-35.047
					s15.244-34.043,34.045-34.043S411.679,94.656,411.679,113.46z"/>
				<circle opacity="0.3" fill="#734A1E" cx="281.478" cy="92.422" r="11.313"/>
				<path opacity="0.3" fill="#734A1E" d="M1202.144,132.195c0,4.689-3.802,8.486-8.487,8.486c-4.684,0-8.48-3.797-8.48-8.486
					c0-4.685,3.797-8.481,8.48-8.481C1198.342,123.714,1202.144,127.511,1202.144,132.195z"/>
				<path opacity="0.3" fill="#734A1E" d="M229.464,131.148c0,11.896-9.643,21.532-21.532,21.532
					c-11.894,0-21.532-9.637-21.532-21.532c0-11.89,9.639-21.531,21.532-21.531C219.822,109.617,229.464,119.259,229.464,131.148z"
					/>
				<path opacity="0.6" fill="#A67339" d="M543.4,116.863c0,19.53-15.833,35.358-35.357,35.358
					c-19.527,0-35.359-15.828-35.359-35.358s15.832-35.358,35.359-35.358C527.567,81.505,543.4,97.333,543.4,116.863z"/>
				<path opacity="0.6" fill="#A67339" d="M1406.696,95.79c0,12.565-10.192,22.757-22.757,22.757
					c-12.566,0-22.758-10.191-22.758-22.757c0-12.566,10.191-22.757,22.758-22.757C1396.503,73.033,1406.696,83.224,1406.696,95.79z
					"/>
				<path opacity="0.6" fill="#A67339" d="M542.902,127.307c0,10.927-8.859,19.781-19.787,19.781
					c-10.925,0-19.782-8.854-19.782-19.781c0-10.928,8.857-19.787,19.782-19.787C534.042,107.52,542.902,116.379,542.902,127.307z"
					/>
				<circle opacity="0.6" fill="#A67339" cx="1292.501" cy="115.848" r="12.062"/>
				<circle opacity="0.6" fill="#A67339" cx="93.13" cy="95.867" r="12.063"/>
				<circle opacity="0.6" fill="#A67339" cx="273.336" cy="91.564" r="6.784"/>
				<path opacity="0.6" fill="#A67339" d="M364.519,121.81c0,9.284-7.529,16.813-16.818,16.813c-9.281,0-16.811-7.528-16.811-16.813
					c0-9.288,7.529-16.816,16.811-16.816C356.99,104.993,364.519,112.521,364.519,121.81z"/>
				<path fill="#68431C" d="M245.474,149.413"/>
				<path opacity="0.3" fill="#734A1E" d="M532.716,84.661c0,2.507-2.033,4.54-4.544,4.54c-2.507,0-4.544-2.033-4.544-4.54
					c0-2.511,2.037-4.543,4.544-4.543C530.683,80.118,532.716,82.15,532.716,84.661z"/>
				<path opacity="0.3" fill="#734A1E" d="M368.818,79.004c0,2.511-2.035,4.543-4.541,4.543c-2.51,0-4.543-2.032-4.543-4.543
					c0-2.506,2.033-4.538,4.543-4.538C366.783,74.466,368.818,76.498,368.818,79.004z"/>
				<path opacity="0.3" fill="#734A1E" d="M1182.256,128.827c0,2.506-2.032,4.538-4.543,4.538c-2.507,0-4.539-2.032-4.539-4.538
					c0-2.512,2.032-4.543,4.539-4.543C1180.224,124.284,1182.256,126.315,1182.256,128.827z"/>
				<path opacity="0.3" fill="#734A1E" d="M93.996,91.443c0,2.512-2.032,4.544-4.541,4.544c-2.508,0-4.541-2.032-4.541-4.544
					c0-2.506,2.033-4.543,4.541-4.543C91.963,86.9,93.996,88.938,93.996,91.443z"/>
				<path opacity="0.6" fill="#A67339" d="M1243.559,119.761c0,2.506-2.033,4.543-4.544,4.543c-2.507,0-4.538-2.037-4.538-4.543
					c0-2.512,2.031-4.544,4.538-4.544C1241.526,115.217,1243.559,117.249,1243.559,119.761z"/>
				<circle opacity="0.6" fill="#A67339" cx="460.34" cy="89.201" r="4.542"/>
				<path opacity="0.6" fill="#A67339" d="M174.248,100.511c0,2.506-2.034,4.543-4.541,4.543c-2.511,0-4.543-2.037-4.543-4.543
					c0-2.507,2.032-4.544,4.543-4.544C172.213,95.967,174.248,98.004,174.248,100.511z"/>
				<path opacity="0.6" fill="#A67339" d="M218.411,84.661c0,2.507-2.032,4.54-4.542,4.54c-2.508,0-4.539-2.033-4.539-4.54
					c0-2.511,2.031-4.543,4.539-4.543C216.378,80.118,218.411,82.15,218.411,84.661z"/>
				<path fill="#68431C" d="M211.769,152.968"/>
				<circle opacity="0.6" fill="#A67339" cx="678.663" cy="129.287" r="15.626"/>
				<path opacity="0.3" fill="#734A1E" d="M953.152,152.458c0,18.804-15.244,35.047-34.045,35.047s-34.045-16.243-34.045-35.047
					s15.244-34.043,34.045-34.043S953.152,133.654,953.152,152.458z"/>
				<circle opacity="0.3" fill="#734A1E" cx="822.951" cy="131.42" r="11.313"/>
				<path opacity="0.3" fill="#734A1E" d="M770.937,170.146c0,11.896-9.643,21.532-21.533,21.532
					c-11.893,0-21.531-9.637-21.531-21.532c0-11.89,9.639-21.531,21.531-21.531C761.294,148.615,770.937,158.257,770.937,170.146z"
					/>
				<circle opacity="0.6" fill="#A67339" cx="764.547" cy="100.353" r="26.319"/>
				<path opacity="0.6" fill="#A67339" d="M1084.874,155.861c0,19.53-15.834,35.358-35.358,35.358
					c-19.527,0-35.358-15.828-35.358-35.358s15.831-35.358,35.358-35.358C1069.04,120.503,1084.874,136.331,1084.874,155.861z"/>
				<path opacity="0.6" fill="#A67339" d="M1084.375,166.305c0,10.927-8.859,19.781-19.787,19.781
					c-10.925,0-19.783-8.854-19.783-19.781c0-10.928,8.858-19.787,19.783-19.787
					C1075.515,146.518,1084.375,155.377,1084.375,166.305z"/>
				<circle opacity="0.6" fill="#A67339" cx="634.604" cy="134.864" r="12.062"/>
				<circle opacity="0.6" fill="#A67339" cx="814.81" cy="130.563" r="6.785"/>
				<path opacity="0.6" fill="#A67339" d="M905.992,160.808c0,9.284-7.529,16.813-16.817,16.813
					c-9.283,0-16.812-7.528-16.812-16.813c0-9.288,7.528-16.815,16.812-16.815C898.462,143.992,905.992,151.52,905.992,160.808z"/>
				<path fill="#68431C" d="M786.947,188.411"/>
				<path opacity="0.3" fill="#734A1E" d="M1074.189,123.66c0,2.506-2.033,4.539-4.544,4.539c-2.507,0-4.544-2.033-4.544-4.539
					c0-2.512,2.037-4.543,4.544-4.543C1072.156,119.117,1074.189,121.148,1074.189,123.66z"/>
				<path opacity="0.3" fill="#734A1E" d="M910.291,118.002c0,2.511-2.035,4.543-4.541,4.543c-2.509,0-4.543-2.032-4.543-4.543
					c0-2.506,2.034-4.538,4.543-4.538C908.255,113.464,910.291,115.496,910.291,118.002z"/>
				<path opacity="0.3" fill="#734A1E" d="M635.468,130.441c0,2.512-2.033,4.544-4.541,4.544s-4.541-2.032-4.541-4.544
					c0-2.506,2.033-4.543,4.541-4.543S635.468,127.936,635.468,130.441z"/>
				<circle opacity="0.6" fill="#A67339" cx="1001.813" cy="128.199" r="4.542"/>
				<path opacity="0.6" fill="#A67339" d="M715.72,139.509c0,2.506-2.034,4.543-4.541,4.543c-2.51,0-4.543-2.037-4.543-4.543
					c0-2.507,2.033-4.544,4.543-4.544C713.686,134.965,715.72,137.002,715.72,139.509z"/>
				<path opacity="0.6" fill="#A67339" d="M759.882,123.66c0,2.506-2.031,4.539-4.54,4.539s-4.54-2.033-4.54-4.539
					c0-2.512,2.031-4.543,4.54-4.543S759.882,121.148,759.882,123.66z"/>
				<path fill="#68431C" d="M753.242,191.966"/>
				<circle opacity="0.6" fill="#A67339" cx="1324.574" cy="242.289" r="15.626"/>
				<path opacity="0.3" fill="#734A1E" d="M1050.085,265.46c0,18.804,15.244,35.047,34.045,35.047s34.045-16.243,34.045-35.047
					s-15.244-34.043-34.045-34.043S1050.085,246.656,1050.085,265.46z"/>
				<circle opacity="0.3" fill="#734A1E" cx="1180.287" cy="244.422" r="11.313"/>
				<path opacity="0.3" fill="#734A1E" d="M262.621,249.697c0,4.689,3.802,8.486,8.487,8.486c4.684,0,8.48-3.797,8.48-8.486
					c0-4.685-3.797-8.481-8.48-8.481C266.422,241.216,262.621,245.013,262.621,249.697z"/>
				<path opacity="0.3" fill="#734A1E" d="M1232.3,283.148c0,11.896,9.643,21.532,21.532,21.532
					c11.894,0,21.532-9.637,21.532-21.532c0-11.89-9.639-21.531-21.532-21.531C1241.943,261.617,1232.3,271.259,1232.3,283.148z"/>
				<circle opacity="0.6" fill="#A67339" cx="1238.69" cy="213.354" r="26.319"/>
				<path opacity="0.6" fill="#A67339" d="M918.364,268.863c0,19.53,15.834,35.358,35.358,35.358
					c19.527,0,35.358-15.828,35.358-35.358s-15.831-35.358-35.358-35.358C934.198,233.505,918.364,249.333,918.364,268.863z"/>
				<path opacity="0.6" fill="#A67339" d="M55.068,247.79c0,12.565,10.192,22.757,22.758,22.757
					c12.566,0,22.758-10.191,22.758-22.757c0-12.566-10.191-22.757-22.758-22.757C65.26,225.033,55.068,235.224,55.068,247.79z"/>
				<path opacity="0.6" fill="#A67339" d="M918.863,279.307c0,10.927,8.859,19.781,19.787,19.781
					c10.925,0,19.782-8.854,19.782-19.781c0-10.928-8.857-19.787-19.782-19.787C927.722,259.52,918.863,268.379,918.863,279.307z"/>
				<circle opacity="0.6" fill="#A67339" cx="172.263" cy="233.35" r="12.062"/>
				<circle opacity="0.6" fill="#A67339" cx="1368.634" cy="247.867" r="12.062"/>
				<circle opacity="0.6" fill="#A67339" cx="1188.428" cy="243.564" r="6.785"/>
				<path opacity="0.6" fill="#A67339" d="M1097.246,273.81c0,9.284,7.529,16.813,16.817,16.813c9.283,0,16.812-7.528,16.812-16.813
					c0-9.288-7.528-16.816-16.812-16.816C1104.775,256.993,1097.246,264.521,1097.246,273.81z"/>
				<path fill="#68431C" d="M1216.291,301.413"/>
				<path opacity="0.3" fill="#734A1E" d="M929.048,236.661c0,2.507,2.033,4.54,4.544,4.54c2.507,0,4.544-2.033,4.544-4.54
					c0-2.511-2.037-4.543-4.544-4.543C931.082,232.118,929.048,234.15,929.048,236.661z"/>
				<path opacity="0.3" fill="#734A1E" d="M1092.947,231.004c0,2.511,2.035,4.543,4.541,4.543c2.509,0,4.543-2.032,4.543-4.543
					c0-2.506-2.034-4.538-4.543-4.538C1094.982,226.466,1092.947,228.498,1092.947,231.004z"/>
				<path opacity="0.3" fill="#734A1E" d="M282.508,246.329c0,2.506,2.032,4.538,4.542,4.538c2.508,0,4.54-2.032,4.54-4.538
					c0-2.512-2.032-4.543-4.54-4.543C284.541,241.786,282.508,243.817,282.508,246.329z"/>
				<path opacity="0.3" fill="#734A1E" d="M1367.769,243.443c0,2.512,2.032,4.544,4.541,4.544c2.508,0,4.541-2.032,4.541-4.544
					c0-2.506-2.033-4.543-4.541-4.543C1369.801,238.9,1367.769,240.938,1367.769,243.443z"/>
				<path opacity="0.6" fill="#A67339" d="M221.206,237.263c0,2.506,2.033,4.543,4.544,4.543c2.507,0,4.537-2.037,4.537-4.543
					c0-2.512-2.03-4.544-4.537-4.544C223.239,232.719,221.206,234.751,221.206,237.263z"/>
				<path opacity="0.3" fill="#734A1E" d="M829.617,302.023c0,4.689,3.803,8.486,8.486,8.486s8.482-3.797,8.482-8.486
					c0-4.685-3.799-8.481-8.482-8.481S829.617,297.339,829.617,302.023z"/>
				<path opacity="0.6" fill="#A67339" d="M622.065,300.117c0,12.564,10.191,22.756,22.757,22.756
					c12.566,0,22.758-10.191,22.758-22.756c0-12.567-10.191-22.759-22.758-22.759C632.256,277.358,622.065,287.55,622.065,300.117z"
					/>
				<circle opacity="0.6" fill="#A67339" cx="739.259" cy="285.676" r="12.061"/>
				<path opacity="0.3" fill="#734A1E" d="M849.503,298.655c0,2.506,2.033,4.538,4.544,4.538c2.507,0,4.54-2.032,4.54-4.538
					c0-2.512-2.033-4.543-4.54-4.543C851.537,294.112,849.503,296.144,849.503,298.655z"/>
				<path opacity="0.6" fill="#A67339" d="M788.201,289.589c0,2.506,2.034,4.543,4.545,4.543c2.508,0,4.538-2.037,4.538-4.543
					c0-2.512-2.03-4.544-4.538-4.544C790.235,285.045,788.201,287.077,788.201,289.589z"/>
				<circle opacity="0.6" fill="#A67339" cx="1001.424" cy="241.201" r="4.542"/>
				<path opacity="0.6" fill="#A67339" d="M1287.517,252.511c0,2.506,2.033,4.543,4.541,4.543c2.51,0,4.543-2.037,4.543-4.543
					c0-2.507-2.033-4.544-4.543-4.544C1289.55,247.967,1287.517,250.004,1287.517,252.511z"/>
				<path opacity="0.6" fill="#A67339" d="M1243.353,236.661c0,2.507,2.033,4.54,4.542,4.54s4.54-2.033,4.54-4.54
					c0-2.511-2.031-4.543-4.54-4.543S1243.353,234.15,1243.353,236.661z"/>
				<path fill="#68431C" d="M1249.996,304.968"/>
				<circle opacity="0.6" fill="#A67339" cx="1239.123" cy="403.106" r="15.626"/>
				<path opacity="0.3" fill="#734A1E" d="M504.113,236.962c0,18.804,15.244,35.047,34.045,35.047s34.045-16.243,34.045-35.047
					s-15.244-34.043-34.045-34.043S504.113,218.158,504.113,236.962z"/>
				<circle opacity="0.3" fill="#734A1E" cx="1094.835" cy="405.24" r="11.313"/>
				<path opacity="0.3" fill="#734A1E" d="M1146.849,443.966c0,11.896,9.643,21.532,21.532,21.532
					c11.894,0,21.532-9.637,21.532-21.532c0-11.89-9.639-21.531-21.532-21.531C1156.492,422.435,1146.849,432.076,1146.849,443.966z
					"/>
				<circle opacity="0.6" fill="#A67339" cx="1153.239" cy="374.172" r="26.319"/>
				<path opacity="0.6" fill="#A67339" d="M352.893,250.864c0,19.53,15.834,35.358,35.358,35.358
					c19.527,0,35.358-15.828,35.358-35.358s-15.831-35.358-35.358-35.358C368.727,215.506,352.893,231.334,352.893,250.864z"/>
				<path opacity="0.6" fill="#A67339" d="M353.392,261.308c0,10.927,8.859,19.781,19.787,19.781
					c10.924,0,19.782-8.854,19.782-19.781c0-10.928-8.858-19.787-19.782-19.787C362.251,241.521,353.392,250.38,353.392,261.308z"/>
				<circle opacity="0.6" fill="#A67339" cx="1283.183" cy="408.684" r="12.062"/>
				<circle opacity="0.6" fill="#A67339" cx="1102.977" cy="404.382" r="6.785"/>
				<path opacity="0.6" fill="#A67339" d="M551.273,245.312c0,9.284,7.529,16.813,16.817,16.813c9.283,0,16.812-7.528,16.812-16.813
					c0-9.288-7.528-16.816-16.812-16.816C558.802,228.495,551.273,236.023,551.273,245.312z"/>
				<path fill="#68431C" d="M1130.839,462.23"/>
				<path opacity="0.3" fill="#734A1E" d="M363.578,218.662c0,2.507,2.033,4.539,4.543,4.539c2.508,0,4.545-2.032,4.545-4.539
					c0-2.511-2.037-4.543-4.545-4.543C365.611,214.119,363.578,216.151,363.578,218.662z"/>
				<path opacity="0.3" fill="#734A1E" d="M546.974,202.506c0,2.511,2.035,4.543,4.541,4.543c2.509,0,4.543-2.032,4.543-4.543
					c0-2.506-2.034-4.538-4.543-4.538C549.009,197.968,546.974,200,546.974,202.506z"/>
				<path opacity="0.3" fill="#734A1E" d="M1282.318,404.261c0,2.512,2.032,4.544,4.541,4.544c2.508,0,4.541-2.032,4.541-4.544
					c0-2.506-2.033-4.543-4.541-4.543C1284.35,399.718,1282.318,401.755,1282.318,404.261z"/>
				<circle opacity="0.6" fill="#A67339" cx="435.953" cy="223.201" r="4.542"/>
				<path opacity="0.3" fill="#734A1E" d="M181.625,380.19c0,4.689,3.802,8.486,8.487,8.486c4.684,0,8.48-3.797,8.48-8.486
					c0-4.685-3.797-8.481-8.48-8.481C185.426,371.709,181.625,375.506,181.625,380.19z"/>
				<path opacity="0.3" fill="#734A1E" d="M201.512,376.822c0,2.506,2.032,4.538,4.543,4.538c2.507,0,4.539-2.032,4.539-4.538
					c0-2.512-2.032-4.543-4.539-4.543C203.544,372.279,201.512,374.311,201.512,376.822z"/>
				<path opacity="0.3" fill="#734A1E" d="M432.972,367.601c0,13.36,10.83,24.901,24.189,24.901
					c13.357,0,24.189-11.541,24.189-24.901s-10.832-24.188-24.189-24.188C443.802,343.412,432.972,354.24,432.972,367.601z"/>
				<path opacity="0.6" fill="#A67339" d="M271.897,381.357c0,19.53,15.834,35.358,35.358,35.358
					c19.527,0,35.358-15.828,35.358-35.358s-15.831-35.358-35.358-35.358C287.731,345.999,271.897,361.827,271.897,381.357z"/>
				<path opacity="0.6" fill="#A67339" d="M272.396,391.801c0,10.927,8.859,19.781,19.787,19.781
					c10.925,0,19.782-8.854,19.782-19.781c0-10.928-8.857-19.787-19.782-19.787C281.255,372.014,272.396,380.873,272.396,391.801z"
					/>
				<circle opacity="0.6" fill="#A67339" cx="354.957" cy="353.694" r="4.542"/>
				<path opacity="0.6" fill="#A67339" d="M1202.066,413.328c0,2.506,2.033,4.543,4.541,4.543c2.51,0,4.543-2.037,4.543-4.543
					c0-2.507-2.033-4.544-4.543-4.544C1204.099,408.784,1202.066,410.821,1202.066,413.328z"/>
				<path opacity="0.6" fill="#A67339" d="M1157.903,397.479c0,2.507,2.032,4.539,4.541,4.539s4.54-2.032,4.54-4.539
					c0-2.511-2.031-4.543-4.54-4.543S1157.903,394.968,1157.903,397.479z"/>
				<path fill="#68431C" d="M1164.544,465.785"/>
				<path opacity="0.6" fill="#A67339" d="M963.964,375.783c0,8.627,6.994,15.627,15.627,15.627c8.627,0,15.626-7,15.626-15.627
					c0-8.634-6.999-15.628-15.626-15.628C970.958,360.155,963.964,367.149,963.964,375.783z"/>
				<path opacity="0.3" fill="#734A1E" d="M705.102,398.953c0,18.804,15.244,35.047,34.045,35.047s34.045-16.243,34.045-35.047
					s-15.244-34.043-34.045-34.043S705.102,380.149,705.102,398.953z"/>
				<path opacity="0.3" fill="#734A1E" d="M887.316,416.642c0,11.896,9.645,21.532,21.533,21.532
					c11.894,0,21.532-9.637,21.532-21.532c0-11.89-9.639-21.531-21.532-21.531C896.96,395.11,887.316,404.752,887.316,416.642z"/>
				<path opacity="0.6" fill="#A67339" d="M573.38,402.356c0,19.53,15.834,35.358,35.358,35.358
					c19.527,0,35.358-15.828,35.358-35.358s-15.831-35.358-35.358-35.358C589.214,366.998,573.38,382.826,573.38,402.356z"/>
				<path opacity="0.6" fill="#A67339" d="M573.879,412.8c0,10.927,8.859,19.781,19.787,19.781c10.925,0,19.782-8.854,19.782-19.781
					c0-10.928-8.857-19.787-19.782-19.787C582.739,393.013,573.879,401.872,573.879,412.8z"/>
				<circle opacity="0.6" fill="#A67339" cx="1023.65" cy="381.359" r="12.063"/>
				<path opacity="0.6" fill="#A67339" d="M752.262,407.303c0,9.284,7.529,16.813,16.817,16.813c9.283,0,16.812-7.528,16.812-16.813
					c0-9.288-7.528-16.816-16.812-16.816C759.792,390.486,752.262,398.015,752.262,407.303z"/>
				<path fill="#68431C" d="M871.307,434.906"/>
				<path fill="#68431C" d="M905.012,438.461"/>
				<circle opacity="0.6" fill="#A67339" cx="808.255" cy="507.665" r="26.32"/>
				<circle opacity="0.6" fill="#A67339" cx="94.255" cy="443.665" r="26.32"/>
				<path opacity="0.6" fill="#A67339" d="M812.919,530.972c0,2.507,2.032,4.539,4.541,4.539s4.54-2.032,4.54-4.539
					c0-2.511-2.031-4.543-4.54-4.543S812.919,528.461,812.919,530.972z"/>
				<path opacity="0.6" fill="#A67339" d="M1144.439,904.376c0-8.628,6.993-15.627,15.626-15.627
					c8.628,0,15.626,6.999,15.626,15.627c0,8.633-6.998,15.627-15.626,15.627C1151.433,920.003,1144.439,913.009,1144.439,904.376z"
					/>
				<path opacity="0.3" fill="#734A1E" d="M885.576,881.205c0-18.804,15.244-35.047,34.045-35.047s34.045,16.243,34.045,35.047
					s-15.244,34.043-34.045,34.043S885.576,900.009,885.576,881.205z"/>
				<circle opacity="0.3" fill="#734A1E" cx="1015.777" cy="902.243" r="11.313"/>
				<path opacity="0.3" fill="#734A1E" d="M95.111,862.47c0-4.689,3.802-8.486,8.487-8.486c4.684,0,8.48,3.797,8.48,8.486
					c0,4.685-3.797,8.481-8.48,8.481C98.913,870.951,95.111,867.154,95.111,862.47z"/>
				<path opacity="0.3" fill="#734A1E" d="M1067.791,863.517c0-11.896,9.643-21.532,21.532-21.532
					c11.894,0,21.532,9.637,21.532,21.532c0,11.89-9.639,21.531-21.532,21.531C1077.434,885.048,1067.791,875.406,1067.791,863.517z
					"/>
				<path opacity="0.6" fill="#A67339" d="M753.855,877.802c0-19.53,15.833-35.358,35.357-35.358
					c19.527,0,35.359,15.828,35.359,35.358s-15.832,35.358-35.359,35.358C769.688,913.16,753.855,897.332,753.855,877.802z"/>
				<path opacity="0.6" fill="#A67339" d="M754.353,867.358c0-10.927,8.86-19.781,19.788-19.781
					c10.925,0,19.782,8.854,19.782,19.781c0,10.928-8.857,19.787-19.782,19.787C763.213,887.146,754.353,878.286,754.353,867.358z"
					/>
				<circle opacity="0.6" fill="#A67339" cx="4.754" cy="878.817" r="12.062"/>
				<circle opacity="0.6" fill="#A67339" cx="1204.125" cy="898.798" r="12.063"/>
				<circle opacity="0.6" fill="#A67339" cx="1023.919" cy="903.101" r="6.784"/>
				<path opacity="0.6" fill="#A67339" d="M932.736,872.855c0-9.284,7.529-16.813,16.818-16.813c9.281,0,16.811,7.528,16.811,16.813
					c0,9.288-7.529,16.816-16.811,16.816C940.266,889.672,932.736,882.144,932.736,872.855z"/>
				<path fill="#68431C" d="M1051.781,845.252"/>
				<path opacity="0.3" fill="#734A1E" d="M114.999,865.838c0-2.506,2.032-4.538,4.543-4.538c2.507,0,4.539,2.032,4.539,4.538
					c0,2.512-2.032,4.543-4.539,4.543C117.031,870.381,114.999,868.35,114.999,865.838z"/>
				<path opacity="0.3" fill="#734A1E" d="M1203.26,903.222c0-2.512,2.032-4.544,4.541-4.544c2.508,0,4.541,2.032,4.541,4.544
					c0,2.506-2.033,4.543-4.541,4.543C1205.292,907.765,1203.26,905.728,1203.26,903.222z"/>
				<path opacity="0.6" fill="#A67339" d="M53.696,874.904c0-2.506,2.033-4.543,4.544-4.543c2.507,0,4.538,2.037,4.538,4.543
					c0,2.512-2.031,4.544-4.538,4.544C55.729,879.448,53.696,877.416,53.696,874.904z"/>
				<circle opacity="0.6" fill="#A67339" cx="836.915" cy="905.464" r="4.542"/>
				<path opacity="0.6" fill="#A67339" d="M1123.008,894.154c0-2.506,2.034-4.543,4.541-4.543c2.511,0,4.543,2.037,4.543,4.543
					c0,2.507-2.032,4.544-4.543,4.544C1125.042,898.698,1123.008,896.661,1123.008,894.154z"/>
				<path fill="#68431C" d="M1085.486,841.697"/>
				<circle opacity="0.6" fill="#A67339" cx="618.592" cy="865.378" r="15.626"/>
				<path opacity="0.3" fill="#734A1E" d="M344.103,842.207c0-18.804,15.245-35.047,34.045-35.047s34.045,16.243,34.045,35.047
					s-15.244,34.043-34.045,34.043S344.103,861.011,344.103,842.207z"/>
				<circle opacity="0.3" fill="#734A1E" cx="474.305" cy="863.245" r="11.313"/>
				<path opacity="0.3" fill="#734A1E" d="M526.318,824.519c0-11.896,9.643-21.532,21.533-21.532
					c11.893,0,21.531,9.637,21.531,21.532c0,11.89-9.639,21.531-21.531,21.531C535.961,846.05,526.318,836.408,526.318,824.519z"/>
				<circle opacity="0.6" fill="#A67339" cx="532.708" cy="894.313" r="26.319"/>
				<path opacity="0.6" fill="#A67339" d="M212.382,838.804c0-19.53,15.834-35.358,35.358-35.358
					c19.527,0,35.358,15.828,35.358,35.358s-15.831,35.358-35.358,35.358C228.216,874.162,212.382,858.334,212.382,838.804z"/>
				<path opacity="0.6" fill="#A67339" d="M212.881,828.36c0-10.927,8.859-19.781,19.787-19.781
					c10.925,0,19.783,8.854,19.783,19.781c0,10.928-8.858,19.787-19.783,19.787C221.74,848.147,212.881,839.288,212.881,828.36z"/>
				<circle opacity="0.6" fill="#A67339" cx="662.652" cy="859.801" r="12.062"/>
				<circle opacity="0.6" fill="#A67339" cx="482.446" cy="864.103" r="6.785"/>
				<path opacity="0.6" fill="#A67339" d="M391.264,833.857c0-9.284,7.529-16.813,16.817-16.813c9.283,0,16.812,7.528,16.812,16.813
					c0,9.288-7.528,16.815-16.812,16.815C398.793,850.673,391.264,843.146,391.264,833.857z"/>
				<path fill="#68431C" d="M510.309,806.254"/>
				<path opacity="0.3" fill="#734A1E" d="M223.066,871.005c0-2.506,2.033-4.539,4.544-4.539c2.507,0,4.544,2.033,4.544,4.539
					c0,2.512-2.037,4.543-4.544,4.543C225.1,875.548,223.066,873.517,223.066,871.005z"/>
				<path opacity="0.3" fill="#734A1E" d="M386.965,876.663c0-2.511,2.035-4.543,4.541-4.543c2.509,0,4.543,2.032,4.543,4.543
					c0,2.506-2.034,4.538-4.543,4.538C389,881.201,386.965,879.169,386.965,876.663z"/>
				<path opacity="0.3" fill="#734A1E" d="M661.787,864.224c0-2.512,2.033-4.544,4.541-4.544s4.541,2.032,4.541,4.544
					c0,2.506-2.033,4.543-4.541,4.543S661.787,866.729,661.787,864.224z"/>
				<circle opacity="0.6" fill="#A67339" cx="295.442" cy="866.466" r="4.542"/>
				<path opacity="0.6" fill="#A67339" d="M581.535,855.156c0-2.506,2.034-4.543,4.541-4.543c2.51,0,4.543,2.037,4.543,4.543
					c0,2.507-2.033,4.544-4.543,4.544C583.569,859.7,581.535,857.663,581.535,855.156z"/>
				<path opacity="0.6" fill="#A67339" d="M537.373,871.005c0-2.506,2.031-4.539,4.54-4.539s4.54,2.033,4.54,4.539
					c0,2.512-2.031,4.543-4.54,4.543S537.373,873.517,537.373,871.005z"/>
				<path fill="#68431C" d="M544.014,802.699"/>
				<path opacity="0.3" fill="#734A1E" d="M247.17,729.205c0-18.804-15.244-35.047-34.045-35.047s-34.045,16.243-34.045,35.047
					s15.244,34.043,34.045,34.043S247.17,748.009,247.17,729.205z"/>
				<circle opacity="0.3" fill="#734A1E" cx="116.969" cy="750.243" r="11.313"/>
				<path opacity="0.3" fill="#734A1E" d="M1034.635,744.968c0-4.689-3.802-8.486-8.487-8.486c-4.684,0-8.48,3.797-8.48,8.486
					c0,4.685,3.797,8.481,8.48,8.481C1030.833,753.449,1034.635,749.652,1034.635,744.968z"/>
				<path opacity="0.3" fill="#734A1E" d="M64.955,711.517c0-11.896-9.643-21.532-21.532-21.532
					c-11.894,0-21.532,9.637-21.532,21.532c0,11.89,9.639,21.531,21.532,21.531C55.312,733.048,64.955,723.406,64.955,711.517z"/>
				<circle opacity="0.6" fill="#A67339" cx="58.565" cy="781.311" r="26.319"/>
				<path opacity="0.6" fill="#A67339" d="M378.892,725.802c0-19.53-15.834-35.358-35.358-35.358
					c-19.527,0-35.358,15.828-35.358,35.358s15.831,35.358,35.358,35.358C363.058,761.16,378.892,745.332,378.892,725.802z"/>
				<path opacity="0.6" fill="#A67339" d="M1242.188,746.875c0-12.565-10.192-22.757-22.758-22.757
					c-12.566,0-22.758,10.191-22.758,22.757c0,12.566,10.191,22.757,22.758,22.757
					C1231.995,769.632,1242.188,759.441,1242.188,746.875z"/>
				<path opacity="0.6" fill="#A67339" d="M378.393,715.358c0-10.927-8.859-19.781-19.787-19.781
					c-10.925,0-19.782,8.854-19.782,19.781c0,10.928,8.857,19.787,19.782,19.787C369.533,735.146,378.393,726.286,378.393,715.358z"
					/>
				<circle opacity="0.6" fill="#A67339" cx="1124.993" cy="761.315" r="12.062"/>
				<circle opacity="0.6" fill="#A67339" cx="108.828" cy="751.101" r="6.785"/>
				<path opacity="0.6" fill="#A67339" d="M200.01,720.855c0-9.284-7.529-16.813-16.817-16.813c-9.283,0-16.812,7.528-16.812,16.813
					c0,9.288,7.528,16.816,16.812,16.816C192.48,737.672,200.01,730.144,200.01,720.855z"/>
				<path fill="#68431C" d="M80.965,693.252"/>
				<path opacity="0.3" fill="#734A1E" d="M368.207,758.004c0-2.507-2.033-4.54-4.544-4.54c-2.507,0-4.544,2.033-4.544,4.54
					c0,2.511,2.037,4.543,4.544,4.543C366.174,762.547,368.207,760.515,368.207,758.004z"/>
				<path opacity="0.3" fill="#734A1E" d="M204.309,763.661c0-2.511-2.035-4.543-4.541-4.543c-2.509,0-4.543,2.032-4.543,4.543
					c0,2.506,2.034,4.538,4.543,4.538C202.273,768.199,204.309,766.167,204.309,763.661z"/>
				<path opacity="0.3" fill="#734A1E" d="M1014.747,748.336c0-2.506-2.032-4.538-4.542-4.538c-2.508,0-4.54,2.032-4.54,4.538
					c0,2.512,2.032,4.543,4.54,4.543C1012.715,752.879,1014.747,750.848,1014.747,748.336z"/>
				<path opacity="0.6" fill="#A67339" d="M1076.05,757.402c0-2.506-2.033-4.543-4.544-4.543c-2.507,0-4.537,2.037-4.537,4.543
					c0,2.512,2.03,4.544,4.537,4.544C1074.017,761.946,1076.05,759.914,1076.05,757.402z"/>
				<path opacity="0.3" fill="#734A1E" d="M467.639,692.642c0-4.689-3.803-8.486-8.486-8.486s-8.482,3.797-8.482,8.486
					c0,4.685,3.799,8.481,8.482,8.481S467.639,697.326,467.639,692.642z"/>
				<path opacity="0.6" fill="#A67339" d="M675.19,694.548c0-12.564-10.191-22.756-22.757-22.756
					c-12.566,0-22.758,10.191-22.758,22.756c0,12.567,10.191,22.759,22.758,22.759C664.999,717.307,675.19,707.115,675.19,694.548z"
					/>
				<circle opacity="0.6" fill="#A67339" cx="557.997" cy="708.989" r="12.061"/>
				<path opacity="0.3" fill="#734A1E" d="M447.752,696.01c0-2.506-2.033-4.538-4.544-4.538c-2.507,0-4.54,2.032-4.54,4.538
					c0,2.512,2.033,4.543,4.54,4.543C445.719,700.553,447.752,698.521,447.752,696.01z"/>
				<path opacity="0.6" fill="#A67339" d="M509.055,705.076c0-2.506-2.034-4.543-4.545-4.543c-2.508,0-4.538,2.037-4.538,4.543
					c0,2.512,2.03,4.544,4.538,4.544C507.021,709.62,509.055,707.588,509.055,705.076z"/>
				<circle opacity="0.6" fill="#A67339" cx="295.832" cy="753.464" r="4.542"/>
				<path opacity="0.6" fill="#A67339" d="M9.738,742.154c0-2.506-2.033-4.543-4.541-4.543c-2.51,0-4.543,2.037-4.543,4.543
					c0,2.507,2.033,4.544,4.543,4.544C7.705,746.698,9.738,744.661,9.738,742.154z"/>
				<path opacity="0.6" fill="#A67339" d="M53.902,758.004c0-2.507-2.033-4.54-4.542-4.54s-4.54,2.033-4.54,4.54
					c0,2.511,2.031,4.543,4.54,4.543S53.902,760.515,53.902,758.004z"/>
				<path fill="#68431C" d="M47.26,689.697"/>
				<circle opacity="0.6" fill="#A67339" cx="58.132" cy="591.559" r="15.626"/>
				<path opacity="0.3" fill="#734A1E" d="M793.143,757.703c0-18.804-15.244-35.047-34.045-35.047s-34.045,16.243-34.045,35.047
					s15.244,34.043,34.045,34.043S793.143,776.507,793.143,757.703z"/>
				<circle opacity="0.3" fill="#734A1E" cx="202.42" cy="589.425" r="11.313"/>
				<path opacity="0.3" fill="#734A1E" d="M150.406,550.699c0-11.896-9.643-21.532-21.532-21.532
					c-11.894,0-21.532,9.637-21.532,21.532c0,11.89,9.639,21.531,21.532,21.531C140.764,572.23,150.406,562.589,150.406,550.699z"/>
				<circle opacity="0.6" fill="#A67339" cx="144.017" cy="620.493" r="26.319"/>
				<path opacity="0.6" fill="#A67339" d="M944.362,743.801c0-19.53-15.834-35.358-35.358-35.358
					c-19.527,0-35.358,15.828-35.358,35.358s15.831,35.358,35.358,35.358C928.528,779.159,944.362,763.331,944.362,743.801z"/>
				<path opacity="0.6" fill="#A67339" d="M943.863,733.357c0-10.927-8.859-19.781-19.787-19.781
					c-10.924,0-19.782,8.854-19.782,19.781c0,10.928,8.858,19.787,19.782,19.787C935.004,753.145,943.863,744.285,943.863,733.357z"
					/>
				<circle opacity="0.6" fill="#A67339" cx="14.073" cy="585.981" r="12.062"/>
				<circle opacity="0.6" fill="#A67339" cx="194.279" cy="590.283" r="6.785"/>
				<path opacity="0.6" fill="#A67339" d="M745.982,749.354c0-9.284-7.529-16.813-16.817-16.813
					c-9.283,0-16.812,7.528-16.812,16.813c0,9.288,7.529,16.816,16.812,16.816C738.453,766.17,745.982,758.642,745.982,749.354z"/>
				<path fill="#68431C" d="M166.416,532.435"/>
				<path opacity="0.3" fill="#734A1E" d="M933.678,776.003c0-2.507-2.033-4.539-4.543-4.539c-2.508,0-4.545,2.032-4.545,4.539
					c0,2.511,2.037,4.543,4.545,4.543C931.645,780.546,933.678,778.514,933.678,776.003z"/>
				<path opacity="0.3" fill="#734A1E" d="M750.281,792.159c0-2.511-2.035-4.543-4.541-4.543c-2.509,0-4.543,2.032-4.543,4.543
					c0,2.506,2.034,4.538,4.543,4.538C748.246,796.697,750.281,794.665,750.281,792.159z"/>
				<path opacity="0.3" fill="#734A1E" d="M14.937,590.404c0-2.512-2.032-4.544-4.541-4.544c-2.507,0-4.541,2.032-4.541,4.544
					c0,2.506,2.033,4.543,4.541,4.543C12.905,594.947,14.937,592.91,14.937,590.404z"/>
				<circle opacity="0.6" fill="#A67339" cx="861.302" cy="771.464" r="4.542"/>
				<path opacity="0.3" fill="#734A1E" d="M1115.631,614.475c0-4.689-3.802-8.486-8.487-8.486c-4.684,0-8.48,3.797-8.48,8.486
					c0,4.685,3.797,8.481,8.48,8.481C1111.829,622.956,1115.631,619.159,1115.631,614.475z"/>
				<path opacity="0.3" fill="#734A1E" d="M1095.743,617.843c0-2.506-2.032-4.538-4.543-4.538c-2.507,0-4.539,2.032-4.539,4.538
					c0,2.512,2.032,4.543,4.539,4.543C1093.711,622.386,1095.743,620.354,1095.743,617.843z"/>
				<path opacity="0.3" fill="#734A1E" d="M864.283,627.064c0-13.36-10.83-24.901-24.189-24.901
					c-13.357,0-24.189,11.541-24.189,24.901s10.832,24.188,24.189,24.188C853.453,651.253,864.283,640.425,864.283,627.064z"/>
				<path opacity="0.6" fill="#A67339" d="M1025.358,613.308c0-19.53-15.834-35.358-35.358-35.358
					c-19.527,0-35.358,15.828-35.358,35.358s15.831,35.358,35.358,35.358C1009.524,648.666,1025.358,632.838,1025.358,613.308z"/>
				<path opacity="0.6" fill="#A67339" d="M1024.859,602.864c0-10.927-8.859-19.781-19.787-19.781
					c-10.925,0-19.782,8.854-19.782,19.781c0,10.928,8.857,19.787,19.782,19.787C1016,622.651,1024.859,613.792,1024.859,602.864z"
					/>
				<circle opacity="0.6" fill="#A67339" cx="942.298" cy="640.971" r="4.542"/>
				<path opacity="0.6" fill="#A67339" d="M95.189,581.337c0-2.506-2.033-4.543-4.541-4.543c-2.51,0-4.543,2.037-4.543,4.543
					c0,2.507,2.033,4.544,4.543,4.544C93.156,585.881,95.189,583.844,95.189,581.337z"/>
				<path opacity="0.6" fill="#A67339" d="M139.353,597.187c0-2.507-2.032-4.539-4.542-4.539c-2.508,0-4.54,2.032-4.54,4.539
					c0,2.511,2.032,4.543,4.54,4.543C137.32,601.729,139.353,599.697,139.353,597.187z"/>
				<path fill="#68431C" d="M132.711,528.88"/>
				<path opacity="0.6" fill="#A67339" d="M333.291,618.882c0-8.627-6.994-15.627-15.627-15.627c-8.627,0-15.626,7-15.626,15.627
					c0,8.634,6.999,15.628,15.626,15.628C326.297,634.51,333.291,627.516,333.291,618.882z"/>
				<path opacity="0.3" fill="#734A1E" d="M592.153,595.712c0-18.804-15.244-35.047-34.045-35.047s-34.045,16.243-34.045,35.047
					s15.244,34.043,34.045,34.043S592.153,614.516,592.153,595.712z"/>
				<path opacity="0.3" fill="#734A1E" d="M409.939,578.023c0-11.896-9.645-21.532-21.533-21.532
					c-11.894,0-21.532,9.637-21.532,21.532c0,11.89,9.639,21.531,21.532,21.531C400.295,599.555,409.939,589.913,409.939,578.023z"
					/>
				<path opacity="0.6" fill="#A67339" d="M723.875,592.309c0-19.53-15.834-35.358-35.358-35.358
					c-19.527,0-35.358,15.828-35.358,35.358s15.831,35.358,35.358,35.358C708.041,627.667,723.875,611.839,723.875,592.309z"/>
				<path opacity="0.6" fill="#A67339" d="M723.376,581.865c0-10.927-8.859-19.781-19.787-19.781
					c-10.925,0-19.782,8.854-19.782,19.781c0,10.928,8.857,19.787,19.782,19.787C714.517,601.652,723.376,592.793,723.376,581.865z"
					/>
				<circle opacity="0.6" fill="#A67339" cx="273.605" cy="613.306" r="12.063"/>
				<path opacity="0.6" fill="#A67339" d="M544.993,587.362c0-9.284-7.529-16.813-16.817-16.813
					c-9.283,0-16.812,7.528-16.812,16.813c0,9.288,7.528,16.816,16.812,16.816C537.464,604.179,544.993,596.65,544.993,587.362z"/>
				<path fill="#68431C" d="M425.948,559.759"/>
				<path fill="#68431C" d="M392.243,556.204"/>
				<circle opacity="0.6" fill="#A67339" cx="489" cy="487" r="26.32"/>
				<circle opacity="0.6" fill="#A67339" cx="1203" cy="551" r="26.32"/>
				<path opacity="0.6" fill="#A67339" d="M484.336,463.693c0-2.507-2.032-4.539-4.541-4.539s-4.54,2.032-4.54,4.539
					c0,2.511,2.031,4.543,4.54,4.543S484.336,466.204,484.336,463.693z"/>
				<path opacity="0.6" fill="#A67339" d="M1202.995,834.564c0-12.565,10.192-22.757,22.757-22.757
					c12.566,0,22.758,10.191,22.758,22.757c0,12.566-10.191,22.757-22.758,22.757
					C1213.187,857.321,1202.995,847.131,1202.995,834.564z"/>
				<circle opacity="0.6" fill="#A67339" cx="1317.189" cy="814.507" r="12.062"/>
				<path opacity="0.6" fill="#A67339" d="M1366.131,810.594c0-2.506,2.033-4.543,4.544-4.543c2.507,0,4.538,2.037,4.538,4.543
					c0,2.512-2.031,4.544-4.538,4.544C1368.165,815.138,1366.131,813.105,1366.131,810.594z"/>
				<circle opacity="0.6" fill="#A67339" cx="1285.116" cy="688.065" r="15.626"/>
				<path opacity="0.3" fill="#734A1E" d="M1377.39,647.206c0-11.896-9.643-21.532-21.532-21.532
					c-11.894,0-21.532,9.637-21.532,21.532c0,11.89,9.639,21.531,21.532,21.531C1367.748,668.737,1377.39,659.096,1377.39,647.206z"
					/>
				<circle opacity="0.6" fill="#A67339" cx="1371" cy="717" r="26.319"/>
				<circle opacity="0.6" fill="#A67339" cx="1241.057" cy="682.487" r="12.062"/>
				<path opacity="0.3" fill="#734A1E" d="M1241.921,686.911c0-2.512-2.032-4.544-4.541-4.544c-2.508,0-4.541,2.032-4.541,4.544
					c0,2.506,2.033,4.543,4.541,4.543C1239.889,691.454,1241.921,689.417,1241.921,686.911z"/>
				<path opacity="0.6" fill="#A67339" d="M1322.173,677.844c0-2.506-2.033-4.543-4.541-4.543c-2.51,0-4.543,2.037-4.543,4.543
					c0,2.507,2.033,4.544,4.543,4.544C1320.14,682.388,1322.173,680.351,1322.173,677.844z"/>
				<path opacity="0.6" fill="#A67339" d="M1366.337,693.693c0-2.507-2.033-4.54-4.542-4.54s-4.54,2.033-4.54,4.54
					c0,2.511,2.031,4.543,4.54,4.543S1366.337,696.204,1366.337,693.693z"/>
				<path fill="#68431C" d="M1359.695,625.387"/>
				<circle opacity="0.6" fill="#A67339" cx="1370.567" cy="527.248" r="15.626"/>
				<circle opacity="0.6" fill="#A67339" cx="1326.508" cy="521.671" r="12.062"/>
				<path opacity="0.3" fill="#734A1E" d="M1327.373,526.094c0-2.512-2.032-4.544-4.541-4.544c-2.508,0-4.541,2.032-4.541,4.544
					c0,2.506,2.033,4.543,4.541,4.543C1325.34,530.637,1327.373,528.6,1327.373,526.094z"/>
			</g>
		</g>
	</g>
	<path fill="#734A1E" stroke="#472728" stroke-width="2" stroke-miterlimit="10" d="M1363.999,180H427V58c0-5.522-3.478-9-9.001-9
		h-212C200.476,49,195,52.478,195,58v343c0,5.523,5.476,11,10.999,11h5h207h946c5.523,0,9.001-5.477,9.001-11V189
		C1373,183.478,1369.522,180,1363.999,180z"/>
	<g>
		<polygon fill="#D29158" stroke="#472728" stroke-width="2" stroke-miterlimit="10" points="259.516,411 238.964,411 272.534,-1 
			284.18,-1 		"/>
		<polygon fill="#D29158" stroke="#472728" stroke-width="2" stroke-miterlimit="10" points="357.482,411 378.034,411 344.465,-1 
			332.819,-1 		"/>
		<g>
			<polygon fill="#BE8047" stroke="#472728" stroke-width="2" stroke-miterlimit="10" points="371.868,295 245.131,295 247.871,282 
				369.128,282 			"/>
			<polygon fill="#B37940" stroke="#472728" stroke-width="2" stroke-miterlimit="10" points="370.497,297 246.501,297 245.131,295 
				371.868,295 			"/>
		</g>
		<g>
			<polygon fill="#BE8047" stroke="#472728" stroke-width="2" stroke-miterlimit="10" points="374.608,349 241.705,349 244.445,333 
				371.868,333 			"/>
			<polygon fill="#B37940" stroke="#472728" stroke-width="2" stroke-miterlimit="10" points="373.238,350 243.075,350 241.705,349 
				374.608,349 			"/>
		</g>
		<g>
			<polygon fill="#BE8047" stroke="#472728" stroke-width="2" stroke-miterlimit="10" points="362.962,245 249.24,245 251.98,230 
				360.222,230 			"/>
			<polygon fill="#B37940" stroke="#472728" stroke-width="2" stroke-miterlimit="10" points="361.592,247 250.61,247 249.24,245 
				362.962,245 			"/>
		</g>
		<g>
			<polygon fill="#BE8047" stroke="#472728" stroke-width="2" stroke-miterlimit="10" points="362.962,194 254.036,194 256.776,178 
				360.222,178 			"/>
			<polygon fill="#B37940" stroke="#472728" stroke-width="2" stroke-miterlimit="10" points="361.592,195 255.406,195 254.036,194 
				362.962,194 			"/>
		</g>
		<g>
			<polygon fill="#BE8047" stroke="#472728" stroke-width="2" stroke-miterlimit="10" points="358.852,142 258.147,142 260.886,127 
				356.112,127 			"/>
			<polygon fill="#B37940" stroke="#472728" stroke-width="2" stroke-miterlimit="10" points="357.482,144 259.516,144 258.147,142 
				358.852,142 			"/>
		</g>
		<g>
			<polygon fill="#BE8047" stroke="#472728" stroke-width="2" stroke-miterlimit="10" points="354.742,91 262.257,91 264.997,75 
				352.001,75 			"/>
			<polygon fill="#B37940" stroke="#472728" stroke-width="2" stroke-miterlimit="10" points="353.372,92 263.626,92 262.257,91 
				354.742,91 			"/>
		</g>
		<g>
			<polygon fill="#BE8047" stroke="#472728" stroke-width="2" stroke-miterlimit="10" points="350.631,39 266.367,39 269.108,24 
				347.891,24 			"/>
			<polygon fill="#B37940" stroke="#472728" stroke-width="2" stroke-miterlimit="10" points="349.261,40 267.737,40 266.367,39 
				350.631,39 			"/>
		</g>
	</g>
	<g>
		<path fill="#734A1E" stroke="#472728" stroke-width="3" stroke-miterlimit="10" d="M1140.135,297.125l-21.302,13.744
			l-15.803,28.858l0.687,34.355l-6.185,17.864l17.18,17.866l29.545,0.87l31.607,0.38c0,0,74.897,0.376,79.021,0.376
			c4.122,0,74.208-0.253,74.208-0.253l2.75-19.927l-14.43-9.617l-4.812-16.493l-32.98-21.3l-19.927,4.123
			c0,0-6.184,14.43-8.245,16.491c-2.061,2.061-17.865,2.747-17.865,2.747l-18.552-13.055l4.124-16.49l-3.438-13.743l-21.987-21.987
			l-24.049-6.873L1140.135,297.125z"/>
		<g>
			<path fill="none" d="M1317.412,381.643l-4.812-16.493l-32.98-21.3l-19.927,4.123c0,0-6.184,14.43-8.245,16.491
				c-2.061,2.061-17.865,2.747-17.865,2.747l-18.552-13.055l4.124-16.49l-3.438-13.743l-21.987-21.987l-24.049-6.873l-29.546,2.063
				c0,0-10.307,24.736-12.369,27.485c-2.062,2.747-15.804,12.367-15.804,12.367l2.75,24.05l3.435,10.307l21.301,15.116l31.606,5.497
				l-31.606-2.061l-21.988-11.681l-3.436,13.054l0.688,18.554l29.545-1.13l31.607-1.62c0,0,74.897,1.376,79.021,1.376
				c4.122,0,74.208,2.747,74.208,2.747l2.75-19.927L1317.412,381.643z"/>
			<path fill="#916633" d="M1117.459,378.206l21.988,11.681l31.606,2.061l-31.606-5.497l-21.301-15.116l-3.435-10.307l-2.75-24.05
				c0,0,13.742-9.62,15.804-12.367c2.062-2.749,12.369-27.485,12.369-27.485l-21.302,13.744l-15.803,28.858l0.687,34.355
				l-6.185,17.864l17.18,17.866l-0.688-18.554L1117.459,378.206z"/>
		</g>
		<g>
			<path fill="none" d="M1317.412,381.643l-4.812-16.493l-32.98-21.3l-19.927,4.123c0,0-6.184,14.43-8.245,16.491
				c-2.061,2.061-17.865,2.747-17.865,2.747l-9.62,11.682c0,0-12.368,9.62-15.804,9.62c-3.437,0,19.927,10.308,23.362,10.308
				c3.134,0,37.137-1.717,40.988-2.017c0.051-0.027,0.121-0.047,0.238-0.047c0.243,0,0.133,0.017-0.238,0.047
				c-1.101,0.595,14.216,7.542,19.478,8.199c5.498,0.687,37.105,6.184,37.105,6.184l2.75-19.927L1317.412,381.643z"/>
			<path fill="none" d="M1211.595,349.348l4.122-25.425l-21.987-21.987l-24.049-6.873l-29.546,2.063l-21.302,13.744l-15.803,28.858
				l0.687,34.355l-6.185,17.864l17.18,17.866l29.545-0.13l31.607-2.62c0,0,23.362-35.041,23.362-37.79
				S1211.595,349.348,1211.595,349.348z"/>
			<path fill="#916633" d="M1272.51,396.804c-3.852,0.3-37.854,2.017-40.988,2.017c-3.436,0-26.799-10.308-23.362-10.308
				c3.436,0,15.804-9.62,15.804-9.62l9.62-11.682l-18.552-13.055l4.124-16.49l-3.438-13.743l-4.122,25.425
				c0,0,1.375,15.802,1.375,18.552c0,1.491-4.431,16.671-14.43,26.797c-8.417,8.522-22.675,12.367-22.675,12.367
				s74.897,1.376,79.021,1.376c4.122,0,74.208,2.747,74.208,2.747s-31.607-5.497-37.105-6.184
				C1286.726,404.346,1276.013,398.99,1272.51,396.804z"/>
			<path fill="#916633" d="M1272.748,396.757c-0.118,0-0.187,0.02-0.238,0.047C1272.881,396.773,1272.991,396.757,1272.748,396.757z
				"/>
		</g>
		<path fill="#916633" d="M1279.62,343.85c0,0-16.664,13.656-17.865,14.6c-2.663,2.095-6.613,12.113-8.245,15.634
			c-1.475,3.18-7.56,17.864-7.56,17.864l5.498-27.483l8.245-16.491L1279.62,343.85z"/>
		<path fill="#916633" d="M1312.601,365.149c0,0-10.05,14.344-10.735,17.78c-0.688,3.434-9.878,9.707-11.939,11.08
			c-2.061,1.373,12.369-6.87,12.369-6.87l15.117-5.497L1312.601,365.149z"/>
		<polygon fill="#916633" points="1114.711,361.027 1118.146,371.334 1139.447,386.45 1171.054,391.947 1140.82,381.643 		"/>
		<polygon fill="#916633" points="1223.963,378.893 1251.276,364.721 1233.583,367.211 		"/>
		<polygon fill="#916633" points="1302.295,386 1316.725,386 1331.842,390.691 1317.412,380.789 		"/>
		<path fill="#916633" d="M1169.681,295.063l-2.75,28.174c0,0,15.434,15.379,19.24,18.551c0.517,0.431,8.246,26.799,8.246,26.799
			l-12.369-23.361l-35.73-19.929l-3.092-14.944l-3.091-13.227L1169.681,295.063z"/>
		<polygon fill="#916633" points="1169.681,295.063 1193.729,301.936 1215.716,323.923 1211.595,349.348 1199.226,369.273 
			1207.473,347.286 1212.281,325.296 1193.729,304.683 		"/>
		<polygon fill="#916633" points="1140.135,297.125 1146.317,325.296 1182.048,345.225 1194.417,368.586 1177.924,346.598 
			1140.82,327.357 1136.44,305.714 		"/>
		<polygon fill="#916633" points="1261.755,358.449 1279.62,343.85 1312.601,365.149 1293.362,368.586 1270.687,378.893 
			1285.804,367.211 		"/>
		<path fill="#916633" d="M1114.023,391.26l24.737,12.37c0,0,23.362,0.687,25.423,1.373c2.059,0.687,24.735-7.56,24.735-7.56
			l24.05-29.544c0,0-5.497,32.122-37.105,39.164l-31.607,2.62l-29.545,0.13L1114.023,391.26z"/>
	</g>
	<path fill="#734A1E" stroke="#472728" stroke-width="2" stroke-miterlimit="10" d="M1329.999,768c-12.15,0-21.999,9.85-21.999,22
		v111h135V768H1329.999z"/>
	<g>
		<path fill="#734A1E" stroke="#472728" stroke-width="2" stroke-miterlimit="10" d="M411.25,42.654c-0.13,0-0.256,0.006-0.387,0.01
			c-6.828-7.028-16.374-11.399-26.946-11.399c-2.034,0-4.031,0.166-5.979,0.479c-6.808-6.859-16.242-11.109-26.669-11.109
			c-6.771,0-13.116,1.8-18.603,4.932c-5.485-3.132-11.831-4.932-18.602-4.932c-5.85,0-11.388,1.337-16.323,3.723
			c-4.937-2.386-10.475-3.723-16.325-3.723c-11.429,0-21.66,5.109-28.553,13.16c-2.778-0.655-5.672-1.012-8.65-1.012
			c-10.3,0-19.629,4.146-26.417,10.856c-2.477-0.644-5.073-0.985-7.75-0.985c-10.081,0-19.028,4.852-24.636,12.346h250.474
			C430.278,47.506,421.331,42.654,411.25,42.654z"/>
		<g>
			<path fill="#916633" stroke="#472728" stroke-width="2" stroke-miterlimit="10" d="M411.25,52.042
				c-0.13,0-0.256,0.008-0.387,0.01c-6.828-7.028-16.374-11.397-26.946-11.397c-2.034,0-4.031,0.167-5.979,0.478
				c-6.808-6.859-16.242-11.107-26.669-11.107c-6.771,0-13.116,1.799-18.603,4.931c-5.485-3.132-11.831-4.931-18.602-4.931
				c-5.85,0-11.388,1.337-16.323,3.721c-4.937-2.384-10.475-3.721-16.325-3.721c-11.429,0-21.66,5.108-28.553,13.159
				c-2.778-0.654-5.672-1.012-8.65-1.012c-10.3,0-19.629,4.146-26.417,10.857c-2.477-0.646-5.073-0.987-7.75-0.987
				c-4.712,0-9.175,1.063-13.167,2.958h227.536C420.425,53.105,415.962,52.042,411.25,52.042z"/>
		</g>
		<rect x="163" y="48" fill="#7EAC63" width="284" height="6"/>
		<line fill="none" stroke="#472728" stroke-width="2" stroke-miterlimit="10" x1="187" y1="49" x2="436" y2="49"/>
	</g>
	<g>
		<g>
			<defs>
				<rect id="SVGID_1406_" x="78" y="737" width="1294" height="1163"/>
			</defs>
			<clipPath id="SVGID_7_">
				<use xlink:href="#SVGID_1406_"  overflow="visible"/>
			</clipPath>
		</g>
	</g>
	<g>
		<path fill="#734A1E" stroke="#472728" stroke-width="2" stroke-miterlimit="10" d="M201.771,591
			c0,22.092-8.326,43.495-21.787,57.973C166.523,663.449,147.926,671,127.385,671c-24.223,0-45.741-1.926-59.323-21.202
			C58.608,636.381,52.999,609.132,52.999,591c0-17.939,5.491-40.114,14.764-53.458C81.327,518.021,102.984,511,127.385,511
			c14.824,0,50.39,3.26,61.989,11.298C209.92,536.535,201.771,562.76,201.771,591z"/>
		<path fill="#FFFFFF" d="M105.406,646.344c-0.274,0.341-0.362,0.796-0.235,1.215c0.126,0.42,0.451,0.75,0.869,0.883l8.125,2.58
			c0.052,0.017,0.104,0.029,0.159,0.04l6.833,1.272c0.083,0.016,0.165,0.023,0.245,0.023c0.627,0,1.186-0.447,1.304-1.086
			c0.113-0.605-0.207-1.187-0.737-1.438c0.308-0.251,0.504-0.633,0.494-1.06c-0.017-0.733-0.621-1.318-1.359-1.296l-8.676,0.204
			l-3.734-1.187l7.866-9.793c0.204-0.253,0.308-0.572,0.292-0.896l-0.675-13.65c1.021-0.061,2.037-0.273,3.006-0.678
			c1.439-0.601,2.374-2.178,2.773-4.042c2.244,0.721,4.8,0.834,7.097-0.112l0.608,12.313l-8.765,10.91
			c-0.274,0.341-0.363,0.796-0.236,1.216c0.126,0.419,0.452,0.749,0.87,0.882l8.124,2.58c0.052,0.017,0.105,0.03,0.159,0.04
			l6.833,1.273c0.083,0.015,0.165,0.022,0.245,0.022c0.627,0,1.186-0.447,1.304-1.085c0.113-0.605-0.207-1.188-0.738-1.439
			c0.308-0.25,0.504-0.631,0.495-1.059c-0.018-0.732-0.625-1.315-1.359-1.296l-8.677,0.204l-3.734-1.186l7.867-9.793
			c0.203-0.254,0.307-0.573,0.291-0.898l-0.777-15.709c1.308-3.781,0.068-9.566-4.108-10.123c-2.662-0.357-7.365,1.531-9.867,4.077
			c-0.018-0.003-0.033-0.009-0.051-0.011c-3.871-0.518-12.025,3.673-11.616,7.764c0.258,2.574,3.663,5.25,7.587,5.978l0.665,13.448
			L105.406,646.344z M138.478,598.625l6.104,1.836c0.019,0.055,0.039,0.11,0.064,0.162l-0.606,0.586
			c-0.036,0.035-0.064,0.078-0.081,0.125l-0.751,2.066c-0.063,0.172,0.026,0.363,0.199,0.426s0.362-0.025,0.425-0.199l0.726-1.994
			l0.545-0.527c0.183,0.105,0.395,0.165,0.622,0.158c0.047-0.002,0.091-0.013,0.136-0.02l0.482,0.996l-1.127,1.777
			c-0.098,0.154-0.052,0.359,0.103,0.458c0.054,0.035,0.116,0.052,0.177,0.052c0.11,0,0.217-0.055,0.281-0.154l1.226-1.934
			c0.062-0.098,0.069-0.22,0.019-0.322l-0.561-1.157c0.247-0.223,0.4-0.544,0.388-0.902c-0.023-0.643-0.563-1.146-1.206-1.123
			c-0.258,0.009-0.492,0.104-0.68,0.253l-6.103-1.836c-0.35-0.105-0.722,0.095-0.827,0.445
			C137.927,598.147,138.126,598.519,138.478,598.625z M147.54,593.194l-0.163,2.099c-0.014,0.183,0.123,0.342,0.306,0.356
			c0.188,0.017,0.342-0.122,0.356-0.306l0.177-2.282c0.009-0.115-0.042-0.227-0.135-0.294l-1.037-0.759
			c0.113-0.313,0.098-0.669-0.081-0.979c-0.321-0.557-1.034-0.749-1.591-0.427c-0.224,0.129-0.385,0.323-0.482,0.543l-6.251,1.239
			c-0.359,0.07-0.593,0.42-0.522,0.78c0.063,0.315,0.34,0.535,0.651,0.535c0.043,0,0.086-0.004,0.13-0.014l6.253-1.238
			c0.042,0.04,0.085,0.079,0.132,0.112l-0.26,0.803c-0.015,0.048-0.02,0.098-0.013,0.147l0.305,2.179
			c0.023,0.165,0.166,0.285,0.328,0.285c0.016,0,0.031,0,0.047-0.003c0.182-0.025,0.308-0.194,0.283-0.376l-0.294-2.102l0.234-0.721
			c0.211,0.007,0.427-0.039,0.624-0.152c0.041-0.023,0.074-0.053,0.111-0.08L147.54,593.194z M75.198,598.982
			c-0.216,0.445-0.34,0.941-0.34,1.469c0,1.863,1.51,3.372,3.372,3.372c0.41,0,0.801-0.077,1.164-0.211
			c-0.028,0.187-0.047,0.376-0.047,0.569c0,2.061,1.67,3.73,3.73,3.73c0.929,0,1.778-0.342,2.431-0.904
			c0.264,1.801,1.812,3.186,3.687,3.186c1.087,0,2.063-0.469,2.745-1.211c0.392,1.893,2.067,3.314,4.075,3.314
			c1.804,0,3.334-1.148,3.913-2.752c0.735,1.178,2.039,1.965,3.53,1.965c2.298,0,4.162-1.863,4.162-4.162
			c0-0.063-0.007-0.123-0.009-0.186c0.803,0.871,1.952,1.42,3.231,1.42c2.43,0,4.4-1.969,4.4-4.399c0-0.646-0.142-1.257-0.391-1.808
			c0.693,0.456,1.522,0.724,2.415,0.724c2.43,0,4.4-1.97,4.4-4.4c0-1.11-0.415-2.121-1.093-2.896
			c0.267,0.054,0.542,0.083,0.825,0.083c2.298,0,4.162-1.863,4.162-4.162c0-1.15-0.467-2.191-1.221-2.945
			c1.854-0.217,3.292-1.791,3.292-3.703c0-1.146-0.519-2.17-1.332-2.854c1.5-0.341,2.622-1.681,2.622-3.285
			c0-0.391-0.07-0.765-0.192-1.113c1.924,0.355,3.964,0.421,5.87,0.111c8.955,3.017,22.635,1.669,26.742,0.2
			c1.107-0.395,0.406-1.814-0.963-1.709c-3.607,0.279-7.472-0.892-9.307-1.428c-2.969-0.865-5.388-1.968-7.503-2.645
			c1.751-1.412,3.47-2.15,7.503-2.15c0,2.494,1.909,4.516,2.329,4.516s2.329-2.021,2.329-4.516c0,2.494,1.909,4.516,2.329,4.516
			s2.328-2.021,2.328-4.516c0,2.494,1.91,4.516,2.329,4.516c0.419,0,2.329-2.021,2.329-4.516h1.189c5.5,0,7.314-12.197,1.232-19.731
			c-4.756-5.892-35.896-7.316-42.53,0c-6.635,7.317-6.31,18.426-4.102,22.843c0.527,1.055,1.572,2,2.925,2.77
			c-0.948,0.597-1.581,1.648-1.581,2.853c0,0.977,0.417,1.853,1.081,2.47c-1.753,0.305-3.087,1.83-3.087,3.67
			c0,0.963,0.368,1.838,0.966,2.499c-2.176,0.137-3.9,1.939-3.9,4.149c0,1.021,0.37,1.957,0.981,2.682
			c-0.307-0.068-0.625-0.106-0.951-0.106c-2.431,0-4.4,1.97-4.4,4.4c0,0.646,0.142,1.256,0.391,1.808
			c-0.693-0.457-1.523-0.725-2.415-0.725c-2.43,0-4.4,1.971-4.4,4.401c0,0.095,0.008,0.188,0.015,0.282
			c-0.757-0.787-1.82-1.279-2.998-1.279c-1.803,0-3.334,1.149-3.912,2.753c-0.736-1.179-2.04-1.966-3.531-1.966
			c-1.298,0-2.457,0.596-3.22,1.527c-0.425-1.593-1.874-2.768-3.6-2.768c-0.93,0-1.778,0.342-2.431,0.904
			c-0.265-1.801-1.812-3.186-3.687-3.186c-0.53,0-1.034,0.113-1.491,0.313c0.01-0.104,0.016-0.207,0.016-0.313
			c0-1.862-1.51-3.372-3.372-3.372c-0.134,0-0.265,0.011-0.395,0.024c0.083-0.259,0.128-0.534,0.128-0.821
			c0-1.492-1.21-2.702-2.703-2.702c-1.494,0-2.704,1.21-2.704,2.702C72.558,597.754,73.734,598.949,75.198,598.982z M160.57,550.056
			c2.116-0.706,9.876,6.937,4.233,8.229S158.56,550.726,160.57,550.056z M152.994,551.338c4.233-0.076,8.113,10.188,1.058,10.188
			C146.998,561.526,148.761,551.415,152.994,551.338z M140.758,547.494c4.756,0,7.13,7.828,5.579,10.34
			c-1.55,2.512-7.784,4.457-10.562,1.896S136.003,547.494,140.758,547.494z M125.528,595.213c-0.137,0.721,0.336,1.416,1.056,1.553
			l9.43,1.796c0.083,0.016,0.167,0.024,0.25,0.024c0.625,0,1.182-0.443,1.303-1.081c0.138-0.72-0.335-1.416-1.056-1.552l-9.43-1.797
			C126.361,594.02,125.666,594.492,125.528,595.213z M126.82,590.096c-0.139,0.72,0.334,1.416,1.054,1.555l8.546,1.643
			c0.085,0.016,0.169,0.023,0.252,0.023c0.624,0,1.18-0.442,1.303-1.077c0.138-0.722-0.333-1.417-1.054-1.556l-8.546-1.643
			C127.656,588.904,126.959,589.375,126.82,590.096z M133.646,600.736l-8.546-1.643c-0.718-0.137-1.416,0.334-1.555,1.054
			s0.333,1.417,1.054,1.555l8.546,1.644c0.084,0.016,0.169,0.022,0.252,0.022c0.624,0,1.18-0.44,1.303-1.077
			C134.839,601.57,134.367,600.875,133.646,600.736z"/>
	</g>
</g>
<g id="Capa_2" display="none">
</g>
</svg>
