<?xml version="1.0" encoding="utf-8"?>
<!-- Generator: Adobe Illustrator 16.0.0, SVG Export Plug-In . SVG Version: 6.00 Build 0)  -->
<!DOCTYPE svg PUBLIC "-//W3C//DTD SVG 1.1//EN" "http://www.w3.org/Graphics/SVG/1.1/DTD/svg11.dtd">
<svg version="1.1" xmlns="http://www.w3.org/2000/svg" xmlns:xlink="http://www.w3.org/1999/xlink" x="0px" y="0px" width="1440px"
	 height="900px" viewBox="0 0 1440 900" enable-background="new 0 0 1440 900" xml:space="preserve">
<g id="Capa_3">
</g>
<g id="Capa_2">
</g>
<g id="Capa_1">
	<g>
		<g>
			<defs>
				<rect id="SVGID_2356_" x="-74" y="-497" width="1570" height="1412"/>
			</defs>
			<clipPath id="SVGID_2_">
				<use xlink:href="#SVGID_2356_"  overflow="visible"/>
			</clipPath>
			<g clip-path="url(#SVGID_2_)">
				<rect x="-87" y="-8" fill="#916633" stroke="#472728" stroke-width="2" stroke-miterlimit="10" width="1591" height="959"/>
				<path opacity="0.6" fill="#A67339" d="M91.546,30.965c0,9.407-7.625,17.039-17.039,17.039c-9.408,0-17.039-7.632-17.039-17.039
					c0-9.415,7.63-17.041,17.039-17.041C83.921,13.924,91.546,21.55,91.546,30.965z"/>
				<path opacity="0.3" fill="#734A1E" d="M373.822,56.23c0,20.506-16.623,38.217-37.124,38.217
					c-20.501,0-37.124-17.711-37.124-38.217c0-20.504,16.622-37.121,37.124-37.121C357.199,19.109,373.822,35.727,373.822,56.23z"/>
				<circle opacity="0.3" fill="#734A1E" cx="231.845" cy="33.291" r="12.335"/>
				<path opacity="0.3" fill="#734A1E" d="M1235.782,76.66c0,5.114-4.146,9.254-9.255,9.254c-5.107,0-9.248-4.14-9.248-9.254
					c0-5.109,4.141-9.248,9.248-9.248C1231.636,67.412,1235.782,71.551,1235.782,76.66z"/>
				<path opacity="0.3" fill="#734A1E" d="M175.127,75.52c0,12.971-10.515,23.479-23.479,23.479
					c-12.969,0-23.479-10.508-23.479-23.479c0-12.965,10.511-23.479,23.479-23.479C164.612,52.041,175.127,62.555,175.127,75.52z"/>
				<path opacity="0.6" fill="#A67339" d="M517.457,59.942c0,21.296-17.266,38.557-38.556,38.557
					c-21.293,0-38.558-17.261-38.558-38.557c0-21.298,17.264-38.557,38.558-38.557C500.191,21.386,517.457,38.645,517.457,59.942z"
					/>
				<path opacity="0.6" fill="#A67339" d="M1458.834,36.963c0,13.701-11.115,24.815-24.814,24.815
					c-13.704,0-24.817-11.114-24.817-24.815c0-13.703,11.114-24.815,24.817-24.815C1447.719,12.147,1458.834,23.26,1458.834,36.963z
					"/>
				<path opacity="0.6" fill="#A67339" d="M516.914,71.33c0,11.914-9.661,21.57-21.577,21.57c-11.913,0-21.571-9.656-21.571-21.57
					c0-11.916,9.659-21.577,21.571-21.577C507.253,49.753,516.914,59.414,516.914,71.33z"/>
				<circle opacity="0.6" fill="#A67339" cx="1334.311" cy="58.835" r="13.152"/>
				<circle opacity="0.6" fill="#A67339" cx="26.463" cy="37.047" r="13.154"/>
				<path opacity="0.6" fill="#A67339" d="M230.365,32.354c0,4.087-3.312,7.396-7.396,7.396c-4.088,0-7.399-3.309-7.399-7.396
					c0-4.084,3.311-7.4,7.399-7.4C227.053,24.954,230.365,28.271,230.365,32.354z"/>
				<path opacity="0.6" fill="#A67339" d="M322.397,65.336c0,10.124-8.21,18.333-18.339,18.333
					c-10.121,0-18.332-8.209-18.332-18.333c0-10.129,8.211-18.338,18.332-18.338C314.187,46.998,322.397,55.207,322.397,65.336z"/>
				<path fill="#68431C" d="M192.585,95.437"/>
				<path opacity="0.3" fill="#734A1E" d="M505.807,24.827c0,2.733-2.217,4.95-4.955,4.95c-2.733,0-4.954-2.217-4.954-4.95
					c0-2.738,2.221-4.953,4.954-4.953C503.59,19.874,505.807,22.089,505.807,24.827z"/>
				<path opacity="0.3" fill="#734A1E" d="M327.084,18.658c0,2.737-2.219,4.954-4.952,4.954c-2.736,0-4.954-2.217-4.954-4.954
					c0-2.732,2.218-4.947,4.954-4.947C324.865,13.711,327.084,15.926,327.084,18.658z"/>
				<path opacity="0.3" fill="#734A1E" d="M1214.095,72.987c0,2.733-2.216,4.949-4.954,4.949c-2.734,0-4.95-2.216-4.95-4.949
					c0-2.737,2.216-4.954,4.95-4.954C1211.879,68.033,1214.095,70.25,1214.095,72.987z"/>
				<circle opacity="0.3" fill="#734A1E" cx="22.455" cy="32.224" r="4.952"/>
				<path opacity="0.6" fill="#A67339" d="M1280.942,63.102c0,2.732-2.217,4.955-4.955,4.955c-2.733,0-4.949-2.223-4.949-4.955
					c0-2.739,2.216-4.955,4.949-4.955C1278.725,58.146,1280.942,60.362,1280.942,63.102z"/>
				<circle opacity="0.6" fill="#A67339" cx="426.885" cy="29.777" r="4.953"/>
				<path opacity="0.6" fill="#A67339" d="M114.916,42.111c0,2.731-2.218,4.953-4.951,4.953c-2.739,0-4.954-2.222-4.954-4.953
					c0-2.734,2.215-4.957,4.954-4.957C112.698,37.154,114.916,39.377,114.916,42.111z"/>
				<path opacity="0.6" fill="#A67339" d="M163.074,24.827c0,2.733-2.216,4.95-4.953,4.95c-2.735,0-4.949-2.217-4.949-4.95
					c0-2.738,2.214-4.953,4.949-4.953C160.858,19.874,163.074,22.089,163.074,24.827z"/>
				<path fill="#68431C" d="M155.832,99.313"/>
				<path opacity="0.6" fill="#A67339" d="M681.993,73.49c0,9.407-7.626,17.04-17.04,17.04c-9.409,0-17.039-7.633-17.039-17.04
					c0-9.414,7.63-17.041,17.039-17.041C674.367,56.449,681.993,64.076,681.993,73.49z"/>
				<path opacity="0.3" fill="#734A1E" d="M964.27,98.756c0,20.504-16.624,38.217-37.125,38.217
					c-20.502,0-37.125-17.713-37.125-38.217s16.623-37.121,37.125-37.121C947.646,61.635,964.27,78.252,964.27,98.756z"/>
				<path opacity="0.3" fill="#734A1E" d="M834.628,75.814c0,6.813-5.523,12.34-12.336,12.34c-6.813,0-12.336-5.526-12.336-12.34
					c0-6.813,5.522-12.332,12.336-12.332C829.105,63.482,834.628,69.002,834.628,75.814z"/>
				<path opacity="0.3" fill="#734A1E" d="M765.574,118.044c0,12.973-10.515,23.481-23.481,23.481
					c-12.969,0-23.479-10.509-23.479-23.481c0-12.965,10.51-23.479,23.479-23.479C755.059,94.565,765.574,105.079,765.574,118.044z"
					/>
				<circle opacity="0.6" fill="#A67339" cx="758.606" cy="41.938" r="28.699"/>
				<path opacity="0.6" fill="#A67339" d="M1107.904,102.467c0,21.297-17.267,38.557-38.556,38.557
					c-21.294,0-38.557-17.26-38.557-38.557s17.263-38.556,38.557-38.556C1090.638,63.911,1107.904,81.17,1107.904,102.467z"/>
				<path opacity="0.6" fill="#A67339" d="M1107.36,113.855c0,11.915-9.661,21.57-21.577,21.57c-11.913,0-21.572-9.655-21.572-21.57
					c0-11.917,9.659-21.577,21.572-21.577C1097.699,92.278,1107.36,101.938,1107.36,113.855z"/>
				<circle opacity="0.6" fill="#A67339" cx="616.909" cy="79.571" r="13.153"/>
				<circle opacity="0.6" fill="#A67339" cx="813.414" cy="74.88" r="7.398"/>
				<path opacity="0.6" fill="#A67339" d="M912.843,107.861c0,10.123-8.21,18.333-18.338,18.333
					c-10.123,0-18.332-8.21-18.332-18.333c0-10.129,8.209-18.337,18.332-18.337C904.633,89.524,912.843,97.732,912.843,107.861z"/>
				<path fill="#68431C" d="M783.032,137.962"/>
				<path opacity="0.3" fill="#734A1E" d="M1096.254,67.354c0,2.731-2.218,4.949-4.955,4.949c-2.734,0-4.955-2.218-4.955-4.949
					c0-2.738,2.221-4.953,4.955-4.953C1094.036,62.4,1096.254,64.615,1096.254,67.354z"/>
				<path opacity="0.3" fill="#734A1E" d="M917.531,61.184c0,2.738-2.219,4.954-4.952,4.954c-2.735,0-4.953-2.216-4.953-4.954
					c0-2.732,2.218-4.949,4.953-4.949C915.312,56.234,917.531,58.451,917.531,61.184z"/>
				<path opacity="0.3" fill="#734A1E" d="M617.853,74.748c0,2.738-2.217,4.955-4.952,4.955c-2.734,0-4.951-2.217-4.951-4.955
					c0-2.732,2.217-4.953,4.951-4.953C615.636,69.795,617.853,72.016,617.853,74.748z"/>
				<circle opacity="0.6" fill="#A67339" cx="1017.332" cy="72.303" r="4.954"/>
				<path opacity="0.6" fill="#A67339" d="M705.362,84.636c0,2.732-2.218,4.953-4.951,4.953c-2.737,0-4.954-2.221-4.954-4.953
					c0-2.735,2.217-4.954,4.954-4.954C703.145,79.682,705.362,81.9,705.362,84.636z"/>
				<path opacity="0.6" fill="#A67339" d="M753.519,67.354c0,2.731-2.215,4.949-4.951,4.949s-4.95-2.218-4.95-4.949
					c0-2.738,2.214-4.953,4.95-4.953S753.519,64.615,753.519,67.354z"/>
				<path fill="#68431C" d="M746.278,141.837"/>
				<path opacity="0.6" fill="#A67339" d="M1352.245,196.713c0,9.407,7.626,17.04,17.04,17.04c9.408,0,17.04-7.633,17.04-17.04
					c0-9.415-7.632-17.041-17.04-17.041C1359.871,179.672,1352.245,187.298,1352.245,196.713z"/>
				<path opacity="0.3" fill="#734A1E" d="M1069.97,221.979c0,20.505,16.623,38.217,37.124,38.217
					c20.501,0,37.125-17.712,37.125-38.217s-16.624-37.122-37.125-37.122C1086.592,184.856,1069.97,201.474,1069.97,221.979z"/>
				<circle opacity="0.3" fill="#734A1E" cx="1211.947" cy="199.037" r="12.336"/>
				<path opacity="0.3" fill="#734A1E" d="M211.283,204.79c0,5.113,4.145,9.254,9.254,9.254c5.107,0,9.247-4.141,9.247-9.254
					c0-5.108-4.14-9.248-9.247-9.248C215.428,195.542,211.283,199.682,211.283,204.79z"/>
				<path opacity="0.3" fill="#734A1E" d="M1268.665,241.268c0,12.971,10.515,23.479,23.479,23.479
					c12.97,0,23.48-10.509,23.48-23.479c0-12.965-10.51-23.48-23.48-23.48C1279.18,217.787,1268.665,228.303,1268.665,241.268z"/>
				<circle opacity="0.6" fill="#A67339" cx="1275.633" cy="165.16" r="28.7"/>
				<path opacity="0.6" fill="#A67339" d="M926.334,225.689c0,21.297,17.266,38.557,38.557,38.557
					c21.294,0,38.556-17.26,38.556-38.557s-17.262-38.556-38.556-38.556C943.6,187.134,926.334,204.393,926.334,225.689z"/>
				<path opacity="0.6" fill="#A67339" d="M-15.043,202.711c0,13.701,11.114,24.814,24.816,24.814
					c13.703,0,24.816-11.113,24.816-24.814c0-13.703-11.113-24.815-24.816-24.815C-3.929,177.896-15.043,189.008-15.043,202.711z"/>
				<path opacity="0.6" fill="#A67339" d="M926.878,237.077c0,11.915,9.661,21.57,21.577,21.57c11.914,0,21.571-9.655,21.571-21.57
					c0-11.917-9.657-21.577-21.571-21.577C936.539,215.5,926.878,225.16,926.878,237.077z"/>
				<circle opacity="0.6" fill="#A67339" cx="112.752" cy="186.965" r="13.153"/>
				<circle opacity="0.6" fill="#A67339" cx="1417.329" cy="202.795" r="13.153"/>
				<path opacity="0.6" fill="#A67339" d="M1213.426,198.104c0,4.085,3.313,7.394,7.399,7.394c4.086,0,7.399-3.309,7.399-7.394
					c0-4.086-3.313-7.401-7.399-7.401C1216.739,190.702,1213.426,194.018,1213.426,198.104z"/>
				<path opacity="0.6" fill="#A67339" d="M1121.396,231.084c0,10.123,8.21,18.332,18.339,18.332
					c10.122,0,18.331-8.209,18.331-18.332c0-10.129-8.209-18.338-18.331-18.338C1129.606,212.746,1121.396,220.955,1121.396,231.084
					z"/>
				<path fill="#68431C" d="M1251.207,261.184"/>
				<path opacity="0.3" fill="#734A1E" d="M937.985,190.574c0,2.734,2.217,4.952,4.955,4.952c2.733,0,4.955-2.218,4.955-4.952
					c0-2.737-2.222-4.953-4.955-4.953C940.202,185.621,937.985,187.837,937.985,190.574z"/>
				<path opacity="0.3" fill="#734A1E" d="M1116.707,184.406c0,2.737,2.22,4.954,4.952,4.954c2.736,0,4.954-2.217,4.954-4.954
					c0-2.732-2.218-4.949-4.954-4.949C1118.927,179.457,1116.707,181.674,1116.707,184.406z"/>
				<path opacity="0.3" fill="#734A1E" d="M232.968,201.117c0,2.732,2.217,4.949,4.954,4.949c2.734,0,4.95-2.217,4.95-4.949
					c0-2.738-2.216-4.954-4.95-4.954C235.185,196.163,232.968,198.379,232.968,201.117z"/>
				<path opacity="0.3" fill="#734A1E" d="M1416.387,197.971c0,2.739,2.216,4.955,4.951,4.955c2.735,0,4.952-2.216,4.952-4.955
					c0-2.732-2.217-4.954-4.952-4.954C1418.603,193.017,1416.387,195.238,1416.387,197.971z"/>
				<path opacity="0.6" fill="#A67339" d="M166.122,191.23c0,2.733,2.216,4.954,4.955,4.954c2.732,0,4.947-2.221,4.947-4.954
					c0-2.738-2.214-4.955-4.947-4.955C168.338,186.275,166.122,188.492,166.122,191.23z"/>
				<path opacity="0.3" fill="#734A1E" d="M829.561,261.848c0,5.115,4.147,9.255,9.254,9.255c5.107,0,9.25-4.14,9.25-9.255
					c0-5.107-4.143-9.248-9.25-9.248C833.708,252.6,829.561,256.74,829.561,261.848z"/>
				<path opacity="0.6" fill="#A67339" d="M603.237,259.77c0,13.702,11.112,24.814,24.814,24.814
					c13.703,0,24.816-11.112,24.816-24.814c0-13.703-11.113-24.816-24.816-24.816C614.35,234.953,603.237,246.066,603.237,259.77z"
					/>
				<circle opacity="0.6" fill="#A67339" cx="731.031" cy="244.023" r="13.152"/>
				<path opacity="0.3" fill="#734A1E" d="M851.246,258.176c0,2.733,2.217,4.949,4.955,4.949c2.734,0,4.95-2.216,4.95-4.949
					c0-2.738-2.216-4.953-4.95-4.953C853.463,253.223,851.246,255.438,851.246,258.176z"/>
				<path opacity="0.6" fill="#A67339" d="M784.398,248.29c0,2.731,2.219,4.954,4.956,4.954c2.735,0,4.948-2.223,4.948-4.954
					c0-2.74-2.213-4.956-4.948-4.956C786.617,243.334,784.398,245.55,784.398,248.29z"/>
				<circle opacity="0.6" fill="#A67339" cx="1016.907" cy="195.526" r="4.954"/>
				<path opacity="0.6" fill="#A67339" d="M1328.876,207.857c0,2.733,2.217,4.955,4.952,4.955c2.737,0,4.954-2.222,4.954-4.955
					c0-2.732-2.217-4.954-4.954-4.954C1331.093,202.903,1328.876,205.125,1328.876,207.857z"/>
				<circle opacity="0.6" fill="#A67339" cx="1285.669" cy="190.574" r="4.952"/>
				<path fill="#68431C" d="M1287.961,265.06"/>
				<path opacity="0.6" fill="#A67339" d="M1259.064,372.074c0,9.408,7.627,17.041,17.041,17.041c9.408,0,17.04-7.633,17.04-17.041
					c0-9.413-7.631-17.04-17.04-17.04C1266.691,355.034,1259.064,362.661,1259.064,372.074z"/>
				<path opacity="0.3" fill="#734A1E" d="M474.616,190.902c0,20.506,16.623,38.218,37.125,38.218
					c20.5,0,37.124-17.712,37.124-38.218c0-20.504-16.624-37.122-37.124-37.122C491.239,153.78,474.616,170.398,474.616,190.902z"/>
				<circle opacity="0.3" fill="#734A1E" cx="1118.767" cy="374.401" r="12.335"/>
				<path opacity="0.3" fill="#734A1E" d="M1175.485,416.629c0,12.972,10.514,23.48,23.479,23.48c12.969,0,23.48-10.509,23.48-23.48
					c0-12.965-10.511-23.478-23.48-23.478C1186,393.151,1175.485,403.664,1175.485,416.629z"/>
				<circle opacity="0.6" fill="#A67339" cx="1182.453" cy="340.523" r="28.7"/>
				<path opacity="0.6" fill="#A67339" d="M309.72,206.063c0,21.297,17.266,38.557,38.557,38.557
					c21.293,0,38.556-17.26,38.556-38.557s-17.263-38.557-38.556-38.557C326.985,167.506,309.72,184.766,309.72,206.063z"/>
				<path opacity="0.6" fill="#A67339" d="M310.264,217.45c0,11.915,9.66,21.571,21.577,21.571c11.911,0,21.57-9.656,21.57-21.571
					s-9.659-21.575-21.57-21.575C319.924,195.875,310.264,205.535,310.264,217.45z"/>
				<circle opacity="0.6" fill="#A67339" cx="1324.149" cy="378.156" r="13.153"/>
				<circle opacity="0.6" fill="#A67339" cx="1127.645" cy="373.465" r="7.398"/>
				<path opacity="0.6" fill="#A67339" d="M526.042,200.008c0,10.123,8.21,18.334,18.339,18.334
					c10.123,0,18.332-8.211,18.332-18.334c0-10.128-8.209-18.337-18.332-18.337C534.252,181.671,526.042,189.88,526.042,200.008z"/>
				<path fill="#68431C" d="M1158.027,436.545"/>
				<circle opacity="0.3" fill="#734A1E" cx="326.325" cy="170.947" r="4.955"/>
				<path opacity="0.3" fill="#734A1E" d="M521.354,153.331c0,2.736,2.219,4.954,4.951,4.954c2.736,0,4.954-2.218,4.954-4.954
					c0-2.732-2.218-4.948-4.954-4.948C523.574,148.383,521.354,150.599,521.354,153.331z"/>
				<path opacity="0.3" fill="#734A1E" d="M1323.207,373.334c0,2.737,2.216,4.955,4.952,4.955c2.734,0,4.952-2.218,4.952-4.955
					c0-2.733-2.218-4.955-4.952-4.955C1325.422,368.379,1323.207,370.601,1323.207,373.334z"/>
				<circle opacity="0.6" fill="#A67339" cx="400.292" cy="175.898" r="4.953"/>
				<path opacity="0.3" fill="#734A1E" d="M122.961,347.086c0,5.113,4.146,9.254,9.255,9.254c5.107,0,9.247-4.141,9.247-9.254
					c0-5.107-4.14-9.248-9.247-9.248C127.106,337.838,122.961,341.979,122.961,347.086z"/>
				<path opacity="0.3" fill="#734A1E" d="M144.647,343.413c0,2.732,2.215,4.948,4.953,4.948c2.733,0,4.95-2.216,4.95-4.948
					c0-2.738-2.217-4.953-4.95-4.953C146.863,338.46,144.647,340.675,144.647,343.413z"/>
				<path opacity="0.3" fill="#734A1E" d="M397.041,333.357c0,14.568,11.81,27.154,26.378,27.154
					c14.565,0,26.377-12.586,26.377-27.154s-11.812-26.376-26.377-26.376C408.851,306.981,397.041,318.789,397.041,333.357z"/>
				<path opacity="0.6" fill="#A67339" d="M221.397,348.357c0,21.298,17.267,38.557,38.557,38.557
					c21.294,0,38.557-17.259,38.557-38.557c0-21.297-17.263-38.556-38.557-38.556C238.664,309.802,221.397,327.061,221.397,348.357z
					"/>
				<path opacity="0.6" fill="#A67339" d="M221.942,359.746c0,11.916,9.661,21.57,21.577,21.57c11.913,0,21.571-9.654,21.571-21.57
					s-9.658-21.576-21.571-21.576C231.603,338.17,221.942,347.83,221.942,359.746z"/>
				<path opacity="0.6" fill="#A67339" d="M307.017,318.193c0,2.738,2.218,4.955,4.955,4.955c2.735,0,4.951-2.217,4.951-4.955
					c0-2.733-2.216-4.95-4.951-4.95C309.235,313.243,307.017,315.46,307.017,318.193z"/>
				<path opacity="0.6" fill="#A67339" d="M1235.696,383.22c0,2.734,2.217,4.955,4.952,4.955c2.736,0,4.953-2.221,4.953-4.955
					c0-2.733-2.217-4.954-4.953-4.954C1237.913,378.266,1235.696,380.486,1235.696,383.22z"/>
				<path opacity="0.6" fill="#A67339" d="M1187.539,365.938c0,2.733,2.216,4.95,4.951,4.95c2.736,0,4.951-2.217,4.951-4.95
					c0-2.737-2.215-4.955-4.951-4.955C1189.755,360.982,1187.539,363.2,1187.539,365.938z"/>
				<path fill="#68431C" d="M1194.781,440.423"/>
				<path opacity="0.6" fill="#A67339" d="M976.06,342.28c0,9.407,7.627,17.039,17.04,17.039c9.407,0,17.04-7.632,17.04-17.039
					c0-9.415-7.633-17.042-17.04-17.042C983.687,325.238,976.06,332.865,976.06,342.28z"/>
				<path opacity="0.3" fill="#734A1E" d="M693.784,367.545c0,20.505,16.622,38.217,37.124,38.217
					c20.502,0,37.125-17.712,37.125-38.217c0-20.504-16.623-37.122-37.125-37.122C710.406,330.423,693.784,347.041,693.784,367.545z
					"/>
				<path opacity="0.3" fill="#734A1E" d="M892.479,386.834c0,12.971,10.517,23.479,23.481,23.479
					c12.969,0,23.479-10.509,23.479-23.479c0-12.965-10.51-23.479-23.479-23.479C902.995,363.354,892.479,373.869,892.479,386.834z"
					/>
				<path opacity="0.6" fill="#A67339" d="M550.148,371.258c0,21.295,17.267,38.556,38.557,38.556
					c21.294,0,38.557-17.261,38.557-38.556c0-21.297-17.263-38.558-38.557-38.558C567.415,332.7,550.148,349.961,550.148,371.258z"
					/>
				<path opacity="0.6" fill="#A67339" d="M550.693,382.646c0,11.913,9.66,21.569,21.576,21.569
					c11.914,0,21.572-9.656,21.572-21.569c0-11.916-9.658-21.577-21.572-21.577C560.354,361.068,550.693,370.729,550.693,382.646z"
					/>
				<circle opacity="0.6" fill="#A67339" cx="1041.143" cy="348.359" r="13.154"/>
				<path opacity="0.6" fill="#A67339" d="M745.21,376.65c0,10.123,8.21,18.333,18.338,18.333c10.124,0,18.333-8.21,18.333-18.333
					c0-10.128-8.209-18.337-18.333-18.337C753.42,358.313,745.21,366.522,745.21,376.65z"/>
				<path fill="#68431C" d="M875.021,406.75"/>
				<path fill="#68431C" d="M911.775,410.627"/>
				<circle opacity="0.6" fill="#A67339" cx="806.267" cy="486.09" r="28.7"/>
				<circle opacity="0.6" fill="#A67339" cx="27.688" cy="416.302" r="28.7"/>
				<path opacity="0.6" fill="#A67339" d="M811.354,511.505c0,2.732,2.215,4.95,4.951,4.95s4.951-2.218,4.951-4.95
					c0-2.737-2.215-4.954-4.951-4.954S811.354,508.768,811.354,511.505z"/>
				<path opacity="0.3" fill="#734A1E" d="M890.582,893.415c0-20.504,16.624-38.217,37.125-38.217s37.124,17.713,37.124,38.217
					c0,20.505-16.623,37.122-37.124,37.122S890.582,913.92,890.582,893.415z"/>
				<path opacity="0.3" fill="#734A1E" d="M28.623,872.985c0-5.114,4.146-9.253,9.255-9.253c5.106,0,9.247,4.139,9.247,9.253
					c0,5.108-4.141,9.248-9.247,9.248C32.769,882.233,28.623,878.094,28.623,872.985z"/>
				<path opacity="0.3" fill="#734A1E" d="M1089.277,874.126c0-12.971,10.515-23.479,23.48-23.479
					c12.969,0,23.479,10.509,23.479,23.479c0,12.965-10.51,23.479-23.479,23.479
					C1099.792,897.605,1089.277,887.091,1089.277,874.126z"/>
				<path opacity="0.6" fill="#A67339" d="M746.947,889.703c0-21.296,17.266-38.557,38.555-38.557
					c21.293,0,38.558,17.261,38.558,38.557c0,21.298-17.265,38.557-38.558,38.557C764.213,928.26,746.947,911.001,746.947,889.703z"
					/>
				<path opacity="0.6" fill="#A67339" d="M747.49,878.315c0-11.915,9.66-21.57,21.577-21.57c11.913,0,21.572,9.655,21.572,21.57
					c0,11.917-9.659,21.577-21.572,21.577C757.15,899.893,747.49,890.232,747.49,878.315z"/>
				<path opacity="0.6" fill="#A67339" d="M1224.788,912.598c0-7.262,5.889-13.15,13.153-13.15c7.262,0,13.154,5.889,13.154,13.15
					c0,7.267-5.892,13.154-13.154,13.154C1230.677,925.752,1224.788,919.864,1224.788,912.598z"/>
				<path opacity="0.6" fill="#A67339" d="M942.007,884.31c0-10.124,8.21-18.333,18.339-18.333c10.121,0,18.331,8.209,18.331,18.333
					c0,10.129-8.21,18.338-18.331,18.338C950.217,902.647,942.007,894.438,942.007,884.31z"/>
				<path fill="#68431C" d="M1071.818,854.209"/>
				<path opacity="0.3" fill="#734A1E" d="M50.31,876.658c0-2.732,2.216-4.948,4.953-4.948c2.734,0,4.95,2.216,4.95,4.948
					c0,2.738-2.216,4.954-4.95,4.954C52.525,881.612,50.31,879.396,50.31,876.658z"/>
				<path fill="#68431C" d="M1108.572,850.333"/>
				<circle opacity="0.6" fill="#A67339" cx="599.45" cy="876.156" r="17.04"/>
				<path opacity="0.3" fill="#734A1E" d="M300.134,850.89c0-20.504,16.624-38.217,37.125-38.217
					c20.502,0,37.125,17.713,37.125,38.217c0,20.505-16.623,37.122-37.125,37.122C316.758,888.012,300.134,871.395,300.134,850.89z"
					/>
				<circle opacity="0.3" fill="#734A1E" cx="442.112" cy="873.831" r="12.336"/>
				<path opacity="0.3" fill="#734A1E" d="M498.831,831.602c0-12.973,10.515-23.48,23.481-23.48
					c12.968,0,23.478,10.508,23.478,23.48c0,12.965-10.51,23.479-23.478,23.479C509.346,855.08,498.831,844.566,498.831,831.602z"/>
				<circle opacity="0.6" fill="#A67339" cx="505.798" cy="907.708" r="28.7"/>
				<path opacity="0.6" fill="#A67339" d="M156.5,847.18c0-21.299,17.266-38.558,38.556-38.558
					c21.293,0,38.556,17.259,38.556,38.558c0,21.296-17.263,38.556-38.556,38.556C173.766,885.735,156.5,868.476,156.5,847.18z"/>
				<path opacity="0.6" fill="#A67339" d="M157.044,835.79c0-11.915,9.66-21.57,21.577-21.57c11.913,0,21.572,9.655,21.572,21.57
					c0,11.917-9.66,21.578-21.572,21.578C166.704,857.368,157.044,847.707,157.044,835.79z"/>
				<circle opacity="0.6" fill="#A67339" cx="647.495" cy="870.074" r="13.153"/>
				<circle opacity="0.6" fill="#A67339" cx="450.99" cy="874.766" r="7.398"/>
				<path opacity="0.6" fill="#A67339" d="M351.561,841.785c0-10.124,8.21-18.334,18.338-18.334c10.123,0,18.333,8.21,18.333,18.334
					c0,10.128-8.21,18.336-18.333,18.336C359.771,860.121,351.561,851.913,351.561,841.785z"/>
				<path fill="#68431C" d="M481.372,811.684"/>
				<path opacity="0.3" fill="#734A1E" d="M168.15,882.293c0-2.732,2.218-4.95,4.955-4.95c2.733,0,4.955,2.218,4.955,4.95
					c0,2.738-2.222,4.953-4.955,4.953C170.368,887.246,168.15,885.031,168.15,882.293z"/>
				<path opacity="0.3" fill="#734A1E" d="M346.873,888.462c0-2.737,2.219-4.955,4.951-4.955c2.736,0,4.954,2.218,4.954,4.955
					c0,2.733-2.218,4.949-4.954,4.949C349.092,893.411,346.873,891.195,346.873,888.462z"/>
				<path opacity="0.3" fill="#734A1E" d="M646.552,874.898c0-2.739,2.217-4.955,4.952-4.955c2.734,0,4.951,2.216,4.951,4.955
					c0,2.731-2.217,4.952-4.951,4.952C648.769,879.851,646.552,877.63,646.552,874.898z"/>
				<circle opacity="0.6" fill="#A67339" cx="247.072" cy="877.343" r="4.953"/>
				<path opacity="0.6" fill="#A67339" d="M559.041,865.01c0-2.732,2.219-4.953,4.952-4.953c2.736,0,4.954,2.221,4.954,4.953
					c0,2.734-2.218,4.955-4.954,4.955C561.26,869.965,559.041,867.744,559.041,865.01z"/>
				<path opacity="0.6" fill="#A67339" d="M510.885,882.293c0-2.732,2.215-4.95,4.951-4.95c2.735,0,4.95,2.218,4.95,4.95
					c0,2.738-2.215,4.953-4.95,4.953C513.1,887.246,510.885,885.031,510.885,882.293z"/>
				<path fill="#68431C" d="M518.126,807.809"/>
				<path opacity="0.3" fill="#734A1E" d="M194.434,727.667c0-20.505-16.623-38.217-37.124-38.217
					c-20.502,0-37.125,17.712-37.125,38.217c0,20.504,16.623,37.122,37.125,37.122C177.812,764.789,194.434,748.171,194.434,727.667
					z"/>
				<path opacity="0.3" fill="#734A1E" d="M64.792,750.608c0-6.813-5.522-12.339-12.335-12.339s-12.336,5.525-12.336,12.339
					c0,6.812,5.523,12.333,12.336,12.333S64.792,757.42,64.792,750.608z"/>
				<path opacity="0.3" fill="#734A1E" d="M1053.121,744.855c0-5.113-4.145-9.254-9.254-9.254c-5.107,0-9.248,4.141-9.248,9.254
					c0,5.109,4.141,9.248,9.248,9.248C1048.976,754.104,1053.121,749.965,1053.121,744.855z"/>
				<circle opacity="0.6" fill="#A67339" cx="-11.229" cy="784.485" r="28.7"/>
				<path opacity="0.6" fill="#A67339" d="M338.069,723.956c0-21.297-17.266-38.557-38.556-38.557
					c-21.293,0-38.556,17.26-38.556,38.557s17.263,38.556,38.556,38.556C320.804,762.512,338.069,745.253,338.069,723.956z"/>
				<path opacity="0.6" fill="#A67339" d="M1279.447,746.936c0-13.701-11.115-24.814-24.817-24.814s-24.815,11.113-24.815,24.814
					c0,13.702,11.113,24.814,24.815,24.814S1279.447,760.638,1279.447,746.936z"/>
				<path opacity="0.6" fill="#A67339" d="M337.525,712.568c0-11.915-9.66-21.57-21.577-21.57c-11.914,0-21.572,9.655-21.572,21.57
					c0,11.917,9.658,21.577,21.572,21.577C327.865,734.146,337.525,724.485,337.525,712.568z"/>
				<circle opacity="0.6" fill="#A67339" cx="1151.652" cy="762.682" r="13.153"/>
				<circle opacity="0.6" fill="#A67339" cx="43.579" cy="751.543" r="7.398"/>
				<path opacity="0.6" fill="#A67339" d="M143.008,718.563c0-10.124-8.21-18.333-18.339-18.333
					c-10.122,0-18.331,8.209-18.331,18.333c0,10.128,8.209,18.337,18.331,18.337C134.798,736.899,143.008,728.69,143.008,718.563z"
					/>
				<path fill="#68431C" d="M13.196,688.462"/>
				<path opacity="0.3" fill="#734A1E" d="M326.419,759.07c0-2.733-2.217-4.95-4.955-4.95c-2.733,0-4.956,2.217-4.956,4.95
					c0,2.738,2.222,4.954,4.956,4.954C324.202,764.024,326.419,761.809,326.419,759.07z"/>
				<path opacity="0.3" fill="#734A1E" d="M147.696,765.24c0-2.738-2.219-4.955-4.951-4.955c-2.736,0-4.955,2.217-4.955,4.955
					c0,2.732,2.218,4.947,4.955,4.947C145.477,770.188,147.696,767.973,147.696,765.24z"/>
				<path opacity="0.3" fill="#734A1E" d="M1031.436,748.529c0-2.733-2.216-4.949-4.953-4.949c-2.734,0-4.951,2.216-4.951,4.949
					c0,2.738,2.216,4.953,4.951,4.953C1029.219,753.482,1031.436,751.268,1031.436,748.529z"/>
				<path opacity="0.6" fill="#A67339" d="M1098.282,758.415c0-2.733-2.217-4.954-4.955-4.954c-2.733,0-4.947,2.221-4.947,4.954
					c0,2.739,2.213,4.955,4.947,4.955C1096.065,763.37,1098.282,761.154,1098.282,758.415z"/>
				<path opacity="0.3" fill="#734A1E" d="M434.843,687.798c0-5.114-4.147-9.255-9.254-9.255c-5.106,0-9.25,4.141-9.25,9.255
					c0,5.107,4.143,9.248,9.25,9.248C430.696,697.046,434.843,692.905,434.843,687.798z"/>
				<path opacity="0.6" fill="#A67339" d="M661.167,689.876c0-13.702-11.113-24.814-24.814-24.814
					c-13.704,0-24.817,11.112-24.817,24.814c0,13.704,11.114,24.817,24.817,24.817C650.054,714.693,661.167,703.58,661.167,689.876z
					"/>
				<circle opacity="0.6" fill="#A67339" cx="533.374" cy="705.622" r="13.152"/>
				<path opacity="0.3" fill="#734A1E" d="M413.158,691.47c0-2.733-2.216-4.949-4.955-4.949c-2.734,0-4.951,2.216-4.951,4.949
					c0,2.739,2.217,4.954,4.951,4.954C410.941,696.424,413.158,694.209,413.158,691.47z"/>
				<path opacity="0.6" fill="#A67339" d="M480.005,701.355c0-2.731-2.218-4.953-4.956-4.953c-2.735,0-4.949,2.222-4.949,4.953
					c0,2.739,2.214,4.955,4.949,4.955C477.787,706.311,480.005,704.095,480.005,701.355z"/>
				<path opacity="0.6" fill="#A67339" d="M252.451,754.12c0-2.736-2.218-4.953-4.956-4.953c-2.734,0-4.951,2.217-4.951,4.953
					c0,2.734,2.217,4.95,4.951,4.95C250.232,759.07,252.451,756.854,252.451,754.12z"/>
				<path opacity="0.6" fill="#A67339" d="M5.339,577.571c0-9.407-7.627-17.04-17.04-17.04c-9.408,0-17.04,7.633-17.04,17.04
					c0,9.413,7.632,17.04,17.04,17.04C-2.288,594.611,5.339,586.984,5.339,577.571z"/>
				<path opacity="0.3" fill="#734A1E" d="M789.788,758.743c0-20.505-16.623-38.218-37.125-38.218
					c-20.501,0-37.124,17.713-37.124,38.218c0,20.504,16.623,37.121,37.124,37.121C773.165,795.864,789.788,779.247,789.788,758.743
					z"/>
				<path opacity="0.3" fill="#734A1E" d="M157.972,575.244c0-6.811-5.522-12.337-12.335-12.337s-12.336,5.526-12.336,12.337
					c0,6.813,5.523,12.335,12.336,12.335S157.972,582.058,157.972,575.244z"/>
				<path opacity="0.3" fill="#734A1E" d="M88.919,533.017c0-12.972-10.515-23.48-23.48-23.48c-12.969,0-23.48,10.509-23.48,23.48
					c0,12.965,10.511,23.478,23.48,23.478C78.404,556.494,88.919,545.981,88.919,533.017z"/>
				<circle opacity="0.6" fill="#A67339" cx="81.951" cy="609.123" r="28.7"/>
				<path opacity="0.6" fill="#A67339" d="M954.684,743.584c0-21.298-17.265-38.557-38.556-38.557
					c-21.293,0-38.556,17.259-38.556,38.557c0,21.296,17.263,38.556,38.556,38.556C937.418,782.14,954.684,764.88,954.684,743.584z"
					/>
				<path opacity="0.6" fill="#A67339" d="M954.14,732.196c0-11.916-9.661-21.571-21.577-21.571
					c-11.911,0-21.571,9.655-21.571,21.571c0,11.915,9.661,21.575,21.571,21.575C944.479,753.771,954.14,744.111,954.14,732.196z"/>
				<circle opacity="0.6" fill="#A67339" cx="136.759" cy="576.181" r="7.398"/>
				<path opacity="0.6" fill="#A67339" d="M738.361,749.639c0-10.124-8.21-18.334-18.338-18.334
					c-10.123,0-18.332,8.21-18.332,18.334c0,10.127,8.209,18.336,18.332,18.336C730.151,767.975,738.361,759.766,738.361,749.639z"
					/>
				<path fill="#68431C" d="M106.376,513.101"/>
				<path opacity="0.3" fill="#734A1E" d="M943.033,778.698c0-2.735-2.217-4.951-4.954-4.951c-2.735,0-4.956,2.216-4.956,4.951
					c0,2.737,2.221,4.953,4.956,4.953C940.816,783.651,943.033,781.436,943.033,778.698z"/>
				<path opacity="0.3" fill="#734A1E" d="M743.05,796.315c0-2.737-2.219-4.954-4.951-4.954c-2.737,0-4.955,2.217-4.955,4.954
					c0,2.731,2.217,4.948,4.955,4.948C740.831,801.264,743.05,799.047,743.05,796.315z"/>
				<circle opacity="0.6" fill="#A67339" cx="864.112" cy="773.747" r="4.954"/>
				<path opacity="0.3" fill="#734A1E" d="M1141.443,602.561c0-5.115-4.146-9.254-9.255-9.254c-5.107,0-9.247,4.139-9.247,9.254
					c0,5.107,4.14,9.248,9.247,9.248C1137.298,611.809,1141.443,607.668,1141.443,602.561z"/>
				<path opacity="0.3" fill="#734A1E" d="M1119.756,606.233c0-2.733-2.215-4.949-4.954-4.949c-2.733,0-4.949,2.216-4.949,4.949
					c0,2.737,2.216,4.952,4.949,4.952C1117.541,611.186,1119.756,608.971,1119.756,606.233z"/>
				<path opacity="0.3" fill="#734A1E" d="M867.362,616.289c0-14.569-11.81-27.153-26.377-27.153
					c-14.566,0-26.377,12.584-26.377,27.153c0,14.568,11.811,26.375,26.377,26.375C855.553,642.664,867.362,630.857,867.362,616.289
					z"/>
				<path opacity="0.6" fill="#A67339" d="M1043.006,601.288c0-21.298-17.266-38.557-38.556-38.557
					c-21.294,0-38.557,17.259-38.557,38.557c0,21.296,17.263,38.555,38.557,38.555
					C1025.74,639.843,1043.006,622.584,1043.006,601.288z"/>
				<path opacity="0.6" fill="#A67339" d="M1042.462,589.899c0-11.915-9.662-21.57-21.577-21.57
					c-11.913,0-21.572,9.655-21.572,21.57c0,11.917,9.659,21.577,21.572,21.577C1032.801,611.477,1042.462,601.816,1042.462,589.899
					z"/>
				<path opacity="0.6" fill="#A67339" d="M957.387,631.453c0-2.738-2.218-4.955-4.956-4.955c-2.734,0-4.951,2.217-4.951,4.955
					c0,2.732,2.217,4.949,4.951,4.949C955.169,636.402,957.387,634.186,957.387,631.453z"/>
				<path opacity="0.6" fill="#A67339" d="M28.708,566.426c0-2.733-2.217-4.955-4.952-4.955c-2.736,0-4.953,2.222-4.953,4.955
					s2.217,4.954,4.953,4.954C26.491,571.38,28.708,569.159,28.708,566.426z"/>
				<path opacity="0.6" fill="#A67339" d="M76.865,583.708c0-2.733-2.216-4.95-4.953-4.95c-2.735,0-4.95,2.217-4.95,4.95
					c0,2.738,2.215,4.955,4.95,4.955C74.649,588.663,76.865,586.446,76.865,583.708z"/>
				<path fill="#68431C" d="M69.623,509.223"/>
				<path opacity="0.6" fill="#A67339" d="M288.344,607.365c0-9.406-7.626-17.039-17.04-17.039c-9.407,0-17.04,7.633-17.04,17.039
					c0,9.416,7.632,17.042,17.04,17.042C280.718,624.407,288.344,616.781,288.344,607.365z"/>
				<path opacity="0.3" fill="#734A1E" d="M570.62,582.101c0-20.505-16.623-38.217-37.125-38.217
					c-20.501,0-37.124,17.712-37.124,38.217c0,20.504,16.623,37.122,37.124,37.122C553.997,619.223,570.62,602.604,570.62,582.101z"
					/>
				<path opacity="0.3" fill="#734A1E" d="M371.926,562.812c0-12.971-10.518-23.479-23.481-23.479
					c-12.969,0-23.479,10.509-23.479,23.479c0,12.965,10.511,23.479,23.479,23.479C361.408,586.291,371.926,575.776,371.926,562.812
					z"/>
				<path opacity="0.6" fill="#A67339" d="M714.255,578.389c0-21.296-17.266-38.557-38.557-38.557
					c-21.293,0-38.556,17.261-38.556,38.557c0,21.297,17.263,38.557,38.556,38.557C696.989,616.945,714.255,599.686,714.255,578.389
					z"/>
				<path opacity="0.6" fill="#A67339" d="M713.711,567.001c0-11.914-9.661-21.569-21.577-21.569
					c-11.913,0-21.571,9.655-21.571,21.569c0,11.915,9.659,21.577,21.571,21.577C704.05,588.578,713.711,578.916,713.711,567.001z"
					/>
				<circle opacity="0.6" fill="#A67339" cx="223.261" cy="601.286" r="13.153"/>
				<path opacity="0.6" fill="#A67339" d="M519.194,572.996c0-10.124-8.211-18.334-18.339-18.334
					c-10.123,0-18.332,8.21-18.332,18.334c0,10.127,8.209,18.336,18.332,18.336C510.983,591.332,519.194,583.123,519.194,572.996z"
					/>
				<path fill="#68431C" d="M389.382,542.896"/>
				<path fill="#68431C" d="M352.629,539.019"/>
				<circle opacity="0.6" fill="#A67339" cx="458.137" cy="463.556" r="28.7"/>
				<circle opacity="0.6" fill="#A67339" cx="1236.715" cy="533.344" r="28.7"/>
				<path opacity="0.6" fill="#A67339" d="M453.05,438.141c0-2.732-2.215-4.949-4.951-4.949c-2.736,0-4.951,2.217-4.951,4.949
					c0,2.737,2.215,4.955,4.951,4.955C450.835,443.096,453.05,440.878,453.05,438.141z"/>
				<path opacity="0.6" fill="#A67339" d="M1236.709,842.556c0-13.702,11.114-24.815,24.815-24.815
					c13.703,0,24.816,11.113,24.816,24.815c0,13.703-11.114,24.814-24.816,24.814
					C1247.823,867.37,1236.709,856.259,1236.709,842.556z"/>
				<circle opacity="0.6" fill="#A67339" cx="1361.231" cy="820.685" r="13.152"/>
				<path opacity="0.6" fill="#A67339" d="M1414.601,816.416c0-2.732,2.217-4.953,4.955-4.953c2.734,0,4.95,2.221,4.95,4.953
					c0,2.74-2.216,4.956-4.95,4.956C1416.817,821.372,1414.601,819.156,1414.601,816.416z"/>
				<path opacity="0.6" fill="#A67339" d="M1343.298,682.806c0-9.407-7.627-17.039-17.041-17.039c-9.408,0-17.04,7.632-17.04,17.039
					c0,9.415,7.631,17.042,17.04,17.042C1335.671,699.848,1343.298,692.221,1343.298,682.806z"/>
				<path opacity="0.3" fill="#734A1E" d="M1426.878,638.252c0-12.972-10.515-23.48-23.48-23.48c-12.969,0-23.48,10.509-23.48,23.48
					c0,12.965,10.511,23.479,23.48,23.479C1416.363,661.73,1426.878,651.217,1426.878,638.252z"/>
				<circle opacity="0.6" fill="#A67339" cx="1419.91" cy="714.358" r="28.7"/>
				<circle opacity="0.6" fill="#A67339" cx="1278.214" cy="676.725" r="13.154"/>
				<path opacity="0.3" fill="#734A1E" d="M1279.156,681.549c0-2.74-2.215-4.956-4.951-4.956s-4.952,2.216-4.952,4.956
					c0,2.732,2.217,4.953,4.952,4.953S1279.156,684.281,1279.156,681.549z"/>
				<circle opacity="0.6" fill="#A67339" cx="1361.714" cy="671.661" r="4.953"/>
				<path opacity="0.6" fill="#A67339" d="M1414.825,688.943c0-2.732-2.218-4.951-4.953-4.951c-2.736,0-4.951,2.219-4.951,4.951
					c0,2.738,2.215,4.954,4.951,4.954C1412.607,693.897,1414.825,691.682,1414.825,688.943z"/>
				<path fill="#68431C" d="M1407.581,614.46"/>
				<circle opacity="0.6" fill="#A67339" cx="1419.438" cy="507.444" r="17.04"/>
				<circle opacity="0.6" fill="#A67339" cx="1371.393" cy="501.361" r="13.153"/>
				<path opacity="0.3" fill="#734A1E" d="M1372.336,506.186c0-2.739-2.216-4.955-4.951-4.955c-2.735,0-4.952,2.216-4.952,4.955
					c0,2.731,2.217,4.953,4.952,4.953C1370.12,511.139,1372.336,508.917,1372.336,506.186z"/>
			</g>
		</g>
	</g>
</g>
<g id="Capa_5">
</g>
<g id="Test" display="none">
	<g display="inline">
		<defs>
			<path id="SVGID_3493_" d="M-359,129.996c0,12.15-2.574,15.004-14.724,15.004h-253c-12.15,0-14.276-2.854-14.276-15.004v-170
				C-641-52.154-631.875-62-619.724-62h238C-369.574-62-359-52.154-359-40.004V129.996z"/>
		</defs>
		<clipPath id="SVGID_3_">
			<use xlink:href="#SVGID_3493_"  overflow="visible"/>
		</clipPath>
		<g clip-path="url(#SVGID_3_)">
			<g>
				<g>
					<defs>
						<rect id="SVGID_3498_" x="-949" y="-170" width="1031" height="647"/>
					</defs>
					<clipPath id="SVGID_4_">
						<use xlink:href="#SVGID_3498_"  overflow="visible"/>
					</clipPath>
					<g clip-path="url(#SVGID_4_)">
						
							<rect x="-958" y="-128" fill="#916633" stroke="#472728" stroke-width="2" stroke-miterlimit="10" width="1046" height="627"/>
						<path opacity="0.6" fill="#A67339" d="M-12.091,4.839c0,6.178,5.01,11.19,11.194,11.19c6.179,0,11.191-5.013,11.191-11.19
							c0-6.186-5.012-11.193-11.191-11.193C-7.082-6.354-12.091-1.347-12.091,4.839z"/>
						<circle opacity="0.6" fill="#A67339" cx="30.658" cy="8.833" r="8.639"/>
						<path opacity="0.3" fill="#734A1E" d="M30.039,5.665c0,1.799,1.456,3.254,3.253,3.254c1.796,0,3.252-1.455,3.252-3.254
							c0-1.794-1.457-3.256-3.252-3.256C31.495,2.409,30.039,3.871,30.039,5.665z"/>
						<circle opacity="0.6" fill="#A67339" cx="-6.188" cy="414.682" r="8.639"/>
						<circle opacity="0.6" fill="#A67339" cx="32.118" cy="411.879" r="3.253"/>
						<path opacity="0.3" fill="#734A1E" d="M36.931,294.854c0-8.52-6.906-15.423-15.422-15.423c-8.52,0-15.423,6.903-15.423,15.423
							c0,8.515,6.903,15.422,15.423,15.422C30.024,310.276,36.931,303.369,36.931,294.854z"/>
						<circle opacity="0.6" fill="#A67339" cx="32.354" cy="344.843" r="18.852"/>
						<circle opacity="0.6" fill="#A67339" cx="25.761" cy="328.149" r="3.252"/>
						<path fill="#68431C" d="M24.256,279.226"/>
						<circle opacity="0.6" fill="#A67339" cx="32.044" cy="208.938" r="11.193"/>
						<circle opacity="0.6" fill="#A67339" cx="0.487" cy="204.942" r="8.639"/>
						<path opacity="0.3" fill="#734A1E" d="M1.105,208.11c0-1.801-1.455-3.256-3.251-3.256c-1.797,0-3.253,1.455-3.253,3.256
							c0,1.795,1.456,3.252,3.253,3.252C-0.35,211.362,1.105,209.905,1.105,208.11z"/>
					</g>
				</g>
			</g>
			<path fill="#734A1E" stroke="#472728" stroke-width="2" stroke-miterlimit="10" d="M27.34-40H-645v-87.157
				c0-3.955-1.265-6.843-5.22-6.843h-151.842c-3.957,0-7.938,2.888-7.938,6.843v245.67c0,3.955,3.982,7.487,7.938,7.487h3.58
				h148.262H27.34c3.957,0,4.66-3.532,4.66-7.487V-33.328C32-37.286,31.296-40,27.34-40z"/>
			<g>
				<path fill="#734A1E" stroke="#472728" stroke-width="3" stroke-miterlimit="10" d="M-133,44.112l-15.257,9.844l-11.319,20.672
					l0.491,24.604l-4.429,12.796l12.305,12.797l21.161,0.624l22.639,0.27c0,0,53.644,0.271,56.597,0.271s53.15-0.182,53.15-0.182
					l1.969-14.272l-10.334-6.889l-3.447-11.812l-23.622-15.257l-14.272,2.953c0,0-4.428,10.335-5.905,11.812
					c-1.476,1.475-12.796,1.968-12.796,1.968l-13.287-9.35l2.953-11.813l-2.463-9.844l-15.747-15.745l-17.226-4.926L-133,44.112z"/>
				<g>
					<path fill="none" d="M-6.027,104.647l-3.447-11.812l-23.622-15.257l-14.272,2.953c0,0-4.428,10.335-5.905,11.812
						c-1.476,1.475-12.796,1.968-12.796,1.968l-13.287-9.35l2.953-11.813l-2.463-9.844l-15.747-15.745l-17.226-4.926L-133,44.112
						c0,0-7.383,17.718-8.859,19.688c-1.477,1.967-11.319,8.856-11.319,8.856l1.97,17.226l2.458,7.381l15.257,10.83l22.639,3.936
						l-22.639-1.477l-15.748-8.366l-2.46,9.351l0.492,13.289l21.161-0.81l22.639-1.16c0,0,53.644,0.986,56.597,0.986
						s53.15,1.967,53.15,1.967l1.969-14.272L-6.027,104.647z"/>
				</g>
				<g>
					<path fill="none" d="M-6.027,104.647l-3.447-11.812l-23.622-15.257l-14.272,2.953c0,0-4.428,10.335-5.905,11.812
						c-1.476,1.475-12.796,1.968-12.796,1.968l-6.89,8.365c0,0-8.859,6.893-11.319,6.893c-2.461,0,14.273,7.382,16.733,7.382
						c2.245,0,26.6-1.229,29.357-1.444c0.038-0.02,0.087-0.033,0.171-0.033c0.174,0,0.095,0.012-0.171,0.033
						c-0.788,0.427,10.182,5.402,13.951,5.872c3.938,0.491,26.576,4.43,26.576,4.43l1.969-14.272L-6.027,104.647z"/>
					<path fill="#916633" d="M-38.188,115.507c-2.757,0.215-27.112,1.444-29.357,1.444c-2.46,0-19.194-7.382-16.733-7.382
						c2.46,0,11.319-6.893,11.319-6.893l6.89-8.365l-13.287-9.35l2.953-11.813l-2.463-9.844l-2.953,18.212
						c0,0,0.985,11.318,0.985,13.286c0,1.07-3.173,11.941-10.334,19.195c-6.03,6.104-16.241,8.856-16.241,8.856
						s53.644,0.986,56.597,0.986s53.15,1.967,53.15,1.967s-22.638-3.938-26.576-4.43C-28.006,120.909-35.679,117.071-38.188,115.507
						z"/>
				</g>
				<polygon fill="#916633" points="-16.854,107 -6.519,107 4.308,110.742 -6.027,103.456 				"/>
			</g>
		</g>
	</g>
</g>
</svg>
