<?xml version="1.0" encoding="utf-8"?>
<!-- Generator: Adobe Illustrator 19.1.0, SVG Export Plug-In . SVG Version: 6.00 Build 0)  -->
<svg version="1.1" id="Capa_1" xmlns="http://www.w3.org/2000/svg" xmlns:xlink="http://www.w3.org/1999/xlink" x="0px" y="0px"
	 viewBox="0 0 667 375" style="enable-background:new 0 0 667 375;" xml:space="preserve">
<style type="text/css">
	.st0{clip-path:url(#SVGID_2_);}
	.st1{clip-path:url(#SVGID_4_);}
	.st2{clip-path:url(#SVGID_6_);}
	.st3{clip-path:url(#SVGID_8_);fill:url(#SVGID_9_);}
	.st4{opacity:0.2;clip-path:url(#SVGID_8_);fill:#F7F7F8;}
	.st5{opacity:0.5;clip-path:url(#SVGID_8_);}
	.st6{opacity:0.6;clip-path:url(#SVGID_11_);}
	.st7{clip-path:url(#SVGID_13_);}
	.st8{clip-path:url(#SVGID_11_);fill:#5D969A;}
	.st9{opacity:0.4;clip-path:url(#SVGID_11_);}
	.st10{clip-path:url(#SVGID_17_);}
	.st11{clip-path:url(#SVGID_11_);fill:#F7F7F8;}
	.st12{opacity:0.6;}
	.st13{clip-path:url(#SVGID_21_);}
	.st14{fill:#396767;}
	.st15{opacity:0.4;}
	.st16{clip-path:url(#SVGID_25_);}
	.st17{clip-path:url(#SVGID_27_);}
	.st18{fill:#F7F7F8;}
	.st19{clip-path:url(#SVGID_31_);}
	.st20{fill:#5D969A;}
	.st21{clip-path:url(#SVGID_35_);}
	.st22{clip-path:url(#SVGID_8_);fill:#144107;}
	.st23{clip-path:url(#SVGID_8_);}
	.st24{fill:#472728;}
	.st25{clip-path:url(#SVGID_39_);}
	.st26{clip-path:url(#SVGID_43_);}
	.st27{clip-path:url(#SVGID_45_);}
	.st28{clip-path:url(#SVGID_49_);}
	.st29{clip-path:url(#SVGID_53_);}
	.st30{clip-path:url(#SVGID_57_);}
	.st31{clip-path:url(#SVGID_61_);}
	.st32{clip-path:url(#SVGID_65_);}
	.st33{clip-path:url(#SVGID_69_);}
	.st34{clip-path:url(#SVGID_71_);}
	.st35{clip-path:url(#SVGID_75_);}
	.st36{clip-path:url(#SVGID_79_);}
	.st37{clip-path:url(#SVGID_8_);fill:#472728;}
	.st38{opacity:0.31;clip-path:url(#SVGID_8_);}
	.st39{clip-path:url(#SVGID_83_);fill:#F7F7F8;}
	.st40{fill:#75B5C6;}
	.st41{fill:#77AA52;}
	.st42{fill:#EFCE36;}
	.st43{fill:#CF7445;}
	.st44{fill:#C75D83;}
	.st45{fill:#BC6131;}
	.st46{clip-path:url(#SVGID_8_);fill:none;stroke:#75B5C6;stroke-width:1.0897;stroke-linecap:round;stroke-miterlimit:10;}
	.st47{clip-path:url(#SVGID_8_);fill:#61B5B2;}
	.st48{clip-path:url(#SVGID_8_);fill:none;stroke:#C75D83;stroke-width:0.676;stroke-linecap:round;stroke-miterlimit:10;}
	.st49{opacity:0.3;clip-path:url(#SVGID_8_);}
	.st50{opacity:0.4;clip-path:url(#SVGID_8_);}
	.st51{opacity:0.75;clip-path:url(#SVGID_8_);}
	.st52{clip-path:url(#SVGID_8_);fill:#6A9841;}
	.st53{clip-path:url(#SVGID_8_);fill:#77AA52;}
	.st54{clip-path:url(#SVGID_93_);fill:#F7F7F8;}
	.st55{opacity:0.2;clip-path:url(#SVGID_8_);}
	.st56{clip-path:url(#SVGID_8_);fill:#608E4F;}
	.st57{fill:#527E2E;}
	.st58{fill:#6A9841;}
	.st59{opacity:0.5;}
	.st60{clip-path:url(#SVGID_95_);fill:#E8C997;}
	.st61{fill:#00302F;}
	.st62{fill:#3D6D74;}
	.st63{clip-path:url(#SVGID_97_);fill:#001D1C;}
	.st64{fill:none;stroke:#472728;stroke-width:1.1136;stroke-miterlimit:10;}
	.st65{clip-path:url(#SVGID_8_);fill:#DBBA20;}
	.st66{clip-path:url(#SVGID_8_);fill:#95BB80;}
	.st67{clip-path:url(#SVGID_8_);fill:#5D5D5D;}
	.st68{opacity:0.3;fill:#FFFFFF;}
	.st69{fill:#FFFFFF;}
	.st70{clip-path:url(#SVGID_2_);fill:none;}
</style>
<g>
	<defs>
		<rect id="SVGID_1_" x="0.5" width="666.5" height="375"/>
	</defs>
	<clipPath id="SVGID_2_">
		<use xlink:href="#SVGID_1_"  style="overflow:visible;"/>
	</clipPath>
	<g class="st0">
		<defs>
			<rect id="SVGID_3_" x="-26.5" y="-53.5" width="802" height="502"/>
		</defs>
		<clipPath id="SVGID_4_">
			<use xlink:href="#SVGID_3_"  style="overflow:visible;"/>
		</clipPath>
		<g class="st1">
			<defs>
				<rect id="SVGID_5_" x="-26.9" y="-53.6" width="802.9" height="602.2"/>
			</defs>
			<clipPath id="SVGID_6_">
				<use xlink:href="#SVGID_5_"  style="overflow:visible;"/>
			</clipPath>
			<g class="st2">
				<defs>
					<rect id="SVGID_7_" x="-26.9" y="-132.8" width="802.9" height="681.3"/>
				</defs>
				<clipPath id="SVGID_8_">
					<use xlink:href="#SVGID_7_"  style="overflow:visible;"/>
				</clipPath>
				<radialGradient id="SVGID_9_" cx="373.7951" cy="65.2046" r="317.7365" gradientUnits="userSpaceOnUse">
					<stop  offset="2.094240e-02" style="stop-color:#9AB9E2"/>
					<stop  offset="0.3327" style="stop-color:#8C9FD5"/>
					<stop  offset="0.9969" style="stop-color:#685CB5"/>
					<stop  offset="1" style="stop-color:#685CB5"/>
				</radialGradient>
				<rect x="-27.6" y="-136.7" class="st3" width="802.9" height="403.8"/>
				<path class="st4" d="M525.9-108c9.2-14.9-12-29-34-31.3c-22-2.3-26.2,20.6-26.2,20.6s-7.1-3.8-10.5,1.9
					c-28-11.7-24.1,1.3-24.1,1.3s-23.3,4.2,18.3,4.5c41.6,0.3,92,16.6,92,16.6S537.6-110.1,525.9-108z"/>
				<g class="st5">
					<g>
						<defs>
							
								<rect id="SVGID_10_" x="474.4" y="90.5" transform="matrix(-0.9913 -0.1316 0.1316 -0.9913 1064.912 383.2719)" width="141.4" height="131.9"/>
						</defs>
						<clipPath id="SVGID_11_">
							<use xlink:href="#SVGID_10_"  style="overflow:visible;"/>
						</clipPath>
						<g class="st6">
							<g>
								<defs>
									
										<rect id="SVGID_12_" x="474.4" y="90.5" transform="matrix(-0.9913 -0.1316 0.1316 -0.9913 1064.912 383.2719)" width="141.4" height="131.9"/>
								</defs>
								<clipPath id="SVGID_13_">
									<use xlink:href="#SVGID_12_"  style="overflow:visible;"/>
								</clipPath>
								<g class="st7">
									<defs>
										
											<rect id="SVGID_14_" x="474.4" y="90.5" transform="matrix(-0.9913 -0.1316 0.1316 -0.9913 1064.9121 383.2708)" width="141.4" height="131.9"/>
									</defs>
									<clipPath id="SVGID_15_">
										<use xlink:href="#SVGID_14_"  style="overflow:visible;"/>
									</clipPath>
									<g style="clip-path:url(#SVGID_15_);">
										
											<image style="overflow:visible;" width="490" height="457" xlink:href="C24EE53B7E5ADC9C.png"  transform="matrix(0.2862 3.798068e-02 -3.798068e-02 0.2862 483.6909 81.7614)">
										</image>
									</g>
								</g>
							</g>
						</g>
						<path class="st8" d="M500.8,211.6c-26.1-2.7-34.9-22.4-19.4-43.6l43.8-60.3c15.4-21.3,36.8-19,47.5,5l30.3,68.1
							c10.7,24-1.9,41.4-28.1,38.7L500.8,211.6z"/>
						<g class="st9">
							<g>
								<defs>
									
										<rect id="SVGID_16_" x="503.3" y="91.6" transform="matrix(-0.9913 -0.1316 0.1316 -0.9913 1073.7473 311.2151)" width="87.8" height="57.2"/>
								</defs>
								<clipPath id="SVGID_17_">
									<use xlink:href="#SVGID_16_"  style="overflow:visible;"/>
								</clipPath>
								<g class="st10">
									<defs>
										
											<rect id="SVGID_18_" x="503.3" y="91.6" transform="matrix(-0.9913 -0.1316 0.1316 -0.9913 1073.7471 311.2095)" width="87.8" height="57.2"/>
									</defs>
									<clipPath id="SVGID_19_">
										<use xlink:href="#SVGID_18_"  style="overflow:visible;"/>
									</clipPath>
									<g transform="matrix(1 0 0 1 -3.051758e-05 0)" style="clip-path:url(#SVGID_19_);">
										
											<image style="overflow:visible;" width="304" height="198" xlink:href="C24EE53B7E5ADC9D.png"  transform="matrix(0.2862 3.798068e-02 -3.798068e-02 0.2862 507.4203 86.0298)">
										</image>
									</g>
								</g>
							</g>
						</g>
						<path class="st11" d="M574.9,112.4c-11.1-24.9-33.2-27.2-49.2-5.2l-23.6,32.5c0.2,0,0.3,0,0.5,0.1
							c12.5,1.3,13.7-10.1,26.1-8.8c12.5,1.3,11.3,12.7,23.8,14.1c12.5,1.3,13.7-10.1,26.2-8.8c3.9,0.4,6.4,1.8,8.5,3.5L574.9,112.4
							z"/>
					</g>
				</g>
				<g class="st5">
					<g>
						<g class="st12">
							<g>
								<defs>
									
										<rect id="SVGID_20_" x="668.9" y="163.8" transform="matrix(-0.9927 -0.1203 0.1203 -0.9927 1404.7045 503.2926)" width="97.3" height="90.9"/>
								</defs>
								<clipPath id="SVGID_21_">
									<use xlink:href="#SVGID_20_"  style="overflow:visible;"/>
								</clipPath>
								<g class="st13">
									<defs>
										
											<rect id="SVGID_22_" x="668.9" y="163.8" transform="matrix(-0.9927 -0.1203 0.1203 -0.9927 1404.7045 503.2936)" width="97.3" height="90.9"/>
									</defs>
									<clipPath id="SVGID_23_">
										<use xlink:href="#SVGID_22_"  style="overflow:visible;"/>
									</clipPath>
									<g style="clip-path:url(#SVGID_23_);">
										
											<image style="overflow:visible;" width="337" height="315" xlink:href="C24EE53B7E5ADC92.png"  transform="matrix(0.2866 3.474175e-02 -3.474175e-02 0.2866 674.7365 158.2414)">
										</image>
									</g>
								</g>
							</g>
						</g>
						<path class="st14" d="M708.3,235c-17.5-1.6-23.5-14.7-13.3-29.1l28.8-40.7c10.2-14.3,24.5-13,31.8,3l20.8,45.3
							c7.3,16-1,27.7-18.5,26.1L708.3,235z"/>
						<g class="st15">
							<g>
								<defs>
									
										<rect id="SVGID_24_" x="691" y="163.3" transform="matrix(-0.9927 -0.1204 0.1204 -0.9927 1415.4481 451.1036)" width="60.6" height="39"/>
								</defs>
								<clipPath id="SVGID_25_">
									<use xlink:href="#SVGID_24_"  style="overflow:visible;"/>
								</clipPath>
								<g class="st16">
									<defs>
										
											<rect id="SVGID_26_" x="691" y="163.3" transform="matrix(-0.9927 -0.1204 0.1204 -0.9927 1415.4481 451.1036)" width="60.6" height="39"/>
									</defs>
									<clipPath id="SVGID_27_">
										<use xlink:href="#SVGID_26_"  style="overflow:visible;"/>
									</clipPath>
									<g class="st17">
										<defs>
											
												<rect id="SVGID_28_" x="691" y="163.3" transform="matrix(-0.9927 -0.1203 0.1203 -0.9927 1415.4528 451.0916)" width="60.6" height="39"/>
										</defs>
										<clipPath id="SVGID_29_">
											<use xlink:href="#SVGID_28_"  style="overflow:visible;"/>
										</clipPath>
										<g transform="matrix(1 0 0 1 0 -1.525879e-05)" style="clip-path:url(#SVGID_29_);">
											
												<image style="overflow:visible;" width="210" height="135" xlink:href="C24EE53B7E5ADC93.png"  transform="matrix(0.2866 3.474175e-02 -3.474175e-02 0.2866 693.6047 159.815)">
											</image>
										</g>
									</g>
								</g>
							</g>
						</g>
						<path class="st18" d="M723.2,163.4c10.6-15,25.6-13.6,33.3,3.1l11.3,24.6c-0.1,0-0.2,0-0.3,0c-8.4-0.8-7.7-8.5-16.1-9.3
							c-8.4-0.8-9.2,6.9-17.6,6.1c-8.4-0.8-7.7-8.5-16.1-9.3c-2.6-0.2-4.5,0.3-6.1,1.2L723.2,163.4z"/>
						<g class="st12">
							<g>
								<defs>
									
										<rect id="SVGID_30_" x="590.3" y="132.1" transform="matrix(-0.9927 -0.1203 0.1203 -0.9927 1278.7949 458.8456)" width="125.9" height="117.5"/>
								</defs>
								<clipPath id="SVGID_31_">
									<use xlink:href="#SVGID_30_"  style="overflow:visible;"/>
								</clipPath>
								<g class="st19">
									<defs>
										
											<rect id="SVGID_32_" x="590.3" y="132.1" transform="matrix(-0.9927 -0.1203 0.1203 -0.9927 1278.7949 458.8456)" width="125.9" height="117.5"/>
									</defs>
									<clipPath id="SVGID_33_">
										<use xlink:href="#SVGID_32_"  style="overflow:visible;"/>
									</clipPath>
									<g style="clip-path:url(#SVGID_33_);">
										
											<image style="overflow:visible;" width="436" height="407" xlink:href="C24EE53B7E5ADC94.png"  transform="matrix(0.2866 3.474175e-02 -3.474175e-02 0.2866 597.853 124.9174)">
										</image>
									</g>
								</g>
							</g>
						</g>
						<path class="st20" d="M614.7,239.7c-23.1-2.2-31-19.4-17.6-38.3l38-53.6c13.4-18.9,32.3-17.1,42,3.9l27.4,59.8
							c9.7,21.1-1.3,36.6-24.4,34.4L614.7,239.7z"/>
						<g class="st15">
							<g>
								<defs>
									
										<rect id="SVGID_34_" x="615.7" y="133.3" transform="matrix(-0.9927 -0.1204 0.1204 -0.9927 1285.4554 395.2419)" width="77.9" height="51.1"/>
								</defs>
								<clipPath id="SVGID_35_">
									<use xlink:href="#SVGID_34_"  style="overflow:visible;"/>
								</clipPath>
								<g class="st21">
									<defs>
										
											<rect id="SVGID_36_" x="615.7" y="133.3" transform="matrix(-0.9927 -0.1203 0.1203 -0.9927 1285.4615 395.2372)" width="77.9" height="51.1"/>
									</defs>
									<clipPath id="SVGID_37_">
										<use xlink:href="#SVGID_36_"  style="overflow:visible;"/>
									</clipPath>
									<g style="clip-path:url(#SVGID_37_);">
										
											<image style="overflow:visible;" width="270" height="177" xlink:href="C24EE53B7E5ADC91.png"  transform="matrix(0.2866 3.474175e-02 -3.474175e-02 0.2866 619.054 128.7503)">
										</image>
									</g>
								</g>
							</g>
						</g>
						<path class="st18" d="M679,151.3c-10-21.8-29.6-23.7-43.5-4.1l-20.5,28.9c0.1,0,0.3,0,0.4,0.1c11,1,12-9.1,23-8
							c11,1,10.1,11.1,21.1,12.2c11,1,12-9.1,23-8c3.4,0.3,5.7,1.5,7.5,3L679,151.3z"/>
					</g>
				</g>
				<path class="st22" d="M612.3,219.4c0,0-66.9-30.5-122.1-29.8c-55.2,0.7-61.1,0.9-61.1,0.9s31.6-34.5,68.7-12.4
					c4.5-11.2,13.9-3.9,13.9-3.9s5.6-45,34.7-41.1c29.1,3.9,57.3,30.7,45.1,60.3C607,188.7,612.3,219.4,612.3,219.4"/>
				<g class="st23">
					<path class="st24" d="M612.7,219.7l-0.7-0.3c-0.2-0.1-16.6-7.5-39.5-14.9c-21.6-6.9-53.6-15.2-82.4-14.9
						c-54.6,0.7-61,0.9-61.1,0.9l-0.9,0l0.6-0.7c0.2-0.2,18.5-19.9,43.3-19.9c8.7,0,17.3,2.4,25.5,7.2c1.7-4,4.3-6.1,7.6-6.1
						c2.7,0,5.1,1.3,6.1,2c0.4-2.4,1.9-11.3,5.8-20.1c6-13.7,14.9-20.9,25.8-20.9c1.1,0,2.3,0.1,3.5,0.2
						c17.9,2.4,34.8,13.1,43.1,27.4c6,10.4,6.9,21.7,2.6,32.7c0.8-0.2,1.6-0.3,2.4-0.3c13.3,0,17.9,25.8,18.1,26.9L612.7,219.7z
						 M491.9,188.8c28.4,0,59.6,8.1,80.8,14.9c20.3,6.5,35.5,13.1,38.9,14.6c-0.9-4.3-5.7-25.5-17.1-25.5c-1,0-2,0.2-3,0.5l-0.8,0.2
						l0.3-0.8c4.5-10.9,3.7-22.3-2.3-32.7c-8.1-14.1-24.8-24.7-42.5-27c-1.2-0.2-2.3-0.2-3.4-0.2c-13.3,0-20.9,11.1-25,20.4
						c-4.5,10.2-5.8,20.5-5.8,20.6l-0.1,0.7l-0.5-0.4c0,0-2.9-2.2-6.2-2.2c-3.1,0-5.5,2-7.1,6l-0.2,0.4l-0.4-0.2
						c-8.2-4.9-16.7-7.3-25.5-7.3c-21.8,0-38.6,15.5-42.1,19c3.2-0.1,15.7-0.3,60.1-0.9C490.7,188.8,491.3,188.8,491.9,188.8z"/>
				</g>
				<g class="st5">
					<g>
						<g class="st12">
							<g>
								<defs>
									
										<rect id="SVGID_38_" x="88.3" y="135.8" transform="matrix(-0.9941 0.1082 -0.1082 -0.9941 292.6065 346.623)" width="97.3" height="90.9"/>
								</defs>
								<clipPath id="SVGID_39_">
									<use xlink:href="#SVGID_38_"  style="overflow:visible;"/>
								</clipPath>
								<g class="st25">
									<defs>
										
											<rect id="SVGID_40_" x="88.3" y="135.8" transform="matrix(-0.9941 0.1082 -0.1082 -0.9941 292.6057 346.6237)" width="97.3" height="90.9"/>
									</defs>
									<clipPath id="SVGID_41_">
										<use xlink:href="#SVGID_40_"  style="overflow:visible;"/>
									</clipPath>
									<g transform="matrix(1 7.450581e-09 -7.450581e-09 1 0 0)" style="clip-path:url(#SVGID_41_);">
										
											<image style="overflow:visible;" width="337" height="315" xlink:href="C24EE53B7E5ADC90.png"  transform="matrix(0.287 -3.122164e-02 3.122164e-02 0.287 83.6303 141.311)">
										</image>
									</g>
								</g>
							</g>
						</g>
						<path class="st14" d="M116.8,223.7c-17.4,2.4-26.2-9-19.6-25.3l18.9-46.2c6.6-16.3,20.9-18.2,31.7-4.3l30.5,39.4
							c10.8,13.9,5.3,27.2-12.1,29.6L116.8,223.7z"/>
						<g class="st15">
							<g>
								<defs>
									
										<rect id="SVGID_42_" x="104.3" y="135.2" transform="matrix(-0.9941 0.1082 -0.1082 -0.9941 285.1471 293.8374)" width="60.6" height="39"/>
								</defs>
								<clipPath id="SVGID_43_">
									<use xlink:href="#SVGID_42_"  style="overflow:visible;"/>
								</clipPath>
								<g class="st26">
									<defs>
										
											<rect id="SVGID_44_" x="104.3" y="135.2" transform="matrix(-0.9941 0.1082 -0.1082 -0.9941 285.1471 293.8374)" width="60.6" height="39"/>
									</defs>
									<clipPath id="SVGID_45_">
										<use xlink:href="#SVGID_44_"  style="overflow:visible;"/>
									</clipPath>
									<g class="st27">
										<defs>
											
												<rect id="SVGID_46_" x="104.3" y="135.2" transform="matrix(-0.9941 0.1082 -0.1082 -0.9941 285.1457 293.8378)" width="60.6" height="39"/>
										</defs>
										<clipPath id="SVGID_47_">
											<use xlink:href="#SVGID_46_"  style="overflow:visible;"/>
										</clipPath>
										<g transform="matrix(1 7.450581e-09 -7.450581e-09 1 0 0)" style="clip-path:url(#SVGID_47_);">
											
												<image style="overflow:visible;" width="210" height="135" xlink:href="C24EE53B7E5ADC8F.png"  transform="matrix(0.287 -3.122164e-02 3.122164e-02 0.287 102.3654 138.5602)">
											</image>
										</g>
									</g>
								</g>
							</g>
						</g>
						<path class="st18" d="M115.1,150.5c7-17,21.9-19.1,33.1-4.5l16.6,21.4c-0.1,0-0.2,0-0.3,0.1c-8.4,1.1-9.4-6.5-17.8-5.4
							c-8.4,1.1-7.3,8.8-15.7,10c-8.4,1.1-9.4-6.5-17.8-5.4c-2.6,0.4-4.3,1.3-5.6,2.6L115.1,150.5z"/>
						<g class="st12">
							<g>
								<defs>
									
										<rect id="SVGID_48_" x="7.2" y="119.2" transform="matrix(-0.9941 0.1082 -0.1082 -0.9941 159.0347 347.1795)" width="125.9" height="117.5"/>
								</defs>
								<clipPath id="SVGID_49_">
									<use xlink:href="#SVGID_48_"  style="overflow:visible;"/>
								</clipPath>
								<g class="st28">
									<defs>
										
											<rect id="SVGID_50_" x="7.2" y="119.2" transform="matrix(-0.9941 0.1082 -0.1082 -0.9941 159.0347 347.1795)" width="125.9" height="117.5"/>
									</defs>
									<clipPath id="SVGID_51_">
										<use xlink:href="#SVGID_50_"  style="overflow:visible;"/>
									</clipPath>
									<g transform="matrix(1 7.450581e-09 -7.450581e-09 1 -1.192093e-07 7.629395e-06)" style="clip-path:url(#SVGID_51_);">
										
											<image style="overflow:visible;" width="436" height="407" xlink:href="C24EE53B7E5ADCAA.png"  transform="matrix(0.287 -3.122164e-02 3.122164e-02 0.287 1.1903 126.3116)">
										</image>
									</g>
								</g>
							</g>
						</g>
						<path class="st20" d="M43.6,234.3c-23,3.1-34.6-11.9-25.8-33.3l24.9-60.9c8.8-21.5,27.6-24,41.8-5.7l40.3,52
							c14.2,18.3,7,35.9-15.9,39L43.6,234.3z"/>
						<g class="st15">
							<g>
								<defs>
									
										<rect id="SVGID_52_" x="25.2" y="120.9" transform="matrix(-0.9941 0.1082 -0.1082 -0.9941 143.8838 285.0222)" width="77.9" height="51.1"/>
								</defs>
								<clipPath id="SVGID_53_">
									<use xlink:href="#SVGID_52_"  style="overflow:visible;"/>
								</clipPath>
								<g class="st29">
									<defs>
										
											<rect id="SVGID_54_" x="25.2" y="120.9" transform="matrix(-0.9941 0.1082 -0.1082 -0.9941 143.8829 285.021)" width="77.9" height="51.1"/>
									</defs>
									<clipPath id="SVGID_55_">
										<use xlink:href="#SVGID_54_"  style="overflow:visible;"/>
									</clipPath>
									<g transform="matrix(1 7.450581e-09 -7.450581e-09 1 0 0)" style="clip-path:url(#SVGID_55_);">
										
											<image style="overflow:visible;" width="270" height="177" xlink:href="156721994321E227.png"  transform="matrix(0.287 -3.122164e-02 3.122164e-02 0.287 22.7099 125.2312)">
										</image>
									</g>
								</g>
							</g>
						</g>
						<path class="st18" d="M86.3,133.6c-14.7-19-34.2-16.3-43.3,5.9l-13.4,32.8c0.1,0,0.3,0,0.4,0c11-1.5,9.6-11.5,20.6-13
							c11-1.5,12.3,8.6,23.3,7.1c11-1.5,9.6-11.5,20.6-13c3.4-0.5,5.9,0.2,8,1.3L86.3,133.6z"/>
						<g class="st12">
							<g>
								<defs>
									
										<rect id="SVGID_56_" x="-58.2" y="157.8" transform="matrix(-0.9941 0.1082 -0.1082 -0.9941 32.9258 431.3791)" width="125.9" height="117.5"/>
								</defs>
								<clipPath id="SVGID_57_">
									<use xlink:href="#SVGID_56_"  style="overflow:visible;"/>
								</clipPath>
								<g class="st30">
									<defs>
										
											<rect id="SVGID_58_" x="-58.2" y="157.8" transform="matrix(-0.9941 0.1082 -0.1082 -0.9941 32.9258 431.3791)" width="125.9" height="117.5"/>
									</defs>
									<clipPath id="SVGID_59_">
										<use xlink:href="#SVGID_58_"  style="overflow:visible;"/>
									</clipPath>
									<g transform="matrix(1 7.450581e-09 -7.450581e-09 1 0 0)" style="clip-path:url(#SVGID_59_);">
										
											<image style="overflow:visible;" width="436" height="407" xlink:href="156721994321E239.png"  transform="matrix(0.287 -3.122164e-02 3.122164e-02 0.287 -64.1482 164.9915)">
										</image>
									</g>
								</g>
							</g>
						</g>
						<path class="st20" d="M-21.7,272.9c-23,3.1-34.6-11.9-25.8-33.3l24.9-60.9c8.8-21.5,27.6-24,41.8-5.7l40.3,52
							c14.2,18.3,7,35.9-15.9,39L-21.7,272.9z"/>
						<g class="st15">
							<g>
								<defs>
									
										<rect id="SVGID_60_" x="-40.1" y="159.5" transform="matrix(-0.9941 0.1082 -0.1082 -0.9941 17.7727 369.2219)" width="77.9" height="51.1"/>
								</defs>
								<clipPath id="SVGID_61_">
									<use xlink:href="#SVGID_60_"  style="overflow:visible;"/>
								</clipPath>
								<g class="st31">
									<defs>
										
											<rect id="SVGID_62_" x="-40.1" y="159.5" transform="matrix(-0.9941 0.1082 -0.1082 -0.9941 17.7739 369.2209)" width="77.9" height="51.1"/>
									</defs>
									<clipPath id="SVGID_63_">
										<use xlink:href="#SVGID_62_"  style="overflow:visible;"/>
									</clipPath>
									<g transform="matrix(1 7.450581e-09 -7.450581e-09 1 0 1.525879e-05)" style="clip-path:url(#SVGID_63_);">
										
											<image style="overflow:visible;" width="270" height="177" xlink:href="156721994321E23A.png"  transform="matrix(0.287 -3.122164e-02 3.122164e-02 0.287 -42.6286 163.9111)">
										</image>
									</g>
								</g>
							</g>
						</g>
						<path class="st18" d="M20.9,172.3c-14.7-19-34.2-16.3-43.3,5.9L-35.8,211c0.1,0,0.3,0,0.4,0c11-1.5,9.6-11.5,20.6-13
							c11-1.5,12.3,8.6,23.3,7.1c11-1.5,9.6-11.5,20.6-13c3.4-0.5,5.9,0.2,8,1.3L20.9,172.3z"/>
					</g>
				</g>
				<g class="st5">
					<g>
						<g class="st12">
							<g>
								<defs>
									<rect id="SVGID_64_" x="262.5" y="120.5" width="97.2" height="91"/>
								</defs>
								<clipPath id="SVGID_65_">
									<use xlink:href="#SVGID_64_"  style="overflow:visible;"/>
								</clipPath>
								<g class="st32">
									<defs>
										<rect id="SVGID_66_" x="262.5" y="120.5" width="97.2" height="91"/>
									</defs>
									<clipPath id="SVGID_67_">
										<use xlink:href="#SVGID_66_"  style="overflow:visible;"/>
									</clipPath>
									<g style="clip-path:url(#SVGID_67_);">
										
											<image style="overflow:visible;" width="337" height="315" xlink:href="156721994321E23B.png"  transform="matrix(0.2887 0 0 0.2887 262.2017 120.5886)">
										</image>
									</g>
								</g>
							</g>
						</g>
						<path class="st14" d="M286.3,206.1c-17.6,0.5-25.1-11.8-16.7-27.2l23.7-43.8c8.4-15.5,22.8-15.9,32-0.9l26.1,42.5
							c9.2,15,2.4,27.6-15.2,28.1L286.3,206.1z"/>
						<g class="st15">
							<g>
								<defs>
									<rect id="SVGID_68_" x="281.3" y="119.7" width="60.4" height="39.2"/>
								</defs>
								<clipPath id="SVGID_69_">
									<use xlink:href="#SVGID_68_"  style="overflow:visible;"/>
								</clipPath>
								<g class="st33">
									<defs>
										<rect id="SVGID_70_" x="281.3" y="119.7" width="60.4" height="39.2"/>
									</defs>
									<clipPath id="SVGID_71_">
										<use xlink:href="#SVGID_70_"  style="overflow:visible;"/>
									</clipPath>
									<g class="st34">
										<defs>
											<rect id="SVGID_72_" x="281.3" y="119.7" width="60.4" height="39.2"/>
										</defs>
										<clipPath id="SVGID_73_">
											<use xlink:href="#SVGID_72_"  style="overflow:visible;"/>
										</clipPath>
										<g style="clip-path:url(#SVGID_73_);">
											
												<image style="overflow:visible;" width="210" height="135" xlink:href="156721994321E23C.png"  transform="matrix(0.2887 0 0 0.2887 281.1243 119.8806)">
											</image>
										</g>
									</g>
								</g>
							</g>
						</g>
						<path class="st18" d="M292.4,133.1c8.8-16.2,23.8-16.6,33.4-0.9l14.2,23.1c-0.1,0-0.2,0-0.3,0c-8.5,0.2-8.7-7.5-17.1-7.3
							c-8.5,0.2-8.3,8-16.7,8.2c-8.5,0.2-8.7-7.5-17.1-7.3c-2.6,0.1-4.4,0.9-5.9,1.9L292.4,133.1z"/>
						<g class="st12">
							<g>
								<defs>
									<rect id="SVGID_74_" x="181.7" y="97" width="126.2" height="117.6"/>
								</defs>
								<clipPath id="SVGID_75_">
									<use xlink:href="#SVGID_74_"  style="overflow:visible;"/>
								</clipPath>
								<g class="st35">
									<defs>
										<rect id="SVGID_76_" x="181.7" y="97" width="126.2" height="117.6"/>
									</defs>
									<clipPath id="SVGID_77_">
										<use xlink:href="#SVGID_76_"  style="overflow:visible;"/>
									</clipPath>
									<g style="clip-path:url(#SVGID_77_);">
										
											<image style="overflow:visible;" width="436" height="407" xlink:href="156721994321E23F.png"  transform="matrix(0.2887 0 0 0.2887 181.8676 96.7602)">
										</image>
									</g>
								</g>
							</g>
						</g>
						<path class="st20" d="M212.4,208.7c-23.2,0.6-33.1-15.5-22.1-35.9l31.3-57.8c11-20.4,30-20.9,42.1-1.2l34.4,56
							c12.1,19.8,3.1,36.4-20.1,37.1L212.4,208.7z"/>
						<g class="st15">
							<g>
								<defs>
									<rect id="SVGID_78_" x="203.7" y="97.7" width="77.6" height="51.7"/>
								</defs>
								<clipPath id="SVGID_79_">
									<use xlink:href="#SVGID_78_"  style="overflow:visible;"/>
								</clipPath>
								<g class="st36">
									<defs>
										<rect id="SVGID_80_" x="203.7" y="97.7" width="77.6" height="51.7"/>
									</defs>
									<clipPath id="SVGID_81_">
										<use xlink:href="#SVGID_80_"  style="overflow:visible;"/>
									</clipPath>
									<g style="clip-path:url(#SVGID_81_);">
										
											<image style="overflow:visible;" width="270" height="177" xlink:href="156721994321E238.png"  transform="matrix(0.2887 0 0 0.2887 203.3774 98.0141)">
										</image>
									</g>
								</g>
							</g>
						</g>
						<path class="st18" d="M265.7,113.2c-12.6-20.5-32.2-19.9-43.7,1.2l-16.9,31.1c0.1,0,0.3,0,0.4,0c11.1-0.3,10.8-10.4,21.8-10.7
							c11.1-0.3,11.3,9.8,22.4,9.5c11.1-0.3,10.8-10.4,21.9-10.7c3.4-0.1,5.8,0.8,7.8,2.1L265.7,113.2z"/>
					</g>
				</g>
				<path class="st22" d="M134.1,207.9c0,0,100.5-22,182.1-17.7c81.5,4.4,90.2,4.9,90.2,4.9s-44.7-32.2-100.8-15.4
					c-5.9-10.1-20.3-4.4-20.3-4.4s-5.7-39.5-48.9-38.2c-43.3,1.4-86.4,22.9-70.1,49.4C143.7,181.5,134.1,207.9,134.1,207.9"/>
				<g class="st23">
					<path class="st24" d="M133.4,208l0.2-0.7c0-0.1,2.1-5.6,6.4-11.1c5.7-7.3,12.8-11.1,20.5-11.1c1.6,0,3.2,0.2,4.8,0.5
						c-4-6.9-4.2-13.7-0.7-20.3c8.5-15.7,38.6-27.9,71.5-29c0.7,0,1.5,0,2.2,0c21.5,0,33.2,10.5,39.2,19.3
						c5.7,8.3,7.5,16.7,7.9,18.8c1.2-0.4,4.6-1.5,8.4-1.5c5.3,0,9.3,2,11.7,5.9c10.7-3.2,21.7-4.8,32.8-4.8
						c39.3,0,67.8,20.1,68,20.3l1.1,0.8l-1.4-0.1c-0.1,0-9.6-0.6-90.2-4.9c-7.1-0.4-14.6-0.6-22.4-0.6
						c-75.5,0-158.8,18.1-159.6,18.2L133.4,208z M160.5,185.9c-16.2,0-24.4,17.3-25.9,21c8.4-1.8,87.2-18.1,159.1-18.1
						c7.8,0,15.3,0.2,22.4,0.6c65.5,3.5,84,4.6,88.7,4.8c-5.8-3.8-31.9-19.4-66.4-19.4c-11.1,0-22.2,1.6-32.9,4.8l-0.3,0.1l-0.2-0.3
						c-2.3-3.8-6-5.8-11.2-5.8c-4.5,0-8.5,1.6-8.6,1.6l-0.5,0.2l-0.1-0.5c0-0.1-1.4-9.6-7.9-19c-5.9-8.6-17.4-18.9-38.5-18.9
						c-0.7,0-1.4,0-2.2,0c-32.7,1-62.5,13.1-70.9,28.6c-3.5,6.5-3.1,13.3,1.1,20.2l0.5,0.8l-0.9-0.2
						C164.2,186.1,162.3,185.9,160.5,185.9z"/>
				</g>
				<path class="st22" d="M-39.4,223.5c0,0,100.5-22,182.1-17.7c81.5,4.4,90.2,4.9,90.2,4.9s-44.7-32.2-100.8-15.4
					c-5.9-10.1-20.3-4.4-20.3-4.4s-5.7-39.5-48.9-38.2c-43.2,1.4-86.4,22.9-70.1,49.4C-29.9,197.2-39.4,223.5-39.4,223.5"/>
				<path class="st37" d="M62.7,153.1c0.7,0,1.5,0,2.2,0c21.1,0,32.6,10.3,38.5,18.9c6.4,9.4,7.8,18.9,7.9,19l0.1,0.5l0.5-0.2
					c0,0,4-1.6,8.6-1.6c5.2,0,8.9,1.9,11.2,5.8l0.2,0.3l0.3-0.1c4-1.2,8.2-2.2,12.3-2.9l1.3-1c-4.5,0.8-9,1.8-13.4,3.1
					c-2.4-3.9-6.5-5.9-11.8-5.9c-3.8,0-7.2,1-8.4,1.5c-0.4-2.1-2.2-10.5-7.9-18.8c-6-8.8-17.7-19.3-39.2-19.3c-0.7,0-1.5,0-2.2,0
					c-33,1.1-63.1,13.2-71.5,29c-3.5,6.6-3.3,13.4,0.7,20.3c-1.6-0.3-3.3-0.5-4.8-0.5c-7.7,0-14.8,3.8-20.5,11.1
					c-4.3,5.5-6.3,11-6.4,11.1l-0.2,0.7l0.7-0.2c0.8-0.2,84.1-18.2,159.6-18.2c7.8,0,15.3,0.2,22.4,0.6l0-0.8
					c-7.1-0.4-14.6-0.6-22.4-0.6c-71.8,0-150.7,16.3-159.1,18.1c1.5-3.7,9.7-21,25.9-21c1.8,0,3.7,0.2,5.5,0.6l0.9,0.2l-0.5-0.8
					c-4.2-6.9-4.6-13.7-1.1-20.2C0.2,166.1,30,154.1,62.7,153.1z"/>
				<path class="st22" d="M773.7,231.2c0,0-99.3-26.9-181-26.6c-81.7,0.3-90.3,0.5-90.3,0.5s46.3-29.9,101.4-10.5
					c6.4-9.8,20.5-3.4,20.5-3.4s7.6-39.2,50.7-35.7c43.1,3.5,85.2,27.1,67.6,52.8C765.5,204.4,773.7,231.2,773.7,231.2"/>
				<path class="st37" d="M675.2,155.8c-0.7-0.1-1.5-0.1-2.2-0.1c-21.1-1-33.1,8.7-39.4,17c-6.9,9-8.8,18.4-8.8,18.5l-0.1,0.5
					l-0.5-0.2c0,0-3.9-1.8-8.5-2c-5.2-0.3-9,1.5-11.5,5.2l-0.2,0.3l-0.3-0.1c-3.9-1.4-8.1-2.6-12.1-3.5l-1.2-1.1
					c4.4,1,8.9,2.2,13.2,3.8c2.6-3.8,6.8-5.6,12.1-5.3c3.8,0.2,7.2,1.4,8.4,1.9c0.5-2,2.7-10.4,8.8-18.4
					c6.4-8.5,18.6-18.4,40.1-17.3c0.7,0,1.5,0.1,2.2,0.1c32.9,2.7,62.3,16.3,70,32.5c3.2,6.7,2.6,13.5-1.7,20.2
					c1.7-0.2,3.3-0.3,4.8-0.2c7.7,0.4,14.6,4.6,20,12.1c4,5.7,5.8,11.3,5.8,11.4l0.2,0.7l-0.7-0.2c-0.8-0.2-83.1-22.3-158.5-26.1
					c-7.7-0.4-15.3-0.6-22.4-0.5l0-0.8c7.1,0,14.6,0.1,22.4,0.5c71.8,3.5,149.7,23.7,158,25.9c-1.4-3.7-8.6-21.5-24.8-22.3
					c-1.8-0.1-3.7,0-5.6,0.4l-0.9,0.2l0.5-0.8c4.6-6.7,5.3-13.5,2.1-20.2C737,171.9,707.8,158.5,675.2,155.8z"/>
				<g class="st38">
					<g>
						<defs>
							
								<rect id="SVGID_82_" x="420.5" y="6.2" transform="matrix(-0.9911 -0.1331 0.1331 -0.9911 1000.0817 132.1021)" width="167.8" height="52.8"/>
						</defs>
						<clipPath id="SVGID_83_">
							<use xlink:href="#SVGID_82_"  style="overflow:visible;"/>
						</clipPath>
						<path class="st39" d="M584.1,71.5c0,0-58.6-26.2-108.8-31.8c-50.1-5.7-55.5-6.2-55.5-6.2s31-17.7,63.1,0
							c4.8-6.4,12.8-0.9,12.8-0.9s8-27.1,34.2-21.5c26.2,5.6,50,25.3,36.9,42.1C581.3,52.1,584.1,71.5,584.1,71.5"/>
					</g>
				</g>
				<path class="st4" d="M740.7,8.7c11.7-13.1-6.8-30.6-28-36.8c-21.2-6.1-29.4,15.7-29.4,15.7s-6.3-5-10.6,0
					c-25.5-16.4-23.9-3-23.9-3s-23.7,0.1,17.2,7.6c40.9,7.6,87.7,32.5,87.7,32.5S752.5,8.7,740.7,8.7z"/>
				<g class="st23">
					<g>
						<path class="st40" d="M400.1,276.7c-38.6-3-55.6,3.3-52.6-35.3l6.3-47.1c12.6,1.7,13.4,16.4,27.5,16.4c15,0,15-16.6,29.9-16.6
							c15,0,15,16.6,29.9,16.6c15,0,15-16.6,30-16.6c12.3,0,14.5,11.2,23.3,15.2c-1.9,1.9-4.1,3.5-6.5,4.8l0,38.1
							c-3,38.6-39.1,22.9-77.7,19.9L400.1,276.7z"/>
						<path class="st41" d="M494.3,209.3c-8.8-4-10.9-15.2-23.3-15.2c-15,0-15,16.6-30,16.6c-15,0-15-16.6-29.9-16.6
							c-15,0-15,16.6-29.9,16.6c-14.1,0-14.9-14.7-27.5-16.4l4.4-33.3c7.8,2.8,9.5,11.5,20.2,11.5c12.7,0,12.7-12.4,25.5-12.4
							c12.7,0,12.7,12.4,25.5,12.4c12.7,0,12.7-12.4,25.5-12.4c12.7,0,12.7,12.4,25.5,12.4c5.3,0,8.4-2.2,11.1-4.7
							c7.3,5.4,11.8,14.4,11,24.1C501.8,198.8,498.8,204.8,494.3,209.3"/>
						<path class="st42" d="M491.4,101.7v0.1c-11-1.1-11.7-12.2-23.8-12.1c-12.7,0.1-12.7,12.5-25.4,12.6
							c-12.7,0.1-12.9-12.3-25.6-12.2c-12.7,0.1-12.7,12.5-25.4,12.6c-12.1,0.1-12.8-11.1-23.7-12.1c2.3-13.3,7.4-25.3,15-34.7
							c8,2.9,9.8,11.5,20.9,11.5c13.3,0,13.3-12.4,26.5-12.4c13.3,0,13.3,12.4,26.6,12.4c10.8,0,12.9-8.2,20.4-11.3
							C486.2,68.2,491.4,84.2,491.4,101.7"/>
						<path class="st40" d="M490.4,122.5c-2.4-1.7-5.2-2.7-8.8-2.7c-16.4,0-16.4,21.9-32.7,21.9c-16.4,0-16.4-21.9-32.7-21.9
							c-16.4,0-16.4,21.9-32.7,21.9c-10.9,0-14.5-9.7-20.6-16.2l3.5-26.3c0.2-2.9,0.6-5.7,1.1-8.5c10.9,1.1,11.6,12.2,23.7,12.1
							c12.7-0.1,12.6-12.5,25.4-12.6c12.7-0.1,12.8,12.3,25.6,12.2c12.7-0.1,12.6-12.5,25.4-12.6c12.1-0.1,12.8,11.1,23.7,12.1
							c0,2.3-0.1,4.6-0.3,7L490.4,122.5z"/>
						<path class="st43" d="M490.4,122.5l-1.6,43.7c0.8,0.5,1.7,1,2.4,1.6c-2.7,2.5-5.8,4.7-11.1,4.7c-12.7,0-12.7-12.4-25.5-12.4
							c-12.7,0-12.7,12.4-25.5,12.4c-12.7,0-12.7-12.4-25.5-12.4c-12.7,0-12.7,12.4-25.5,12.4c-10.7,0-12.4-8.7-20.2-11.5l4.7-35.5
							c6.1,6.5,9.7,16.2,20.6,16.2c16.4,0,16.4-21.9,32.7-21.9c16.4,0,16.4,21.9,32.7,21.9c16.4,0,16.4-21.9,32.7-21.9
							C485.2,119.8,488,120.8,490.4,122.5"/>
						<path class="st44" d="M476.7,56.1c-7.5,3.1-9.5,11.3-20.3,11.3c-13.3,0-13.3-12.4-26.6-12.4c-13.3,0-13.3,12.4-26.5,12.4
							c-11,0-12.9-8.6-20.9-11.5c11.9-15,29.8-23.8,51.6-22.1C452.4,35.2,466.9,43.5,476.7,56.1"/>
					</g>
					<g>
						<path class="st45" d="M449.1,143.5c-8.7,0-13-5.8-17.1-11.3c-4.1-5.4-7.9-10.6-15.6-10.6c-7.7,0-11.5,5.1-15.6,10.5
							c-4.2,5.6-8.5,11.3-17.2,11.3c-8.7,0-13-5.8-17.1-11.3c-1.3-1.8-2.7-3.6-4.2-5.2l1.4-1.3c1.6,1.7,3,3.5,4.3,5.3
							c4.1,5.4,7.9,10.5,15.6,10.5c7.7,0,11.5-5.1,15.6-10.5c4.2-5.6,8.5-11.3,17.2-11.3c8.7,0,13,5.8,17.2,11.3
							c4.1,5.4,7.9,10.5,15.6,10.5c7.7,0,11.5-5.1,15.6-10.6c4.2-5.6,8.5-11.3,17.2-11.3c3.5,0,6.6,0.9,9.3,2.9l-1.1,1.6
							c-2.4-1.7-5.1-2.5-8.2-2.5c-7.7,0-11.5,5.1-15.6,10.5C462.1,137.8,457.7,143.5,449.1,143.5z"/>
					</g>
				</g>
				<path class="st46" d="M362.9,125.6c2.4,2.6,4.4,5.7,6.6,8.4c3.4,4.1,7.3,7.4,13.7,7.4c16.4,0,16.4-21.9,32.8-21.9
					c16.4,0,16.4,21.9,32.8,21.9c16.4,0,16.4-21.9,32.8-21.9"/>
				<path class="st47" d="M491.4,100.9h0.6c-5.3,0-7.7-2.3-10.4-5c-0.3-0.3-0.6-0.8-1-1.1c-3.2-3.1-6.6-6.5-13.2-6.5h-0.2
					c-6.7,0.8-10,3.3-13.2,6.5c-3.1,3.1-6.1,6.1-12.2,6.1h-0.1c-6,0-8.9-2.6-12.1-5.7c-3.2-3.1-6.6-6.1-13.2-6.1h-0.2
					c-6.7,0-10,3.3-13.2,6.5c-3.1,3.1-6.1,6-12.2,6.1l-0.1,0c-5.6,0-8.8-2.8-12.1-5.7c-3-2.7-6.2-5.5-11.3-6.1
					c-0.4,0-0.8,0.3-0.8,0.7c0,0.2,0,0.4,0.2,0.6c0.1,0.2,0.3,0.3,0.5,0.3c4.7,0.5,7.5,2.7,10.5,5.3c3.4,3,6.8,5.8,13.1,5.8h0.2
					c6.7,0,10-3,13.2-6.2c3.1-3.1,6.1-5.9,12.2-5.9l0.2,0.1c5.9,0,8.9,2.9,12.1,5.9c3.2,3.1,6.6,6.3,13.2,6.3l0.2,0
					c6.7-0.1,10-3.4,13.2-6.6c3.1-3.1,6.1-6.2,12.2-6.2h0.2c6,0,8.9,3,12.1,6c0.3,0.3,0.6,0.7,0.9,1c2.8,2.8,4.7,5.4,10.6,5.4l1,0
					c0.4,0,0-0.3,0-0.7C492.1,101.2,491.8,100.9,491.4,100.9z"/>
				<path class="st48" d="M445.3,62.9c2.7,2.3,5.9,4.1,11,4.1c10.4,0,12.7-7.7,19.6-11"/>
				<path class="st48" d="M387.3,58.6c4.4,3.6,7.5,8.5,15.8,8.5c13.3,0,13.3-12.4,26.5-12.4c5,0,8.1,1.7,10.7,3.9"/>
				<g class="st49">
					<g>
						<defs>
							<path id="SVGID_84_" d="M376.6,55.7"/>
						</defs>
						<clipPath id="SVGID_85_">
							<use xlink:href="#SVGID_84_"  style="overflow:visible;"/>
						</clipPath>
					</g>
				</g>
				<g class="st50">
					<g>
						<defs>
							<path id="SVGID_86_" d="M361.5,163.5"/>
						</defs>
						<clipPath id="SVGID_87_">
							<use xlink:href="#SVGID_86_"  style="overflow:visible;"/>
						</clipPath>
					</g>
				</g>
				<g class="st50">
					<g>
						<defs>
							<path id="SVGID_88_" d="M357.4,161.5"/>
						</defs>
						<clipPath id="SVGID_89_">
							<use xlink:href="#SVGID_88_"  style="overflow:visible;"/>
						</clipPath>
					</g>
				</g>
				<g class="st23">
					<path class="st24" d="M466.3,277.7c-7.7,0-17-2-26.9-4.1c-9.7-2.1-19.7-4.2-30-5l-15.9,6.8c-0.1,0-0.2,0.1-0.4,0.1
						c-8.3-0.6-15.5-0.7-21.2-0.7c-11.2,0-18.7-0.1-22.8-4.5c-3.8-4.1-4.8-11.7-3.6-27.1c0,0,0,0,0,0l19.1-143.8
						c1.4-18.6,8.3-35.5,19.3-47.5c11.7-12.7,27.1-19.4,44.6-19.4c1.8,0,3.6,0.1,5.4,0.2c18.9,1.5,34.5,10,45.1,24.7
						c10,13.9,14.7,32.3,13.2,51.9l-2.1,57.6c9.2,5.7,14.4,15.8,13.6,26.6c-0.7,9.6-6.2,18.1-14.7,22.8l0,38c0,0,0,0,0,0.1
						C487.8,270.5,480.8,277.7,466.3,277.7z M409.2,267.1C409.3,267.1,409.3,267.1,409.2,267.1c10.6,0.8,20.7,3,30.5,5
						c9.8,2.1,19.1,4.1,26.6,4.1c13.7,0,20-6.6,21.2-22l0-38.5c0-0.3,0.2-0.6,0.4-0.7c8.2-4.4,13.6-12.5,14.3-21.7
						c0.8-10.3-4.3-20-13.2-25.3c-0.2-0.1-0.4-0.4-0.4-0.7l2.1-58.1c1.5-19.3-3.1-37.4-12.9-50.9c-10.3-14.3-25.5-22.6-44-24.1
						c-1.8-0.1-3.5-0.2-5.3-0.2c-33.8,0-59.4,27-62.4,65.5c0,0,0,0,0,0l-19.1,143.8c-1.2,14.9-0.3,22.2,3.2,25.9
						c3.7,4,10.4,4,21.6,4c5.7,0,12.9,0,21.1,0.7l15.9-6.8C409,267.1,409.1,267.1,409.2,267.1z"/>
				</g>
				<g class="st51">
					<g>
						<g>
							<defs>
								<rect id="SVGID_90_" x="282.8" y="-35.5" width="107.4" height="106.6"/>
							</defs>
							<clipPath id="SVGID_91_">
								<use xlink:href="#SVGID_90_"  style="overflow:visible;"/>
							</clipPath>
						</g>
					</g>
				</g>
				<path class="st52" d="M292.5,219.3c2.1,0,4.4-1.7,5.1-3.7l1-3.1c0.7-2-0.3-2.8-2.2-1.8l-2.7,1.5c-1.9,1-4.6,0.6-6.1-0.9
					l-3.4-3.4c-1.5-1.5-2.8-1-2.8,1.1l-0.2,6.3c-0.1,2.1,1.7,3.9,3.8,3.9H292.5z"/>
				<path class="st52" d="M413.6,226.3c-1.9,0-4.1-1.2-4.9-2.9l-1-1.9c-0.8-1.7-0.1-2.5,1.7-1.9l4.9,1.8c1.8,0.6,4.5,0.3,6.1-0.7
					l4.8-3.1c1.6-1,2.9-0.3,3,1.5l0.2,3.9c0.1,1.9-1.4,3.2-3.3,3.2H413.6z"/>
				<path class="st53" d="M379.5,198.7c0,0-86.6-9.9-95.2,8.7c-8.6,18.6,6.5,34.3,66.3,40.3c59.8,6,130.5-39.7,88.7-43.1
					C397.3,201.1,379.5,198.7,379.5,198.7"/>
				<g class="st5">
					<g>
						<defs>
							
								<rect id="SVGID_92_" x="148.1" y="-11.3" transform="matrix(-0.9988 4.799620e-02 -4.799620e-02 -0.9988 492.0587 27.0824)" width="195.3" height="61.4"/>
						</defs>
						<clipPath id="SVGID_93_">
							<use xlink:href="#SVGID_92_"  style="overflow:visible;"/>
						</clipPath>
						<path class="st54" d="M149.7,56.4c0,0,70.6-24.5,129.3-26.1c58.7-1.6,64.9-1.7,64.9-1.7S309.7,5,270.6,22.3
							c-4.9-7.9-14.8-2.3-14.8-2.3s-6.6-32.2-37.5-28.3c-30.9,3.9-60.4,24.3-47,45.1C154.8,34.1,149.7,56.4,149.7,56.4"/>
					</g>
				</g>
				<g class="st55">
					<g>
						<path class="st18" d="M-2.6-15c0,0,40.9-20.7,76.4-26.4c35.5-5.8,16.2-5.9,16.2-5.9s0.5-12-21.9,1.7c-3.6-4.4-9.2-0.2-9.2-0.2
							s-6.7-19-25.1-14.1C15.4-55-1.7-42.5,8.2-31C-2.1-31.3-2.6-15-2.6-15"/>
					</g>
				</g>
				<path class="st56" d="M499,190.5c-43.2,11.6-127.2,0.3-139.8-1.5c-42.1,0.6-91.3,1.5-142.9,4.4c-81.2,4.6-168,13.4-243.3,26.4
					v329.4H776l0-328.7c-19.2-4-55-8.3-95.4-13c-66.2-7.6-144.5-15.7-181.4-17.3"/>
				<g class="st23">
					<path class="st57" d="M501.6,215.7c-55.7,16.7-165.2,3-181.7,3.3c-188.1,3.5-312.5,32.8-344.5,38.7c0,0,39.3,121.5,313,111.2
						c273.8-10.3,244.1-78.5,244.1-78.5s118.7,13.1,125.9-45.2C661,225.2,593.8,217.1,501.6,215.7"/>
				</g>
				<g class="st23">
					<path class="st58" d="M209.5,234.1c0,0-24.6,5.7-8.6,14.1c16,8.5,32.2,2.5,29.7-2.8C228.1,240.1,227.5,232.7,209.5,234.1"/>
					<path class="st58" d="M392.3,249.1c0,0,12.4-1.7,4.9-6.6c-7.5-4.9-15.8-2.6-14.8,0.1C383.3,245.4,383.3,249,392.3,249.1"/>
					<path class="st41" d="M517,212.1c0,0-2.6-7.5-6.4-8.8c8.5,1.2,15.4,8.9,15.4,8.9l2.5-8.4l2.4,7.6c0,0,3-7,9.6-7.6
						c-3.6,6-2.3,9.3-2.3,9.3L517,212.1z"/>
					<g class="st59">
						<g>
							<defs>
								<rect id="SVGID_94_" x="308.7" y="193.4" width="189.7" height="45.5"/>
							</defs>
							<clipPath id="SVGID_95_">
								<use xlink:href="#SVGID_94_"  style="overflow:visible;"/>
							</clipPath>
							<path class="st60" d="M357.4,194.1c-6.2,0-17.6-3.6-35.5,5.3c-18,9-17.4,26.5-2.4,31.2c15,4.7,77,11.3,113,6.5
								c36-4.8,63-9.9,64.8-17.8c1.8-7.9,7.5-16.9-29.8-16.9c-37.2,0-73,1-88-3.7C364.4,194,357.4,194.1,357.4,194.1"/>
						</g>
					</g>
					<path class="st61" d="M445.2,143.8c0,20.4-16.5,36.9-36.9,36.9c-20.4,0-36.9-16.5-36.9-36.9c0-20.4,16.5-36.9,36.9-36.9
						C428.7,106.9,445.2,123.4,445.2,143.8"/>
					<path class="st62" d="M448.8,144c0,0-0.1,0.9-0.1,2.6c0,0.4,0,0.9-0.1,1.5c-0.1,0.6-0.2,1.2-0.3,1.9c-0.1,0.7-0.2,1.5-0.4,2.2
						c-0.2,0.8-0.4,1.5-0.6,2.4c-1,3.3-2.5,7.4-5.2,11.3c-2.7,4-6.5,8.1-11.5,11.2c-5,3.2-11.1,5.4-17.8,6.1
						c-0.8,0.1-1.7,0.1-2.5,0.1l-1.3,0l-0.6,0l-0.2,0l-0.1,0l-0.2,0l-0.3,0c-1.6-0.1-3.1-0.2-5-0.5c-3.6-0.5-6.9-1.7-10.2-3.2
						c-3.3-1.5-6.3-3.6-9.2-6c-2.8-2.4-5.2-5.3-7.3-8.4c-2-3.2-3.6-6.6-4.7-10.3l-0.7-2.8c-0.3-0.9-0.3-1.9-0.5-2.8
						c-0.1-0.9-0.3-1.9-0.3-2.8l-0.1-2.9c0.1-3.5,0.5-7.6,1.6-11.2c1.2-3.6,2.7-7.1,4.7-10.3c2.1-3.1,4.5-6,7.3-8.4
						c2.8-2.4,5.9-4.5,9.2-6c3.3-1.5,6.7-2.7,10.2-3.2c1.7-0.4,3.5-0.4,5.2-0.5l0.3,0l0.2,0l0.1,0c0,0,0.3,0,0.2,0l0.6,0l1.2,0
						c0.8,0,1.5,0,2.4,0.1c1.7,0.2,3.5,0.4,5,0.8c0.8,0.2,1.6,0.4,2.4,0.6c0.8,0.2,1.5,0.5,2.3,0.8c3,1,5.7,2.5,8.3,4
						c5,3.2,8.8,7.3,11.5,11.3c2.8,4,4.3,8,5.2,11.3c0.2,0.8,0.4,1.6,0.6,2.4c0.2,0.8,0.3,1.5,0.4,2.1c0.1,0.7,0.2,1.3,0.3,1.9
						c0.1,0.6,0.1,1.1,0.1,1.6c0.1,1.9,0.2,2.9,0.2,2.9L448.8,144z M441.6,143.8c0,0,0-0.8-0.1-2.4c0-0.4,0-0.8-0.1-1.3
						c-0.1-0.5-0.1-1-0.2-1.5c-0.1-0.5-0.1-1.1-0.3-1.8c-0.2-0.6-0.3-1.3-0.5-2c-0.8-2.7-2-6.1-4.1-9.4c-2.1-3.4-5.2-6.8-9.2-9.7
						c-2.1-1.4-4.3-2.7-6.8-3.7c-0.6-0.2-1.3-0.5-1.9-0.7c-0.7-0.2-1.3-0.4-2-0.6c-1.4-0.5-2.7-0.6-4-0.9c-0.7-0.1-1.5-0.1-2.3-0.2
						l-1.2-0.1l-0.6,0c-0.1,0,0.1,0,0.1,0l-0.1,0l-0.1,0l-0.3,0c-1.5,0.1-3,0-4.5,0.3c-3,0.3-6,1.2-9,2.3c-3,1.2-5.7,2.9-8.3,4.9
						c-2.6,2.1-4.8,4.6-6.8,7.3c-1.9,2.8-3.4,5.9-4.4,9.2c-1,3.3-1.4,6.5-1.6,10.3l0.1,2.5c0,0.9,0.2,1.7,0.3,2.6
						c0.2,0.8,0.2,1.7,0.5,2.5l0.7,2.5c1.1,3.3,2.5,6.4,4.4,9.2c2,2.7,4.2,5.3,6.8,7.3c2.6,2,5.4,3.7,8.3,4.9
						c0.7,0.4,1.5,0.5,2.2,0.8c0.8,0.2,1.5,0.5,2.2,0.7c0.8,0.2,1.5,0.3,2.3,0.5c0.7,0.2,1.5,0.2,2.2,0.3c1.4,0.3,3.1,0.2,4.7,0.3
						l0.3,0l0.1,0l0.1,0c0.1,0-0.2,0-0.1,0l0.6,0l1.1-0.1c0.7-0.1,1.5-0.1,2.2-0.2c5.7-0.8,10.8-3,14.9-5.9c4-2.9,7.1-6.3,9.2-9.7
						c2.2-3.4,3.4-6.7,4.1-9.4c0.2-0.7,0.3-1.4,0.5-2c0.1-0.6,0.2-1.2,0.3-1.7c0.1-0.5,0.2-1,0.2-1.4c0.1-0.4,0.1-1,0.1-1.4
						c0.1-1.7,0.1-2.6,0.1-2.6L441.6,143.8z"/>
				</g>
				<g class="st23">
					<defs>
						<path id="SVGID_96_" d="M375.8,144c0,17.7,14.1,32.1,31.4,32.1c17.4,0,31.4-14.4,31.4-32.1c0-17.7-14.1-32.1-31.4-32.1
							C389.9,111.9,375.8,126.2,375.8,144"/>
					</defs>
					<clipPath id="SVGID_97_">
						<use xlink:href="#SVGID_96_"  style="overflow:visible;"/>
					</clipPath>
					<path class="st63" d="M448.2,144.1c0,18.6-14.8,33.7-32.9,33.7c-18.2,0-32.9-15.1-32.9-33.7c0-18.6,14.8-33.7,32.9-33.7
						C433.4,110.4,448.2,125.5,448.2,144.1"/>
				</g>
				<g class="st23">
					<path class="st64" d="M476.8,56.1"/>
				</g>
				<path class="st65" d="M475.8,55.6L475.8,55.6c-2.6,1.2-4.2,2.6-6,4.3c-0.2,0.2-0.4,0.4-0.7,0.6c-3.3,3.1-6.4,6-12.7,6
					c-6.3,0-9.4-2.9-12.7-6c-3.4-3.2-6.9-6.4-13.8-6.4c-6.9,0-10.4,3.3-13.8,6.4c-3.3,3.1-6.4,6-12.7,6c-6.3,0-9.4-2.9-12.7-6
					l-0.5-0.4c-2-1.9-4-3.7-7.1-4.8l0,0l-1,1.3l0.1,0c3,1.1,5.1,3,7.3,5.1c3.4,3.2,6.9,6.4,13.8,6.4c6.9,0,10.4-3.3,13.8-6.4
					c3.3-3.1,6.4-6,12.7-6c6.3,0,9.4,2.9,12.7,6c3.4,3.2,6.9,6.4,13.8,6.4c6.9,0,10.4-3.3,13.8-6.4c0.2-0.2,0.5-0.4,0.7-0.7
					c1.7-1.6,3.3-3.1,5.7-4.1l0.1-0.1L475.8,55.6z"/>
				<path class="st37" d="M502.8,190.7"/>
				<g class="st23">
					<path class="st24" d="M775.7,220.4l0.3-0.8c-68.2-11.6-272.4-30-273.2-30.1l0,1.2C503.6,190.7,707.6,208.7,775.7,220.4z"/>
				</g>
				<path class="st66" d="M585.1,199.4c0,0,3.2-7.3,7.5-8.3c-9.6,0.4-17.5,7-17.5,7l-2.6-8.1l-2.9,7.4c0,0-3.1-7.3-10.5-8.5
					c3.9,6.4,2.3,9.5,2.3,9.5L585.1,199.4z"/>
				<g class="st23">
					<path class="st24" d="M575,198.5l-2.4-7l-2.8,7.1l-0.6-1.3c0-0.1-2.7-6.2-8.8-7.9c1.2,1.7,2.5,6.5,2.4,6.6l-1.4-0.1
						c0.1,0.1,0.4-0.5-2.7-7l-0.7-1.1l1.3,0.2c5.9,0.9,9.1,5.5,10.4,7.7l3.1-7.8l2.9,8.6c2.2-1.8,8.9-5.8,17.1-6.2l0.2,1.2
						c-3.9,0.9-7.3,7-7.3,7.1l-1.1-0.1c0.1-0.2,2.3-4.1,5.3-6.6c-7.9,1.5-14,6.1-14,6.2L575,198.5z"/>
				</g>
				<g class="st23">
					<path class="st24" d="M119.8,201.2l-0.1-1.2c140-13.5,233.6-11.5,234.6-11.5l0,1.2C353.3,189.7,259.7,187.7,119.8,201.2z"/>
				</g>
				<g class="st23">
					<path class="st24" d="M-26.7,219.8l-0.3-0.8c68.2-11.6,148.5-19.3,149.3-19.3l0,1.2C121.5,201,41.4,208.2-26.7,219.8z"/>
				</g>
				<path class="st66" d="M222.1,193.3c0,0-2.6-7.5-6.4-8.8c8.5,1.2,15.4,8.9,15.4,8.9l2.5-8.4l2.4,7.6c0,0,3-7,9.6-7.6
					c-3.6,6-2.3,9.3-2.3,9.3L222.1,193.3z"/>
				<g class="st23">
					<path class="st24" d="M231.6,194.3l-0.7-0.8c-0.1-0.1-5.4-5.9-12.2-8.1c2.5,2.7,4.2,7.6,4.3,7.9l-1.2-0.1c0-0.1-2.6-7.3-6-8.5
						l0.3-1.1c7.1,1,13,6.4,15,8.4l2.7-9.3l2.5,8.1c1.2-2.2,4.3-6.2,9.4-6.7l1.2-0.1l-0.6,1c-3.3,5.4-2.5,7.3-2.5,7.3c0,0,0,0,0,0
						l-1.1-0.1c-0.2-0.3-1-1.6,2-6.7c-5.4,1.2-7.9,7-7.9,7.1l-0.6,1.5l-2.3-7.2L231.6,194.3z"/>
				</g>
				<rect x="339.3" y="-185.3" class="st67" width="436.7" height="52.5"/>
				<g class="st23">
					<path class="st68" d="M348.6,5.4c-4.6,22.7-23.9,36-46.6,31.4c-22.7-4.6-37.3-23.9-32.8-46.6c4.6-22.7,26.6-36,49.3-31.4
						C341.2-36.6,353.2-17.2,348.6,5.4"/>
					<path class="st69" d="M343.7,4.5c-4,19.9-21,31.5-40.8,27.5c-19.9-4-32.7-21-28.7-40.8c4-19.9,23.4-31.5,43.2-27.5
						C337.3-32.3,347.7-15.4,343.7,4.5"/>
				</g>
			</g>
		</g>
	</g>
	<rect x="0.5" y="-53.1" class="st70" width="666.5" height="500.5"/>
</g>
</svg>
