<?xml version="1.0" encoding="utf-8"?>
<!-- Generator: Adobe Illustrator 19.1.0, SVG Export Plug-In . SVG Version: 6.00 Build 0)  -->
<svg version="1.1" id="Capa_1" xmlns="http://www.w3.org/2000/svg" xmlns:xlink="http://www.w3.org/1999/xlink" x="0px" y="0px"
	 viewBox="0 0 416.2 189.2" style="enable-background:new 0 0 416.2 189.2;" xml:space="preserve">
<style type="text/css">
	.st0{clip-path:url(#SVGID_2_);}
	.st1{clip-path:url(#SVGID_4_);fill:#33CC33;}
	.st2{clip-path:url(#SVGID_6_);}
	.st3{clip-path:url(#SVGID_8_);fill:#33BE33;}
	.st4{clip-path:url(#SVGID_10_);}
	.st5{clip-path:url(#SVGID_12_);}
	.st6{clip-path:url(#SVGID_14_);}
	.st7{clip-path:url(#SVGID_16_);fill:#33CC33;}
	.st8{clip-path:url(#SVGID_18_);}
	.st9{clip-path:url(#SVGID_20_);fill:#33CC33;}
	.st10{clip-path:url(#SVGID_22_);}
	.st11{clip-path:url(#SVGID_24_);fill:#33BE33;}
	.st12{clip-path:url(#SVGID_26_);}
	.st13{clip-path:url(#SVGID_28_);}
	.st14{clip-path:url(#SVGID_30_);}
	.st15{clip-path:url(#SVGID_32_);fill:#33BE33;}
	.st16{clip-path:url(#SVGID_34_);}
	.st17{clip-path:url(#SVGID_36_);}
	.st18{clip-path:url(#SVGID_38_);}
	.st19{clip-path:url(#SVGID_40_);fill:#33CC33;}
	.st20{clip-path:url(#SVGID_42_);}
	.st21{clip-path:url(#SVGID_44_);fill:#33BE33;}
	.st22{clip-path:url(#SVGID_46_);}
	.st23{clip-path:url(#SVGID_48_);}
	.st24{clip-path:url(#SVGID_50_);}
	.st25{clip-path:url(#SVGID_52_);fill:#33CC33;}
	.st26{clip-path:url(#SVGID_54_);}
	.st27{clip-path:url(#SVGID_56_);fill:#33CC33;}
	.st28{clip-path:url(#SVGID_58_);}
	.st29{clip-path:url(#SVGID_60_);fill:#33CC33;}
	.st30{clip-path:url(#SVGID_62_);}
	.st31{clip-path:url(#SVGID_64_);fill:#FFCC00;}
	.st32{clip-path:url(#SVGID_66_);}
	.st33{clip-path:url(#SVGID_68_);fill:#FFB400;}
	.st34{clip-path:url(#SVGID_70_);}
	.st35{clip-path:url(#SVGID_72_);fill:#FFB400;}
	.st36{clip-path:url(#SVGID_74_);}
	.st37{clip-path:url(#SVGID_76_);}
	.st38{clip-path:url(#SVGID_78_);}
	.st39{clip-path:url(#SVGID_80_);fill:#FFE0CE;}
	.st40{clip-path:url(#SVGID_82_);}
	.st41{clip-path:url(#SVGID_84_);fill:#FFABA0;}
	.st42{clip-path:url(#SVGID_86_);}
	.st43{clip-path:url(#SVGID_88_);fill:#FFABA0;}
	.st44{clip-path:url(#SVGID_90_);}
	.st45{clip-path:url(#SVGID_92_);fill:#FFABA0;}
	.st46{clip-path:url(#SVGID_94_);}
	.st47{clip-path:url(#SVGID_96_);fill:#FFABA0;}
	.st48{clip-path:url(#SVGID_98_);}
	.st49{clip-path:url(#SVGID_100_);fill:#FFABA0;}
	.st50{clip-path:url(#SVGID_102_);}
	.st51{clip-path:url(#SVGID_104_);fill:#FFF2E5;}
	.st52{clip-path:url(#SVGID_106_);}
	.st53{clip-path:url(#SVGID_108_);fill:#FFFFFF;}
	.st54{clip-path:url(#SVGID_110_);}
	.st55{clip-path:url(#SVGID_112_);fill:#FFF2E5;}
	.st56{clip-path:url(#SVGID_114_);}
	.st57{clip-path:url(#SVGID_116_);fill:#FFFFFF;}
	.st58{clip-path:url(#SVGID_118_);}
	.st59{clip-path:url(#SVGID_120_);fill:#FFF2E5;}
	.st60{clip-path:url(#SVGID_122_);}
	.st61{clip-path:url(#SVGID_124_);fill:#FFFFFF;}
	.st62{clip-path:url(#SVGID_126_);}
	.st63{clip-path:url(#SVGID_128_);fill:#FFABA0;}
	.st64{clip-path:url(#SVGID_130_);}
	.st65{clip-path:url(#SVGID_132_);fill:#FFABA0;}
	.st66{clip-path:url(#SVGID_134_);}
	.st67{clip-path:url(#SVGID_136_);fill:#472728;}
	.st68{clip-path:url(#SVGID_138_);}
	.st69{clip-path:url(#SVGID_140_);fill:#472728;}
	.st70{clip-path:url(#SVGID_142_);}
	.st71{clip-path:url(#SVGID_144_);enable-background:new    ;}
	.st72{clip-path:url(#SVGID_146_);}
	.st73{clip-path:url(#SVGID_148_);}
	.st74{clip-path:url(#SVGID_150_);fill:#472728;}
	.st75{clip-path:url(#SVGID_152_);}
	.st76{clip-path:url(#SVGID_154_);fill:#472728;}
	.st77{clip-path:url(#SVGID_156_);}
	.st78{clip-path:url(#SVGID_158_);fill:#472728;}
	.st79{clip-path:url(#SVGID_160_);}
	.st80{clip-path:url(#SVGID_162_);fill:#472728;}
	.st81{clip-path:url(#SVGID_164_);}
	.st82{clip-path:url(#SVGID_166_);fill:#472728;}
	.st83{clip-path:url(#SVGID_168_);}
	.st84{clip-path:url(#SVGID_170_);fill:#472728;}
	.st85{clip-path:url(#SVGID_172_);}
	.st86{clip-path:url(#SVGID_174_);fill:#472728;}
	.st87{clip-path:url(#SVGID_176_);}
	.st88{clip-path:url(#SVGID_178_);fill:#472728;}
	.st89{clip-path:url(#SVGID_180_);}
	.st90{clip-path:url(#SVGID_182_);fill:#472728;}
	.st91{clip-path:url(#SVGID_184_);}
	.st92{clip-path:url(#SVGID_186_);fill:#33CC33;}
	.st93{clip-path:url(#SVGID_188_);}
	.st94{clip-path:url(#SVGID_190_);fill:#33A033;}
</style>
<g>
	<defs>
		<path id="SVGID_1_" d="M9.4,84.2c0,31.4,24.7,57.1,55.7,58.8c0.6,0.1,1.3,0.1,2,0.1h4h51.9h-11.1h25.7c9.9,0,18-8.1,18-18v-12.8
			c0-3.3,2.3-6,5.4-6.6c9.7-2.4,16.8-11.1,16.8-21.5c0-10.4-7.2-19.1-16.8-21.5c0,0-0.1,0-0.1,0c-2.9-0.7-5.1-3.3-5.2-6.4
			c0,0,0-0.1,0-0.1l0,0l0-0.1c0,0,0,0,0,0l0-12.8c0-7.3-4.5-13.7-10.8-16.5c-2.2-1-4.6-1.5-7.1-1.5h-25.7h11.1H67.1
			c-0.7,0-1.3,0-2,0.1C34.1,27.1,9.4,52.8,9.4,84.2"/>
	</defs>
	<clipPath id="SVGID_2_">
		<use xlink:href="#SVGID_1_"  style="overflow:visible;"/>
	</clipPath>
	<g class="st0">
		<defs>
			<rect id="SVGID_3_" x="-319.2" y="-513.8" width="1024" height="768"/>
		</defs>
		<clipPath id="SVGID_4_">
			<use xlink:href="#SVGID_3_"  style="overflow:visible;"/>
		</clipPath>
		<rect x="4.4" y="20.3" class="st1" width="178.3" height="127.8"/>
	</g>
</g>
<g>
	<defs>
		<path id="SVGID_5_" d="M84.7,37.9c-26,0-47.1,21.1-47.1,47.1c0,14.5,6.6,27.5,17,36.2c2.7,2.3,5.8,4.3,9,5.9
			c2.4,1.2,4.9,2.2,7.5,3c4.3,1.3,8.9,2,13.7,2c6.9,0,13.5-1.5,19.4-4.2c5.3-2.4,10.1-5.7,14.1-9.8c2.2-2.2,4.1-4.6,5.8-7.1
			c4.9-7.5,7.8-16.4,7.8-26C131.8,59,110.7,37.9,84.7,37.9 M63.7,123.3c0.2-3,0.9-6.5,2.3-10.1l0.7,4.5c0.3,2.8,0.9,5.5,1.9,7.9
			C66.9,125,65.2,124.2,63.7,123.3 M105.8,123.3c0.7-2.9,1-6,0.7-9.3l-0.5-13.2c6,3.6,9.3,8.7,11.1,13.6
			C113.8,117.9,110,120.9,105.8,123.3 M122,107.7c-3.5-5.4-8.7-10.5-16.3-13.5l-1-26.1c-1.2-12.3-12.2-21.5-24.5-20.3
			C67.9,48.9,58.7,60,59.9,72.3l0.1,0.5c-2.3,1.8-3.7,4.7-3.4,7.8c0.3,3.4,2.6,6.2,5.6,7.4l2.2,14.8c-4.3,4.7-7.1,10.2-8.8,14.9
			C46.7,109.7,41,98,41,85c0-24.1,19.6-43.7,43.7-43.7c24.1,0,43.7,19.6,43.7,43.7C128.4,93.3,126.1,101.1,122,107.7"/>
	</defs>
	<clipPath id="SVGID_6_">
		<use xlink:href="#SVGID_5_"  style="overflow:visible;"/>
	</clipPath>
	<g class="st2">
		<defs>
			<rect id="SVGID_7_" x="-319.2" y="-513.8" width="1024" height="768"/>
		</defs>
		<clipPath id="SVGID_8_">
			<use xlink:href="#SVGID_7_"  style="overflow:visible;"/>
		</clipPath>
		<rect x="32.6" y="32.9" class="st3" width="104.2" height="104.2"/>
	</g>
</g>
<g>
	<defs>
		<path id="SVGID_9_" d="M84.7,37.9c-26,0-47.1,21.1-47.1,47.1c0,14.5,6.6,27.5,17,36.2c2.7,2.3,5.8,4.3,9,5.9
			c2.4,1.2,4.9,2.2,7.5,3c4.3,1.3,8.9,2,13.7,2c6.9,0,13.5-1.5,19.4-4.2c5.3-2.4,10.1-5.7,14.1-9.8c2.2-2.2,4.1-4.6,5.8-7.1
			c4.9-7.5,7.8-16.4,7.8-26C131.8,59,110.7,37.9,84.7,37.9 M63.7,123.3c0.2-3,0.9-6.5,2.3-10.1l0.7,4.5c0.3,2.8,0.9,5.5,1.9,7.9
			C66.9,125,65.2,124.2,63.7,123.3 M105.8,123.3c0.7-2.9,1-6,0.7-9.3l-0.5-13.2c6,3.6,9.3,8.7,11.1,13.6
			C113.8,117.9,110,120.9,105.8,123.3 M122,107.7c-3.5-5.4-8.7-10.5-16.3-13.5l-1-26.1c-1.2-12.3-12.2-21.5-24.5-20.3
			C67.9,48.9,58.7,60,59.9,72.3l0.1,0.5c-2.3,1.8-3.7,4.7-3.4,7.8c0.3,3.4,2.6,6.2,5.6,7.4l2.2,14.8c-4.3,4.7-7.1,10.2-8.8,14.9
			C46.7,109.7,41,98,41,85c0-24.1,19.6-43.7,43.7-43.7c24.1,0,43.7,19.6,43.7,43.7C128.4,93.3,126.1,101.1,122,107.7"/>
	</defs>
	<clipPath id="SVGID_10_">
		<use xlink:href="#SVGID_9_"  style="overflow:visible;"/>
	</clipPath>
	<g class="st4">
		<defs>
			<rect id="SVGID_11_" x="-319.2" y="-513.8" width="1024" height="768"/>
		</defs>
		<clipPath id="SVGID_12_">
			<use xlink:href="#SVGID_11_"  style="overflow:visible;"/>
		</clipPath>
		<rect x="32.6" y="32.9" class="st5" width="104.2" height="104.2"/>
	</g>
</g>
<g>
	<defs>
		<path id="SVGID_13_" d="M97.4,76.9c-0.4-3.9-3.6-6.8-7.4-6.8c-0.2,0-0.5,0-0.7,0c-2,0.2-3.8,1.1-5,2.7c-1.3,1.5-1.9,3.5-1.7,5.5
			c0.4,3.9,3.6,6.8,7.4,6.8c0.2,0,0.5,0,0.7,0c2-0.2,3.8-1.1,5-2.7C97,80.9,97.6,78.9,97.4,76.9"/>
	</defs>
	<clipPath id="SVGID_14_">
		<use xlink:href="#SVGID_13_"  style="overflow:visible;"/>
	</clipPath>
	<g class="st6">
		<defs>
			<rect id="SVGID_15_" x="-319.2" y="-513.8" width="1024" height="768"/>
		</defs>
		<clipPath id="SVGID_16_">
			<use xlink:href="#SVGID_15_"  style="overflow:visible;"/>
		</clipPath>
		<rect x="77.5" y="65.2" class="st7" width="24.9" height="24.9"/>
	</g>
</g>
<g>
	<defs>
		<path id="SVGID_17_" d="M70.1,74.8c-1.4-1.1-3.1-1.7-4.9-1.5c-3.7,0.3-6.4,3.6-6,7.3c0.2,1.8,1,3.4,2.4,4.5c1.2,1,2.7,1.5,4.3,1.5
			c0.2,0,0.4,0,0.6,0c1.8-0.2,3.4-1,4.5-2.4c1.1-1.4,1.7-3.1,1.5-4.9C72.3,77.5,71.4,75.9,70.1,74.8"/>
	</defs>
	<clipPath id="SVGID_18_">
		<use xlink:href="#SVGID_17_"  style="overflow:visible;"/>
	</clipPath>
	<g class="st8">
		<defs>
			<rect id="SVGID_19_" x="-319.2" y="-513.8" width="1024" height="768"/>
		</defs>
		<clipPath id="SVGID_20_">
			<use xlink:href="#SVGID_19_"  style="overflow:visible;"/>
		</clipPath>
		<rect x="54.1" y="68.2" class="st9" width="23.4" height="23.4"/>
	</g>
</g>
<g>
	<defs>
		<path id="SVGID_21_" d="M90.3,81.4c0.6-0.1,1-0.6,0.9-1.1l-0.5-5.5c-0.1-0.6-0.6-1-1.1-0.9c-0.6,0.1-1,0.6-0.9,1.1l0.5,5.5
			C89.3,81,89.8,81.5,90.3,81.4"/>
	</defs>
	<clipPath id="SVGID_22_">
		<use xlink:href="#SVGID_21_"  style="overflow:visible;"/>
	</clipPath>
	<g class="st10">
		<defs>
			<rect id="SVGID_23_" x="-319.2" y="-513.8" width="1024" height="768"/>
		</defs>
		<clipPath id="SVGID_24_">
			<use xlink:href="#SVGID_23_"  style="overflow:visible;"/>
		</clipPath>
		<rect x="83.7" y="68.9" class="st11" width="12.6" height="17.5"/>
	</g>
</g>
<g>
	<defs>
		<path id="SVGID_25_" d="M90.3,81.4c0.6-0.1,1-0.6,0.9-1.1l-0.5-5.5c-0.1-0.6-0.6-1-1.1-0.9c-0.6,0.1-1,0.6-0.9,1.1l0.5,5.5
			C89.3,81,89.8,81.5,90.3,81.4"/>
	</defs>
	<clipPath id="SVGID_26_">
		<use xlink:href="#SVGID_25_"  style="overflow:visible;"/>
	</clipPath>
	<g class="st12">
		<defs>
			<rect id="SVGID_27_" x="-319.2" y="-513.8" width="1024" height="768"/>
		</defs>
		<clipPath id="SVGID_28_">
			<use xlink:href="#SVGID_27_"  style="overflow:visible;"/>
		</clipPath>
		<rect x="83.7" y="68.9" class="st13" width="12.6" height="17.5"/>
	</g>
</g>
<g>
	<defs>
		<path id="SVGID_29_" d="M65.7,83.8c0.6-0.1,1-0.6,0.9-1.1l-0.5-5.5c-0.1-0.6-0.6-1-1.1-0.9c-0.6,0.1-1,0.6-0.9,1.1l0.5,5.5
			C64.6,83.4,65.1,83.8,65.7,83.8"/>
	</defs>
	<clipPath id="SVGID_30_">
		<use xlink:href="#SVGID_29_"  style="overflow:visible;"/>
	</clipPath>
	<g class="st14">
		<defs>
			<rect id="SVGID_31_" x="-319.2" y="-513.8" width="1024" height="768"/>
		</defs>
		<clipPath id="SVGID_32_">
			<use xlink:href="#SVGID_31_"  style="overflow:visible;"/>
		</clipPath>
		<rect x="59" y="71.2" class="st15" width="12.6" height="17.5"/>
	</g>
</g>
<g>
	<defs>
		<path id="SVGID_33_" d="M65.7,83.8c0.6-0.1,1-0.6,0.9-1.1l-0.5-5.5c-0.1-0.6-0.6-1-1.1-0.9c-0.6,0.1-1,0.6-0.9,1.1l0.5,5.5
			C64.6,83.4,65.1,83.8,65.7,83.8"/>
	</defs>
	<clipPath id="SVGID_34_">
		<use xlink:href="#SVGID_33_"  style="overflow:visible;"/>
	</clipPath>
	<g class="st16">
		<defs>
			<rect id="SVGID_35_" x="-319.2" y="-513.8" width="1024" height="768"/>
		</defs>
		<clipPath id="SVGID_36_">
			<use xlink:href="#SVGID_35_"  style="overflow:visible;"/>
		</clipPath>
		<rect x="59" y="71.2" class="st17" width="12.6" height="17.5"/>
	</g>
</g>
<g>
	<defs>
		<path id="SVGID_37_" d="M79.4,96.9c-3.7,0.3-7.4-0.6-10.3-2.7c-1.5-1.1-1.8-3.1-0.6-4.6c1.2-1.4,3.4-1.7,4.9-0.6
			c3.4,2.4,8.2,1.8,10.8-1.4c1.2-1.4,3.4-1.7,4.9-0.6c1.5,1.1,1.8,3.1,0.6,4.6c-2.4,2.9-5.9,4.8-9.8,5.3
			C79.7,96.8,79.6,96.9,79.4,96.9"/>
	</defs>
	<clipPath id="SVGID_38_">
		<use xlink:href="#SVGID_37_"  style="overflow:visible;"/>
	</clipPath>
	<g class="st18">
		<defs>
			<rect id="SVGID_39_" x="-319.2" y="-513.8" width="1024" height="768"/>
		</defs>
		<clipPath id="SVGID_40_">
			<use xlink:href="#SVGID_39_"  style="overflow:visible;"/>
		</clipPath>
		<rect x="62.7" y="81.3" class="st19" width="32.7" height="20.6"/>
	</g>
</g>
<g>
	<defs>
		<path id="SVGID_41_" d="M79.2,94.7c-3,0.3-6.1-0.5-8.7-2.3c-0.5-0.4-0.6-1-0.2-1.5c0.4-0.5,1.1-0.6,1.6-0.2
			c4.4,3.1,10.7,2.3,14.1-1.8c0.4-0.5,1.1-0.6,1.6-0.2c0.5,0.4,0.6,1,0.2,1.5C85.7,92.9,82.5,94.4,79.2,94.7"/>
	</defs>
	<clipPath id="SVGID_42_">
		<use xlink:href="#SVGID_41_"  style="overflow:visible;"/>
	</clipPath>
	<g class="st20">
		<defs>
			<rect id="SVGID_43_" x="-319.2" y="-513.8" width="1024" height="768"/>
		</defs>
		<clipPath id="SVGID_44_">
			<use xlink:href="#SVGID_43_"  style="overflow:visible;"/>
		</clipPath>
		<rect x="65.1" y="83.5" class="st21" width="28.1" height="16.3"/>
	</g>
</g>
<g>
	<defs>
		<path id="SVGID_45_" d="M79.2,94.7c-3,0.3-6.1-0.5-8.7-2.3c-0.5-0.4-0.6-1-0.2-1.5c0.4-0.5,1.1-0.6,1.6-0.2
			c4.4,3.1,10.7,2.3,14.1-1.8c0.4-0.5,1.1-0.6,1.6-0.2c0.5,0.4,0.6,1,0.2,1.5C85.7,92.9,82.5,94.4,79.2,94.7"/>
	</defs>
	<clipPath id="SVGID_46_">
		<use xlink:href="#SVGID_45_"  style="overflow:visible;"/>
	</clipPath>
	<g class="st22">
		<defs>
			<rect id="SVGID_47_" x="-319.2" y="-513.8" width="1024" height="768"/>
		</defs>
		<clipPath id="SVGID_48_">
			<use xlink:href="#SVGID_47_"  style="overflow:visible;"/>
		</clipPath>
		<rect x="65.1" y="83.5" class="st23" width="28.1" height="16.3"/>
	</g>
</g>
<g>
	<defs>
		<path id="SVGID_49_" d="M68.5,100.8c0.1,0.4,0.1,0.7,0.2,1c0.1,0.3,0.2,0.7,0.2,1c0.1,0.3,0.2,0.7,0.3,1c0.1,0.3,0.2,0.7,0.4,1
			c0.3,0.6,0.6,1.2,1.1,1.7c0.2,0.3,0.5,0.5,0.7,0.6c0.3,0.1,0.6,0.2,0.8,0.2c0.3-0.1,0.5-0.2,0.8-0.4c0.2-0.2,0.4-0.5,0.6-0.7
			c0.3-0.6,0.5-1.2,0.7-1.9c0.3-1.3,0.3-2.7,0.2-4.1l0.9-0.1c0.1,1.4,0.5,2.7,1,4c0.3,0.6,0.6,1.2,1,1.7c0.2,0.2,0.4,0.4,0.7,0.6
			c0.2,0.1,0.5,0.2,0.7,0.2c0.3-0.1,0.4-0.1,0.7-0.3c0.2-0.2,0.4-0.4,0.6-0.7c0.3-0.5,0.5-1.2,0.7-1.8c0.1-0.3,0.1-0.7,0.2-1
			c0-0.3,0.1-0.7,0.1-1c0-0.3,0-0.7,0-1c0-0.3,0-0.7-0.1-1l1.1-0.1c0.1,1.4,0.4,2.7,1,4c0.3,0.6,0.6,1.2,1,1.7
			c0.2,0.2,0.4,0.4,0.7,0.6c0.1,0.1,0.2,0.1,0.4,0.1c0.1,0,0.1,0,0.2,0l0.1,0l0,0l0,0h0l0,0h0c0,0,0.1,0-0.1,0l0.3-0.1
			c0.1,0,0.1-0.1,0.2-0.1c0.1,0,0.2-0.1,0.3-0.2c0.2-0.2,0.4-0.4,0.6-0.7c0.3-0.5,0.5-1.2,0.7-1.8c0.3-1.3,0.4-2.7,0.2-4.1l0.9-0.1
			c0.1,0.7,0.2,1.4,0.3,2c0.1,0.3,0.2,0.7,0.3,1c0.1,0.3,0.2,0.7,0.3,1c0.3,0.6,0.6,1.2,1,1.7c0.2,0.3,0.5,0.5,0.7,0.6
			c0.1,0.1,0.3,0.1,0.4,0.2c0.1,0,0.1,0.1,0.2,0l0.1,0l0.1,0l0,0l0,0l0,0h0c0,0,0,0,0,0c0.2,0,0.4-0.1,0.5-0.1
			c0.1,0,0.2-0.1,0.4-0.2c0.2-0.2,0.4-0.4,0.6-0.7c0.4-0.6,0.6-1.2,0.8-1.9c0.1-0.3,0.2-0.7,0.2-1c0.1-0.3,0.1-0.7,0.1-1
			c0-0.7,0-1.4,0-2.1v0c0-0.1,0.1-0.2,0.1-0.2c0.1,0,0.2,0.1,0.2,0.1c0.1,0.7,0.1,1.4,0.1,2.2c0,0.4,0,0.7-0.1,1.1
			c0,0.4-0.1,0.7-0.2,1.1c-0.1,0.7-0.4,1.4-0.7,2.1c-0.2,0.3-0.4,0.6-0.7,0.9c-0.2,0.1-0.3,0.3-0.5,0.3c-0.2,0.1-0.4,0.1-0.6,0.2
			c-0.5,0.1-0.9-0.1-1.3-0.3c-0.3-0.2-0.7-0.5-0.9-0.8c-0.5-0.6-0.9-1.2-1.2-1.9c-0.6-1.4-0.9-2.8-1.1-4.3c0-0.3,0.2-0.5,0.4-0.5
			c0.3,0,0.5,0.2,0.5,0.4l0,0v0c0.1,1.5,0.1,2.9-0.2,4.4c-0.2,0.7-0.4,1.5-0.8,2.1c-0.2,0.3-0.5,0.7-0.8,1c-0.1,0.1-0.2,0.1-0.3,0.2
			c-0.1,0.1-0.2,0.1-0.3,0.2c-0.3,0.1-0.4,0.1-0.6,0.2c-0.1,0,0,0-0.1,0h0h0h0h0h-0.1l-0.2,0c-0.1,0-0.2,0-0.3-0.1
			c-0.2,0-0.4-0.2-0.6-0.3c-0.4-0.2-0.7-0.5-0.9-0.8c-0.5-0.6-0.9-1.3-1.2-2c-0.6-1.4-0.9-2.8-1.1-4.3c0-0.3,0.2-0.6,0.5-0.6
			c0.3,0,0.6,0.2,0.6,0.5l0,0c0.1,1.5,0.1,3-0.3,4.4c-0.2,0.7-0.4,1.5-0.8,2.1c-0.2,0.3-0.5,0.7-0.8,1c-0.3,0.3-0.8,0.5-1.2,0.5
			c-0.5,0-0.9-0.1-1.3-0.3c-0.4-0.2-0.7-0.5-0.9-0.8c-0.5-0.6-0.9-1.3-1.2-2c-0.6-1.4-0.9-2.8-1-4.3v0c0-0.2,0.2-0.4,0.4-0.5
			c0.2,0,0.4,0.2,0.5,0.4l0,0c0.1,1.5,0.1,2.9-0.3,4.4c-0.2,0.7-0.4,1.4-0.8,2.1c-0.2,0.3-0.4,0.6-0.8,0.9c-0.3,0.3-0.8,0.5-1.2,0.5
			c-0.4,0-0.9-0.1-1.2-0.3c-0.3-0.2-0.6-0.5-0.9-0.8c-0.5-0.6-0.8-1.2-1.1-1.9c-0.1-0.3-0.3-0.7-0.4-1c-0.1-0.3-0.2-0.7-0.3-1.1
			c-0.1-0.4-0.1-0.7-0.2-1.1c-0.1-0.4-0.1-0.7-0.1-1.1c0-0.1,0.1-0.2,0.1-0.2C68.4,100.7,68.5,100.7,68.5,100.8"/>
	</defs>
	<clipPath id="SVGID_50_">
		<use xlink:href="#SVGID_49_"  style="overflow:visible;"/>
	</clipPath>
	<g class="st24">
		<defs>
			<rect id="SVGID_51_" x="-319.2" y="-513.8" width="1024" height="768"/>
		</defs>
		<clipPath id="SVGID_52_">
			<use xlink:href="#SVGID_51_"  style="overflow:visible;"/>
		</clipPath>
		<rect x="63.2" y="93.2" class="st25" width="36.6" height="19.9"/>
	</g>
</g>
<g>
	<defs>
		<path id="SVGID_53_" d="M74.3,109.7c0,0.7,0.1,1.4,0.2,2.1c0,0.3,0.1,0.7,0.2,1c0.1,0.3,0.1,0.7,0.2,1c0.2,0.7,0.4,1.3,0.8,1.9
			c0.2,0.3,0.3,0.6,0.6,0.8c0.2,0.2,0.5,0.4,0.7,0.5c0.2,0.1,0.4,0.2,0.6,0.2l0,0h0c0.1,0-0.1,0-0.1,0l0,0l0,0l0.1,0l0.1,0l0.1,0
			l0,0c0,0,0,0,0,0c0,0,0.1,0,0.1-0.1c0,0,0.1-0.1,0.1-0.1c0.2-0.2,0.3-0.4,0.5-0.7c0.1-0.3,0.2-0.6,0.3-0.9
			c0.2-0.6,0.3-1.3,0.3-1.9c0-0.3,0-0.7,0-1c0-0.3,0-0.7,0-1l1.1-0.1c0.1,1.1,0.3,2.3,0.8,3.3c0.2,0.5,0.5,1,0.8,1.4
			c0.2,0.2,0.4,0.4,0.5,0.5c0.2,0.1,0.4,0.2,0.6,0.2c0.3,0,0.3-0.1,0.5-0.3c0.2-0.2,0.3-0.3,0.5-0.6c0.3-0.5,0.5-1,0.6-1.5
			c0.3-1.1,0.3-2.3,0.2-3.4l0.8-0.1c0.1,1.2,0.3,2.3,0.8,3.4c0.2,0.5,0.5,1,0.8,1.5c0.2,0.2,0.4,0.4,0.6,0.5
			c0.2,0.1,0.5,0.2,0.6,0.2c0.2,0,0.3-0.1,0.4-0.1c0.1,0,0.2-0.1,0.3-0.2c0.2-0.2,0.4-0.4,0.5-0.6c0.3-0.5,0.5-1,0.6-1.6
			c0.3-1.1,0.3-2.3,0.2-3.5c0-0.1,0-0.1,0.1-0.1c0.1,0,0.1,0,0.1,0.1c0.1,1.2,0.1,2.4-0.1,3.6c-0.1,0.6-0.3,1.2-0.6,1.8
			c-0.1,0.3-0.3,0.5-0.6,0.8c-0.1,0.1-0.2,0.2-0.4,0.3c-0.2,0.1-0.3,0.1-0.5,0.2c-0.4,0-0.7-0.1-1.1-0.2c-0.3-0.2-0.5-0.4-0.8-0.6
			c-0.4-0.5-0.7-1-1-1.6c-0.5-1.1-0.8-2.4-0.9-3.6c0-0.2,0.1-0.4,0.3-0.4c0.2,0,0.4,0.1,0.4,0.3v0l0,0c0.1,1.2,0.1,2.5-0.1,3.7
			c-0.1,0.6-0.3,1.2-0.6,1.8c-0.2,0.3-0.4,0.6-0.6,0.8c-0.3,0.2-0.7,0.5-1.1,0.5c-0.4,0-0.8-0.1-1.1-0.3c-0.3-0.2-0.6-0.4-0.8-0.7
			c-0.4-0.5-0.7-1.1-1-1.7c-0.5-1.2-0.8-2.4-0.9-3.6c0-0.3,0.2-0.6,0.5-0.6c0.3,0,0.6,0.2,0.6,0.5c0,0,0,0,0,0
			c0,0.4,0.1,0.7,0.1,1.1c0,0.4,0,0.7,0,1.1c0,0.7-0.1,1.4-0.3,2.2c-0.1,0.4-0.2,0.7-0.4,1.1c-0.2,0.3-0.4,0.7-0.7,1
			c-0.1,0.1-0.2,0.2-0.3,0.2c-0.1,0.1-0.2,0.1-0.3,0.2l-0.2,0.1l-0.1,0l-0.1,0l-0.1,0l-0.1,0l0,0l-0.1,0h0h0c-0.5,0-1-0.2-1.3-0.5
			c-0.3-0.3-0.5-0.6-0.7-0.9c-0.2-0.3-0.3-0.7-0.5-1c-0.3-0.7-0.5-1.3-0.6-2c-0.1-0.3-0.1-0.7-0.2-1c-0.1-0.4-0.1-0.7-0.1-1
			c-0.1-0.7-0.1-1.4-0.2-2.1c0-0.1,0-0.1,0.1-0.1C74.2,109.5,74.3,109.6,74.3,109.7C74.3,109.7,74.3,109.7,74.3,109.7"/>
	</defs>
	<clipPath id="SVGID_54_">
		<use xlink:href="#SVGID_53_"  style="overflow:visible;"/>
	</clipPath>
	<g class="st26">
		<defs>
			<rect id="SVGID_55_" x="-319.2" y="-513.8" width="1024" height="768"/>
		</defs>
		<clipPath id="SVGID_56_">
			<use xlink:href="#SVGID_55_"  style="overflow:visible;"/>
		</clipPath>
		<rect x="69" y="104.6" class="st27" width="26.8" height="18.7"/>
	</g>
</g>
<g>
	<defs>
		<path id="SVGID_57_" d="M98.5,85.9c-0.2,0-0.4-0.1-0.5-0.3c-0.2-0.3-0.1-0.6,0.2-0.8c2.7-1.7,4.2-4.6,3.9-7.8
			c-0.3-2.8-1.9-5.3-4.5-6.5c-0.3-0.1-0.4-0.5-0.2-0.8c0.1-0.3,0.5-0.4,0.8-0.2c2.9,1.5,4.8,4.3,5.1,7.5c0.3,3.6-1.4,7-4.4,8.9
			C98.7,85.8,98.6,85.9,98.5,85.9"/>
	</defs>
	<clipPath id="SVGID_58_">
		<use xlink:href="#SVGID_57_"  style="overflow:visible;"/>
	</clipPath>
	<g class="st28">
		<defs>
			<rect id="SVGID_59_" x="-319.2" y="-513.8" width="1024" height="768"/>
		</defs>
		<clipPath id="SVGID_60_">
			<use xlink:href="#SVGID_59_"  style="overflow:visible;"/>
		</clipPath>
		<rect x="92.4" y="64.4" class="st29" width="15.9" height="26.5"/>
	</g>
</g>
<g>
	<defs>
		<path id="SVGID_61_" d="M182.4,144.1c-10.7,0-19.4-8.7-19.4-19.4v-12.9c0-3.8,2.8-7.1,6.5-7.9c9.2-2.3,15.7-10.6,15.7-20.2
			c0-9.6-6.5-17.9-15.8-20.2c0,0-0.1,0-0.1,0c-3.5-0.8-6.1-3.8-6.3-7.4l0-0.1l0-0.5l0-12.8c0-10.7,8.7-19.3,19.4-19.3h67.3
			c5.2,0,10,2,13.7,5.7c3.7,3.7,5.7,8.5,5.7,13.7l0,12.9c0.1,2.5,1.8,4.6,4.1,5.1h0c0,0,0.1,0,0.1,0c10.5,2.6,17.9,12,17.9,22.9
			c0,10.8-7.3,20.3-17.9,22.9c-2.5,0.5-4.3,2.7-4.3,5.3v12.8c0,10.7-8.7,19.4-19.4,19.4H182.4z"/>
	</defs>
	<clipPath id="SVGID_62_">
		<use xlink:href="#SVGID_61_"  style="overflow:visible;"/>
	</clipPath>
	<g class="st30">
		<defs>
			<rect id="SVGID_63_" x="-319.2" y="-513.8" width="1024" height="768"/>
		</defs>
		<clipPath id="SVGID_64_">
			<use xlink:href="#SVGID_63_"  style="overflow:visible;"/>
		</clipPath>
		<rect x="158" y="18.5" class="st31" width="138.2" height="130.6"/>
	</g>
</g>
<g>
	<defs>
		<path id="SVGID_65_" d="M249.7,24.9c9.9,0,18,8.1,18,18v7.9v5l0,0c0,0,0,0.1,0,0.1c0.1,3.1,2.3,5.7,5.2,6.4c0,0,0.1,0,0.1,0
			c9.7,2.4,16.8,11.1,16.8,21.5c0,10.4-7.2,19.1-16.8,21.5c-3.1,0.6-5.4,3.4-5.4,6.6v7.2v5.7c0,9.9-8.1,18-18,18h-26.7h-14h-26.7
			c-9.9,0-18-8.1-18-18v-7.9v-5c0-3.2,2.3-5.9,5.4-6.5c9.7-2.4,16.8-11.1,16.8-21.5c0-10.4-7.2-19.1-16.8-21.5c0,0-0.1,0-0.1,0
			c-2.9-0.7-5.1-3.3-5.2-6.4c0,0,0-0.1,0-0.1l0,0c0,0,0-0.1,0-0.1v-7.2v-5.7c0-9.9,8.1-18,18-18h26.7h14H249.7 M249.7,22.1h-26.7
			h-14h-26.7c-11.4,0-20.8,9.3-20.8,20.7v5.7v7.1l-0.1,0.9l0.1,0.2c0.4,4,3.3,7.4,7.3,8.3c0.1,0,0.1,0,0.2,0
			c8.6,2.2,14.6,9.9,14.6,18.8c0,8.9-6,16.6-14.7,18.8c-4.3,0.9-7.5,4.8-7.5,9.2v5.1v7.9c0,11.4,9.3,20.7,20.8,20.7h26.7h14h26.7
			c11.4,0,20.8-9.3,20.8-20.7v-5.7V112c0-1.9,1.3-3.5,3.2-3.9l0.1,0l0,0c11.1-2.8,18.9-12.7,18.9-24.2c0-11.5-7.8-21.5-18.9-24.2
			c-0.1,0-0.2,0-0.2-0.1c-1.7-0.4-2.9-1.9-3-3.7V55l0,0v-4.2v-7.9c0-5.5-2.2-10.7-6.1-14.7C260.5,24.3,255.3,22.1,249.7,22.1"/>
	</defs>
	<clipPath id="SVGID_66_">
		<use xlink:href="#SVGID_65_"  style="overflow:visible;"/>
	</clipPath>
	<g class="st32">
		<defs>
			<rect id="SVGID_67_" x="-319.2" y="-513.8" width="1024" height="768"/>
		</defs>
		<clipPath id="SVGID_68_">
			<use xlink:href="#SVGID_67_"  style="overflow:visible;"/>
		</clipPath>
		<rect x="156.6" y="17.1" class="st33" width="141.1" height="133.4"/>
	</g>
</g>
<g>
	<defs>
		<path id="SVGID_69_" d="M245.8,80.1l-15.3-15.3c-1.3-1.3-3.4-1.3-4.8,0c-1.3,1.3-1.3,3.4,0,4.8l9.5,9.5H203
			c-1.9,0-3.4,1.5-3.4,3.4c0,1.9,1.5,3.4,3.4,3.4h32.3l-9.5,9.5c-1.3,1.3-1.3,3.4,0,4.8c0.7,0.7,1.5,1,2.4,1c0.9,0,1.7-0.3,2.4-1
			l15.3-15.3C247.1,83.5,247.1,81.4,245.8,80.1"/>
	</defs>
	<clipPath id="SVGID_70_">
		<use xlink:href="#SVGID_69_"  style="overflow:visible;"/>
	</clipPath>
	<g class="st34">
		<defs>
			<rect id="SVGID_71_" x="-319.2" y="-513.8" width="1024" height="768"/>
		</defs>
		<clipPath id="SVGID_72_">
			<use xlink:href="#SVGID_71_"  style="overflow:visible;"/>
		</clipPath>
		<rect x="194.6" y="58.8" class="st35" width="57.2" height="47.2"/>
	</g>
</g>
<g>
	<defs>
		<path id="SVGID_73_" d="M245.8,80.1l-15.3-15.3c-1.3-1.3-3.4-1.3-4.8,0c-1.3,1.3-1.3,3.4,0,4.8l9.5,9.5H203
			c-1.9,0-3.4,1.5-3.4,3.4c0,1.9,1.5,3.4,3.4,3.4h32.3l-9.5,9.5c-1.3,1.3-1.3,3.4,0,4.8c0.7,0.7,1.5,1,2.4,1c0.9,0,1.7-0.3,2.4-1
			l15.3-15.3C247.1,83.5,247.1,81.4,245.8,80.1"/>
	</defs>
	<clipPath id="SVGID_74_">
		<use xlink:href="#SVGID_73_"  style="overflow:visible;"/>
	</clipPath>
	<g class="st36">
		<defs>
			<rect id="SVGID_75_" x="-319.2" y="-513.8" width="1024" height="768"/>
		</defs>
		<clipPath id="SVGID_76_">
			<use xlink:href="#SVGID_75_"  style="overflow:visible;"/>
		</clipPath>
		<rect x="194.6" y="58.8" class="st37" width="57.2" height="47.2"/>
	</g>
</g>
<g>
	<defs>
		<path id="SVGID_77_" d="M252.6,59.7c0,0,4.8-7.2,12.9-1.7c4.9,3.2,14.9,7,24,10c4.2-2.9,9.7-4.2,15.4-4.6l0-0.1
			c0,0,6.5-10.8,18.4-9.5c11.9,1.3,48.1,6,62.4,39.2l-0.1,0c0.6,2.2,5,25-5.2,35.4c-10.8,10.9-10,26.7-55.9,28.3
			c-45.8,1.6-30.4-21.1-47.9-23.6l-12.4-5.8c0,0-3.9-10.2,6.5-15.3c10.4-5.1,23,4.6,23,4.6s12.9,16.9,17.6,17
			c4.7,0.1,5.7-5.4-8.7-13.9c-1.8-1.1-3-2.1-3.8-3.1c-4.7-2.5-8.8-4.5-10.3-5.3c-1.8-1-15.1-7.8-24-16.5c-1.4-1.4-2.7-2.8-3.9-4.3
			l-0.3,0.1C260.4,90.5,238.1,79.4,252.6,59.7"/>
	</defs>
	<clipPath id="SVGID_78_">
		<use xlink:href="#SVGID_77_"  style="overflow:visible;"/>
	</clipPath>
	<g class="st38">
		<defs>
			<rect id="SVGID_79_" x="-319.2" y="-513.8" width="1024" height="768"/>
		</defs>
		<clipPath id="SVGID_80_">
			<use xlink:href="#SVGID_79_"  style="overflow:visible;"/>
		</clipPath>
		<rect x="242.7" y="48.6" class="st39" width="149.3" height="113.2"/>
	</g>
</g>
<g>
	<defs>
		<path id="SVGID_81_" d="M316.7,133l-2.3-4.9l-6.1-5.6l-13.1-8.2l-17.8-10.2l-9.5-7.4l-6.6-6.4l-3.8-8.7l1.3-5.3l3.1-3.8
			c0,0-3.3,5.9,4.8,15.6c8.1,9.6,50.3,27.4,53.1,38.9c0,0.1,0,0.1,0,0.2C320,127.2,321.5,132.8,316.7,133"/>
	</defs>
	<clipPath id="SVGID_82_">
		<use xlink:href="#SVGID_81_"  style="overflow:visible;"/>
	</clipPath>
	<g class="st40">
		<defs>
			<rect id="SVGID_83_" x="-319.2" y="-513.8" width="1024" height="768"/>
		</defs>
		<clipPath id="SVGID_84_">
			<use xlink:href="#SVGID_83_"  style="overflow:visible;"/>
		</clipPath>
		<rect x="252.5" y="67.5" class="st41" width="72.7" height="70.5"/>
	</g>
</g>
<g>
	<defs>
		<path id="SVGID_85_" d="M248.6,63.4l-2.2,5.4v5.9l1,4.3l3.1,4.5l2.7,3.3l6.1,3.9l2.2-1.4l-2.5-4C259,85.3,248.8,78.3,248.6,63.4"
			/>
	</defs>
	<clipPath id="SVGID_86_">
		<use xlink:href="#SVGID_85_"  style="overflow:visible;"/>
	</clipPath>
	<g class="st42">
		<defs>
			<rect id="SVGID_87_" x="-319.2" y="-513.8" width="1024" height="768"/>
		</defs>
		<clipPath id="SVGID_88_">
			<use xlink:href="#SVGID_87_"  style="overflow:visible;"/>
		</clipPath>
		<rect x="241.4" y="58.4" class="st43" width="25.1" height="37.3"/>
	</g>
</g>
<g>
	<defs>
		<path id="SVGID_89_" d="M313.3,91.4l-30.6-16.7c0,0,4.4,9.2,30.5,17"/>
	</defs>
	<clipPath id="SVGID_90_">
		<use xlink:href="#SVGID_89_"  style="overflow:visible;"/>
	</clipPath>
	<g class="st44">
		<defs>
			<rect id="SVGID_91_" x="-319.2" y="-513.8" width="1024" height="768"/>
		</defs>
		<clipPath id="SVGID_92_">
			<use xlink:href="#SVGID_91_"  style="overflow:visible;"/>
		</clipPath>
		<rect x="277.7" y="69.7" class="st45" width="40.6" height="27"/>
	</g>
</g>
<g>
	<defs>
		<polygon id="SVGID_93_" points="291.8,67.4 321.5,76.9 287.5,68.6 		"/>
	</defs>
	<clipPath id="SVGID_94_">
		<use xlink:href="#SVGID_93_"  style="overflow:visible;"/>
	</clipPath>
	<g class="st46">
		<defs>
			<rect id="SVGID_95_" x="-319.2" y="-513.8" width="1024" height="768"/>
		</defs>
		<clipPath id="SVGID_96_">
			<use xlink:href="#SVGID_95_"  style="overflow:visible;"/>
		</clipPath>
		<rect x="282.5" y="62.4" class="st47" width="44" height="19.5"/>
	</g>
</g>
<g>
	<defs>
		<path id="SVGID_97_" d="M307.5,61c0,0,23.3,2.5,26.7,6.5l-7.8-1.9l-5.6-1h-3.2L305.1,64L307.5,61z"/>
	</defs>
	<clipPath id="SVGID_98_">
		<use xlink:href="#SVGID_97_"  style="overflow:visible;"/>
	</clipPath>
	<g class="st48">
		<defs>
			<rect id="SVGID_99_" x="-319.2" y="-513.8" width="1024" height="768"/>
		</defs>
		<clipPath id="SVGID_100_">
			<use xlink:href="#SVGID_99_"  style="overflow:visible;"/>
		</clipPath>
		<rect x="300.1" y="56" class="st49" width="39.1" height="16.5"/>
	</g>
</g>
<g>
	<defs>
		<path id="SVGID_101_" d="M265.9,70.7c0.1,0,1.7-0.8,3.8-0.8c2.1,0,4,0.7,5.5,2.2c4.7,4.3,6.9,6.5,7.4,7.2c0.4,0.6,1,1.4-8.7,8.7
			c-0.1,0.1-0.3,0.1-0.4,0.1c-0.1,0-0.2,0-0.3-0.1c-0.5-0.2-11.8-6.2-11.7-12C261.5,73.9,263,72.1,265.9,70.7 M274.2,86.6
			c0.1,0.2,0.3,0.3,0.5,0.3c0.2,0,0.3-0.1,0.4-0.2l6.1-5c0.1-0.1,0.2-0.3,0.3-0.5c0-0.2,0-0.4-0.2-0.5c-0.1-0.2-0.3-0.3-0.4-0.5
			c-0.8-0.8-1.6-1.2-2.5-1.2c-1.3,0-2.5,0.8-3.2,1.5c-1.1,0.9-1.7,1.7-2,2.6c-0.3,1,0,2,0.7,3.1C274.1,86.3,274.1,86.4,274.2,86.6"
			/>
	</defs>
	<clipPath id="SVGID_102_">
		<use xlink:href="#SVGID_101_"  style="overflow:visible;"/>
	</clipPath>
	<g class="st50">
		<defs>
			<rect id="SVGID_103_" x="-319.2" y="-513.8" width="1024" height="768"/>
		</defs>
		<clipPath id="SVGID_104_">
			<use xlink:href="#SVGID_103_"  style="overflow:visible;"/>
		</clipPath>
		<rect x="256.5" y="64.9" class="st51" width="31.3" height="28.2"/>
	</g>
</g>
<g>
	<defs>
		<path id="SVGID_105_" d="M273.2,83.1c0.2-0.9,0.9-1.7,2-2.6c0.8-0.6,1.9-1.5,3.2-1.5c0.9,0,1.8,0.4,2.5,1.2
			c0.1,0.1,0.3,0.3,0.4,0.5c0.1,0.1,0.2,0.3,0.2,0.5c0,0.2-0.1,0.4-0.3,0.5l-6.1,5c-0.1,0.1-0.3,0.2-0.4,0.2c-0.2,0-0.4-0.1-0.5-0.3
			c-0.1-0.1-0.2-0.3-0.3-0.4C273.2,85.1,273,84.1,273.2,83.1"/>
	</defs>
	<clipPath id="SVGID_106_">
		<use xlink:href="#SVGID_105_"  style="overflow:visible;"/>
	</clipPath>
	<g class="st52">
		<defs>
			<rect id="SVGID_107_" x="-319.2" y="-513.8" width="1024" height="768"/>
		</defs>
		<clipPath id="SVGID_108_">
			<use xlink:href="#SVGID_107_"  style="overflow:visible;"/>
		</clipPath>
		<rect x="268.1" y="74" class="st53" width="18.4" height="17.8"/>
	</g>
</g>
<g>
	<defs>
		<path id="SVGID_109_" d="M251.9,61.2c2.6-4,6.8-4.7,10.5-1.6c2.7,2.2,9.2,4.3,9.3,4.3c0.2,0.1,0.4,0.3,0.4,0.5
			c0.1,0.2,0,0.5-0.2,0.6l-2,1.7c0.1-0.1,0.2-0.3,0.2-0.5c0-0.2-0.1-0.4-0.2-0.5c-0.1-0.1-0.3-0.2-0.4-0.3c-0.8-0.6-1.6-1-2.4-1
			c-1.5,0-2.6,1.1-3.4,1.9c-0.9,1-1.4,1.8-1.6,2.6c0,0,0,0.1,0,0.1c0,0.1,0,0.5,0,0.6c0,0.3,0.2,0.7,0.4,1c-2.6,1.5-4.2,3.3-4.3,3.3
			c-0.1,0.2-0.3,0.2-0.5,0.2c-0.1,0-0.1,0-0.2,0c-2.1-0.6-3.8-1.4-6.4-3.7C251,70.4,247.6,67.8,251.9,61.2"/>
	</defs>
	<clipPath id="SVGID_110_">
		<use xlink:href="#SVGID_109_"  style="overflow:visible;"/>
	</clipPath>
	<g class="st54">
		<defs>
			<rect id="SVGID_111_" x="-319.2" y="-513.8" width="1024" height="768"/>
		</defs>
		<clipPath id="SVGID_112_">
			<use xlink:href="#SVGID_111_"  style="overflow:visible;"/>
		</clipPath>
		<rect x="244.7" y="52.7" class="st55" width="32.4" height="26.5"/>
	</g>
</g>
<g>
	<defs>
		<polygon id="SVGID_113_" points="269.1,66 269,65.8 267.9,65.2 266.9,65.2 264.8,66 263.4,67.1 262.8,68.7 265.3,68.1 267.4,67.4 
					"/>
	</defs>
	<clipPath id="SVGID_114_">
		<use xlink:href="#SVGID_113_"  style="overflow:visible;"/>
	</clipPath>
	<g class="st56">
		<defs>
			<rect id="SVGID_115_" x="-319.2" y="-513.8" width="1024" height="768"/>
		</defs>
		<clipPath id="SVGID_116_">
			<use xlink:href="#SVGID_115_"  style="overflow:visible;"/>
		</clipPath>
		<rect x="257.8" y="60.2" class="st57" width="16.4" height="13.5"/>
	</g>
</g>
<g>
	<defs>
		<polygon id="SVGID_117_" points="284.1,118.2 280.8,116.8 276.3,115.9 272.8,115.9 271.3,116.7 269.5,118.8 268.4,121.6 
			268.4,123.9 269.4,125.8 272.2,126.9 275.6,128.2 278.4,129.4 284.6,119.2 		"/>
	</defs>
	<clipPath id="SVGID_118_">
		<use xlink:href="#SVGID_117_"  style="overflow:visible;"/>
	</clipPath>
	<g class="st58">
		<defs>
			<rect id="SVGID_119_" x="-319.2" y="-513.8" width="1024" height="768"/>
		</defs>
		<clipPath id="SVGID_120_">
			<use xlink:href="#SVGID_119_"  style="overflow:visible;"/>
		</clipPath>
		<rect x="263.4" y="110.9" class="st59" width="26.2" height="23.6"/>
	</g>
</g>
<g>
	<defs>
		<polygon id="SVGID_121_" points="282.7,120.6 281.5,120.3 279.8,120.7 279,121.6 278.2,123 277.5,124.3 277.5,125.3 278.3,127.1 
			279.4,128.1 283.3,121.4 		"/>
	</defs>
	<clipPath id="SVGID_122_">
		<use xlink:href="#SVGID_121_"  style="overflow:visible;"/>
	</clipPath>
	<g class="st60">
		<defs>
			<rect id="SVGID_123_" x="-319.2" y="-513.8" width="1024" height="768"/>
		</defs>
		<clipPath id="SVGID_124_">
			<use xlink:href="#SVGID_123_"  style="overflow:visible;"/>
		</clipPath>
		<rect x="272.5" y="115.3" class="st61" width="15.8" height="17.7"/>
	</g>
</g>
<g>
	<defs>
		<path id="SVGID_125_" d="M315.9,133.9c0,0-7.2-1-15.6-13c-8.4-12-27-11.8-30.8-6.7c0,0,15.6-7.7,28.5,9.9
			C310.9,141.7,315.9,133.9,315.9,133.9"/>
	</defs>
	<clipPath id="SVGID_126_">
		<use xlink:href="#SVGID_125_"  style="overflow:visible;"/>
	</clipPath>
	<g class="st62">
		<defs>
			<rect id="SVGID_127_" x="-319.2" y="-513.8" width="1024" height="768"/>
		</defs>
		<clipPath id="SVGID_128_">
			<use xlink:href="#SVGID_127_"  style="overflow:visible;"/>
		</clipPath>
		<rect x="264.4" y="105.9" class="st63" width="56.5" height="34.7"/>
	</g>
</g>
<g>
	<defs>
		<polygon id="SVGID_129_" points="389.2,102.2 318.8,157.3 328.9,159.9 395.9,112.1 		"/>
	</defs>
	<clipPath id="SVGID_130_">
		<use xlink:href="#SVGID_129_"  style="overflow:visible;"/>
	</clipPath>
	<g class="st64">
		<defs>
			<rect id="SVGID_131_" x="-319.2" y="-513.8" width="1024" height="768"/>
		</defs>
		<clipPath id="SVGID_132_">
			<use xlink:href="#SVGID_131_"  style="overflow:visible;"/>
		</clipPath>
		<rect x="313.8" y="97.2" class="st65" width="87.1" height="67.8"/>
	</g>
</g>
<g>
	<defs>
		<path id="SVGID_133_" d="M317.5,134.5c-0.7,0-2.4-0.4-2.8,0l-0.4-1.2c0.5-0.5,0.8-0.6,1.3-1.1c0.6-0.4,0.1-1.1-1.2-3.1
			c-3.8-5.6-16.6-12.1-22.8-15.2c-1.5-0.7-2.1-1.1-2.7-1.5c-0.2-0.1-0.5-0.3-1-0.5c-3.8-2.1-14.5-8.7-22.5-16.4
			c-5.8-5.7-8.5-10.9-8.1-15.7c0.4-4,2.9-7.5,7.6-10.6c0.1-0.1,9.8-5.8,19.4,4.2c8.8,9.1,14.7,11.3,29.1,16.6l2.4,0.9
			c0.4,0.1,0.6,0.5,0.4,0.9c-0.1,0.4-0.5,0.6-0.9,0.4l-2.4-0.9c-14.6-5.4-21.4-6.7-29.9-16.5c-8.1-9.2-16.4-4.2-16.7-4
			c-4.4,2.4-6.6,5.9-6.9,9.4c-0.4,4.3,2.2,8.7,7.7,14c7.8,7.6,18.9,13.8,22.7,15.8c0.5,0.2,0.8,0.4,1,0.5c0.6,0.4,1.8,0.9,3.2,1.7
			c6.8,3.4,18.7,10.1,22.7,16c0.7,1.1,1.1,2,1.3,2.8C318.2,131,318.9,133.3,317.5,134.5"/>
	</defs>
	<clipPath id="SVGID_134_">
		<use xlink:href="#SVGID_133_"  style="overflow:visible;"/>
	</clipPath>
	<g class="st66">
		<defs>
			<rect id="SVGID_135_" x="-319.2" y="-513.8" width="1024" height="768"/>
		</defs>
		<clipPath id="SVGID_136_">
			<use xlink:href="#SVGID_135_"  style="overflow:visible;"/>
		</clipPath>
		<rect x="252.3" y="62.4" class="st67" width="71" height="77.1"/>
	</g>
</g>
<g>
	<defs>
		<path id="SVGID_137_" d="M305.5,63c0.1-0.1,6.9-11.1,19.1-9.8c31.9,3.5,53.1,16.8,63,39.6c0.1,0.1,6.2,14.3-0.7,28.9
			c-6.5,13.6-12,27.9-37.8,32.9l-1.4-1c25.3-5,31-19.4,37.2-32.5c6.6-13.9,0.4-27.3,0.3-27.5c-9.7-22.3-30.1-35.6-61.5-38.5
			c-10.3-0.9-16.1,8.3-16.2,8.4c-0.2,0.3-1.4,0.7-1.7,0.5C305.5,63.7,305.3,63.3,305.5,63"/>
	</defs>
	<clipPath id="SVGID_138_">
		<use xlink:href="#SVGID_137_"  style="overflow:visible;"/>
	</clipPath>
	<g class="st68">
		<defs>
			<rect id="SVGID_139_" x="-319.2" y="-513.8" width="1024" height="768"/>
		</defs>
		<clipPath id="SVGID_140_">
			<use xlink:href="#SVGID_139_"  style="overflow:visible;"/>
		</clipPath>
		<rect x="300.4" y="48" class="st69" width="94.7" height="111.5"/>
	</g>
</g>
<g>
	<defs>
		<polyline id="SVGID_141_" points="406.5,53 245.9,53 245.9,183.9 406.5,183.9 		"/>
	</defs>
	<clipPath id="SVGID_142_">
		<use xlink:href="#SVGID_141_"  style="overflow:visible;"/>
	</clipPath>
	<g class="st70">
		<defs>
			<rect id="SVGID_143_" x="-319.2" y="-513.8" width="1024" height="768"/>
		</defs>
		<clipPath id="SVGID_144_">
			<use xlink:href="#SVGID_143_"  style="overflow:visible;"/>
		</clipPath>
		<g class="st71">
			<g>
				<defs>
					<rect id="SVGID_145_" x="245.8" y="54.2" width="78" height="40"/>
				</defs>
				<clipPath id="SVGID_146_">
					<use xlink:href="#SVGID_145_"  style="overflow:visible;"/>
				</clipPath>
				<g class="st72">
					<defs>
						<path id="SVGID_147_" d="M263.4,93.2c0.3,0,0.5-0.1,0.6-0.4c0.2-0.3,0.5-1,0.2-1.2c-0.1,0-13.7-6.6-15.8-15.9
							c-1.1-5.1-0.2-9.9,3.8-15.5c0.2-0.3,4.2-5.8,11.1-1.6c8.8,5.4,32.5,12.7,40.3,14.5c8.6,2,18.1,4.7,18.2,4.7
							c0.4,0.1,0.8-0.1,0.9-0.5c0.1-0.4-0.1-0.8-0.5-0.9c-0.1,0-9.7-2.7-18.3-4.7c-9.2-2.1-31.4-9.1-39.2-14.3c-2.7-1.8-5.4-2.5-8-2
							c-3.8,0.8-5.8,3.8-5.9,3.9c-4.3,5.9-5.8,11.6-4.5,17.1c2.3,10.1,16.3,16.4,16.7,16.6C263.2,93.2,263.3,93.2,263.4,93.2"/>
					</defs>
					<clipPath id="SVGID_148_">
						<use xlink:href="#SVGID_147_"  style="overflow:visible;"/>
					</clipPath>
					<g class="st73">
						<defs>
							<rect id="SVGID_149_" x="245.8" y="52.2" width="161" height="132"/>
						</defs>
						<clipPath id="SVGID_150_">
							<use xlink:href="#SVGID_149_"  style="overflow:visible;"/>
						</clipPath>
						<rect x="240.9" y="50.4" class="st74" width="86.9" height="47.8"/>
					</g>
				</g>
			</g>
		</g>
	</g>
</g>
<g>
	<defs>
		<path id="SVGID_151_" d="M289.3,68.8c0.1,0,0.8,0.3,0.9,0.2c12.9-9.8,42.9-1.3,43.2-1.2c0.4,0.1,0.8-0.1,0.9-0.5
			c0.1-0.4-0.1-0.8-0.5-0.9c-1.3-0.4-30.9-9.1-45.7,1c-0.3,0.2-0.4,0.7-0.2,1C287.9,68.7,289.1,68.8,289.3,68.8"/>
	</defs>
	<clipPath id="SVGID_152_">
		<use xlink:href="#SVGID_151_"  style="overflow:visible;"/>
	</clipPath>
	<g class="st75">
		<defs>
			<rect id="SVGID_153_" x="-319.2" y="-513.8" width="1024" height="768"/>
		</defs>
		<clipPath id="SVGID_154_">
			<use xlink:href="#SVGID_153_"  style="overflow:visible;"/>
		</clipPath>
		<rect x="282.7" y="57.6" class="st76" width="56.5" height="16.4"/>
	</g>
</g>
<g>
	<defs>
		<path id="SVGID_155_" d="M274.2,88.1c0.2,0,0.3,0,0.4-0.1c9.7-7.4,9.1-8.2,8.7-8.7c-0.5-0.7-2.7-2.9-7.4-7.2
			c-1.6-1.4-3.4-2.2-5.5-2.2c-2.1,0-3.8,0.8-3.8,0.8c-2.9,1.4-4.3,3.2-4.4,5.3c-0.1,5.8,11.2,11.8,11.7,12
			C274,88.1,274.1,88.1,274.2,88.1 M282,79.8c-0.7,1-4.4,4.1-7.8,6.7c-3.3-1.8-10-6.3-10-10.3c0-1.6,1.2-2.9,3.5-4
			c0,0,1.4-0.7,3.2-0.7c1.8,0,3.3,0.6,4.6,1.8C277,74.8,280.8,78.5,282,79.8"/>
	</defs>
	<clipPath id="SVGID_156_">
		<use xlink:href="#SVGID_155_"  style="overflow:visible;"/>
	</clipPath>
	<g class="st77">
		<defs>
			<rect id="SVGID_157_" x="-319.2" y="-513.8" width="1024" height="768"/>
		</defs>
		<clipPath id="SVGID_158_">
			<use xlink:href="#SVGID_157_"  style="overflow:visible;"/>
		</clipPath>
		<rect x="257.2" y="64.9" class="st78" width="31.3" height="28.2"/>
	</g>
</g>
<g>
	<defs>
		<path id="SVGID_159_" d="M275.5,86.8c0.2,0,0.3-0.1,0.4-0.2l6.1-5c0.1-0.1,0.2-0.3,0.3-0.5c0-0.2,0-0.4-0.2-0.5
			c-0.9-1.1-1.9-1.7-3-1.7c-1.3,0-2.5,0.8-3.2,1.5c-1.1,0.9-1.7,1.7-2,2.6c-0.3,1.1,0,2.3,1,3.5C275.1,86.8,275.3,86.8,275.5,86.8
			 M280.5,81.1l-4.9,4.1c-0.4-0.6-0.5-1.1-0.3-1.6c0.2-0.6,0.6-1.2,1.5-1.9C278.4,80.2,279.4,80.1,280.5,81.1"/>
	</defs>
	<clipPath id="SVGID_160_">
		<use xlink:href="#SVGID_159_"  style="overflow:visible;"/>
	</clipPath>
	<g class="st79">
		<defs>
			<rect id="SVGID_161_" x="-319.2" y="-513.8" width="1024" height="768"/>
		</defs>
		<clipPath id="SVGID_162_">
			<use xlink:href="#SVGID_161_"  style="overflow:visible;"/>
		</clipPath>
		<rect x="268.8" y="74" class="st80" width="18.4" height="17.8"/>
	</g>
</g>
<g>
	<defs>
		<path id="SVGID_163_" d="M263.3,70.1L263.3,70.1c0.1,0,0.2-0.1,0.3-0.1c0,0,2.8-1.1,5.3-1.7c0.1,0,0.3-0.1,0.4-0.2l1.2-1.3
			c0.1-0.1,0.2-0.3,0.2-0.5c0-0.2-0.1-0.4-0.2-0.5c-0.9-0.9-1.9-1.3-2.8-1.3c-1.5,0-2.6,1.1-3.4,1.9c-0.9,1-1.4,1.8-1.6,2.6
			c0,0.1-0.1,0.2-0.1,0.4C262.6,69.8,262.9,70.1,263.3,70.1z M268.4,67c-1.3,0.3-2.7,0.8-3.7,1.1c0.2-0.2,0.4-0.5,0.6-0.7
			c1.4-1.5,2.4-1.8,3.6-1L268.4,67z"/>
	</defs>
	<clipPath id="SVGID_164_">
		<use xlink:href="#SVGID_163_"  style="overflow:visible;"/>
	</clipPath>
	<g class="st81">
		<defs>
			<rect id="SVGID_165_" x="-319.2" y="-513.8" width="1024" height="768"/>
		</defs>
		<clipPath id="SVGID_166_">
			<use xlink:href="#SVGID_165_"  style="overflow:visible;"/>
		</clipPath>
		<rect x="257.6" y="59.5" class="st82" width="18.1" height="15.6"/>
	</g>
</g>
<g>
	<defs>
		<path id="SVGID_167_" d="M258.2,74.2c0.2,0,0.4-0.1,0.5-0.2c0,0,4.4-4.9,10-5.4c0.2,0,0.3-0.1,0.4-0.2l3.3-3.2
			c0.2-0.2,0.2-0.4,0.2-0.6c-0.1-0.2-0.2-0.4-0.4-0.5c-0.1,0-6.6-2.1-9.3-4.3c-3.8-3.1-7.9-2.4-10.5,1.6c-4.3,6.5-0.9,9.1-0.7,9.2
			c2.6,2.2,4.3,3,6.4,3.7C258.1,74.2,258.2,74.2,258.2,74.2z M268.4,67.1c-5.2,0.6-9.2,4.4-10.4,5.5c-1.8-0.6-3-1.3-5.3-3.3
			c-0.1-0.1-2.3-3.1,1-7.3c1.4-1.8,2.8-3.1,5-2.8c0.9,0.1,2.4,0.7,4.2,2c0,0,0.1,0.1,0.1,0.1c2.3,1.5,5.9,2.6,7.8,3.4L268.4,67.1z"
			/>
	</defs>
	<clipPath id="SVGID_168_">
		<use xlink:href="#SVGID_167_"  style="overflow:visible;"/>
	</clipPath>
	<g class="st83">
		<defs>
			<rect id="SVGID_169_" x="-319.2" y="-513.8" width="1024" height="768"/>
		</defs>
		<clipPath id="SVGID_170_">
			<use xlink:href="#SVGID_169_"  style="overflow:visible;"/>
		</clipPath>
		<rect x="245.2" y="52.7" class="st84" width="32.4" height="26.5"/>
	</g>
</g>
<g>
	<defs>
		<path id="SVGID_171_" d="M278.5,130.3c0.2,0,0.5-0.1,0.6-0.4l6.2-10.8c0.1-0.2,0.1-0.4,0.1-0.6c-0.1-0.2-0.2-0.3-0.4-0.4
			c-9.4-4.6-12.7-3.1-13-3c-3.2,1.3-4.7,5.1-4.7,7.9c0,1.8,0.6,3,1.6,3.4c2.1,0.8,3.3,1.3,4.3,1.6c1.4,0.5,2.4,0.9,5,2
			C278.3,130.3,278.4,130.3,278.5,130.3 M283.7,119.1l-5.5,9.6c-2.3-1-3.2-1.3-4.5-1.8c-1-0.4-2.2-0.8-4.3-1.6
			c-0.3-0.1-0.7-0.9-0.7-2.1c0-2.5,1.3-5.6,3.8-6.6C272.6,116.5,275.8,115.4,283.7,119.1"/>
	</defs>
	<clipPath id="SVGID_172_">
		<use xlink:href="#SVGID_171_"  style="overflow:visible;"/>
	</clipPath>
	<g class="st85">
		<defs>
			<rect id="SVGID_173_" x="-319.2" y="-513.8" width="1024" height="768"/>
		</defs>
		<clipPath id="SVGID_174_">
			<use xlink:href="#SVGID_173_"  style="overflow:visible;"/>
		</clipPath>
		<rect x="262.3" y="109.9" class="st86" width="28.1" height="25.4"/>
	</g>
</g>
<g>
	<defs>
		<path id="SVGID_175_" d="M279.5,128.5c0.1-0.1,0.3-0.2,0.4-0.3l3.9-6.8c0.1-0.2,0.1-0.4,0.1-0.5c-0.1-0.2-0.2-0.3-0.3-0.4
			c-1.2-0.7-2.4-0.9-3.4-0.5c-1.2,0.5-2,1.6-2.5,2.5c-0.7,1.2-1,2.2-0.9,3.1c0.1,1.2,0.8,2.2,2.2,2.9
			C279.1,128.5,279.3,128.5,279.5,128.5 M282.1,121.3l-3.1,5.5c-0.5-0.4-0.8-0.9-0.9-1.4c-0.1-0.6,0.2-1.3,0.7-2.3
			C279.8,121.2,280.7,120.7,282.1,121.3"/>
	</defs>
	<clipPath id="SVGID_176_">
		<use xlink:href="#SVGID_175_"  style="overflow:visible;"/>
	</clipPath>
	<g class="st87">
		<defs>
			<rect id="SVGID_177_" x="-319.2" y="-513.8" width="1024" height="768"/>
		</defs>
		<clipPath id="SVGID_178_">
			<use xlink:href="#SVGID_177_"  style="overflow:visible;"/>
		</clipPath>
		<rect x="271.7" y="114.7" class="st88" width="17.1" height="18.8"/>
	</g>
</g>
<g>
	<defs>
		<path id="SVGID_179_" d="M323.5,157.7c7.5,0,26.6-2.6,30.5-4.4l0.4-1.4c-20.9,5.4-37.2,4.1-37.4,4.1c-1-0.1-21.3-1.6-27-14.8
			c-3.5-8.3-11.7-9.5-16.7-11.8c-4.9-2.2-8.1-3.4-7.1-7.6c1.7-7,6.1-9.2,9.8-9.9c8.4-1.5,19.3,3,24.1,10.1
			c4.5,6.6,12.9,14.8,17.5,12.4L316,132c-3.7,2.4-10.6-4.9-14.5-10.6c-5.1-7.5-17.3-12.6-26.1-11c-4.2,0.7-9.5,3.3-11.4,11
			c-1.3,5.5,2.6,7.3,7.2,9.4c4.8,2.2,13.6,3.5,17,11.3c6,14.1,26.2,15.5,28.7,15.7C317.2,157.8,320.5,157.9,323.5,157.7"/>
	</defs>
	<clipPath id="SVGID_180_">
		<use xlink:href="#SVGID_179_"  style="overflow:visible;"/>
	</clipPath>
	<g class="st89">
		<defs>
			<rect id="SVGID_181_" x="-319.2" y="-513.8" width="1024" height="768"/>
		</defs>
		<clipPath id="SVGID_182_">
			<use xlink:href="#SVGID_181_"  style="overflow:visible;"/>
		</clipPath>
		<rect x="258.7" y="105.1" class="st90" width="100.6" height="57.8"/>
	</g>
</g>
<g>
	<defs>
		<path id="SVGID_183_" d="M361.2,182.5c10,0,20.3-3.8,29.2-10.6c7.8-6.1,12.9-15.4,14.3-26.2c1.7-13.8-2.5-28.5-11.8-40.4
			c-0.3-0.4-0.7-0.5-1.1-0.5c-0.3,0-0.6,0.1-0.9,0.3l-65.4,50.7c-0.5,0.4-0.7,1.1-0.4,1.7C335.6,178.2,350.6,182.5,361.2,182.5"/>
	</defs>
	<clipPath id="SVGID_184_">
		<use xlink:href="#SVGID_183_"  style="overflow:visible;"/>
	</clipPath>
	<g class="st91">
		<defs>
			<rect id="SVGID_185_" x="-319.2" y="-513.8" width="1024" height="768"/>
		</defs>
		<clipPath id="SVGID_186_">
			<use xlink:href="#SVGID_185_"  style="overflow:visible;"/>
		</clipPath>
		<rect x="320" y="99.8" class="st92" width="90" height="87.7"/>
	</g>
</g>
<g>
	<defs>
		<path id="SVGID_187_" d="M391.8,106.2l-65.4,50.7c8.9,17.6,21.9,24.2,34.8,24.2c10.2,0,20.3-4.2,28.3-10.3
			C407.6,156.8,408.3,127.4,391.8,106.2 M391.8,103.4c0.8,0,1.7,0.4,2.2,1.1c9.4,12.1,13.8,27.2,12,41.4
			c-1.4,11.2-6.7,20.8-14.8,27.1c-9.1,7-19.7,10.9-30,10.9c-15.6,0-28.9-9.2-37.3-25.8c-0.6-1.2-0.3-2.6,0.8-3.5l65.4-50.7
			C390.6,103.6,391.2,103.4,391.8,103.4"/>
	</defs>
	<clipPath id="SVGID_188_">
		<use xlink:href="#SVGID_187_"  style="overflow:visible;"/>
	</clipPath>
	<g class="st93">
		<defs>
			<rect id="SVGID_189_" x="-319.2" y="-513.8" width="1024" height="768"/>
		</defs>
		<clipPath id="SVGID_190_">
			<use xlink:href="#SVGID_189_"  style="overflow:visible;"/>
		</clipPath>
		<rect x="318.6" y="98.4" class="st94" width="92.8" height="90.5"/>
	</g>
</g>
</svg>
