<?xml version="1.0" encoding="utf-8"?>
<!-- Generator: Adobe Illustrator 19.1.0, SVG Export Plug-In . SVG Version: 6.00 Build 0)  -->
<svg version="1.1" id="Capa_1" xmlns="http://www.w3.org/2000/svg" xmlns:xlink="http://www.w3.org/1999/xlink" x="0px" y="0px"
	 viewBox="0 0 491.9 191.9" style="enable-background:new 0 0 491.9 191.9;" xml:space="preserve">
<style type="text/css">
	.st0{clip-path:url(#SVGID_2_);}
	.st1{clip-path:url(#SVGID_4_);fill:#79CA45;}
	.st2{clip-path:url(#SVGID_6_);}
	.st3{clip-path:url(#SVGID_8_);fill:#72BC43;}
	.st4{clip-path:url(#SVGID_10_);}
	.st5{clip-path:url(#SVGID_12_);}
	.st6{clip-path:url(#SVGID_14_);}
	.st7{clip-path:url(#SVGID_16_);fill:#79CA45;}
	.st8{clip-path:url(#SVGID_18_);}
	.st9{clip-path:url(#SVGID_20_);fill:#79CA45;}
	.st10{clip-path:url(#SVGID_22_);}
	.st11{clip-path:url(#SVGID_24_);fill:#72BC43;}
	.st12{clip-path:url(#SVGID_26_);}
	.st13{clip-path:url(#SVGID_28_);}
	.st14{clip-path:url(#SVGID_30_);}
	.st15{clip-path:url(#SVGID_32_);fill:#72BC43;}
	.st16{clip-path:url(#SVGID_34_);}
	.st17{clip-path:url(#SVGID_36_);}
	.st18{clip-path:url(#SVGID_38_);}
	.st19{clip-path:url(#SVGID_40_);fill:#79CA45;}
	.st20{clip-path:url(#SVGID_42_);}
	.st21{clip-path:url(#SVGID_44_);fill:#72BC43;}
	.st22{clip-path:url(#SVGID_46_);}
	.st23{clip-path:url(#SVGID_48_);}
	.st24{clip-path:url(#SVGID_50_);}
	.st25{clip-path:url(#SVGID_52_);fill:#79CA45;}
	.st26{clip-path:url(#SVGID_54_);}
	.st27{clip-path:url(#SVGID_56_);fill:#79CA45;}
	.st28{clip-path:url(#SVGID_58_);}
	.st29{clip-path:url(#SVGID_60_);fill:#79CA45;}
	.st30{clip-path:url(#SVGID_62_);}
	.st31{clip-path:url(#SVGID_64_);fill:#79CA45;}
	.st32{clip-path:url(#SVGID_66_);}
	.st33{clip-path:url(#SVGID_68_);fill:#AF3636;}
	.st34{clip-path:url(#SVGID_70_);}
	.st35{clip-path:url(#SVGID_72_);fill:#F0CA30;}
	.st36{clip-path:url(#SVGID_74_);}
	.st37{clip-path:url(#SVGID_76_);fill:#EBB22A;}
	.st38{clip-path:url(#SVGID_78_);}
	.st39{clip-path:url(#SVGID_80_);fill:#EBB22A;}
	.st40{clip-path:url(#SVGID_82_);}
	.st41{clip-path:url(#SVGID_84_);}
	.st42{clip-path:url(#SVGID_86_);}
	.st43{clip-path:url(#SVGID_88_);fill:#F5DECD;}
	.st44{clip-path:url(#SVGID_90_);}
	.st45{clip-path:url(#SVGID_92_);fill:#E9A89E;}
	.st46{clip-path:url(#SVGID_94_);}
	.st47{clip-path:url(#SVGID_96_);fill:#E9A89E;}
	.st48{clip-path:url(#SVGID_98_);}
	.st49{clip-path:url(#SVGID_100_);fill:#E9A89E;}
	.st50{clip-path:url(#SVGID_102_);}
	.st51{clip-path:url(#SVGID_104_);fill:#E9A89E;}
	.st52{clip-path:url(#SVGID_106_);}
	.st53{clip-path:url(#SVGID_108_);fill:#E9A89E;}
	.st54{clip-path:url(#SVGID_110_);}
	.st55{clip-path:url(#SVGID_112_);fill:#FAF1E4;}
	.st56{clip-path:url(#SVGID_114_);}
	.st57{clip-path:url(#SVGID_116_);fill:#FFFFFF;}
	.st58{clip-path:url(#SVGID_118_);}
	.st59{clip-path:url(#SVGID_120_);fill:#FAF1E4;}
	.st60{clip-path:url(#SVGID_122_);}
	.st61{clip-path:url(#SVGID_124_);fill:#FFFFFF;}
	.st62{clip-path:url(#SVGID_126_);}
	.st63{clip-path:url(#SVGID_128_);fill:#FAF1E4;}
	.st64{clip-path:url(#SVGID_130_);}
	.st65{clip-path:url(#SVGID_132_);fill:#FFFFFF;}
	.st66{clip-path:url(#SVGID_134_);}
	.st67{clip-path:url(#SVGID_136_);fill:#E9A89E;}
	.st68{clip-path:url(#SVGID_138_);}
	.st69{clip-path:url(#SVGID_140_);fill:#E9A89E;}
	.st70{clip-path:url(#SVGID_142_);}
	.st71{clip-path:url(#SVGID_144_);fill:#422B2C;}
	.st72{clip-path:url(#SVGID_146_);}
	.st73{clip-path:url(#SVGID_148_);fill:#422B2C;}
	.st74{clip-path:url(#SVGID_150_);}
	.st75{clip-path:url(#SVGID_152_);enable-background:new    ;}
	.st76{clip-path:url(#SVGID_154_);}
	.st77{clip-path:url(#SVGID_156_);}
	.st78{clip-path:url(#SVGID_158_);fill:#422B2C;}
	.st79{clip-path:url(#SVGID_160_);}
	.st80{clip-path:url(#SVGID_162_);fill:#422B2C;}
	.st81{clip-path:url(#SVGID_164_);}
	.st82{clip-path:url(#SVGID_166_);fill:#422B2C;}
	.st83{clip-path:url(#SVGID_168_);}
	.st84{clip-path:url(#SVGID_170_);fill:#422B2C;}
	.st85{clip-path:url(#SVGID_172_);}
	.st86{clip-path:url(#SVGID_174_);fill:#422B2C;}
	.st87{clip-path:url(#SVGID_176_);}
	.st88{clip-path:url(#SVGID_178_);fill:#422B2C;}
	.st89{clip-path:url(#SVGID_180_);}
	.st90{clip-path:url(#SVGID_182_);fill:#422B2C;}
	.st91{clip-path:url(#SVGID_184_);}
	.st92{clip-path:url(#SVGID_186_);fill:#422B2C;}
	.st93{clip-path:url(#SVGID_188_);}
	.st94{clip-path:url(#SVGID_190_);fill:#422B2C;}
	.st95{clip-path:url(#SVGID_192_);}
	.st96{clip-path:url(#SVGID_194_);fill:#79CA45;}
	.st97{clip-path:url(#SVGID_196_);}
	.st98{clip-path:url(#SVGID_198_);fill:#639E3F;}
</style>
<g>
	<defs>
		<path id="SVGID_1_" d="M13.5,67.5c0,31.4,24.7,57.1,55.7,58.8c0.6,0.1,1.3,0.1,2,0.1h4H127h-11.1h25.7c9.9,0,18-8.1,18-18V95.7
			c0-3.3,2.3-6,5.4-6.6c9.7-2.4,16.8-11.1,16.8-21.5c0-10.4-7.2-19.1-16.8-21.5c0,0-0.1,0-0.1,0c-2.9-0.7-5.1-3.3-5.2-6.4
			c0,0,0-0.1,0-0.1l0,0l0-0.1c0,0,0,0,0,0l0-12.8c0-7.3-4.5-13.7-10.8-16.5c-2.2-1-4.6-1.5-7.1-1.5h-25.7H127H71.2
			c-0.7,0-1.3,0-2,0.1C38.2,10.4,13.5,36.1,13.5,67.5"/>
	</defs>
	<clipPath id="SVGID_2_">
		<use xlink:href="#SVGID_1_"  style="overflow:visible;"/>
	</clipPath>
	<g class="st0">
		<defs>
			<rect id="SVGID_3_" x="-261.1" y="-516.5" width="1024" height="768"/>
		</defs>
		<clipPath id="SVGID_4_">
			<use xlink:href="#SVGID_3_"  style="overflow:visible;"/>
		</clipPath>
		<rect x="8.5" y="3.6" class="st1" width="178.3" height="127.8"/>
	</g>
</g>
<g>
	<defs>
		<path id="SVGID_5_" d="M88.8,21.2c-26,0-47.1,21.1-47.1,47.1c0,14.5,6.6,27.5,17,36.2c2.7,2.3,5.8,4.3,9,5.9
			c2.4,1.2,4.9,2.2,7.5,3c4.3,1.3,8.9,2,13.7,2c6.9,0,13.5-1.5,19.4-4.2c5.3-2.4,10.1-5.7,14.1-9.8c2.2-2.2,4.1-4.6,5.8-7.1
			c4.9-7.5,7.8-16.4,7.8-26C135.9,42.3,114.8,21.2,88.8,21.2 M67.8,106.6c0.2-3,0.9-6.5,2.3-10.1l0.7,4.5c0.3,2.8,0.9,5.5,1.9,7.9
			C71,108.3,69.4,107.5,67.8,106.6 M109.9,106.6c0.7-2.9,1-6,0.7-9.3l-0.5-13.2c6,3.6,9.3,8.7,11.1,13.6
			C117.9,101.2,114.1,104.2,109.9,106.6 M126.1,91c-3.5-5.4-8.7-10.5-16.3-13.5l-1-26.1c-1.2-12.3-12.2-21.5-24.5-20.3
			C72,32.2,62.8,43.3,64,55.6l0.1,0.5c-2.3,1.8-3.7,4.7-3.4,7.8c0.3,3.4,2.6,6.2,5.6,7.4l2.2,14.8c-4.3,4.7-7.1,10.2-8.8,14.9
			c-9-8-14.7-19.7-14.7-32.7c0-24.1,19.6-43.7,43.7-43.7c24.1,0,43.7,19.6,43.7,43.7C132.5,76.6,130.2,84.4,126.1,91"/>
	</defs>
	<clipPath id="SVGID_6_">
		<use xlink:href="#SVGID_5_"  style="overflow:visible;"/>
	</clipPath>
	<g class="st2">
		<defs>
			<rect id="SVGID_7_" x="-261.1" y="-516.5" width="1024" height="768"/>
		</defs>
		<clipPath id="SVGID_8_">
			<use xlink:href="#SVGID_7_"  style="overflow:visible;"/>
		</clipPath>
		<rect x="36.7" y="16.2" class="st3" width="104.2" height="104.2"/>
	</g>
</g>
<g>
	<defs>
		<path id="SVGID_9_" d="M88.8,21.2c-26,0-47.1,21.1-47.1,47.1c0,14.5,6.6,27.5,17,36.2c2.7,2.3,5.8,4.3,9,5.9
			c2.4,1.2,4.9,2.2,7.5,3c4.3,1.3,8.9,2,13.7,2c6.9,0,13.5-1.5,19.4-4.2c5.3-2.4,10.1-5.7,14.1-9.8c2.2-2.2,4.1-4.6,5.8-7.1
			c4.9-7.5,7.8-16.4,7.8-26C135.9,42.3,114.8,21.2,88.8,21.2 M67.8,106.6c0.2-3,0.9-6.5,2.3-10.1l0.7,4.5c0.3,2.8,0.9,5.5,1.9,7.9
			C71,108.3,69.4,107.5,67.8,106.6 M109.9,106.6c0.7-2.9,1-6,0.7-9.3l-0.5-13.2c6,3.6,9.3,8.7,11.1,13.6
			C117.9,101.2,114.1,104.2,109.9,106.6 M126.1,91c-3.5-5.4-8.7-10.5-16.3-13.5l-1-26.1c-1.2-12.3-12.2-21.5-24.5-20.3
			C72,32.2,62.8,43.3,64,55.6l0.1,0.5c-2.3,1.8-3.7,4.7-3.4,7.8c0.3,3.4,2.6,6.2,5.6,7.4l2.2,14.8c-4.3,4.7-7.1,10.2-8.8,14.9
			c-9-8-14.7-19.7-14.7-32.7c0-24.1,19.6-43.7,43.7-43.7c24.1,0,43.7,19.6,43.7,43.7C132.5,76.6,130.2,84.4,126.1,91"/>
	</defs>
	<clipPath id="SVGID_10_">
		<use xlink:href="#SVGID_9_"  style="overflow:visible;"/>
	</clipPath>
	<g class="st4">
		<defs>
			<rect id="SVGID_11_" x="-261.1" y="-516.5" width="1024" height="768"/>
		</defs>
		<clipPath id="SVGID_12_">
			<use xlink:href="#SVGID_11_"  style="overflow:visible;"/>
		</clipPath>
		<rect x="36.7" y="16.2" class="st5" width="104.2" height="104.2"/>
	</g>
</g>
<g>
	<defs>
		<path id="SVGID_13_" d="M101.5,60.2c-0.4-3.9-3.6-6.8-7.4-6.8c-0.2,0-0.5,0-0.7,0c-2,0.2-3.8,1.1-5,2.7c-1.3,1.5-1.9,3.5-1.7,5.5
			c0.4,3.9,3.6,6.8,7.4,6.8c0.2,0,0.5,0,0.7,0c2-0.2,3.8-1.1,5-2.7C101.1,64.2,101.7,62.2,101.5,60.2"/>
	</defs>
	<clipPath id="SVGID_14_">
		<use xlink:href="#SVGID_13_"  style="overflow:visible;"/>
	</clipPath>
	<g class="st6">
		<defs>
			<rect id="SVGID_15_" x="-261.1" y="-516.5" width="1024" height="768"/>
		</defs>
		<clipPath id="SVGID_16_">
			<use xlink:href="#SVGID_15_"  style="overflow:visible;"/>
		</clipPath>
		<rect x="81.6" y="48.5" class="st7" width="24.9" height="24.9"/>
	</g>
</g>
<g>
	<defs>
		<path id="SVGID_17_" d="M74.2,58.1c-1.4-1.1-3.1-1.7-4.9-1.5c-3.7,0.3-6.4,3.6-6,7.3c0.2,1.8,1,3.4,2.4,4.5c1.2,1,2.7,1.5,4.3,1.5
			c0.2,0,0.4,0,0.6,0c1.8-0.2,3.4-1,4.5-2.4c1.1-1.4,1.7-3.1,1.5-4.9C76.4,60.8,75.5,59.2,74.2,58.1"/>
	</defs>
	<clipPath id="SVGID_18_">
		<use xlink:href="#SVGID_17_"  style="overflow:visible;"/>
	</clipPath>
	<g class="st8">
		<defs>
			<rect id="SVGID_19_" x="-261.1" y="-516.5" width="1024" height="768"/>
		</defs>
		<clipPath id="SVGID_20_">
			<use xlink:href="#SVGID_19_"  style="overflow:visible;"/>
		</clipPath>
		<rect x="58.2" y="51.5" class="st9" width="23.4" height="23.4"/>
	</g>
</g>
<g>
	<defs>
		<path id="SVGID_21_" d="M94.5,64.7c0.6-0.1,1-0.6,0.9-1.1l-0.5-5.5c-0.1-0.6-0.6-1-1.1-0.9c-0.6,0.1-1,0.6-0.9,1.1l0.5,5.5
			C93.4,64.3,93.9,64.8,94.5,64.7"/>
	</defs>
	<clipPath id="SVGID_22_">
		<use xlink:href="#SVGID_21_"  style="overflow:visible;"/>
	</clipPath>
	<g class="st10">
		<defs>
			<rect id="SVGID_23_" x="-261.1" y="-516.5" width="1024" height="768"/>
		</defs>
		<clipPath id="SVGID_24_">
			<use xlink:href="#SVGID_23_"  style="overflow:visible;"/>
		</clipPath>
		<rect x="87.8" y="52.2" class="st11" width="12.6" height="17.5"/>
	</g>
</g>
<g>
	<defs>
		<path id="SVGID_25_" d="M94.5,64.7c0.6-0.1,1-0.6,0.9-1.1l-0.5-5.5c-0.1-0.6-0.6-1-1.1-0.9c-0.6,0.1-1,0.6-0.9,1.1l0.5,5.5
			C93.4,64.3,93.9,64.8,94.5,64.7"/>
	</defs>
	<clipPath id="SVGID_26_">
		<use xlink:href="#SVGID_25_"  style="overflow:visible;"/>
	</clipPath>
	<g class="st12">
		<defs>
			<rect id="SVGID_27_" x="-261.1" y="-516.5" width="1024" height="768"/>
		</defs>
		<clipPath id="SVGID_28_">
			<use xlink:href="#SVGID_27_"  style="overflow:visible;"/>
		</clipPath>
		<rect x="87.8" y="52.2" class="st13" width="12.6" height="17.5"/>
	</g>
</g>
<g>
	<defs>
		<path id="SVGID_29_" d="M69.8,67c0.6-0.1,1-0.6,0.9-1.1l-0.5-5.5c-0.1-0.6-0.6-1-1.1-0.9c-0.6,0.1-1,0.6-0.9,1.1l0.5,5.5
			C68.7,66.7,69.2,67.1,69.8,67"/>
	</defs>
	<clipPath id="SVGID_30_">
		<use xlink:href="#SVGID_29_"  style="overflow:visible;"/>
	</clipPath>
	<g class="st14">
		<defs>
			<rect id="SVGID_31_" x="-261.1" y="-516.5" width="1024" height="768"/>
		</defs>
		<clipPath id="SVGID_32_">
			<use xlink:href="#SVGID_31_"  style="overflow:visible;"/>
		</clipPath>
		<rect x="63.1" y="54.5" class="st15" width="12.6" height="17.5"/>
	</g>
</g>
<g>
	<defs>
		<path id="SVGID_33_" d="M69.8,67c0.6-0.1,1-0.6,0.9-1.1l-0.5-5.5c-0.1-0.6-0.6-1-1.1-0.9c-0.6,0.1-1,0.6-0.9,1.1l0.5,5.5
			C68.7,66.7,69.2,67.1,69.8,67"/>
	</defs>
	<clipPath id="SVGID_34_">
		<use xlink:href="#SVGID_33_"  style="overflow:visible;"/>
	</clipPath>
	<g class="st16">
		<defs>
			<rect id="SVGID_35_" x="-261.1" y="-516.5" width="1024" height="768"/>
		</defs>
		<clipPath id="SVGID_36_">
			<use xlink:href="#SVGID_35_"  style="overflow:visible;"/>
		</clipPath>
		<rect x="63.1" y="54.5" class="st17" width="12.6" height="17.5"/>
	</g>
</g>
<g>
	<defs>
		<path id="SVGID_37_" d="M83.5,80.2c-3.7,0.3-7.4-0.6-10.3-2.7c-1.5-1.1-1.8-3.1-0.6-4.6c1.2-1.4,3.4-1.7,4.9-0.6
			c3.4,2.4,8.2,1.8,10.8-1.4c1.2-1.4,3.4-1.7,4.9-0.6c1.5,1.1,1.8,3.1,0.6,4.6c-2.4,2.9-5.9,4.8-9.8,5.3
			C83.9,80.1,83.7,80.2,83.5,80.2"/>
	</defs>
	<clipPath id="SVGID_38_">
		<use xlink:href="#SVGID_37_"  style="overflow:visible;"/>
	</clipPath>
	<g class="st18">
		<defs>
			<rect id="SVGID_39_" x="-261.1" y="-516.5" width="1024" height="768"/>
		</defs>
		<clipPath id="SVGID_40_">
			<use xlink:href="#SVGID_39_"  style="overflow:visible;"/>
		</clipPath>
		<rect x="66.9" y="64.6" class="st19" width="32.7" height="20.6"/>
	</g>
</g>
<g>
	<defs>
		<path id="SVGID_41_" d="M83.3,78c-3,0.3-6.1-0.5-8.7-2.3c-0.5-0.4-0.6-1-0.2-1.5c0.4-0.5,1.1-0.6,1.6-0.2
			c4.4,3.1,10.7,2.3,14.1-1.8c0.4-0.5,1.1-0.6,1.6-0.2c0.5,0.4,0.6,1,0.2,1.5C89.8,76.2,86.6,77.7,83.3,78"/>
	</defs>
	<clipPath id="SVGID_42_">
		<use xlink:href="#SVGID_41_"  style="overflow:visible;"/>
	</clipPath>
	<g class="st20">
		<defs>
			<rect id="SVGID_43_" x="-261.1" y="-516.5" width="1024" height="768"/>
		</defs>
		<clipPath id="SVGID_44_">
			<use xlink:href="#SVGID_43_"  style="overflow:visible;"/>
		</clipPath>
		<rect x="69.2" y="66.8" class="st21" width="28.1" height="16.3"/>
	</g>
</g>
<g>
	<defs>
		<path id="SVGID_45_" d="M83.3,78c-3,0.3-6.1-0.5-8.7-2.3c-0.5-0.4-0.6-1-0.2-1.5c0.4-0.5,1.1-0.6,1.6-0.2
			c4.4,3.1,10.7,2.3,14.1-1.8c0.4-0.5,1.1-0.6,1.6-0.2c0.5,0.4,0.6,1,0.2,1.5C89.8,76.2,86.6,77.7,83.3,78"/>
	</defs>
	<clipPath id="SVGID_46_">
		<use xlink:href="#SVGID_45_"  style="overflow:visible;"/>
	</clipPath>
	<g class="st22">
		<defs>
			<rect id="SVGID_47_" x="-261.1" y="-516.5" width="1024" height="768"/>
		</defs>
		<clipPath id="SVGID_48_">
			<use xlink:href="#SVGID_47_"  style="overflow:visible;"/>
		</clipPath>
		<rect x="69.2" y="66.8" class="st23" width="28.1" height="16.3"/>
	</g>
</g>
<g>
	<defs>
		<path id="SVGID_49_" d="M72.6,84.1c0.1,0.4,0.1,0.7,0.2,1c0.1,0.3,0.2,0.7,0.2,1c0.1,0.3,0.2,0.7,0.3,1c0.1,0.3,0.2,0.7,0.4,1
			c0.3,0.6,0.6,1.2,1.1,1.7c0.2,0.3,0.5,0.5,0.7,0.6c0.3,0.1,0.6,0.2,0.8,0.2c0.3-0.1,0.5-0.2,0.8-0.4c0.2-0.2,0.4-0.5,0.6-0.7
			c0.3-0.6,0.5-1.2,0.7-1.9c0.3-1.3,0.3-2.7,0.2-4.1l0.9-0.1c0.1,1.4,0.5,2.7,1,4c0.3,0.6,0.6,1.2,1,1.7c0.2,0.2,0.4,0.4,0.7,0.6
			c0.2,0.1,0.5,0.2,0.7,0.2c0.3-0.1,0.4-0.1,0.7-0.3c0.2-0.2,0.4-0.4,0.6-0.7c0.3-0.5,0.5-1.2,0.7-1.8c0.1-0.3,0.1-0.7,0.2-1
			c0-0.3,0.1-0.7,0.1-1c0-0.3,0-0.7,0-1c0-0.3,0-0.7-0.1-1l1.1-0.1c0.1,1.4,0.4,2.7,1,4c0.3,0.6,0.6,1.2,1,1.7
			c0.2,0.2,0.4,0.4,0.7,0.6c0.1,0.1,0.2,0.1,0.4,0.1c0.1,0,0.1,0,0.2,0l0.1,0l0,0l0,0h0l0,0h0c0,0,0.1,0-0.1,0l0.3-0.1
			c0.1,0,0.1-0.1,0.2-0.1c0.1,0,0.2-0.1,0.3-0.2c0.2-0.2,0.4-0.4,0.6-0.7c0.3-0.5,0.5-1.2,0.7-1.8c0.3-1.3,0.4-2.7,0.2-4.1l0.9-0.1
			c0.1,0.7,0.2,1.4,0.3,2c0.1,0.3,0.2,0.7,0.3,1c0.1,0.3,0.2,0.7,0.3,1c0.3,0.6,0.6,1.2,1,1.7c0.2,0.3,0.5,0.5,0.7,0.6
			c0.1,0.1,0.3,0.1,0.4,0.2c0.1,0,0.1,0.1,0.2,0l0.1,0l0.1,0l0,0l0,0l0,0h0c0,0,0,0,0,0c0.2,0,0.4-0.1,0.5-0.1
			c0.1,0,0.2-0.1,0.4-0.2c0.2-0.2,0.4-0.4,0.6-0.7c0.4-0.6,0.6-1.2,0.8-1.9c0.1-0.3,0.2-0.7,0.2-1c0.1-0.3,0.1-0.7,0.1-1
			c0-0.7,0-1.4,0-2.1v0c0-0.1,0.1-0.2,0.1-0.2c0.1,0,0.2,0.1,0.2,0.1c0.1,0.7,0.1,1.4,0.1,2.2c0,0.4,0,0.7-0.1,1.1
			c0,0.4-0.1,0.7-0.2,1.1c-0.1,0.7-0.4,1.4-0.7,2.1c-0.2,0.3-0.4,0.6-0.7,0.9c-0.2,0.1-0.3,0.3-0.5,0.3c-0.2,0.1-0.4,0.1-0.6,0.2
			c-0.5,0.1-0.9-0.1-1.3-0.3c-0.3-0.2-0.7-0.5-0.9-0.8c-0.5-0.6-0.9-1.2-1.2-1.9c-0.6-1.4-0.9-2.8-1.1-4.3c0-0.3,0.2-0.5,0.4-0.5
			c0.3,0,0.5,0.2,0.5,0.4l0,0v0c0.1,1.5,0.1,2.9-0.2,4.4c-0.2,0.7-0.4,1.5-0.8,2.1c-0.2,0.3-0.5,0.7-0.8,1c-0.1,0.1-0.2,0.1-0.3,0.2
			c-0.1,0.1-0.2,0.1-0.3,0.2c-0.3,0.1-0.4,0.1-0.6,0.2c-0.1,0,0,0-0.1,0h0h0h0h0h-0.1l-0.2,0c-0.1,0-0.2,0-0.3-0.1
			c-0.2,0-0.4-0.2-0.6-0.3c-0.4-0.2-0.7-0.5-0.9-0.8c-0.5-0.6-0.9-1.3-1.2-2c-0.6-1.4-0.9-2.8-1.1-4.3c0-0.3,0.2-0.6,0.5-0.6
			c0.3,0,0.6,0.2,0.6,0.5l0,0c0.1,1.5,0.1,3-0.3,4.4c-0.2,0.7-0.4,1.5-0.8,2.1c-0.2,0.3-0.5,0.7-0.8,1c-0.3,0.3-0.8,0.5-1.2,0.5
			c-0.5,0-0.9-0.1-1.3-0.3c-0.4-0.2-0.7-0.5-0.9-0.8c-0.5-0.6-0.9-1.3-1.2-2c-0.6-1.4-0.9-2.8-1-4.3v0c0-0.2,0.2-0.4,0.4-0.5
			c0.2,0,0.4,0.2,0.5,0.4l0,0c0.1,1.5,0.1,2.9-0.3,4.4c-0.2,0.7-0.4,1.4-0.8,2.1c-0.2,0.3-0.4,0.6-0.8,0.9c-0.3,0.3-0.8,0.5-1.2,0.5
			c-0.4,0-0.9-0.1-1.2-0.3c-0.3-0.2-0.6-0.5-0.9-0.8c-0.5-0.6-0.8-1.2-1.1-1.9c-0.1-0.3-0.3-0.7-0.4-1c-0.1-0.3-0.2-0.7-0.3-1.1
			c-0.1-0.4-0.1-0.7-0.2-1.1c-0.1-0.4-0.1-0.7-0.1-1.1c0-0.1,0.1-0.2,0.1-0.2C72.5,84,72.6,84,72.6,84.1"/>
	</defs>
	<clipPath id="SVGID_50_">
		<use xlink:href="#SVGID_49_"  style="overflow:visible;"/>
	</clipPath>
	<g class="st24">
		<defs>
			<rect id="SVGID_51_" x="-261.1" y="-516.5" width="1024" height="768"/>
		</defs>
		<clipPath id="SVGID_52_">
			<use xlink:href="#SVGID_51_"  style="overflow:visible;"/>
		</clipPath>
		<rect x="67.3" y="76.5" class="st25" width="36.6" height="19.9"/>
	</g>
</g>
<g>
	<defs>
		<path id="SVGID_53_" d="M78.4,93c0,0.7,0.1,1.4,0.2,2.1c0,0.3,0.1,0.7,0.2,1c0.1,0.3,0.1,0.7,0.2,1c0.2,0.7,0.4,1.3,0.8,1.9
			c0.2,0.3,0.3,0.6,0.6,0.8c0.2,0.2,0.5,0.4,0.7,0.5c0.2,0.1,0.4,0.2,0.6,0.2l0,0h0c0.1,0-0.1,0-0.1,0l0,0l0,0l0.1,0l0.1,0l0.1,0
			l0,0c0,0,0,0,0,0c0,0,0.1,0,0.1-0.1c0,0,0.1-0.1,0.1-0.1c0.2-0.2,0.3-0.4,0.5-0.7c0.1-0.3,0.2-0.6,0.3-0.9
			c0.2-0.6,0.3-1.3,0.3-1.9c0-0.3,0-0.7,0-1c0-0.3,0-0.7,0-1l1.1-0.1c0.1,1.1,0.3,2.3,0.8,3.3c0.2,0.5,0.5,1,0.8,1.4
			c0.2,0.2,0.4,0.4,0.5,0.5c0.2,0.1,0.4,0.2,0.6,0.2c0.3,0,0.3-0.1,0.5-0.3c0.2-0.2,0.3-0.3,0.5-0.6c0.3-0.5,0.5-1,0.6-1.5
			c0.3-1.1,0.3-2.3,0.2-3.4l0.8-0.1c0.1,1.2,0.3,2.3,0.8,3.4c0.2,0.5,0.5,1,0.8,1.5c0.2,0.2,0.4,0.4,0.6,0.5
			c0.2,0.1,0.5,0.2,0.6,0.2c0.2,0,0.3-0.1,0.4-0.1c0.1,0,0.2-0.1,0.3-0.2c0.2-0.2,0.4-0.4,0.5-0.6c0.3-0.5,0.5-1,0.6-1.6
			c0.3-1.1,0.3-2.3,0.2-3.5c0-0.1,0-0.1,0.1-0.1c0.1,0,0.1,0,0.1,0.1c0.1,1.2,0.1,2.4-0.1,3.6c-0.1,0.6-0.3,1.2-0.6,1.8
			c-0.1,0.3-0.3,0.5-0.6,0.8c-0.1,0.1-0.2,0.2-0.4,0.3c-0.2,0.1-0.3,0.1-0.5,0.2c-0.4,0-0.7-0.1-1.1-0.2c-0.3-0.2-0.5-0.4-0.8-0.6
			c-0.4-0.5-0.7-1-1-1.6c-0.5-1.1-0.8-2.4-0.9-3.6c0-0.2,0.1-0.4,0.3-0.4c0.2,0,0.4,0.1,0.4,0.3v0l0,0c0.1,1.2,0.1,2.5-0.1,3.7
			c-0.1,0.6-0.3,1.2-0.6,1.8c-0.2,0.3-0.4,0.6-0.6,0.8c-0.3,0.2-0.7,0.5-1.1,0.5c-0.4,0-0.8-0.1-1.1-0.3c-0.3-0.2-0.6-0.4-0.8-0.7
			c-0.4-0.5-0.7-1.1-1-1.7c-0.5-1.2-0.8-2.4-0.9-3.6c0-0.3,0.2-0.6,0.5-0.6c0.3,0,0.6,0.2,0.6,0.5c0,0,0,0,0,0
			c0,0.4,0.1,0.7,0.1,1.1c0,0.4,0,0.7,0,1.1c0,0.7-0.1,1.4-0.3,2.2c-0.1,0.4-0.2,0.7-0.4,1.1c-0.2,0.3-0.4,0.7-0.7,1
			c-0.1,0.1-0.2,0.2-0.3,0.2c-0.1,0.1-0.2,0.1-0.3,0.2l-0.2,0.1l-0.1,0l-0.1,0l-0.1,0l-0.1,0l0,0l-0.1,0h0h0c-0.5,0-1-0.2-1.3-0.5
			c-0.3-0.3-0.5-0.6-0.7-0.9c-0.2-0.3-0.3-0.7-0.5-1c-0.3-0.7-0.5-1.3-0.6-2c-0.1-0.3-0.1-0.7-0.2-1c-0.1-0.4-0.1-0.7-0.1-1
			c-0.1-0.7-0.1-1.4-0.2-2.1c0-0.1,0-0.1,0.1-0.1C78.3,92.8,78.4,92.9,78.4,93C78.4,93,78.4,93,78.4,93"/>
	</defs>
	<clipPath id="SVGID_54_">
		<use xlink:href="#SVGID_53_"  style="overflow:visible;"/>
	</clipPath>
	<g class="st26">
		<defs>
			<rect id="SVGID_55_" x="-261.1" y="-516.5" width="1024" height="768"/>
		</defs>
		<clipPath id="SVGID_56_">
			<use xlink:href="#SVGID_55_"  style="overflow:visible;"/>
		</clipPath>
		<rect x="73.1" y="87.9" class="st27" width="26.8" height="18.7"/>
	</g>
</g>
<g>
	<defs>
		<path id="SVGID_57_" d="M102.6,69.2c-0.2,0-0.4-0.1-0.5-0.3c-0.2-0.3-0.1-0.6,0.2-0.8c2.7-1.7,4.2-4.6,3.9-7.8
			c-0.3-2.8-1.9-5.3-4.5-6.5c-0.3-0.1-0.4-0.5-0.2-0.8c0.1-0.3,0.5-0.4,0.8-0.2c2.9,1.5,4.8,4.3,5.1,7.5c0.3,3.6-1.4,7-4.4,8.9
			C102.8,69.1,102.7,69.2,102.6,69.2"/>
	</defs>
	<clipPath id="SVGID_58_">
		<use xlink:href="#SVGID_57_"  style="overflow:visible;"/>
	</clipPath>
	<g class="st28">
		<defs>
			<rect id="SVGID_59_" x="-261.1" y="-516.5" width="1024" height="768"/>
		</defs>
		<clipPath id="SVGID_60_">
			<use xlink:href="#SVGID_59_"  style="overflow:visible;"/>
		</clipPath>
		<rect x="96.5" y="47.7" class="st29" width="15.9" height="26.5"/>
	</g>
</g>
<g>
	<defs>
		<path id="SVGID_61_" d="M282.9,85.9c-3,0.6-5.2,3.3-5.2,6.5l0,12.5c0,9.6,7.9,17.5,17.5,17.5h89c0.4,0,0.8,0,1.2,0
			c30.7-1.2,55.3-26.5,55.3-57.5c0-31-24.6-56.3-55.3-57.5c-0.4,0-0.8,0-1.2,0h-89c-9.6,0-17.5,7.9-17.5,17.5v12.6l0,0
			c0,0,0,0.1,0,0.1c0.1,3,2.2,5.6,5.1,6.2c0,0,0.1,0,0.1,0c9.4,2.3,16.4,10.9,16.4,21C299.3,75,292.3,83.5,282.9,85.9"/>
	</defs>
	<clipPath id="SVGID_62_">
		<use xlink:href="#SVGID_61_"  style="overflow:visible;"/>
	</clipPath>
	<g class="st30">
		<defs>
			<rect id="SVGID_63_" x="-261.1" y="-516.5" width="1024" height="768"/>
		</defs>
		<clipPath id="SVGID_64_">
			<use xlink:href="#SVGID_63_"  style="overflow:visible;"/>
		</clipPath>
		<rect x="272.6" y="2.3" class="st31" width="173" height="125.1"/>
	</g>
</g>
<g>
	<defs>
		<path id="SVGID_65_" d="M295.2,124.7c-10.4,0-18.9-8.5-18.9-18.9V93.3c0-3.7,2.7-7,6.3-7.8c9-2.2,15.3-10.3,15.3-19.7
			c0-9.4-6.3-17.5-15.4-19.7c0,0-0.1,0-0.1,0c-3.4-0.8-5.8-3.7-6.1-7.1l0,0l0-13.2c0-10.4,8.5-18.9,18.9-18.9h89c0.4,0,0.9,0,1.3,0
			C417.1,8.1,442,34,442,65.8c0,31.8-24.9,57.7-56.6,58.9c-0.4,0-0.8,0-1.3,0H295.2z"/>
	</defs>
	<clipPath id="SVGID_66_">
		<use xlink:href="#SVGID_65_"  style="overflow:visible;"/>
	</clipPath>
	<g class="st32">
		<defs>
			<rect id="SVGID_67_" x="-261.1" y="-516.5" width="1024" height="768"/>
		</defs>
		<clipPath id="SVGID_68_">
			<use xlink:href="#SVGID_67_"  style="overflow:visible;"/>
		</clipPath>
		<rect x="271.3" y="1.9" class="st33" width="175.7" height="127.8"/>
	</g>
</g>
<g>
	<defs>
		<path id="SVGID_69_" d="M186.5,127.4c-10.7,0-19.4-8.7-19.4-19.4V95.2c0-3.8,2.8-7.1,6.5-7.9c9.2-2.3,15.7-10.6,15.7-20.2
			c0-9.6-6.5-17.9-15.8-20.2c0,0-0.1,0-0.1,0c-3.5-0.8-6.1-3.8-6.3-7.4l0-0.1l0-0.5l0-12.8c0-10.7,8.7-19.3,19.4-19.3h67.3
			c5.2,0,10,2,13.7,5.7c3.7,3.7,5.7,8.5,5.7,13.7l0,12.9c0.1,2.5,1.8,4.6,4.1,5.1h0c0,0,0.1,0,0.1,0c10.5,2.6,17.9,12,17.9,22.9
			c0,10.8-7.3,20.3-17.9,22.9c-2.5,0.5-4.3,2.7-4.3,5.3v12.8c0,10.7-8.7,19.4-19.4,19.4H186.5z"/>
	</defs>
	<clipPath id="SVGID_70_">
		<use xlink:href="#SVGID_69_"  style="overflow:visible;"/>
	</clipPath>
	<g class="st34">
		<defs>
			<rect id="SVGID_71_" x="-261.1" y="-516.5" width="1024" height="768"/>
		</defs>
		<clipPath id="SVGID_72_">
			<use xlink:href="#SVGID_71_"  style="overflow:visible;"/>
		</clipPath>
		<rect x="162.2" y="1.8" class="st35" width="138.2" height="130.6"/>
	</g>
</g>
<g>
	<defs>
		<path id="SVGID_73_" d="M253.8,8.2c9.9,0,18,8.1,18,18V34v5l0,0c0,0,0,0.1,0,0.1c0.1,3.1,2.3,5.7,5.2,6.4c0,0,0.1,0,0.1,0
			C286.8,48,294,56.7,294,67.1c0,10.4-7.2,19.1-16.8,21.5c-3.1,0.6-5.4,3.4-5.4,6.6v7.2v5.7c0,9.9-8.1,18-18,18h-26.7h-14h-26.7
			c-9.9,0-18-8.1-18-18v-7.9v-5c0-3.2,2.3-5.9,5.4-6.5c9.7-2.4,16.8-11.1,16.8-21.5c0-10.4-7.2-19.1-16.8-21.5c0,0-0.1,0-0.1,0
			c-2.9-0.7-5.1-3.3-5.2-6.4c0,0,0-0.1,0-0.1l0,0c0,0,0-0.1,0-0.1v-7.2v-5.7c0-9.9,8.1-18,18-18h26.7h14H253.8 M253.8,5.4h-26.7h-14
			h-26.7c-11.4,0-20.8,9.3-20.8,20.7v5.7v7.1l-0.1,0.9l0.1,0.2c0.4,4,3.3,7.4,7.3,8.3c0.1,0,0.1,0,0.2,0c8.6,2.2,14.6,9.9,14.6,18.8
			c0,8.9-6,16.6-14.7,18.8c-4.3,0.9-7.5,4.8-7.5,9.2v5.1v7.9c0,11.4,9.3,20.7,20.8,20.7h26.7h14h26.7c11.4,0,20.8-9.3,20.8-20.7
			v-5.7v-7.2c0-1.9,1.3-3.5,3.2-3.9l0.1,0l0,0c11.1-2.8,18.9-12.7,18.9-24.2c0-11.5-7.8-21.5-18.9-24.2c-0.1,0-0.2,0-0.2-0.1
			c-1.7-0.4-2.9-1.9-3-3.7v-0.8l0,0V34v-7.9c0-5.5-2.2-10.7-6.1-14.7C264.6,7.6,259.4,5.4,253.8,5.4"/>
	</defs>
	<clipPath id="SVGID_74_">
		<use xlink:href="#SVGID_73_"  style="overflow:visible;"/>
	</clipPath>
	<g class="st36">
		<defs>
			<rect id="SVGID_75_" x="-261.1" y="-516.5" width="1024" height="768"/>
		</defs>
		<clipPath id="SVGID_76_">
			<use xlink:href="#SVGID_75_"  style="overflow:visible;"/>
		</clipPath>
		<rect x="160.7" y="0.4" class="st37" width="141.1" height="133.4"/>
	</g>
</g>
<g>
	<defs>
		<path id="SVGID_77_" d="M249.9,63.4l-15.3-15.3c-1.3-1.3-3.4-1.3-4.8,0c-1.3,1.3-1.3,3.4,0,4.8l9.5,9.5h-32.3
			c-1.9,0-3.4,1.5-3.4,3.4c0,1.9,1.5,3.4,3.4,3.4h32.3l-9.5,9.5c-1.3,1.3-1.3,3.4,0,4.8c0.7,0.7,1.5,1,2.4,1c0.9,0,1.7-0.3,2.4-1
			l15.3-15.3C251.2,66.8,251.2,64.7,249.9,63.4"/>
	</defs>
	<clipPath id="SVGID_78_">
		<use xlink:href="#SVGID_77_"  style="overflow:visible;"/>
	</clipPath>
	<g class="st38">
		<defs>
			<rect id="SVGID_79_" x="-261.1" y="-516.5" width="1024" height="768"/>
		</defs>
		<clipPath id="SVGID_80_">
			<use xlink:href="#SVGID_79_"  style="overflow:visible;"/>
		</clipPath>
		<rect x="198.7" y="42.1" class="st39" width="57.2" height="47.2"/>
	</g>
</g>
<g>
	<defs>
		<path id="SVGID_81_" d="M249.9,63.4l-15.3-15.3c-1.3-1.3-3.4-1.3-4.8,0c-1.3,1.3-1.3,3.4,0,4.8l9.5,9.5h-32.3
			c-1.9,0-3.4,1.5-3.4,3.4c0,1.9,1.5,3.4,3.4,3.4h32.3l-9.5,9.5c-1.3,1.3-1.3,3.4,0,4.8c0.7,0.7,1.5,1,2.4,1c0.9,0,1.7-0.3,2.4-1
			l15.3-15.3C251.2,66.8,251.2,64.7,249.9,63.4"/>
	</defs>
	<clipPath id="SVGID_82_">
		<use xlink:href="#SVGID_81_"  style="overflow:visible;"/>
	</clipPath>
	<g class="st40">
		<defs>
			<rect id="SVGID_83_" x="-261.1" y="-516.5" width="1024" height="768"/>
		</defs>
		<clipPath id="SVGID_84_">
			<use xlink:href="#SVGID_83_"  style="overflow:visible;"/>
		</clipPath>
		<rect x="198.7" y="42.1" class="st41" width="57.2" height="47.2"/>
	</g>
</g>
<g>
	<defs>
		<path id="SVGID_85_" d="M329.7,58c0,0,4.8-7.2,12.9-1.7c4.9,3.2,14.9,7,24,10c4.2-2.9,9.7-4.2,15.4-4.6l0-0.1
			c0,0,6.5-10.8,18.4-9.5c11.9,1.3,48.1,6,62.4,39.2l-0.1,0c0.6,2.2,5,25-5.2,35.4c-10.8,10.9-10,26.7-55.9,28.3
			c-45.8,1.6-30.4-21.1-47.9-23.6l-12.4-5.8c0,0-3.9-10.2,6.5-15.3c10.4-5.1,23,4.6,23,4.6s12.9,16.9,17.6,17
			c4.7,0.1,5.7-5.4-8.7-13.9c-1.8-1.1-3-2.1-3.8-3.1c-4.7-2.5-8.8-4.5-10.3-5.3c-1.8-1-15.1-7.8-24-16.5c-1.4-1.4-2.7-2.8-3.9-4.3
			l-0.3,0.1C337.6,88.8,315.3,77.7,329.7,58"/>
	</defs>
	<clipPath id="SVGID_86_">
		<use xlink:href="#SVGID_85_"  style="overflow:visible;"/>
	</clipPath>
	<g class="st42">
		<defs>
			<rect id="SVGID_87_" x="-261.1" y="-516.5" width="1024" height="768"/>
		</defs>
		<clipPath id="SVGID_88_">
			<use xlink:href="#SVGID_87_"  style="overflow:visible;"/>
		</clipPath>
		<rect x="319.8" y="46.9" class="st43" width="149.3" height="113.2"/>
	</g>
</g>
<g>
	<defs>
		<path id="SVGID_89_" d="M393.9,131.3l-2.3-4.9l-6.1-5.6l-13.1-8.2l-17.8-10.2l-9.5-7.4l-6.6-6.4l-3.8-8.7l1.3-5.3l3.1-3.8
			c0,0-3.3,5.9,4.8,15.6c8.1,9.6,50.3,27.4,53.1,38.9c0,0.1,0,0.1,0,0.2C397.1,125.5,398.6,131.1,393.9,131.3"/>
	</defs>
	<clipPath id="SVGID_90_">
		<use xlink:href="#SVGID_89_"  style="overflow:visible;"/>
	</clipPath>
	<g class="st44">
		<defs>
			<rect id="SVGID_91_" x="-261.1" y="-516.5" width="1024" height="768"/>
		</defs>
		<clipPath id="SVGID_92_">
			<use xlink:href="#SVGID_91_"  style="overflow:visible;"/>
		</clipPath>
		<rect x="329.7" y="65.8" class="st45" width="72.7" height="70.5"/>
	</g>
</g>
<g>
	<defs>
		<path id="SVGID_93_" d="M325.7,61.7l-2.2,5.4V73l1,4.3l3.1,4.5l2.7,3.3l6.1,3.9l2.2-1.4l-2.5-4C336.1,83.6,325.9,76.6,325.7,61.7"
			/>
	</defs>
	<clipPath id="SVGID_94_">
		<use xlink:href="#SVGID_93_"  style="overflow:visible;"/>
	</clipPath>
	<g class="st46">
		<defs>
			<rect id="SVGID_95_" x="-261.1" y="-516.5" width="1024" height="768"/>
		</defs>
		<clipPath id="SVGID_96_">
			<use xlink:href="#SVGID_95_"  style="overflow:visible;"/>
		</clipPath>
		<rect x="318.5" y="56.7" class="st47" width="25.1" height="37.3"/>
	</g>
</g>
<g>
	<defs>
		<path id="SVGID_97_" d="M390.4,89.7L359.9,73c0,0,4.4,9.2,30.5,17"/>
	</defs>
	<clipPath id="SVGID_98_">
		<use xlink:href="#SVGID_97_"  style="overflow:visible;"/>
	</clipPath>
	<g class="st48">
		<defs>
			<rect id="SVGID_99_" x="-261.1" y="-516.5" width="1024" height="768"/>
		</defs>
		<clipPath id="SVGID_100_">
			<use xlink:href="#SVGID_99_"  style="overflow:visible;"/>
		</clipPath>
		<rect x="354.9" y="68" class="st49" width="40.6" height="27"/>
	</g>
</g>
<g>
	<defs>
		<polygon id="SVGID_101_" points="368.9,65.7 398.6,75.2 364.6,66.9 		"/>
	</defs>
	<clipPath id="SVGID_102_">
		<use xlink:href="#SVGID_101_"  style="overflow:visible;"/>
	</clipPath>
	<g class="st50">
		<defs>
			<rect id="SVGID_103_" x="-261.1" y="-516.5" width="1024" height="768"/>
		</defs>
		<clipPath id="SVGID_104_">
			<use xlink:href="#SVGID_103_"  style="overflow:visible;"/>
		</clipPath>
		<rect x="359.6" y="60.7" class="st51" width="44" height="19.5"/>
	</g>
</g>
<g>
	<defs>
		<path id="SVGID_105_" d="M384.6,59.3c0,0,23.3,2.5,26.7,6.5l-7.8-1.9l-5.6-1h-3.2l-12.4-0.6L384.6,59.3z"/>
	</defs>
	<clipPath id="SVGID_106_">
		<use xlink:href="#SVGID_105_"  style="overflow:visible;"/>
	</clipPath>
	<g class="st52">
		<defs>
			<rect id="SVGID_107_" x="-261.1" y="-516.5" width="1024" height="768"/>
		</defs>
		<clipPath id="SVGID_108_">
			<use xlink:href="#SVGID_107_"  style="overflow:visible;"/>
		</clipPath>
		<rect x="377.2" y="54.3" class="st53" width="39.1" height="16.5"/>
	</g>
</g>
<g>
	<defs>
		<path id="SVGID_109_" d="M343,69c0.1,0,1.7-0.8,3.8-0.8c2.1,0,4,0.7,5.5,2.2c4.7,4.3,6.9,6.5,7.4,7.2c0.4,0.6,1,1.4-8.7,8.7
			c-0.1,0.1-0.3,0.1-0.4,0.1c-0.1,0-0.2,0-0.3-0.1c-0.5-0.2-11.8-6.2-11.7-12C338.6,72.2,340.1,70.4,343,69 M351.4,84.9
			c0.1,0.2,0.3,0.3,0.5,0.3c0.2,0,0.3-0.1,0.4-0.2l6.1-5c0.1-0.1,0.2-0.3,0.3-0.5c0-0.2,0-0.4-0.2-0.5c-0.1-0.2-0.3-0.3-0.4-0.5
			c-0.8-0.8-1.6-1.2-2.5-1.2c-1.3,0-2.5,0.8-3.2,1.5c-1.1,0.9-1.7,1.7-2,2.6c-0.3,1,0,2,0.7,3.1C351.2,84.6,351.2,84.7,351.4,84.9"
			/>
	</defs>
	<clipPath id="SVGID_110_">
		<use xlink:href="#SVGID_109_"  style="overflow:visible;"/>
	</clipPath>
	<g class="st54">
		<defs>
			<rect id="SVGID_111_" x="-261.1" y="-516.5" width="1024" height="768"/>
		</defs>
		<clipPath id="SVGID_112_">
			<use xlink:href="#SVGID_111_"  style="overflow:visible;"/>
		</clipPath>
		<rect x="333.6" y="63.2" class="st55" width="31.3" height="28.2"/>
	</g>
</g>
<g>
	<defs>
		<path id="SVGID_113_" d="M350.3,81.4c0.2-0.9,0.9-1.7,2-2.6c0.8-0.6,1.9-1.5,3.2-1.5c0.9,0,1.8,0.4,2.5,1.2
			c0.1,0.1,0.3,0.3,0.4,0.5c0.1,0.1,0.2,0.3,0.2,0.5c0,0.2-0.1,0.4-0.3,0.5l-6.1,5c-0.1,0.1-0.3,0.2-0.4,0.2c-0.2,0-0.4-0.1-0.5-0.3
			c-0.1-0.1-0.2-0.3-0.3-0.4C350.3,83.4,350.1,82.4,350.3,81.4"/>
	</defs>
	<clipPath id="SVGID_114_">
		<use xlink:href="#SVGID_113_"  style="overflow:visible;"/>
	</clipPath>
	<g class="st56">
		<defs>
			<rect id="SVGID_115_" x="-261.1" y="-516.5" width="1024" height="768"/>
		</defs>
		<clipPath id="SVGID_116_">
			<use xlink:href="#SVGID_115_"  style="overflow:visible;"/>
		</clipPath>
		<rect x="345.2" y="72.3" class="st57" width="18.4" height="17.8"/>
	</g>
</g>
<g>
	<defs>
		<path id="SVGID_117_" d="M329,59.5c2.6-4,6.8-4.7,10.5-1.6c2.7,2.2,9.2,4.3,9.3,4.3c0.2,0.1,0.4,0.3,0.4,0.5
			c0.1,0.2,0,0.5-0.2,0.6l-2,1.7c0.1-0.1,0.2-0.3,0.2-0.5c0-0.2-0.1-0.4-0.2-0.5c-0.1-0.1-0.3-0.2-0.4-0.3c-0.8-0.6-1.6-1-2.4-1
			c-1.5,0-2.6,1.1-3.4,1.9c-0.9,1-1.4,1.8-1.6,2.6c0,0,0,0.1,0,0.1c0,0.1,0,0.5,0,0.6c0,0.3,0.2,0.7,0.4,1c-2.6,1.5-4.2,3.3-4.3,3.3
			c-0.1,0.2-0.3,0.2-0.5,0.2c-0.1,0-0.1,0-0.2,0c-2.1-0.6-3.8-1.4-6.4-3.7C328.1,68.7,324.7,66.1,329,59.5"/>
	</defs>
	<clipPath id="SVGID_118_">
		<use xlink:href="#SVGID_117_"  style="overflow:visible;"/>
	</clipPath>
	<g class="st58">
		<defs>
			<rect id="SVGID_119_" x="-261.1" y="-516.5" width="1024" height="768"/>
		</defs>
		<clipPath id="SVGID_120_">
			<use xlink:href="#SVGID_119_"  style="overflow:visible;"/>
		</clipPath>
		<rect x="321.8" y="51" class="st59" width="32.4" height="26.5"/>
	</g>
</g>
<g>
	<defs>
		<polygon id="SVGID_121_" points="346.2,64.3 346.1,64.1 345.1,63.5 344,63.5 341.9,64.3 340.5,65.4 339.9,67 342.4,66.3 
			344.5,65.7 		"/>
	</defs>
	<clipPath id="SVGID_122_">
		<use xlink:href="#SVGID_121_"  style="overflow:visible;"/>
	</clipPath>
	<g class="st60">
		<defs>
			<rect id="SVGID_123_" x="-261.1" y="-516.5" width="1024" height="768"/>
		</defs>
		<clipPath id="SVGID_124_">
			<use xlink:href="#SVGID_123_"  style="overflow:visible;"/>
		</clipPath>
		<rect x="334.9" y="58.5" class="st61" width="16.4" height="13.5"/>
	</g>
</g>
<g>
	<defs>
		<polygon id="SVGID_125_" points="361.2,116.4 357.9,115.1 353.4,114.1 349.9,114.1 348.4,115 346.6,117.1 345.5,119.9 
			345.5,122.2 346.5,124.1 349.4,125.2 352.7,126.5 355.5,127.7 361.7,117.5 		"/>
	</defs>
	<clipPath id="SVGID_126_">
		<use xlink:href="#SVGID_125_"  style="overflow:visible;"/>
	</clipPath>
	<g class="st62">
		<defs>
			<rect id="SVGID_127_" x="-261.1" y="-516.5" width="1024" height="768"/>
		</defs>
		<clipPath id="SVGID_128_">
			<use xlink:href="#SVGID_127_"  style="overflow:visible;"/>
		</clipPath>
		<rect x="340.5" y="109.1" class="st63" width="26.2" height="23.6"/>
	</g>
</g>
<g>
	<defs>
		<polygon id="SVGID_129_" points="359.8,118.9 358.6,118.6 356.9,119 356.1,119.9 355.3,121.3 354.6,122.6 354.6,123.6 
			355.4,125.4 356.5,126.3 360.4,119.7 		"/>
	</defs>
	<clipPath id="SVGID_130_">
		<use xlink:href="#SVGID_129_"  style="overflow:visible;"/>
	</clipPath>
	<g class="st64">
		<defs>
			<rect id="SVGID_131_" x="-261.1" y="-516.5" width="1024" height="768"/>
		</defs>
		<clipPath id="SVGID_132_">
			<use xlink:href="#SVGID_131_"  style="overflow:visible;"/>
		</clipPath>
		<rect x="349.6" y="113.6" class="st65" width="15.8" height="17.7"/>
	</g>
</g>
<g>
	<defs>
		<path id="SVGID_133_" d="M393,132.2c0,0-7.2-1-15.6-13c-8.4-12-27-11.8-30.8-6.7c0,0,15.6-7.7,28.5,9.9
			C388,140,393,132.2,393,132.2"/>
	</defs>
	<clipPath id="SVGID_134_">
		<use xlink:href="#SVGID_133_"  style="overflow:visible;"/>
	</clipPath>
	<g class="st66">
		<defs>
			<rect id="SVGID_135_" x="-261.1" y="-516.5" width="1024" height="768"/>
		</defs>
		<clipPath id="SVGID_136_">
			<use xlink:href="#SVGID_135_"  style="overflow:visible;"/>
		</clipPath>
		<rect x="341.5" y="104.2" class="st67" width="56.5" height="34.7"/>
	</g>
</g>
<g>
	<defs>
		<polygon id="SVGID_137_" points="466.3,100.4 395.9,155.6 406,158.2 473,110.4 		"/>
	</defs>
	<clipPath id="SVGID_138_">
		<use xlink:href="#SVGID_137_"  style="overflow:visible;"/>
	</clipPath>
	<g class="st68">
		<defs>
			<rect id="SVGID_139_" x="-261.1" y="-516.5" width="1024" height="768"/>
		</defs>
		<clipPath id="SVGID_140_">
			<use xlink:href="#SVGID_139_"  style="overflow:visible;"/>
		</clipPath>
		<rect x="390.9" y="95.4" class="st69" width="87.1" height="67.8"/>
	</g>
</g>
<g>
	<defs>
		<path id="SVGID_141_" d="M394.7,132.8c-0.7,0-2.4-0.4-2.8,0l-0.4-1.2c0.5-0.5,0.8-0.6,1.3-1.1c0.6-0.4,0.1-1.1-1.2-3.1
			c-3.8-5.6-16.6-12.1-22.8-15.2c-1.5-0.7-2.1-1.1-2.7-1.5c-0.2-0.1-0.5-0.3-1-0.5c-3.8-2.1-14.5-8.7-22.5-16.4
			c-5.8-5.7-8.5-10.9-8.1-15.7c0.4-4,2.9-7.5,7.6-10.6c0.1-0.1,9.8-5.8,19.4,4.2c8.8,9.1,14.7,11.3,29.1,16.6l2.4,0.9
			c0.4,0.1,0.6,0.5,0.4,0.9c-0.1,0.4-0.5,0.6-0.9,0.4l-2.4-0.9c-14.6-5.4-21.4-6.7-29.9-16.5c-8.1-9.2-16.4-4.2-16.7-4
			c-4.4,2.4-6.6,5.9-6.9,9.4c-0.4,4.3,2.2,8.7,7.7,14c7.8,7.6,18.9,13.8,22.7,15.8c0.5,0.2,0.8,0.4,1,0.5c0.6,0.4,1.8,0.9,3.2,1.7
			c6.8,3.4,18.7,10.1,22.7,16c0.7,1.1,1.1,2,1.3,2.8C395.3,129.3,396,131.6,394.7,132.8"/>
	</defs>
	<clipPath id="SVGID_142_">
		<use xlink:href="#SVGID_141_"  style="overflow:visible;"/>
	</clipPath>
	<g class="st70">
		<defs>
			<rect id="SVGID_143_" x="-261.1" y="-516.5" width="1024" height="768"/>
		</defs>
		<clipPath id="SVGID_144_">
			<use xlink:href="#SVGID_143_"  style="overflow:visible;"/>
		</clipPath>
		<rect x="329.5" y="60.7" class="st71" width="71" height="77.1"/>
	</g>
</g>
<g>
	<defs>
		<path id="SVGID_145_" d="M382.7,61.3c0.1-0.1,6.9-11.1,19.1-9.8c31.9,3.5,53.1,16.8,63,39.6c0.1,0.1,6.2,14.3-0.7,28.9
			c-6.5,13.6-12,27.9-37.8,32.9l-1.4-1c25.3-5,31-19.4,37.2-32.5c6.6-13.9,0.4-27.3,0.3-27.5c-9.7-22.3-30.1-35.6-61.5-38.5
			c-10.3-0.9-16.1,8.3-16.2,8.4c-0.2,0.3-1.4,0.7-1.7,0.5C382.6,62,382.5,61.6,382.7,61.3"/>
	</defs>
	<clipPath id="SVGID_146_">
		<use xlink:href="#SVGID_145_"  style="overflow:visible;"/>
	</clipPath>
	<g class="st72">
		<defs>
			<rect id="SVGID_147_" x="-261.1" y="-516.5" width="1024" height="768"/>
		</defs>
		<clipPath id="SVGID_148_">
			<use xlink:href="#SVGID_147_"  style="overflow:visible;"/>
		</clipPath>
		<rect x="377.6" y="46.3" class="st73" width="94.7" height="111.5"/>
	</g>
</g>
<g>
	<defs>
		<polyline id="SVGID_149_" points="483.6,51.3 323,51.3 323,182.2 483.6,182.2 		"/>
	</defs>
	<clipPath id="SVGID_150_">
		<use xlink:href="#SVGID_149_"  style="overflow:visible;"/>
	</clipPath>
	<g class="st74">
		<defs>
			<rect id="SVGID_151_" x="-261.1" y="-516.5" width="1024" height="768"/>
		</defs>
		<clipPath id="SVGID_152_">
			<use xlink:href="#SVGID_151_"  style="overflow:visible;"/>
		</clipPath>
		<g class="st75">
			<g>
				<defs>
					<rect id="SVGID_153_" x="322.9" y="52.5" width="78" height="40"/>
				</defs>
				<clipPath id="SVGID_154_">
					<use xlink:href="#SVGID_153_"  style="overflow:visible;"/>
				</clipPath>
				<g class="st76">
					<defs>
						<path id="SVGID_155_" d="M340.5,91.5c0.3,0,0.5-0.1,0.6-0.4c0.2-0.3,0.5-1,0.2-1.2c-0.1,0-13.7-6.6-15.8-15.9
							c-1.1-5.1-0.2-9.9,3.8-15.5c0.2-0.3,4.2-5.8,11.1-1.6c8.8,5.4,32.5,12.7,40.3,14.5c8.6,2,18.1,4.7,18.2,4.7
							c0.4,0.1,0.8-0.1,0.9-0.5c0.1-0.4-0.1-0.8-0.5-0.9c-0.1,0-9.7-2.7-18.3-4.7c-9.2-2.1-31.4-9.1-39.2-14.3c-2.7-1.8-5.4-2.5-8-2
							c-3.8,0.8-5.8,3.8-5.9,3.9c-4.3,5.9-5.8,11.6-4.5,17.1c2.3,10.1,16.3,16.4,16.7,16.6C340.3,91.5,340.4,91.5,340.5,91.5"/>
					</defs>
					<clipPath id="SVGID_156_">
						<use xlink:href="#SVGID_155_"  style="overflow:visible;"/>
					</clipPath>
					<g class="st77">
						<defs>
							<rect id="SVGID_157_" x="322.9" y="50.5" width="161" height="132"/>
						</defs>
						<clipPath id="SVGID_158_">
							<use xlink:href="#SVGID_157_"  style="overflow:visible;"/>
						</clipPath>
						<rect x="318" y="48.7" class="st78" width="86.9" height="47.8"/>
					</g>
				</g>
			</g>
		</g>
	</g>
</g>
<g>
	<defs>
		<path id="SVGID_159_" d="M366.4,67.1c0.1,0,0.8,0.3,0.9,0.2c12.9-9.8,42.9-1.3,43.2-1.2c0.4,0.1,0.8-0.1,0.9-0.5
			c0.1-0.4-0.1-0.8-0.5-0.9c-1.3-0.4-30.9-9.1-45.7,1c-0.3,0.2-0.4,0.7-0.2,1C365,67,366.2,67.1,366.4,67.1"/>
	</defs>
	<clipPath id="SVGID_160_">
		<use xlink:href="#SVGID_159_"  style="overflow:visible;"/>
	</clipPath>
	<g class="st79">
		<defs>
			<rect id="SVGID_161_" x="-261.1" y="-516.5" width="1024" height="768"/>
		</defs>
		<clipPath id="SVGID_162_">
			<use xlink:href="#SVGID_161_"  style="overflow:visible;"/>
		</clipPath>
		<rect x="359.8" y="55.9" class="st80" width="56.5" height="16.4"/>
	</g>
</g>
<g>
	<defs>
		<path id="SVGID_163_" d="M351.3,86.4c0.2,0,0.3,0,0.4-0.1c9.7-7.4,9.1-8.2,8.7-8.7c-0.5-0.7-2.7-2.9-7.4-7.2
			c-1.6-1.4-3.4-2.2-5.5-2.2c-2.1,0-3.8,0.8-3.8,0.8c-2.9,1.4-4.3,3.2-4.4,5.3c-0.1,5.8,11.2,11.8,11.7,12
			C351.1,86.4,351.2,86.4,351.3,86.4 M359.1,78.1c-0.7,1-4.4,4.1-7.8,6.7c-3.3-1.8-10-6.3-10-10.3c0-1.6,1.2-2.9,3.5-4
			c0,0,1.4-0.7,3.2-0.7c1.8,0,3.3,0.6,4.6,1.8C354.1,73.1,358,76.8,359.1,78.1"/>
	</defs>
	<clipPath id="SVGID_164_">
		<use xlink:href="#SVGID_163_"  style="overflow:visible;"/>
	</clipPath>
	<g class="st81">
		<defs>
			<rect id="SVGID_165_" x="-261.1" y="-516.5" width="1024" height="768"/>
		</defs>
		<clipPath id="SVGID_166_">
			<use xlink:href="#SVGID_165_"  style="overflow:visible;"/>
		</clipPath>
		<rect x="334.3" y="63.2" class="st82" width="31.3" height="28.2"/>
	</g>
</g>
<g>
	<defs>
		<path id="SVGID_167_" d="M352.6,85.1c0.2,0,0.3-0.1,0.4-0.2l6.1-5c0.1-0.1,0.2-0.3,0.3-0.5c0-0.2,0-0.4-0.2-0.5
			c-0.9-1.1-1.9-1.7-3-1.7c-1.3,0-2.5,0.8-3.2,1.5c-1.1,0.9-1.7,1.7-2,2.6c-0.3,1.1,0,2.3,1,3.5C352.2,85,352.4,85.1,352.6,85.1
			 M357.6,79.3l-4.9,4.1c-0.4-0.6-0.5-1.1-0.3-1.6c0.2-0.6,0.6-1.2,1.5-1.9C355.5,78.5,356.5,78.4,357.6,79.3"/>
	</defs>
	<clipPath id="SVGID_168_">
		<use xlink:href="#SVGID_167_"  style="overflow:visible;"/>
	</clipPath>
	<g class="st83">
		<defs>
			<rect id="SVGID_169_" x="-261.1" y="-516.5" width="1024" height="768"/>
		</defs>
		<clipPath id="SVGID_170_">
			<use xlink:href="#SVGID_169_"  style="overflow:visible;"/>
		</clipPath>
		<rect x="345.9" y="72.3" class="st84" width="18.4" height="17.8"/>
	</g>
</g>
<g>
	<defs>
		<path id="SVGID_171_" d="M340.4,68.4L340.4,68.4c0.1,0,0.2-0.1,0.3-0.1c0,0,2.8-1.1,5.3-1.7c0.1,0,0.3-0.1,0.4-0.2l1.2-1.3
			c0.1-0.1,0.2-0.3,0.2-0.5c0-0.2-0.1-0.4-0.2-0.5c-0.9-0.9-1.9-1.3-2.8-1.3c-1.5,0-2.6,1.1-3.4,1.9c-0.9,1-1.4,1.8-1.6,2.6
			c0,0.1-0.1,0.2-0.1,0.4C339.7,68.1,340,68.4,340.4,68.4z M345.5,65.3c-1.3,0.3-2.7,0.8-3.7,1.1c0.2-0.2,0.4-0.5,0.6-0.7
			c1.4-1.5,2.4-1.8,3.6-1L345.5,65.3z"/>
	</defs>
	<clipPath id="SVGID_172_">
		<use xlink:href="#SVGID_171_"  style="overflow:visible;"/>
	</clipPath>
	<g class="st85">
		<defs>
			<rect id="SVGID_173_" x="-261.1" y="-516.5" width="1024" height="768"/>
		</defs>
		<clipPath id="SVGID_174_">
			<use xlink:href="#SVGID_173_"  style="overflow:visible;"/>
		</clipPath>
		<rect x="334.7" y="57.8" class="st86" width="18.1" height="15.6"/>
	</g>
</g>
<g>
	<defs>
		<path id="SVGID_175_" d="M335.3,72.5c0.2,0,0.4-0.1,0.5-0.2c0,0,4.4-4.9,10-5.4c0.2,0,0.3-0.1,0.4-0.2l3.3-3.2
			c0.2-0.2,0.2-0.4,0.2-0.6c-0.1-0.2-0.2-0.4-0.4-0.5c-0.1,0-6.6-2.1-9.3-4.3c-3.8-3.1-7.9-2.4-10.5,1.6c-4.3,6.5-0.9,9.1-0.7,9.2
			c2.6,2.2,4.3,3,6.4,3.7C335.2,72.5,335.3,72.5,335.3,72.5z M345.5,65.4c-5.2,0.6-9.2,4.4-10.4,5.5c-1.8-0.6-3-1.3-5.3-3.3
			c-0.1-0.1-2.3-3.1,1-7.3c1.4-1.8,2.8-3.1,5-2.8c0.9,0.1,2.4,0.7,4.2,2c0,0,0.1,0.1,0.1,0.1c2.3,1.5,5.9,2.6,7.8,3.4L345.5,65.4z"
			/>
	</defs>
	<clipPath id="SVGID_176_">
		<use xlink:href="#SVGID_175_"  style="overflow:visible;"/>
	</clipPath>
	<g class="st87">
		<defs>
			<rect id="SVGID_177_" x="-261.1" y="-516.5" width="1024" height="768"/>
		</defs>
		<clipPath id="SVGID_178_">
			<use xlink:href="#SVGID_177_"  style="overflow:visible;"/>
		</clipPath>
		<rect x="322.4" y="51" class="st88" width="32.4" height="26.5"/>
	</g>
</g>
<g>
	<defs>
		<path id="SVGID_179_" d="M355.6,128.6c0.2,0,0.5-0.1,0.6-0.4l6.2-10.8c0.1-0.2,0.1-0.4,0.1-0.6c-0.1-0.2-0.2-0.3-0.4-0.4
			c-9.4-4.6-12.7-3.1-13-3c-3.2,1.3-4.7,5.1-4.7,7.9c0,1.8,0.6,3,1.6,3.4c2.1,0.8,3.3,1.3,4.3,1.6c1.4,0.5,2.4,0.9,5,2
			C355.4,128.6,355.5,128.6,355.6,128.6 M360.8,117.4l-5.5,9.6c-2.3-1-3.2-1.3-4.5-1.8c-1-0.4-2.2-0.8-4.3-1.6
			c-0.3-0.1-0.7-0.9-0.7-2.1c0-2.5,1.3-5.6,3.8-6.6C349.7,114.8,352.9,113.7,360.8,117.4"/>
	</defs>
	<clipPath id="SVGID_180_">
		<use xlink:href="#SVGID_179_"  style="overflow:visible;"/>
	</clipPath>
	<g class="st89">
		<defs>
			<rect id="SVGID_181_" x="-261.1" y="-516.5" width="1024" height="768"/>
		</defs>
		<clipPath id="SVGID_182_">
			<use xlink:href="#SVGID_181_"  style="overflow:visible;"/>
		</clipPath>
		<rect x="339.4" y="108.2" class="st90" width="28.1" height="25.4"/>
	</g>
</g>
<g>
	<defs>
		<path id="SVGID_183_" d="M356.6,126.7c0.1-0.1,0.3-0.2,0.4-0.3l3.9-6.8c0.1-0.2,0.1-0.4,0.1-0.5c-0.1-0.2-0.2-0.3-0.3-0.4
			c-1.2-0.7-2.4-0.9-3.4-0.5c-1.2,0.5-2,1.6-2.5,2.5c-0.7,1.2-1,2.2-0.9,3.1c0.1,1.2,0.8,2.2,2.2,2.9
			C356.2,126.8,356.4,126.8,356.6,126.7 M359.2,119.6l-3.1,5.5c-0.5-0.4-0.8-0.9-0.9-1.4c-0.1-0.6,0.2-1.3,0.7-2.3
			C357,119.5,357.8,119,359.2,119.6"/>
	</defs>
	<clipPath id="SVGID_184_">
		<use xlink:href="#SVGID_183_"  style="overflow:visible;"/>
	</clipPath>
	<g class="st91">
		<defs>
			<rect id="SVGID_185_" x="-261.1" y="-516.5" width="1024" height="768"/>
		</defs>
		<clipPath id="SVGID_186_">
			<use xlink:href="#SVGID_185_"  style="overflow:visible;"/>
		</clipPath>
		<rect x="348.8" y="113" class="st92" width="17.1" height="18.8"/>
	</g>
</g>
<g>
	<defs>
		<path id="SVGID_187_" d="M400.6,156c7.5,0,26.6-2.6,30.5-4.4l0.4-1.4c-20.9,5.4-37.2,4.1-37.4,4.1c-1-0.1-21.3-1.6-27-14.8
			c-3.5-8.3-11.7-9.5-16.7-11.8c-4.9-2.2-8.1-3.4-7.1-7.6c1.7-7,6.1-9.2,9.8-9.9c8.4-1.5,19.3,3,24.1,10.1
			c4.5,6.6,12.9,14.8,17.5,12.4l-1.6-2.4c-3.7,2.4-10.6-4.9-14.5-10.6c-5.1-7.5-17.3-12.6-26.1-11c-4.2,0.7-9.5,3.3-11.4,11
			c-1.3,5.5,2.6,7.3,7.2,9.4c4.8,2.2,13.6,3.5,17,11.3c6,14.1,26.2,15.5,28.7,15.7C394.3,156.1,397.6,156.2,400.6,156"/>
	</defs>
	<clipPath id="SVGID_188_">
		<use xlink:href="#SVGID_187_"  style="overflow:visible;"/>
	</clipPath>
	<g class="st93">
		<defs>
			<rect id="SVGID_189_" x="-261.1" y="-516.5" width="1024" height="768"/>
		</defs>
		<clipPath id="SVGID_190_">
			<use xlink:href="#SVGID_189_"  style="overflow:visible;"/>
		</clipPath>
		<rect x="335.9" y="103.4" class="st94" width="100.6" height="57.8"/>
	</g>
</g>
<g>
	<defs>
		<path id="SVGID_191_" d="M438.4,180.8c10,0,20.3-3.8,29.2-10.6c7.8-6.1,12.9-15.4,14.3-26.2c1.7-13.8-2.5-28.5-11.8-40.4
			c-0.3-0.4-0.7-0.5-1.1-0.5c-0.3,0-0.6,0.1-0.9,0.3l-65.4,50.7c-0.5,0.4-0.7,1.1-0.4,1.7C412.8,176.5,427.7,180.8,438.4,180.8"/>
	</defs>
	<clipPath id="SVGID_192_">
		<use xlink:href="#SVGID_191_"  style="overflow:visible;"/>
	</clipPath>
	<g class="st95">
		<defs>
			<rect id="SVGID_193_" x="-261.1" y="-516.5" width="1024" height="768"/>
		</defs>
		<clipPath id="SVGID_194_">
			<use xlink:href="#SVGID_193_"  style="overflow:visible;"/>
		</clipPath>
		<rect x="397.1" y="98.1" class="st96" width="90" height="87.7"/>
	</g>
</g>
<g>
	<defs>
		<path id="SVGID_195_" d="M468.9,104.5l-65.4,50.7c8.9,17.6,21.9,24.2,34.8,24.2c10.2,0,20.3-4.2,28.3-10.3
			C484.7,155.1,485.4,125.7,468.9,104.5 M468.9,101.7c0.8,0,1.7,0.4,2.2,1.1c9.4,12.1,13.8,27.2,12,41.4
			c-1.4,11.2-6.7,20.8-14.8,27.1c-9.1,7-19.7,10.9-30,10.9c-15.6,0-28.9-9.2-37.3-25.8c-0.6-1.2-0.3-2.6,0.8-3.5l65.4-50.7
			C467.7,101.9,468.3,101.7,468.9,101.7"/>
	</defs>
	<clipPath id="SVGID_196_">
		<use xlink:href="#SVGID_195_"  style="overflow:visible;"/>
	</clipPath>
	<g class="st97">
		<defs>
			<rect id="SVGID_197_" x="-261.1" y="-516.5" width="1024" height="768"/>
		</defs>
		<clipPath id="SVGID_198_">
			<use xlink:href="#SVGID_197_"  style="overflow:visible;"/>
		</clipPath>
		<rect x="395.7" y="96.7" class="st98" width="92.8" height="90.5"/>
	</g>
</g>
</svg>
