<svg xmlns="http://www.w3.org/2000/svg" width="138" height="132" viewBox="0 0 138 132"><path fill="#472728" d="M134.483 98.112c-.271-.328-56.794-73.929-79.401-101.081l-40.607 31.56c16.702 20.938 77.881 98.343 79.934 100.902l.217.271c4.652 5.914 9.412 5.209 11.835 4.263a8.895 8.895 0 0 0 2.272-1.294c2.195-1.727 3.418-4.406 3.581-7.628 3.138 1.358 6.769.938 9.563-1.259l.01-.007.006-.005c2.985-2.351 4.225-6.038 3.421-9.551 3.411.793 6.514.257 8.857-1.587a8.892 8.892 0 0 0 1.802-1.9c1.015-1.456 3.912-6.669-1.49-12.684z"/><path fill="#3D6D74" d="M131.239 101.475S57.033 6.272 53.947 3.293L37.709 16.066l-16.66 13.107c2.172 3.699 77.655 97.896 77.655 97.896 1.766 2.244 3.848 3.789 6.383 2.798 2.538-.987 3.07-3.815 2.801-6.379l-.704-5.687a1.863 1.863 0 0 1 3.323-1.299l2.239 2.847a4.927 4.927 0 0 0 6.887.849 4.928 4.928 0 0 0 .799-6.895l-2.238-2.846a1.862 1.862 0 0 1 .313-2.616 1.87 1.87 0 0 1 1.731-.31l5.356 2.025c2.432.864 5.304 1.013 6.861-1.22 1.56-2.229.827-4.607-1.216-6.861"/></svg>