<svg id="Capa_1" xmlns="http://www.w3.org/2000/svg" viewBox="0 0 50 50"><style>.st0{fill:#fff}</style><path class="st0" d="M21.9 32.7c-2.1 2.1-4.7 3.1-7.9 3.1s-5.7-1-7.9-3.1c-2-2-3.1-4.6-3.1-7.7 0-3.1 1.1-5.7 3.2-7.7 2.1-2.1 4.7-3.1 7.9-3.1s5.7 1 7.9 3.1c2.1 2.1 3.2 4.6 3.2 7.7-.1 3.1-1.2 5.7-3.3 7.7zm-2.6-13.1c-1.4-1.5-3.2-2.2-5.3-2.2-2.1 0-3.8.7-5.3 2.2-1.4 1.5-2.1 3.3-2.1 5.4 0 2.1.7 3.9 2.1 5.4 1.4 1.5 3.2 2.2 5.3 2.2 2.1 0 3.8-.7 5.3-2.2 1.4-1.5 2.1-3.3 2.1-5.4 0-2.1-.7-3.9-2.1-5.4zM29.2 14.7h3.5v10.2l9.6-10.2h4.5l-8.4 9.2L47 35.6h-4.2l-7-9.2-3.1 3.3v5.9h-3.5V14.7z"/></svg>