<svg width="109" height="109" viewBox="0 0 109 109" xmlns="http://www.w3.org/2000/svg" xmlns:xlink="http://www.w3.org/1999/xlink"><title>Slice 1</title><defs><filter x="-50%" y="-50%" width="200%" height="200%" filterUnits="objectBoundingBox" id="a"><feOffset dy="3" in="SourceAlpha" result="shadowOffsetOuter1"/><feGaussianBlur stdDeviation="2" in="shadowOffsetOuter1" result="shadowBlurOuter1"/><feColorMatrix values="0 0 0 0 0 0 0 0 0 0 0 0 0 0 0 0 0 0 0.35 0" in="shadowBlurOuter1" result="shadowMatrixOuter1"/><feMerge><feMergeNode in="shadowMatrixOuter1"/><feMergeNode in="SourceGraphic"/></feMerge></filter><path id="b" d="M0 .587h49.7V45.07H0"/></defs><g fill="none" fill-rule="evenodd"><circle stroke="#FFF" stroke-width="3" fill="#3B4" filter="url(#a)" cx="54.5" cy="51.5" r="48.5"/><g transform="translate(30 29)"><mask id="c" fill="#fff"><use xlink:href="#b"/></mask><path d="M24.651.587c-1.776 0-3.507.019-5.141.056C15.832.725 12.778 2.7 11.346 5.8 3.802 6.024.1 9.963.036 17.828c-.05 5.61-.047 10.603.009 15.261.093 7.694 4.251 11.825 12.025 11.948 1.481.023 3.055.033 4.953.033 1.34 0 2.681-.005 4.02-.01 1.27-.004 2.539-.01 3.808-.01h.798l3.483.001 3.491.002c1.782 0 3.564-.002 5.345-.008 6.86-.02 11.416-4.233 11.605-10.732.166-5.733.168-11.76.007-17.912-.167-6.238-4.5-10.593-10.54-10.593-.149 0-.3.002-.451.007-.154.005-.305.009-.452.011-1.144-3.108-4.262-5.12-8.17-5.19-1.893-.033-3.63-.05-5.316-.05m0 5.634c1.74 0 3.477.018 5.214.049 1.267.023 2.738.467 3.045 1.7.744 2.982 2.617 3.492 5.055 3.492.266 0 .538-.005.817-.015.087-.003.174-.004.258-.004 3.153-.001 4.826 2.047 4.908 5.107.154 5.863.164 11.736-.006 17.6-.107 3.67-2.474 5.252-5.992 5.262-1.776.006-3.55.008-5.327.008l-6.974-.003h-.8c-2.608 0-5.217.02-7.826.02-1.622 0-3.243-.007-4.864-.032-4.769-.075-6.424-1.706-6.48-6.381-.061-5.05-.055-10.1-.01-15.148.04-4.894 1.45-6.43 6.286-6.45 2.141-.01 3.674-.286 4.291-2.656.42-1.613 1.762-2.457 3.393-2.494 1.67-.038 3.341-.055 5.012-.055" fill="#FFF" mask="url(#c)"/></g><path d="M54.83 47.004c-3.563 0-6.338 2.711-6.356 6.172-.019 3.448 2.795 6.272 6.272 6.294l.043 2.817V59.47c3.508 0 6.27-2.727 6.288-6.208.01-1.705-.62-3.281-1.774-4.441-1.159-1.163-2.747-1.809-4.472-1.817m-.042 18.1c-.002-.004-.073 0-.073 0-6.585-.041-11.91-5.406-11.876-11.957.036-6.604 5.286-11.777 11.951-11.777 3.292.015 6.288 1.25 8.505 3.477 2.22 2.23 3.433 5.23 3.415 8.446-.035 6.512-5.382 11.81-11.922 11.81" fill="#FFF"/></g></svg>