<svg xmlns="http://www.w3.org/2000/svg" xmlns:xlink="http://www.w3.org/1999/xlink" width="1441" height="901" viewBox="0 0 1441 901"><radialGradient id="a" cx="720" cy="21.5" r="510.051" gradientUnits="userSpaceOnUse"><stop offset=".021" stop-color="#acd2e2"/><stop offset="1" stop-color="#9cc4e9"/></radialGradient><path fill="url(#a)" d="M-1 0h1442v43H-1z"/><defs><path id="b" d="M-1 0h1442v43H-1z"/></defs><clipPath id="c"><use xlink:href="#b" overflow="visible"/></clipPath><path clip-path="url(#c)" fill="#326535" d="M468.997 73.474S287.212 35.726 140.225 45.191C-6.766 54.655-22.311 55.856-22.311 55.856S57.727-3.08 159.182 26.006c10.496-18.312 36.473-8.301 36.473-8.301s9.452-71.422 87.499-69.789c78.042 1.635 156.347 39.561 127.387 87.76 40.671-9.546 58.456 37.798 58.456 37.798"/><path clip-path="url(#c)" fill="#326535" d="M712.33 80.807S530.545 43.059 383.558 52.524C236.569 61.989 221.023 63.19 221.023 63.19s80.039-58.936 181.494-29.85c10.496-18.312 36.473-8.301 36.473-8.301s9.452-71.422 87.499-69.789c78.042 1.635 156.347 39.561 127.387 87.76 40.67-9.547 58.454 37.797 58.454 37.797"/><path clip-path="url(#c)" fill="#326535" d="M843.381 94.31s-136.165-17.604-250.324 6.357c-114.161 23.962-126.255 26.688-126.255 26.688s67.622-64.419 142.802-46.936c9.942-18.556 28.931-11.631 28.931-11.631s14.529-69.18 74.47-75.543c59.937-6.36 116.391 21.917 89.195 70.896 32.291-13.247 41.181 30.169 41.181 30.169"/><path clip-path="url(#c)" fill="#326535" d="M1194.997 85.474s-181.785-37.748-328.772-28.283C719.235 66.656 703.69 67.857 703.69 67.857s80.038-58.936 181.493-29.85c10.496-18.312 36.473-8.301 36.473-8.301s9.452-71.422 87.499-69.789c78.042 1.635 156.347 39.561 127.387 87.76 40.67-9.547 58.455 37.797 58.455 37.797"/><path clip-path="url(#c)" fill="#326535" d="M1438.33 92.807s-181.785-37.748-328.772-28.283C962.569 73.989 947.023 75.19 947.023 75.19s80.039-58.936 181.494-29.85c10.496-18.312 36.473-8.301 36.473-8.301s9.452-71.422 87.499-69.789c78.042 1.635 156.347 39.561 127.387 87.76 40.67-9.547 58.454 37.797 58.454 37.797"/><path clip-path="url(#c)" fill="#326535" d="M1569.381 106.31s-136.165-17.604-250.324 6.357c-114.161 23.962-126.255 26.688-126.255 26.688s67.622-64.419 142.802-46.936c9.942-18.556 28.931-11.631 28.931-11.631s14.529-69.18 74.47-75.543c59.937-6.36 116.391 21.917 89.195 70.896 32.291-13.247 41.181 30.169 41.181 30.169"/><path clip-path="url(#c)" fill="none" stroke="#472728" stroke-width="2" stroke-miterlimit="10" d="M1528.2 77.141c27.195-48.979-29.259-77.256-89.195-70.896-24.609 2.612-41.559 15.813-52.996 30.468 1.211-38.677-66.248-67.054-133.521-68.463-78.046-1.633-87.499 69.789-87.499 69.789s-12.197-4.697-23.253-1.765c10.041-42.157-61.371-73.866-132.582-75.357-78.047-1.633-87.499 69.789-87.499 69.789s-25.977-10.011-36.473 8.301c-27.732-7.95-53.857-9.315-77.191-7.114-7.678-27.914-50.361-42.383-94.986-37.648-24.609 2.612-41.559 15.813-52.996 30.468 1.211-38.677-66.248-67.054-133.521-68.463-78.046-1.633-87.499 69.789-87.499 69.789s-12.197-4.697-23.253-1.765c10.041-42.157-61.371-73.866-132.582-75.357-78.047-1.633-87.499 69.789-87.499 69.789s-25.977-10.011-36.473 8.301C57.728-2.079-22.311 56.856-22.311 56.856s15.545-1.201 162.535-10.666c36.493-2.35 75.13-1.789 112.599.382-20.103 9.012-31.8 17.617-31.8 17.617s13.166-1.018 129.699-8.548c68.509 8.498 118.275 18.832 118.275 18.832s-4.38-11.651-13.757-22.229c67.245 1.485 134.574 9.524 183.455 16.845-.107.451-.159.698-.159.698s-18.989-6.925-28.931 11.631c-75.18-17.483-142.802 46.936-142.802 46.936s12.094-2.726 126.255-26.688c114.159-23.961 250.324-6.357 250.324-6.357s-8.89-43.416-41.181-30.169a69.72 69.72 0 0 0 1.52-2.911c17.612-1.144 38.26-2.478 62.504-4.039 36.493-2.35 75.13-1.789 112.599.382-20.103 9.012-31.8 17.617-31.8 17.617s13.166-1.018 129.699-8.548c68.509 8.498 118.275 18.832 118.275 18.832s-4.38-11.651-13.757-22.229c67.245 1.485 134.574 9.524 183.455 16.845-.107.451-.159.698-.159.698s-18.989-6.925-28.931 11.631c-75.18-17.483-142.802 46.936-142.802 46.936s12.094-2.726 126.255-26.688c114.159-23.961 250.324-6.357 250.324-6.357s-8.892-43.415-41.183-30.168z"/><path fill="#7EAC63" stroke="#472728" stroke-miterlimit="10" d="M-.5 42.5h1441v14H-.5z"/><g><defs><path id="d" d="M1-394h1440V901H1z"/></defs><clipPath id="e"><use xlink:href="#d" overflow="visible"/></clipPath><g clip-path="url(#e)"><path fill="#916633" stroke="#472728" stroke-width="2" stroke-miterlimit="10" d="M-11 55h1460v878H-11z"/><path opacity=".6" fill="#A67339" d="M152.816 90.289c0 8.628-6.993 15.627-15.626 15.627-8.628 0-15.626-6.999-15.626-15.627 0-8.633 6.998-15.627 15.626-15.627 8.633 0 15.626 6.994 15.626 15.627z"/><path opacity=".3" fill="#734A1E" d="M411.679 113.46c0 18.804-15.244 35.047-34.045 35.047s-34.045-16.243-34.045-35.047 15.244-34.043 34.045-34.043 34.045 15.239 34.045 34.043z"/><circle opacity=".3" fill="#734A1E" cx="281.478" cy="92.422" r="11.313"/><path opacity=".3" fill="#734A1E" d="M1202.144 132.195a8.486 8.486 0 0 1-8.487 8.486c-4.684 0-8.48-3.797-8.48-8.486a8.48 8.48 0 0 1 8.48-8.481c4.685 0 8.487 3.797 8.487 8.481zM229.464 131.148c0 11.896-9.643 21.532-21.532 21.532-11.894 0-21.532-9.637-21.532-21.532 0-11.89 9.639-21.531 21.532-21.531 11.89 0 21.532 9.642 21.532 21.531z"/><path opacity=".6" fill="#A67339" d="M543.4 116.863c0 19.53-15.833 35.358-35.357 35.358-19.527 0-35.359-15.828-35.359-35.358s15.832-35.358 35.359-35.358c19.524 0 35.357 15.828 35.357 35.358zM1406.696 95.79c0 12.565-10.192 22.757-22.757 22.757-12.566 0-22.758-10.191-22.758-22.757s10.191-22.757 22.758-22.757c12.564 0 22.757 10.191 22.757 22.757z"/><path opacity=".6" fill="#A67339" d="M542.902 127.307c0 10.927-8.859 19.781-19.787 19.781-10.925 0-19.782-8.854-19.782-19.781 0-10.928 8.857-19.787 19.782-19.787 10.927 0 19.787 8.859 19.787 19.787z"/><circle opacity=".6" fill="#A67339" cx="1292.501" cy="115.848" r="12.062"/><circle opacity=".6" fill="#A67339" cx="93.13" cy="95.867" r="12.063"/><circle opacity=".6" fill="#A67339" cx="273.336" cy="91.564" r="6.784"/><path opacity=".6" fill="#A67339" d="M364.519 121.81c0 9.284-7.529 16.813-16.818 16.813-9.281 0-16.811-7.528-16.811-16.813 0-9.288 7.529-16.816 16.811-16.816 9.289-.001 16.818 7.527 16.818 16.816z"/><path opacity=".3" fill="#734A1E" d="M532.716 84.661a4.544 4.544 0 1 1-9.088 0 4.544 4.544 0 0 1 9.088 0zM368.818 79.004a4.542 4.542 0 1 1-9.084 0 4.54 4.54 0 0 1 4.543-4.538 4.54 4.54 0 0 1 4.541 4.538zM1182.256 128.827a4.54 4.54 0 0 1-4.543 4.538 4.539 4.539 0 0 1-4.539-4.538 4.539 4.539 0 0 1 4.539-4.543 4.54 4.54 0 0 1 4.543 4.543zM93.996 91.443a4.54 4.54 0 1 1-9.082 0 4.544 4.544 0 0 1 4.541-4.543 4.545 4.545 0 0 1 4.541 4.543z"/><path opacity=".6" fill="#A67339" d="M1243.559 119.761a4.542 4.542 0 0 1-9.082 0 4.542 4.542 0 0 1 9.082 0z"/><circle opacity=".6" fill="#A67339" cx="460.34" cy="89.201" r="4.542"/><path opacity=".6" fill="#A67339" d="M174.248 100.511a4.545 4.545 0 0 1-4.541 4.543 4.544 4.544 0 0 1 0-9.087 4.545 4.545 0 0 1 4.541 4.544zM218.411 84.661a4.54 4.54 0 0 1-9.081 0 4.54 4.54 0 0 1 9.081 0z"/><circle opacity=".6" fill="#A67339" cx="678.663" cy="129.287" r="15.626"/><path opacity=".3" fill="#734A1E" d="M953.152 152.458c0 18.804-15.244 35.047-34.045 35.047s-34.045-16.243-34.045-35.047 15.244-34.043 34.045-34.043 34.045 15.239 34.045 34.043z"/><circle opacity=".3" fill="#734A1E" cx="822.951" cy="131.42" r="11.313"/><path opacity=".3" fill="#734A1E" d="M770.937 170.146c0 11.896-9.643 21.532-21.533 21.532-11.893 0-21.531-9.637-21.531-21.532 0-11.89 9.639-21.531 21.531-21.531 11.89 0 21.533 9.642 21.533 21.531z"/><circle opacity=".6" fill="#A67339" cx="764.547" cy="100.353" r="26.319"/><path opacity=".6" fill="#A67339" d="M1084.874 155.861c0 19.53-15.834 35.358-35.358 35.358-19.527 0-35.358-15.828-35.358-35.358s15.831-35.358 35.358-35.358c19.524 0 35.358 15.828 35.358 35.358z"/><path opacity=".6" fill="#A67339" d="M1084.375 166.305c0 10.927-8.859 19.781-19.787 19.781-10.925 0-19.783-8.854-19.783-19.781 0-10.928 8.858-19.787 19.783-19.787 10.927 0 19.787 8.859 19.787 19.787z"/><circle opacity=".6" fill="#A67339" cx="634.604" cy="134.864" r="12.062"/><circle opacity=".6" fill="#A67339" cx="814.81" cy="130.563" r="6.785"/><path opacity=".6" fill="#A67339" d="M905.992 160.808c0 9.284-7.529 16.813-16.817 16.813-9.283 0-16.812-7.528-16.812-16.813 0-9.288 7.528-16.815 16.812-16.815 9.287-.001 16.817 7.527 16.817 16.815z"/><path opacity=".3" fill="#734A1E" d="M1074.189 123.66a4.541 4.541 0 0 1-4.544 4.539 4.544 4.544 0 0 1-4.544-4.539 4.543 4.543 0 0 1 4.544-4.543 4.54 4.54 0 0 1 4.544 4.543zM910.291 118.002a4.542 4.542 0 1 1-9.084 0 4.54 4.54 0 0 1 4.543-4.538 4.542 4.542 0 0 1 4.541 4.538zM635.468 130.441a4.54 4.54 0 1 1-9.082 0c0-2.506 2.033-4.543 4.541-4.543s4.541 2.038 4.541 4.543z"/><circle opacity=".6" fill="#A67339" cx="1001.813" cy="128.199" r="4.542"/><path opacity=".6" fill="#A67339" d="M715.72 139.509a4.545 4.545 0 0 1-4.541 4.543 4.544 4.544 0 0 1 0-9.087 4.545 4.545 0 0 1 4.541 4.544zM759.882 123.66c0 2.506-2.031 4.539-4.54 4.539s-4.54-2.033-4.54-4.539c0-2.512 2.031-4.543 4.54-4.543s4.54 2.031 4.54 4.543z"/><circle opacity=".6" fill="#A67339" cx="1324.574" cy="242.289" r="15.626"/><path opacity=".3" fill="#734A1E" d="M1050.085 265.46c0 18.804 15.244 35.047 34.045 35.047s34.045-16.243 34.045-35.047-15.244-34.043-34.045-34.043-34.045 15.239-34.045 34.043z"/><circle opacity=".3" fill="#734A1E" cx="1180.287" cy="244.422" r="11.313"/><path opacity=".3" fill="#734A1E" d="M262.621 249.697a8.486 8.486 0 0 0 8.487 8.486c4.684 0 8.48-3.797 8.48-8.486a8.48 8.48 0 0 0-8.48-8.481c-4.686 0-8.487 3.797-8.487 8.481zM1232.3 283.148c0 11.896 9.643 21.532 21.532 21.532 11.894 0 21.532-9.637 21.532-21.532 0-11.89-9.639-21.531-21.532-21.531-11.889 0-21.532 9.642-21.532 21.531z"/><circle opacity=".6" fill="#A67339" cx="1238.69" cy="213.354" r="26.319"/><path opacity=".6" fill="#A67339" d="M918.364 268.863c0 19.53 15.834 35.358 35.358 35.358 19.527 0 35.358-15.828 35.358-35.358s-15.831-35.358-35.358-35.358c-19.524 0-35.358 15.828-35.358 35.358zM55.068 247.79c0 12.565 10.192 22.757 22.758 22.757 12.566 0 22.758-10.191 22.758-22.757s-10.191-22.757-22.758-22.757c-12.566 0-22.758 10.191-22.758 22.757z"/><path opacity=".6" fill="#A67339" d="M918.863 279.307c0 10.927 8.859 19.781 19.787 19.781 10.925 0 19.782-8.854 19.782-19.781 0-10.928-8.857-19.787-19.782-19.787-10.928 0-19.787 8.859-19.787 19.787z"/><circle opacity=".6" fill="#A67339" cx="172.263" cy="233.35" r="12.062"/><circle opacity=".6" fill="#A67339" cx="1368.634" cy="247.867" r="12.062"/><circle opacity=".6" fill="#A67339" cx="1188.428" cy="243.564" r="6.785"/><path opacity=".6" fill="#A67339" d="M1097.246 273.81c0 9.284 7.529 16.813 16.817 16.813 9.283 0 16.812-7.528 16.812-16.813 0-9.288-7.528-16.816-16.812-16.816-9.288-.001-16.817 7.527-16.817 16.816z"/><path opacity=".3" fill="#734A1E" d="M929.048 236.661a4.544 4.544 0 1 0 9.088 0 4.544 4.544 0 0 0-9.088 0zM1092.947 231.004a4.542 4.542 0 1 0 9.084 0 4.54 4.54 0 0 0-4.543-4.538 4.54 4.54 0 0 0-4.541 4.538zM282.508 246.329a4.54 4.54 0 0 0 4.542 4.538 4.539 4.539 0 0 0 4.54-4.538 4.54 4.54 0 1 0-9.082 0zM1367.769 243.443a4.54 4.54 0 1 0 9.082 0 4.544 4.544 0 0 0-4.541-4.543 4.544 4.544 0 0 0-4.541 4.543z"/><path opacity=".6" fill="#A67339" d="M221.206 237.263a4.541 4.541 0 0 0 9.081 0 4.542 4.542 0 0 0-9.081 0z"/><path opacity=".3" fill="#734A1E" d="M829.617 302.023a8.483 8.483 0 1 0 16.968 0c0-4.685-3.799-8.481-8.482-8.481s-8.486 3.797-8.486 8.481z"/><path opacity=".6" fill="#A67339" d="M622.065 300.117c0 12.564 10.191 22.756 22.757 22.756s22.758-10.191 22.758-22.756c0-12.567-10.191-22.759-22.758-22.759-12.566 0-22.757 10.192-22.757 22.759z"/><circle opacity=".6" fill="#A67339" cx="739.259" cy="285.676" r="12.061"/><path opacity=".3" fill="#734A1E" d="M849.503 298.655a4.54 4.54 0 0 0 4.544 4.538 4.54 4.54 0 1 0 0-9.081 4.542 4.542 0 0 0-4.544 4.543z"/><path opacity=".6" fill="#A67339" d="M788.201 289.589a4.541 4.541 0 1 0 9.083 0 4.542 4.542 0 0 0-9.083 0z"/><circle opacity=".6" fill="#A67339" cx="1001.424" cy="241.201" r="4.542"/><path opacity=".6" fill="#A67339" d="M1287.517 252.511a4.544 4.544 0 0 0 4.541 4.543 4.544 4.544 0 0 0 0-9.087 4.544 4.544 0 0 0-4.541 4.544zM1243.353 236.661a4.54 4.54 0 0 0 9.082 0 4.54 4.54 0 1 0-9.082 0z"/><circle opacity=".6" fill="#A67339" cx="1239.123" cy="403.106" r="15.626"/><path opacity=".3" fill="#734A1E" d="M504.113 236.962c0 18.804 15.244 35.047 34.045 35.047s34.045-16.243 34.045-35.047-15.244-34.043-34.045-34.043-34.045 15.239-34.045 34.043z"/><circle opacity=".3" fill="#734A1E" cx="1094.835" cy="405.24" r="11.313"/><path opacity=".3" fill="#734A1E" d="M1146.849 443.966c0 11.896 9.643 21.532 21.532 21.532 11.894 0 21.532-9.637 21.532-21.532 0-11.89-9.639-21.531-21.532-21.531-11.889 0-21.532 9.641-21.532 21.531z"/><circle opacity=".6" fill="#A67339" cx="1153.239" cy="374.172" r="26.319"/><path opacity=".6" fill="#A67339" d="M352.893 250.864c0 19.53 15.834 35.358 35.358 35.358 19.527 0 35.358-15.828 35.358-35.358s-15.831-35.358-35.358-35.358c-19.524 0-35.358 15.828-35.358 35.358z"/><path opacity=".6" fill="#A67339" d="M353.392 261.308c0 10.927 8.859 19.781 19.787 19.781 10.924 0 19.782-8.854 19.782-19.781 0-10.928-8.858-19.787-19.782-19.787-10.928 0-19.787 8.859-19.787 19.787z"/><circle opacity=".6" fill="#A67339" cx="1283.183" cy="408.684" r="12.062"/><circle opacity=".6" fill="#A67339" cx="1102.977" cy="404.382" r="6.785"/><path opacity=".6" fill="#A67339" d="M551.273 245.312c0 9.284 7.529 16.813 16.817 16.813 9.283 0 16.812-7.528 16.812-16.813 0-9.288-7.528-16.816-16.812-16.816-9.288-.001-16.817 7.527-16.817 16.816z"/><path opacity=".3" fill="#734A1E" d="M363.578 218.662a4.54 4.54 0 0 0 4.543 4.539 4.543 4.543 0 0 0 4.545-4.539 4.544 4.544 0 0 0-9.088 0zM546.974 202.506a4.542 4.542 0 1 0 9.084 0 4.54 4.54 0 0 0-4.543-4.538 4.54 4.54 0 0 0-4.541 4.538zM1282.318 404.261a4.54 4.54 0 1 0 9.082 0 4.544 4.544 0 0 0-4.541-4.543 4.543 4.543 0 0 0-4.541 4.543z"/><circle opacity=".6" fill="#A67339" cx="435.953" cy="223.201" r="4.542"/><path opacity=".3" fill="#734A1E" d="M181.625 380.19a8.486 8.486 0 0 0 8.487 8.486c4.684 0 8.48-3.797 8.48-8.486a8.48 8.48 0 0 0-8.48-8.481c-4.686 0-8.487 3.797-8.487 8.481zM201.512 376.822a4.54 4.54 0 0 0 4.543 4.538 4.539 4.539 0 0 0 4.539-4.538 4.54 4.54 0 1 0-9.082 0zM432.972 367.601c0 13.36 10.83 24.901 24.189 24.901 13.357 0 24.189-11.541 24.189-24.901s-10.832-24.188-24.189-24.188c-13.359-.001-24.189 10.827-24.189 24.188z"/><path opacity=".6" fill="#A67339" d="M271.897 381.357c0 19.53 15.834 35.358 35.358 35.358 19.527 0 35.358-15.828 35.358-35.358s-15.831-35.358-35.358-35.358c-19.524 0-35.358 15.828-35.358 35.358z"/><path opacity=".6" fill="#A67339" d="M272.396 391.801c0 10.927 8.859 19.781 19.787 19.781 10.925 0 19.782-8.854 19.782-19.781 0-10.928-8.857-19.787-19.782-19.787-10.928 0-19.787 8.859-19.787 19.787z"/><circle opacity=".6" fill="#A67339" cx="354.957" cy="353.694" r="4.542"/><path opacity=".6" fill="#A67339" d="M1202.066 413.328a4.544 4.544 0 0 0 4.541 4.543 4.544 4.544 0 0 0 0-9.087 4.544 4.544 0 0 0-4.541 4.544zM1157.903 397.479c0 2.507 2.032 4.539 4.541 4.539s4.54-2.032 4.54-4.539a4.54 4.54 0 1 0-9.081 0zM963.964 375.783c0 8.627 6.994 15.627 15.627 15.627 8.627 0 15.626-7 15.626-15.627 0-8.634-6.999-15.628-15.626-15.628-8.633 0-15.627 6.994-15.627 15.628z"/><path opacity=".3" fill="#734A1E" d="M705.102 398.953c0 18.804 15.244 35.047 34.045 35.047s34.045-16.243 34.045-35.047-15.244-34.043-34.045-34.043-34.045 15.239-34.045 34.043zM887.316 416.642c0 11.896 9.645 21.532 21.533 21.532 11.894 0 21.532-9.637 21.532-21.532 0-11.89-9.639-21.531-21.532-21.531-11.889-.001-21.533 9.641-21.533 21.531z"/><path opacity=".6" fill="#A67339" d="M573.38 402.356c0 19.53 15.834 35.358 35.358 35.358 19.527 0 35.358-15.828 35.358-35.358s-15.831-35.358-35.358-35.358c-19.524 0-35.358 15.828-35.358 35.358z"/><path opacity=".6" fill="#A67339" d="M573.879 412.8c0 10.927 8.859 19.781 19.787 19.781 10.925 0 19.782-8.854 19.782-19.781 0-10.928-8.857-19.787-19.782-19.787-10.927 0-19.787 8.859-19.787 19.787z"/><circle opacity=".6" fill="#A67339" cx="1023.65" cy="381.359" r="12.063"/><path opacity=".6" fill="#A67339" d="M752.262 407.303c0 9.284 7.529 16.813 16.817 16.813 9.283 0 16.812-7.528 16.812-16.813 0-9.288-7.528-16.816-16.812-16.816-9.287-.001-16.817 7.528-16.817 16.816z"/><circle opacity=".6" fill="#A67339" cx="808.255" cy="507.665" r="26.32"/><circle opacity=".6" fill="#A67339" cx="94.255" cy="443.665" r="26.32"/><path opacity=".6" fill="#A67339" d="M812.919 530.972c0 2.507 2.032 4.539 4.541 4.539s4.54-2.032 4.54-4.539a4.54 4.54 0 1 0-9.081 0zM1144.439 904.376c0-8.628 6.993-15.627 15.626-15.627 8.628 0 15.626 6.999 15.626 15.627 0 8.633-6.998 15.627-15.626 15.627-8.632 0-15.626-6.994-15.626-15.627z"/><path opacity=".3" fill="#734A1E" d="M885.576 881.205c0-18.804 15.244-35.047 34.045-35.047s34.045 16.243 34.045 35.047-15.244 34.043-34.045 34.043-34.045-15.239-34.045-34.043z"/><circle opacity=".3" fill="#734A1E" cx="1015.777" cy="902.243" r="11.313"/><path opacity=".3" fill="#734A1E" d="M95.111 862.47a8.486 8.486 0 0 1 8.487-8.486c4.684 0 8.48 3.797 8.48 8.486a8.48 8.48 0 0 1-8.48 8.481c-4.685 0-8.487-3.797-8.487-8.481zM1067.791 863.517c0-11.896 9.643-21.532 21.532-21.532 11.894 0 21.532 9.637 21.532 21.532 0 11.89-9.639 21.531-21.532 21.531-11.889 0-21.532-9.642-21.532-21.531z"/><path opacity=".6" fill="#A67339" d="M753.855 877.802c0-19.53 15.833-35.358 35.357-35.358 19.527 0 35.359 15.828 35.359 35.358s-15.832 35.358-35.359 35.358c-19.524 0-35.357-15.828-35.357-35.358z"/><path opacity=".6" fill="#A67339" d="M754.353 867.358c0-10.927 8.86-19.781 19.788-19.781 10.925 0 19.782 8.854 19.782 19.781 0 10.928-8.857 19.787-19.782 19.787-10.928.001-19.788-8.859-19.788-19.787z"/><circle opacity=".6" fill="#A67339" cx="4.754" cy="878.817" r="12.062"/><circle opacity=".6" fill="#A67339" cx="1204.125" cy="898.798" r="12.063"/><circle opacity=".6" fill="#A67339" cx="1023.919" cy="903.101" r="6.784"/><path opacity=".6" fill="#A67339" d="M932.736 872.855c0-9.284 7.529-16.813 16.818-16.813 9.281 0 16.811 7.528 16.811 16.813 0 9.288-7.529 16.816-16.811 16.816-9.288.001-16.818-7.527-16.818-16.816z"/><path opacity=".3" fill="#734A1E" d="M114.999 865.838a4.54 4.54 0 0 1 4.543-4.538 4.539 4.539 0 0 1 4.539 4.538 4.539 4.539 0 0 1-4.539 4.543 4.54 4.54 0 0 1-4.543-4.543zM1203.26 903.222a4.54 4.54 0 1 1 9.082 0 4.544 4.544 0 0 1-4.541 4.543 4.543 4.543 0 0 1-4.541-4.543z"/><path opacity=".6" fill="#A67339" d="M53.696 874.904a4.542 4.542 0 0 1 9.082 0 4.542 4.542 0 0 1-9.082 0z"/><circle opacity=".6" fill="#A67339" cx="836.915" cy="905.464" r="4.542"/><path opacity=".6" fill="#A67339" d="M1123.008 894.154a4.545 4.545 0 0 1 4.541-4.543 4.544 4.544 0 0 1 0 9.087 4.545 4.545 0 0 1-4.541-4.544z"/><circle opacity=".6" fill="#A67339" cx="618.592" cy="865.378" r="15.626"/><path opacity=".3" fill="#734A1E" d="M344.103 842.207c0-18.804 15.245-35.047 34.045-35.047s34.045 16.243 34.045 35.047-15.244 34.043-34.045 34.043-34.045-15.239-34.045-34.043z"/><circle opacity=".3" fill="#734A1E" cx="474.305" cy="863.245" r="11.313"/><path opacity=".3" fill="#734A1E" d="M526.318 824.519c0-11.896 9.643-21.532 21.533-21.532 11.893 0 21.531 9.637 21.531 21.532 0 11.89-9.639 21.531-21.531 21.531-11.89 0-21.533-9.642-21.533-21.531z"/><circle opacity=".6" fill="#A67339" cx="532.708" cy="894.313" r="26.319"/><path opacity=".6" fill="#A67339" d="M212.382 838.804c0-19.53 15.834-35.358 35.358-35.358 19.527 0 35.358 15.828 35.358 35.358s-15.831 35.358-35.358 35.358c-19.524 0-35.358-15.828-35.358-35.358z"/><path opacity=".6" fill="#A67339" d="M212.881 828.36c0-10.927 8.859-19.781 19.787-19.781 10.925 0 19.783 8.854 19.783 19.781 0 10.928-8.858 19.787-19.783 19.787-10.928 0-19.787-8.859-19.787-19.787z"/><circle opacity=".6" fill="#A67339" cx="662.652" cy="859.801" r="12.062"/><circle opacity=".6" fill="#A67339" cx="482.446" cy="864.103" r="6.785"/><path opacity=".6" fill="#A67339" d="M391.264 833.857c0-9.284 7.529-16.813 16.817-16.813 9.283 0 16.812 7.528 16.812 16.813 0 9.288-7.528 16.815-16.812 16.815-9.288.001-16.817-7.526-16.817-16.815z"/><path opacity=".3" fill="#734A1E" d="M223.066 871.005a4.541 4.541 0 0 1 4.544-4.539 4.544 4.544 0 0 1 4.544 4.539 4.543 4.543 0 0 1-4.544 4.543 4.541 4.541 0 0 1-4.544-4.543zM386.965 876.663a4.542 4.542 0 1 1 9.084 0 4.54 4.54 0 0 1-4.543 4.538 4.54 4.54 0 0 1-4.541-4.538zM661.787 864.224a4.54 4.54 0 1 1 9.082 0c0 2.506-2.033 4.543-4.541 4.543s-4.541-2.038-4.541-4.543z"/><circle opacity=".6" fill="#A67339" cx="295.442" cy="866.466" r="4.542"/><path opacity=".6" fill="#A67339" d="M581.535 855.156a4.545 4.545 0 0 1 4.541-4.543 4.544 4.544 0 0 1 0 9.087 4.545 4.545 0 0 1-4.541-4.544zM537.373 871.005c0-2.506 2.031-4.539 4.54-4.539s4.54 2.033 4.54 4.539c0 2.512-2.031 4.543-4.54 4.543s-4.54-2.031-4.54-4.543z"/><path opacity=".3" fill="#734A1E" d="M247.17 729.205c0-18.804-15.244-35.047-34.045-35.047s-34.045 16.243-34.045 35.047 15.244 34.043 34.045 34.043 34.045-15.239 34.045-34.043z"/><circle opacity=".3" fill="#734A1E" cx="116.969" cy="750.243" r="11.313"/><path opacity=".3" fill="#734A1E" d="M1034.635 744.968a8.486 8.486 0 0 0-8.487-8.486c-4.684 0-8.48 3.797-8.48 8.486a8.48 8.48 0 0 0 8.48 8.481c4.685 0 8.487-3.797 8.487-8.481zM64.955 711.517c0-11.896-9.643-21.532-21.532-21.532-11.894 0-21.532 9.637-21.532 21.532 0 11.89 9.639 21.531 21.532 21.531 11.889 0 21.532-9.642 21.532-21.531z"/><circle opacity=".6" fill="#A67339" cx="58.565" cy="781.311" r="26.319"/><path opacity=".6" fill="#A67339" d="M378.892 725.802c0-19.53-15.834-35.358-35.358-35.358-19.527 0-35.358 15.828-35.358 35.358s15.831 35.358 35.358 35.358c19.524 0 35.358-15.828 35.358-35.358zM1242.188 746.875c0-12.565-10.192-22.757-22.758-22.757-12.566 0-22.758 10.191-22.758 22.757s10.191 22.757 22.758 22.757c12.565 0 22.758-10.191 22.758-22.757z"/><path opacity=".6" fill="#A67339" d="M378.393 715.358c0-10.927-8.859-19.781-19.787-19.781-10.925 0-19.782 8.854-19.782 19.781 0 10.928 8.857 19.787 19.782 19.787 10.927.001 19.787-8.859 19.787-19.787z"/><circle opacity=".6" fill="#A67339" cx="1124.993" cy="761.315" r="12.062"/><circle opacity=".6" fill="#A67339" cx="108.828" cy="751.101" r="6.785"/><path opacity=".6" fill="#A67339" d="M200.01 720.855c0-9.284-7.529-16.813-16.817-16.813-9.283 0-16.812 7.528-16.812 16.813 0 9.288 7.528 16.816 16.812 16.816 9.287.001 16.817-7.527 16.817-16.816z"/><path opacity=".3" fill="#734A1E" d="M368.207 758.004a4.544 4.544 0 1 0-9.088 0 4.544 4.544 0 0 0 9.088 0zM204.309 763.661a4.542 4.542 0 1 0-9.084 0 4.54 4.54 0 0 0 4.543 4.538 4.542 4.542 0 0 0 4.541-4.538zM1014.747 748.336a4.54 4.54 0 0 0-4.542-4.538 4.539 4.539 0 0 0-4.54 4.538 4.54 4.54 0 0 0 4.54 4.543 4.54 4.54 0 0 0 4.542-4.543z"/><path opacity=".6" fill="#A67339" d="M1076.05 757.402a4.541 4.541 0 0 0-9.081 0 4.542 4.542 0 0 0 9.081 0z"/><path opacity=".3" fill="#734A1E" d="M467.639 692.642a8.483 8.483 0 1 0-16.968 0c0 4.685 3.799 8.481 8.482 8.481s8.486-3.797 8.486-8.481z"/><path opacity=".6" fill="#A67339" d="M675.19 694.548c0-12.564-10.191-22.756-22.757-22.756s-22.758 10.191-22.758 22.756c0 12.567 10.191 22.759 22.758 22.759 12.566 0 22.757-10.192 22.757-22.759z"/><circle opacity=".6" fill="#A67339" cx="557.997" cy="708.989" r="12.061"/><path opacity=".3" fill="#734A1E" d="M447.752 696.01a4.54 4.54 0 0 0-4.544-4.538 4.54 4.54 0 1 0 0 9.081 4.541 4.541 0 0 0 4.544-4.543z"/><path opacity=".6" fill="#A67339" d="M509.055 705.076a4.541 4.541 0 1 0-9.083 0 4.542 4.542 0 0 0 9.083 0z"/><circle opacity=".6" fill="#A67339" cx="295.832" cy="753.464" r="4.542"/><path opacity=".6" fill="#A67339" d="M9.738 742.154a4.544 4.544 0 0 0-4.541-4.543 4.544 4.544 0 0 0 0 9.087 4.544 4.544 0 0 0 4.541-4.544zM53.902 758.004a4.54 4.54 0 0 0-9.082 0 4.54 4.54 0 1 0 9.082 0z"/><circle opacity=".6" fill="#A67339" cx="58.132" cy="591.559" r="15.626"/><path opacity=".3" fill="#734A1E" d="M793.143 757.703c0-18.804-15.244-35.047-34.045-35.047s-34.045 16.243-34.045 35.047 15.244 34.043 34.045 34.043 34.045-15.239 34.045-34.043z"/><circle opacity=".3" fill="#734A1E" cx="202.42" cy="589.425" r="11.313"/><path opacity=".3" fill="#734A1E" d="M150.406 550.699c0-11.896-9.643-21.532-21.532-21.532-11.894 0-21.532 9.637-21.532 21.532 0 11.89 9.639 21.531 21.532 21.531 11.89 0 21.532-9.641 21.532-21.531z"/><circle opacity=".6" fill="#A67339" cx="144.017" cy="620.493" r="26.319"/><path opacity=".6" fill="#A67339" d="M944.362 743.801c0-19.53-15.834-35.358-35.358-35.358-19.527 0-35.358 15.828-35.358 35.358s15.831 35.358 35.358 35.358c19.524 0 35.358-15.828 35.358-35.358z"/><path opacity=".6" fill="#A67339" d="M943.863 733.357c0-10.927-8.859-19.781-19.787-19.781-10.924 0-19.782 8.854-19.782 19.781 0 10.928 8.858 19.787 19.782 19.787 10.928.001 19.787-8.859 19.787-19.787z"/><circle opacity=".6" fill="#A67339" cx="14.073" cy="585.981" r="12.062"/><circle opacity=".6" fill="#A67339" cx="194.279" cy="590.283" r="6.785"/><path opacity=".6" fill="#A67339" d="M745.982 749.354c0-9.284-7.529-16.813-16.817-16.813-9.283 0-16.812 7.528-16.812 16.813 0 9.288 7.529 16.816 16.812 16.816 9.288 0 16.817-7.528 16.817-16.816z"/><path opacity=".3" fill="#734A1E" d="M933.678 776.003a4.54 4.54 0 0 0-4.543-4.539 4.543 4.543 0 0 0-4.545 4.539 4.544 4.544 0 0 0 9.088 0zM750.281 792.159a4.542 4.542 0 1 0-9.084 0 4.54 4.54 0 0 0 4.543 4.538 4.54 4.54 0 0 0 4.541-4.538zM14.937 590.404a4.54 4.54 0 1 0-9.082 0 4.544 4.544 0 0 0 4.541 4.543 4.543 4.543 0 0 0 4.541-4.543z"/><circle opacity=".6" fill="#A67339" cx="861.302" cy="771.464" r="4.542"/><path opacity=".3" fill="#734A1E" d="M1115.631 614.475a8.486 8.486 0 0 0-8.487-8.486c-4.684 0-8.48 3.797-8.48 8.486a8.48 8.48 0 0 0 8.48 8.481c4.685 0 8.487-3.797 8.487-8.481zM1095.743 617.843a4.54 4.54 0 0 0-4.543-4.538 4.539 4.539 0 0 0-4.539 4.538 4.54 4.54 0 1 0 9.082 0zM864.283 627.064c0-13.36-10.83-24.901-24.189-24.901-13.357 0-24.189 11.541-24.189 24.901s10.832 24.188 24.189 24.188c13.359.001 24.189-10.827 24.189-24.188z"/><path opacity=".6" fill="#A67339" d="M1025.358 613.308c0-19.53-15.834-35.358-35.358-35.358-19.527 0-35.358 15.828-35.358 35.358s15.831 35.358 35.358 35.358c19.524 0 35.358-15.828 35.358-35.358z"/><path opacity=".6" fill="#A67339" d="M1024.859 602.864c0-10.927-8.859-19.781-19.787-19.781-10.925 0-19.782 8.854-19.782 19.781 0 10.928 8.857 19.787 19.782 19.787 10.928 0 19.787-8.859 19.787-19.787z"/><circle opacity=".6" fill="#A67339" cx="942.298" cy="640.971" r="4.542"/><path opacity=".6" fill="#A67339" d="M95.189 581.337a4.544 4.544 0 0 0-4.541-4.543 4.544 4.544 0 0 0 0 9.087 4.544 4.544 0 0 0 4.541-4.544zM139.353 597.187a4.54 4.54 0 0 0-4.542-4.539 4.539 4.539 0 0 0-4.54 4.539 4.542 4.542 0 0 0 9.082 0zM333.291 618.882c0-8.627-6.994-15.627-15.627-15.627-8.627 0-15.626 7-15.626 15.627 0 8.634 6.999 15.628 15.626 15.628 8.633 0 15.627-6.994 15.627-15.628z"/><path opacity=".3" fill="#734A1E" d="M592.153 595.712c0-18.804-15.244-35.047-34.045-35.047s-34.045 16.243-34.045 35.047 15.244 34.043 34.045 34.043 34.045-15.239 34.045-34.043zM409.939 578.023c0-11.896-9.645-21.532-21.533-21.532-11.894 0-21.532 9.637-21.532 21.532 0 11.89 9.639 21.531 21.532 21.531 11.889.001 21.533-9.641 21.533-21.531z"/><path opacity=".6" fill="#A67339" d="M723.875 592.309c0-19.53-15.834-35.358-35.358-35.358-19.527 0-35.358 15.828-35.358 35.358s15.831 35.358 35.358 35.358c19.524 0 35.358-15.828 35.358-35.358z"/><path opacity=".6" fill="#A67339" d="M723.376 581.865c0-10.927-8.859-19.781-19.787-19.781-10.925 0-19.782 8.854-19.782 19.781 0 10.928 8.857 19.787 19.782 19.787 10.928 0 19.787-8.859 19.787-19.787z"/><circle opacity=".6" fill="#A67339" cx="273.605" cy="613.306" r="12.063"/><path opacity=".6" fill="#A67339" d="M544.993 587.362c0-9.284-7.529-16.813-16.817-16.813-9.283 0-16.812 7.528-16.812 16.813 0 9.288 7.528 16.816 16.812 16.816 9.288.001 16.817-7.528 16.817-16.816z"/><circle opacity=".6" fill="#A67339" cx="489" cy="487" r="26.32"/><circle opacity=".6" fill="#A67339" cx="1203" cy="551" r="26.32"/><path opacity=".6" fill="#A67339" d="M484.336 463.693c0-2.507-2.032-4.539-4.541-4.539s-4.54 2.032-4.54 4.539a4.54 4.54 0 1 0 9.081 0zM1202.995 834.564c0-12.565 10.192-22.757 22.757-22.757 12.566 0 22.758 10.191 22.758 22.757s-10.191 22.757-22.758 22.757c-12.565 0-22.757-10.19-22.757-22.757z"/><circle opacity=".6" fill="#A67339" cx="1317.189" cy="814.507" r="12.062"/><path opacity=".6" fill="#A67339" d="M1366.131 810.594a4.542 4.542 0 0 1 9.082 0 4.539 4.539 0 0 1-4.538 4.544 4.543 4.543 0 0 1-4.544-4.544z"/><circle opacity=".6" fill="#A67339" cx="1285.116" cy="688.065" r="15.626"/><path opacity=".3" fill="#734A1E" d="M1377.39 647.206c0-11.896-9.643-21.532-21.532-21.532-11.894 0-21.532 9.637-21.532 21.532 0 11.89 9.639 21.531 21.532 21.531 11.89 0 21.532-9.641 21.532-21.531z"/><circle opacity=".6" fill="#A67339" cx="1371" cy="717" r="26.319"/><circle opacity=".6" fill="#A67339" cx="1241.057" cy="682.487" r="12.062"/><path opacity=".3" fill="#734A1E" d="M1241.921 686.911a4.54 4.54 0 1 0-9.082 0 4.544 4.544 0 0 0 4.541 4.543 4.543 4.543 0 0 0 4.541-4.543z"/><path opacity=".6" fill="#A67339" d="M1322.173 677.844a4.544 4.544 0 0 0-4.541-4.543 4.544 4.544 0 0 0 0 9.087 4.544 4.544 0 0 0 4.541-4.544zM1366.337 693.693a4.54 4.54 0 0 0-9.082 0 4.54 4.54 0 1 0 9.082 0z"/><circle opacity=".6" fill="#A67339" cx="1370.567" cy="527.248" r="15.626"/><circle opacity=".6" fill="#A67339" cx="1326.508" cy="521.671" r="12.062"/><path opacity=".3" fill="#734A1E" d="M1327.373 526.094a4.54 4.54 0 1 0-9.082 0 4.544 4.544 0 0 0 4.541 4.543 4.544 4.544 0 0 0 4.541-4.543z"/></g></g><path fill="#734A1E" stroke="#472728" stroke-width="2" stroke-miterlimit="10" d="M1363.999 180H427V58c0-5.522-3.478-9-9.001-9h-212C200.476 49 195 52.478 195 58v343c0 5.523 5.476 11 10.999 11h1158c5.523 0 9.001-5.477 9.001-11V189c0-5.522-3.478-9-9.001-9z"/><g stroke="#472728" stroke-width="2" stroke-miterlimit="10"><path fill="#D29158" d="M259.516 411h-20.552l33.57-412h11.646zM357.482 411h20.552L344.465-1h-11.646z"/><path fill="#BE8047" d="M371.868 295H245.131l2.74-13h121.257z"/><path fill="#B37940" d="M370.497 297H246.501l-1.37-2h126.737z"/><path fill="#BE8047" d="M374.608 349H241.705l2.74-16h127.423z"/><path fill="#B37940" d="M373.238 350H243.075l-1.37-1h132.903z"/><path fill="#BE8047" d="M362.962 245H249.24l2.74-15h108.242z"/><path fill="#B37940" d="M361.592 247H250.61l-1.37-2h113.722z"/><path fill="#BE8047" d="M362.962 194H254.036l2.74-16h103.446z"/><path fill="#B37940" d="M361.592 195H255.406l-1.37-1h108.926z"/><g><path fill="#BE8047" d="M358.852 142H258.147l2.739-15h95.226z"/><path fill="#B37940" d="M357.482 144h-97.966l-1.369-2h100.705z"/></g><g><path fill="#BE8047" d="M354.742 91h-92.485l2.74-16h87.004z"/><path fill="#B37940" d="M353.372 92h-89.746l-1.369-1h92.485z"/></g><g><path fill="#BE8047" d="M350.631 39h-84.264l2.741-15h78.783z"/><path fill="#B37940" d="M349.261 40h-81.524l-1.37-1h84.264z"/></g></g><g><path fill="#734A1E" stroke="#472728" stroke-width="3" stroke-miterlimit="10" d="M1140.135 297.125l-21.302 13.744-15.803 28.858.687 34.355-6.185 17.864 17.18 17.866 29.545.87 31.607.38s74.897.376 79.021.376c4.122 0 74.208-.253 74.208-.253l2.75-19.927-14.43-9.617-4.812-16.493-32.98-21.3-19.927 4.123s-6.184 14.43-8.245 16.491c-2.061 2.061-17.865 2.747-17.865 2.747l-18.552-13.055 4.124-16.49-3.438-13.743-21.987-21.987-24.049-6.873-29.547 2.064z"/><path fill="none" d="M1317.412 381.643l-4.812-16.493-32.98-21.3-19.927 4.123s-6.184 14.43-8.245 16.491c-2.061 2.061-17.865 2.747-17.865 2.747l-18.552-13.055 4.124-16.49-3.438-13.743-21.987-21.987-24.049-6.873-29.546 2.063s-10.307 24.736-12.369 27.485c-2.062 2.747-15.804 12.367-15.804 12.367l2.75 24.05 3.435 10.307 21.301 15.116 31.606 5.497-31.606-2.061-21.988-11.681-3.436 13.054.688 18.554 29.545-1.13 31.607-1.62s74.897 1.376 79.021 1.376c4.122 0 74.208 2.747 74.208 2.747l2.75-19.927-14.431-9.617z"/><path fill="#916633" d="M1117.459 378.206l21.988 11.681 31.606 2.061-31.606-5.497-21.301-15.116-3.435-10.307-2.75-24.05s13.742-9.62 15.804-12.367c2.062-2.749 12.369-27.485 12.369-27.485l-21.302 13.744-15.803 28.858.687 34.355-6.185 17.864 17.18 17.866-.688-18.554 3.436-13.053z"/><path fill="none" d="M1317.412 381.643l-4.812-16.493-32.98-21.3-19.927 4.123s-6.184 14.43-8.245 16.491c-2.061 2.061-17.865 2.747-17.865 2.747l-9.62 11.682s-12.368 9.62-15.804 9.62c-3.437 0 19.927 10.308 23.362 10.308 3.134 0 37.137-1.717 40.988-2.017a.49.49 0 0 1 .238-.047c.243 0 .133.017-.238.047-1.101.595 14.216 7.542 19.478 8.199 5.498.687 37.105 6.184 37.105 6.184l2.75-19.927-14.43-9.617zM1211.595 349.348l4.122-25.425-21.987-21.987-24.049-6.873-29.546 2.063-21.302 13.744-15.803 28.858.687 34.355-6.185 17.864 17.18 17.866 29.545-.13 31.607-2.62s23.362-35.041 23.362-37.79 12.369-19.925 12.369-19.925z"/><path fill="#916633" d="M1272.51 396.804c-3.852.3-37.854 2.017-40.988 2.017-3.436 0-26.799-10.308-23.362-10.308 3.436 0 15.804-9.62 15.804-9.62l9.62-11.682-18.552-13.055 4.124-16.49-3.438-13.743-4.122 25.425s1.375 15.802 1.375 18.552c0 1.491-4.431 16.671-14.43 26.797-8.417 8.522-22.675 12.367-22.675 12.367s74.897 1.376 79.021 1.376c4.122 0 74.208 2.747 74.208 2.747s-31.607-5.497-37.105-6.184c-5.264-.657-15.977-6.013-19.48-8.199z"/><path fill="#916633" d="M1272.748 396.757a.488.488 0 0 0-.238.047c.371-.031.481-.047.238-.047zM1279.62 343.85s-16.664 13.656-17.865 14.6c-2.663 2.095-6.613 12.113-8.245 15.634-1.475 3.18-7.56 17.864-7.56 17.864l5.498-27.483 8.245-16.491 19.927-4.124zM1312.601 365.149s-10.05 14.344-10.735 17.78c-.688 3.434-9.878 9.707-11.939 11.08-2.061 1.373 12.369-6.87 12.369-6.87l15.117-5.497-4.812-16.493zM1114.711 361.027l3.435 10.307 21.301 15.116 31.607 5.497-30.234-10.304zM1223.963 378.893l27.313-14.172-17.693 2.49z"/><path fill="#916633" d="M1302.295 386h14.43l15.117 4.691-14.43-9.902zM1169.681 295.063l-2.75 28.174s15.434 15.379 19.24 18.551c.517.431 8.246 26.799 8.246 26.799l-12.369-23.361-35.73-19.929-3.092-14.944-3.091-13.227 29.546-2.063z"/><path fill="#916633" d="M1169.681 295.063l24.048 6.873 21.987 21.987-4.121 25.425-12.369 19.925 8.247-21.987 4.808-21.99-18.552-20.613zM1140.135 297.125l6.182 28.171 35.731 19.929 12.369 23.361-16.493-21.988-37.104-19.241-4.38-21.643zM1261.755 358.449l17.865-14.599 32.981 21.299-19.239 3.437-22.675 10.307 15.117-11.682zM1114.023 391.26l24.737 12.37s23.362.687 25.423 1.373c2.059.687 24.735-7.56 24.735-7.56l24.05-29.544s-5.497 32.122-37.105 39.164l-31.607 2.62-29.545.13-.688-18.553z"/></g><path fill="#734A1E" stroke="#472728" stroke-width="2" stroke-miterlimit="10" d="M1329.999 768c-12.15 0-21.999 9.85-21.999 22v111h135V768h-113.001z"/><g><path fill="#734A1E" stroke="#472728" stroke-width="2" stroke-miterlimit="10" d="M411.25 42.654c-.13 0-.256.006-.387.01-6.828-7.028-16.374-11.399-26.946-11.399-2.034 0-4.031.166-5.979.479-6.808-6.859-16.242-11.109-26.669-11.109-6.771 0-13.116 1.8-18.603 4.932a37.394 37.394 0 0 0-18.602-4.932 37.4 37.4 0 0 0-16.323 3.723 37.414 37.414 0 0 0-16.325-3.723c-11.429 0-21.66 5.109-28.553 13.16a37.644 37.644 0 0 0-8.65-1.012c-10.3 0-19.629 4.146-26.417 10.856a30.756 30.756 0 0 0-7.75-.985c-10.081 0-19.028 4.852-24.636 12.346h250.474c-5.606-7.494-14.553-12.346-24.634-12.346z"/><path fill="#916633" stroke="#472728" stroke-width="2" stroke-miterlimit="10" d="M411.25 52.042c-.13 0-.256.008-.387.01-6.828-7.028-16.374-11.397-26.946-11.397-2.034 0-4.031.167-5.979.478-6.808-6.859-16.242-11.107-26.669-11.107a37.403 37.403 0 0 0-18.603 4.931 37.393 37.393 0 0 0-18.602-4.931 37.426 37.426 0 0 0-16.323 3.721 37.441 37.441 0 0 0-16.325-3.721c-11.429 0-21.66 5.108-28.553 13.159a37.699 37.699 0 0 0-8.65-1.012c-10.3 0-19.629 4.146-26.417 10.857a30.666 30.666 0 0 0-7.75-.987 30.62 30.62 0 0 0-13.167 2.958h227.536a30.59 30.59 0 0 0-13.165-2.959z"/><path fill="#7EAC63" d="M163 48h284v6H163z"/><path fill="none" stroke="#472728" stroke-width="2" stroke-miterlimit="10" d="M187 49h249"/></g><g><defs><path id="f" d="M78 737h1294v1163H78z"/></defs></g><g><path fill="#734A1E" stroke="#472728" stroke-width="2" stroke-miterlimit="10" d="M201.771 591c0 22.092-8.326 43.495-21.787 57.973C166.523 663.449 147.926 671 127.385 671c-24.223 0-45.741-1.926-59.323-21.202-9.454-13.417-15.063-40.666-15.063-58.798 0-17.939 5.491-40.114 14.764-53.458C81.327 518.021 102.984 511 127.385 511c14.824 0 50.39 3.26 61.989 11.298 20.546 14.237 12.397 40.462 12.397 68.702z"/><path fill="#FFF" d="M105.406 646.344a1.326 1.326 0 0 0-.235 1.215c.126.42.451.75.869.883l8.125 2.58c.052.017.104.029.159.04l6.833 1.272a1.328 1.328 0 0 0 1.549-1.063 1.324 1.324 0 0 0-.737-1.438 1.325 1.325 0 0 0-.865-2.356l-8.676.204-3.734-1.187 7.866-9.793c.204-.253.308-.572.292-.896l-.675-13.65a9.186 9.186 0 0 0 3.006-.678c1.439-.601 2.374-2.178 2.773-4.042 2.244.721 4.8.834 7.097-.112l.608 12.313-8.765 10.91a1.328 1.328 0 0 0 .634 2.098l8.124 2.58c.052.017.105.03.159.04l6.833 1.273a1.328 1.328 0 0 0 1.549-1.063 1.324 1.324 0 0 0-.738-1.439 1.324 1.324 0 0 0-.864-2.355l-8.677.204-3.734-1.186 7.867-9.793c.203-.254.307-.573.291-.898l-.777-15.709c1.308-3.781.068-9.566-4.108-10.123-2.662-.357-7.365 1.531-9.867 4.077-.018-.003-.033-.009-.051-.011-3.871-.518-12.025 3.673-11.616 7.764.258 2.574 3.663 5.25 7.587 5.978l.665 13.448-8.767 10.913zm33.072-47.719l6.104 1.836c.019.055.039.11.064.162l-.606.586a.333.333 0 0 0-.081.125l-.751 2.066a.332.332 0 1 0 .624.227l.726-1.994.545-.527c.183.105.395.165.622.158.047-.002.091-.013.136-.02l.482.996-1.127 1.777a.332.332 0 0 0 .561.356l1.226-1.934a.33.33 0 0 0 .019-.322l-.561-1.157c.247-.223.4-.544.388-.902a1.165 1.165 0 0 0-1.206-1.123 1.156 1.156 0 0 0-.68.253l-6.103-1.836a.666.666 0 0 0-.382 1.273zm9.062-5.431l-.163 2.099a.332.332 0 0 0 .306.356.326.326 0 0 0 .356-.306l.177-2.282a.33.33 0 0 0-.135-.294l-1.037-.759a1.159 1.159 0 0 0-.081-.979 1.16 1.16 0 1 0-2.073.116l-6.251 1.239a.663.663 0 1 0 .259 1.301l6.253-1.238c.042.04.085.079.132.112l-.26.803a.334.334 0 0 0-.013.147l.305 2.179a.332.332 0 0 0 .328.285c.016 0 .031 0 .047-.003a.333.333 0 0 0 .283-.376l-.294-2.102.234-.721c.211.007.427-.039.624-.152.041-.023.074-.053.111-.08l.892.655zm-72.342 5.788a3.35 3.35 0 0 0-.34 1.469 3.372 3.372 0 0 0 3.372 3.372c.41 0 .801-.077 1.164-.211a3.831 3.831 0 0 0-.047.569 3.73 3.73 0 0 0 6.161 2.826 3.729 3.729 0 0 0 3.687 3.186 3.719 3.719 0 0 0 2.745-1.211 4.16 4.16 0 1 0 7.988.562 4.156 4.156 0 0 0 3.53 1.965 4.162 4.162 0 0 0 4.162-4.162c0-.063-.007-.123-.009-.186a4.383 4.383 0 0 0 3.231 1.42 4.4 4.4 0 0 0 4.009-6.207 4.4 4.4 0 0 0 6.815-3.676c0-1.11-.415-2.121-1.093-2.896a4.162 4.162 0 0 0 3.766-7.024 3.729 3.729 0 0 0 1.96-6.557 3.371 3.371 0 0 0 2.622-3.285c0-.391-.07-.765-.192-1.113 1.924.355 3.964.421 5.87.111 8.955 3.017 22.635 1.669 26.742.2 1.107-.395.406-1.814-.963-1.709-3.607.279-7.472-.892-9.307-1.428-2.969-.865-5.388-1.968-7.503-2.645 1.751-1.412 3.47-2.15 7.503-2.15 0 2.494 1.909 4.516 2.329 4.516s2.329-2.021 2.329-4.516c0 2.494 1.909 4.516 2.329 4.516s2.328-2.021 2.328-4.516c0 2.494 1.91 4.516 2.329 4.516.419 0 2.329-2.021 2.329-4.516h1.189c5.5 0 7.314-12.197 1.232-19.731-4.756-5.892-35.896-7.316-42.53 0-6.635 7.317-6.31 18.426-4.102 22.843.527 1.055 1.572 2 2.925 2.77a3.365 3.365 0 0 0-.5 5.323 3.727 3.727 0 0 0-3.087 3.67c0 .963.368 1.838.966 2.499a4.16 4.16 0 0 0-2.919 6.831 4.4 4.4 0 0 0-4.96 6.102 4.374 4.374 0 0 0-2.415-.725 4.4 4.4 0 0 0-4.4 4.401c0 .095.008.188.015.282a4.149 4.149 0 0 0-2.998-1.279 4.16 4.16 0 0 0-3.912 2.753 4.157 4.157 0 0 0-6.751-.439 3.729 3.729 0 0 0-3.6-2.768c-.93 0-1.778.342-2.431.904a3.73 3.73 0 0 0-3.687-3.186 3.71 3.71 0 0 0-1.491.313 3.372 3.372 0 0 0-3.751-3.661 2.703 2.703 0 1 0-5.279-.821 2.7 2.7 0 0 0 2.64 2.699zm85.372-48.926c2.116-.706 9.876 6.937 4.233 8.229s-6.243-7.559-4.233-8.229zm-7.576 1.282c4.233-.076 8.113 10.188 1.058 10.188-7.054 0-5.291-10.111-1.058-10.188zm-12.236-3.844c4.756 0 7.13 7.828 5.579 10.34-1.55 2.512-7.784 4.457-10.562 1.896s.228-12.236 4.983-12.236zm-15.23 47.719a1.328 1.328 0 0 0 1.056 1.553l9.43 1.796a1.323 1.323 0 0 0 1.553-1.057 1.326 1.326 0 0 0-1.056-1.552l-9.43-1.797a1.33 1.33 0 0 0-1.553 1.057zm1.292-5.117a1.329 1.329 0 0 0 1.054 1.555l8.546 1.643a1.33 1.33 0 0 0 .501-2.61l-8.546-1.643a1.33 1.33 0 0 0-1.555 1.055zm6.826 10.64l-8.546-1.643a1.327 1.327 0 1 0-.501 2.609l8.546 1.644a1.328 1.328 0 0 0 .501-2.61z"/></g></svg>